<svg xmlns="http://www.w3.org/2000/svg" width="26.814" height="26.239" viewBox="0 0 26.814 26.239"><path d="M26.5,13.313a1.048,1.048,0,0,1-1.481,0l-.828-.834v3.814a1.047,1.047,0,1,1-2.095,0V10.366L14.135,2.347a1.047,1.047,0,0,0-1.359,0L4.712,10.392c0,.01,0,.02,0,.03v11.1A2.1,2.1,0,0,0,6.808,23.62H8.117a1.047,1.047,0,1,1,0,2.095H6.808a4.194,4.194,0,0,1-4.19-4.19V12.481l-.831.83a1.047,1.047,0,0,1-1.48-1.483L11.321.837,11.364.8A3.14,3.14,0,0,1,15.553.8L15.6.846,26.51,11.831a1.047,1.047,0,0,1,0,1.481Zm-3.357,7.165A1.047,1.047,0,0,0,22.1,21.525a2.1,2.1,0,0,1-2.095,2.095H18.7a1.047,1.047,0,1,0,0,2.095h1.309a4.194,4.194,0,0,0,4.19-4.19A1.047,1.047,0,0,0,23.148,20.478Zm-3.142-3.831c0,2.8-1.671,4.608-3.284,6.351a19.438,19.438,0,0,0-2.249,2.752,1.048,1.048,0,0,1-.885.488h-.36a1.048,1.048,0,0,1-.885-.488A19.438,19.438,0,0,0,10.092,23c-1.613-1.744-3.281-3.547-3.284-6.349a6.6,6.6,0,0,1,13.2,0Zm-2.095,0a4.5,4.5,0,0,0-9.008,0c0,1.981,1.2,3.281,2.727,4.926.6.645,1.209,1.306,1.777,2.048.568-.741,1.18-1.4,1.777-2.048,1.522-1.646,2.725-2.945,2.727-4.929ZM13.36,13.774a2.88,2.88,0,0,0,0,5.761,1.047,1.047,0,1,0,0-2.095.786.786,0,1,1,.786-.786,1.047,1.047,0,1,0,2.095,0A2.884,2.884,0,0,0,13.36,13.774Zm0,0" transform="translate(0 0)" fill="#2d2d2d"/></svg>