<svg xmlns="http://www.w3.org/2000/svg" width="29.988" height="19.992" viewBox="0 0 29.988 19.992"><g transform="translate(0 0)"><path d="M26.864,85.333H3.124A3.128,3.128,0,0,0,0,88.457V102.2a3.128,3.128,0,0,0,3.124,3.124h23.74a3.128,3.128,0,0,0,3.124-3.124V88.457A3.128,3.128,0,0,0,26.864,85.333ZM28.738,102.2a1.876,1.876,0,0,1-1.874,1.874H3.124A1.876,1.876,0,0,1,1.249,102.2V88.457a1.876,1.876,0,0,1,1.874-1.874h23.74a1.876,1.876,0,0,1,1.874,1.874V102.2Z" transform="translate(0 -85.333)" fill="#2d2d2d"/></g><g transform="translate(2.5 2.499)"><path d="M67.55,128.272a.625.625,0,0,0-.868-.162l-10.247,7.011a2.237,2.237,0,0,1-2.54,0L43.647,128.11a.624.624,0,1,0-.7,1.031l10.247,7.011a3.476,3.476,0,0,0,3.951,0l10.247-7.011A.624.624,0,0,0,67.55,128.272Z" transform="translate(-42.67 -128)" fill="#2d2d2d"/></g><g transform="translate(2.498 9.996)"><g transform="translate(0 0)"><path d="M51.249,256.22a.628.628,0,0,0-.881-.08l-7.5,6.247a.625.625,0,0,0,.8.961l7.5-6.247A.626.626,0,0,0,51.249,256.22Z" transform="translate(-42.646 -255.996)" fill="#2d2d2d"/></g></g><g transform="translate(18.742 9.996)"><path d="M328.524,262.386l-7.5-6.247a.625.625,0,0,0-.8.961l7.5,6.247a.625.625,0,1,0,.8-.961Z" transform="translate(-320.001 -255.995)" fill="#2d2d2d"/></g></svg>