<svg xmlns="http://www.w3.org/2000/svg" xmlns:xlink="http://www.w3.org/1999/xlink" width="24.327" height="45.667" viewBox="0 0 24.327 45.667"><defs><filter id="a" x="-9" y="-6" width="42.327" height="63.667" filterUnits="userSpaceOnUse"><feOffset dy="3" input="SourceAlpha"/><feGaussianBlur stdDeviation="3" result="b"/><feFlood flood-color="#038d08" flood-opacity="0.302"/><feComposite operator="in" in2="b"/><feComposite in="SourceGraphic"/></filter><clipPath id="c"><g transform="matrix(1, 0, 0, 1, 0, 0)" filter="url(#a)"><rect width="24.327" height="45.667" transform="translate(0 0)" fill="red"/></g></clipPath></defs><g clip-path="url(#c)"><path d="M12.164,21.643a1.427,1.427,0,0,1-.94-.353c-.983-.859-1.93-1.667-2.766-2.379l0,0a51.445,51.445,0,0,1-6.04-5.669A9.055,9.055,0,0,1,0,7.311,7.6,7.6,0,0,1,1.93,2.118,6.542,6.542,0,0,1,6.8,0,6.119,6.119,0,0,1,10.618,1.32a7.82,7.82,0,0,1,1.545,1.614A7.821,7.821,0,0,1,13.709,1.32,6.119,6.119,0,0,1,17.531,0,6.542,6.542,0,0,1,22.4,2.118a7.6,7.6,0,0,1,1.93,5.193,9.054,9.054,0,0,1-2.413,5.927,51.439,51.439,0,0,1-6.039,5.669c-.837.713-1.786,1.522-2.771,2.384a1.428,1.428,0,0,1-.94.353ZM6.8,1.425A5.132,5.132,0,0,0,2.978,3.084,6.185,6.185,0,0,0,1.425,7.311,7.618,7.618,0,0,0,3.51,12.329a50.625,50.625,0,0,0,5.867,5.494l0,0c.839.715,1.79,1.526,2.78,2.391,1-.867,1.949-1.679,2.789-2.4a50.638,50.638,0,0,0,5.866-5.493A7.619,7.619,0,0,0,22.9,7.311,6.185,6.185,0,0,0,21.35,3.084a5.132,5.132,0,0,0-3.818-1.659,4.726,4.726,0,0,0-2.951,1.022,6.915,6.915,0,0,0-1.644,1.9.9.9,0,0,1-1.545,0,6.909,6.909,0,0,0-1.644-1.9A4.726,4.726,0,0,0,6.8,1.425Zm0,0" transform="translate(0 12.012)" fill="red"/></g></svg>