<svg xmlns="http://www.w3.org/2000/svg" width="27.584" height="26.496" viewBox="0 0 27.584 26.496"><g transform="translate(0 26.496) rotate(-90)"><g transform="translate(0 0)"><path d="M25.8,2.989c-.066-.062-.205-.167-.3-.237C23.774,1.448,21.116-.111,18.55.006,14.254.2,8.545,6,6.9,7.774S-.115,15.664,0,19.959A7.24,7.24,0,0,0,.45,22.213,14.738,14.738,0,0,0,3.225,26.67s.189.222.28.308a2.556,2.556,0,0,0,1.039.522,2.449,2.449,0,0,0,.658.084,2.655,2.655,0,0,0,.881-.142,2.564,2.564,0,0,0,.993-.593c.159-.171,3.193-4.043,3.21-4.068l.019-.029a2.683,2.683,0,0,0,.374-.652,2.6,2.6,0,0,0,.027-1.821,2.465,2.465,0,0,0-.638-.974L8.644,17.974a1.29,1.29,0,0,1-.292-.439,1.18,1.18,0,0,1-.021-.185l8.3-8.931a.159.159,0,0,1,.054-.038l.033.012a3.084,3.084,0,0,1,.486.38l1.425,1.317a2.576,2.576,0,0,0,2.823.426,3.06,3.06,0,0,0,.68-.474L22.2,9.99c.029-.026,3.607-3.286,3.741-3.432a2.689,2.689,0,0,0,.557-1.745,2.612,2.612,0,0,0-.315-1.345A2.383,2.383,0,0,0,25.8,2.989Zm-1.03,2.459c-.185.183-3.435,3.15-3.605,3.305l-.132.109a1.405,1.405,0,0,1-.291.21.939.939,0,0,1-1.027-.161L18.291,7.593a3.955,3.955,0,0,0-.948-.678,1.7,1.7,0,0,0-.682-.146,1.728,1.728,0,0,0-1.205.552L7.072,16.342a1.644,1.644,0,0,0-.3,1.484,2.729,2.729,0,0,0,.776,1.322l1.427,1.333a.866.866,0,0,1,.22.339,1,1,0,0,1-.01.693,1.106,1.106,0,0,1-.16.268,1,1,0,0,0-.059.084c-.288.371-2.9,3.7-3.057,3.881a1.38,1.38,0,0,1-.386.19,1.1,1.1,0,0,1-.319.04.835.835,0,0,1-.209-.02A1.621,1.621,0,0,1,4.6,25.8c-.052-.052-.141-.16-.157-.178a13.181,13.181,0,0,1-2.485-3.955,5.636,5.636,0,0,1-.354-1.753c-.08-2.934,3.434-7.786,6.467-11.05S15.69,1.746,18.624,1.611c2.115-.1,4.392,1.277,5.894,2.41l.058.043c.034.025.1.071.126.094a1.008,1.008,0,0,1,.1.148,1.162,1.162,0,0,1,.081.431A2.411,2.411,0,0,1,24.773,5.448Z" fill="#2d2d2d"/></g></g></svg>