<svg xmlns="http://www.w3.org/2000/svg" width="24.533" height="21.601" viewBox="0 0 24.533 21.601"><g transform="translate(-0.001)"><g transform="translate(0.001 0)"><path d="M3.571,52.137H1.832l1.229-1.229a4.16,4.16,0,0,0,1.188-2.46A9.368,9.368,0,0,1,.578,44.107,8.5,8.5,0,0,1,.333,38.66a10.665,10.665,0,0,1,4.086-5.705,13.352,13.352,0,0,1,7.888-2.419,13.224,13.224,0,0,1,9.118,3.108,9.329,9.329,0,0,1,2.327,10.687,9.6,9.6,0,0,1-2.333,3.246,13.194,13.194,0,0,1-9.112,3.12,16.58,16.58,0,0,1-4.124-.525,6.441,6.441,0,0,1-4.612,1.965Zm8.736-20.161c-5.954,0-9.608,3.551-10.587,7.07-.926,3.326.439,6.468,3.65,8.406l.359.217-.011.419a5.67,5.67,0,0,1-.573,2.35A5.1,5.1,0,0,0,7.4,48.894l.3-.36.451.135a14.894,14.894,0,0,0,4.151.588c7.41,0,10.785-4.487,10.785-8.656a7.919,7.919,0,0,0-2.639-5.894,11.822,11.822,0,0,0-8.146-2.731Z" transform="translate(0 -30.536)" fill="#2d2d2d"/></g></g></svg>