<svg xmlns="http://www.w3.org/2000/svg" width="90" height="90" viewBox="0 0 90 90"><g transform="translate(-1171 -137)"><path d="M10,0H80A10,10,0,0,1,90,10V80A10,10,0,0,1,80,90H10A10,10,0,0,1,0,80V10A10,10,0,0,1,10,0Z" transform="translate(1171 137)" fill="#ffe0e0" opacity="0.5"/><g transform="translate(1193 106.186)"><g transform="translate(0 57.815)"><path d="M59.9,185.277h6.89a.889.889,0,1,0,0-1.778H59.9a.889.889,0,1,0,0,1.778Z" transform="translate(-53.764 -172.323)" fill="#ff0707"/><path d="M59.9,254.523h6.89a.889.889,0,1,0,0-1.778H59.9a.889.889,0,0,0,0,1.778Z" transform="translate(-53.764 -235.411)" fill="#ff0707"/><path d="M147.513,434.753a.888.888,0,1,0-.481,1.161A.9.9,0,0,0,147.513,434.753Z" transform="translate(-132.839 -400.736)" fill="#ff0707"/><path d="M45.29,78.072,34.713,66.718l3.238-3.231a2.94,2.94,0,0,0,.022-4.158,2.966,2.966,0,0,0-4.161-.033l-.008.008-4.44,4.429H27.7V60.32a.889.889,0,0,0-.889-.889H22.107V58.7a.889.889,0,1,0-1.778,0v.726H17.08V58.7a.889.889,0,1,0-1.778,0v.726H12.053V58.7a.889.889,0,1,0-1.778,0v.726H7.026V58.7a.889.889,0,1,0-1.778,0v.726H.889A.889.889,0,0,0,0,60.32V92.172a.889.889,0,0,0,.889.889H9.966a.889.889,0,1,0,0-1.778H1.778V61.209H5.248v.807a.889.889,0,0,0,1.778,0v-.807h3.249v.807a.889.889,0,0,0,1.778,0v-.807H15.3v.807a.889.889,0,0,0,1.778,0v-.807h3.248v.807a.889.889,0,0,0,1.778,0v-.807h3.82V63.74a6.428,6.428,0,0,0-4.255,1.866l-6.544,6.544a.9.9,0,0,0,.146,1.376,6.048,6.048,0,0,0,2.426.909,6.126,6.126,0,0,0,.873.062h0l-1.021,1.018a.889.889,0,0,0-.176.253l-2.853,4.285a1.942,1.942,0,0,0-.324,1.254H6.137a.889.889,0,0,0,0,1.778H16.152a1.97,1.97,0,0,0,1.09-.344l4.336-2.946a.923.923,0,0,0,.144-.116l2.011-2.006,2.194,2.189V91.283H17.789a.889.889,0,1,0,0,1.778h9.026a.889.889,0,0,0,.889-.889V81.6a6.236,6.236,0,0,0,4.006,1.443h3.548a2.723,2.723,0,0,1,1.958.835l6.775,7.2a.9.9,0,0,0,1.537-.609V78.678A.889.889,0,0,0,45.29,78.072ZM22.929,66.863a4.624,4.624,0,0,1,3.259-1.35h1.393l-5.54,5.527a6.2,6.2,0,0,1-1.654,1.279,4.346,4.346,0,0,1-3.113.2Zm12.126-6.294a1.182,1.182,0,0,1,1.655.012,1.161,1.161,0,0,1-.012,1.644L27.4,71.5l-.448-.448a3.468,3.468,0,0,0-1.52-.885ZM16.242,81.27a.152.152,0,0,1-.213-.02.145.145,0,0,1-.022-.213l2.324-3.49L19.7,78.918Zm4.852-3.478-1.65-1.65,1.694-1.691a3.494,3.494,0,0,0,.9,1.531l.434.433ZM43.75,88.222l-5.243-5.571a4.513,4.513,0,0,0-3.249-1.39H31.711a4.475,4.475,0,0,1-3.181-1.314l-5.236-5.225a1.705,1.705,0,0,1,0-2.42,1.739,1.739,0,0,1,2.405,0l4.254,4.254a.9.9,0,0,0,1.258,0,.889.889,0,0,0,0-1.258l-2.549-2.549,4.791-4.78,10.3,11.053Z" transform="translate(0 -57.815)" fill="#ff0707"/></g></g></g></svg>