<svg xmlns="http://www.w3.org/2000/svg" xmlns:xlink="http://www.w3.org/1999/xlink" width="25" height="31.25" viewBox="0 0 25 31.25">
  <defs>
    <radialGradient id="radial-gradient" cx="0.5" cy="0.5" r="1.477" gradientTransform="translate(0 0.02) scale(1 0.959)" gradientUnits="objectBoundingBox">
      <stop offset="0" stop-color="#ff0404" stop-opacity="0"/>
      <stop offset="1" stop-color="red"/>
    </radialGradient>
  </defs>
  <g id="Group_506" data-name="Group 506" transform="translate(-1730 -30)">
    <path id="Icon_ionic-md-notifications-outline" data-name="Icon ionic-md-notifications-outline" d="M18.07,8.471a10.165,10.165,0,0,1,1.681.315,7.166,7.166,0,0,1,5.462,7.021v8.973l.655.658.548.55H9.584l.548-.55.655-.658V15.806a7.166,7.166,0,0,1,5.462-7.021,12.447,12.447,0,0,1,1.681-.315m.07-5.1a2.15,2.15,0,0,0-2.184,2.194V6.592a9.479,9.479,0,0,0-7.279,9.214V23.85L5.625,26.775v1.462h24.75V26.775L27.463,23.85V15.806a9.479,9.479,0,0,0-7.279-9.214V5.569A2.15,2.15,0,0,0,18,3.375ZM20.912,29.7H15.088a2.912,2.912,0,1,0,5.823,0Z" transform="translate(1724.375 28.625)"/>
    <circle id="Ellipse_177" data-name="Ellipse 177" cx="7" cy="7" r="7" transform="translate(1741 30)" fill="url(#radial-gradient)"/>
    <circle id="Ellipse_176" data-name="Ellipse 176" cx="4" cy="4" r="4" transform="translate(1744 33)" fill="#ff0404"/>
  </g>
</svg>
