<svg xmlns="http://www.w3.org/2000/svg" width="24.717" height="23.402" viewBox="0 0 24.717 23.402"><g transform="translate(0.158 0.151)"><path d="M122.679,290.465a.477.477,0,1,0-.651-.174A.477.477,0,0,0,122.679,290.465Zm0,0" transform="translate(-116.149 -275.771)" fill="#141414" stroke="#141414" stroke-width="0.3"/><path d="M4.576,39.274l2.4,4.158a1.907,1.907,0,1,0,3.3-1.907l-1.43-2.477,1.239-.715a.477.477,0,0,0,.174-.651l-.62-1.074,9.131-1.791a1.43,1.43,0,0,0,1.159-2.143L18.347,29.93,19.36,28.4a.477.477,0,0,0,.015-.5l-.953-1.651a.478.478,0,0,0-.442-.237l-1.834.11-1.759-3.046a1.418,1.418,0,0,0-1.221-.715h-.018a1.418,1.418,0,0,0-1.2.659L5.717,30.948,1.669,33.285a3.337,3.337,0,0,0,2.907,5.988ZM9.453,42a.953.953,0,0,1-1.652.953L5.418,38.827l1.651-.953L9.453,42Zm-1.081-3.78L7.9,37.4l.826-.477.477.826Zm9.371-11.246.659,1.141-.587.89L16.679,27.04Zm-5-3.439a.477.477,0,0,1,.82.009l5.545,9.6a.477.477,0,0,1-.4.715,1.75,1.75,0,0,0-.261.044L12.578,23.751c.123-.158.139-.174.163-.214Zm-.8,1.022L17.455,34.1,9.138,35.735l-2.529-4.38ZM1.273,37.367a2.382,2.382,0,0,1,.872-3.256l3.716-2.145,2.384,4.128L4.529,38.239a2.386,2.386,0,0,1-3.256-.873Zm0,0" transform="translate(0 -21.29)" fill="#141414" stroke="#141414" stroke-width="0.3"/><path d="M45.7,309.811a.477.477,0,0,0-.651-.174l-.826.477a.477.477,0,0,1-.651-.174.477.477,0,1,0-.826.477,1.432,1.432,0,0,0,1.954.523l.826-.477a.477.477,0,0,0,.174-.651Zm0,0" transform="translate(-40.648 -294.815)" fill="#141414" stroke="#141414" stroke-width="0.3"/><path d="M439.176,42.541l-2.656,1.478a.477.477,0,0,0,.464.833l2.656-1.478a.477.477,0,0,0-.464-.833Zm0,0" transform="translate(-415.477 -40.456)" fill="#141414" stroke="#141414" stroke-width="0.3"/><path d="M442.505,137.131l-1.842-.493a.477.477,0,1,0-.247.921l1.842.493a.477.477,0,1,0,.247-.921Zm0,0" transform="translate(-419.086 -130.108)" fill="#141414" stroke="#141414" stroke-width="0.3"/><path d="M384,.354,383.509,2.2a.477.477,0,0,0,.921.247L384.923.6A.477.477,0,1,0,384,.354Zm0,0" transform="translate(-365.211 0)" fill="#141414" stroke="#141414" stroke-width="0.3"/></g></svg>