<svg xmlns="http://www.w3.org/2000/svg" width="24.707" height="23.182" viewBox="0 0 24.707 23.182">
  <g id="Group_471" data-name="Group 471" transform="translate(0.15 0.15)">
    <g id="Group_282" data-name="Group 282" transform="translate(5.768 2.86)">
      <g id="Group_281" data-name="Group 281">
        <path id="Path_1899" data-name="Path 1899" d="M133.156,76H130.3a3.572,3.572,0,0,0-2.86,1.432A3.572,3.572,0,0,0,124.575,76h-2.86a.715.715,0,0,0-.715.715V85.3a.715.715,0,0,0,.715.715h4.29a.716.716,0,0,1,.715.715.715.715,0,0,0,1.43,0,.716.716,0,0,1,.715-.715h4.29a.715.715,0,0,0,.715-.715V76.715A.715.715,0,0,0,133.156,76Zm-6.436,8.7a2.136,2.136,0,0,0-.715-.123H122.43V77.43h2.145a2.148,2.148,0,0,1,2.145,2.145Zm5.72-.123h-3.575a2.136,2.136,0,0,0-.715.123V79.575A2.148,2.148,0,0,1,130.3,77.43h2.145Z" transform="translate(-121 -76)" fill="#141414" stroke="#141414" stroke-width="0.3"/>
      </g>
    </g>
    <g id="Group_284" data-name="Group 284" transform="translate(0 0)">
      <g id="Group_283" data-name="Group 283">
        <path id="Path_1900" data-name="Path 1900" d="M22.262,16H2.145A2.148,2.148,0,0,0,0,18.145V33.876a2.148,2.148,0,0,0,2.145,2.145H9.617L8.9,37.452H7.913a.715.715,0,1,0,0,1.43h8.581a.715.715,0,1,0,0-1.43h-.988l-.715-1.43h7.471a2.148,2.148,0,0,0,2.145-2.145V18.145A2.148,2.148,0,0,0,22.262,16ZM10.5,37.452l.715-1.43h1.976l.715,1.43Zm12.477-3.575a.716.716,0,0,1-.715.715H2.145a.716.716,0,0,1-.715-.715v-.715H22.977Zm0-2.145H1.43V18.145a.716.716,0,0,1,.715-.715H22.262a.716.716,0,0,1,.715.715Z" transform="translate(0 -16)" fill="#141414" stroke="#141414" stroke-width="0.3"/>
      </g>
    </g>
  </g>
</svg>
