<svg xmlns="http://www.w3.org/2000/svg" width="23.182" height="23.182" viewBox="0 0 23.182 23.182"><g transform="translate(0.15 0.15)"><g transform="translate(0 7.627)"><path d="M14.111,165.72h-.42a.375.375,0,0,1-.353-.246c-.047-.122-.1-.241-.15-.36a.376.376,0,0,1,.076-.426l.3-.3a1.147,1.147,0,0,0,0-1.617L12.483,161.7a1.147,1.147,0,0,0-1.617,0l-.3.3a.378.378,0,0,1-.426.076c-.118-.054-.238-.1-.36-.153a.375.375,0,0,1-.248-.354v-.42A1.144,1.144,0,0,0,8.39,160H6.865a1.144,1.144,0,0,0-1.144,1.144v.42a.375.375,0,0,1-.246.353c-.122.047-.241.1-.36.15a.377.377,0,0,1-.426-.076l-.3-.3a1.147,1.147,0,0,0-1.617,0L1.7,162.773a1.147,1.147,0,0,0,0,1.617l.3.3a.376.376,0,0,1,.076.426c-.054.118-.1.238-.151.36a.375.375,0,0,1-.356.246h-.42A1.144,1.144,0,0,0,0,166.865v1.525a1.144,1.144,0,0,0,1.144,1.144h.42a.375.375,0,0,1,.353.246c.047.122.1.241.15.36a.376.376,0,0,1-.076.426l-.3.3a1.147,1.147,0,0,0,0,1.617l1.078,1.078a1.147,1.147,0,0,0,1.617,0l.3-.3a.378.378,0,0,1,.426-.076c.118.054.238.1.36.153a.375.375,0,0,1,.249.354v.42a1.144,1.144,0,0,0,1.144,1.144H8.39a1.144,1.144,0,0,0,1.144-1.144v-.42a.375.375,0,0,1,.246-.353c.122-.047.241-.1.36-.15a.377.377,0,0,1,.426.076l.3.3a1.147,1.147,0,0,0,1.617,0l1.078-1.078a1.147,1.147,0,0,0,0-1.617l-.3-.3a.376.376,0,0,1-.076-.426c.054-.118.1-.238.153-.36a.375.375,0,0,1,.354-.247h.42a1.144,1.144,0,0,0,1.144-1.144v-1.525A1.144,1.144,0,0,0,14.111,165.72Zm.381,2.67a.381.381,0,0,1-.381.381h-.42a1.148,1.148,0,0,0-1.068.738q-.061.16-.131.315a1.147,1.147,0,0,0,.229,1.28l.3.3a.381.381,0,0,1,0,.539h0l-1.078,1.078a.381.381,0,0,1-.539,0l-.3-.3a1.146,1.146,0,0,0-1.28-.229c-.1.047-.209.091-.315.131a1.148,1.148,0,0,0-.737,1.067v.42a.381.381,0,0,1-.381.381H6.865a.381.381,0,0,1-.381-.381v-.42a1.148,1.148,0,0,0-.738-1.068q-.16-.061-.315-.131a1.148,1.148,0,0,0-1.28.229l-.3.3a.381.381,0,0,1-.539,0h0l-1.078-1.077a.381.381,0,0,1,0-.539l.3-.3a1.147,1.147,0,0,0,.229-1.28c-.047-.1-.091-.209-.131-.315a1.148,1.148,0,0,0-1.067-.738h-.42a.381.381,0,0,1-.381-.381v-1.525a.381.381,0,0,1,.381-.381h.42a1.148,1.148,0,0,0,1.068-.738q.061-.16.131-.315a1.148,1.148,0,0,0-.229-1.28l-.3-.3a.381.381,0,0,1,0-.539h0l1.078-1.078a.381.381,0,0,1,.539,0l.3.3a1.146,1.146,0,0,0,1.28.229c.1-.047.209-.091.315-.131a1.148,1.148,0,0,0,.739-1.067v-.42a.381.381,0,0,1,.381-.381H8.39a.381.381,0,0,1,.381.381v.42a1.148,1.148,0,0,0,.738,1.068q.16.061.315.131a1.146,1.146,0,0,0,1.28-.229l.3-.3a.384.384,0,0,1,.54,0l1.078,1.078a.381.381,0,0,1,0,.539l-.3.3a1.148,1.148,0,0,0-.229,1.28c.047.1.091.209.131.315a1.148,1.148,0,0,0,1.067.737h.42a.381.381,0,0,1,.381.381v1.525Z" transform="translate(0 -160)" fill="#141414" stroke="#141414" stroke-width="0.3"/></g><g transform="translate(4.193 11.822)"><path d="M94.817,251.28c0-.092-.01-.183-.021-.273s-.027-.195-.047-.289c-.013-.062-.031-.124-.048-.185q-.032-.118-.072-.232c-.019-.053-.038-.106-.058-.158a3.4,3.4,0,0,0-.168-.357c0-.009-.008-.018-.013-.027a3.384,3.384,0,0,0-.343-.5c-.011-.014-.024-.027-.035-.04-.053-.062-.107-.122-.164-.18-.03-.031-.061-.06-.092-.09s-.076-.071-.114-.1-.093-.079-.141-.117l-.063-.047a3.408,3.408,0,0,0-2.045-.68c-.038,0-.076.006-.114.007-.081,0-.163.007-.245.015l-.13.016a3.5,3.5,0,0,0-.37.069,3.434,3.434,0,0,0,0,6.651.087.087,0,0,1,.019,0,3.637,3.637,0,0,0,.4.076c.089.011.178.013.267.018.059,0,.114.012.177.012.109,0,.222-.007.337-.019a.37.37,0,0,0,.038,0c.093-.01.186-.024.282-.043.038-.007.074-.017.11-.025.067-.016.134-.032.2-.052.053-.016.105-.035.158-.053l.161-.059c.054-.021.1-.044.149-.067s.128-.058.191-.093h0a4.514,4.514,0,0,0,.977-.706,1.2,1.2,0,0,0,.2-.25,4.071,4.071,0,0,0,.574-1.567c.011-.074.02-.147.026-.222s.009-.138.011-.206c0-.022,0-.042,0-.064C94.825,251.381,94.82,251.332,94.817,251.28Zm-.76.25c0,.032,0,.063,0,.095-.007.092-.019.185-.034.277a2.675,2.675,0,0,1-1.34,1.869c-.047.025-.094.048-.14.069l-.032.015a2.754,2.754,0,0,1-.7.211l-.051.008c-.048.007-.095.013-.141.017s-.123.008-.186.01h-.08a2.67,2.67,0,0,1-.27-.017l-.046-.005a2.823,2.823,0,0,1-.312-.059,2.67,2.67,0,0,1,0-5.172h0a2.762,2.762,0,0,1,.67-.084,2.636,2.636,0,0,1,.326.022l.086.013c.082.013.164.029.244.05l.079.02a2.693,2.693,0,0,1,.582.245l.087.053c.06.038.119.076.176.12.031.023.062.045.092.069a2.749,2.749,0,0,1,.215.191c.027.027.052.058.078.086.044.048.087.1.127.148.028.035.055.072.082.109.038.055.076.112.111.17l.058.095a2.618,2.618,0,0,1,.131.28c.015.038.028.076.042.114.025.07.046.141.065.213.01.038.02.072.028.109a2.689,2.689,0,0,1,.048.312c0,.028,0,.056,0,.084C94.059,251.353,94.061,251.441,94.057,251.53Z" transform="translate(-87.959 -248)" fill="#141414" stroke="#141414" stroke-width="0.3"/></g><g transform="translate(4.16)"><path d="M104.839,8.009h-1.2a.372.372,0,0,1-.355-.25,7.944,7.944,0,0,0-.428-1.034.373.373,0,0,1,.073-.431l.85-.852a1.144,1.144,0,0,0,0-1.617l-1.622-1.619a1.144,1.144,0,0,0-1.617,0l-.85.85a.373.373,0,0,1-.43.074A7.923,7.923,0,0,0,98.226,2.7a.372.372,0,0,1-.252-.355v-1.2A1.144,1.144,0,0,0,96.831,0H94.542A1.144,1.144,0,0,0,93.4,1.144v1.2a.372.372,0,0,1-.25.355,7.948,7.948,0,0,0-1.034.43.373.373,0,0,1-.431-.073l-.852-.85a1.146,1.146,0,0,0-1.617,0L87.6,3.824a1.144,1.144,0,0,0,0,1.618l1.25,1.253a.381.381,0,0,0,.54-.538L88.135,4.9a.381.381,0,0,1,0-.539l1.618-1.619a.381.381,0,0,1,.539,0l.852.85a1.134,1.134,0,0,0,1.31.215,7.216,7.216,0,0,1,.935-.389,1.135,1.135,0,0,0,.771-1.079v-1.2a.381.381,0,0,1,.381-.381h2.288a.381.381,0,0,1,.381.381v1.2a1.134,1.134,0,0,0,.771,1.079,7.193,7.193,0,0,1,.935.389,1.137,1.137,0,0,0,1.31-.215l.852-.85a.381.381,0,0,1,.539,0l1.618,1.619a.381.381,0,0,1,0,.539l-.85.852a1.135,1.135,0,0,0-.215,1.31,7.215,7.215,0,0,1,.389.935,1.134,1.134,0,0,0,1.079.771h1.2a.381.381,0,0,1,.381.381v2.288a.381.381,0,0,1-.381.381h-1.2a1.134,1.134,0,0,0-1.079.771,7.187,7.187,0,0,1-.389.935,1.135,1.135,0,0,0,.215,1.31l.85.852a.381.381,0,0,1,0,.539l-1.619,1.619a.381.381,0,0,1-.539,0L99.827,16.6a.381.381,0,1,0-.548.531l.009.009,1.253,1.25a1.144,1.144,0,0,0,1.617,0l1.619-1.618a1.144,1.144,0,0,0,0-1.618l-.849-.851a.374.374,0,0,1-.074-.43,7.921,7.921,0,0,0,.431-1.034.372.372,0,0,1,.355-.252h1.2a1.144,1.144,0,0,0,1.144-1.144V9.153A1.144,1.144,0,0,0,104.839,8.009Z" transform="translate(-87.261)" fill="#141414" stroke="#141414" stroke-width="0.3"/></g><g transform="translate(8.973 5.342)"><path d="M195.337,113.5a4.963,4.963,0,0,0-7.011,0,.381.381,0,0,0,.539.539,4.2,4.2,0,1,1,5.972,5.893l-.04.04a.381.381,0,1,0,.53.549l.009-.009A4.963,4.963,0,0,0,195.337,113.5Z" transform="translate(-188.219 -112.049)" fill="#141414" stroke="#141414" stroke-width="0.3"/></g></g></svg>