<svg xmlns="http://www.w3.org/2000/svg" width="24.707" height="22.075" viewBox="0 0 24.707 22.075"><g transform="translate(0.15 0.15)"><path d="M20.674,8.45a5.251,5.251,0,0,0-7.2-4.876V1.121A1.123,1.123,0,0,0,12.353,0H7.524a.359.359,0,1,0,0,.718h4.829a.4.4,0,0,1,.4.4V4.129a.1.1,0,0,0,0,.011v1.7a.4.4,0,0,1-.4.4H10.027a.6.6,0,0,0-.428.177l-.924.925L7.75,6.426a.6.6,0,0,0-.428-.177H5a.4.4,0,0,1-.4-.4V1.121a.4.4,0,0,1,.4-.4H6.081a.359.359,0,1,0,0-.718H5A1.123,1.123,0,0,0,3.874,1.121V5.845A1.123,1.123,0,0,0,5,6.967h2.28l.971.971a.606.606,0,0,0,.856,0l.971-.971h.312a5.276,5.276,0,0,0,.1,3.265H1.475A1.476,1.476,0,0,0,0,11.706v6.913a1.477,1.477,0,0,0,1.475,1.475H4.881L6.35,21.564a.721.721,0,0,0,1.018,0l1.47-1.47h3.4a1.477,1.477,0,0,0,1.475-1.475V15.593a.359.359,0,1,0-.718,0v3.027a.758.758,0,0,1-.757.757h-3.4a.715.715,0,0,0-.509.211L6.858,21.056,5.388,19.587a.715.715,0,0,0-.509-.211h-3.4a.758.758,0,0,1-.757-.757V11.706a.758.758,0,0,1,.757-.757H12.243a.758.758,0,0,1,.757.757v2.363a.359.359,0,0,0,.718,0v-.653a5.254,5.254,0,0,0,6.956-4.967Zm-8.431,1.782h-.989a4.547,4.547,0,0,1-.115-3.265h1.214a1.123,1.123,0,0,0,1.121-1.122V4.357a4.533,4.533,0,1,1,1.949,8.626,4.492,4.492,0,0,1-1.706-.332v-.944a1.477,1.477,0,0,0-1.475-1.475Zm0,0" transform="translate(0 0)" fill="#141414" stroke="#141414" stroke-width="0.3"/><path d="M347.5,300.363H341.32a1,1,0,0,0-1,1v3.971a1,1,0,0,0,1,1h1.893l.8.8a.567.567,0,0,0,.8,0l.8-.8H347.5a1,1,0,0,0,1-1v-3.97a1,1,0,0,0-1-1Zm.282,4.97a.283.283,0,0,1-.282.282h-1.955a.562.562,0,0,0-.4.166l-.737.737-.736-.737a.562.562,0,0,0-.4-.166H341.32a.283.283,0,0,1-.282-.282v-3.97a.282.282,0,0,1,.282-.282H347.5a.282.282,0,0,1,.282.282Zm0,0" transform="translate(-324.098 -286.045)" fill="#141414" stroke="#141414" stroke-width="0.3"/><path d="M117.876,263.3l.144-.12.2-.188q.061-.06.186-.215a1.689,1.689,0,0,0,.19-.279,1.922,1.922,0,0,0,.122-.3,1.219,1.219,0,0,0,.057-.369,1.149,1.149,0,0,0-.422-.911,1.677,1.677,0,0,0-1.129-.361,1.626,1.626,0,0,0-1.009.286.784.784,0,0,0-.377.6.324.324,0,0,0,.116.267.4.4,0,0,0,.259.094.289.289,0,0,0,.2-.077.91.91,0,0,0,.146-.164.553.553,0,0,1,.225-.164.98.98,0,0,1,.412-.077.878.878,0,0,1,.563.167.57.57,0,0,1,.21.473.744.744,0,0,1-.087.346,1.015,1.015,0,0,1-.173.253q-.087.085-.26.234l-.218.178a1.492,1.492,0,0,0-.452,1.176.5.5,0,0,0,.079.328.342.342,0,0,0,.267.089q.376,0,.376-.271a2.181,2.181,0,0,1,.06-.587A.865.865,0,0,1,117.876,263.3Zm0,0" transform="translate(-110.315 -248.133)" fill="#141414" stroke="#141414" stroke-width="0.3"/><path d="M133.674,356.09a.423.423,0,0,0-.339.151.569.569,0,0,0,0,.719.418.418,0,0,0,.339.154.487.487,0,0,0,.361-.154.51.51,0,0,0-.361-.869Zm0,0" transform="translate(-126.857 -339.115)" fill="#141414" stroke="#141414" stroke-width="0.3"/><path d="M313.7,114.538q0,.286.382.286a.485.485,0,0,0,.261-.075.236.236,0,0,0,.121-.211q0-.5.055-1.656t.055-1.656a.367.367,0,0,0-.14-.3.542.542,0,0,0-.351-.113.547.547,0,0,0-.349.109.367.367,0,0,0-.138.305q0,.5.053,1.656T313.7,114.538Zm0,0" transform="translate(-298.649 -105.53)" fill="#141414" stroke="#141414" stroke-width="0.3"/><path d="M313.341,207.375a.511.511,0,0,0,.374-.154.492.492,0,0,0,0-.719.546.546,0,0,0-.753,0,.5.5,0,0,0,0,.723A.519.519,0,0,0,313.341,207.375Zm0,0" transform="translate(-297.897 -196.514)" fill="#141414" stroke="#141414" stroke-width="0.3"/><path d="M120.055,31.52h-5.665a.359.359,0,0,0,0,.718h5.665a.359.359,0,1,0,0-.718Zm0,0" transform="translate(-108.595 -30.017)" fill="#141414" stroke="#141414" stroke-width="0.3"/><path d="M120.414,62.23a.359.359,0,0,0-.359-.359H114.39a.359.359,0,1,0,0,.718h5.665A.359.359,0,0,0,120.414,62.23Zm0,0" transform="translate(-108.595 -58.921)" fill="#141414" stroke="#141414" stroke-width="0.3"/><path d="M114.391,92.219a.359.359,0,0,0,0,.718h2.88a.359.359,0,0,0,0-.718Zm0,0" transform="translate(-108.595 -87.823)" fill="#141414" stroke="#141414" stroke-width="0.3"/><path d="M383.8,355.933a.374.374,0,1,1-.375-.374A.374.374,0,0,1,383.8,355.933Zm0,0" transform="translate(-364.794 -338.609)" fill="#141414" stroke="#141414" stroke-width="0.3"/><path d="M417.241,355.933a.374.374,0,1,1-.374-.374A.374.374,0,0,1,417.241,355.933Zm0,0" transform="translate(-396.637 -338.609)" fill="#141414" stroke="#141414" stroke-width="0.3"/><path d="M451.444,355.933a.374.374,0,1,1-.374-.374A.374.374,0,0,1,451.444,355.933Zm0,0" transform="translate(-429.21 -338.609)" fill="#141414" stroke="#141414" stroke-width="0.3"/></g></svg>