<svg xmlns="http://www.w3.org/2000/svg" width="24.708" height="24.707" viewBox="0 0 24.708 24.707"><g transform="translate(0.15 0.15)"><g transform="translate(21.154 4.882)"><path d="M445.361,102.4a1.627,1.627,0,1,0,1.627,1.627A1.629,1.629,0,0,0,445.361,102.4Zm0,2.441a.814.814,0,1,1,.814-.814A.814.814,0,0,1,445.361,104.841Z" transform="translate(-443.734 -102.4)" fill="#141414" stroke="#141414" stroke-width="0.3"/></g><g transform="translate(0 18.305)"><path d="M1.627,384a1.627,1.627,0,1,0,1.627,1.627A1.629,1.629,0,0,0,1.627,384Zm0,2.441a.814.814,0,1,1,.814-.814A.814.814,0,0,1,1.627,386.441Z" transform="translate(0 -384)" fill="#141414" stroke="#141414" stroke-width="0.3"/></g><g transform="translate(17.899 3.661)"><path d="M379.555,78.527l-3.509-1.694a.407.407,0,1,0-.353.733l3.509,1.694a.407.407,0,0,0,.353-.733Z" transform="translate(-375.463 -76.792)" fill="#141414" stroke="#141414" stroke-width="0.3"/></g><g transform="translate(16.679 21.153)"><path d="M351.494,443.733a1.627,1.627,0,1,0,1.627,1.627A1.629,1.629,0,0,0,351.494,443.733Zm0,2.441a.814.814,0,1,1,.814-.814A.814.814,0,0,1,351.494,446.174Z" transform="translate(-349.867 -443.733)" fill="#141414" stroke="#141414" stroke-width="0.3"/></g><g transform="translate(13.424 19.932)"><path d="M285.689,419.859l-3.509-1.694a.407.407,0,0,0-.353.733l3.509,1.694a.407.407,0,0,0,.353-.733Z" transform="translate(-281.596 -418.124)" fill="#141414" stroke="#141414" stroke-width="0.3"/></g><g transform="translate(10.577 10.983)"><path d="M223.494,230.4a1.627,1.627,0,1,0,1.627,1.627A1.629,1.629,0,0,0,223.494,230.4Zm0,2.441a.814.814,0,1,1,.814-.814A.814.814,0,0,1,223.494,232.841Z" transform="translate(-221.867 -230.4)" fill="#141414" stroke="#141414" stroke-width="0.3"/></g><g transform="translate(8.136 9.356)"><path d="M174.017,198.458l-2.7-2.1a.407.407,0,0,0-.5.642l2.7,2.1a.407.407,0,1,0,.5-.642Z" transform="translate(-170.664 -196.272)" fill="#141414" stroke="#141414" stroke-width="0.3"/></g><g transform="translate(15.051 10.577)"><path d="M320.208,221.867a4.475,4.475,0,1,0,4.475,4.475A4.48,4.48,0,0,0,320.208,221.867Zm0,8.136a3.661,3.661,0,1,1,3.661-3.661A3.665,3.665,0,0,1,320.208,230Z" transform="translate(-315.733 -221.867)" fill="#141414" stroke="#141414" stroke-width="0.3"/></g><g transform="translate(17.899 12.204)"><path d="M377.094,256a1.627,1.627,0,1,0,1.627,1.627A1.629,1.629,0,0,0,377.094,256Zm0,2.441a.814.814,0,1,1,.814-.814A.814.814,0,0,1,377.094,258.441Z" transform="translate(-375.467 -256)" fill="#141414" stroke="#141414" stroke-width="0.3"/></g><g transform="translate(17.085 16.272)"><path d="M362.021,341.333h-2.36a1.245,1.245,0,0,0-1.261,1.226v1.072a.407.407,0,0,0,.2.352,4.452,4.452,0,0,0,4.476,0,.406.406,0,0,0,.2-.352V342.56A1.245,1.245,0,0,0,362.021,341.333Zm.447,2.056a3.689,3.689,0,0,1-3.254,0v-.829a.432.432,0,0,1,.447-.413h2.36a.432.432,0,0,1,.447.413v.829Z" transform="translate(-358.4 -341.333)" fill="#141414" stroke="#141414" stroke-width="0.3"/></g><g transform="translate(5.289 15.458)"><path d="M115.408,324.267a4.475,4.475,0,1,0,4.475,4.475A4.48,4.48,0,0,0,115.408,324.267Zm0,8.136a3.661,3.661,0,1,1,3.661-3.661A3.665,3.665,0,0,1,115.408,332.4Z" transform="translate(-110.933 -324.267)" fill="#141414" stroke="#141414" stroke-width="0.3"/></g><g transform="translate(8.136 17.085)"><path d="M172.294,358.4a1.627,1.627,0,1,0,1.627,1.627A1.629,1.629,0,0,0,172.294,358.4Zm0,2.441a.814.814,0,1,1,.814-.814A.814.814,0,0,1,172.294,360.841Z" transform="translate(-170.667 -358.4)" fill="#141414" stroke="#141414" stroke-width="0.3"/></g><g transform="translate(7.323 21.153)"><path d="M157.221,443.733h-2.36a1.245,1.245,0,0,0-1.261,1.226v1.072a.407.407,0,0,0,.2.352,4.452,4.452,0,0,0,4.476,0,.406.406,0,0,0,.2-.352V444.96A1.245,1.245,0,0,0,157.221,443.733Zm.447,2.056a3.689,3.689,0,0,1-3.254,0v-.829a.432.432,0,0,1,.447-.413h2.36a.432.432,0,0,1,.447.413v.829Z" transform="translate(-153.6 -443.733)" fill="#141414" stroke="#141414" stroke-width="0.3"/></g><g transform="translate(0 5.288)"><path d="M4.475,110.933a4.475,4.475,0,1,0,4.475,4.475A4.48,4.48,0,0,0,4.475,110.933Zm0,8.136a3.661,3.661,0,1,1,3.661-3.661A3.665,3.665,0,0,1,4.475,119.069Z" transform="translate(0 -110.933)" fill="#141414" stroke="#141414" stroke-width="0.3"/></g><g transform="translate(2.848 6.915)"><path d="M61.361,145.067a1.627,1.627,0,1,0,1.627,1.627A1.629,1.629,0,0,0,61.361,145.067Zm0,2.441a.814.814,0,1,1,.814-.814A.814.814,0,0,1,61.361,147.508Z" transform="translate(-59.734 -145.067)" fill="#141414" stroke="#141414" stroke-width="0.3"/></g><g transform="translate(2.034 10.983)"><path d="M46.288,230.4h-2.36a1.245,1.245,0,0,0-1.261,1.226V232.7a.407.407,0,0,0,.2.352,4.452,4.452,0,0,0,4.476,0,.406.406,0,0,0,.2-.352v-1.072A1.246,1.246,0,0,0,46.288,230.4Zm.447,2.056a3.689,3.689,0,0,1-3.254,0v-.829a.432.432,0,0,1,.447-.413h2.36a.432.432,0,0,1,.447.413v.829Z" transform="translate(-42.667 -230.4)" fill="#141414" stroke="#141414" stroke-width="0.3"/></g><g transform="translate(9.764 0)"><path d="M209.275,0a4.475,4.475,0,1,0,4.475,4.475A4.48,4.48,0,0,0,209.275,0Zm0,8.136a3.661,3.661,0,1,1,3.661-3.661A3.665,3.665,0,0,1,209.275,8.136Z" transform="translate(-204.8)" fill="#141414" stroke="#141414" stroke-width="0.3"/></g><g transform="translate(12.61 1.627)"><path d="M266.161,34.133a1.627,1.627,0,1,0,1.627,1.627A1.629,1.629,0,0,0,266.161,34.133Zm0,2.441a.814.814,0,1,1,.814-.814A.814.814,0,0,1,266.161,36.574Z" transform="translate(-264.534 -34.133)" fill="#141414" stroke="#141414" stroke-width="0.3"/></g><g transform="translate(11.797 5.695)"><path d="M251.088,119.467h-2.36a1.245,1.245,0,0,0-1.261,1.226v1.072a.407.407,0,0,0,.2.352,4.452,4.452,0,0,0,4.475,0,.406.406,0,0,0,.2-.352v-1.072A1.245,1.245,0,0,0,251.088,119.467Zm.447,2.056a3.689,3.689,0,0,1-3.254,0v-.829a.432.432,0,0,1,.447-.413h2.36a.432.432,0,0,1,.447.413v.829Z" transform="translate(-247.467 -119.467)" fill="#141414" stroke="#141414" stroke-width="0.3"/></g><g transform="translate(6.945 4.068)"><path d="M149.206,85.475a.407.407,0,0,0-.574-.044l-2.819,2.412a.407.407,0,1,0,.529.618l2.819-2.412A.407.407,0,0,0,149.206,85.475Z" transform="translate(-145.671 -85.333)" fill="#141414" stroke="#141414" stroke-width="0.3"/></g><g transform="translate(16.272 7.323)"><path d="M344.506,157.027l-2.441-3.254a.407.407,0,0,0-.651.488l2.441,3.254a.407.407,0,0,0,.651-.488Z" transform="translate(-341.333 -153.61)" fill="#141414" stroke="#141414" stroke-width="0.3"/></g><g transform="translate(13.102 16.234)"><path d="M277.838,340.7a.407.407,0,0,0-.57-.081l-2.272,1.7a.407.407,0,0,0,.488.65l2.272-1.7A.406.406,0,0,0,277.838,340.7Z" transform="translate(-274.833 -340.54)" fill="#141414" stroke="#141414" stroke-width="0.3"/></g><g transform="translate(2.441 19.526)"><path d="M54.454,409.6H51.607a.407.407,0,1,0,0,.814h2.848a.407.407,0,0,0,0-.814Z" transform="translate(-51.2 -409.6)" fill="#141414" stroke="#141414" stroke-width="0.3"/></g><g transform="translate(2.848 0)"><path d="M61.36,0a1.627,1.627,0,1,0,1.627,1.627A1.629,1.629,0,0,0,61.36,0Zm0,2.441a.814.814,0,1,1,.814-.814A.814.814,0,0,1,61.36,2.441Z" transform="translate(-59.733 0)" fill="#141414" stroke="#141414" stroke-width="0.3"/></g><g transform="translate(4.069 2.441)"><path d="M85.741,51.2a.407.407,0,0,0-.407.407v2.848a.407.407,0,0,0,.814,0V51.607A.407.407,0,0,0,85.741,51.2Z" transform="translate(-85.334 -51.2)" fill="#141414" stroke="#141414" stroke-width="0.3"/></g></g></svg>