<svg xmlns="http://www.w3.org/2000/svg" width="22.189" height="20.365" viewBox="0 0 22.189 20.365"><g transform="translate(0.15 0.15)"><path d="M144,256.5h4.743v.73H144Zm0,0" transform="translate(-137.434 -244.826)" fill="#141414" stroke="#141414" stroke-width="0.3"/><path d="M144,216.5h4.013v.73H144Zm0,0" transform="translate(-137.434 -206.65)" fill="#141414" stroke="#141414" stroke-width="0.3"/><path d="M20.795,2.324H16.782V.865A.365.365,0,0,0,16.417.5H5.472a.365.365,0,0,0-.365.365V2.324H1.094A1.1,1.1,0,0,0,0,3.419V14.363a1.1,1.1,0,0,0,1.094,1.094H9.12v2.189H5.837a.365.365,0,0,0-.365.365v1.824h-.73v.73h12.4v-.73h-.73V18.011a.365.365,0,0,0-.365-.365H12.769V15.457h8.026a1.094,1.094,0,0,0,1.094-1.094V3.419A1.1,1.1,0,0,0,20.795,2.324Zm0,.73a.365.365,0,0,1,.365.365v9.12H16.782V8.427L18.55,6.32a1.459,1.459,0,0,0-1.769-2.243V3.054ZM14,10.6l-1.118-.938,3.283-3.912,1.118.938Zm-1.373-.2.69.579-.827.285Zm5.359-4.551-.235.279-1.118-.938.235-.279a.73.73,0,1,1,1.118.938ZM5.837,1.23H16.052V4.757L12.094,9.475a.364.364,0,0,0-.081.177l-.334,2.1a.365.365,0,0,0,.479.4l2.011-.693a.361.361,0,0,0,.16-.109L16.052,9.3v4.336H5.837ZM1.094,3.054H5.107v9.485H.73V3.419a.365.365,0,0,1,.365-.365ZM15.687,19.835H6.2V18.376h9.485Zm-3.648-2.189H9.85V15.457h2.189Zm8.756-2.919H1.094a.365.365,0,0,1-.365-.365V13.269H5.107V14a.365.365,0,0,0,.365.365H16.417A.365.365,0,0,0,16.782,14v-.73h4.378v1.094A.365.365,0,0,1,20.795,14.728Zm0,0" transform="translate(0 -0.5)" fill="#141414" stroke="#141414" stroke-width="0.3"/><path d="M432,288.5h.73v.73H432Zm0,0" transform="translate(-412.301 -275.367)" fill="#141414" stroke="#141414" stroke-width="0.3"/><path d="M144,32.5h1.459v.73H144Zm0,0" transform="translate(-137.434 -31.041)" fill="#141414" stroke="#141414" stroke-width="0.3"/><path d="M192,32.5h6.2v.73H192Zm0,0" transform="translate(-183.246 -31.041)" fill="#141414" stroke="#141414" stroke-width="0.3"/><path d="M144,72.5h8.391v.73H144Zm0,0" transform="translate(-137.434 -69.217)" fill="#141414" stroke="#141414" stroke-width="0.3"/><path d="M144,112.5h.73v.73H144Zm0,0" transform="translate(-137.434 -107.393)" fill="#141414" stroke="#141414" stroke-width="0.3"/><path d="M176,112.5h.73v.73H176Zm0,0" transform="translate(-167.975 -107.393)" fill="#141414" stroke="#141414" stroke-width="0.3"/><path d="M208,112.5h4.013v.73H208Zm0,0" transform="translate(-198.515 -107.393)" fill="#141414" stroke="#141414" stroke-width="0.3"/><path d="M144,152.5h2.189v.73H144Zm0,0" transform="translate(-137.434 -145.568)" fill="#141414" stroke="#141414" stroke-width="0.3"/><path d="M208,152.5h2.554v.73H208Zm0,0" transform="translate(-198.515 -145.568)" fill="#141414" stroke="#141414" stroke-width="0.3"/></g></svg>