<svg xmlns="http://www.w3.org/2000/svg" width="18.592" height="24.407" viewBox="0 0 18.592 24.407"><path d="M79.382,4.977,74.615.209A.715.715,0,0,0,74.109,0H63.622A2.625,2.625,0,0,0,61,2.622V21.785a2.625,2.625,0,0,0,2.622,2.622H76.97a2.625,2.625,0,0,0,2.622-2.622V5.482A.715.715,0,0,0,79.382,4.977ZM74.824,2.441,77.15,4.767H74.824ZM76.97,22.977H63.622a1.193,1.193,0,0,1-1.192-1.192V2.622A1.193,1.193,0,0,1,63.622,1.43h9.772V5.482a.715.715,0,0,0,.715.715h4.052V21.785A1.193,1.193,0,0,1,76.97,22.977Z" transform="translate(-61 0)" fill="#141414"/><path d="M151.249,163.907a2.357,2.357,0,0,1-2.12-1.31l-.1-.2a.715.715,0,0,0-.64-.4h-3.814a.715.715,0,0,0-.64.4l-.1.2a2.357,2.357,0,0,1-2.12,1.31.715.715,0,0,0-.715.715v4.08a7.4,7.4,0,0,0,5.277,7.092.714.714,0,0,0,.411,0,7.4,7.4,0,0,0,5.277-7.092v-4.08a.715.715,0,0,0-.715-.715Zm-.715,4.8a5.935,5.935,0,0,1-4.052,5.657,5.935,5.935,0,0,1-4.052-5.657V165.27a3.773,3.773,0,0,0,2.58-1.84h2.944a3.773,3.773,0,0,0,2.58,1.84Z" transform="translate(-137.186 -154.277)" fill="#141414"/><path d="M202.828,263.925l-2.191,2.191-.843-.843a.715.715,0,1,0-1.011,1.011l1.348,1.348a.715.715,0,0,0,1.011,0l2.7-2.7a.715.715,0,1,0-1.011-1.011Z" transform="translate(-192.016 -251.144)" fill="#141414"/></svg>