<svg xmlns="http://www.w3.org/2000/svg" width="26.172" height="26.648" viewBox="0 0 26.172 26.648">
  <g id="Group_466" data-name="Group 466" transform="translate(0.15 0.15)">
    <g id="Group_276" data-name="Group 276" transform="translate(0 0)">
      <g id="Group_275" data-name="Group 275">
        <path id="Path_1896" data-name="Path 1896" d="M16.362,0c-.007.007-.021.007-.042.007A12.925,12.925,0,0,0,6.183,20.987L4.3,25.364a.7.7,0,0,0,.367.925.718.718,0,0,0,.4.049l6.911-1.214a12.455,12.455,0,0,0,4.306.748A12.936,12.936,0,0,0,16.362,0Zm-.071,24.468A11.332,11.332,0,0,1,12.3,23.74a.677.677,0,0,0-.374-.035L6.112,24.722l1.539-3.579a.71.71,0,0,0-.113-.741A11.286,11.286,0,0,1,5.576,17.14a11.526,11.526,0,1,1,22.258-4.264v.042A11.557,11.557,0,0,1,16.292,24.468Z" transform="translate(-3.366)" fill="#141414" stroke="#141414" stroke-width="0.3"/>
      </g>
    </g>
    <g id="Group_278" data-name="Group 278" transform="translate(7.857 10.356)">
      <g id="Group_277" data-name="Group 277">
        <path id="Path_1897" data-name="Path 1897" d="M119.184,146.7h-3.812a.706.706,0,1,0,0,1.412h3.812a.706.706,0,1,0,0-1.412Z" transform="translate(-114.666 -146.7)" fill="#141414" stroke="#141414" stroke-width="0.3"/>
      </g>
    </g>
    <g id="Group_280" data-name="Group 280" transform="translate(7.857 13.885)">
      <g id="Group_279" data-name="Group 279">
        <path id="Path_1898" data-name="Path 1898" d="M124.125,196.7h-8.754a.706.706,0,1,0,0,1.412h8.754a.706.706,0,1,0,0-1.412Z" transform="translate(-114.666 -196.7)" fill="#141414" stroke="#141414" stroke-width="0.3"/>
      </g>
    </g>
  </g>
</svg>
