<svg xmlns="http://www.w3.org/2000/svg" width="19.478" height="12.985" viewBox="0 0 19.478 12.985">
  <path id="Icon_awesome-eye" data-name="Icon awesome-eye" d="M19.36,10.5a10.846,10.846,0,0,0-9.621-6,10.848,10.848,0,0,0-9.621,6,1.094,1.094,0,0,0,0,.987,10.846,10.846,0,0,0,9.621,6,10.848,10.848,0,0,0,9.621-6A1.094,1.094,0,0,0,19.36,10.5ZM9.739,15.862a4.869,4.869,0,1,1,4.869-4.869A4.869,4.869,0,0,1,9.739,15.862Zm0-8.116a3.223,3.223,0,0,0-.856.128,1.618,1.618,0,0,1-2.262,2.262,3.239,3.239,0,1,0,3.118-2.39Z" transform="translate(0 -4.5)" fill="#212529"/>
</svg>
