<svg xmlns="http://www.w3.org/2000/svg" width="15.961" height="15.961" viewBox="0 0 15.961 15.961">
  <path id="Icon_awesome-download" data-name="Icon awesome-download" d="M6.734,0H9.228a.746.746,0,0,1,.748.748V5.985H12.71a.622.622,0,0,1,.44,1.063L8.408,11.793a.6.6,0,0,1-.851,0L2.809,7.048a.622.622,0,0,1,.44-1.063H5.985V.748A.746.746,0,0,1,6.734,0Zm9.228,11.721v3.492a.746.746,0,0,1-.748.748H.748A.746.746,0,0,1,0,15.213V11.721a.746.746,0,0,1,.748-.748H5.321L6.849,12.5a1.6,1.6,0,0,0,2.263,0l1.528-1.528h4.573A.746.746,0,0,1,15.961,11.721ZM12.1,14.465a.623.623,0,1,0-.623.623A.625.625,0,0,0,12.1,14.465Zm2,0a.623.623,0,1,0-.623.623A.625.625,0,0,0,14.091,14.465Z" fill="#212529"/>
</svg>
