<svg xmlns="http://www.w3.org/2000/svg" width="13.726" height="13.726" viewBox="0 0 13.726 13.726">
  <path id="Icon_awesome-download" data-name="Icon awesome-download" d="M5.791,0H7.935a.642.642,0,0,1,.643.643v4.5H10.93a.535.535,0,0,1,.378.914L7.23,10.141a.519.519,0,0,1-.732,0L2.415,6.061a.535.535,0,0,1,.378-.914H5.147V.643A.642.642,0,0,1,5.791,0Zm7.935,10.08v3a.642.642,0,0,1-.643.643H.643A.642.642,0,0,1,0,13.082v-3a.642.642,0,0,1,.643-.643H4.576L5.89,10.75a1.374,1.374,0,0,0,1.946,0L9.15,9.436h3.933A.642.642,0,0,1,13.726,10.08ZM10.4,12.439a.536.536,0,1,0-.536.536A.538.538,0,0,0,10.4,12.439Zm1.716,0a.536.536,0,1,0-.536.536A.538.538,0,0,0,12.117,12.439Z" fill="#aaa"/>
</svg>
