<svg xmlns="http://www.w3.org/2000/svg" width="23.224" height="29.047" viewBox="0 0 23.224 29.047">
  <g id="Icon_ionic-ios-notifications" data-name="Icon ionic-ios-notifications" transform="translate(-6.761 -3.93)">
    <path id="Path_2" data-name="Path 2" d="M18.1,32.184c2.258,0,3.492-1.6,3.492-3.848H14.6C14.6,30.587,15.838,32.184,18.1,32.184Z" transform="translate(0.255 0.794)" fill="#fff"/>
    <path id="Path_3" data-name="Path 3" d="M29.691,25.442c-1.118-1.474-3.318-2.338-3.318-8.937,0-6.774-2.991-9.5-5.779-10.149-.261-.065-.45-.152-.45-.428V5.716a1.771,1.771,0,1,0-3.543,0v.211c0,.269-.189.363-.45.428-2.8.661-5.779,3.376-5.779,10.149,0,6.6-2.2,7.456-3.318,8.937A1.441,1.441,0,0,0,8.209,27.75H28.544A1.441,1.441,0,0,0,29.691,25.442Z" transform="translate(0 0)" fill="#fff"/>
  </g>
</svg>
