<svg xmlns="http://www.w3.org/2000/svg" width="32.861" height="31.453" viewBox="0 0 32.861 31.453">
  <path id="Icon_awesome-star" data-name="Icon awesome-star" d="M16.109,1.093,12.1,9.226,3.124,10.534a1.967,1.967,0,0,0-1.087,3.354L8.53,20.214,6.994,29.151a1.964,1.964,0,0,0,2.85,2.07L17.872,27l8.028,4.22a1.966,1.966,0,0,0,2.85-2.07l-1.536-8.937,6.492-6.327a1.967,1.967,0,0,0-1.087-3.354L23.646,9.226,19.635,1.093A1.967,1.967,0,0,0,16.109,1.093Z" transform="translate(-1.441 0.001)" fill="#ffa200"/>
</svg>
