<svg xmlns="http://www.w3.org/2000/svg" width="14.476" height="12.248" viewBox="0 0 14.476 12.248">
  <path id="Icon_awesome-twitter" data-name="Icon awesome-twitter" d="M12.988,6.433c.009.134.009.268.009.4,0,4.086-2.985,8.794-8.441,8.794A8.142,8.142,0,0,1,0,14.241a5.894,5.894,0,0,0,.716.038A5.792,5.792,0,0,0,4.4,12.959a2.99,2.99,0,0,1-2.774-2.143,3.6,3.6,0,0,0,.56.048,3.019,3.019,0,0,0,.781-.105A3.062,3.062,0,0,1,.588,7.725V7.687a2.9,2.9,0,0,0,1.341.392A3.124,3.124,0,0,1,.606,5.5a3.166,3.166,0,0,1,.4-1.56A8.327,8.327,0,0,0,7.128,7.18a3.629,3.629,0,0,1-.073-.708,3.029,3.029,0,0,1,2.967-3.091,2.906,2.906,0,0,1,2.168.976,5.7,5.7,0,0,0,1.883-.746,3.063,3.063,0,0,1-1.3,1.7,5.761,5.761,0,0,0,1.708-.478A6.529,6.529,0,0,1,12.988,6.433Z" transform="translate(0 -3.381)" fill="#aaa"/>
</svg>
