<svg xmlns="http://www.w3.org/2000/svg" width="16.768" height="16.768" viewBox="0 0 16.768 16.768">
  <path id="Icon_awesome-check-circle" data-name="Icon awesome-check-circle" d="M17.331,8.947A8.384,8.384,0,1,1,8.947.563,8.384,8.384,0,0,1,17.331,8.947ZM7.977,13.386l6.22-6.22a.541.541,0,0,0,0-.765l-.765-.765a.541.541,0,0,0-.765,0L7.594,10.708,5.226,8.34a.541.541,0,0,0-.765,0L3.7,9.1a.541.541,0,0,0,0,.765l3.516,3.516a.541.541,0,0,0,.765,0Z" transform="translate(-0.563 -0.563)" fill="#038d08"/>
</svg>
