<svg xmlns="http://www.w3.org/2000/svg" xmlns:xlink="http://www.w3.org/1999/xlink" width="657.649" height="551.225" viewBox="0 0 657.649 551.225">
  <defs>
    <linearGradient id="linear-gradient" x1="0.5" y1="-0.227" x2="0.5" y2="0.559" gradientUnits="objectBoundingBox">
      <stop offset="0" stop-color="#e5e5e5"/>
      <stop offset="0.476" stop-color="#f4f4f4"/>
      <stop offset="1" stop-color="#fff"/>
    </linearGradient>
    <linearGradient id="linear-gradient-2" x1="86.379" y1="0.412" x2="86.984" y2="0.822" gradientUnits="objectBoundingBox">
      <stop offset="0" stop-color="#038d08"/>
      <stop offset="0.984" stop-color="#176ad4"/>
      <stop offset="1" stop-color="#176ad4"/>
    </linearGradient>
    <linearGradient id="linear-gradient-3" x1="1.154" y1="0.568" x2="0.42" y2="0.49" gradientUnits="objectBoundingBox">
      <stop offset="0" stop-color="#f2bfad"/>
      <stop offset="1" stop-color="#f2dad4"/>
    </linearGradient>
    <linearGradient id="linear-gradient-4" x1="0.51" y1="0.621" x2="0.568" y2="1.822" gradientUnits="objectBoundingBox">
      <stop offset="0" stop-color="#f2bfad"/>
      <stop offset="0.704" stop-color="#f2dad4"/>
    </linearGradient>
    <linearGradient id="linear-gradient-5" x1="0.404" y1="0.306" x2="0.835" y2="1.076" xlink:href="#linear-gradient-3"/>
  </defs>
  <g id="Group_529" data-name="Group 529" transform="translate(-631.924 -491.131)">
    <g id="Group_166" data-name="Group 166" transform="translate(631.924 491.131)">
      <g id="Group_164" data-name="Group 164" transform="translate(0 260.632)">
        <path id="Path_1637" data-name="Path 1637" d="M1779.087,910.874a4.57,4.57,0,0,0-9.031,1.414c.658,4.257,1.489,17.59-3.112,22.954a6.162,6.162,0,0,1-3.711,2.132l.419-25.393a6.608,6.608,0,1,0-13.213.06l1.2,48.19a6.15,6.15,0,0,1-3.868-2.155c-4.6-5.364-3.763-18.7-3.113-22.954a4.57,4.57,0,1,0-9.03-1.414c-.329,2.095-2.97,20.769,5.192,30.3a15.455,15.455,0,0,0,11.043,5.424l.516,20.979h9.973l.726-43.828a15.426,15.426,0,0,0,10.811-5.409C1782.057,931.643,1779.416,912.976,1779.087,910.874Z" transform="translate(-1237.817 -905.27)" fill="#038d08"/>
        <path id="Path_1638" data-name="Path 1638" d="M1215.427,966.169a2.912,2.912,0,0,0-5.753.905c.419,2.716.95,11.215-1.983,14.634a3.936,3.936,0,0,1-2.364,1.362l.269-16.191a4.213,4.213,0,1,0-8.425.037l.763,30.72a3.921,3.921,0,0,1-2.462-1.369c-2.933-3.419-2.4-11.918-1.983-14.634a2.912,2.912,0,0,0-5.753-.905c-.21,1.339-1.893,13.235,3.307,19.318a9.851,9.851,0,0,0,7.04,3.457l.329,13.37h6.359l.464-27.937a9.842,9.842,0,0,0,6.891-3.449C1217.32,979.4,1215.636,967.5,1215.427,966.169Z" transform="translate(-1099.908 -919.707)" fill="#038d08"/>
        <ellipse id="Ellipse_126" data-name="Ellipse 126" cx="328.825" cy="116.409" rx="328.825" ry="116.409" transform="translate(0 57.774)" fill="url(#linear-gradient)"/>
      </g>
      <g id="Group_165" data-name="Group 165" transform="translate(272.55)">
        <path id="Path_1639" data-name="Path 1639" d="M1575.861,949.23s-.194,11.2-.007,12.323-4.384,7.691-6.255,7.4-5.611-.913-6.15-1.534-.3-2.095-.112-3.434,1.594-13.542,1.594-14.163S1573.781,947.532,1575.861,949.23Z" transform="translate(-1467.094 -655.521)" fill="#ffd3bc"/>
        <path id="Path_1640" data-name="Path 1640" d="M1568.159,964.8c-2.342,1.264-3.651,5.11-3.988,5.155s-.95-.045-.95-.426.1-1.661-.329-1.661-.905,2.087-.995,5.133-1.175,10.295,0,11.215c.741.576,7.512,4.137,7.7,4.609s-.142,3.8.427,4.325,1.9,1.8,2.948,1.855,7.078.666,9.936,0,6.464-2.043,6.562-2.424-.711-8.462-1.616-9.457-7.414-9.936-7.938-10.744a9.2,9.2,0,0,1-.905-3.9c0-1.137-1.032-3.629-2.955-4.227C1574.055,963.622,1569.917,963.839,1568.159,964.8Z" transform="translate(-1466.65 -659.4)" fill="url(#linear-gradient-2)"/>
        <path id="Path_1641" data-name="Path 1641" d="M1488.815,957.89s0,6.524-.187,7.646,4.384,7.691,6.255,7.4,5.611-.913,6.15-1.534.3-2.095.112-3.434-1.4-8.866-1.4-9.487S1490.9,956.184,1488.815,957.89Z" transform="translate(-1448.335 -657.701)" fill="#ffd3bc"/>
        <path id="Path_1642" data-name="Path 1642" d="M1493.769,765.189c-2.649,9.622-7.654,42.594-7.654,58.62s-1.6,56.884-1.6,63.086-.666,21.615.935,22.415,5.349,3.21,10.43,2.409,6.419-4.01,6.554-6.951,1.339-24.069,2.544-32.224,5.484-23.889,8.29-34,9.36-30.466,11.1-30.391,12.569,44.651,13.467,47.18,2.619,38.419,2.731,41.434,0,5.911,1.893,7.138,7.7,4.242,10.707,4.459,5.02-4.571,5.574-6.023,1.549-49.462,1.19-62.63.688-37.731.075-45.736-2.566-25.169-3.816-28.782C1554.955,761.576,1493.769,765.189,1493.769,765.189Z" transform="translate(-1447.265 -608.958)" fill="#141414"/>
        <path id="Path_1643" data-name="Path 1643" d="M1467.609,601.938c2.529-2.806,14.313-16.093,16.654-16.565s8.036-1.5,9.3-2.806,6.636-18.166,4.512-21.233-10.332-2.2-12.816,3.023-2.364,7.953-6.464,11.559-21.974,18.218-23.635,19.692,1.638,8.649,4.25,9.891S1467.609,601.938,1467.609,601.938Z" transform="translate(-1439.795 -557.582)" fill="url(#linear-gradient-3)"/>
        <path id="Path_1644" data-name="Path 1644" d="M1495.172,617.643c-6.023,1.264-16.033,2.334-19.333,3.4s-16.325,5.634-16.228,3.689,6.023-10.49,4.953-11.365-7.482-1.945-8.552-3.307-2.529-4.564-3.98-4.175-18.353,16.123-17.2,22.154c2.723,14.208,42.661,24.555,43.574,30.75s-3.1,65.6-.913,67.785,25.326,10.572,36.99,11.3,32.119-3.337,33.234-6.4-5.694-62.091-4.9-62.091,1.01,18.577,9.9,23.381c5.866,3.172,13.931-.1,15.472-1.848s-5.514-26.448-8.7-34.783-6.247-25.543-13.467-31.648-17.41-5.073-20.919-6.5-15.278-.4-18.248-.718S1495.172,617.643,1495.172,617.643Z" transform="translate(-1434.775 -569.239)" fill="#d0cde1"/>
        <path id="Path_1645" data-name="Path 1645" d="M1611.887,701.4s-10.385,3.142-11.193,4.22-2.252,5.4,0,7.2,4.721,3.15,7.392,1.07,5.1-4.871,6.644-5.23,6.158.307,8.1-.449,5.611-15.45,4.13-16.34S1611.887,701.4,1611.887,701.4Z" transform="translate(-1476.253 -590.886)" fill="url(#linear-gradient-4)"/>
        <path id="Path_1646" data-name="Path 1646" d="M1511.7,603.336c-3.352-.7-9.824-7.025-10.415-13.452-.576-6.262-5.185-23.867,10.849-30.473,15.046-6.195,30.533.18,32.755,7.818,2.08,7.138-15.585,7.459-22.056,12.106s-6.913,7.736-8.529,7S1511.7,603.336,1511.7,603.336Z" transform="translate(-1451.259 -556.914)" fill="#2d2d2d"/>
        <path id="Path_1647" data-name="Path 1647" d="M1515.052,601.2c-.209,2.873-.935,16.744.269,18.794,1.107,1.878,3.068,7.332,10.751,7.093s12.674-7.931,13.1-8.828-.479-12.016-.479-13.879-10.332-6.247-14.477-6.128S1515.254,598.5,1515.052,601.2Z" transform="translate(-1454.888 -567.323)" fill="url(#linear-gradient-5)"/>
        <path id="Path_1648" data-name="Path 1648" d="M1513.748,594.683c.868-.022-.157,5.267,1.414,7s8.409,10.744,15.645,9.861c6.255-.763,5.357-6.157,6.262-10.594.815-4.033,3.419-4.377,4.332-14.9.352-4.07,2.282-10.452-1.257-11.627s-16.812-4.324-20.111,0-3.614,14.694-5.342,13.355-5.342-7.856-7.467-4.324S1509.11,594.818,1513.748,594.683Z" transform="translate(-1452.872 -560.764)" fill="#f2dad4"/>
        <path id="Path_1649" data-name="Path 1649" d="M1583.558,673.82,1562.5,700.448a2.092,2.092,0,0,0,1.676,3.389l38.928-.658a2.091,2.091,0,0,0,1.638-.838l19.894-26.583a1.9,1.9,0,0,0-1.534-3.038l-37.918.314A2.045,2.045,0,0,0,1583.558,673.82Z" transform="translate(-1466.823 -586.077)" fill="#038d08"/>
        <path id="Path_1650" data-name="Path 1650" d="M1629.818,688.514c-2.05.21-5.028,1.362-5.028,2.432s2.387,1.362,3.045,1.466,1.526.307,1.279.636-.741,1.975-2.057,1.691a79.6,79.6,0,0,0-8.2-.374c-1.115,0-2.432.786-2.514,1.609s-.329.988-.988,1.032-1.855.658-1.855,1.728,2.649,2.035,2.649,2.417,5.192,3.546,6.21,4.137,2.918,2.087,3.988,2.087,2.865-1.018,3-2.491,2.252-2.544,2.275-3.27-.666-1.257-.591-1.713,1.93-1.1,1.93-2.252a13.217,13.217,0,0,0-.83-3.187c-.1-.479-.539-1.526-.1-1.661s1.93-1.526,1.661-2.813S1630.76,688.417,1629.818,688.514Z" transform="translate(-1479.782 -590.05)" fill="#ffd3bc"/>
        <path id="Path_1651" data-name="Path 1651" d="M1491.145,967.2c2.342,1.264,3.651,5.11,3.988,5.155s.95-.045.95-.427-.1-1.661.329-1.661.905,2.087.995,5.132,1.175,10.295,0,11.215c-.741.576-7.512,4.137-7.7,4.609s.142,3.8-.426,4.325-1.9,1.8-2.948,1.855-7.078.666-9.936,0-6.464-2.043-6.562-2.424.711-8.462,1.616-9.457,7.414-9.936,7.938-10.744a9.2,9.2,0,0,0,.905-3.9c0-1.137,1.033-3.629,2.955-4.227C1485.257,966.031,1489.387,966.248,1491.145,967.2Z" transform="translate(-1443.602 -660.007)" fill="#038d08"/>
      </g>
    </g>
    <text id="No_Service_Found_" data-name="No Service Found!" transform="translate(810 950)" fill="#038d08" font-size="36" font-family="Poppins-Regular, Poppins"><tspan x="0" y="0">No Service Found!</tspan></text>
  </g>
</svg>
