<svg xmlns="http://www.w3.org/2000/svg" width="58.535" height="50.989" viewBox="0 0 58.535 50.989">
  <g id="customer" transform="translate(0 -33)">
    <path id="Path_2001" data-name="Path 2001" d="M178.946,52.893A9.946,9.946,0,1,0,169,42.946,9.957,9.957,0,0,0,178.946,52.893Zm0-16.463a6.517,6.517,0,1,1-6.517,6.517A6.524,6.524,0,0,1,178.946,36.43Z" transform="translate(-149.679)" fill="#038d08"/>
    <path id="Path_2002" data-name="Path 2002" d="M383.288,109.576A6.288,6.288,0,1,0,377,103.288,6.3,6.3,0,0,0,383.288,109.576Zm0-9.146a2.858,2.858,0,1,1-2.858,2.858A2.861,2.861,0,0,1,383.288,100.43Z" transform="translate(-333.9 -56.683)" fill="#038d08"/>
    <path id="Path_2003" data-name="Path 2003" d="M50.772,241H48.119a7.774,7.774,0,0,0-7.053,4.5,13.8,13.8,0,0,0-10.2-4.5h-3.2a13.8,13.8,0,0,0-10.2,4.5,7.775,7.775,0,0,0-7.053-4.5H7.763A7.748,7.748,0,0,0,0,248.716V261.2a3.36,3.36,0,0,0,3.363,3.35H13.849a4.009,4.009,0,0,0,3.988,3.659H40.7a4.009,4.009,0,0,0,3.988-3.659H55.052a3.479,3.479,0,0,0,3.482-3.469V248.716A7.748,7.748,0,0,0,50.772,241ZM3.43,248.716a4.315,4.315,0,0,1,4.333-4.286h2.652a4.315,4.315,0,0,1,4.333,4.286v1.174c-1.153,3-.915,4.8-.915,11.231H3.43Zm37.842,15.49a.575.575,0,0,1-.574.574H17.837a.575.575,0,0,1-.574-.574v-9.37A10.418,10.418,0,0,1,27.669,244.43h3.2a10.418,10.418,0,0,1,10.406,10.406ZM55.1,261.082c0,.059.639.039-10.4.039,0-6.477.237-8.233-.915-11.231v-1.174a4.315,4.315,0,0,1,4.333-4.286h2.652a4.315,4.315,0,0,1,4.333,4.286Z" transform="translate(0 -184.22)" fill="#038d08"/>
    <path id="Path_2004" data-name="Path 2004" d="M31.288,109.576A6.288,6.288,0,1,0,25,103.288,6.295,6.295,0,0,0,31.288,109.576Zm0-9.146a2.858,2.858,0,1,1-2.858,2.858A2.861,2.861,0,0,1,31.288,100.43Z" transform="translate(-22.142 -56.683)" fill="#038d08"/>
  </g>
</svg>
