<svg xmlns="http://www.w3.org/2000/svg" width="20.646" height="20" viewBox="0 0 20.646 20">
  <path id="Icon_awesome-linkedin-in" data-name="Icon awesome-linkedin-in" d="M4.621,20H.341V6.648h4.28ZM2.479,4.826A2.461,2.461,0,0,1,0,2.4,2.441,2.441,0,0,1,2.479,0,2.441,2.441,0,0,1,4.958,2.4,2.461,2.461,0,0,1,2.479,4.826ZM20.641,20H16.37V13.5c0-1.549-.032-3.536-2.225-3.536-2.225,0-2.566,1.683-2.566,3.424V20H7.3V6.648h4.105V8.469h.06a4.525,4.525,0,0,1,4.05-2.156c4.332,0,5.128,2.763,5.128,6.353V20Z" transform="translate(0 -0.001)" fill="#fff"/>
</svg>
