<svg xmlns="http://www.w3.org/2000/svg" width="252" height="209.814" viewBox="0 0 252 209.814">
  <g id="Send_your_content" data-name="Send your content" transform="translate(2362 -3857.186)">
    <g id="Group_242" data-name="Group 242" transform="translate(-2333.434 3857.185)">
      <path id="Path_1828" data-name="Path 1828" d="M435.25,272.128l-.074,0h-4.823v-.711h4.84a5.951,5.951,0,0,0,4.5-2.487c3.139-3.809,5.717-13.24.171-36.532-7.457-31.32-1.238-58.99,1.783-69.433a3.467,3.467,0,0,0-3.336-4.427H366.295a3.483,3.483,0,0,0-2.809,1.43c-1.279,1.76-3.035,5.141-4.134,11.254l-.7-.126c1.122-6.246,2.935-9.727,4.259-11.547a4.2,4.2,0,0,1,3.384-1.723h72.021a4.178,4.178,0,0,1,4.019,5.335c-3,10.388-9.192,37.915-1.774,69.071,5.624,23.62,2.92,33.255-.338,37.178A6.738,6.738,0,0,1,435.25,272.128Z" transform="translate(-331.688 -157.825)" fill="#e6e6e6"/>
      <path id="Path_1829" data-name="Path 1829" d="M398.75,308.628l-.074,0h-4.823v-.711h4.84a5.952,5.952,0,0,0,4.5-2.487c3.139-3.809,5.717-13.24.171-36.532-7.457-31.32-1.238-58.99,1.783-69.433a3.467,3.467,0,0,0-3.336-4.427H329.795a3.483,3.483,0,0,0-2.809,1.43c-1.279,1.76-3.035,5.141-4.134,11.254l-.7-.126c1.123-6.246,2.935-9.727,4.259-11.547a4.2,4.2,0,0,1,3.384-1.723h72.021a4.178,4.178,0,0,1,4.019,5.335c-3,10.388-9.192,37.915-1.774,69.071,5.624,23.62,2.92,33.255-.338,37.178A6.738,6.738,0,0,1,398.75,308.628Z" transform="translate(-308.164 -181.348)" fill="#ccc"/>
      <path id="Path_1830" data-name="Path 1830" d="M360.415,345.128l-.074,0H289.43a4.177,4.177,0,0,1-3.885-5.725c2.573-6.428,6.037-21.85.331-52.916-6.738-36.683-.706-49.941,2.2-53.938a4.2,4.2,0,0,1,3.384-1.723h72.021a4.178,4.178,0,0,1,4.019,5.335c-3,10.388-9.192,37.915-1.774,69.071,5.624,23.62,2.92,33.255-.338,37.178A6.738,6.738,0,0,1,360.415,345.128ZM291.46,231.537a3.483,3.483,0,0,0-2.809,1.43c-2.852,3.923-8.764,16.979-2.076,53.391,5.451,29.677,2.807,45.37-.37,53.309a3.409,3.409,0,0,0,.347,3.223,3.471,3.471,0,0,0,2.878,1.527h70.928a5.945,5.945,0,0,0,4.5-2.487c3.139-3.809,5.717-13.24.171-36.532-7.457-31.32-1.238-58.99,1.783-69.433a3.467,3.467,0,0,0-3.336-4.427Z" transform="translate(-282.806 -204.872)" fill="#2d2d2d"/>
      <path id="Path_1831" data-name="Path 1831" d="M367.64,310.513H311.111a2.844,2.844,0,1,1,0-5.688H367.64a2.844,2.844,0,1,1,0,5.688Z" transform="translate(-299.215 -252.562)" fill="#038d08"/>
      <path id="Path_1832" data-name="Path 1832" d="M367.64,344.513H311.111a2.844,2.844,0,1,1,0-5.688H367.64a2.844,2.844,0,1,1,0,5.688Z" transform="translate(-299.215 -274.474)" fill="#ccc"/>
      <path id="Path_1833" data-name="Path 1833" d="M367.64,378.513H311.111a2.844,2.844,0,1,1,0-5.688H367.64a2.844,2.844,0,1,1,0,5.688Z" transform="translate(-299.215 -296.386)" fill="#ccc"/>
      <path id="Path_1834" data-name="Path 1834" d="M379.64,412.513H323.111a2.844,2.844,0,1,1,0-5.688H379.64a2.844,2.844,0,1,1,0,5.688Z" transform="translate(-306.949 -318.299)" fill="#ccc"/>
      <path id="Path_1835" data-name="Path 1835" d="M379.64,446.513H323.111a2.844,2.844,0,1,1,0-5.688H379.64a2.844,2.844,0,1,1,0,5.688Z" transform="translate(-306.949 -340.211)" fill="#ccc"/>
      <path id="Path_1836" data-name="Path 1836" d="M337.776,276.513H311.111a2.844,2.844,0,1,1,0-5.688h26.664a2.844,2.844,0,1,1,0,5.688Z" transform="translate(-299.215 -230.65)" fill="#038d08"/>
      <path id="Path_1837" data-name="Path 1837" d="M379.689,495.361c.574-2.43,3.27-3.227,5.474-3.137a23.368,23.368,0,0,1,4.128.653c1.416.317,2.819.692,4.215,1.09,2.559.73,5.092,1.613,7.694,2.183a13.365,13.365,0,0,0,6.679.1,6.335,6.335,0,0,0,4.4-4.318,4.323,4.323,0,0,0-2.152-5.143,3.59,3.59,0,0,0-4.916,1.487c-1,2.143,0,4.479,1.576,6.03a17.659,17.659,0,0,0,2.929,2.225,10.906,10.906,0,0,0,3.507,1.571,5.064,5.064,0,0,0,5.567-2.173,3.672,3.672,0,0,0,.417-1.435c.063-.683-1-.679-1.067,0-.18,1.957-2.471,2.873-4.185,2.658a8.505,8.505,0,0,1-3.244-1.259,19.01,19.01,0,0,1-2.687-1.9c-1.453-1.258-2.816-3.327-1.84-5.29.795-1.6,2.867-1.582,4.127-.552,1.526,1.248,1.254,3.514.247,5a6.251,6.251,0,0,1-5.039,2.4,19.707,19.707,0,0,1-6.1-.956c-2.458-.7-4.891-1.479-7.36-2.136-1.4-.373-2.815-.71-4.242-.972a14,14,0,0,0-4.113-.285c-2.226.257-4.5,1.553-5.045,3.873C378.5,495.745,379.531,496.03,379.689,495.361Z" transform="translate(-344.571 -369.568)" fill="#2d2d2d"/>
      <path id="Path_1842" data-name="Path 1842" d="M491.231,509.393a.889.889,0,0,1,.484-1.568,14.68,14.68,0,0,1,5.757.59l18.955,5.854a1.955,1.955,0,0,1-1.154,3.737l-18.955-5.854A14.68,14.68,0,0,1,491.231,509.393Z" transform="translate(-416.924 -383.347)" fill="#141414"/>
      <path id="Path_1843" data-name="Path 1843" d="M701.331,538.644a3.819,3.819,0,0,1-1.731-5.595l-3.249-16.991,8.281-.646.5,16.62a3.84,3.84,0,0,1-3.8,6.612Z" transform="translate(-549.326 -388.28)" fill="#ffb8b8"/>
      <path id="Path_1844" data-name="Path 1844" d="M679.372,471.241l-8.434-39.279A6.222,6.222,0,0,1,683.1,429.35l8.434,39.279a1.6,1.6,0,0,1-1.228,1.9l-9.038,1.94a1.6,1.6,0,0,1-1.9-1.228Z" transform="translate(-532.857 -329.647)" fill="#d0cde1"/>
      <path id="Path_1845" data-name="Path 1845" d="M361.51,541.588h-4.358l-2.074-16.812h6.433Z" transform="translate(-228.839 -338.204)" fill="#ffb8b8"/>
      <path id="Path_1846" data-name="Path 1846" d="M342.56,568.561h8.406v5.293h-13.7a5.293,5.293,0,0,1,5.293-5.293Z" transform="translate(-217.36 -366.422)" fill="#141414"/>
      <path id="Path_1847" data-name="Path 1847" d="M402.51,540.588h-4.358l-2.074-16.812h6.433Z" transform="translate(-255.262 -337.559)" fill="#ffb8b8"/>
      <path id="Path_1848" data-name="Path 1848" d="M383.56,567.561h8.406v5.293h-13.7A5.293,5.293,0,0,1,383.56,567.561Z" transform="translate(-243.783 -365.778)" fill="#141414"/>
      <path id="Path_1849" data-name="Path 1849" d="M631.049,613.164a1.589,1.589,0,0,1-.575-1.089l-5.067-55.739a1.6,1.6,0,0,1,1.533-1.744l25.413-.953a1.6,1.6,0,0,1,1.659,1.657l-2.031,55.525a1.6,1.6,0,0,1-1.454,1.535l-5.124.466a1.6,1.6,0,0,1-1.741-1.487l-2.352-35.274a.511.511,0,0,0-.532-.5h0a.511.511,0,0,0-.531.5l-2.1,35.512a1.592,1.592,0,0,1-1.438,1.5l-4.476.448a1.589,1.589,0,0,1-1.178-.358Z" transform="translate(-503.6 -412.916)" fill="#141414"/>
      <circle id="Ellipse_147" data-name="Ellipse 147" cx="8.732" cy="8.732" r="8.732" transform="translate(128.493 69.115)" fill="#ffb8b8"/>
      <path id="Path_1850" data-name="Path 1850" d="M620.045,463.513a1.586,1.586,0,0,1-.374-1.308c1.612-9.8.7-24.2-.343-34.56a15.715,15.715,0,0,1,6.485-14.328l4.56-3.909a1.625,1.625,0,0,1,1.087-.385l11.329.324a1.594,1.594,0,0,1,1.086.468l1.751,3.877.018.013a15.668,15.668,0,0,1,6.369,13.4l-1.668,34.463a1.608,1.608,0,0,1-1.545,1.522l-27.5.966h-.053a1.6,1.6,0,0,1-1.2-.545Z" transform="translate(-499.636 -319.715)" fill="#d0cde1"/>
      <path id="Path_1851" data-name="Path 1851" d="M528.707,496.844a3.819,3.819,0,0,1,4.4-3.869l14.173-9.919,3.978,7.291L536.3,497.605a3.84,3.84,0,0,1-7.588-.762Z" transform="translate(-441.282 -367.427)" fill="#ffb8b8"/>
      <path id="Path_1852" data-name="Path 1852" d="M549.884,462.7a1.591,1.591,0,0,1-1.047-.635l-5.47-7.452a1.6,1.6,0,0,1,.343-2.237L576.1,428.6a6.222,6.222,0,0,1,7.363,10.031L551.073,462.4a1.589,1.589,0,0,1-.943.31A1.628,1.628,0,0,1,549.884,462.7Z" transform="translate(-450.532 -331.555)" fill="#d0cde1"/>
      <path id="Path_1853" data-name="Path 1853" d="M650.512,360.981a4.641,4.641,0,0,0,.1-5.162,9.942,9.942,0,0,0-4.131-3.516,53.579,53.579,0,0,1-4.876-2.529c-1.528-1.011-1.461-5.293-1.868-7.079l.97.323c-.373-.477-.492-1.887-.865-2.364,1.1.108,1.939,1.149,3.036,1.258l-.633-1.7c3.759-.232,6.1,2.381,9.856,2.149,1.863-.115,3.886-.187,5.417.879a7.167,7.167,0,0,1,2.446,4.092c.949,3.35,1.1,7.1-.543,10.175s-5.417,5.142-8.718,4.033Z" transform="translate(-512.841 -275.361)" fill="#141414"/>
      <path id="Path_1854" data-name="Path 1854" d="M534.458,740.536h100.49c.146,0,.264-.159.264-.355s-.118-.356-.264-.356H534.458c-.146,0-.264.159-.264.356S534.312,740.536,534.458,740.536Z" transform="translate(-444.819 -532.908)" fill="#3f3d56"/>
    </g>
    <rect id="Rectangle_363" data-name="Rectangle 363" width="252" height="200" transform="translate(-2362 3867)" fill="none"/>
  </g>
</svg>
