<svg id="paypal" xmlns="http://www.w3.org/2000/svg" width="84.456" height="23.498" viewBox="0 0 84.456 23.498">
  <path id="Path_1806" data-name="Path 1806" d="M343.384,200.351a23.207,23.207,0,0,0-5.114.829l-.415,3.179a18.1,18.1,0,0,1,4.285-.968c1.659,0,2.626.276,2.35,1.8-4.976,0-8.294.968-8.985,4.285-.968,5.529,5.114,5.667,7.464,3.179l-.276,1.52h4.423l1.935-8.985C349.742,201.457,346.425,200.213,343.384,200.351Zm.276,9.261c-.276,1.106-1.244,1.52-2.35,1.659-.968,0-1.8-.553-1.244-1.659.553-.829,1.8-.829,2.765-.829h1.106C343.8,208.645,343.66,209.2,343.66,209.612Z" transform="translate(-277.45 -196.204)" fill="#32a6ce"/>
  <path id="Path_1807" data-name="Path 1807" d="M337.855,205.07a18.106,18.106,0,0,1,4.285-.968c1.659,0,2.626.276,2.35,1.8-4.976,0-8.294.968-8.985,4.285-.968,5.529,5.114,5.667,7.464,3.179l-.276,1.52h4.423l1.935-8.985c.829-3.732-2.626-4.7-5.667-4.7m.276,9.123c-.276,1.106-1.244,1.521-2.35,1.659-.968,0-1.8-.553-1.244-1.659.553-.829,1.8-.829,2.765-.829h1.106C343.8,209.355,343.66,209.908,343.66,210.323Z" transform="translate(-277.45 -196.915)" fill="#1a80ad"/>
  <path id="Path_1808" data-name="Path 1808" d="M418.794,176.4,415.2,194.369h4.423l3.732-17.969Z" transform="translate(-343.46 -176.4)" fill="#32a6ce"/>
  <path id="Path_1809" data-name="Path 1809" d="M421.973,176.4,415.2,194.369h4.423l3.732-17.969h-1.382Z" transform="translate(-343.46 -176.4)" fill="#1a80ad"/>
  <path id="Path_1810" data-name="Path 1810" d="M260.549,176.4h-8.155L248.8,194.369h4.838l1.244-5.529h3.456a6.57,6.57,0,0,0,6.773-5.391C265.8,179.441,262.9,176.4,260.549,176.4Zm-.138,6.22a2.821,2.821,0,0,1-2.765,2.073h-2.212l.968-4.147h2.35A1.565,1.565,0,0,1,260.411,182.62Z" transform="translate(-205.812 -176.4)" fill="#32a6ce"/>
  <path id="Path_1811" data-name="Path 1811" d="M259.887,176.4h-5.529L248,194.369h4.838l1.244-5.529h3.456a6.57,6.57,0,0,0,6.773-5.391C265.14,179.441,262.237,176.4,259.887,176.4Zm-.138,6.22a2.821,2.821,0,0,1-2.765,2.073h-2.212l.968-4.147h2.35A1.565,1.565,0,0,1,259.749,182.62Z" transform="translate(-205.15 -176.4)" fill="#1a80ad"/>
  <path id="Path_1812" data-name="Path 1812" d="M95.1,200.351a20.546,20.546,0,0,0-4.976.829l-.415,3.179a16.528,16.528,0,0,1,4.285-.968c1.659,0,2.626.276,2.35,1.8-4.838,0-8.155.968-8.846,4.285-.968,5.529,4.976,5.667,7.326,3.179l-.276,1.52h4.423l1.935-8.985C101.594,201.457,98.138,200.213,95.1,200.351Zm.415,9.261c-.276,1.106-1.244,1.52-2.35,1.659-.968,0-1.8-.553-1.106-1.659.553-.829,1.8-.829,2.626-.829h1.106C95.65,208.645,95.512,209.2,95.512,209.612Z" transform="translate(-72.29 -196.204)" fill="#21789e"/>
  <path id="Path_1813" data-name="Path 1813" d="M90.506,205.07a16.53,16.53,0,0,1,4.285-.968c1.659,0,2.626.276,2.35,1.8-4.838,0-8.155.968-8.846,4.285-.968,5.529,4.976,5.667,7.326,3.179l-.415,1.52h4.423l1.935-8.985c.829-3.732-2.626-4.7-5.667-4.7m.276,9.123c-.276,1.106-1.244,1.521-2.35,1.659-.968,0-1.8-.553-1.106-1.659.553-.829,1.8-.829,2.626-.829H96.45C96.312,209.355,96.174,209.908,96.174,210.323Z" transform="translate(-72.952 -196.915)" fill="#1a5b80"/>
  <path id="Path_1814" data-name="Path 1814" d="M169.382,200.4h4.423l.691,7.741,4.423-7.741h4.561l-10.505,19.352H168l3.179-5.806Z" transform="translate(-138.972 -196.253)" fill="#21789e"/>
  <path id="Path_1815" data-name="Path 1815" d="M173.806,200.676l.691,7.6,4.423-7.879h4.561l-10.505,19.352H168l3.179-5.667" transform="translate(-138.972 -196.253)" fill="#1a5b80"/>
  <path id="Path_1816" data-name="Path 1816" d="M11.887,176.4H3.594L0,194.369H4.838l1.244-5.529H9.538a6.57,6.57,0,0,0,6.773-5.391C17.14,179.441,14.237,176.4,11.887,176.4Zm-.138,6.22a2.821,2.821,0,0,1-2.765,2.073H6.773l.968-4.147h2.35A1.565,1.565,0,0,1,11.749,182.62Z" transform="translate(0 -176.4)" fill="#21789e"/>
  <path id="Path_1817" data-name="Path 1817" d="M11.887,176.4H8.155L0,194.369H4.838l1.244-5.529H9.538a6.57,6.57,0,0,0,6.773-5.391C17.14,179.441,14.237,176.4,11.887,176.4Zm-.138,6.22a2.821,2.821,0,0,1-2.765,2.073H6.773l.968-4.147h2.35A1.565,1.565,0,0,1,11.749,182.62Z" transform="translate(0 -176.4)" fill="#1a5b80"/>
  <g id="Group_204" data-name="Group 204" transform="translate(0.415 4.147)">
    <path id="Path_1818" data-name="Path 1818" d="M94.268,228.4c-3.732.276-6.22,1.382-6.773,4.147-.968,5.529,4.976,5.667,7.326,3.179l-.276,1.659h4.423l.691-3.317Zm1.244,4.423c-.276,1.106-1.244,1.52-2.35,1.659-.968,0-1.8-.553-1.106-1.659.553-.829,1.8-.829,2.626-.829h1.106C95.65,231.856,95.512,232.409,95.512,232.823Z" transform="translate(-72.705 -223.562)" fill="#06435e"/>
    <path id="Path_1819" data-name="Path 1819" d="M205.876,208l-.276.415,2.9,2.765,6.082-10.782h-4.561Z" transform="translate(-170.49 -200.4)" fill="#06435e"/>
    <path id="Path_1820" data-name="Path 1820" d="M6.823,253.929,8.067,248.4,2.4,253.929Z" transform="translate(-2.4 -240.106)" fill="#06435e"/>
  </g>
  <g id="Group_205" data-name="Group 205" transform="translate(43.265 8.985)">
    <path id="Path_1821" data-name="Path 1821" d="M254.823,252.605l1.244-5.805v.138l-5.667,5.667Z" transform="translate(-250.4 -243.621)" fill="#2273aa"/>
    <path id="Path_1822" data-name="Path 1822" d="M343.078,228.4c-3.732.276-6.22,1.382-6.773,4.147-.968,5.529,5.114,5.667,7.464,3.179l-.415,1.659h4.423l.691-3.317Zm1.244,4.423c-.276,1.106-1.244,1.52-2.35,1.659-.968,0-1.8-.553-1.244-1.659.553-.829,1.8-.829,2.765-.829H344.6C344.46,231.856,344.322,232.409,344.322,232.823Z" transform="translate(-321.377 -228.4)" fill="#2273aa"/>
    <path id="Path_1823" data-name="Path 1823" d="M418.379,233.2l-3.179,8.155h4.423l1.244-5.529Z" transform="translate(-386.725 -232.371)" fill="#2273aa"/>
  </g>
  <g id="Group_206" data-name="Group 206" transform="translate(80.171 0.553)">
    <path id="Path_1824" data-name="Path 1824" d="M464.691,182.612v-1.935H464V180.4h1.8v.276h-.691v1.935Z" transform="translate(-464 -180.262)" fill="#32a6ce"/>
    <path id="Path_1825" data-name="Path 1825" d="M476,181.95v-2.212h.415l.553,1.52a.483.483,0,0,0,.138.276c0-.138,0-.138.138-.415l.553-1.52h.415v2.212h-.276v-1.935l-.691,1.935h-.415l-.691-1.935v1.935H476Z" transform="translate(-473.927 -179.6)" fill="#32a6ce"/>
  </g>
</svg>
