<svg xmlns="http://www.w3.org/2000/svg" width="15.524" height="15.524" viewBox="0 0 15.524 15.524">
  <path id="Icon_metro-cancel" data-name="Icon metro-cancel" d="M10.333,1.928A7.762,7.762,0,1,0,18.095,9.69a7.762,7.762,0,0,0-7.762-7.762Zm0,14.069A6.307,6.307,0,1,1,16.639,9.69,6.307,6.307,0,0,1,10.333,16ZM12.758,5.809,10.333,8.235,7.907,5.809,6.452,7.264,8.877,9.69,6.452,12.116l1.455,1.455,2.426-2.426,2.426,2.426,1.455-1.455L11.788,9.69l2.426-2.426Z" transform="translate(-2.571 -1.928)"/>
</svg>
