<svg xmlns="http://www.w3.org/2000/svg" viewBox="0 0 476.67 95.95"><defs><style>.cls-1{fill:#038D08;}</style></defs><g id="Layer_2" data-name="Layer 2"><g id="Layer_1-2" data-name="Layer 1"><path class="cls-1" d="M35.15.31H47.48v67.6a32.77,32.77,0,0,1-9.85,4.71,42.25,42.25,0,0,1-12.7,2c-7.77,0-13.89-2.33-18.29-7S0,56.55,0,48.52c0-7.78,2-14.05,6-18.87A19.49,19.49,0,0,1,21.67,22.5c5.34,0,9.59,1.4,12.85,4.14h.63ZM12.65,48.52c0,10.21,4.2,15.29,12.54,15.29a17.26,17.26,0,0,0,10-2.69V37.27a15.5,15.5,0,0,0-10.53-3.83Q12.65,33.44,12.65,48.52Z"/><path class="cls-1" d="M96.58,29.08c4.2,4.41,6.33,10,6.33,16.74a24.43,24.43,0,0,1-.57,6.07H68.28c1.09,8.24,5.55,12.34,13.48,12.34a19.67,19.67,0,0,0,13.58-5.55l5.86,7.88c-5.08,5.39-12,8.09-20.84,8-7.73,0-13.74-2.43-18.15-7.25s-6.58-11.1-6.58-18.72,2.23-13.73,6.64-18.71S72.53,22.5,79.84,22.5C86.79,22.5,92.38,24.67,96.58,29.08ZM68.8,42.45H90.88c-.67-6-4.61-9.74-10.42-9.74C74.4,32.71,70.41,36.39,68.8,42.45Z"/><path class="cls-1" d="M145.11,27.79l-5.29,8.7A21.83,21.83,0,0,0,127.9,33c-4.61,0-6.89,1.35-6.89,4a4,4,0,0,0,2,3.58c1.35.83,3.89,1.66,7.67,2.49,5.24,1.29,9.23,3.11,11.87,5.44s3.94,5.86,3.94,10.37c0,9.9-6.94,15.6-19.64,15.6-8.87,0-15.66-2-20.48-6.12l5.49-8.6a25.61,25.61,0,0,0,15,4.46c5.13,0,7.41-1.3,7.41-4.57a4.38,4.38,0,0,0-2-3.78c-1.3-.88-3.89-1.81-7.78-2.69-10.62-2.44-15.7-7-15.7-15.92a13.06,13.06,0,0,1,4.87-10.63q4.89-4,13.37-4A31.11,31.11,0,0,1,145.11,27.79Z"/><path class="cls-1" d="M165.75,2.18a7.23,7.23,0,0,1,2.18,5.34A7.27,7.27,0,0,1,160.41,15a7.38,7.38,0,0,1-5.49-2.18,7.19,7.19,0,0,1-2.18-5.28,7.23,7.23,0,0,1,2.18-5.34,7.82,7.82,0,0,1,10.83,0ZM154.19,23.64h12.24V73.56H154.19Z"/><path class="cls-1" d="M211.58,24.47a33.15,33.15,0,0,1,9.8,4.71v46c0,7.11-2.07,12.34-6.27,15.71S205.1,96,197.74,96c-9.38,0-16.48-1.81-21.25-5.49l5.18-9.7a25.36,25.36,0,0,0,14.67,4.46c8.5,0,12.75-3,12.75-11V69h-.51c-3.11,2.69-7.31,4-12.65,4-6.43,0-11.61-2.28-15.5-6.84S174.57,55.57,174.57,48c0-7.83,2.18-14.05,6.48-18.61s10.32-6.84,18-6.84A41,41,0,0,1,211.58,24.47Zm-2.49,11.3c-2.43-1.71-5.65-2.54-9.74-2.54s-7.21,1.29-9.23,3.83S187,43.23,187,47.85c0,9.69,3.94,14.56,11.77,14.56a14.38,14.38,0,0,0,10.31-3.73Z"/><path class="cls-1" d="M232.17,23.64h11.92v5h.52c2.9-4,7.31-6,13.27-6,11,0,17.21,7,17.21,19V73.56H262.76V43.85c0-6.79-2.86-10.21-8.61-10.21-6.38,0-9.74,4.51-9.74,11.56V73.56H232.17Z"/><path class="cls-1" d="M279.25,23.64h12.54l10.47,29.75h.58L314.5,23.53h8.19l11.56,29.86h.62l10.52-29.75h12.19l-18.87,50h-8.19L318.75,42.35h-.62L306.31,73.66h-8.14Z"/><path class="cls-1" d="M402.48,40.23V67.91c-5.65,4.45-12.86,6.68-21.57,6.68-6.58,0-11.87-1.34-15.91-4.09s-6.07-6.9-6.07-12.55a14.15,14.15,0,0,1,5.24-11.61c3.47-2.8,8.29-4.2,14.51-4.2a28,28,0,0,1,11.05,2h.62V41q0-8-10.47-7.93a28.24,28.24,0,0,0-14.05,3.68l-4.46-9.33c5.65-3.27,12.34-4.87,20.06-4.87C395.07,22.5,402.48,29,402.48,40.23ZM371.17,58.06c0,4.3,3.21,6.48,9.64,6.48A16.34,16.34,0,0,0,390.35,62V53.39a29.71,29.71,0,0,0-9.54-1.81C374.38,51.58,371.17,53.76,371.17,58.06Z"/><path class="cls-1" d="M412.75.31H425V73.56H412.75Z"/><path class="cls-1" d="M476.67,40.23V67.91q-8.48,6.68-21.56,6.68c-6.58,0-11.87-1.34-15.92-4.09s-6.06-6.9-6.06-12.55c0-4.92,1.76-8.81,5.24-11.61s8.29-4.2,14.51-4.2a27.92,27.92,0,0,1,11,2h.62V41c0-5.34-3.47-8-10.47-7.93A28.27,28.27,0,0,0,440,36.7l-4.45-9.33c5.65-3.27,12.33-4.87,20.06-4.87C469.26,22.5,476.67,29,476.67,40.23ZM445.36,58.06c0,4.3,3.22,6.48,9.65,6.48A16.3,16.3,0,0,0,464.54,62V53.39A29.61,29.61,0,0,0,455,51.58C448.58,51.58,445.36,53.76,445.36,58.06Z"/></g></g></svg>