<svg xmlns="http://www.w3.org/2000/svg" width="25.316" height="20" viewBox="0 0 25.316 20">
  <path id="Icon_awesome-twitter" data-name="Icon awesome-twitter" d="M22.714,8.365c.016.219.016.438.016.656A14.452,14.452,0,0,1,7.968,23.381,14.963,14.963,0,0,1,0,21.115a11.032,11.032,0,0,0,1.253.062,10.578,10.578,0,0,0,6.442-2.156,5.182,5.182,0,0,1-4.851-3.5,6.723,6.723,0,0,0,.98.078,5.633,5.633,0,0,0,1.365-.172,5.085,5.085,0,0,1-4.161-4.953v-.062a5.337,5.337,0,0,0,2.345.641,5.009,5.009,0,0,1-2.313-4.2A4.9,4.9,0,0,1,1.767,4.3a14.889,14.889,0,0,0,10.7,5.281,5.548,5.548,0,0,1-.129-1.156,5.117,5.117,0,0,1,5.189-5.047,5.245,5.245,0,0,1,3.791,1.594A10.392,10.392,0,0,0,24.61,3.756a5.061,5.061,0,0,1-2.281,2.781,10.633,10.633,0,0,0,2.988-.781,10.993,10.993,0,0,1-2.6,2.609Z" transform="translate(0 -3.381)" fill="#000"/>
</svg>
