<svg xmlns="http://www.w3.org/2000/svg" width="28.762" height="20" viewBox="0 0 28.762 20">
  <path id="Icon_awesome-youtube" data-name="Icon awesome-youtube" d="M29.211,7.629A3.594,3.594,0,0,0,26.668,5.1c-2.243-.6-11.237-.6-11.237-.6s-8.994,0-11.237.6A3.594,3.594,0,0,0,1.651,7.629a37.089,37.089,0,0,0-.6,6.891,37.089,37.089,0,0,0,.6,6.891A3.541,3.541,0,0,0,4.194,23.9c2.243.6,11.237.6,11.237.6s8.994,0,11.237-.6a3.541,3.541,0,0,0,2.543-2.491,37.089,37.089,0,0,0,.6-6.891,37.089,37.089,0,0,0-.6-6.891ZM12.489,18.75V10.291l7.517,4.229L12.489,18.75Z" transform="translate(-1.05 -4.5)" fill="#000"/>
</svg>
