<svg xmlns="http://www.w3.org/2000/svg" width="20.526" height="39.816" viewBox="0 0 20.526 39.816">
  <path id="Icon_ionic-ios-attach" data-name="Icon ionic-ios-attach" d="M29.02,13.721a1.388,1.388,0,0,0-1.386,1.386V32.381a7.165,7.165,0,0,1-1.955,4.9,7.032,7.032,0,0,1-4.931,2.106H19.539A6.906,6.906,0,0,1,14.67,37.2a7.134,7.134,0,0,1-2.124-4.9V10.007A4.829,4.829,0,0,1,14.084,6.5a5.287,5.287,0,0,1,3.643-1.448,4.945,4.945,0,0,1,4.994,4.958v20.81a2.808,2.808,0,0,1-2.577,2.861,2.731,2.731,0,0,1-2.506-2.861V18.946a1.386,1.386,0,0,0-2.772,0V30.817a5.331,5.331,0,0,0,9.072,4,5.613,5.613,0,0,0,1.555-4V10.007A7.766,7.766,0,0,0,17.7,2.25a7.8,7.8,0,0,0-5.527,2.266,7.666,7.666,0,0,0-2.3,5.5V32.3a9.93,9.93,0,0,0,2.9,6.931,9.6,9.6,0,0,0,6.762,2.834h1.208a9.706,9.706,0,0,0,6.744-2.852,9.982,9.982,0,0,0,2.124-3.074A9.3,9.3,0,0,0,30.4,32.4V15.107A1.375,1.375,0,0,0,29.02,13.721Z" transform="translate(-9.872 -2.25)"/>
</svg>
