<svg xmlns="http://www.w3.org/2000/svg" width="252" height="200" viewBox="0 0 252 200">
  <g id="Place_Order" data-name="Place Order" transform="translate(-1039 -3282)">
    <ellipse id="Ellipse_148" data-name="Ellipse 148" cx="1.429" cy="1.429" rx="1.429" ry="1.429" transform="translate(1145.684 3320.761)" fill="#ccc"/>
    <ellipse id="Ellipse_149" data-name="Ellipse 149" cx="1.429" cy="1.429" rx="1.429" ry="1.429" transform="translate(1149.792 3320.761)" fill="#ccc"/>
    <ellipse id="Ellipse_150" data-name="Ellipse 150" cx="1.429" cy="1.429" rx="1.429" ry="1.429" transform="translate(1153.9 3320.761)" fill="#ccc"/>
    <path id="Path_1861" data-name="Path 1861" d="M243.3,415.287c-.194.008-8.45-.565-8.66-.572l.742-7.4,4.7-.142,8.986-16.643A4.262,4.262,0,0,1,252,384.512c5.327-1.211,7.157,7.171,1.814,8.286l-7.432,20.337A3.3,3.3,0,0,1,243.3,415.287Z" transform="translate(882.743 2935.689)" fill="#ffb8b8"/>
    <path id="Path_1862" data-name="Path 1862" d="M190.705,451.2c-7.856.019-8.546-11.854-.672-12.691,20.821-1.258,18.186-6.487,19.767,8.938a1.737,1.737,0,0,1-1.541,1.91l-16.872,1.806A6.427,6.427,0,0,1,190.705,451.2Z" transform="translate(913.57 2903.594)" fill="#d0cde1"/>
    <path id="Path_1863" data-name="Path 1863" d="M173.706,375.1c10.823,6.159,1.938,22.409-9.087,16.622C153.8,385.562,162.682,369.312,173.706,375.1Z" transform="translate(928.775 2942.152)" fill="#ffb8b8"/>
    <path id="Path_1864" data-name="Path 1864" d="M70.048,563.771h4.728l2.249-18.237H70.047Z" transform="translate(1042.273 2893.357)" fill="#ffb8b8"/>
    <path id="Path_1865" data-name="Path 1865" d="M218.893,741.853h14.859c-.057-7.667-10-5.458-14.86-5.74Z" transform="translate(892.415 2719.666)" fill="#141414"/>
    <path id="Path_1866" data-name="Path 1866" d="M17.048,563.771h4.728l2.249-18.237H17.047Z" transform="translate(1074.834 2893.357)" fill="#ffb8b8"/>
    <path id="Path_1867" data-name="Path 1867" d="M165.893,741.853h14.859c-.057-7.667-10-5.458-14.86-5.74Z" transform="translate(924.976 2719.666)" fill="#141414"/>
    <path id="Path_1868" data-name="Path 1868" d="M167.254,617.543c-1.143-.314-7.352.635-8.085-.61-2.559-25.65-1.99-50.753,3.691-64.546l19.532-1.2c4.368,7.974,14.408,60.885,8.352,64.1l-7.788.278a1.935,1.935,0,0,1-1.943-1.476L174.5,577.026c-1.623-2.268-4.812,39.037-5.339,38.883a1.92,1.92,0,0,1-1.9,1.634Z" transform="translate(930.001 2833.217)" fill="#141414"/>
    <path id="Path_1869" data-name="Path 1869" d="M160.568,482.23c-9.862-10.317-3.571-37.978-3.89-37.39.027-.678,2.261-11.113,8.039-12.826,4.584-1.513,9.658,3.013,10.284,7.59l6.867,40.552a1.426,1.426,0,0,1-.391,1.226C181.814,482.434,161.051,482.019,160.568,482.23Z" transform="translate(931.672 2906.615)" fill="#d0cde1"/>
    <path id="Path_1870" data-name="Path 1870" d="M161.605,376.946a6.209,6.209,0,0,0,1.8-2.342c2.655-1.513,5.708,2.148,8.516.781,7.942-7.624-.221-9.873-7.536-10.275a5.977,5.977,0,0,0-4.5,1.412c-14.611-1.116-7.6,18.312,1.617,20.878,1.628.713,2.849-.73,1.414-2.042C160.923,383.276,158.462,379.084,161.605,376.946Z" transform="translate(933.836 2947.561)" fill="#141414"/>
    <path id="Path_1871" data-name="Path 1871" d="M392.2,373.065H286.536a6.565,6.565,0,0,0-6.556,6.556V513.056a6.565,6.565,0,0,0,6.556,6.556H392.2a6.565,6.565,0,0,0,6.556-6.556V379.621A6.565,6.565,0,0,0,392.2,373.065Zm5.785,139.991a5.792,5.792,0,0,1-5.785,5.785H286.536a5.792,5.792,0,0,1-5.785-5.785V379.621a5.792,5.792,0,0,1,5.785-5.785H392.2a5.792,5.792,0,0,1,5.785,5.785Z" transform="translate(854.886 2942.648)" fill="#3f3d56"/>
    <path id="Path_1872" data-name="Path 1872" d="M209.672,498.8c-3.483.395-5.012-7.71-6.343-9.775l6.936-2.693,2.257,4.128,18.908.47a4.119,4.119,0,0,1,.367-.432h0c3.75-3.926,9.856,1.956,6.121,5.874a4.256,4.256,0,0,1-6.362-.184C231.088,496.222,210.129,498.813,209.672,498.8Z" transform="translate(901.977 2873.062)" fill="#ffb8b8"/>
    <path id="Path_1873" data-name="Path 1873" d="M187.657,469.059c-1.16,1.117-10.062-14.567-10.712-15.011-4.5-6.992,6.092-13.895,10.667-6.941l9.254,14.222a1.737,1.737,0,0,1-.508,2.4C195.937,463.928,187.955,469.483,187.657,469.059Z" transform="translate(918.855 2898.936)" fill="#d0cde1"/>
    <path id="Path_1874" data-name="Path 1874" d="M407.169,596.592H343.151c-6.539-.031-6.567-9.993,0-10.027h64.017C413.7,586.6,413.739,596.558,407.169,596.592Z" transform="translate(819.097 2811.484)" fill="#ccc"/>
    <path id="Path_1875" data-name="Path 1875" d="M407.169,644.592H343.151c-6.539-.032-6.567-9.993,0-10.027h64.017C413.7,634.6,413.739,644.558,407.169,644.592Z" transform="translate(819.097 2781.996)" fill="#ccc"/>
    <path id="Path_1876" data-name="Path 1876" d="M407.169,692.592H343.151c-6.539-.031-6.567-9.993,0-10.027h64.017C413.7,682.6,413.739,692.558,407.169,692.592Z" transform="translate(819.097 2752.507)" fill="#ccc"/>
    <path id="Path_1877" data-name="Path 1877" d="M563.007,373.119a10.027,10.027,0,1,1,10.027-10.027,10.027,10.027,0,0,1-10.027,10.027Z" transform="translate(687.169 2954.935)" fill="#038d08"/>
    <path id="Path_1878" data-name="Path 1878" d="M575.621,369.771h-4.242v-4.821a.386.386,0,1,0-.771,0v4.821h-4.242a.386.386,0,0,0,0,.771h4.242v4.821a.386.386,0,1,0,.771,0v-4.821h4.242a.386.386,0,0,0,0-.771Z" transform="translate(679.182 2947.87)" fill="#fff"/>
    <path id="Path_1879" data-name="Path 1879" d="M405.547,480.046h-61.7a6.37,6.37,0,0,1-6.363-6.363V439.128a6.37,6.37,0,0,1,6.363-6.363h61.7a6.37,6.37,0,0,1,6.363,6.363v34.554a6.37,6.37,0,0,1-6.363,6.363Z" transform="translate(819.561 2905.971)" fill="#fff"/>
    <rect id="Rectangle_363" data-name="Rectangle 363" width="252" height="200" transform="translate(1039 3282)" fill="none"/>
  </g>
</svg>
