<svg xmlns="http://www.w3.org/2000/svg" width="24.707" height="23.161" viewBox="0 0 24.707 23.161"><g transform="translate(0.15 0.15)"><g transform="translate(0 0)"><path d="M24.05,35.563a.358.358,0,0,0-.358.358v2.389a.06.06,0,0,1-.06.06H22.274V33.146a.358.358,0,0,0-.715,0v5.224H18.933l.711-.782a.572.572,0,0,0,.138-.459l0-.011-.8-4.719.147-.221.038.027A.56.56,0,0,0,19.992,32h0L20.8,30.37l1.857.719A1.78,1.78,0,0,1,23.692,32.7v1.549a.358.358,0,0,0,.715,0V32.7a2.493,2.493,0,0,0-1.475-2.275l-.007,0L19.764,29.2v-.651a2.611,2.611,0,0,0,.944-1.621,1.248,1.248,0,0,0,.664-.292,1.231,1.231,0,0,0,.15-1.712v-.965a3.421,3.421,0,0,0-5.646-2.6,1.229,1.229,0,0,0-.277-.744v-.965a3.424,3.424,0,1,0-6.848,0v.99a1.166,1.166,0,0,0-.276.716,3.409,3.409,0,0,0-1.349-.706.358.358,0,1,0-.182.692,2.71,2.71,0,0,1,2.017,2.619v.535l-.067-.012a.412.412,0,0,0-.085-.242c-.092-.132-.256-.3-.785-.864a.565.565,0,0,0-.724-.088,5.109,5.109,0,0,1-3.027.833.571.571,0,0,0-.629.366l-.1.02v-.549a2.726,2.726,0,0,1,1.926-2.594.358.358,0,1,0-.206-.685A3.451,3.451,0,0,0,3.517,21.9a3.393,3.393,0,0,0-.69,2.061v.99a1.165,1.165,0,0,0-.277.754,1.234,1.234,0,0,0,1.093,1.226,2.641,2.641,0,0,0,1,1.663V29.2L1.482,30.424l-.007,0A2.493,2.493,0,0,0,0,32.7v5.607a.776.776,0,0,0,.775.775H11.786a.77.77,0,0,0,.418-.123.77.77,0,0,0,.418.123H23.632a.776.776,0,0,0,.775-.775V35.92A.358.358,0,0,0,24.05,35.563ZM3.609,26.189a.516.516,0,0,1-.344-.487.528.528,0,0,1,.344-.465ZM20.135,30.11l-.7,1.407-.791-.562.878-1.083Zm-2.009.347L17.2,29.316v-.343a2.883,2.883,0,0,0,.929.152h0a2.643,2.643,0,0,0,.918-.167v.36Zm.42,1.306-.132.2h-.576l-.132-.2.42-.3ZM12.2,26.147l-.925-1.141v-.343a2.883,2.883,0,0,0,.929.152h0a2.643,2.643,0,0,0,.918-.167v.36Zm.42,1.306-.132.2h-.576l-.132-.2.42-.3ZM9.387,22.583a1.278,1.278,0,0,0,.179.034,2.641,2.641,0,0,0,1,1.663v.609l-.729.283a1.225,1.225,0,0,0-.158-.249v-.965A3.416,3.416,0,0,0,9.387,22.583ZM14.1,22.2a1.928,1.928,0,0,1-3.856,0V20.529a5.855,5.855,0,0,0,3.261-.886c.322.346.514.547.6.64C14.1,21.173,14.1,21.517,14.1,22.2Zm.682.413a1.287,1.287,0,0,0,.179-.034,3.4,3.4,0,0,0-.29,1.376v.99a1.22,1.22,0,0,0-.141.209l-.692-.268v-.651A2.611,2.611,0,0,0,14.785,22.617Zm-3.978,2.946.878,1.083-.6.425h0l-.19.135-.7-1.407Zm2.218.7.571-.705.615.238-.7,1.407-.19-.135h0l-.6-.426Zm.18,1.6.038.027a.56.56,0,0,0,.825-.206h0l.6-1.209a1.255,1.255,0,0,0,.816.449,2.6,2.6,0,0,0,1,1.662V29.2l-3.04,1.178-.388-2.29Zm3.524,2.005.878,1.083-.789.561-.7-1.407Zm3.3-3.358a1.928,1.928,0,0,1-3.856,0V24.84a5.858,5.858,0,0,0,3.261-.886c.322.346.514.547.6.64C20.026,25.484,20.026,25.827,20.026,26.515Zm1.059-.813a.516.516,0,0,1-.344.487v-.973A.515.515,0,0,1,21.084,25.7Zm-5.7-1.744a2.709,2.709,0,1,1,5.418,0v.535l-.067-.012a.412.412,0,0,0-.085-.242c-.094-.135-.257-.3-.785-.864a.566.566,0,0,0-.724-.088,5.119,5.119,0,0,1-3.053.832.562.562,0,0,0-.6.367l-.1.02v-.549Zm.066,1.278v.952a.515.515,0,0,1-.344-.486A.528.528,0,0,1,15.455,25.237Zm-.294-3.845a.514.514,0,0,1-.179.391.529.529,0,0,1-.165.1v-.973A.515.515,0,0,1,15.161,21.392Zm-2.987-4.452a2.712,2.712,0,0,1,2.709,2.709v.535l-.067-.012a.433.433,0,0,0-.1-.264c-.1-.13-.272-.308-.769-.841a.565.565,0,0,0-.724-.088,5.107,5.107,0,0,1-3.082.83.568.568,0,0,0-.573.369l-.1.02v-.548h0A2.712,2.712,0,0,1,12.175,16.939ZM9.532,20.926v.952a.516.516,0,0,1-.344-.487A.528.528,0,0,1,9.532,20.926Zm-.637,4.29a.516.516,0,0,1,0,.972Zm-.033,1.712a1.254,1.254,0,0,0,.85-.493l.625,1.253h0a.56.56,0,0,0,.825.206l.038-.027.147.221-.387,2.289L7.918,29.2v-.651h0A2.613,2.613,0,0,0,8.862,26.928ZM6.28,30.457l-.925-1.141v-.343a2.882,2.882,0,0,0,.929.152h0a2.642,2.642,0,0,0,.918-.167v.36Zm.42,1.306-.132.2H5.992l-.132-.2.42-.3Zm.975-1.891.615.238-.7,1.407-.19-.135h0l-.6-.426Zm-3.35-3.358V24.84a5.86,5.86,0,0,0,3.261-.886c.319.342.514.546.6.64v1.921a1.928,1.928,0,0,1-3.856,0Zm.56,3.358.878,1.083-.6.425h0l-.19.135-.7-1.407Zm-2.035,8.5V33.146a.358.358,0,0,0-.715,0v5.224H.775a.06.06,0,0,1-.06-.06V32.7a1.78,1.78,0,0,1,1.03-1.613L3.6,30.37,4.414,32h0a.56.56,0,0,0,.825.206l.038-.027.147.221-.8,4.719,0,.011a.572.572,0,0,0,.139.459l.71.782H2.849Zm2.494-1.206L6.1,32.677h.356l.759,4.487L6.28,38.195Zm6.5,1.146a.06.06,0,0,1-.06.06H10.427V33.146a.358.358,0,0,0-.715,0v5.224H7.087l.711-.782a.572.572,0,0,0,.138-.459l0-.011-.8-4.719.147-.221.038.027A.56.56,0,0,0,8.146,32h0l.813-1.629,1.857.719A1.776,1.776,0,0,1,11.846,32.7v5.607ZM12.2,31.4a2.546,2.546,0,0,0-.583-.648l.4-2.389h.356l.4,2.39A2.548,2.548,0,0,0,12.2,31.4ZM14.7,38.37h0V33.146a.358.358,0,0,0-.715,0v5.224H12.622a.06.06,0,0,1-.06-.06V32.7a1.709,1.709,0,0,1,.417-1.145,1.925,1.925,0,0,1,.613-.468l1.855-.719L16.26,32h0a.56.56,0,0,0,.825.206l.038-.027.147.221-.8,4.719,0,.011a.572.572,0,0,0,.139.459l.71.782H14.7Zm2.494-1.206.759-4.487H18.3l.759,4.487-.937,1.031Z" transform="translate(0 -16.224)" fill="#141414" stroke="#141414" stroke-width="0.3"/></g></g></svg>