<svg xmlns="http://www.w3.org/2000/svg" width="90" height="90" viewBox="0 0 90 90"><g transform="translate(-379 -131)"><rect width="90" height="90" rx="10" transform="translate(379 131)" fill="#4791ff" opacity="0.17"/><g transform="translate(403.653 149.75)"><path d="M93.136,41.748,90.875,13.26a3.561,3.561,0,0,0-3.534-3.273H82.876v-.2a9.786,9.786,0,1,0-19.571,0v.2H58.839a3.559,3.559,0,0,0-3.533,3.269l-2.262,28.5a8.243,8.243,0,0,0,8.219,8.874H84.917a8.243,8.243,0,0,0,8.219-8.877ZM66.27,9.786a6.82,6.82,0,0,1,13.641,0v.2H66.27Zm22.52,36.183a5.224,5.224,0,0,1-3.872,1.691H61.263A5.278,5.278,0,0,1,56,41.982l2.261-28.5a.581.581,0,0,1,.577-.535H63.3V16.6a1.483,1.483,0,1,0,2.965,0V12.952H79.911V16.6a1.483,1.483,0,1,0,2.965,0V12.952h4.466a.582.582,0,0,1,.577.538L90.18,41.978A5.224,5.224,0,0,1,88.789,45.968Z" transform="translate(-53.02)" fill="#4791ff"/><g transform="translate(12.956 24.709)"><path d="M197.846,250.327a1.482,1.482,0,0,0-2.1,0l-6.62,6.62-2.546-2.546a1.483,1.483,0,0,0-2.1,2.1l3.594,3.594a1.482,1.482,0,0,0,2.1,0l7.669-7.669A1.483,1.483,0,0,0,197.846,250.327Z" transform="translate(-184.052 -249.893)" fill="#4791ff"/></g></g></g></svg>