<svg xmlns="http://www.w3.org/2000/svg" width="20.512" height="23.182" viewBox="0 0 20.512 23.182"><g transform="translate(0.15 0.15)"><path d="M19.068,5.72H16.017V1.144A1.124,1.124,0,0,0,14.873,0H1.144A1.124,1.124,0,0,0,0,1.144V21.738a1.124,1.124,0,0,0,1.144,1.144H12.738l3.28-3.28V17.161h-.763v1.907H13.348A1.124,1.124,0,0,0,12.2,20.212v1.907H1.144a.36.36,0,0,1-.381-.381V1.144A.36.36,0,0,1,1.144.763H14.873a.36.36,0,0,1,.381.381V5.72H12.2A1.124,1.124,0,0,0,11.06,6.865v6.865A1.124,1.124,0,0,0,12.2,14.873h2.136l1.3,1.3,1.3-1.3h2.136a1.124,1.124,0,0,0,1.144-1.144V6.865A1.124,1.124,0,0,0,19.068,5.72Zm-5.72,14.11h1.373l-1.754,1.754V20.212A.36.36,0,0,1,13.348,19.831Zm6.1-6.1a.36.36,0,0,1-.381.381H16.628l-.992.992-.992-.992H12.2a.36.36,0,0,1-.381-.381V6.865a.36.36,0,0,1,.381-.381h6.865a.36.36,0,0,1,.381.381Zm0,0" transform="translate(0 0)" fill="#141414" stroke="#141414" stroke-width="0.3"/><path d="M120,40h4.576v.763H120Zm0,0" transform="translate(-114.278 -38.093)" fill="#141414" stroke="#141414" stroke-width="0.3"/><path d="M40,80h1.144v.763H40Zm0,0" transform="translate(-38.092 -76.186)" fill="#141414" stroke="#141414" stroke-width="0.3"/><path d="M80,80H90.3v.763H80Zm0,0" transform="translate(-76.186 -76.186)" fill="#141414" stroke="#141414" stroke-width="0.3"/><path d="M40,128h1.144v.763H40Zm0,0" transform="translate(-38.092 -121.898)" fill="#141414" stroke="#141414" stroke-width="0.3"/><path d="M80,128h6.1v.763H80Zm0,0" transform="translate(-76.186 -121.898)" fill="#141414" stroke="#141414" stroke-width="0.3"/><path d="M40,176h1.144v.763H40Zm0,0" transform="translate(-38.092 -167.61)" fill="#141414" stroke="#141414" stroke-width="0.3"/><path d="M80,176h6.1v.763H80Zm0,0" transform="translate(-76.186 -167.61)" fill="#141414" stroke="#141414" stroke-width="0.3"/><path d="M40,224h1.144v.763H40Zm0,0" transform="translate(-38.092 -213.322)" fill="#141414" stroke="#141414" stroke-width="0.3"/><path d="M80,224h6.1v.763H80Zm0,0" transform="translate(-76.186 -213.322)" fill="#141414" stroke="#141414" stroke-width="0.3"/><path d="M40,272h1.144v.763H40Zm0,0" transform="translate(-38.092 -259.033)" fill="#141414" stroke="#141414" stroke-width="0.3"/><path d="M80,272h6.1v.763H80Zm0,0" transform="translate(-76.186 -259.033)" fill="#141414" stroke="#141414" stroke-width="0.3"/><path d="M40,320h1.144v.763H40Zm0,0" transform="translate(-38.092 -304.746)" fill="#141414" stroke="#141414" stroke-width="0.3"/><path d="M80,320h6.1v.763H80Zm0,0" transform="translate(-76.186 -304.746)" fill="#141414" stroke="#141414" stroke-width="0.3"/><path d="M40,368h1.144v.763H40Zm0,0" transform="translate(-38.092 -350.457)" fill="#141414" stroke="#141414" stroke-width="0.3"/><path d="M80,368H90.3v.763H80Zm0,0" transform="translate(-76.186 -350.457)" fill="#141414" stroke="#141414" stroke-width="0.3"/><path d="M40,416h1.144v.763H40Zm0,0" transform="translate(-38.092 -396.169)" fill="#141414" stroke="#141414" stroke-width="0.3"/><path d="M80,416h7.246v.763H80Zm0,0" transform="translate(-76.186 -396.169)" fill="#141414" stroke="#141414" stroke-width="0.3"/><path d="M283.814,154.365v-.839a1.525,1.525,0,1,0-3.051,0h.763a.763.763,0,0,1,1.525,0v.763h-1.907A1.124,1.124,0,0,0,280,155.433v1.525a1.124,1.124,0,0,0,1.144,1.144h2.288a1.124,1.124,0,0,0,1.144-1.144v-1.525A1.111,1.111,0,0,0,283.814,154.365Zm0,2.593a.36.36,0,0,1-.381.381h-2.288a.36.36,0,0,1-.381-.381v-1.525a.36.36,0,0,1,.381-.381h2.288a.36.36,0,0,1,.381.381Zm0,0" transform="translate(-266.652 -144.754)" fill="#141414" stroke="#141414" stroke-width="0.3"/></g></svg>