<svg xmlns="http://www.w3.org/2000/svg" width="24.407" height="24.407" viewBox="0 0 24.407 24.407"><path d="M14.778,24.407H5.72A5.727,5.727,0,0,1,0,18.687V5.72A5.727,5.727,0,0,1,5.72,0H18.687a5.727,5.727,0,0,1,5.72,5.72v9.129a.953.953,0,0,1-1.907,0V5.72a3.818,3.818,0,0,0-3.814-3.814H5.72A3.818,3.818,0,0,0,1.907,5.72V18.687A3.818,3.818,0,0,0,5.72,22.5h9.057a.953.953,0,1,1,0,1.907Zm4.862-18.4a.953.953,0,0,0-.953-.953H9.963a.953.953,0,1,0,0,1.907h8.724A.953.953,0,0,0,19.64,6.006Zm0,3.814a.953.953,0,0,0-.953-.953H5.72a.953.953,0,1,0,0,1.907H18.687A.953.953,0,0,0,19.64,9.82Zm-9.534,3.814a.953.953,0,0,0-.953-.953H5.72a.953.953,0,1,0,0,1.907H9.153A.953.953,0,0,0,10.106,13.634ZM4.767,5.911A1.192,1.192,0,1,0,5.959,4.719,1.192,1.192,0,0,0,4.767,5.911ZM23.388,23.388a3.484,3.484,0,0,0,0-4.921l-3.342-3.342a6.873,6.873,0,0,0-3.524-1.886l-2.7-.54A.953.953,0,0,0,12.7,13.821l.54,2.7a6.874,6.874,0,0,0,1.886,3.524l3.342,3.342a3.48,3.48,0,0,0,4.921,0Zm-7.24-8.279A4.972,4.972,0,0,1,18.7,16.473l3.342,3.342a1.573,1.573,0,1,1-2.225,2.225L16.473,18.7a4.973,4.973,0,0,1-1.364-2.549l-.26-1.3Z" fill="#141414"/></svg>