<svg xmlns="http://www.w3.org/2000/svg" width="23.894" height="24.83" viewBox="0 0 23.894 24.83"><g transform="translate(0.237 0.272)"><path d="M32.65,12.518a.715.715,0,0,1,0-.632l.91-1.862a2.119,2.119,0,0,0-.914-2.814l-1.831-.972a.715.715,0,0,1-.372-.511l-.358-2.042a2.119,2.119,0,0,0-2.393-1.739l-2.052.29a.715.715,0,0,1-.6-.2L23.548.6A2.119,2.119,0,0,0,20.59.6L19.1,2.041a.716.716,0,0,1-.6.2l-2.052-.29a2.119,2.119,0,0,0-2.393,1.739l-.358,2.042a.715.715,0,0,1-.372.512l-1.831.972a2.119,2.119,0,0,0-.914,2.814l.91,1.862a.715.715,0,0,1,0,.632l-.91,1.862a2.119,2.119,0,0,0,.914,2.814l1.831.972a.715.715,0,0,1,.372.511l.358,2.042a2.118,2.118,0,0,0,2.089,1.76,2.177,2.177,0,0,0,.3-.022l2.052-.29a.715.715,0,0,1,.6.2L20.59,23.8a2.119,2.119,0,0,0,2.958,0l1.49-1.441a.716.716,0,0,1,.6-.2l2.052.29a2.119,2.119,0,0,0,2.393-1.739l.358-2.042a.715.715,0,0,1,.372-.512l1.831-.972a2.119,2.119,0,0,0,.914-2.814Zm-.664,3.432-1.831.972a2.114,2.114,0,0,0-1.1,1.512L28.7,20.475a.717.717,0,0,1-.81.588l-2.052-.29a2.113,2.113,0,0,0-1.777.577l-1.49,1.441a.717.717,0,0,1-1,0l-1.49-1.441a2.112,2.112,0,0,0-1.474-.6,2.161,2.161,0,0,0-.3.021l-2.052.29a.717.717,0,0,1-.81-.588l-.358-2.042a2.114,2.114,0,0,0-1.1-1.512l-1.831-.972A.717.717,0,0,1,11.842,15l.91-1.862a2.114,2.114,0,0,0,0-1.869l-.91-1.862a.717.717,0,0,1,.309-.952l1.831-.972a2.114,2.114,0,0,0,1.1-1.512l.358-2.042a.717.717,0,0,1,.81-.588l2.052.29a2.114,2.114,0,0,0,1.777-.577l1.49-1.441a.717.717,0,0,1,1,0l1.49,1.441a2.114,2.114,0,0,0,1.777.577l2.052-.29a.717.717,0,0,1,.81.588l.358,2.042a2.114,2.114,0,0,0,1.1,1.512l1.831.972a.717.717,0,0,1,.309.952l-.91,1.862a2.114,2.114,0,0,0,0,1.869L32.3,15A.717.717,0,0,1,31.986,15.95Z" transform="translate(-10.359 0.002)" fill="#141414" stroke="#141414" stroke-width="0.3"/><g transform="translate(6.361 6.855)"><path d="M154.284,144a.7.7,0,0,0-1,0L144,153.288a.7.7,0,1,0,1,1l9.29-9.29A.7.7,0,0,0,154.284,144Z" transform="translate(-143.792 -143.792)" fill="#141414" stroke="#141414" stroke-width="0.3"/></g><g transform="translate(6.314 5.869)"><path d="M145.383,123.116a2.581,2.581,0,1,0,2.581,2.581A2.584,2.584,0,0,0,145.383,123.116Zm0,3.754a1.173,1.173,0,1,1,1.173-1.173A1.174,1.174,0,0,1,145.383,126.87Z" transform="translate(-142.802 -123.116)" fill="#141414" stroke="#141414" stroke-width="0.3"/></g><g transform="translate(11.944 13.377)"><path d="M263.5,280.61a2.581,2.581,0,1,0,2.581,2.581A2.584,2.584,0,0,0,263.5,280.61Zm0,3.754a1.173,1.173,0,1,1,1.173-1.173A1.174,1.174,0,0,1,263.5,284.364Z" transform="translate(-260.922 -280.61)" fill="#141414" stroke="#141414" stroke-width="0.3"/></g></g></svg>