<svg xmlns="http://www.w3.org/2000/svg" width="24.707" height="23.087" viewBox="0 0 24.707 23.087">
  <g id="Group_469" data-name="Group 469" transform="translate(0.15 0.15)">
    <path id="Path_1893" data-name="Path 1893" d="M22.262,17H2.145A2.148,2.148,0,0,0,0,19.145v13.92A2.148,2.148,0,0,0,2.145,35.21H9.071l-.524,3.146h-.92a.715.715,0,1,0,0,1.43H16.78a.715.715,0,1,0,0-1.43h-.92l-.524-3.146h6.926a2.148,2.148,0,0,0,2.145-2.145V19.145A2.148,2.148,0,0,0,22.262,17ZM14.41,38.356H10l.524-3.146h3.365Zm8.567-5.291a.716.716,0,0,1-.715.715H2.145a.716.716,0,0,1-.715-.715V19.145a.716.716,0,0,1,.715-.715h9.343v.81a.715.715,0,0,0,1.43,0v-.81h9.343a.716.716,0,0,1,.715.715Z" transform="translate(0 -17)" fill="#fff" stroke="#fff" stroke-width="0.3"/>
    <path id="Path_1894" data-name="Path 1894" d="M71.817,117.576a.715.715,0,0,0-.715.715v2.336H69.481V116a.715.715,0,1,0-1.43,0v4.624H66.43v-6.912a.715.715,0,0,0-1.43,0v7.627a.715.715,0,0,0,.715.715h6.1a.715.715,0,0,0,.715-.715v-3.051A.715.715,0,0,0,71.817,117.576Z" transform="translate(-61.901 -108.423)" fill="#fff" stroke="#fff" stroke-width="0.3"/>
    <path id="Path_1895" data-name="Path 1895" d="M277.147,121a4.145,4.145,0,0,0-2.965,7.045.469.469,0,0,0,.067.067,4.146,4.146,0,1,0,2.9-7.112Zm2.621,3.432h-1.906v-1.906A2.727,2.727,0,0,1,279.768,124.432Zm-3.336-1.906v2.325l-1.643,1.643A2.718,2.718,0,0,1,276.432,122.526Zm-.632,4.979,1.643-1.643h2.325A2.718,2.718,0,0,1,275.8,127.506Z" transform="translate(-259.987 -116.042)" fill="#fff" stroke="#fff" stroke-width="0.3"/>
  </g>
</svg>
