<svg xmlns="http://www.w3.org/2000/svg" width="24.636" height="23.137" viewBox="0 0 24.636 23.137"><g transform="translate(0.15 0.157)"><path d="M22.548,17.614H16.3a4.649,4.649,0,0,0-1.573-1.746.469.469,0,0,0-.727.392v1.354H10.34V16.26a.469.469,0,0,0-.727-.392,4.648,4.648,0,0,0-1.574,1.746H1.788A1.79,1.79,0,0,0,0,19.4v1.321a.358.358,0,0,0,.715,0V19.4a1.074,1.074,0,0,1,1.073-1.073H7.742a4.664,4.664,0,0,0,2.269,5.537V29.8H.715V22.391a.358.358,0,0,0-.715,0v9.437a1.79,1.79,0,0,0,1.788,1.788H9.51v2H6.8a1.217,1.217,0,0,0-1.216,1.216v.572A1.217,1.217,0,0,0,6.8,38.621H17.531a1.217,1.217,0,0,0,1.216-1.216v-.572a1.217,1.217,0,0,0-1.216-1.216H14.826v-2H18.44a.358.358,0,0,0,0-.715H1.788A1.074,1.074,0,0,1,.715,31.828V30.517H23.621v1.311A1.074,1.074,0,0,1,22.548,32.9H20.109a.358.358,0,0,0,0,.715h2.439a1.79,1.79,0,0,0,1.788-1.788V19.4A1.79,1.79,0,0,0,22.548,17.614ZM18.031,36.834v.572a.5.5,0,0,1-.5.5H6.8a.5.5,0,0,1-.5-.5v-.572a.5.5,0,0,1,.5-.5H17.531A.5.5,0,0,1,18.031,36.834Zm-3.921-1.216H10.225v-2h3.885ZM14,18.329v1.654a.033.033,0,0,1-.016.029l-1.8,1.081a.033.033,0,0,1-.034,0l-1.8-1.082a.033.033,0,0,1-.015-.028V18.329ZM8.235,19.757a3.922,3.922,0,0,1,1.39-3.006v3.233a.751.751,0,0,0,.362.641l1.795,1.081a.746.746,0,0,0,.773,0l1.794-1.081a.752.752,0,0,0,.363-.642V16.751a3.936,3.936,0,0,1-.879,6.565l-.036.017a3.935,3.935,0,0,1-5.561-3.576Zm2.491,4.413a4.612,4.612,0,0,0,1.261.226c.061,0,.122,0,.184,0a4.651,4.651,0,0,0,1.44-.228V29.8H10.726Zm3.6,5.632V23.871a4.667,4.667,0,0,0,1.066-.771,4.609,4.609,0,0,0,1.425-3.349,4.657,4.657,0,0,0-.222-1.422h5.954A1.074,1.074,0,0,1,23.621,19.4V29.8Z" transform="translate(0 -15.791)" fill="#141414" stroke="#141414" stroke-width="0.3"/></g></svg>