<svg xmlns="http://www.w3.org/2000/svg" width="21.381" height="20.045" viewBox="0 0 21.381 20.045"><g transform="translate(0.15 0.15)"><g transform="translate(0 0)"><path d="M20.772,32.927a.309.309,0,0,0-.309.309V35.3a.052.052,0,0,1-.052.052H19.238V30.84a.309.309,0,0,0-.618,0v4.512H16.353l.614-.675a.494.494,0,0,0,.12-.4v-.009l-.69-4.076L16.522,30l.033.023a.483.483,0,0,0,.712-.178h0l.7-1.407,1.6.621a1.537,1.537,0,0,1,.89,1.394v1.338a.309.309,0,1,0,.618,0V30.456a2.153,2.153,0,0,0-1.274-1.965l-.006,0L17.07,27.431v-.562a2.255,2.255,0,0,0,.815-1.4,1.078,1.078,0,0,0,.573-.253,1.063,1.063,0,0,0,.13-1.478V22.9a2.955,2.955,0,0,0-4.877-2.247,1.062,1.062,0,0,0-.239-.643v-.833a2.957,2.957,0,1,0-5.915,0v.855a1.007,1.007,0,0,0-.239.618,2.944,2.944,0,0,0-1.165-.61.309.309,0,1,0-.157.6A2.34,2.34,0,0,1,7.74,22.9v.462l-.058-.01a.356.356,0,0,0-.074-.209c-.079-.114-.221-.255-.678-.746a.488.488,0,0,0-.626-.076,4.413,4.413,0,0,1-2.614.72.494.494,0,0,0-.543.316l-.087.018V22.9a2.355,2.355,0,0,1,1.664-2.24.309.309,0,1,0-.178-.591,2.981,2.981,0,0,0-1.508,1.052,2.931,2.931,0,0,0-.6,1.78v.855a1.006,1.006,0,0,0-.24.651,1.066,1.066,0,0,0,.944,1.058,2.281,2.281,0,0,0,.861,1.437v.526L1.28,28.489l-.006,0A2.153,2.153,0,0,0,0,30.456V35.3a.67.67,0,0,0,.67.67h9.51a.665.665,0,0,0,.361-.106.665.665,0,0,0,.361.106h9.51a.67.67,0,0,0,.67-.67V33.236A.309.309,0,0,0,20.772,32.927Zm-17.655-8.1a.446.446,0,0,1-.3-.421.456.456,0,0,1,.3-.4Zm14.274,3.387-.606,1.215-.683-.485.758-.936Zm-1.735.3-.8-.986v-.3a2.49,2.49,0,0,0,.8.131h0a2.283,2.283,0,0,0,.793-.144v.311Zm.363,1.128-.114.171h-.5l-.114-.171.363-.257ZM10.54,24.795l-.8-.986v-.3a2.49,2.49,0,0,0,.8.131h0a2.283,2.283,0,0,0,.793-.144v.311Zm.363,1.128-.114.171h-.5l-.114-.171.363-.257ZM8.108,21.716a1.1,1.1,0,0,0,.155.03,2.281,2.281,0,0,0,.861,1.437v.526l-.63.244a1.058,1.058,0,0,0-.136-.215V22.9A2.95,2.95,0,0,0,8.108,21.716Zm4.073-.327a1.665,1.665,0,0,1-3.33,0V19.943a5.057,5.057,0,0,0,2.816-.765c.278.3.444.472.514.553C12.181,20.5,12.181,20.8,12.181,21.389Zm.589.356a1.111,1.111,0,0,0,.154-.03,2.939,2.939,0,0,0-.25,1.188v.855a1.054,1.054,0,0,0-.122.18l-.6-.231v-.562A2.255,2.255,0,0,0,12.77,21.746ZM9.334,24.29l.758.936-.517.367h0l-.164.117L8.8,24.495Zm1.916.609.494-.609.531.206-.606,1.215-.164-.117h0l-.518-.368Zm.156,1.382.033.023a.483.483,0,0,0,.712-.178h0l.521-1.045a1.084,1.084,0,0,0,.7.388,2.245,2.245,0,0,0,.862,1.436v.526l-2.625,1.018-.335-1.978Zm3.044,1.732.758.936-.682.484-.606-1.215Zm2.846-2.9a1.665,1.665,0,0,1-3.33,0V23.666a5.059,5.059,0,0,0,2.816-.765c.278.3.444.472.514.553C17.3,24.222,17.3,24.518,17.3,25.112Zm.914-.7a.446.446,0,0,1-.3.42v-.84A.445.445,0,0,1,18.211,24.41ZM13.291,22.9a2.34,2.34,0,1,1,4.679,0v.462l-.058-.01a.356.356,0,0,0-.074-.209c-.081-.117-.222-.256-.678-.746a.489.489,0,0,0-.626-.076,4.421,4.421,0,0,1-2.637.718.486.486,0,0,0-.52.317l-.087.018V22.9Zm.057,1.1v.822a.445.445,0,0,1-.3-.42A.456.456,0,0,1,13.349,24.008Zm-.254-3.321a.444.444,0,0,1-.154.337.457.457,0,0,1-.142.083v-.84A.445.445,0,0,1,13.095,20.687Zm-2.58-3.846a2.342,2.342,0,0,1,2.34,2.34v.462l-.058-.01a.374.374,0,0,0-.087-.228c-.083-.112-.235-.266-.664-.727a.488.488,0,0,0-.626-.076,4.411,4.411,0,0,1-2.662.717.491.491,0,0,0-.5.319l-.087.018v-.474h0A2.342,2.342,0,0,1,10.515,16.842ZM8.233,20.285v.822a.446.446,0,0,1-.3-.421A.456.456,0,0,1,8.233,20.285Zm-.55,3.705a.446.446,0,0,1,0,.84ZM7.654,25.47a1.083,1.083,0,0,0,.734-.426l.54,1.082h0a.483.483,0,0,0,.712.178l.033-.023.127.191-.335,1.977L6.839,27.431v-.562h0A2.257,2.257,0,0,0,7.654,25.47Zm-2.23,3.048-.8-.986v-.3a2.489,2.489,0,0,0,.8.131h0a2.282,2.282,0,0,0,.793-.144v.311Zm.363,1.128-.114.171h-.5l-.114-.171.363-.257Zm.842-1.634.531.206-.606,1.215-.164-.117h0l-.518-.368Zm-2.894-2.9V23.666A5.061,5.061,0,0,0,6.551,22.9c.276.3.444.472.514.553v1.659a1.665,1.665,0,0,1-3.33,0Zm.484,2.9.758.936-.517.367h0l-.164.117-.606-1.215ZM2.461,35.351V30.84a.309.309,0,0,0-.618,0v4.512H.67A.052.052,0,0,1,.618,35.3V30.456a1.537,1.537,0,0,1,.89-1.393l1.6-.621.7,1.407h0a.483.483,0,0,0,.712.178L4.558,30l.127.191-.69,4.076v.009a.494.494,0,0,0,.12.4l.614.675H2.461ZM4.614,34.31l.656-3.875h.307l.656,3.875-.809.89Zm5.617.989a.052.052,0,0,1-.052.052H9.006V30.84a.309.309,0,0,0-.618,0v4.512H6.121l.614-.675a.494.494,0,0,0,.12-.4v-.009l-.69-4.076L6.29,30l.033.023a.483.483,0,0,0,.712-.178h0l.7-1.407,1.6.621a1.534,1.534,0,0,1,.89,1.393V35.3Zm.309-5.965a2.2,2.2,0,0,0-.5-.56l.349-2.063h.307l.349,2.064A2.2,2.2,0,0,0,10.54,29.334Zm2.152,6.017h0V30.84a.309.309,0,0,0-.618,0v4.512H10.9a.052.052,0,0,1-.052-.052V30.456a1.476,1.476,0,0,1,.36-.989,1.662,1.662,0,0,1,.529-.4l1.6-.621.7,1.407h0a.483.483,0,0,0,.712.178L14.789,30l.127.191-.69,4.076v.009a.494.494,0,0,0,.12.4l.614.675H12.692Zm2.154-1.042.656-3.875h.307l.656,3.875-.809.89Z" transform="translate(0 -16.224)" fill="#141414" stroke="#141414" stroke-width="0.3"/></g></g></svg>