<svg xmlns="http://www.w3.org/2000/svg" width="24.708" height="24.707" viewBox="0 0 24.708 24.707"><g transform="translate(0.15 0.15)"><g transform="translate(0 8.295)"><path d="M16.494,180.912a.477.477,0,0,0-.477.477v3.289a2.386,2.386,0,0,1-2.384,2.384H8.487a.477.477,0,0,0-.477.476v.948l-1.138-1.138a.477.477,0,0,0-.437-.286h-3.1a2.386,2.386,0,0,1-2.384-2.384v-7.341a2.386,2.386,0,0,1,2.384-2.384H8.152a.477.477,0,0,0,0-.953H3.337A3.341,3.341,0,0,0,0,177.337v7.341a3.341,3.341,0,0,0,3.337,3.337H6.19l1.958,1.958a.477.477,0,0,0,.814-.337v-1.621h4.671a3.341,3.341,0,0,0,3.337-3.337v-3.289A.477.477,0,0,0,16.494,180.912Z" transform="translate(0 -174)" fill="#141414" stroke="#141414" stroke-width="0.3"/></g><g transform="translate(9.344)"><path d="M204.135,0h-1.206a6.929,6.929,0,1,0,0,13.857h1.206a6.942,6.942,0,0,0,1.759-.225l1.782,1.781a.477.477,0,0,0,.814-.337V12.318a7,7,0,0,0,1.821-2.245,6.854,6.854,0,0,0,.753-3.144A6.937,6.937,0,0,0,204.135,0Zm3.591,11.7a.477.477,0,0,0-.19.381v1.84L206.37,12.76a.476.476,0,0,0-.477-.118,5.977,5.977,0,0,1-1.758.263h-1.206a5.975,5.975,0,1,1,0-11.951h1.206A5.975,5.975,0,0,1,207.726,11.7Z" transform="translate(-196 0)" fill="#141414" stroke="#141414" stroke-width="0.3"/></g><g transform="translate(14.99 3.34)"><path d="M318.494,71.939a2.018,2.018,0,0,0-4.032.142.477.477,0,1,0,.953,0,1.065,1.065,0,0,1,1.141-1.062,1.065,1.065,0,0,1,.158,2.1A.9.9,0,0,0,316,74V75.15a.477.477,0,1,0,.953,0V74.043A2.008,2.008,0,0,0,318.494,71.939Z" transform="translate(-314.462 -70.063)" fill="#141414" stroke="#141414" stroke-width="0.3"/></g><g transform="translate(16.532 9.836)"><path d="M347.614,206.47a.477.477,0,1,0,.14.337A.48.48,0,0,0,347.614,206.47Z" transform="translate(-346.8 -206.33)" fill="#141414" stroke="#141414" stroke-width="0.3"/></g><g transform="translate(2.574 14.778)"><path d="M64.535,310H54.477a.477.477,0,0,0,0,.953H64.535a.477.477,0,0,0,0-.953Z" transform="translate(-54 -310)" fill="#141414" stroke="#141414" stroke-width="0.3"/></g><g transform="translate(12.633 17.447)"><path d="M265.814,366.14a.476.476,0,1,0,.14.337A.48.48,0,0,0,265.814,366.14Z" transform="translate(-265 -366)" fill="#141414" stroke="#141414" stroke-width="0.3"/></g><g transform="translate(2.574 17.447)"><path d="M62.66,366H54.477a.477.477,0,1,0,0,.953H62.66a.477.477,0,1,0,0-.953Z" transform="translate(-54 -366)" fill="#141414" stroke="#141414" stroke-width="0.3"/></g><g transform="translate(2.574 12.109)"><path d="M61.437,254h-6.96a.477.477,0,1,0,0,.953h6.96a.477.477,0,1,0,0-.953Z" transform="translate(-54 -254)" fill="#141414" stroke="#141414" stroke-width="0.3"/></g></g></svg>