<svg xmlns="http://www.w3.org/2000/svg" width="24.707" height="23.087" viewBox="0 0 24.707 23.087">
  <path id="Path_1893" data-name="Path 1893" d="M22.262,17H2.145A2.148,2.148,0,0,0,0,19.145v13.92A2.148,2.148,0,0,0,2.145,35.21H9.071l-.524,3.146h-.92a.715.715,0,1,0,0,1.43H16.78a.715.715,0,1,0,0-1.43h-.92l-.524-3.146h6.926a2.148,2.148,0,0,0,2.145-2.145V19.145A2.148,2.148,0,0,0,22.262,17ZM14.41,38.356H10l.524-3.146h3.365Zm8.567-5.291a.716.716,0,0,1-.715.715H2.145a.716.716,0,0,1-.715-.715V19.145a.716.716,0,0,1,.715-.715h9.343v.81a.715.715,0,0,0,1.43,0v-.81h9.343a.716.716,0,0,1,.715.715Z" transform="translate(0.15 -16.85)" fill="#fff" stroke="#fff" stroke-width="0.3"/>
</svg>
