<svg xmlns="http://www.w3.org/2000/svg" width="317" height="195" viewBox="0 0 317 195">
  <g id="Digital_Marketing" data-name="Digital Marketing" transform="translate(-802 -2486)">
    <g id="Group_63" data-name="Group 63" transform="translate(850 2526)">
      <path id="Path_441" data-name="Path 441" d="M894.563,732.576c-1.429,5.443-6.438,8.845-6.438,8.845s-2.691-5.424-1.262-10.867,6.438-8.845,6.438-8.845S895.992,727.133,894.563,732.576Z" transform="translate(-717.711 -588.822)" fill="#141414"/>
      <path id="Path_442" data-name="Path 442" d="M898.22,752.355c-4,3.955-4.451,9.994-4.451,9.994s6.043-.375,10.047-4.33,4.451-9.994,4.451-9.994S902.224,748.4,898.22,752.355Z" transform="translate(-723.536 -609.751)" fill="#038d08"/>
      <path id="Path_443" data-name="Path 443" d="M180.54,640.435h7.54l18.58-7.271s13.195-5.385,12.118,4.847-2.962,23.966-2.962,23.966-5.924-2.693-9.155-1.885-1.077-16.426-1.077-16.426-26.389,12.656-28.813,11.04-2.962-12.925-2.962-12.925Z" transform="translate(-150.919 -517.271)" fill="#2f2e41"/>
      <path id="Path_444" data-name="Path 444" d="M180.54,640.435h7.54l18.58-7.271s13.195-5.385,12.118,4.847-2.962,23.966-2.962,23.966-5.924-2.693-9.155-1.885-1.077-16.426-1.077-16.426-26.389,12.656-28.813,11.04-2.962-12.925-2.962-12.925Z" transform="translate(-150.919 -517.271)" fill="#141414" opacity="0.74"/>
      <path id="Path_445" data-name="Path 445" d="M238.465,558.82l9.125,13.11L268.862,589.7s19.657,4.578,16.965,7.809-19.119-3.231-19.119-3.231-24.5-17.772-25.312-19.119-9.694-14-9.694-14Z" transform="translate(-196.965 -459.269)" fill="#a0616a"/>
      <path id="Path_446" data-name="Path 446" d="M238.465,558.82l9.125,13.11L268.862,589.7s19.657,4.578,16.965,7.809-19.119-3.231-19.119-3.231-24.5-17.772-25.312-19.119-9.694-14-9.694-14Z" transform="translate(-196.965 -459.269)" opacity="0.1"/>
      <path id="Path_447" data-name="Path 447" d="M203.747,507.092l5.924,11.579s-1.346,5.655-3.5,6.193-11.31-7-11.31-7Z" transform="translate(-167.664 -418.127)" fill="#d0cde1"/>
      <path id="Path_448" data-name="Path 448" d="M203.747,507.092l5.924,11.579s-1.346,5.655-3.5,6.193-11.31-7-11.31-7Z" transform="translate(-167.664 -418.127)" opacity="0.1"/>
      <path id="Path_449" data-name="Path 449" d="M559.648,643.562l1.75,7.219a.45.45,0,0,1-.009.244l-7.938,24.807a.451.451,0,0,1-.877-.087l-1.1-9.664a.449.449,0,0,1,.019-.191l7.286-22.362a.451.451,0,0,1,.867.033Z" transform="translate(-451.293 -526.394)" fill="#2d2d2d"/>
      <path id="Path_450" data-name="Path 450" d="M499.1,575.493l1.616,6.194-7,22.619-1.616-7Z" transform="translate(-391.386 -457.715)" fill="#f2f2f2"/>
      <path id="Path_451" data-name="Path 451" d="M415.741,764.212c.269.808,28-.269,28.274-.539a5.842,5.842,0,0,0,.592-1.077c.253-.539.485-1.077.485-1.077l-1.077-8.719-27.466-.975s-.687,7.389-.827,10.771A8.093,8.093,0,0,0,415.741,764.212Z" transform="translate(-343.306 -612.774)" fill="#141414"/>
      <path id="Path_452" data-name="Path 452" d="M429.992,689.965l.538,7.54H418.413v-7.54Z" transform="translate(-332.782 -548.76)" opacity="0.1"/>
      <path id="Path_453" data-name="Path 453" d="M371.468,701.75l.072-.014-.342,3.246h-6.732V701.75Z" transform="translate(-289.877 -558.122)" opacity="0.1"/>
      <path id="Path_454" data-name="Path 454" d="M415.742,806.071c.269.808,28-.269,28.274-.539a5.845,5.845,0,0,0,.592-1.077H415.723A8.085,8.085,0,0,0,415.742,806.071Z" transform="translate(-343.306 -654.633)" opacity="0.1"/>
      <circle id="Ellipse_49" data-name="Ellipse 49" cx="12.118" cy="12.118" r="12.118" transform="translate(28.005 60.96)" fill="#a0616a"/>
      <path id="Path_455" data-name="Path 455" d="M182.386,441.53s-4.039,7-4.847,10.771-12.118-7.54-12.118-7.54l-1.481-3.9s10.637-4.982,9.829-9.021S182.386,441.53,182.386,441.53Z" transform="translate(-143.071 -357.681)" fill="#a0616a"/>
      <path id="Path_456" data-name="Path 456" d="M214.365,584.722l11.04,14.541,26.389,19.657s19.119,4.039,14.81,7-16.7-2.693-16.7-2.693-26.659-14.272-32.313-20.2-16.157-15.887-16.157-15.887Z" transform="translate(-172.896 -479.87)" fill="#a0616a"/>
      <path id="Path_457" data-name="Path 457" d="M99.092,688.725l3.231,5.116,19.285-6.067a15.163,15.163,0,0,1,12.625,1.523c3.366,2.12,5.52,5.487.673,10.468-9.694,9.963-16.157,4.578-16.157,4.578s-32.583,15.349-37.968,7.809-5.655-11.31-5.655-11.31S95.86,687.917,99.092,688.725Z" transform="translate(-72.433 -561.253)" fill="#141414"/>
      <path id="Path_458" data-name="Path 458" d="M279.712,772.669s8.617,5.655-1.616,8.348a27.111,27.111,0,0,1-17.772-1.077s-8.886,0-8.886-4.578,2.962-5.116,2.962-5.116l9.155,1.346S274.6,768.63,279.712,772.669Z" transform="translate(-212.662 -627.424)" fill="#d0cde1"/>
      <path id="Path_459" data-name="Path 459" d="M205.66,357.514a9.036,9.036,0,0,0,2.539.91,2.318,2.318,0,0,0,2.342-1,3.15,3.15,0,0,0,.266-1.425,6.344,6.344,0,0,0-1.012-4.221c-.6-.728-1.467-1.187-2.084-1.9a8.969,8.969,0,0,1-1.054-1.721c-1.2-2.255-2.978-4.422-5.448-5.072a11.813,11.813,0,0,0-3.18-.243l-6.221.088a10.833,10.833,0,0,0-2.993.322c-2,.605-3.46,2.289-4.8,3.9a24.387,24.387,0,0,0-2.75,3.8,13.318,13.318,0,0,0-1.579,6.526,6.1,6.1,0,0,0,.224,1.727,9.578,9.578,0,0,0,.679,1.491c1.167,2.292,1.859,5.154.545,7.364a14.149,14.149,0,0,0,6.046-4.107,11.324,11.324,0,0,1,2.1-2.537c.9-.641,2.36-.7,2.936.244a2.632,2.632,0,0,1,.3,1.233,5.649,5.649,0,0,0,.34,2.08,1.559,1.559,0,0,0,1.693.966c1.172-.33,1.06-2.13,1.963-2.947.686-.621,1.744-.5,2.625-.784a3.9,3.9,0,0,0,2.236-2.2c.334-.748.329-2.706.96-3.111C203.126,356.379,204.927,357.187,205.66,357.514Z" transform="translate(-155.597 -287.485)" fill="#2f2e41"/>
      <path id="Path_460" data-name="Path 460" d="M81.875,472.142a3.2,3.2,0,0,1,1.663,0c1.729.464,5.6,1.693,6.434,3.562,1.077,2.424,4.847,6.193,4.847,6.193s5.116,5.116,4.039,8.617-5.116,7.54-5.116,7.54,1.077,16.7-4.308,21-7.54,1.346-7.54,5.386-16.7,16.7-19.927,8.886c0,0,1.616-14.541,1.077-19.657C62.514,508.634,63.291,477.173,81.875,472.142Z" transform="translate(-61.968 -390.244)" fill="#d0cde1"/>
      <path id="Path_461" data-name="Path 461" d="M152.587,503.028s16.426,12.118,13.464,17.234c0,0-9.963,4.847-12.118,4.578s-10.5-9.694-12.656-10.5S138.046,498.989,152.587,503.028Z" transform="translate(-124.044 -414.332)" fill="#d0cde1"/>
      <circle id="Ellipse_50" data-name="Ellipse 50" cx="13.303" cy="13.303" r="13.303" transform="translate(88.629 35.294)" fill="#f2f2f2"/>
      <path id="Path_462" data-name="Path 462" d="M807.2,164.806H732.649v-15.6H807.2Zm-74.218-.328h73.889V149.535H732.977Z" transform="translate(-595.39 -133.485)" fill="#3f3d56"/>
      <rect id="Rectangle_151" data-name="Rectangle 151" width="74.217" height="15.27" transform="translate(132.168 18.842)" fill="#038d08"/>
      <circle id="Ellipse_51" data-name="Ellipse 51" cx="1.149" cy="1.149" r="1.149" transform="translate(84.103 1.97)" fill="#038d08"/>
      <circle id="Ellipse_52" data-name="Ellipse 52" cx="1.149" cy="1.149" r="1.149" transform="translate(88.044 1.97)" fill="#038d08"/>
      <circle id="Ellipse_53" data-name="Ellipse 53" cx="1.149" cy="1.149" r="1.149" transform="translate(91.984 1.97)" fill="#038d08"/>
      <path id="Path_463" data-name="Path 463" d="M600.741,162.366H462.487V72.386H600.741Zm-137.926-.328h137.6V72.714h-137.6Z" transform="translate(-380.519 -72.386)" fill="#3f3d56"/>
      <rect id="Rectangle_152" data-name="Rectangle 152" width="137.926" height="0.328" transform="translate(82.133 4.981)" fill="#3f3d56"/>
      <path id="Path_464" data-name="Path 464" d="M475.033,81.432a1.314,1.314,0,1,1,1.314-1.314,1.314,1.314,0,0,1-1.314,1.314Zm0-2.3a.985.985,0,1,0,.985.985.985.985,0,0,0-.985-.985Z" transform="translate(-389.452 -77.491)" fill="#3f3d56"/>
      <path id="Path_465" data-name="Path 465" d="M494.288,81.432a1.314,1.314,0,1,1,1.314-1.314,1.314,1.314,0,0,1-1.314,1.314Zm0-2.3a.985.985,0,1,0,.985.985.985.985,0,0,0-.985-.985Z" transform="translate(-404.767 -77.491)" fill="#3f3d56"/>
      <path id="Path_466" data-name="Path 466" d="M513.544,81.432a1.314,1.314,0,1,1,1.313-1.314A1.314,1.314,0,0,1,513.544,81.432Zm0-2.3a.985.985,0,1,0,.985.985.985.985,0,0,0-.985-.985Z" transform="translate(-420.081 -77.491)" fill="#3f3d56"/>
      <rect id="Rectangle_153" data-name="Rectangle 153" width="0.328" height="84.798" transform="translate(125.272 5.145)" fill="#3f3d56"/>
      <rect id="Rectangle_154" data-name="Rectangle 154" width="24.137" height="3.284" transform="translate(140.953 46.837)" fill="#f2f2f2"/>
      <rect id="Rectangle_155" data-name="Rectangle 155" width="24.137" height="3.284" transform="translate(178.883 46.837)" fill="#f2f2f2"/>
      <path id="Path_467" data-name="Path 467" d="M780.782,296.032H756.317V292.42h24.465Zm-24.137-.328h23.809v-2.956H756.646Z" transform="translate(-614.215 -247.389)" fill="#3f3d56"/>
      <rect id="Rectangle_156" data-name="Rectangle 156" width="24.137" height="3.284" transform="translate(140.953 72.288)" fill="#f2f2f2"/>
      <path id="Path_468" data-name="Path 468" d="M780.782,420.39H756.317v-3.612h24.465Zm-24.137-.328h23.809v-2.956H756.646Z" transform="translate(-614.215 -346.296)" fill="#3f3d56"/>
      <rect id="Rectangle_157" data-name="Rectangle 157" width="62.067" height="3.284" transform="translate(141.035 59.234)" fill="#f2f2f2"/>
      <path id="Path_469" data-name="Path 469" d="M819.114,358.211h-62.4V354.6h62.4Zm-62.067-.328h61.738v-2.956H757.047Z" transform="translate(-614.534 -296.843)" fill="#3f3d56"/>
      <path id="Path_470" data-name="Path 470" d="M966.115,296.032H941.651V292.42h24.464Zm-24.137-.328h23.809v-2.956H941.979Z" transform="translate(-761.619 -247.389)" fill="#3f3d56"/>
      <path id="Path_471" data-name="Path 471" d="M518.539,252.859a13.507,13.507,0,1,1,13.507-13.507A13.507,13.507,0,0,1,518.539,252.859Zm0-26.605a13.1,13.1,0,1,0,13.1,13.1A13.1,13.1,0,0,0,518.539,226.253Z" transform="translate(-414.357 -194.438)" fill="#3f3d56"/>
      <rect id="Rectangle_158" data-name="Rectangle 158" width="57.918" height="0.409" transform="translate(153.095 152.357)" fill="#3f3d56"/>
    </g>
    <rect id="Rectangle_357" data-name="Rectangle 357" width="317" height="195" transform="translate(802 2486)" fill="none"/>
  </g>
</svg>
