<svg xmlns="http://www.w3.org/2000/svg" xmlns:xlink="http://www.w3.org/1999/xlink" width="317" height="195" viewBox="0 0 317 195">
  <defs>
    <linearGradient id="linear-gradient" x1="0.5" y1="1" x2="0.5" gradientUnits="objectBoundingBox">
      <stop offset="0" stop-color="gray" stop-opacity="0.251"/>
      <stop offset="0.54" stop-color="gray" stop-opacity="0.122"/>
      <stop offset="1" stop-color="gray" stop-opacity="0.102"/>
    </linearGradient>
  </defs>
  <g id="Group_214" data-name="Group 214" transform="translate(-802 -1459)">
    <path id="Path_714" data-name="Path 714" d="M834.217,778.287a8.465,8.465,0,0,1-5.449.806c-.315-.035-.652-.057-.844.173-.277.337.05.828.387,1.1a8.107,8.107,0,0,0,3.745,1.54,25.351,25.351,0,0,0,3.66.242,62.025,62.025,0,0,0,10-.368,1.351,1.351,0,0,0,.545-.161,1.011,1.011,0,0,0,.413-.63,2.484,2.484,0,0,0-.866-2.378,7.539,7.539,0,0,0-2.334-1.26l-2.9-1.131a7.493,7.493,0,0,0-2.52-.916C836.7,775.414,835.37,777.613,834.217,778.287Z" transform="translate(210.235 865.957)" fill="#141414"/>
    <path id="Path_715" data-name="Path 715" d="M834.217,778.287a8.465,8.465,0,0,1-5.449.806c-.315-.035-.652-.057-.844.173-.277.337.05.828.387,1.1a8.107,8.107,0,0,0,3.745,1.54,25.351,25.351,0,0,0,3.66.242,62.025,62.025,0,0,0,10-.368,1.351,1.351,0,0,0,.545-.161,1.011,1.011,0,0,0,.413-.63,2.484,2.484,0,0,0-.866-2.378,7.539,7.539,0,0,0-2.334-1.26l-2.9-1.131a7.493,7.493,0,0,0-2.52-.916C836.7,775.414,835.37,777.613,834.217,778.287Z" transform="translate(210.235 865.957)" fill="#141414" opacity="0.05"/>
    <path id="Path_720" data-name="Path 720" d="M860.259,776.093a7.169,7.169,0,0,1-4.876,1.817c-.457,0-1.09.088-1.093.545a.73.73,0,0,0,.132.378,4.482,4.482,0,0,0,2.52,1.972,8.952,8.952,0,0,0,3.043.2l2.977-.154c.561-.031,1.124-.06,1.685-.129s1.165-.186,1.751-.271a22.915,22.915,0,0,1,4.334-.2,1.287,1.287,0,0,0,1.068-.29c.239-.29.11-.813.022-1.232-.176-.863,0-1.767-.164-2.633a4.636,4.636,0,0,0-3.036-3.235c-1.339-.51-3.714-1.093-4.983-.246C862.278,773.52,861.459,775.007,860.259,776.093Z" transform="translate(192.102 868.097)" fill="#141414"/>
    <path id="Path_763" data-name="Path 763" d="M294.467,772.135a4.2,4.2,0,0,0,1.776.214c.044-.491.706-.6,1.2-.576a1.367,1.367,0,0,1,.684.158c.123.079.217.192.337.274a1.457,1.457,0,0,0,.7.18l2.558.214a7.7,7.7,0,0,0,3.4-.221,1.172,1.172,0,0,0,.545-.365c.29-.416,0-1.011-.4-1.313s-.917-.438-1.32-.747c-.888-.677-1.011-1.943-1.48-2.958a8.729,8.729,0,0,0-1.225-1.773,6.809,6.809,0,0,0-1.206-1.238,6.372,6.372,0,0,0-3.411-.832,2.285,2.285,0,0,0-2.262.63c-.756.945-.454,2.835-.406,3.937A28.494,28.494,0,0,0,294.467,772.135Z" transform="translate(576.019 874.307)" fill="#141414"/>
    <path id="Path_764" data-name="Path 764" d="M294.467,772.135a4.2,4.2,0,0,0,1.776.214c.044-.491.706-.6,1.2-.576a1.367,1.367,0,0,1,.684.158c.123.079.217.192.337.274a1.457,1.457,0,0,0,.7.18l2.558.214a7.7,7.7,0,0,0,3.4-.221,1.172,1.172,0,0,0,.545-.365c.29-.416,0-1.011-.4-1.313s-.917-.438-1.32-.747c-.888-.677-1.011-1.943-1.48-2.958a8.729,8.729,0,0,0-1.225-1.773,6.809,6.809,0,0,0-1.206-1.238,6.372,6.372,0,0,0-3.411-.832,2.285,2.285,0,0,0-2.262.63c-.756.945-.454,2.835-.406,3.937A28.494,28.494,0,0,0,294.467,772.135Z" transform="translate(576.019 874.307)" fill="#141414" opacity="0.05"/>
    <path id="Path_768" data-name="Path 768" d="M286.873,779.06a4.267,4.267,0,0,0,1.78.211c.044-.491.7-.6,1.194-.576a1.367,1.367,0,0,1,.684.157c.123.079.217.2.34.274a1.425,1.425,0,0,0,.7.18l2.554.214a7.666,7.666,0,0,0,3.4-.22,1.14,1.14,0,0,0,.542-.365c.29-.416,0-1.008-.4-1.31s-.917-.441-1.317-.75c-.891-.677-1.011-1.94-1.484-2.954a8.52,8.52,0,0,0-1.222-1.776,6.806,6.806,0,0,0-1.21-1.235,6.336,6.336,0,0,0-3.408-.835,2.288,2.288,0,0,0-2.262.63c-.756.945-.454,2.835-.409,3.94A28.541,28.541,0,0,0,286.873,779.06Z" transform="translate(581.219 869.565)" fill="#141414"/>
    <g id="Group_181" data-name="Group 181" transform="translate(847.617 1480.949)">
      <path id="Path_686" data-name="Path 686" d="M748,276.89l.069.12c-6.419,8.016-6.845,20.474-6.86,20.571l-1.354-1.575C739.866,295.905,741.532,284.963,748,276.89Z" transform="translate(-577.121 -273.57)" fill="#444053"/>
      <path id="Path_691" data-name="Path 691" d="M771.8,313.02s-3.465-7.276-.381-12.01" transform="translate(-597.871 -290.093)" fill="none" stroke="#444053" stroke-miterlimit="10" stroke-width="1"/>
      <path id="Path_704" data-name="Path 704" d="M749.421,266.57s0,6.693-1.821,7.169" transform="translate(-582.43 -266.501)" fill="none" stroke="#444053" stroke-miterlimit="10" stroke-width="1"/>
      <path id="Path_705" data-name="Path 705" d="M706.09,287.325s7.245.63,10.574-3.115" transform="translate(-553.994 -278.584)" fill="none" stroke="#444053" stroke-miterlimit="10" stroke-width="1"/>
      <rect id="Rectangle_201" data-name="Rectangle 201" width="121.015" height="61.087" transform="translate(57.668 14.694)" fill="#2d2d2d"/>
      <path id="Path_1388" data-name="Path 1388" d="M0,0H196.792V40.21H0Z" transform="translate(19.971 94.339)" fill="#2d2d2d"/>
      <path id="Path_710" data-name="Path 710" d="M378.424,510.35h100.91l20.105,67.661H357.16Z" transform="translate(-311.477 -405.96)" fill="#fff"/>
      <path id="Path_711" data-name="Path 711" d="M257.73,402.33v64.18h37.7V429.4H428.039V466.51h37.7V402.33Z" transform="translate(-243.365 -331.964)" fill="#141414"/>
      <rect id="Rectangle_203" data-name="Rectangle 203" width="208.006" height="20.877" transform="translate(14.365 70.366)" fill="#141414" opacity="0.1"/>
      <ellipse id="Ellipse_98" data-name="Ellipse 98" cx="3.093" cy="3.093" rx="3.093" ry="3.093" transform="translate(208.067 77.715)" fill="#8ccf4d" opacity="0.8"/>
      <ellipse id="Ellipse_99" data-name="Ellipse 99" cx="3.093" cy="3.093" rx="3.093" ry="3.093" transform="translate(194.148 77.715)" fill="#fa5959" opacity="0.8"/>
      <rect id="Rectangle_204" data-name="Rectangle 204" width="112.123" height="66.498" transform="translate(62.116)" fill="#fff"/>
      <path id="Path_712" data-name="Path 712" d="M787.966,565.133c.236,2.573-1.707,5.071-1.14,7.591.12.538.353,1.049.438,1.575.233,1.5-.658,2.914-1.512,4.167l-7.317,10.766a6.677,6.677,0,0,1-1.046,1.292c-1.4,1.26-3.5,1.115-5.336,1.487a9.156,9.156,0,0,0-3.575,1.575.233.233,0,0,0-.047.315,3.078,3.078,0,0,0,2.658,1.26c.192.252,0,.63-.265.806-.394.271-.945.343-1.011,1.011a1.109,1.109,0,0,0,.132.671,2.082,2.082,0,0,0,1.282.888c2.52.775,5.27-.586,7.166-2.438s3.257-4.189,5.119-6.076c1.03-1.042,2.2-1.937,3.263-2.948a36.635,36.635,0,0,0,5.355-6.93,7.621,7.621,0,0,0,1.159-2.359c.2-.838.107-1.723.334-2.554a9.437,9.437,0,0,1,1.754-2.866,9.47,9.47,0,0,0,1.994-6.18,5.918,5.918,0,0,0-3.613-5.125,3.241,3.241,0,0,0-2.025-.123,4.8,4.8,0,0,0-2.063,1.641l-1.389,1.6a3.87,3.87,0,0,0-.81,1.232,1.282,1.282,0,0,0,.287,1.367" transform="translate(-596.671 -468.075)" fill="#fbbebe"/>
      <path id="Path_713" data-name="Path 713" d="M787.966,565.133c.236,2.573-1.707,5.071-1.14,7.591.12.538.353,1.049.438,1.575.233,1.5-.658,2.914-1.512,4.167l-7.317,10.766a6.677,6.677,0,0,1-1.046,1.292c-1.4,1.26-3.5,1.115-5.336,1.487a9.156,9.156,0,0,0-3.575,1.575.233.233,0,0,0-.047.315,3.078,3.078,0,0,0,2.658,1.26c.192.252,0,.63-.265.806-.394.271-.945.343-1.011,1.011a1.109,1.109,0,0,0,.132.671,2.082,2.082,0,0,0,1.282.888c2.52.775,5.27-.586,7.166-2.438s3.257-4.189,5.119-6.076c1.03-1.042,2.2-1.937,3.263-2.948a36.635,36.635,0,0,0,5.355-6.93,7.621,7.621,0,0,0,1.159-2.359c.2-.838.107-1.723.334-2.554a9.437,9.437,0,0,1,1.754-2.866,9.47,9.47,0,0,0,1.994-6.18,5.918,5.918,0,0,0-3.613-5.125,3.241,3.241,0,0,0-2.025-.123,4.8,4.8,0,0,0-2.063,1.641l-1.389,1.6a3.87,3.87,0,0,0-.81,1.232,1.282,1.282,0,0,0,.287,1.367" transform="translate(-596.671 -468.075)" opacity="0.05"/>
      <path id="Path_716" data-name="Path 716" d="M849.763,626.428c-1.206,1.61-2.46,3.465-2.161,5.459a12.135,12.135,0,0,0,1.2,3.014,21.24,21.24,0,0,1,1.219,4.233c.454,2.107.907,4.221,1.184,6.359.315,2.416-1.165,9.405-1.3,11.84a2.5,2.5,0,0,1-.51,1.644c-.161.167-.375.315-.444.52a.873.873,0,0,0,.095.611,6.778,6.778,0,0,0,3.629,3.339,28.783,28.783,0,0,0,7,1.839,1.325,1.325,0,0,0,.658-.088,1.259,1.259,0,0,0,.51-.583c1.216-2.321.047-10.586.066-13.21,0-2.2.532-4.359.438-6.545-.079-1.754-.548-3.465-.718-5.216a30.739,30.739,0,0,1,.775-8.583c.4-2.17.806-4.344,1.323-6.492a12.513,12.513,0,0,1,1.4-3.78c.57-.9,1.345-1.657,2-2.52a11.339,11.339,0,0,0,2.233-8.309c-.038-.29-4.2,1.055-4.558,1.213a14.269,14.269,0,0,0-4.06,2.614,36.936,36.936,0,0,0-2.561,3.165q-1.786,2.174-3.525,4.381Q851.682,623.871,849.763,626.428Z" transform="translate(-650.903 -501.703)" fill="#2d2d2d"/>
      <ellipse id="Ellipse_100" data-name="Ellipse 100" cx="6.781" cy="6.781" rx="6.781" ry="6.781" transform="translate(178.633 75.724)" fill="#fbbebe"/>
      <path id="Path_718" data-name="Path 718" d="M817.163,524.571a8.8,8.8,0,0,0,5.629,3.937l-.51,1.849c-.882,3.191-1.89,6.564-4.337,8.775a4.109,4.109,0,0,0-.69-3.172,12.166,12.166,0,0,0-2.3-2.406l-3.9-3.4a1.165,1.165,0,0,1-.293-.315,1.011,1.011,0,0,1,0-.743c.5-1.547,1.918-2.52,3.068-3.559a10.906,10.906,0,0,0,1.543-1.8C816.167,522.63,816.649,523.742,817.163,524.571Z" transform="translate(-625.644 -442.349)" fill="#fbbebe"/>
      <path id="Path_719" data-name="Path 719" d="M779.78,494.843l-.151-1.26c1.071.277,2.085-.63,2.769-1.575s1.32-2.054,2.362-2.444c1.26-.479,2.608.287,3.817.917a12.09,12.09,0,0,0,4.385,1.433,2.837,2.837,0,0,1,.724.12,2.5,2.5,0,0,1,1.276,2.164,8.346,8.346,0,0,0,.473,2.649c.293.6.8,1.055,1.109,1.651.828,1.606.028,3.8.9,5.374l-2.173-1.994c-.2-.183-.482-.372-.7-.217s-.186.387-.258.6a1.137,1.137,0,0,1-1.547.564,4.235,4.235,0,0,1-1.383-1.26,8.415,8.415,0,0,0-3.465-2.614,4.429,4.429,0,0,0-3.651.217c-1.014.573-1.758,1.909-3,1.956-1.7.063-2.413-3.109-3.2-4.362a1.543,1.543,0,0,0,.447-1.925C778.656,494.78,779.758,494.638,779.78,494.843Z" transform="translate(-603.302 -419.153)" fill="#2d2d2d"/>
      <path id="Path_721" data-name="Path 721" d="M869.559,609.505c.265,1.26,1.471,2.2,1.509,3.465a5.458,5.458,0,0,1-1.225,2.756,18.269,18.269,0,0,0-1.26,2.835,43.342,43.342,0,0,1-3.679,7.292c-.7,1.106-1.48,2.309-1.32,3.61a5.414,5.414,0,0,0,.63,1.726l2.095,4.161a11.975,11.975,0,0,1,1.071,2.63c.179.791.2,1.61.315,2.416.331,2.551,1.528,5.122.822,7.594-.063.214-.283.473-.45.315a7.856,7.856,0,0,1,1.194,4.06,5.584,5.584,0,0,0,.022,2.287,2.484,2.484,0,0,1,.315.9c0,.208-.1.406-.12.63a1.347,1.347,0,0,0,1.046,1.26c.564.179,1.172.173,1.739.343,1.093.315,1.868,1.26,2.8,1.915a5.893,5.893,0,0,0,3.219,1.049.806.806,0,0,0,.472-.095.768.768,0,0,0,.265-.576,3.193,3.193,0,0,0-1.153-2.775,1.283,1.283,0,0,1-.425-.447,1.072,1.072,0,0,1-.041-.5,37.385,37.385,0,0,0-.123-6.873,10.39,10.39,0,0,1-.11-2.186,8.483,8.483,0,0,0,.176-1.821,9.73,9.73,0,0,0-.557-1.742,12.514,12.514,0,0,1-.268-3.244,28.283,28.283,0,0,0-.92-5.581,4.175,4.175,0,0,0-.869-2.016c-.435-.454-1.137-.891-.973-1.5a1.732,1.732,0,0,1,.4-.6,2.391,2.391,0,0,0,.5-1.824.813.813,0,0,0,.945-.441,14.665,14.665,0,0,0,7.371-8.382,2.788,2.788,0,0,1,.315-.747,3.406,3.406,0,0,1,1.348-.876,10.233,10.233,0,0,0,3.547-3.613,8.39,8.39,0,0,0,1.367-2.624,8.6,8.6,0,0,0,.189-1.89l.085-3.282a1.762,1.762,0,0,0-.063-.63,1.522,1.522,0,0,0-.353-.52,6.323,6.323,0,0,0-3.465-1.89c-.895-.161-1.808-.129-2.712-.2-1.755-.145-3.487-.687-5.241-.561a8.385,8.385,0,0,0-6.514,4.555C871.017,608.746,870.538,609.505,869.559,609.505Z" transform="translate(-661.867 -497.168)" fill="#2d2d2d"/>
      <path id="Path_722" data-name="Path 722" d="M827.38,539.375a3.6,3.6,0,0,1-.2,1.493,1.045,1.045,0,0,1-1.225.63c.142-.315-.236-.69-.586-.649a1.09,1.09,0,0,0-.775.658,2.443,2.443,0,0,0-.224,1.515,6.125,6.125,0,0,1,.384,1.89c-.079.535-.473,1.071-.261,1.575a2.552,2.552,0,0,0,.5.6,1.707,1.707,0,0,1-.18,2.347l5.285.1a3.733,3.733,0,0,0,.655,2.573,16.209,16.209,0,0,0,12.079,7.875,1.055,1.055,0,0,0-.252,1.609,1.489,1.489,0,0,0,1.695.095,12.41,12.41,0,0,0,1.455-1.087,4.444,4.444,0,0,1,2.986-.806c.661.063,1.3.277,1.969.315,1.959.1,3.641-1.3,5.515-1.89,1.373-.422,2.926-.422,4.095-1.279a1.625,1.625,0,0,0,.759-1.575,2.61,2.61,0,0,0-.57-.926,15.693,15.693,0,0,1-1.528-2.863,17.16,17.16,0,0,0-3.821-5.115,34.308,34.308,0,0,0-3.78-2.876,6.659,6.659,0,0,0-1.027-.63,10.749,10.749,0,0,1-1.4-.57,7.113,7.113,0,0,1-1.455-1.638c-1.049-1.222-2.658-1.786-3.95-2.747a9.691,9.691,0,0,0-2.665-1.8c-.5-.151-1.036-.164-1.54-.315-1.14-.346-1.972-1.361-3.093-1.77a13.138,13.138,0,0,0-2.8-.356,6.476,6.476,0,0,1-2.876-1.093,3.465,3.465,0,0,0-.945-.542c-1.414-.432-1.531,2.2-1.663,3.121A28.143,28.143,0,0,0,827.38,539.375Z" transform="translate(-634.995 -448.38)" fill="#d0cde1"/>
      <path id="Path_723" data-name="Path 723" d="M795.806,573.925c.236,2.573-1.707,5.068-1.14,7.591.12.539.353,1.049.438,1.575.236,1.5-.658,2.914-1.512,4.164L786.274,598a6.684,6.684,0,0,1-1.046,1.291c-1.4,1.26-3.5,1.115-5.336,1.487a9.181,9.181,0,0,0-3.575,1.575.233.233,0,0,0-.047.315,3.068,3.068,0,0,0,2.658,1.26c.192.255,0,.63-.265.806-.394.274-.945.346-1.011,1.014a1.108,1.108,0,0,0,.132.671,2.094,2.094,0,0,0,1.282.888c2.52.775,5.27-.586,7.166-2.438s3.257-4.189,5.121-6.076c1.03-1.043,2.2-1.937,3.26-2.948a37.161,37.161,0,0,0,5.355-6.93,7.655,7.655,0,0,0,1.159-2.359c.2-.838.107-1.723.334-2.555a9.4,9.4,0,0,1,1.754-2.866,9.47,9.47,0,0,0,1.994-6.18,5.919,5.919,0,0,0-3.613-5.125,3.219,3.219,0,0,0-2.025-.123,4.823,4.823,0,0,0-2.063,1.641l-1.389,1.6a3.809,3.809,0,0,0-.806,1.232,1.276,1.276,0,0,0,.283,1.364" transform="translate(-602.042 -474.08)" fill="#fbbebe"/>
      <path id="Path_724" data-name="Path 724" d="M839.844,549.589a4.019,4.019,0,0,0-2.7.838,3.888,3.888,0,0,0-.68,1.065,10.648,10.648,0,0,0-1.348,4.246,20.046,20.046,0,0,0,.488,3.55,13.02,13.02,0,0,1-.315,2.98,20.714,20.714,0,0,0,3.852-1.48,12.752,12.752,0,0,1,2.252-1.172c1.15-.381,3.081.274,4.164.813.06-.768-.513-2.1-.454-2.869a3.246,3.246,0,0,1,.17-.945,5.812,5.812,0,0,1,.576-.917,3.755,3.755,0,0,0-.337-4.41,6.054,6.054,0,0,0-3.931-1.666,17.041,17.041,0,0,0-2.747-.1" transform="translate(-642.376 -460.317)" fill="#9c9ba5"/>
      <path id="Path_725" data-name="Path 725" d="M287.185,371.42l-6.211-9.008a8.491,8.491,0,0,0-.523-2.75c-.406-.52-.088-1.679-.088-1.679s.438-.63.06-.7-.06-1.477-.06-1.477l-.028-2.258a7.923,7.923,0,0,0,.06-2.693.854.854,0,0,1,.028-.929s.346-1.244,0-1.575-.261-2.258-.176-3.8a5.765,5.765,0,0,0-.608-2.633c0-.23-2.293-2.491-2.293-2.7a5.566,5.566,0,0,0-2.325-1.26c-.873-.217-1.3-.406-1.276-.523s-1.364-.576-1.364-.576a2.755,2.755,0,0,1-1.685-.7c-.466-.608-1.89-.784-1.924-.791l-.028-.12a.654.654,0,0,0-.025-.132,6.085,6.085,0,0,0,.315-.567l.082-.176a2.463,2.463,0,0,0,1.427-.444,1.931,1.931,0,0,0,.7-1.389,3.036,3.036,0,0,0-.34-1.543,2.585,2.585,0,0,1-.5-1.628c.057-.243.2-.457.277-.7a1.839,1.839,0,0,0-.208-1.373c-.221-.419-.526-.791-.772-1.2a4.724,4.724,0,0,1-.614-1.695,2.609,2.609,0,0,0-.224-.923,1.722,1.722,0,0,0-.51-.513,5.1,5.1,0,0,0-3.121-.945,15.265,15.265,0,0,1-2.362.142,8.471,8.471,0,0,1-1.38-.359,3.558,3.558,0,0,0-2.945.151c-.847.558-1.184,1.654-1.761,2.52a18.316,18.316,0,0,0-1.638,2.2v-.044a2.639,2.639,0,0,0-.217.583,4.152,4.152,0,0,0,.129,1.921,1.336,1.336,0,0,0,.469.857,2.71,2.71,0,0,0,1.014.2l-.038.164a6.63,6.63,0,0,0,4.6,7.711v.176a4.226,4.226,0,0,1-.031.5h0s-2.92-.6-3.7-.2-2.321.724-2.554.945-.813.06-1.335,1.421-.58,2.75-1.26,3.389-1.014,1.071-1.046,1.534.088.58-.173.724-.63.753-.523.986a.822.822,0,0,1-.315.866.964.964,0,0,0-.406.869s-.176.63-.583.784-.668,1.1-.668,1.1l-1.317,1.512-2.608-2.885a1.1,1.1,0,0,0-1.553-.079l-1.282,1.153a2.539,2.539,0,0,0-1.282.762,3.415,3.415,0,0,0-.665.989l-.7.63a1.786,1.786,0,0,0-.183,1.969l1.673,1.849v.016a2.961,2.961,0,0,0-1.616.658c-2.495,2.2-2.52,4.23-2.148,5.156a38.115,38.115,0,0,0,3.54,4.488,14.131,14.131,0,0,0,4.495,3.66h0l-.019.022a2.187,2.187,0,0,0-.154.18l-.044.057-.041.057-.047.069a.545.545,0,0,0-.035.057l-.05.082a.511.511,0,0,0-.031.057c-.022.038-.041.076-.06.113a.412.412,0,0,0-.019.038c-.025.05-.05.1-.072.157l-.025.057c-.016.038-.028.076-.044.117a.71.71,0,0,0-.025.076l-.038.113a.622.622,0,0,0-.025.082.689.689,0,0,1-.035.126c-.009.044-.016.05-.022.079s-.032.135-.044.208a.159.159,0,0,1-.016.082.75.75,0,0,0-.025.148.4.4,0,0,0,0,.107l-.019.142v.113a.59.59,0,0,1-.016.164c-.016.057,0,.066,0,.1v.28a16.04,16.04,0,0,0,.142,3.881,1.89,1.89,0,0,0,1.54,1.156,1.921,1.921,0,0,0,.495-.025c1.512-.261,5.04-.869,6.3-.63a10.831,10.831,0,0,0,3.131-.255l.261-.05.18.576.573-.157.488.28.315.18c.573,1.94,2.9,1.279,2.9,1.279l.551.315,5.6.145a11.244,11.244,0,0,0,1.984.945,1.525,1.525,0,0,0,.28.063,12.476,12.476,0,0,0,1.575.028c.428,0,.759-.028.759-.028s-.057-1.521-.139-3.225a45.707,45.707,0,0,0,5.191-.425c2.992-.523,4.24-3.244,4.7-4.7a13.735,13.735,0,0,1,.293,1.8,13.1,13.1,0,0,0,.466,1.575,5.252,5.252,0,0,0,.63,1.159c2.2-.753.869-1.89.406-2.375s.315-.9.315-.9.611-.406.551-.781-.088-.781,1.89-.753S287.185,371.42,287.185,371.42Zm-30.654-18.492a15.031,15.031,0,0,0,.548,2.419,3.147,3.147,0,0,1,.066.945c-1.169-.095-2.388-.145-2.388-.145a.3.3,0,0,1,.063.148l-.186-.041-.265-.063,2.154-3.279Zm-4.271,6.791,2.025.315.17.025a6.618,6.618,0,0,0-.1.945c0,.031.044.066.11.107a2.5,2.5,0,0,0-.038.482,5.618,5.618,0,0,0,2.063.791c-.016.06-.028.117-.044.167h0c-.961-.5-2.469-.74-2.643-1.115s-5.314-2.17-5.314-2.17l-.51-.255,1.351.255.372-.038A20.078,20.078,0,0,0,252.26,359.718Z" transform="translate(-232.417 -304.184)" fill="url(#linear-gradient)"/>
      <path id="Path_726" data-name="Path 726" d="M296.578,460.152s-.8,4.863-4.888,5.581-17.724.576-17.724.576-7.8-1.124-10.618-7.711-4.633-9.21-2.2-9.323,15.453,4.41,16.2,4.46S297.3,443.722,296.578,460.152Z" transform="translate(-248.419 -391.656)" fill="#65617d"/>
      <path id="Path_727" data-name="Path 727" d="M296.578,460.152s-.8,4.863-4.888,5.581-17.724.576-17.724.576-7.8-1.124-10.618-7.711-4.633-9.21-2.2-9.323,15.453,4.41,16.2,4.46S297.3,443.722,296.578,460.152Z" transform="translate(-248.419 -391.656)" fill="#2d2d2d"/>
      <path id="Path_728" data-name="Path 728" d="M259.683,484.957a1.862,1.862,0,0,0,1.524,1.15,2.085,2.085,0,0,0,.495-.028c1.5-.258,5.005-.863,6.243-.63a10.834,10.834,0,0,0,3.1-.252c.652-.123,1.131-.239,1.131-.239s-1.153-3.827-1.295-3.94-5.181-3.15-5.181-3.15l-3.988-.287h0a2.107,2.107,0,0,0-1.354.794,4.269,4.269,0,0,0-.806,2.715A15.872,15.872,0,0,0,259.683,484.957Z" transform="translate(-248.096 -411.047)" fill="#141414"/>
      <path id="Path_729" data-name="Path 729" d="M259.707,485a1.862,1.862,0,0,0,1.524,1.15,16.937,16.937,0,0,1-1.084-1.575l.022-2.791a4.926,4.926,0,0,1,1.575-4.142h0s-2.1.142-2.161,3.509A16.956,16.956,0,0,0,259.707,485Z" transform="translate(-248.12 -411.088)" opacity="0.05"/>
      <path id="Path_730" data-name="Path 730" d="M309.882,462.624l3.714-2.907,5.84-5.755-1.575-.072c-.236.151-.9.63-.923,1.2-.028.7-1.575.05-2.384.45s-4.747,5.449-5.437,5.414-1.238-.35-1.528.142l-.019.031Z" transform="translate(-281 -394.819)" opacity="0.1"/>
      <path id="Path_731" data-name="Path 731" d="M262.11,478.366c.132.063.268.126.4.183a25.568,25.568,0,0,1,6.561,4.2,27.368,27.368,0,0,0,3.732,2.425c.652-.123,1.131-.239,1.131-.239s-1.153-3.827-1.295-3.94-5.181-3.15-5.181-3.15l-3.988-.287h0a2.107,2.107,0,0,0-1.364.806Z" transform="translate(-249.859 -411.033)" opacity="0.1"/>
      <path id="Path_732" data-name="Path 732" d="M236.894,441.28a38.253,38.253,0,0,0,3.509,4.46,13.586,13.586,0,0,0,4.807,3.78,24.9,24.9,0,0,1,6.558,4.2,30.3,30.3,0,0,0,4,2.58l.356.208.784.457.416.236s.964-.772,1.925-1.55,1.89-1.54,1.89-1.575.4-1.065.315-1.121-.242-.428-.608-.891a4.057,4.057,0,0,0-1.465-1.21,4.173,4.173,0,0,1-1.89-1.981s-.126-.091-.315-.214a3.9,3.9,0,0,0-1.291-.576c-.63-.079-1.814-1.373-1.814-1.373a3.521,3.521,0,0,1-1.121-1.178c-.315-.63-4.766-3.7-5.178-3.981l10.816,6.948,2.589,1.663,3.714-2.9,5.84-5.755-1.928-.088c-2.835-.123-7.875-.315-8.5-.17a4.944,4.944,0,0,1-1.575.1,5.577,5.577,0,0,1-2.387-.438c-.951-.5-2.447-.737-2.621-1.109s-5.263-2.154-5.263-2.154-6.93-3.682-9.408-1.5S236.519,440.354,236.894,441.28Z" transform="translate(-232.467 -382.193)" fill="#2d2d2d"/>
      <path id="Path_733" data-name="Path 733" d="M308.24,368.347l.891,2.964,1.153,6.674,4.23.287,1.21-2.016,1.222-2.028s.762-2.7,1.31-5.3c.482-2.309.8-4.551.274-4.794-.469-.214-.775-.992-.976-1.83-.025-.1-.047-.208-.066-.315a16.6,16.6,0,0,1-.283-2.145s-8.86-.46-7.622,3.194a5.829,5.829,0,0,1,.334,1.943,2.545,2.545,0,0,1-.031.495A4.142,4.142,0,0,1,308.24,368.347Z" transform="translate(-281.459 -330.38)" fill="#ee8e9e"/>
      <path id="Path_734" data-name="Path 734" d="M302.4,380.141l.315,5.04.718,4.287.806,1.988.721,10.86s6.93.8,8.624-.016a.719.719,0,0,0,.315-.236c2.038-3.077,1.37-11.991,1.37-11.991l.775-5.755-.517-2.986-1.26-.132-.964-.1s-.217.268-.532.684c-.854,1.124-2.422,3.342-2.315,4.265.142,1.26-.173,2.561-.665,2.762s-.891.548-.976.2a1.546,1.546,0,0,1-.088-.92,7.477,7.477,0,0,0-.375-1.988,8.363,8.363,0,0,1-.718-2.5,2.966,2.966,0,0,0-.315-1.814c-.23-.2-.548-.4-.29-1.323s-1.134-2.712-1.134-2.712Z" transform="translate(-277.458 -342.661)" fill="#d0cde1"/>
      <path id="Path_735" data-name="Path 735" d="M331.462,385.68l.29,8.6,1.66.923a.746.746,0,0,0,.315-.239c2.038-3.077,1.37-11.991,1.37-11.991l.778-5.755-.52-2.986-1.26-.132c.485-2.309.8-4.548.274-4.794-.469-.214-.775-.992-.973-1.827h0l-.9,6.085s.076.548.1,1.115a3.15,3.15,0,0,1-.072,1.071,3.575,3.575,0,0,0-.057,1.439,11.683,11.683,0,0,0-.9,4.243C331.4,383.607,331.462,385.68,331.462,385.68Z" transform="translate(-297.358 -335.626)" opacity="0.1"/>
      <path id="Path_736" data-name="Path 736" d="M333.771,367s1.452.18,1.912.784a2.72,2.72,0,0,0,1.669.693s1.38.46,1.351.573.4.29,1.26.52a5.818,5.818,0,0,1,2.3,1.26c0,.2,2.271,2.444,2.271,2.674a5.743,5.743,0,0,1,.6,2.617c-.085,1.525-.173,3.465.173,3.78s0,1.553,0,1.553a.851.851,0,0,0-.028.923,7.9,7.9,0,0,1-.06,2.674l.031,2.246s-.315,1.408.057,1.468-.057.69-.057.69-.315,1.15.085,1.669a8.527,8.527,0,0,1,.517,2.731l6.158,8.949s.088,1.641-1.868,1.613-1.931.375-1.871.747-.548.778-.548.778-.775.4-.315.891,1.783,1.613-.4,2.359a5.21,5.21,0,0,1-.63-1.15,13.054,13.054,0,0,1-.46-1.553s-.2-2.189-.6-2.476-.346-1.669-.346-1.669.576-1.121-.23-1.575-12.486-6.93-12.486-6.93l-.284-8.605s-.2-6.359,1.008-8.489a3.576,3.576,0,0,1,.057-1.439,7.453,7.453,0,0,0-.028-2.186Z" transform="translate(-297.707 -335.297)" fill="#141414"/>
      <path id="Path_737" data-name="Path 737" d="M290.943,377.277s-2.892-.6-3.669-.192-2.3.718-2.52.945-.8.06-1.323,1.411-.573,2.734-1.238,3.367-1,1.065-1.033,1.524.085.576-.173.718-.63.75-.52.98,5.985,5.295,5.985,5.295a13.883,13.883,0,0,0,.548,2.416c.258.488-.287,7.222-.863,7.682s3.871.422,3.871.422.2-4.41.375-4.649a45.648,45.648,0,0,0-.117-4.948,28.116,28.116,0,0,1,.347-5.093,22.9,22.9,0,0,0,.315-4.6,9.469,9.469,0,0,1,.734-2.617C292.064,379.438,290.943,377.277,290.943,377.277Z" transform="translate(-262.42 -342.11)" opacity="0.1"/>
      <path id="Path_738" data-name="Path 738" d="M290.67,377s-2.892-.6-3.67-.2-2.3.721-2.52.945-.806.057-1.323,1.411-.576,2.731-1.238,3.364-1.008,1.065-1.036,1.524.088.576-.173.721-.63.746-.517.976,5.985,5.295,5.985,5.295a13.586,13.586,0,0,0,.548,2.416c.261.488-.29,7.222-.866,7.682s3.887.419,3.887.419.2-4.41.372-4.646a46.575,46.575,0,0,0-.113-4.952,28.083,28.083,0,0,1,.346-5.09,23.183,23.183,0,0,0,.331-4.605,9.47,9.47,0,0,1,.734-2.617C291.82,379.159,290.67,377,290.67,377Z" transform="translate(-262.232 -341.922)" fill="#141414"/>
      <path id="Path_739" data-name="Path 739" d="M312.282,363.013a5.83,5.83,0,0,1,.334,1.943,6.614,6.614,0,0,0,7.559-2.992,16.6,16.6,0,0,1-.284-2.145S311.044,359.356,312.282,363.013Z" transform="translate(-284.146 -330.365)" opacity="0.1"/>
      <path id="Path_740" data-name="Path 740" d="M298.65,341.23a6.593,6.593,0,1,0,.145-1.37A6.525,6.525,0,0,0,298.65,341.23Z" transform="translate(-274.889 -313.131)" fill="#ee8e9e"/>
      <path id="Path_741" data-name="Path 741" d="M272.664,404l-1.575.488a.816.816,0,0,1-.315.863.945.945,0,0,0-.4.863s-.173.63-.576.778-.661,1.093-.661,1.093l-1.323,1.525s-.491.4-.4.6-.52.258-.52.258l.315,5.122,2.734.52,1.7-.173,1.38-.517,1.21-.721.545-1.408,2.419-3.685Z" transform="translate(-253.133 -360.643)" fill="#141414"/>
      <path id="Path_742" data-name="Path 742" d="M252.8,418.972s-3.509-5.062-6.129-2.331,1.065,7.166,1.928,7.021,4.98-.375,4.98-.375Z" transform="translate(-238.645 -368.749)" fill="#ee8e9e"/>
      <rect id="Rectangle_205" data-name="Rectangle 205" width="18.373" height="14.265" rx="1.54" transform="translate(6.485 39.903) rotate(27.04)" fill="#141414"/>
      <rect id="Rectangle_206" data-name="Rectangle 206" width="15.443" height="11.638" transform="translate(7.22 41.717) rotate(27.04)" fill="#038d08"/>
      <ellipse id="Ellipse_101" data-name="Ellipse 101" cx="0.252" cy="0.252" rx="0.252" ry="0.252" transform="translate(3.794 46.374)" fill="#e6e8ec"/>
      <ellipse id="Ellipse_102" data-name="Ellipse 102" cx="0.419" cy="0.419" rx="0.419" ry="0.419" transform="translate(18.516 53.836)" fill="#e6e8ec"/>
      <path id="Path_743" data-name="Path 743" d="M260.93,425.3c-.031,3.8,7.824,4.6,7.824,4.6l2.006.315.9.142.375-3.71s-.413-.063-.926-.183c-.762-.176-1.748-.482-1.953-.913C268.826,424.84,260.952,421.5,260.93,425.3Z" transform="translate(-249.05 -374.012)" fill="#ee8e9e"/>
      <path id="Path_744" data-name="Path 744" d="M299.11,339.872a.781.781,0,0,1,.482.214c.22.236.233.655.523.8a.605.605,0,0,0,.343.038c.765-.107,1.206-.97,1.943-1.21a1.95,1.95,0,0,1,1.285.11,1,1,0,0,1,.428.274c.246.315.072.787.186,1.172.158.535.8.747,1.348.816a2.361,2.361,0,0,1,1.543.526,1.4,1.4,0,0,1,.274,1.115.87.87,0,0,0,0,.413c.151.431.9.365,1.093.025.145-.249.1-.454.438-.523a1.427,1.427,0,0,1,.7.123,5.21,5.21,0,0,0,1.824.28,6.589,6.589,0,1,0-12.41-4.173Z" transform="translate(-275.205 -313.143)" opacity="0.1"/>
      <path id="Path_745" data-name="Path 745" d="M303.96,336.321a.873.873,0,0,1,0-.413,1.389,1.389,0,0,0-.274-1.112,2.357,2.357,0,0,0-1.543-.529c-.554-.072-1.191-.28-1.348-.816-.113-.384.06-.854-.186-1.169a.944.944,0,0,0-.428-.274,1.953,1.953,0,0,0-1.285-.113c-.737.239-1.178,1.1-1.943,1.21a.58.58,0,0,1-.343-.038c-.29-.145-.315-.564-.523-.8-.35-.369-1.014-.129-1.439-.4a1.326,1.326,0,0,1-.466-.854,4.138,4.138,0,0,1-.126-1.909c.249-1.068,1.206-1.8,1.814-2.718.57-.85.891-1.928,1.745-2.491a3.491,3.491,0,0,1,2.92-.151,8.244,8.244,0,0,0,1.367.359,15.384,15.384,0,0,0,2.34-.142,5.008,5.008,0,0,1,3.093.945,1.691,1.691,0,0,1,.5.51,2.65,2.65,0,0,1,.227.917,4.653,4.653,0,0,0,.608,1.682c.239.406.545.772.762,1.191a1.846,1.846,0,0,1,.208,1.364c-.076.236-.22.45-.277.693a2.61,2.61,0,0,0,.495,1.616,3.03,3.03,0,0,1,.337,1.534,1.921,1.921,0,0,1-.69,1.38,2.492,2.492,0,0,1-1.458.444,5.244,5.244,0,0,1-1.858-.28,1.465,1.465,0,0,0-.7-.123c-.337.069-.293.274-.438.523C304.858,336.686,304.115,336.752,303.96,336.321Z" transform="translate(-271.702 -305.497)" fill="#3f3d56"/>
      <path id="Path_746" data-name="Path 746" d="M308.729,463.137l3.714-2.9,5.84-5.755-1.928-.088a1.26,1.26,0,0,0-.406.787c-.028.7-1.575.047-2.384.45s-4.747,5.449-5.437,5.414-1.238-.35-1.528.139l-.019.031a.812.812,0,0,1-.441.261Z" transform="translate(-280.02 -395.161)" opacity="0.1"/>
      <path id="Path_747" data-name="Path 747" d="M290.61,458.641l1.865,5.956.293.945.888-.243,1.959-.539,8.719-2.394a7.583,7.583,0,0,0,3.15-.838,9.5,9.5,0,0,1,5.418-1.181c1.153.107,2.435-.391,3.5-2.356,0,0,2.416-7.134-3.682-9.178s-6.391,1.087-6.391,1.087l-.085.05c-.236.151-.9.63-.923,1.2-.028.7-1.575.05-2.384.45s-4.747,5.449-5.437,5.415-1.238-.35-1.528.142l-.019.031c-.214.293-.854.362-1.279.372a3.776,3.776,0,0,1-.4,0l-.057.016-.441.132Z" transform="translate(-269.382 -390.867)" fill="#2d2d2d"/>
      <path id="Path_748" data-name="Path 748" d="M292.14,436.651l.9.142.375-3.71s-.413-.063-.926-.183A18.992,18.992,0,0,1,292.14,436.651Z" transform="translate(-270.43 -380.44)" opacity="0.1"/>
      <path id="Path_749" data-name="Path 749" d="M315.957,389.557s2.674-.778,2.013,6.819a21.242,21.242,0,0,1-5.61,12.4s-5.7,2.5-8.259,2.1-4.429-.488-4.429-.488a6.51,6.51,0,0,0-2.592-.69c-1.436-.057-4.457-.945-4.517-1.238s.75-4.517.4-4.832a26.66,26.66,0,0,1,4.432.454c.4.29.98.085,1.411,0a4.895,4.895,0,0,1,4.372-.224,2.655,2.655,0,0,0,1.238-.145,1.238,1.238,0,0,1,.9-.057,2.473,2.473,0,0,0,.63-.315c.085-.113.778,0,.778,0a.315.315,0,0,0,.432-.2,1.889,1.889,0,0,1,.4-.63s.775-4.372,2.243-6.013a.945.945,0,0,0,.315-.835C310,395.195,312.5,388.634,315.957,389.557Z" transform="translate(-270.718 -350.689)" opacity="0.1"/>
      <path id="Path_750" data-name="Path 750" d="M315.734,387.7s2.677-.775,2.016,6.819a21.226,21.226,0,0,1-5.61,12.4s-5.7,2.5-8.259,2.1-4.432-.5-4.432-.5a6.487,6.487,0,0,0-2.589-.69c-1.439-.06-4.46-.945-4.517-1.238s.747-4.517.4-4.835a26.7,26.7,0,0,1,4.432.457c.4.29.976.082,1.408,0a4.918,4.918,0,0,1,4.375-.227,2.626,2.626,0,0,0,1.235-.142,1.259,1.259,0,0,1,.9-.06,2.618,2.618,0,0,0,.63-.315c.085-.117.775,0,.775,0a.315.315,0,0,0,.432-.2,1.889,1.889,0,0,1,.4-.63s.778-4.372,2.246-6.013a.945.945,0,0,0,.315-.835C309.781,393.343,312.282,386.791,315.734,387.7Z" transform="translate(-270.568 -349.419)" fill="#141414"/>
      <path id="Path_751" data-name="Path 751" d="M300.64,478.232l3.8,4.6.025-.025c.028-.088.4-1.065.315-1.124a5.351,5.351,0,0,0-2.069-2.1,3.925,3.925,0,0,1-1.628-1.48Z" transform="translate(-276.253 -411.403)" opacity="0.1"/>
      <path id="Path_752" data-name="Path 752" d="M300.6,492.759l.416.236s.964-.772,1.925-1.55,1.89-1.54,1.89-1.575.4-1.065.315-1.121-.243-.428-.608-.891c-2.576-.721-.945,1.068-.718,1.15a2.623,2.623,0,0,0-3.307,2.7A4.225,4.225,0,0,0,300.6,492.759Z" transform="translate(-276.162 -417.971)" opacity="0.1"/>
      <path id="Path_753" data-name="Path 753" d="M304.369,494.17l.548.315,5.553.142a11.118,11.118,0,0,0,1.965.945,1.848,1.848,0,0,0,.277.06,12.283,12.283,0,0,0,1.55.028c.425,0,.753-.028.753-.028s-.261-7-.46-7.739c-.094-.353-.561-.277-1.021-.1a6.955,6.955,0,0,0-1,.5,17.938,17.938,0,0,0-2.731.431c-.375.2-1.439-.117-2.1,0s-1.843-.778-1.843-.778c-3.222-1.065-1.408.92-1.178,1.008a2.622,2.622,0,0,0-3.31,2.7A2.227,2.227,0,0,0,304.369,494.17Z" transform="translate(-276.753 -417.936)" fill="#141414"/>
      <path id="Path_754" data-name="Path 754" d="M336.374,491.5a9.349,9.349,0,0,0,1.865,4.2c.425,0,.753-.028.753-.028s-.261-7-.46-7.739c-.095-.353-.561-.277-1.021-.1A8.076,8.076,0,0,0,336.374,491.5Z" transform="translate(-300.729 -417.966)" fill="#565387"/>
      <path id="Path_755" data-name="Path 755" d="M336.374,491.5a9.349,9.349,0,0,0,1.865,4.2c.425,0,.753-.028.753-.028s-.261-7-.46-7.739c-.095-.353-.561-.277-1.021-.1A8.076,8.076,0,0,0,336.374,491.5Z" transform="translate(-300.729 -417.966)" opacity="0.1"/>
      <path id="Path_756" data-name="Path 756" d="M333.156,491.689c.384,1.4.378,2.967.989,3.918a1.843,1.843,0,0,0,.277.06,12.283,12.283,0,0,0,1.55.028c.425,0,.753-.028.753-.028s-.261-7-.46-7.739c-.094-.353-.561-.277-1.021-.1a6.957,6.957,0,0,0-1,.5A3.87,3.87,0,0,0,333.156,491.689Z" transform="translate(-298.463 -417.966)" fill="#2d2d2d" opacity="0.79"/>
      <path id="Path_757" data-name="Path 757" d="M272.54,455.34a11.475,11.475,0,0,1,5.1,4.076Z" transform="translate(-257.003 -395.812)" opacity="0.1"/>
      <g id="Group_72" data-name="Group 72" transform="translate(22.285 23.025)" opacity="0.1">
        <path id="Path_758" data-name="Path 758" d="M343.453,345.72a.1.1,0,0,1-.016.063,1.735,1.735,0,0,1-.1.239A2.2,2.2,0,0,1,343.453,345.72Z" transform="translate(-327.788 -343.745)"/>
        <path id="Path_759" data-name="Path 759" d="M294.027,340.03a2.459,2.459,0,0,1,.214-.58.715.715,0,0,1-.044.148,4.183,4.183,0,0,0,.129,1.909,1.336,1.336,0,0,0,.463.854c.428.274,1.093.035,1.443.4.221.236.233.655.523.8a.58.58,0,0,0,.343.038c.765-.107,1.206-.97,1.943-1.21a1.934,1.934,0,0,1,1.285.113.945.945,0,0,1,.428.274c.246.315.072.784.186,1.169.157.535.8.746,1.348.816a2.347,2.347,0,0,1,1.543.529,1.389,1.389,0,0,1,.274,1.112.871.871,0,0,0,0,.413c.151.432.9.365,1.093.025.145-.249.1-.454.438-.523a1.465,1.465,0,0,1,.7.123,5.245,5.245,0,0,0,1.858.28,2.492,2.492,0,0,0,1.458-.444,1.631,1.631,0,0,0,.447-.545,1.815,1.815,0,0,1-.63.976,2.491,2.491,0,0,1-1.458.444,5.245,5.245,0,0,1-1.858-.28,1.466,1.466,0,0,0-.7-.123c-.337.069-.293.274-.435.523-.2.34-.945.406-1.1-.025a.913.913,0,0,1,0-.413,1.389,1.389,0,0,0-.274-1.112,2.358,2.358,0,0,0-1.543-.529c-.554-.072-1.191-.28-1.348-.816-.113-.384.06-.854-.186-1.169a.945.945,0,0,0-.425-.274,1.962,1.962,0,0,0-1.288-.113c-.734.239-1.178,1.1-1.943,1.21a.579.579,0,0,1-.343-.038c-.29-.145-.315-.564-.523-.8-.35-.369-1.011-.129-1.439-.4a1.326,1.326,0,0,1-.466-.854A4.139,4.139,0,0,1,294.027,340.03Z" transform="translate(-293.966 -339.45)"/>
      </g>
      <path id="Path_760" data-name="Path 760" d="M340.111,411.42c-.529.712-1.131,1.37-1.6,2.12a4.035,4.035,0,0,0-.7,2.52,6.55,6.55,0,0,0,1.008-1.8,25.2,25.2,0,0,1,1.937-2.907c.123-.186.917-1.26.517-1.3C340.942,410,340.29,411.178,340.111,411.42Z" transform="translate(-301.713 -364.785)" opacity="0.1"/>
      <path id="Path_761" data-name="Path 761" d="M346.256,594.372c.381,1.222.765,2.447,1.241,3.635a30.916,30.916,0,0,0,3.216,5.862,42.549,42.549,0,0,0,2.658,3.484c1.184,1.4,2.52,2.8,2.923,4.583a23.379,23.379,0,0,1,.261,3.15,3.854,3.854,0,0,0,1.3,2.8,4.727,4.727,0,0,0,2.132.7c.536.085,1.2.113,1.48-.35a1.344,1.344,0,0,0,.148-.611l.129-1.54c.025-.334.145-.759.479-.775s.5.428.784.63a.854.854,0,0,0,1.153-.4,1.943,1.943,0,0,0,.031-1.354,6.416,6.416,0,0,0-3.3-4.095,9.459,9.459,0,0,1-1.606-.835,5.492,5.492,0,0,1-1.26-1.594,99.078,99.078,0,0,1-7.925-14.889,11.023,11.023,0,0,1-.816-2.936,19.28,19.28,0,0,1,.126-3.1,17.639,17.639,0,0,0-.51-5.522,4.411,4.411,0,0,0-.526-1.342,2.993,2.993,0,0,0-4.095-.592,4.221,4.221,0,0,0-1.632,2.983,8.6,8.6,0,0,0,.816,3.1Q344.854,589.874,346.256,594.372Z" transform="translate(-305.024 -480.34)" fill="#a1616a"/>
      <path id="Path_762" data-name="Path 762" d="M346.256,594.372c.381,1.222.765,2.447,1.241,3.635a30.916,30.916,0,0,0,3.216,5.862,42.549,42.549,0,0,0,2.658,3.484c1.184,1.4,2.52,2.8,2.923,4.583a23.379,23.379,0,0,1,.261,3.15,3.854,3.854,0,0,0,1.3,2.8,4.727,4.727,0,0,0,2.132.7c.536.085,1.2.113,1.48-.35a1.344,1.344,0,0,0,.148-.611l.129-1.54c.025-.334.145-.759.479-.775s.5.428.784.63a.854.854,0,0,0,1.153-.4,1.943,1.943,0,0,0,.031-1.354,6.416,6.416,0,0,0-3.3-4.095,9.459,9.459,0,0,1-1.606-.835,5.492,5.492,0,0,1-1.26-1.594,99.078,99.078,0,0,1-7.925-14.889,11.023,11.023,0,0,1-.816-2.936,19.28,19.28,0,0,1,.126-3.1,17.639,17.639,0,0,0-.51-5.522,4.411,4.411,0,0,0-.526-1.342,2.993,2.993,0,0,0-4.095-.592,4.221,4.221,0,0,0-1.632,2.983,8.6,8.6,0,0,0,.816,3.1Q344.854,589.874,346.256,594.372Z" transform="translate(-305.024 -480.34)" opacity="0.05"/>
      <path id="Path_765" data-name="Path 765" d="M286.083,629.328a1.778,1.778,0,0,0-.976,2.035,7.484,7.484,0,0,0,1.03,2.227c1.14,2.038,1.632,4.369,2.589,6.495.715,1.575,1.682,3.055,2.388,4.649a7.943,7.943,0,0,1,.715,5.084c-.208.822-.611,1.575-.879,2.384a13.231,13.231,0,0,0-.517,2.693,51.15,51.15,0,0,0-.186,9.342,2.791,2.791,0,0,0,.233,1.1c.161.315.438.63.315.945-.054.129-.17.224-.227.35-.164.353.164.728.463.98a.816.816,0,0,1-.5.388,1.184,1.184,0,0,1,.5,1.32c-.265.041-.28.447-.113.661s.432.347.551.589a.822.822,0,0,1-.454,1.033,2.158,2.158,0,0,1-1.235.094,13.545,13.545,0,0,1-2.063-.454,1.493,1.493,0,0,1-1.2-1.543,22.927,22.927,0,0,1-.142-3.865c.11-6.249,0-12.5-.271-18.751a21.372,21.372,0,0,0-1.839-7.279,38.208,38.208,0,0,0-1.792-3.465c-1.4-2.57-2.646-5.418-2.325-8.331.035-.315.148-.69.46-.74a.666.666,0,0,1,.356.06,15.987,15.987,0,0,1,1.874,1.033A7.074,7.074,0,0,0,286.083,629.328Z" transform="translate(-262.181 -513.586)" fill="#2d2d2d"/>
      <path id="Path_767" data-name="Path 767" d="M251.567,608.758a2.042,2.042,0,0,0-2.838.321,15.118,15.118,0,0,0-1.474,1.291,7.856,7.856,0,0,0-1.751,7.774,15.311,15.311,0,0,0,2.148,3.814l1.7,2.444c2.6,3.726,5.191,7.452,7.909,11.09a.422.422,0,0,0,.3.4c.1.025.22.022.28.1a.3.3,0,0,1,.035.167,2.41,2.41,0,0,1-.151.787.375.375,0,0,0-.031.271c.088.2.46.088.58.28.079.126-.019.29-.123.4s-.233.227-.214.375.277.315.268.5c0,.107-.094.189-.161.274a.7.7,0,0,0,.085.895c.18,1.776-.787,3.465-.98,5.235-.315,2.8.961,5.528,1.115,8.334a2.159,2.159,0,0,0,.176.92c.261.485.945.778.91,1.329a5.324,5.324,0,0,1-.192.668,5.073,5.073,0,0,0,.1.945c.006.315-.274.7-.57.576q.334,1.115.6,2.249l5.953.491a5.283,5.283,0,0,0-.054-1.606c-.123-.576-.381-1.112-.517-1.682a1.99,1.99,0,0,1,.233-1.685.658.658,0,0,1-.655-.539,2.616,2.616,0,0,1,.016-.926c.157-1.553-.495-3.084-.476-4.643a22.679,22.679,0,0,1,.668-3.616c.466-2.583-.019-5.383,1.131-7.742.7-1.421,1.66-3,.879-4.372-.384-.68-1.065-1.147-1.509-1.789a7.278,7.278,0,0,1-.806-1.95,65.852,65.852,0,0,0-3.7-8.164,8.506,8.506,0,0,1-.8-2.145,11.249,11.249,0,0,1-.1-1.981,29.2,29.2,0,0,0-.217-3.556,3.383,3.383,0,0,0-.432-1.471,3.289,3.289,0,0,0-.945-.847C256,610.636,253.677,609.87,251.567,608.758Z" transform="translate(-238.226 -500.614)" fill="#2d2d2d"/>
      <ellipse id="Ellipse_103" data-name="Ellipse 103" cx="5.896" cy="5.896" rx="5.896" ry="5.896" transform="translate(40.965 86.043)" fill="#a1616a"/>
      <path id="Path_769" data-name="Path 769" d="M329.522,561.369a5.564,5.564,0,0,1-3.166.895,19.879,19.879,0,0,0-6.813,1.972,2.458,2.458,0,0,0-.787.542,2.224,2.224,0,0,0-.4.844,5.515,5.515,0,0,0-.224,2.051,5.844,5.844,0,0,0,.57,1.928,10.394,10.394,0,0,0,3.654,4.167,2.677,2.677,0,0,0,.926.444,5.2,5.2,0,0,0,2.29-.488,3.742,3.742,0,0,1,2.113.066c.63.214,1.32.6,1.943.343a1.994,1.994,0,0,0,.879-1,34.082,34.082,0,0,0,1.61-3.509,13.5,13.5,0,0,1,.583-1.373c.683-1.3,1.865-2.306,2.454-3.657a.8.8,0,0,0,.057-.687.944.944,0,0,0-.435-.331,10.336,10.336,0,0,1-2.356-1.849c-.387-.372-1.1-1.376-1.657-1.465C330.136,560.153,329.947,561,329.522,561.369Z" transform="translate(-288.223 -467.678)" fill="#a1616a"/>
      <path id="Path_770" data-name="Path 770" d="M292.394,582.162a3.615,3.615,0,0,1-2.23.025,25.459,25.459,0,0,1-5.607-1.628,3.037,3.037,0,0,1-1.376-1.058,3.464,3.464,0,0,1-.384-1.32l-.315-2.2a12.848,12.848,0,0,1,.1-2.249.652.652,0,0,0-.129-.488.532.532,0,0,0-.387-.123c-.885.016-1.421.945-2.041,1.575a3.78,3.78,0,0,1-1.26.844c-.567.233-1.26.4-1.5.964-.094.236-.082.5-.183.74-.4.945-2.088.63-2.52,1.575-.123.265-.113.6-.315.8s-.58.2-.891.255c-1.232.2-1.827,1.622-2.879,2.293-.885.567-2.025.554-2.98,1a11.316,11.316,0,0,1-1.559.791,7.368,7.368,0,0,1-1.8.091.469.469,0,0,0-.356.117.476.476,0,0,0-.06.391,10.854,10.854,0,0,0,6.706,8.4,2.243,2.243,0,0,1,.573.277c.535.4.63,1.26,1.238,1.543a1.26,1.26,0,0,0,1.288-.277,11.587,11.587,0,0,0,.945-1.027,3.7,3.7,0,0,1,2.076-1.093,4.562,4.562,0,0,0,2.139-.482,6.627,6.627,0,0,0,.674-.718,4.233,4.233,0,0,1,1.528-.913,15.613,15.613,0,0,1,4.86-1.068,16.956,16.956,0,0,0,4.618-.447,2.786,2.786,0,0,0,1.03-.583,3.1,3.1,0,0,0,.687-1.194,9.134,9.134,0,0,0,.3-4.81Z" transform="translate(-250.957 -476.49)" fill="#d0cde1"/>
      <path id="Path_771" data-name="Path 771" d="M323.508,573.969c.435-.041.873,0,1.31,0,.513,0,1.021-.126,1.534-.129a3.814,3.814,0,0,1,3.6,2.737.709.709,0,0,1,.022.387.274.274,0,0,1-.3.2,6.53,6.53,0,0,0-.665-1.326,3.726,3.726,0,0,0-1.978-1.38,5.121,5.121,0,0,0-2.432-.088c-.337.063-.665.151-.992.243l-1.575.435c-.29.079-.583.158-.863.261-.217.082-.589.381-.8.394-.29,0-.057-.252.072-.422a2.094,2.094,0,0,1,1.03-.75A8.915,8.915,0,0,1,323.508,573.969Z" transform="translate(-289.671 -476.987)" fill="#d0cde1"/>
      <path id="Path_772" data-name="Path 772" d="M335.376,596.463c.381,1.222.762,2.447,1.241,3.635a30.742,30.742,0,0,0,3.216,5.862,42.5,42.5,0,0,0,2.658,3.484c1.181,1.4,2.5,2.8,2.923,4.58a23.469,23.469,0,0,1,.261,3.15,3.868,3.868,0,0,0,1.295,2.8,4.83,4.83,0,0,0,2.136.7c.532.085,1.2.113,1.48-.35a1.4,1.4,0,0,0,.148-.611l.126-1.54c.028-.334.148-.759.479-.775s.5.428.787.63a.854.854,0,0,0,1.153-.4,1.959,1.959,0,0,0,.031-1.354,6.435,6.435,0,0,0-3.3-4.095,9.607,9.607,0,0,1-1.61-.835,5.452,5.452,0,0,1-1.26-1.6,98.2,98.2,0,0,1-7.925-14.889,11.106,11.106,0,0,1-.819-2.932,19.277,19.277,0,0,1,.129-3.1,17.64,17.64,0,0,0-.51-5.522,4.347,4.347,0,0,0-.529-1.342,2.99,2.99,0,0,0-4.095-.592,4.224,4.224,0,0,0-1.635,2.983,8.667,8.667,0,0,0,.816,3.1Q333.971,591.965,335.376,596.463Z" transform="translate(-297.564 -481.77)" fill="#a1616a"/>
      <path id="Path_773" data-name="Path 773" d="M353.9,534.04c.047-.491-.394-.945-.894-1.26a11.845,11.845,0,0,1-1.515-.926c-.447-.387-.693-.891-1.14-1.279a5.066,5.066,0,0,0-1.7-.847,12.949,12.949,0,0,0-4.07-.728,7.062,7.062,0,0,0-3.89,1.03,2.3,2.3,0,0,0-.661.63,2.7,2.7,0,0,0-.315.976,19.282,19.282,0,0,1-1.017,3.09,7.192,7.192,0,0,1-1.934,3.125c-1.1.917-2.788,1.446-3.515,2.554a.819.819,0,0,0-.161.715c.1.28.438.472.747.649a10.114,10.114,0,0,1,4.126,3.95,4.584,4.584,0,0,1-.359,4.929c-.416.542-.989,1.184-.583,1.729.63.828,2.737.353,3.229,1.228a1.787,1.787,0,0,1,.063.9c0,.92.885,1.735,1.959,2.161a11.031,11.031,0,0,0,3.528.58,3.081,3.081,0,0,0,.088-2.284.92.92,0,0,1-.091-.52,1.26,1.26,0,0,1,.406-.5c1.291-1.222,1.017-3.017.243-4.47s-1.984-2.778-2.435-4.306a2.221,2.221,0,0,1,.378-2.243,7.578,7.578,0,0,1,1.112-.81,4.2,4.2,0,0,0,1.556-1.953c.362-1,.315-2.2,1.367-2.882,1.011-.63,2.432-.447,3.55-.879A3.8,3.8,0,0,0,353.9,534.04Z" transform="translate(-298.463 -446.271)" fill="#2d2d2d"/>
    </g>
    <rect id="Rectangle_351" data-name="Rectangle 351" width="317" height="195" transform="translate(802 1459)" fill="none"/>
  </g>
</svg>
