<svg xmlns="http://www.w3.org/2000/svg" width="317" height="195" viewBox="0 0 317 195">
  <g id="Wordpress" transform="translate(-254 -2486)">
    <g id="Group_70" data-name="Group 70" transform="translate(2323.462 386)">
      <rect id="Rectangle_167" data-name="Rectangle 167" width="114.858" height="23.632" transform="translate(-1938.895 2164.294)" fill="none" stroke="#3f3d56" stroke-miterlimit="10" stroke-width="1"/>
      <path id="Path_491" data-name="Path 491" d="M250.224,347.071a19.575,19.575,0,0,1,16.587-8.571c10.526,0,19.058,7.566,19.058,16.9,0,5.967-3.488,11.212-8.755,14.218" transform="translate(-2257.661 1850.792)" fill="none" stroke="#3f3d56" stroke-miterlimit="10" stroke-width="1"/>
      <rect id="Rectangle_168" data-name="Rectangle 168" width="114.858" height="23.632" transform="translate(-1947.027 2168.868)" fill="#038d08"/>
      <circle id="Ellipse_61" data-name="Ellipse 61" cx="1.779" cy="1.779" r="1.779" transform="translate(-2021.413 2142.758)" fill="#038d08"/>
      <circle id="Ellipse_62" data-name="Ellipse 62" cx="1.779" cy="1.779" r="1.779" transform="translate(-2015.314 2142.758)" fill="#038d08"/>
      <circle id="Ellipse_63" data-name="Ellipse 63" cx="1.779" cy="1.779" r="1.779" transform="translate(-2009.215 2142.758)" fill="#038d08"/>
      <rect id="Rectangle_169" data-name="Rectangle 169" width="213.452" height="138.744" transform="translate(-2024.462 2139.963)" fill="none" stroke="#3f3d56" stroke-miterlimit="10" stroke-width="1"/>
      <line id="Line_13" data-name="Line 13" x2="213.452" transform="translate(-2024.462 2147.671)" fill="none" stroke="#3f3d56" stroke-miterlimit="10" stroke-width="1"/>
      <circle id="Ellipse_64" data-name="Ellipse 64" cx="1.779" cy="1.779" r="1.779" transform="translate(-2020.904 2141.996)" fill="none" stroke="#3f3d56" stroke-miterlimit="10" stroke-width="1"/>
      <circle id="Ellipse_65" data-name="Ellipse 65" cx="1.779" cy="1.779" r="1.779" transform="translate(-2014.806 2141.996)" fill="none" stroke="#3f3d56" stroke-miterlimit="10" stroke-width="1"/>
      <circle id="Ellipse_66" data-name="Ellipse 66" cx="1.779" cy="1.779" r="1.779" transform="translate(-2008.707 2141.996)" fill="none" stroke="#3f3d56" stroke-miterlimit="10" stroke-width="1"/>
      <line id="Line_14" data-name="Line 14" y2="131.233" transform="translate(-1957.446 2147.671)" fill="none" stroke="#3f3d56" stroke-miterlimit="10" stroke-width="1"/>
      <rect id="Rectangle_170" data-name="Rectangle 170" width="37.354" height="5.082" transform="translate(-1933.432 2212.194)" fill="#f2f2f2"/>
      <rect id="Rectangle_171" data-name="Rectangle 171" width="37.354" height="5.082" transform="translate(-1874.733 2212.194)" fill="#f2f2f2"/>
      <rect id="Rectangle_172" data-name="Rectangle 172" width="37.354" height="5.082" transform="translate(-1931.399 2209.653)" fill="none" stroke="#3f3d56" stroke-miterlimit="10" stroke-width="1"/>
      <rect id="Rectangle_173" data-name="Rectangle 173" width="37.354" height="5.082" transform="translate(-1933.432 2251.581)" fill="#f2f2f2"/>
      <rect id="Rectangle_174" data-name="Rectangle 174" width="37.354" height="5.082" transform="translate(-1931.399 2249.04)" fill="none" stroke="#3f3d56" stroke-miterlimit="10" stroke-width="1"/>
      <rect id="Rectangle_175" data-name="Rectangle 175" width="96.053" height="5.082" transform="translate(-1933.305 2231.379)" fill="#f2f2f2"/>
      <rect id="Rectangle_176" data-name="Rectangle 176" width="96.053" height="5.082" transform="translate(-1931.272 2229.346)" fill="none" stroke="#3f3d56" stroke-miterlimit="10" stroke-width="1"/>
      <rect id="Rectangle_177" data-name="Rectangle 177" width="37.354" height="5.082" transform="translate(-1872.7 2209.653)" fill="none" stroke="#3f3d56" stroke-miterlimit="10" stroke-width="1"/>
      <path id="Path_515" data-name="Path 515" d="M973.978,352.6a5.217,5.217,0,0,0,.305.8,13.459,13.459,0,0,1,.166,10.13,19.632,19.632,0,0,1,2.733.161,5.784,5.784,0,0,0,2.7-.3,2.742,2.742,0,0,0,1.707-2.063c.167-1.272-.759-2.382-1.572-3.348a7.628,7.628,0,0,1-1.874-3.353c-.269-1.411.114-3.065-.777-4.164a.861.861,0,0,0-.3-.253,3.4,3.4,0,0,0-2.207.059A2.252,2.252,0,0,0,973.978,352.6Z" transform="translate(-2797.466 1842.171)" fill="#141414"/>
      <path id="Path_516" data-name="Path 516" d="M1052.062,697.636a6.409,6.409,0,0,1-.3,1.247s-.923,2.125-4.721,1.552c-2.48-.375-2.464-1.537-2.053-2.437a5.814,5.814,0,0,1,.677-1.054c.369-.5.333-2.4.462-4.138s.913-1.826.913-1.826l.047,1.954c1.479-1.94,2.513.333,2.513.333s2.1.044,1.845-1.034c-.274-1.148-.683-2.966-.683-2.966s1.017.472,1.2.8a26.124,26.124,0,0,1-.2,5.209,3.032,3.032,0,0,0,.24,1.9A.725.725,0,0,1,1052.062,697.636Z" transform="translate(-2850.315 1589.159)" fill="#2d2d2d"/>
      <path id="Path_517" data-name="Path 517" d="M1057.477,683.993a2.07,2.07,0,0,1-1.448,1.973,2.788,2.788,0,0,1-2.435-.371,1.43,1.43,0,0,1-.6-1.34l.059-.491.213-1.79.293-2.466s3.147-1.6,2.937-1a9.626,9.626,0,0,0,.345,2.43c.177.848.392,1.781.582,2.573A2.046,2.046,0,0,1,1057.477,683.993Z" transform="translate(-2856.432 1597.284)" fill="#fbbebe"/>
      <path id="Path_518" data-name="Path 518" d="M1052.26,696.024s2.725-3.2,4.955.291l-.374,2.237h-4.581Z" transform="translate(-2855.892 1585.118)" opacity="0.1"/>
      <path id="Path_519" data-name="Path 519" d="M1052.26,696.9s2.725-3.2,4.955.291l-.374,2.237h-4.581Z" transform="translate(-2855.892 1584.467)" fill="#3f3d56"/>
      <circle id="Ellipse_67" data-name="Ellipse 67" cx="0.277" cy="0.277" r="0.277" transform="translate(-1800.368 2282.783)" fill="#f2f2f2"/>
      <circle id="Ellipse_68" data-name="Ellipse 68" cx="0.277" cy="0.277" r="0.277" transform="translate(-1803.91 2282.339)" fill="#f2f2f2"/>
      <circle id="Ellipse_69" data-name="Ellipse 69" cx="0.277" cy="0.277" r="0.277" transform="translate(-1801.323 2284.661)" fill="#f2f2f2"/>
      <circle id="Ellipse_70" data-name="Ellipse 70" cx="0.277" cy="0.277" r="0.277" transform="translate(-1803.743 2284.335)" fill="#f2f2f2"/>
      <circle id="Ellipse_71" data-name="Ellipse 71" cx="0.277" cy="0.277" r="0.277" transform="translate(-1800.787 2283.781)" fill="#f2f2f2"/>
      <circle id="Ellipse_72" data-name="Ellipse 72" cx="0.277" cy="0.277" r="0.277" transform="translate(-1803.91 2283.337)" fill="#f2f2f2"/>
      <circle id="Ellipse_73" data-name="Ellipse 73" cx="0.277" cy="0.277" r="0.277" transform="translate(-1801.6 2285.691)" fill="#f2f2f2"/>
      <circle id="Ellipse_74" data-name="Ellipse 74" cx="0.277" cy="0.277" r="0.277" transform="translate(-1803.743 2285.333)" fill="#f2f2f2"/>
      <path id="Path_520" data-name="Path 520" d="M964.855,715.407l-3.769,1.275s-2-2-1.441-2.6a5.583,5.583,0,0,0,.6-2.032c.051-.286.1-.577.136-.855.131-.9.206-1.658.206-1.658s4.378-2.106,3.658,0a5.188,5.188,0,0,0-.207,1.842,12.226,12.226,0,0,0,.234,1.844A17.553,17.553,0,0,0,964.855,715.407Z" transform="translate(-2786.74 1574.74)" fill="#fbbebe"/>
      <path id="Path_521" data-name="Path 521" d="M964.855,725.53l-3.769,1.275s-2-2-1.441-2.6a5.583,5.583,0,0,0,.6-2.032,3.939,3.939,0,0,1,.44,1.228c3.255,1.788,3.311.72,3.311.72a1.978,1.978,0,0,1,.276-.775,17.573,17.573,0,0,0,.583,2.188Z" transform="translate(-2786.74 1564.617)" opacity="0.1"/>
      <path id="Path_522" data-name="Path 522" d="M946.316,727.83a4.96,4.96,0,0,1-2.563.554,10.081,10.081,0,0,0-1.491.168,18.623,18.623,0,0,1-6.113.165,13.267,13.267,0,0,1-1.555-.305c-1.967-.541-.471-1.787-.471-1.787s.094-.082.257-.205a5.371,5.371,0,0,1,2.168-1.029c1.233-.194,2.369-2.383,2.369-2.383l.776-1.4c1.2-1.039,1.622,1.4,1.622,1.4,3.255,1.788,3.311.72,3.311.72.181-.957.513-.957.513-.957s.811,2.185,1.105,2.73a.543.543,0,0,0,.072.111A8.448,8.448,0,0,1,946.316,727.83Z" transform="translate(-2767.369 1565.227)" fill="#2d2d2d"/>
      <circle id="Ellipse_75" data-name="Ellipse 75" cx="0.277" cy="0.277" r="0.277" transform="translate(-1826.346 2288.873)" fill="#f2f2f2"/>
      <circle id="Ellipse_76" data-name="Ellipse 76" cx="0.277" cy="0.277" r="0.277" transform="translate(-1827.933 2289.649)" fill="#f2f2f2"/>
      <circle id="Ellipse_77" data-name="Ellipse 77" cx="0.277" cy="0.277" r="0.277" transform="translate(-1827.08 2289.251)" fill="#f2f2f2"/>
      <circle id="Ellipse_78" data-name="Ellipse 78" cx="0.277" cy="0.277" r="0.277" transform="translate(-1828.826 2290.106)" fill="#f2f2f2"/>
      <path id="Path_523" data-name="Path 523" d="M966.691,709.533a5.188,5.188,0,0,0-.207,1.842,10.654,10.654,0,0,0-3.657-.184c.131-.9.206-1.658.206-1.658S967.412,707.426,966.691,709.533Z" transform="translate(-2789.186 1574.74)" opacity="0.1"/>
      <path id="Path_524" data-name="Path 524" d="M1057.657,680.94c-1.362,1.336-2.665,1.419-3.575,1.034l.293-2.466s3.147-1.6,2.937-1A9.724,9.724,0,0,0,1057.657,680.94Z" transform="translate(-2857.252 1597.284)" opacity="0.1"/>
      <path id="Path_525" data-name="Path 525" d="M957.429,509.451a5.551,5.551,0,0,0-2.55,3.6c-.388,2.383-1.053,5.431-1.552,5.985s-2.051,2.328-1.441,3.27.72,4.156.72,4.156-.222,2.882.388,3.824,1.108,6.928-.222,8.7a35.412,35.412,0,0,0-.277,4.489c.166.388-.72,1.385-.443,2.217s1.607,16.127,1.441,16.737c0,0,4.212-.61,5.32.388a10.917,10.917,0,0,0,0-2.826,22.644,22.644,0,0,1,.665-6.927,19.967,19.967,0,0,0,.443-6.041s.887-3.935.554-4.711,1.441-7.925,1.441-7.925.887-1.718.665-1.94c0,0,1.441-.942,1.275-1.663s1.33-1.552,1.33-1.552A30.26,30.26,0,0,0,966.961,533c.443.5.461,3.713,1.006,4.378s1.266,4.156,1.986,5.1,3.6,3.436,4.046,6.262c0,0,2.6,4.046,2.494,5.32s2.937,3.6,5.875-.72a3.84,3.84,0,0,1-1.552-3.159c0-2.161-2.328-9.089-2.328-9.089s-1.33-1.94-.831-2.882.055-3.713.055-3.713l1.053-1.718s.166-1.663.333-3.381-1-3.6-.443-4.434-.222-4.985-.222-4.985-.69-7.159-1.718-7.6S957.429,509.451,957.429,509.451Z" transform="translate(-2780.921 1723.281)" fill="#141414"/>
      <path id="Path_526" data-name="Path 526" d="M971.805,419.221s-1.138.13-2.521.26a22.5,22.5,0,0,1-4.809.183c-.505-.333,0-4.544,0-4.544s.174-4.6.008-7.814a6.981,6.981,0,0,1,2.247-5.153c.153-.146.247-.223.247-.223l.554.443,3.159,5.376Z" transform="translate(-2790.247 1803.48)" fill="#fbbebe"/>
      <path id="Path_527" data-name="Path 527" d="M1006.332,373.76l-3.1,1.884-5.1,3.879s-5.265-2.771-3.935-4.378a2.492,2.492,0,0,0,.487-1.087,10.619,10.619,0,0,0-.487-4.51s6.936-9.367,6.54-2.106c-.16,2.917.713,4.51,1.813,5.372A5.388,5.388,0,0,0,1006.332,373.76Z" transform="translate(-2812.422 1831.262)" fill="#fbbebe"/>
      <path id="Path_528" data-name="Path 528" d="M1006.332,373.76l-3.1,1.884-5.1,3.879s-5.265-2.771-3.935-4.378a2.492,2.492,0,0,0,.487-1.087,10.619,10.619,0,0,0-.487-4.51s6.936-9.367,6.54-2.106c-.16,2.917.713,4.51,1.813,5.372A5.388,5.388,0,0,0,1006.332,373.76Z" transform="translate(-2812.422 1831.262)" opacity="0.1"/>
      <ellipse id="Ellipse_79" data-name="Ellipse 79" cx="6.418" cy="6.8" rx="6.418" ry="6.8" transform="translate(-1822.03 2189.893)" opacity="0.1"/>
      <ellipse id="Ellipse_80" data-name="Ellipse 80" cx="6.418" cy="6.8" rx="6.418" ry="6.8" transform="translate(-1822.03 2189.671)" fill="#fbbebe"/>
      <path id="Path_529" data-name="Path 529" d="M1006.332,397.629l-3.1,1.884-5.1,3.879s-5.265-2.771-3.935-4.378a2.492,2.492,0,0,0,.487-1.087c5.808,4.966,7.573-.174,7.866-1.244A5.388,5.388,0,0,0,1006.332,397.629Z" transform="translate(-2812.422 1807.394)" opacity="0.1"/>
      <path id="Path_530" data-name="Path 530" d="M978.617,419.221s-1.138.13-2.521.26c-.054-1.193-.235-2.542-.2-3.364.055-1.385.055-1.552-.388-2.328a3.769,3.769,0,0,1-.333-2.383c.053-.955-.2-1.148-1.1-2.675l-.121-.207a7.808,7.808,0,0,1-.572-3.435.032.032,0,0,0,0-.014c0-.309,0-.614.016-.9,0-.012,0-.024,0-.037.032-.878.1-1.626.142-1.982.153-.146.247-.223.247-.223l.554.443,3.159,5.376Z" transform="translate(-2797.059 1803.48)" opacity="0.1"/>
      <path id="Path_531" data-name="Path 531" d="M991.142,397.765s.669.507.665.506c-2.006-.866-3.145,3.495-3.449,4.867-.057.253-.084.4-.084.4s.035.368.08.953c.15,1.96.407,6.348-.191,7.415a1.654,1.654,0,0,0-.143.356,7.5,7.5,0,0,0-.069,2.569,25.749,25.749,0,0,0,.489,2.894s1.33,3.381.776,5.6a8.223,8.223,0,0,0-.162,2.514,14.87,14.87,0,0,0,.351,2.293c.052.221.088.347.088.347q-1.254.429-2.451.712a23.775,23.775,0,0,1-4.74.642,21.042,21.042,0,0,1-13.662-4.332c-.093-.078-.163-.139-.207-.181-.776-.72.72-1.275.554-1.773s.758-1.607.758-1.607-.2-1.829.627-2.217,1.441-1.718,1.91-2.826-.081-3.99-.026-5.376.055-1.552-.388-2.328a3.769,3.769,0,0,1-.333-2.383c.053-.955-.2-1.148-1.1-2.675l-.121-.207c-.441-.76.246-2.07.242-3.369,0,0,.255,0,.254,0,0-.309-.519-.726-.508-1.016,0-.012-.254-.242-.254-.254a8.236,8.236,0,0,0-.122-1.955c4.434-2.272,5.487.1,5.487.1,6.484,5.581,7.956-1.393,7.956-1.393,3.529-1.206,8.171,2.043,8.436,2.231Z" transform="translate(-2793.199 1808.075)" fill="#d0cde1"/>
      <path id="Path_532" data-name="Path 532" d="M964.566,466.378s-.555,2.96,1.05,4.611a1.8,1.8,0,0,0,2.087.359,2.827,2.827,0,0,0,1.352-1.149C969.5,469.215,968.113,464.41,964.566,466.378Z" transform="translate(-2790.413 1755.759)" fill="#fbbebe"/>
      <path id="Path_533" data-name="Path 533" d="M1046.31,437.523a1.654,1.654,0,0,0-.143.356l.254-6.48.08-1.291C1046.651,432.068,1046.907,436.456,1046.31,437.523Z" transform="translate(-2851.348 1782.463)" opacity="0.1"/>
      <path id="Path_534" data-name="Path 534" d="M1024.878,479.292a8.22,8.22,0,0,0-.162,2.514c-.359.651-.666,1.2-.866,1.562l-.247.441a10.476,10.476,0,0,0-.9,1.349,2.607,2.607,0,0,0-.376,1.1c0,.852-.859,6.533-4.932,5.12-2.63-.912-.951-3.708.569-5.574a20.871,20.871,0,0,1,1.62-1.769s.47-.6.921-1.225a7.439,7.439,0,0,0,.8-1.269c.194-.554,1.473-2.993,1.473-2.993s1.27-2.688.993-3.935a23.978,23.978,0,0,1-.156-3.808,25.722,25.722,0,0,0,.489,2.894S1025.432,477.075,1024.878,479.292Z" transform="translate(-2828.861 1752.11)" opacity="0.1"/>
      <path id="Path_535" data-name="Path 535" d="M1027.151,405.461s2,1.385,1.94,4.988-.72,9.837-.72,9.837l-.416,3.879a7.946,7.946,0,0,0-.443,2.051c.083.471-4.352,8.368-4.352,8.368a6.247,6.247,0,0,0-1.275,2.446c0,.852-.859,6.532-4.932,5.119s2.189-7.343,2.189-7.343a19.407,19.407,0,0,0,1.718-2.494c.194-.554,1.474-2.993,1.474-2.993s1.27-2.688.993-3.935a42.812,42.812,0,0,1-.111-5.774l.277-7.083.111-1.8S1024.628,404.741,1027.151,405.461Z" transform="translate(-2828.53 1800.891)" fill="#fbbebe"/>
      <path id="Path_536" data-name="Path 536" d="M976.466,454.2l3.024-1.1a1.431,1.431,0,0,1,1.472.3l4.013,3.791s.222.608-.074.581-4.618-4.35-4.618-4.35L976,454.866h0A.712.712,0,0,1,976.466,454.2Z" transform="translate(-2799.009 1765.378)" fill="#038d08"/>
      <path id="Path_537" data-name="Path 537" d="M937.689,316.618l4.156-1.506-4.618-4.35-4.286,1.441Z" transform="translate(-2755.952 1908.042)" fill="#4b4b5b"/>
      <circle id="Ellipse_81" data-name="Ellipse 81" cx="0.369" cy="0.369" r="0.369" transform="translate(-1824.877 2236.372)" fill="#f2f2f2"/>
      <circle id="Ellipse_82" data-name="Ellipse 82" cx="0.369" cy="0.369" r="0.369" transform="translate(-1827.39 2241.119)" fill="#f2f2f2"/>
      <circle id="Ellipse_83" data-name="Ellipse 83" cx="0.369" cy="0.369" r="0.369" transform="translate(-1807.32 2242.845)" fill="#f2f2f2"/>
      <circle id="Ellipse_84" data-name="Ellipse 84" cx="0.369" cy="0.369" r="0.369" transform="translate(-1805.23 2249.552)" fill="#f2f2f2"/>
      <circle id="Ellipse_85" data-name="Ellipse 85" cx="0.369" cy="0.369" r="0.369" transform="translate(-1806.043 2247.664)" fill="#f2f2f2"/>
      <circle id="Ellipse_86" data-name="Ellipse 86" cx="0.369" cy="0.369" r="0.369" transform="translate(-1806.75 2245.254)" fill="#f2f2f2"/>
      <circle id="Ellipse_87" data-name="Ellipse 87" cx="0.369" cy="0.369" r="0.369" transform="translate(-1826.217 2238.619)" fill="#f2f2f2"/>
      <circle id="Ellipse_88" data-name="Ellipse 88" cx="0.369" cy="0.369" r="0.369" transform="translate(-1828.855 2243.584)" fill="#f2f2f2"/>
      <path id="Path_538" data-name="Path 538" d="M996.319,398.268v0c-2.006-.866-3.145,3.495-3.449,4.867l-3.151-4.51s-1.292,2.068-5.468,2.383a4.792,4.792,0,0,1-5.191-3.178c-.573-.044-3.168,4.626-4.11,6.3l-.121-.207a7.807,7.807,0,0,1-.572-3.435.031.031,0,0,0,0-.014c0-.3.009-.6.015-.9,0-.012,0-.024,0-.037.045-1.23.167-2.2.167-2.2,4.434-2.272,5.487.1,5.487.1,6.484,5.581,7.956-1.393,7.956-1.393C991.412,394.831,996.055,398.08,996.319,398.268Z" transform="translate(-2797.71 1808.075)" fill="#8f8d98"/>
      <path id="Path_539" data-name="Path 539" d="M964.293,565.065c.055.139,4.711,5.514,6.429,5.791S964.293,565.065,964.293,565.065Z" transform="translate(-2790.279 1681.799)" opacity="0.1"/>
      <path id="Path_540" data-name="Path 540" d="M973.162,532.617s.047,3.79-1.117,4.646S973.162,532.617,973.162,532.617Z" transform="translate(-2795.814 1706.002)" opacity="0.1"/>
      <path id="Path_541" data-name="Path 541" d="M984.671,537.913s-.111,4.461,1.552,5.514C986.223,543.427,983.175,540.462,984.671,537.913Z" transform="translate(-2805.17 1702.052)" opacity="0.1"/>
      <path id="Path_542" data-name="Path 542" d="M965.883,628.095s-3.1,2.3-3.963,2.466S965.883,628.095,965.883,628.095Z" transform="translate(-2788.432 1634.786)" opacity="0.1"/>
      <path id="Path_543" data-name="Path 543" d="M973.6,328.952a1.553,1.553,0,0,0,.255,2.279,4.09,4.09,0,0,0,2.491.652,22.727,22.727,0,0,1,5.023.36,4.072,4.072,0,0,1,1.927.987,4.336,4.336,0,0,1,1,1.992,10.91,10.91,0,0,1,.343,3.34,11.582,11.582,0,0,0-.05,2.265,7.243,7.243,0,0,0,.707,2.015,83.727,83.727,0,0,0,4.281,7.942,1.479,1.479,0,0,0,.558.61,1.509,1.509,0,0,0,1.27-.2,9.543,9.543,0,0,1-.392-2.407,1.076,1.076,0,0,0,1.137-.4,3.155,3.155,0,0,0,.518-1.165l.746-2.569c.231-.795.573-1.706,1.366-1.94a4.947,4.947,0,0,0,.838-.2,1.073,1.073,0,0,0,.518-1.057,2.283,2.283,0,0,0-.5-1.128c-1.122-1.509-2.993-2.4-3.868-4.069a7.664,7.664,0,0,1-.373-4.745,12.4,12.4,0,0,0,.212-4.806,6.368,6.368,0,0,0-2.471-3.54,9.969,9.969,0,0,0-4.042-1.662,4.036,4.036,0,0,0-2.043.014c-.5.17-.935.506-1.427.709-1.117.46-2.405.185-3.578.478a4.811,4.811,0,0,0-2.646,1.912,10.15,10.15,0,0,0-1.386,3.014c-.216.7.13.987-.5,1.37" transform="translate(-2796.928 1863.553)" opacity="0.1"/>
      <path id="Path_544" data-name="Path 544" d="M974.04,328.08a1.553,1.553,0,0,0,.255,2.279,4.089,4.089,0,0,0,2.491.652,22.728,22.728,0,0,1,5.024.36,4.073,4.073,0,0,1,1.927.987,4.337,4.337,0,0,1,1,1.992,10.91,10.91,0,0,1,.343,3.34,11.591,11.591,0,0,0-.05,2.265,7.243,7.243,0,0,0,.707,2.015,83.717,83.717,0,0,0,4.281,7.942,1.478,1.478,0,0,0,.558.61,1.509,1.509,0,0,0,1.271-.2,9.538,9.538,0,0,1-.392-2.407,1.076,1.076,0,0,0,1.137-.4,3.156,3.156,0,0,0,.518-1.165l.746-2.569c.231-.795.573-1.706,1.366-1.94a4.948,4.948,0,0,0,.838-.2,1.073,1.073,0,0,0,.518-1.057,2.284,2.284,0,0,0-.5-1.128c-1.122-1.509-2.993-2.4-3.868-4.069a7.664,7.664,0,0,1-.373-4.745,12.4,12.4,0,0,0,.212-4.806,6.368,6.368,0,0,0-2.471-3.54,9.97,9.97,0,0,0-4.042-1.662,4.036,4.036,0,0,0-2.043.014c-.5.17-.935.507-1.427.709-1.117.46-2.405.185-3.578.478a4.811,4.811,0,0,0-2.646,1.912,10.15,10.15,0,0,0-1.386,3.014c-.216.7.13.987-.5,1.37" transform="translate(-2797.253 1864.204)" fill="#141414"/>
      <path id="Path_545" data-name="Path 545" d="M972.471,463.3s5.071-3.381,6.512-1.3-4.461,4.628-4.461,4.628Z" transform="translate(-2796.378 1759.181)" fill="#fbbebe"/>
      <path id="Path_546" data-name="Path 546" d="M978.223,396.171c-.019.326-.081.725-.263.785.473-.011.94.337,1.409.233a1.436,1.436,0,0,0,.89-.917.428.428,0,0,1,.119-.2c.049-.029.1,0,.152.029a14.793,14.793,0,0,1,2.551,1.926c.26.242.548.5.833.378a6.359,6.359,0,0,0-.544-2.667,3.407,3.407,0,0,0-1.453-1.589,4.449,4.449,0,0,0-1.708-.445,1.711,1.711,0,0,1-.736-.183c-.252-.148-1.056-1.109-1.237-.409a7.681,7.681,0,0,0,.028,1.432Q978.269,395.36,978.223,396.171Z" transform="translate(-2800.473 1810.243)" fill="#141414"/>
      <g id="Group_65" data-name="Group 65" transform="translate(-1823.577 2187.455)" opacity="0.1">
        <path id="Path_547" data-name="Path 547" d="M991.146,371.865a1.479,1.479,0,0,1-.558-.61,83.73,83.73,0,0,1-4.281-7.942,7.244,7.244,0,0,1-.707-2.015,11.582,11.582,0,0,1,.05-2.265,10.909,10.909,0,0,0-.343-3.34,4.336,4.336,0,0,0-1-1.992,4.073,4.073,0,0,0-1.927-.987,22.727,22.727,0,0,0-5.023-.36,4.09,4.09,0,0,1-2.491-.652,1.721,1.721,0,0,1-.569-1.826,1.1,1.1,0,0,1-.142.113,1.558,1.558,0,0,0,.267,2.267,4.09,4.09,0,0,0,2.491.652,22.726,22.726,0,0,1,5.023.36,4.072,4.072,0,0,1,1.927.987,4.336,4.336,0,0,1,1,1.992,10.912,10.912,0,0,1,.343,3.34,11.582,11.582,0,0,0-.05,2.265,7.245,7.245,0,0,0,.707,2.015,83.713,83.713,0,0,0,4.281,7.942,1.479,1.479,0,0,0,.558.61,1.509,1.509,0,0,0,1.27-.2c-.033-.111-.064-.224-.093-.336A1.012,1.012,0,0,1,991.146,371.865Z" transform="translate(-973.77 -345.149)"/>
        <path id="Path_548" data-name="Path 548" d="M974.989,350.334c.027-.016.05-.032.073-.048l.012-.012Z" transform="translate(-974.679 -345.446)"/>
        <path id="Path_549" data-name="Path 549" d="M976.652,335.559c-.023.016-.046.032-.073.048l.085-.06-.012.012c.526-.359.219-.647.426-1.321a10.252,10.252,0,0,1,1.353-2.965,5.886,5.886,0,0,0-.41.505,10.151,10.151,0,0,0-1.386,3.014,4.717,4.717,0,0,0-.109.9A1.064,1.064,0,0,1,976.652,335.559Z" transform="translate(-975.826 -331.272)"/>
        <path id="Path_550" data-name="Path 550" d="M1058.549,401.475a4.947,4.947,0,0,1-.838.2,1.616,1.616,0,0,0-.927.819,1.331,1.331,0,0,1,.484-.264,4.947,4.947,0,0,0,.838-.2.945.945,0,0,0,.459-.563Z" transform="translate(-1035.689 -383.629)"/>
        <path id="Path_551" data-name="Path 551" d="M1045.61,425.618q.01.288.037.575a1.248,1.248,0,0,0,.657-.418,1.847,1.847,0,0,0,.22-.343A.988.988,0,0,1,1045.61,425.618Z" transform="translate(-1027.355 -401.505)"/>
      </g>
      <path id="Path_552" data-name="Path 552" d="M967.644,465.221a5.437,5.437,0,0,1,2.123-.421" transform="translate(-2792.778 1756.599)" opacity="0.1"/>
      <path id="Path_553" data-name="Path 553" d="M982.816,490.477s.679,1.053,4.11,1.5S982.816,490.477,982.816,490.477Z" transform="translate(-2804.095 1737.434)" opacity="0.1"/>
      <path id="Path_554" data-name="Path 554" d="M977.96,505.962A9.73,9.73,0,0,0,986,507.68C990.947,506.682,977.96,505.962,977.96,505.962Z" transform="translate(-2800.473 1725.884)" opacity="0.1"/>
      <path id="Path_555" data-name="Path 555" d="M224.367,369.756c0,6.64,4.363,12.378,10.689,15.1l-9.047-21.925A15.09,15.09,0,0,0,224.367,369.756Zm31.769-.847a8.133,8.133,0,0,0-1.564-4.627c-.961-1.382-1.862-2.552-1.862-3.934a3.086,3.086,0,0,1,3.184-2.978c.084,0,.164.009.246.013a20.322,20.322,0,0,0-12.807-4.4,19.675,19.675,0,0,0-15.846,7.561c.445.012.865.02,1.22.02,1.984,0,5.054-.213,5.054-.213a.7.7,0,1,1,.122,1.382s-1.028.107-2.171.16l6.906,18.171,4.151-11.01-2.955-7.161c-1.021-.053-1.989-.16-1.989-.16a.7.7,0,1,1,.12-1.382s3.132.213,5,.213c1.983,0,5.054-.213,5.054-.213a.7.7,0,1,1,.122,1.382s-1.03.107-2.171.16l6.854,18.033,1.891-5.592c.82-2.32,1.444-3.987,1.444-5.423Z" transform="translate(-2238.375 1839.991)" fill="#038d08"/>
      <path id="Path_556" data-name="Path 556" d="M283.608,396.841l-5.69,14.625a21.332,21.332,0,0,0,11.656-.267,1.368,1.368,0,0,1-.135-.231Zm16.309-9.516a11.411,11.411,0,0,1,.128,1.725,14.267,14.267,0,0,1-1.442,6.009l-5.793,14.815c5.638-2.908,9.431-8.311,9.431-14.5A15.191,15.191,0,0,0,299.917,387.325Z" transform="translate(-2278.318 1814.374)" fill="#038d08"/>
    </g>
    <g id="Group_219" data-name="Group 219" transform="translate(2323.462 386)">
      <rect id="Rectangle_167-2" data-name="Rectangle 167" width="114.858" height="23.632" transform="translate(-1938.895 2164.294)" fill="none" stroke="#3f3d56" stroke-miterlimit="10" stroke-width="1"/>
      <path id="Path_491-2" data-name="Path 491" d="M250.224,347.071a19.575,19.575,0,0,1,16.587-8.571c10.526,0,19.058,7.566,19.058,16.9,0,5.967-3.488,11.212-8.755,14.218" transform="translate(-2257.661 1850.792)" fill="none" stroke="#3f3d56" stroke-miterlimit="10" stroke-width="1"/>
      <rect id="Rectangle_168-2" data-name="Rectangle 168" width="114.858" height="23.632" transform="translate(-1947.027 2168.868)" fill="#038d08"/>
      <circle id="Ellipse_61-2" data-name="Ellipse 61" cx="1.779" cy="1.779" r="1.779" transform="translate(-2021.413 2142.758)" fill="#038d08"/>
      <circle id="Ellipse_62-2" data-name="Ellipse 62" cx="1.779" cy="1.779" r="1.779" transform="translate(-2015.314 2142.758)" fill="#038d08"/>
      <circle id="Ellipse_63-2" data-name="Ellipse 63" cx="1.779" cy="1.779" r="1.779" transform="translate(-2009.215 2142.758)" fill="#038d08"/>
      <rect id="Rectangle_169-2" data-name="Rectangle 169" width="213.452" height="138.744" transform="translate(-2024.462 2139.963)" fill="none" stroke="#3f3d56" stroke-miterlimit="10" stroke-width="1"/>
      <line id="Line_13-2" data-name="Line 13" x2="213.452" transform="translate(-2024.462 2147.671)" fill="none" stroke="#3f3d56" stroke-miterlimit="10" stroke-width="1"/>
      <circle id="Ellipse_64-2" data-name="Ellipse 64" cx="1.779" cy="1.779" r="1.779" transform="translate(-2020.904 2141.996)" fill="none" stroke="#3f3d56" stroke-miterlimit="10" stroke-width="1"/>
      <circle id="Ellipse_65-2" data-name="Ellipse 65" cx="1.779" cy="1.779" r="1.779" transform="translate(-2014.806 2141.996)" fill="none" stroke="#3f3d56" stroke-miterlimit="10" stroke-width="1"/>
      <circle id="Ellipse_66-2" data-name="Ellipse 66" cx="1.779" cy="1.779" r="1.779" transform="translate(-2008.707 2141.996)" fill="none" stroke="#3f3d56" stroke-miterlimit="10" stroke-width="1"/>
      <line id="Line_14-2" data-name="Line 14" y2="131.233" transform="translate(-1957.446 2147.671)" fill="none" stroke="#3f3d56" stroke-miterlimit="10" stroke-width="1"/>
      <rect id="Rectangle_170-2" data-name="Rectangle 170" width="37.354" height="5.082" transform="translate(-1933.432 2212.194)" fill="#f2f2f2"/>
      <rect id="Rectangle_171-2" data-name="Rectangle 171" width="37.354" height="5.082" transform="translate(-1874.733 2212.194)" fill="#f2f2f2"/>
      <rect id="Rectangle_172-2" data-name="Rectangle 172" width="37.354" height="5.082" transform="translate(-1931.399 2209.653)" fill="none" stroke="#3f3d56" stroke-miterlimit="10" stroke-width="1"/>
      <rect id="Rectangle_173-2" data-name="Rectangle 173" width="37.354" height="5.082" transform="translate(-1933.432 2251.581)" fill="#f2f2f2"/>
      <rect id="Rectangle_174-2" data-name="Rectangle 174" width="37.354" height="5.082" transform="translate(-1931.399 2249.04)" fill="none" stroke="#3f3d56" stroke-miterlimit="10" stroke-width="1"/>
      <rect id="Rectangle_175-2" data-name="Rectangle 175" width="96.053" height="5.082" transform="translate(-1933.305 2231.379)" fill="#f2f2f2"/>
      <rect id="Rectangle_176-2" data-name="Rectangle 176" width="96.053" height="5.082" transform="translate(-1931.272 2229.346)" fill="none" stroke="#3f3d56" stroke-miterlimit="10" stroke-width="1"/>
      <rect id="Rectangle_177-2" data-name="Rectangle 177" width="37.354" height="5.082" transform="translate(-1872.7 2209.653)" fill="none" stroke="#3f3d56" stroke-miterlimit="10" stroke-width="1"/>
      <path id="Path_515-2" data-name="Path 515" d="M973.978,352.6a5.217,5.217,0,0,0,.305.8,13.459,13.459,0,0,1,.166,10.13,19.632,19.632,0,0,1,2.733.161,5.784,5.784,0,0,0,2.7-.3,2.742,2.742,0,0,0,1.707-2.063c.167-1.272-.759-2.382-1.572-3.348a7.628,7.628,0,0,1-1.874-3.353c-.269-1.411.114-3.065-.777-4.164a.861.861,0,0,0-.3-.253,3.4,3.4,0,0,0-2.207.059A2.252,2.252,0,0,0,973.978,352.6Z" transform="translate(-2797.466 1842.171)" fill="#141414"/>
      <path id="Path_516-2" data-name="Path 516" d="M1052.062,697.636a6.409,6.409,0,0,1-.3,1.247s-.923,2.125-4.721,1.552c-2.48-.375-2.464-1.537-2.053-2.437a5.814,5.814,0,0,1,.677-1.054c.369-.5.333-2.4.462-4.138s.913-1.826.913-1.826l.047,1.954c1.479-1.94,2.513.333,2.513.333s2.1.044,1.845-1.034c-.274-1.148-.683-2.966-.683-2.966s1.017.472,1.2.8a26.124,26.124,0,0,1-.2,5.209,3.032,3.032,0,0,0,.24,1.9A.725.725,0,0,1,1052.062,697.636Z" transform="translate(-2850.315 1589.159)" fill="#2d2d2d"/>
      <path id="Path_517-2" data-name="Path 517" d="M1057.477,683.993a2.07,2.07,0,0,1-1.448,1.973,2.788,2.788,0,0,1-2.435-.371,1.43,1.43,0,0,1-.6-1.34l.059-.491.213-1.79.293-2.466s3.147-1.6,2.937-1a9.626,9.626,0,0,0,.345,2.43c.177.848.392,1.781.582,2.573A2.046,2.046,0,0,1,1057.477,683.993Z" transform="translate(-2856.432 1597.284)" fill="#fbbebe"/>
      <path id="Path_518-2" data-name="Path 518" d="M1052.26,696.024s2.725-3.2,4.955.291l-.374,2.237h-4.581Z" transform="translate(-2855.892 1585.118)" opacity="0.1"/>
      <path id="Path_519-2" data-name="Path 519" d="M1052.26,696.9s2.725-3.2,4.955.291l-.374,2.237h-4.581Z" transform="translate(-2855.892 1584.467)" fill="#3f3d56"/>
      <circle id="Ellipse_67-2" data-name="Ellipse 67" cx="0.277" cy="0.277" r="0.277" transform="translate(-1800.368 2282.783)" fill="#f2f2f2"/>
      <circle id="Ellipse_68-2" data-name="Ellipse 68" cx="0.277" cy="0.277" r="0.277" transform="translate(-1803.91 2282.339)" fill="#f2f2f2"/>
      <circle id="Ellipse_69-2" data-name="Ellipse 69" cx="0.277" cy="0.277" r="0.277" transform="translate(-1801.323 2284.661)" fill="#f2f2f2"/>
      <circle id="Ellipse_70-2" data-name="Ellipse 70" cx="0.277" cy="0.277" r="0.277" transform="translate(-1803.743 2284.335)" fill="#f2f2f2"/>
      <circle id="Ellipse_71-2" data-name="Ellipse 71" cx="0.277" cy="0.277" r="0.277" transform="translate(-1800.787 2283.781)" fill="#f2f2f2"/>
      <circle id="Ellipse_72-2" data-name="Ellipse 72" cx="0.277" cy="0.277" r="0.277" transform="translate(-1803.91 2283.337)" fill="#f2f2f2"/>
      <circle id="Ellipse_73-2" data-name="Ellipse 73" cx="0.277" cy="0.277" r="0.277" transform="translate(-1801.6 2285.691)" fill="#f2f2f2"/>
      <circle id="Ellipse_74-2" data-name="Ellipse 74" cx="0.277" cy="0.277" r="0.277" transform="translate(-1803.743 2285.333)" fill="#f2f2f2"/>
      <path id="Path_520-2" data-name="Path 520" d="M964.855,715.407l-3.769,1.275s-2-2-1.441-2.6a5.583,5.583,0,0,0,.6-2.032c.051-.286.1-.577.136-.855.131-.9.206-1.658.206-1.658s4.378-2.106,3.658,0a5.188,5.188,0,0,0-.207,1.842,12.226,12.226,0,0,0,.234,1.844A17.553,17.553,0,0,0,964.855,715.407Z" transform="translate(-2786.74 1574.74)" fill="#fbbebe"/>
      <path id="Path_521-2" data-name="Path 521" d="M964.855,725.53l-3.769,1.275s-2-2-1.441-2.6a5.583,5.583,0,0,0,.6-2.032,3.939,3.939,0,0,1,.44,1.228c3.255,1.788,3.311.72,3.311.72a1.978,1.978,0,0,1,.276-.775,17.573,17.573,0,0,0,.583,2.188Z" transform="translate(-2786.74 1564.617)" opacity="0.1"/>
      <path id="Path_522-2" data-name="Path 522" d="M946.316,727.83a4.96,4.96,0,0,1-2.563.554,10.081,10.081,0,0,0-1.491.168,18.623,18.623,0,0,1-6.113.165,13.267,13.267,0,0,1-1.555-.305c-1.967-.541-.471-1.787-.471-1.787s.094-.082.257-.205a5.371,5.371,0,0,1,2.168-1.029c1.233-.194,2.369-2.383,2.369-2.383l.776-1.4c1.2-1.039,1.622,1.4,1.622,1.4,3.255,1.788,3.311.72,3.311.72.181-.957.513-.957.513-.957s.811,2.185,1.105,2.73a.543.543,0,0,0,.072.111A8.448,8.448,0,0,1,946.316,727.83Z" transform="translate(-2767.369 1565.227)" fill="#2d2d2d"/>
      <circle id="Ellipse_75-2" data-name="Ellipse 75" cx="0.277" cy="0.277" r="0.277" transform="translate(-1826.346 2288.873)" fill="#f2f2f2"/>
      <circle id="Ellipse_76-2" data-name="Ellipse 76" cx="0.277" cy="0.277" r="0.277" transform="translate(-1827.933 2289.649)" fill="#f2f2f2"/>
      <circle id="Ellipse_77-2" data-name="Ellipse 77" cx="0.277" cy="0.277" r="0.277" transform="translate(-1827.08 2289.251)" fill="#f2f2f2"/>
      <circle id="Ellipse_78-2" data-name="Ellipse 78" cx="0.277" cy="0.277" r="0.277" transform="translate(-1828.826 2290.106)" fill="#f2f2f2"/>
      <path id="Path_523-2" data-name="Path 523" d="M966.691,709.533a5.188,5.188,0,0,0-.207,1.842,10.654,10.654,0,0,0-3.657-.184c.131-.9.206-1.658.206-1.658S967.412,707.426,966.691,709.533Z" transform="translate(-2789.186 1574.74)" opacity="0.1"/>
      <path id="Path_524-2" data-name="Path 524" d="M1057.657,680.94c-1.362,1.336-2.665,1.419-3.575,1.034l.293-2.466s3.147-1.6,2.937-1A9.724,9.724,0,0,0,1057.657,680.94Z" transform="translate(-2857.252 1597.284)" opacity="0.1"/>
      <path id="Path_525-2" data-name="Path 525" d="M957.429,509.451a5.551,5.551,0,0,0-2.55,3.6c-.388,2.383-1.053,5.431-1.552,5.985s-2.051,2.328-1.441,3.27.72,4.156.72,4.156-.222,2.882.388,3.824,1.108,6.928-.222,8.7a35.412,35.412,0,0,0-.277,4.489c.166.388-.72,1.385-.443,2.217s1.607,16.127,1.441,16.737c0,0,4.212-.61,5.32.388a10.917,10.917,0,0,0,0-2.826,22.644,22.644,0,0,1,.665-6.927,19.967,19.967,0,0,0,.443-6.041s.887-3.935.554-4.711,1.441-7.925,1.441-7.925.887-1.718.665-1.94c0,0,1.441-.942,1.275-1.663s1.33-1.552,1.33-1.552A30.26,30.26,0,0,0,966.961,533c.443.5.461,3.713,1.006,4.378s1.266,4.156,1.986,5.1,3.6,3.436,4.046,6.262c0,0,2.6,4.046,2.494,5.32s2.937,3.6,5.875-.72a3.84,3.84,0,0,1-1.552-3.159c0-2.161-2.328-9.089-2.328-9.089s-1.33-1.94-.831-2.882.055-3.713.055-3.713l1.053-1.718s.166-1.663.333-3.381-1-3.6-.443-4.434-.222-4.985-.222-4.985-.69-7.159-1.718-7.6S957.429,509.451,957.429,509.451Z" transform="translate(-2780.921 1723.281)" fill="#141414"/>
      <path id="Path_526-2" data-name="Path 526" d="M971.805,419.221s-1.138.13-2.521.26a22.5,22.5,0,0,1-4.809.183c-.505-.333,0-4.544,0-4.544s.174-4.6.008-7.814a6.981,6.981,0,0,1,2.247-5.153c.153-.146.247-.223.247-.223l.554.443,3.159,5.376Z" transform="translate(-2790.247 1803.48)" fill="#fbbebe"/>
      <path id="Path_527-2" data-name="Path 527" d="M1006.332,373.76l-3.1,1.884-5.1,3.879s-5.265-2.771-3.935-4.378a2.492,2.492,0,0,0,.487-1.087,10.619,10.619,0,0,0-.487-4.51s6.936-9.367,6.54-2.106c-.16,2.917.713,4.51,1.813,5.372A5.388,5.388,0,0,0,1006.332,373.76Z" transform="translate(-2812.422 1831.262)" fill="#fbbebe"/>
      <path id="Path_528-2" data-name="Path 528" d="M1006.332,373.76l-3.1,1.884-5.1,3.879s-5.265-2.771-3.935-4.378a2.492,2.492,0,0,0,.487-1.087,10.619,10.619,0,0,0-.487-4.51s6.936-9.367,6.54-2.106c-.16,2.917.713,4.51,1.813,5.372A5.388,5.388,0,0,0,1006.332,373.76Z" transform="translate(-2812.422 1831.262)" opacity="0.1"/>
      <ellipse id="Ellipse_79-2" data-name="Ellipse 79" cx="6.418" cy="6.8" rx="6.418" ry="6.8" transform="translate(-1822.03 2189.893)" opacity="0.1"/>
      <ellipse id="Ellipse_80-2" data-name="Ellipse 80" cx="6.418" cy="6.8" rx="6.418" ry="6.8" transform="translate(-1822.03 2189.671)" fill="#fbbebe"/>
      <path id="Path_529-2" data-name="Path 529" d="M1006.332,397.629l-3.1,1.884-5.1,3.879s-5.265-2.771-3.935-4.378a2.492,2.492,0,0,0,.487-1.087c5.808,4.966,7.573-.174,7.866-1.244A5.388,5.388,0,0,0,1006.332,397.629Z" transform="translate(-2812.422 1807.394)" opacity="0.1"/>
      <path id="Path_530-2" data-name="Path 530" d="M978.617,419.221s-1.138.13-2.521.26c-.054-1.193-.235-2.542-.2-3.364.055-1.385.055-1.552-.388-2.328a3.769,3.769,0,0,1-.333-2.383c.053-.955-.2-1.148-1.1-2.675l-.121-.207a7.808,7.808,0,0,1-.572-3.435.032.032,0,0,0,0-.014c0-.309,0-.614.016-.9,0-.012,0-.024,0-.037.032-.878.1-1.626.142-1.982.153-.146.247-.223.247-.223l.554.443,3.159,5.376Z" transform="translate(-2797.059 1803.48)" opacity="0.1"/>
      <path id="Path_531-2" data-name="Path 531" d="M991.142,397.765s.669.507.665.506c-2.006-.866-3.145,3.495-3.449,4.867-.057.253-.084.4-.084.4s.035.368.08.953c.15,1.96.407,6.348-.191,7.415a1.654,1.654,0,0,0-.143.356,7.5,7.5,0,0,0-.069,2.569,25.749,25.749,0,0,0,.489,2.894s1.33,3.381.776,5.6a8.223,8.223,0,0,0-.162,2.514,14.87,14.87,0,0,0,.351,2.293c.052.221.088.347.088.347q-1.254.429-2.451.712a23.775,23.775,0,0,1-4.74.642,21.042,21.042,0,0,1-13.662-4.332c-.093-.078-.163-.139-.207-.181-.776-.72.72-1.275.554-1.773s.758-1.607.758-1.607-.2-1.829.627-2.217,1.441-1.718,1.91-2.826-.081-3.99-.026-5.376.055-1.552-.388-2.328a3.769,3.769,0,0,1-.333-2.383c.053-.955-.2-1.148-1.1-2.675l-.121-.207c-.441-.76.246-2.07.242-3.369,0,0,.255,0,.254,0,0-.309-.519-.726-.508-1.016,0-.012-.254-.242-.254-.254a8.236,8.236,0,0,0-.122-1.955c4.434-2.272,5.487.1,5.487.1,6.484,5.581,7.956-1.393,7.956-1.393,3.529-1.206,8.171,2.043,8.436,2.231Z" transform="translate(-2793.199 1808.075)" fill="#d0cde1"/>
      <path id="Path_532-2" data-name="Path 532" d="M964.566,466.378s-.555,2.96,1.05,4.611a1.8,1.8,0,0,0,2.087.359,2.827,2.827,0,0,0,1.352-1.149C969.5,469.215,968.113,464.41,964.566,466.378Z" transform="translate(-2790.413 1755.759)" fill="#fbbebe"/>
      <path id="Path_533-2" data-name="Path 533" d="M1046.31,437.523a1.654,1.654,0,0,0-.143.356l.254-6.48.08-1.291C1046.651,432.068,1046.907,436.456,1046.31,437.523Z" transform="translate(-2851.348 1782.463)" opacity="0.1"/>
      <path id="Path_534-2" data-name="Path 534" d="M1024.878,479.292a8.22,8.22,0,0,0-.162,2.514c-.359.651-.666,1.2-.866,1.562l-.247.441a10.476,10.476,0,0,0-.9,1.349,2.607,2.607,0,0,0-.376,1.1c0,.852-.859,6.533-4.932,5.12-2.63-.912-.951-3.708.569-5.574a20.871,20.871,0,0,1,1.62-1.769s.47-.6.921-1.225a7.439,7.439,0,0,0,.8-1.269c.194-.554,1.473-2.993,1.473-2.993s1.27-2.688.993-3.935a23.978,23.978,0,0,1-.156-3.808,25.722,25.722,0,0,0,.489,2.894S1025.432,477.075,1024.878,479.292Z" transform="translate(-2828.861 1752.11)" opacity="0.1"/>
      <path id="Path_535-2" data-name="Path 535" d="M1027.151,405.461s2,1.385,1.94,4.988-.72,9.837-.72,9.837l-.416,3.879a7.946,7.946,0,0,0-.443,2.051c.083.471-4.352,8.368-4.352,8.368a6.247,6.247,0,0,0-1.275,2.446c0,.852-.859,6.532-4.932,5.119s2.189-7.343,2.189-7.343a19.407,19.407,0,0,0,1.718-2.494c.194-.554,1.474-2.993,1.474-2.993s1.27-2.688.993-3.935a42.812,42.812,0,0,1-.111-5.774l.277-7.083.111-1.8S1024.628,404.741,1027.151,405.461Z" transform="translate(-2828.53 1800.891)" fill="#fbbebe"/>
      <path id="Path_536-2" data-name="Path 536" d="M976.466,454.2l3.024-1.1a1.431,1.431,0,0,1,1.472.3l4.013,3.791s.222.608-.074.581-4.618-4.35-4.618-4.35L976,454.866h0A.712.712,0,0,1,976.466,454.2Z" transform="translate(-2799.009 1765.378)" fill="#038d08"/>
      <path id="Path_537-2" data-name="Path 537" d="M937.689,316.618l4.156-1.506-4.618-4.35-4.286,1.441Z" transform="translate(-2755.952 1908.042)" fill="#4b4b5b"/>
      <circle id="Ellipse_81-2" data-name="Ellipse 81" cx="0.369" cy="0.369" r="0.369" transform="translate(-1824.877 2236.372)" fill="#f2f2f2"/>
      <circle id="Ellipse_82-2" data-name="Ellipse 82" cx="0.369" cy="0.369" r="0.369" transform="translate(-1827.39 2241.119)" fill="#f2f2f2"/>
      <circle id="Ellipse_83-2" data-name="Ellipse 83" cx="0.369" cy="0.369" r="0.369" transform="translate(-1807.32 2242.845)" fill="#f2f2f2"/>
      <circle id="Ellipse_84-2" data-name="Ellipse 84" cx="0.369" cy="0.369" r="0.369" transform="translate(-1805.23 2249.552)" fill="#f2f2f2"/>
      <circle id="Ellipse_85-2" data-name="Ellipse 85" cx="0.369" cy="0.369" r="0.369" transform="translate(-1806.043 2247.664)" fill="#f2f2f2"/>
      <circle id="Ellipse_86-2" data-name="Ellipse 86" cx="0.369" cy="0.369" r="0.369" transform="translate(-1806.75 2245.254)" fill="#f2f2f2"/>
      <circle id="Ellipse_87-2" data-name="Ellipse 87" cx="0.369" cy="0.369" r="0.369" transform="translate(-1826.217 2238.619)" fill="#f2f2f2"/>
      <circle id="Ellipse_88-2" data-name="Ellipse 88" cx="0.369" cy="0.369" r="0.369" transform="translate(-1828.855 2243.584)" fill="#f2f2f2"/>
      <path id="Path_538-2" data-name="Path 538" d="M996.319,398.268v0c-2.006-.866-3.145,3.495-3.449,4.867l-3.151-4.51s-1.292,2.068-5.468,2.383a4.792,4.792,0,0,1-5.191-3.178c-.573-.044-3.168,4.626-4.11,6.3l-.121-.207a7.807,7.807,0,0,1-.572-3.435.031.031,0,0,0,0-.014c0-.3.009-.6.015-.9,0-.012,0-.024,0-.037.045-1.23.167-2.2.167-2.2,4.434-2.272,5.487.1,5.487.1,6.484,5.581,7.956-1.393,7.956-1.393C991.412,394.831,996.055,398.08,996.319,398.268Z" transform="translate(-2797.71 1808.075)" fill="#8f8d98"/>
      <path id="Path_539-2" data-name="Path 539" d="M964.293,565.065c.055.139,4.711,5.514,6.429,5.791S964.293,565.065,964.293,565.065Z" transform="translate(-2790.279 1681.799)" opacity="0.1"/>
      <path id="Path_540-2" data-name="Path 540" d="M973.162,532.617s.047,3.79-1.117,4.646S973.162,532.617,973.162,532.617Z" transform="translate(-2795.814 1706.002)" opacity="0.1"/>
      <path id="Path_541-2" data-name="Path 541" d="M984.671,537.913s-.111,4.461,1.552,5.514C986.223,543.427,983.175,540.462,984.671,537.913Z" transform="translate(-2805.17 1702.052)" opacity="0.1"/>
      <path id="Path_542-2" data-name="Path 542" d="M965.883,628.095s-3.1,2.3-3.963,2.466S965.883,628.095,965.883,628.095Z" transform="translate(-2788.432 1634.786)" opacity="0.1"/>
      <path id="Path_543-2" data-name="Path 543" d="M973.6,328.952a1.553,1.553,0,0,0,.255,2.279,4.09,4.09,0,0,0,2.491.652,22.727,22.727,0,0,1,5.023.36,4.072,4.072,0,0,1,1.927.987,4.336,4.336,0,0,1,1,1.992,10.91,10.91,0,0,1,.343,3.34,11.582,11.582,0,0,0-.05,2.265,7.243,7.243,0,0,0,.707,2.015,83.727,83.727,0,0,0,4.281,7.942,1.479,1.479,0,0,0,.558.61,1.509,1.509,0,0,0,1.27-.2,9.543,9.543,0,0,1-.392-2.407,1.076,1.076,0,0,0,1.137-.4,3.155,3.155,0,0,0,.518-1.165l.746-2.569c.231-.795.573-1.706,1.366-1.94a4.947,4.947,0,0,0,.838-.2,1.073,1.073,0,0,0,.518-1.057,2.283,2.283,0,0,0-.5-1.128c-1.122-1.509-2.993-2.4-3.868-4.069a7.664,7.664,0,0,1-.373-4.745,12.4,12.4,0,0,0,.212-4.806,6.368,6.368,0,0,0-2.471-3.54,9.969,9.969,0,0,0-4.042-1.662,4.036,4.036,0,0,0-2.043.014c-.5.17-.935.506-1.427.709-1.117.46-2.405.185-3.578.478a4.811,4.811,0,0,0-2.646,1.912,10.15,10.15,0,0,0-1.386,3.014c-.216.7.13.987-.5,1.37" transform="translate(-2796.928 1863.553)" opacity="0.1"/>
      <path id="Path_544-2" data-name="Path 544" d="M974.04,328.08a1.553,1.553,0,0,0,.255,2.279,4.089,4.089,0,0,0,2.491.652,22.728,22.728,0,0,1,5.024.36,4.073,4.073,0,0,1,1.927.987,4.337,4.337,0,0,1,1,1.992,10.91,10.91,0,0,1,.343,3.34,11.591,11.591,0,0,0-.05,2.265,7.243,7.243,0,0,0,.707,2.015,83.717,83.717,0,0,0,4.281,7.942,1.478,1.478,0,0,0,.558.61,1.509,1.509,0,0,0,1.271-.2,9.538,9.538,0,0,1-.392-2.407,1.076,1.076,0,0,0,1.137-.4,3.156,3.156,0,0,0,.518-1.165l.746-2.569c.231-.795.573-1.706,1.366-1.94a4.948,4.948,0,0,0,.838-.2,1.073,1.073,0,0,0,.518-1.057,2.284,2.284,0,0,0-.5-1.128c-1.122-1.509-2.993-2.4-3.868-4.069a7.664,7.664,0,0,1-.373-4.745,12.4,12.4,0,0,0,.212-4.806,6.368,6.368,0,0,0-2.471-3.54,9.97,9.97,0,0,0-4.042-1.662,4.036,4.036,0,0,0-2.043.014c-.5.17-.935.507-1.427.709-1.117.46-2.405.185-3.578.478a4.811,4.811,0,0,0-2.646,1.912,10.15,10.15,0,0,0-1.386,3.014c-.216.7.13.987-.5,1.37" transform="translate(-2797.253 1864.204)" fill="#141414"/>
      <path id="Path_545-2" data-name="Path 545" d="M972.471,463.3s5.071-3.381,6.512-1.3-4.461,4.628-4.461,4.628Z" transform="translate(-2796.378 1759.181)" fill="#fbbebe"/>
      <path id="Path_546-2" data-name="Path 546" d="M978.223,396.171c-.019.326-.081.725-.263.785.473-.011.94.337,1.409.233a1.436,1.436,0,0,0,.89-.917.428.428,0,0,1,.119-.2c.049-.029.1,0,.152.029a14.793,14.793,0,0,1,2.551,1.926c.26.242.548.5.833.378a6.359,6.359,0,0,0-.544-2.667,3.407,3.407,0,0,0-1.453-1.589,4.449,4.449,0,0,0-1.708-.445,1.711,1.711,0,0,1-.736-.183c-.252-.148-1.056-1.109-1.237-.409a7.681,7.681,0,0,0,.028,1.432Q978.269,395.36,978.223,396.171Z" transform="translate(-2800.473 1810.243)" fill="#141414"/>
      <g id="Group_65-2" data-name="Group 65" transform="translate(-1823.577 2187.455)" opacity="0.1">
        <path id="Path_547-2" data-name="Path 547" d="M991.146,371.865a1.479,1.479,0,0,1-.558-.61,83.73,83.73,0,0,1-4.281-7.942,7.244,7.244,0,0,1-.707-2.015,11.582,11.582,0,0,1,.05-2.265,10.909,10.909,0,0,0-.343-3.34,4.336,4.336,0,0,0-1-1.992,4.073,4.073,0,0,0-1.927-.987,22.727,22.727,0,0,0-5.023-.36,4.09,4.09,0,0,1-2.491-.652,1.721,1.721,0,0,1-.569-1.826,1.1,1.1,0,0,1-.142.113,1.558,1.558,0,0,0,.267,2.267,4.09,4.09,0,0,0,2.491.652,22.726,22.726,0,0,1,5.023.36,4.072,4.072,0,0,1,1.927.987,4.336,4.336,0,0,1,1,1.992,10.912,10.912,0,0,1,.343,3.34,11.582,11.582,0,0,0-.05,2.265,7.245,7.245,0,0,0,.707,2.015,83.713,83.713,0,0,0,4.281,7.942,1.479,1.479,0,0,0,.558.61,1.509,1.509,0,0,0,1.27-.2c-.033-.111-.064-.224-.093-.336A1.012,1.012,0,0,1,991.146,371.865Z" transform="translate(-973.77 -345.149)"/>
        <path id="Path_548-2" data-name="Path 548" d="M974.989,350.334c.027-.016.05-.032.073-.048l.012-.012Z" transform="translate(-974.679 -345.446)"/>
        <path id="Path_549-2" data-name="Path 549" d="M976.652,335.559c-.023.016-.046.032-.073.048l.085-.06-.012.012c.526-.359.219-.647.426-1.321a10.252,10.252,0,0,1,1.353-2.965,5.886,5.886,0,0,0-.41.505,10.151,10.151,0,0,0-1.386,3.014,4.717,4.717,0,0,0-.109.9A1.064,1.064,0,0,1,976.652,335.559Z" transform="translate(-975.826 -331.272)"/>
        <path id="Path_550-2" data-name="Path 550" d="M1058.549,401.475a4.947,4.947,0,0,1-.838.2,1.616,1.616,0,0,0-.927.819,1.331,1.331,0,0,1,.484-.264,4.947,4.947,0,0,0,.838-.2.945.945,0,0,0,.459-.563Z" transform="translate(-1035.689 -383.629)"/>
        <path id="Path_551-2" data-name="Path 551" d="M1045.61,425.618q.01.288.037.575a1.248,1.248,0,0,0,.657-.418,1.847,1.847,0,0,0,.22-.343A.988.988,0,0,1,1045.61,425.618Z" transform="translate(-1027.355 -401.505)"/>
      </g>
      <path id="Path_552-2" data-name="Path 552" d="M967.644,465.221a5.437,5.437,0,0,1,2.123-.421" transform="translate(-2792.778 1756.599)" opacity="0.1"/>
      <path id="Path_553-2" data-name="Path 553" d="M982.816,490.477s.679,1.053,4.11,1.5S982.816,490.477,982.816,490.477Z" transform="translate(-2804.095 1737.434)" opacity="0.1"/>
      <path id="Path_554-2" data-name="Path 554" d="M977.96,505.962A9.73,9.73,0,0,0,986,507.68C990.947,506.682,977.96,505.962,977.96,505.962Z" transform="translate(-2800.473 1725.884)" opacity="0.1"/>
      <path id="Path_555-2" data-name="Path 555" d="M224.367,369.756c0,6.64,4.363,12.378,10.689,15.1l-9.047-21.925A15.09,15.09,0,0,0,224.367,369.756Zm31.769-.847a8.133,8.133,0,0,0-1.564-4.627c-.961-1.382-1.862-2.552-1.862-3.934a3.086,3.086,0,0,1,3.184-2.978c.084,0,.164.009.246.013a20.322,20.322,0,0,0-12.807-4.4,19.675,19.675,0,0,0-15.846,7.561c.445.012.865.02,1.22.02,1.984,0,5.054-.213,5.054-.213a.7.7,0,1,1,.122,1.382s-1.028.107-2.171.16l6.906,18.171,4.151-11.01-2.955-7.161c-1.021-.053-1.989-.16-1.989-.16a.7.7,0,1,1,.12-1.382s3.132.213,5,.213c1.983,0,5.054-.213,5.054-.213a.7.7,0,1,1,.122,1.382s-1.03.107-2.171.16l6.854,18.033,1.891-5.592c.82-2.32,1.444-3.987,1.444-5.423Z" transform="translate(-2238.375 1839.991)" fill="#038d08"/>
      <path id="Path_556-2" data-name="Path 556" d="M283.608,396.841l-5.69,14.625a21.332,21.332,0,0,0,11.656-.267,1.368,1.368,0,0,1-.135-.231Zm16.309-9.516a11.411,11.411,0,0,1,.128,1.725,14.267,14.267,0,0,1-1.442,6.009l-5.793,14.815c5.638-2.908,9.431-8.311,9.431-14.5A15.191,15.191,0,0,0,299.917,387.325Z" transform="translate(-2278.318 1814.374)" fill="#038d08"/>
    </g>
    <g id="Group_220" data-name="Group 220" transform="translate(2323.462 386)">
      <rect id="Rectangle_167-3" data-name="Rectangle 167" width="114.858" height="23.632" transform="translate(-1938.895 2164.294)" fill="none" stroke="#3f3d56" stroke-miterlimit="10" stroke-width="1"/>
      <path id="Path_491-3" data-name="Path 491" d="M250.224,347.071a19.575,19.575,0,0,1,16.587-8.571c10.526,0,19.058,7.566,19.058,16.9,0,5.967-3.488,11.212-8.755,14.218" transform="translate(-2257.661 1850.792)" fill="none" stroke="#3f3d56" stroke-miterlimit="10" stroke-width="1"/>
      <rect id="Rectangle_168-3" data-name="Rectangle 168" width="114.858" height="23.632" transform="translate(-1947.027 2168.868)" fill="#038d08"/>
      <circle id="Ellipse_61-3" data-name="Ellipse 61" cx="1.779" cy="1.779" r="1.779" transform="translate(-2021.413 2142.758)" fill="#038d08"/>
      <circle id="Ellipse_62-3" data-name="Ellipse 62" cx="1.779" cy="1.779" r="1.779" transform="translate(-2015.314 2142.758)" fill="#038d08"/>
      <circle id="Ellipse_63-3" data-name="Ellipse 63" cx="1.779" cy="1.779" r="1.779" transform="translate(-2009.215 2142.758)" fill="#038d08"/>
      <rect id="Rectangle_169-3" data-name="Rectangle 169" width="213.452" height="138.744" transform="translate(-2024.462 2139.963)" fill="none" stroke="#3f3d56" stroke-miterlimit="10" stroke-width="1"/>
      <line id="Line_13-3" data-name="Line 13" x2="213.452" transform="translate(-2024.462 2147.671)" fill="none" stroke="#3f3d56" stroke-miterlimit="10" stroke-width="1"/>
      <circle id="Ellipse_64-3" data-name="Ellipse 64" cx="1.779" cy="1.779" r="1.779" transform="translate(-2020.904 2141.996)" fill="none" stroke="#3f3d56" stroke-miterlimit="10" stroke-width="1"/>
      <circle id="Ellipse_65-3" data-name="Ellipse 65" cx="1.779" cy="1.779" r="1.779" transform="translate(-2014.806 2141.996)" fill="none" stroke="#3f3d56" stroke-miterlimit="10" stroke-width="1"/>
      <circle id="Ellipse_66-3" data-name="Ellipse 66" cx="1.779" cy="1.779" r="1.779" transform="translate(-2008.707 2141.996)" fill="none" stroke="#3f3d56" stroke-miterlimit="10" stroke-width="1"/>
      <line id="Line_14-3" data-name="Line 14" y2="131.233" transform="translate(-1957.446 2147.671)" fill="none" stroke="#3f3d56" stroke-miterlimit="10" stroke-width="1"/>
      <rect id="Rectangle_170-3" data-name="Rectangle 170" width="37.354" height="5.082" transform="translate(-1933.432 2212.194)" fill="#f2f2f2"/>
      <rect id="Rectangle_171-3" data-name="Rectangle 171" width="37.354" height="5.082" transform="translate(-1874.733 2212.194)" fill="#f2f2f2"/>
      <rect id="Rectangle_172-3" data-name="Rectangle 172" width="37.354" height="5.082" transform="translate(-1931.399 2209.653)" fill="none" stroke="#3f3d56" stroke-miterlimit="10" stroke-width="1"/>
      <rect id="Rectangle_173-3" data-name="Rectangle 173" width="37.354" height="5.082" transform="translate(-1933.432 2251.581)" fill="#f2f2f2"/>
      <rect id="Rectangle_174-3" data-name="Rectangle 174" width="37.354" height="5.082" transform="translate(-1931.399 2249.04)" fill="none" stroke="#3f3d56" stroke-miterlimit="10" stroke-width="1"/>
      <rect id="Rectangle_175-3" data-name="Rectangle 175" width="96.053" height="5.082" transform="translate(-1933.305 2231.379)" fill="#f2f2f2"/>
      <rect id="Rectangle_176-3" data-name="Rectangle 176" width="96.053" height="5.082" transform="translate(-1931.272 2229.346)" fill="none" stroke="#3f3d56" stroke-miterlimit="10" stroke-width="1"/>
      <rect id="Rectangle_177-3" data-name="Rectangle 177" width="37.354" height="5.082" transform="translate(-1872.7 2209.653)" fill="none" stroke="#3f3d56" stroke-miterlimit="10" stroke-width="1"/>
      <path id="Path_515-3" data-name="Path 515" d="M973.978,352.6a5.217,5.217,0,0,0,.305.8,13.459,13.459,0,0,1,.166,10.13,19.632,19.632,0,0,1,2.733.161,5.784,5.784,0,0,0,2.7-.3,2.742,2.742,0,0,0,1.707-2.063c.167-1.272-.759-2.382-1.572-3.348a7.628,7.628,0,0,1-1.874-3.353c-.269-1.411.114-3.065-.777-4.164a.861.861,0,0,0-.3-.253,3.4,3.4,0,0,0-2.207.059A2.252,2.252,0,0,0,973.978,352.6Z" transform="translate(-2797.466 1842.171)" fill="#141414"/>
      <path id="Path_516-3" data-name="Path 516" d="M1052.062,697.636a6.409,6.409,0,0,1-.3,1.247s-.923,2.125-4.721,1.552c-2.48-.375-2.464-1.537-2.053-2.437a5.814,5.814,0,0,1,.677-1.054c.369-.5.333-2.4.462-4.138s.913-1.826.913-1.826l.047,1.954c1.479-1.94,2.513.333,2.513.333s2.1.044,1.845-1.034c-.274-1.148-.683-2.966-.683-2.966s1.017.472,1.2.8a26.124,26.124,0,0,1-.2,5.209,3.032,3.032,0,0,0,.24,1.9A.725.725,0,0,1,1052.062,697.636Z" transform="translate(-2850.315 1589.159)" fill="#2d2d2d"/>
      <path id="Path_517-3" data-name="Path 517" d="M1057.477,683.993a2.07,2.07,0,0,1-1.448,1.973,2.788,2.788,0,0,1-2.435-.371,1.43,1.43,0,0,1-.6-1.34l.059-.491.213-1.79.293-2.466s3.147-1.6,2.937-1a9.626,9.626,0,0,0,.345,2.43c.177.848.392,1.781.582,2.573A2.046,2.046,0,0,1,1057.477,683.993Z" transform="translate(-2856.432 1597.284)" fill="#fbbebe"/>
      <path id="Path_518-3" data-name="Path 518" d="M1052.26,696.024s2.725-3.2,4.955.291l-.374,2.237h-4.581Z" transform="translate(-2855.892 1585.118)" opacity="0.1"/>
      <path id="Path_519-3" data-name="Path 519" d="M1052.26,696.9s2.725-3.2,4.955.291l-.374,2.237h-4.581Z" transform="translate(-2855.892 1584.467)" fill="#3f3d56"/>
      <circle id="Ellipse_67-3" data-name="Ellipse 67" cx="0.277" cy="0.277" r="0.277" transform="translate(-1800.368 2282.783)" fill="#f2f2f2"/>
      <circle id="Ellipse_68-3" data-name="Ellipse 68" cx="0.277" cy="0.277" r="0.277" transform="translate(-1803.91 2282.339)" fill="#f2f2f2"/>
      <circle id="Ellipse_69-3" data-name="Ellipse 69" cx="0.277" cy="0.277" r="0.277" transform="translate(-1801.323 2284.661)" fill="#f2f2f2"/>
      <circle id="Ellipse_70-3" data-name="Ellipse 70" cx="0.277" cy="0.277" r="0.277" transform="translate(-1803.743 2284.335)" fill="#f2f2f2"/>
      <circle id="Ellipse_71-3" data-name="Ellipse 71" cx="0.277" cy="0.277" r="0.277" transform="translate(-1800.787 2283.781)" fill="#f2f2f2"/>
      <circle id="Ellipse_72-3" data-name="Ellipse 72" cx="0.277" cy="0.277" r="0.277" transform="translate(-1803.91 2283.337)" fill="#f2f2f2"/>
      <circle id="Ellipse_73-3" data-name="Ellipse 73" cx="0.277" cy="0.277" r="0.277" transform="translate(-1801.6 2285.691)" fill="#f2f2f2"/>
      <circle id="Ellipse_74-3" data-name="Ellipse 74" cx="0.277" cy="0.277" r="0.277" transform="translate(-1803.743 2285.333)" fill="#f2f2f2"/>
      <path id="Path_520-3" data-name="Path 520" d="M964.855,715.407l-3.769,1.275s-2-2-1.441-2.6a5.583,5.583,0,0,0,.6-2.032c.051-.286.1-.577.136-.855.131-.9.206-1.658.206-1.658s4.378-2.106,3.658,0a5.188,5.188,0,0,0-.207,1.842,12.226,12.226,0,0,0,.234,1.844A17.553,17.553,0,0,0,964.855,715.407Z" transform="translate(-2786.74 1574.74)" fill="#fbbebe"/>
      <path id="Path_521-3" data-name="Path 521" d="M964.855,725.53l-3.769,1.275s-2-2-1.441-2.6a5.583,5.583,0,0,0,.6-2.032,3.939,3.939,0,0,1,.44,1.228c3.255,1.788,3.311.72,3.311.72a1.978,1.978,0,0,1,.276-.775,17.573,17.573,0,0,0,.583,2.188Z" transform="translate(-2786.74 1564.617)" opacity="0.1"/>
      <path id="Path_522-3" data-name="Path 522" d="M946.316,727.83a4.96,4.96,0,0,1-2.563.554,10.081,10.081,0,0,0-1.491.168,18.623,18.623,0,0,1-6.113.165,13.267,13.267,0,0,1-1.555-.305c-1.967-.541-.471-1.787-.471-1.787s.094-.082.257-.205a5.371,5.371,0,0,1,2.168-1.029c1.233-.194,2.369-2.383,2.369-2.383l.776-1.4c1.2-1.039,1.622,1.4,1.622,1.4,3.255,1.788,3.311.72,3.311.72.181-.957.513-.957.513-.957s.811,2.185,1.105,2.73a.543.543,0,0,0,.072.111A8.448,8.448,0,0,1,946.316,727.83Z" transform="translate(-2767.369 1565.227)" fill="#2d2d2d"/>
      <circle id="Ellipse_75-3" data-name="Ellipse 75" cx="0.277" cy="0.277" r="0.277" transform="translate(-1826.346 2288.873)" fill="#f2f2f2"/>
      <circle id="Ellipse_76-3" data-name="Ellipse 76" cx="0.277" cy="0.277" r="0.277" transform="translate(-1827.933 2289.649)" fill="#f2f2f2"/>
      <circle id="Ellipse_77-3" data-name="Ellipse 77" cx="0.277" cy="0.277" r="0.277" transform="translate(-1827.08 2289.251)" fill="#f2f2f2"/>
      <circle id="Ellipse_78-3" data-name="Ellipse 78" cx="0.277" cy="0.277" r="0.277" transform="translate(-1828.826 2290.106)" fill="#f2f2f2"/>
      <path id="Path_523-3" data-name="Path 523" d="M966.691,709.533a5.188,5.188,0,0,0-.207,1.842,10.654,10.654,0,0,0-3.657-.184c.131-.9.206-1.658.206-1.658S967.412,707.426,966.691,709.533Z" transform="translate(-2789.186 1574.74)" opacity="0.1"/>
      <path id="Path_524-3" data-name="Path 524" d="M1057.657,680.94c-1.362,1.336-2.665,1.419-3.575,1.034l.293-2.466s3.147-1.6,2.937-1A9.724,9.724,0,0,0,1057.657,680.94Z" transform="translate(-2857.252 1597.284)" opacity="0.1"/>
      <path id="Path_525-3" data-name="Path 525" d="M957.429,509.451a5.551,5.551,0,0,0-2.55,3.6c-.388,2.383-1.053,5.431-1.552,5.985s-2.051,2.328-1.441,3.27.72,4.156.72,4.156-.222,2.882.388,3.824,1.108,6.928-.222,8.7a35.412,35.412,0,0,0-.277,4.489c.166.388-.72,1.385-.443,2.217s1.607,16.127,1.441,16.737c0,0,4.212-.61,5.32.388a10.917,10.917,0,0,0,0-2.826,22.644,22.644,0,0,1,.665-6.927,19.967,19.967,0,0,0,.443-6.041s.887-3.935.554-4.711,1.441-7.925,1.441-7.925.887-1.718.665-1.94c0,0,1.441-.942,1.275-1.663s1.33-1.552,1.33-1.552A30.26,30.26,0,0,0,966.961,533c.443.5.461,3.713,1.006,4.378s1.266,4.156,1.986,5.1,3.6,3.436,4.046,6.262c0,0,2.6,4.046,2.494,5.32s2.937,3.6,5.875-.72a3.84,3.84,0,0,1-1.552-3.159c0-2.161-2.328-9.089-2.328-9.089s-1.33-1.94-.831-2.882.055-3.713.055-3.713l1.053-1.718s.166-1.663.333-3.381-1-3.6-.443-4.434-.222-4.985-.222-4.985-.69-7.159-1.718-7.6S957.429,509.451,957.429,509.451Z" transform="translate(-2780.921 1723.281)" fill="#141414"/>
      <path id="Path_526-3" data-name="Path 526" d="M971.805,419.221s-1.138.13-2.521.26a22.5,22.5,0,0,1-4.809.183c-.505-.333,0-4.544,0-4.544s.174-4.6.008-7.814a6.981,6.981,0,0,1,2.247-5.153c.153-.146.247-.223.247-.223l.554.443,3.159,5.376Z" transform="translate(-2790.247 1803.48)" fill="#fbbebe"/>
      <path id="Path_527-3" data-name="Path 527" d="M1006.332,373.76l-3.1,1.884-5.1,3.879s-5.265-2.771-3.935-4.378a2.492,2.492,0,0,0,.487-1.087,10.619,10.619,0,0,0-.487-4.51s6.936-9.367,6.54-2.106c-.16,2.917.713,4.51,1.813,5.372A5.388,5.388,0,0,0,1006.332,373.76Z" transform="translate(-2812.422 1831.262)" fill="#fbbebe"/>
      <path id="Path_528-3" data-name="Path 528" d="M1006.332,373.76l-3.1,1.884-5.1,3.879s-5.265-2.771-3.935-4.378a2.492,2.492,0,0,0,.487-1.087,10.619,10.619,0,0,0-.487-4.51s6.936-9.367,6.54-2.106c-.16,2.917.713,4.51,1.813,5.372A5.388,5.388,0,0,0,1006.332,373.76Z" transform="translate(-2812.422 1831.262)" opacity="0.1"/>
      <ellipse id="Ellipse_79-3" data-name="Ellipse 79" cx="6.418" cy="6.8" rx="6.418" ry="6.8" transform="translate(-1822.03 2189.893)" opacity="0.1"/>
      <ellipse id="Ellipse_80-3" data-name="Ellipse 80" cx="6.418" cy="6.8" rx="6.418" ry="6.8" transform="translate(-1822.03 2189.671)" fill="#fbbebe"/>
      <path id="Path_529-3" data-name="Path 529" d="M1006.332,397.629l-3.1,1.884-5.1,3.879s-5.265-2.771-3.935-4.378a2.492,2.492,0,0,0,.487-1.087c5.808,4.966,7.573-.174,7.866-1.244A5.388,5.388,0,0,0,1006.332,397.629Z" transform="translate(-2812.422 1807.394)" opacity="0.1"/>
      <path id="Path_530-3" data-name="Path 530" d="M978.617,419.221s-1.138.13-2.521.26c-.054-1.193-.235-2.542-.2-3.364.055-1.385.055-1.552-.388-2.328a3.769,3.769,0,0,1-.333-2.383c.053-.955-.2-1.148-1.1-2.675l-.121-.207a7.808,7.808,0,0,1-.572-3.435.032.032,0,0,0,0-.014c0-.309,0-.614.016-.9,0-.012,0-.024,0-.037.032-.878.1-1.626.142-1.982.153-.146.247-.223.247-.223l.554.443,3.159,5.376Z" transform="translate(-2797.059 1803.48)" opacity="0.1"/>
      <path id="Path_531-3" data-name="Path 531" d="M991.142,397.765s.669.507.665.506c-2.006-.866-3.145,3.495-3.449,4.867-.057.253-.084.4-.084.4s.035.368.08.953c.15,1.96.407,6.348-.191,7.415a1.654,1.654,0,0,0-.143.356,7.5,7.5,0,0,0-.069,2.569,25.749,25.749,0,0,0,.489,2.894s1.33,3.381.776,5.6a8.223,8.223,0,0,0-.162,2.514,14.87,14.87,0,0,0,.351,2.293c.052.221.088.347.088.347q-1.254.429-2.451.712a23.775,23.775,0,0,1-4.74.642,21.042,21.042,0,0,1-13.662-4.332c-.093-.078-.163-.139-.207-.181-.776-.72.72-1.275.554-1.773s.758-1.607.758-1.607-.2-1.829.627-2.217,1.441-1.718,1.91-2.826-.081-3.99-.026-5.376.055-1.552-.388-2.328a3.769,3.769,0,0,1-.333-2.383c.053-.955-.2-1.148-1.1-2.675l-.121-.207c-.441-.76.246-2.07.242-3.369,0,0,.255,0,.254,0,0-.309-.519-.726-.508-1.016,0-.012-.254-.242-.254-.254a8.236,8.236,0,0,0-.122-1.955c4.434-2.272,5.487.1,5.487.1,6.484,5.581,7.956-1.393,7.956-1.393,3.529-1.206,8.171,2.043,8.436,2.231Z" transform="translate(-2793.199 1808.075)" fill="#d0cde1"/>
      <path id="Path_532-3" data-name="Path 532" d="M964.566,466.378s-.555,2.96,1.05,4.611a1.8,1.8,0,0,0,2.087.359,2.827,2.827,0,0,0,1.352-1.149C969.5,469.215,968.113,464.41,964.566,466.378Z" transform="translate(-2790.413 1755.759)" fill="#fbbebe"/>
      <path id="Path_533-3" data-name="Path 533" d="M1046.31,437.523a1.654,1.654,0,0,0-.143.356l.254-6.48.08-1.291C1046.651,432.068,1046.907,436.456,1046.31,437.523Z" transform="translate(-2851.348 1782.463)" opacity="0.1"/>
      <path id="Path_534-3" data-name="Path 534" d="M1024.878,479.292a8.22,8.22,0,0,0-.162,2.514c-.359.651-.666,1.2-.866,1.562l-.247.441a10.476,10.476,0,0,0-.9,1.349,2.607,2.607,0,0,0-.376,1.1c0,.852-.859,6.533-4.932,5.12-2.63-.912-.951-3.708.569-5.574a20.871,20.871,0,0,1,1.62-1.769s.47-.6.921-1.225a7.439,7.439,0,0,0,.8-1.269c.194-.554,1.473-2.993,1.473-2.993s1.27-2.688.993-3.935a23.978,23.978,0,0,1-.156-3.808,25.722,25.722,0,0,0,.489,2.894S1025.432,477.075,1024.878,479.292Z" transform="translate(-2828.861 1752.11)" opacity="0.1"/>
      <path id="Path_535-3" data-name="Path 535" d="M1027.151,405.461s2,1.385,1.94,4.988-.72,9.837-.72,9.837l-.416,3.879a7.946,7.946,0,0,0-.443,2.051c.083.471-4.352,8.368-4.352,8.368a6.247,6.247,0,0,0-1.275,2.446c0,.852-.859,6.532-4.932,5.119s2.189-7.343,2.189-7.343a19.407,19.407,0,0,0,1.718-2.494c.194-.554,1.474-2.993,1.474-2.993s1.27-2.688.993-3.935a42.812,42.812,0,0,1-.111-5.774l.277-7.083.111-1.8S1024.628,404.741,1027.151,405.461Z" transform="translate(-2828.53 1800.891)" fill="#fbbebe"/>
      <path id="Path_536-3" data-name="Path 536" d="M976.466,454.2l3.024-1.1a1.431,1.431,0,0,1,1.472.3l4.013,3.791s.222.608-.074.581-4.618-4.35-4.618-4.35L976,454.866h0A.712.712,0,0,1,976.466,454.2Z" transform="translate(-2799.009 1765.378)" fill="#038d08"/>
      <path id="Path_537-3" data-name="Path 537" d="M937.689,316.618l4.156-1.506-4.618-4.35-4.286,1.441Z" transform="translate(-2755.952 1908.042)" fill="#4b4b5b"/>
      <circle id="Ellipse_81-3" data-name="Ellipse 81" cx="0.369" cy="0.369" r="0.369" transform="translate(-1824.877 2236.372)" fill="#f2f2f2"/>
      <circle id="Ellipse_82-3" data-name="Ellipse 82" cx="0.369" cy="0.369" r="0.369" transform="translate(-1827.39 2241.119)" fill="#f2f2f2"/>
      <circle id="Ellipse_83-3" data-name="Ellipse 83" cx="0.369" cy="0.369" r="0.369" transform="translate(-1807.32 2242.845)" fill="#f2f2f2"/>
      <circle id="Ellipse_84-3" data-name="Ellipse 84" cx="0.369" cy="0.369" r="0.369" transform="translate(-1805.23 2249.552)" fill="#f2f2f2"/>
      <circle id="Ellipse_85-3" data-name="Ellipse 85" cx="0.369" cy="0.369" r="0.369" transform="translate(-1806.043 2247.664)" fill="#f2f2f2"/>
      <circle id="Ellipse_86-3" data-name="Ellipse 86" cx="0.369" cy="0.369" r="0.369" transform="translate(-1806.75 2245.254)" fill="#f2f2f2"/>
      <circle id="Ellipse_87-3" data-name="Ellipse 87" cx="0.369" cy="0.369" r="0.369" transform="translate(-1826.217 2238.619)" fill="#f2f2f2"/>
      <circle id="Ellipse_88-3" data-name="Ellipse 88" cx="0.369" cy="0.369" r="0.369" transform="translate(-1828.855 2243.584)" fill="#f2f2f2"/>
      <path id="Path_538-3" data-name="Path 538" d="M996.319,398.268v0c-2.006-.866-3.145,3.495-3.449,4.867l-3.151-4.51s-1.292,2.068-5.468,2.383a4.792,4.792,0,0,1-5.191-3.178c-.573-.044-3.168,4.626-4.11,6.3l-.121-.207a7.807,7.807,0,0,1-.572-3.435.031.031,0,0,0,0-.014c0-.3.009-.6.015-.9,0-.012,0-.024,0-.037.045-1.23.167-2.2.167-2.2,4.434-2.272,5.487.1,5.487.1,6.484,5.581,7.956-1.393,7.956-1.393C991.412,394.831,996.055,398.08,996.319,398.268Z" transform="translate(-2797.71 1808.075)" fill="#8f8d98"/>
      <path id="Path_539-3" data-name="Path 539" d="M964.293,565.065c.055.139,4.711,5.514,6.429,5.791S964.293,565.065,964.293,565.065Z" transform="translate(-2790.279 1681.799)" opacity="0.1"/>
      <path id="Path_540-3" data-name="Path 540" d="M973.162,532.617s.047,3.79-1.117,4.646S973.162,532.617,973.162,532.617Z" transform="translate(-2795.814 1706.002)" opacity="0.1"/>
      <path id="Path_541-3" data-name="Path 541" d="M984.671,537.913s-.111,4.461,1.552,5.514C986.223,543.427,983.175,540.462,984.671,537.913Z" transform="translate(-2805.17 1702.052)" opacity="0.1"/>
      <path id="Path_542-3" data-name="Path 542" d="M965.883,628.095s-3.1,2.3-3.963,2.466S965.883,628.095,965.883,628.095Z" transform="translate(-2788.432 1634.786)" opacity="0.1"/>
      <path id="Path_543-3" data-name="Path 543" d="M973.6,328.952a1.553,1.553,0,0,0,.255,2.279,4.09,4.09,0,0,0,2.491.652,22.727,22.727,0,0,1,5.023.36,4.072,4.072,0,0,1,1.927.987,4.336,4.336,0,0,1,1,1.992,10.91,10.91,0,0,1,.343,3.34,11.582,11.582,0,0,0-.05,2.265,7.243,7.243,0,0,0,.707,2.015,83.727,83.727,0,0,0,4.281,7.942,1.479,1.479,0,0,0,.558.61,1.509,1.509,0,0,0,1.27-.2,9.543,9.543,0,0,1-.392-2.407,1.076,1.076,0,0,0,1.137-.4,3.155,3.155,0,0,0,.518-1.165l.746-2.569c.231-.795.573-1.706,1.366-1.94a4.947,4.947,0,0,0,.838-.2,1.073,1.073,0,0,0,.518-1.057,2.283,2.283,0,0,0-.5-1.128c-1.122-1.509-2.993-2.4-3.868-4.069a7.664,7.664,0,0,1-.373-4.745,12.4,12.4,0,0,0,.212-4.806,6.368,6.368,0,0,0-2.471-3.54,9.969,9.969,0,0,0-4.042-1.662,4.036,4.036,0,0,0-2.043.014c-.5.17-.935.506-1.427.709-1.117.46-2.405.185-3.578.478a4.811,4.811,0,0,0-2.646,1.912,10.15,10.15,0,0,0-1.386,3.014c-.216.7.13.987-.5,1.37" transform="translate(-2796.928 1863.553)" opacity="0.1"/>
      <path id="Path_544-3" data-name="Path 544" d="M974.04,328.08a1.553,1.553,0,0,0,.255,2.279,4.089,4.089,0,0,0,2.491.652,22.728,22.728,0,0,1,5.024.36,4.073,4.073,0,0,1,1.927.987,4.337,4.337,0,0,1,1,1.992,10.91,10.91,0,0,1,.343,3.34,11.591,11.591,0,0,0-.05,2.265,7.243,7.243,0,0,0,.707,2.015,83.717,83.717,0,0,0,4.281,7.942,1.478,1.478,0,0,0,.558.61,1.509,1.509,0,0,0,1.271-.2,9.538,9.538,0,0,1-.392-2.407,1.076,1.076,0,0,0,1.137-.4,3.156,3.156,0,0,0,.518-1.165l.746-2.569c.231-.795.573-1.706,1.366-1.94a4.948,4.948,0,0,0,.838-.2,1.073,1.073,0,0,0,.518-1.057,2.284,2.284,0,0,0-.5-1.128c-1.122-1.509-2.993-2.4-3.868-4.069a7.664,7.664,0,0,1-.373-4.745,12.4,12.4,0,0,0,.212-4.806,6.368,6.368,0,0,0-2.471-3.54,9.97,9.97,0,0,0-4.042-1.662,4.036,4.036,0,0,0-2.043.014c-.5.17-.935.507-1.427.709-1.117.46-2.405.185-3.578.478a4.811,4.811,0,0,0-2.646,1.912,10.15,10.15,0,0,0-1.386,3.014c-.216.7.13.987-.5,1.37" transform="translate(-2797.253 1864.204)" fill="#141414"/>
      <path id="Path_545-3" data-name="Path 545" d="M972.471,463.3s5.071-3.381,6.512-1.3-4.461,4.628-4.461,4.628Z" transform="translate(-2796.378 1759.181)" fill="#fbbebe"/>
      <path id="Path_546-3" data-name="Path 546" d="M978.223,396.171c-.019.326-.081.725-.263.785.473-.011.94.337,1.409.233a1.436,1.436,0,0,0,.89-.917.428.428,0,0,1,.119-.2c.049-.029.1,0,.152.029a14.793,14.793,0,0,1,2.551,1.926c.26.242.548.5.833.378a6.359,6.359,0,0,0-.544-2.667,3.407,3.407,0,0,0-1.453-1.589,4.449,4.449,0,0,0-1.708-.445,1.711,1.711,0,0,1-.736-.183c-.252-.148-1.056-1.109-1.237-.409a7.681,7.681,0,0,0,.028,1.432Q978.269,395.36,978.223,396.171Z" transform="translate(-2800.473 1810.243)" fill="#141414"/>
      <g id="Group_65-3" data-name="Group 65" transform="translate(-1823.577 2187.455)" opacity="0.1">
        <path id="Path_547-3" data-name="Path 547" d="M991.146,371.865a1.479,1.479,0,0,1-.558-.61,83.73,83.73,0,0,1-4.281-7.942,7.244,7.244,0,0,1-.707-2.015,11.582,11.582,0,0,1,.05-2.265,10.909,10.909,0,0,0-.343-3.34,4.336,4.336,0,0,0-1-1.992,4.073,4.073,0,0,0-1.927-.987,22.727,22.727,0,0,0-5.023-.36,4.09,4.09,0,0,1-2.491-.652,1.721,1.721,0,0,1-.569-1.826,1.1,1.1,0,0,1-.142.113,1.558,1.558,0,0,0,.267,2.267,4.09,4.09,0,0,0,2.491.652,22.726,22.726,0,0,1,5.023.36,4.072,4.072,0,0,1,1.927.987,4.336,4.336,0,0,1,1,1.992,10.912,10.912,0,0,1,.343,3.34,11.582,11.582,0,0,0-.05,2.265,7.245,7.245,0,0,0,.707,2.015,83.713,83.713,0,0,0,4.281,7.942,1.479,1.479,0,0,0,.558.61,1.509,1.509,0,0,0,1.27-.2c-.033-.111-.064-.224-.093-.336A1.012,1.012,0,0,1,991.146,371.865Z" transform="translate(-973.77 -345.149)"/>
        <path id="Path_548-3" data-name="Path 548" d="M974.989,350.334c.027-.016.05-.032.073-.048l.012-.012Z" transform="translate(-974.679 -345.446)"/>
        <path id="Path_549-3" data-name="Path 549" d="M976.652,335.559c-.023.016-.046.032-.073.048l.085-.06-.012.012c.526-.359.219-.647.426-1.321a10.252,10.252,0,0,1,1.353-2.965,5.886,5.886,0,0,0-.41.505,10.151,10.151,0,0,0-1.386,3.014,4.717,4.717,0,0,0-.109.9A1.064,1.064,0,0,1,976.652,335.559Z" transform="translate(-975.826 -331.272)"/>
        <path id="Path_550-3" data-name="Path 550" d="M1058.549,401.475a4.947,4.947,0,0,1-.838.2,1.616,1.616,0,0,0-.927.819,1.331,1.331,0,0,1,.484-.264,4.947,4.947,0,0,0,.838-.2.945.945,0,0,0,.459-.563Z" transform="translate(-1035.689 -383.629)"/>
        <path id="Path_551-3" data-name="Path 551" d="M1045.61,425.618q.01.288.037.575a1.248,1.248,0,0,0,.657-.418,1.847,1.847,0,0,0,.22-.343A.988.988,0,0,1,1045.61,425.618Z" transform="translate(-1027.355 -401.505)"/>
      </g>
      <path id="Path_552-3" data-name="Path 552" d="M967.644,465.221a5.437,5.437,0,0,1,2.123-.421" transform="translate(-2792.778 1756.599)" opacity="0.1"/>
      <path id="Path_553-3" data-name="Path 553" d="M982.816,490.477s.679,1.053,4.11,1.5S982.816,490.477,982.816,490.477Z" transform="translate(-2804.095 1737.434)" opacity="0.1"/>
      <path id="Path_554-3" data-name="Path 554" d="M977.96,505.962A9.73,9.73,0,0,0,986,507.68C990.947,506.682,977.96,505.962,977.96,505.962Z" transform="translate(-2800.473 1725.884)" opacity="0.1"/>
      <path id="Path_555-3" data-name="Path 555" d="M224.367,369.756c0,6.64,4.363,12.378,10.689,15.1l-9.047-21.925A15.09,15.09,0,0,0,224.367,369.756Zm31.769-.847a8.133,8.133,0,0,0-1.564-4.627c-.961-1.382-1.862-2.552-1.862-3.934a3.086,3.086,0,0,1,3.184-2.978c.084,0,.164.009.246.013a20.322,20.322,0,0,0-12.807-4.4,19.675,19.675,0,0,0-15.846,7.561c.445.012.865.02,1.22.02,1.984,0,5.054-.213,5.054-.213a.7.7,0,1,1,.122,1.382s-1.028.107-2.171.16l6.906,18.171,4.151-11.01-2.955-7.161c-1.021-.053-1.989-.16-1.989-.16a.7.7,0,1,1,.12-1.382s3.132.213,5,.213c1.983,0,5.054-.213,5.054-.213a.7.7,0,1,1,.122,1.382s-1.03.107-2.171.16l6.854,18.033,1.891-5.592c.82-2.32,1.444-3.987,1.444-5.423Z" transform="translate(-2238.375 1839.991)" fill="#038d08"/>
      <path id="Path_556-3" data-name="Path 556" d="M283.608,396.841l-5.69,14.625a21.332,21.332,0,0,0,11.656-.267,1.368,1.368,0,0,1-.135-.231Zm16.309-9.516a11.411,11.411,0,0,1,.128,1.725,14.267,14.267,0,0,1-1.442,6.009l-5.793,14.815c5.638-2.908,9.431-8.311,9.431-14.5A15.191,15.191,0,0,0,299.917,387.325Z" transform="translate(-2278.318 1814.374)" fill="#038d08"/>
    </g>
    <rect id="Rectangle_356" data-name="Rectangle 356" width="317" height="195" transform="translate(254 2486)" fill="none"/>
    <rect id="Rectangle_359" data-name="Rectangle 359" width="317" height="195" transform="translate(254 2486)" fill="none"/>
    <rect id="Rectangle_360" data-name="Rectangle 360" width="317" height="195" transform="translate(254 2486)" fill="none"/>
  </g>
</svg>
