<svg xmlns="http://www.w3.org/2000/svg" width="53.372" height="50" viewBox="0 0 53.372 50">
  <g id="employee" transform="translate(0 -16.224)">
    <g id="Group_382" data-name="Group 382" transform="translate(0 16.224)">
      <path id="Path_2005" data-name="Path 2005" d="M52.59,58.521a.782.782,0,0,0-.782.782v5.225a.132.132,0,0,1-.132.132H48.706V53.235a.782.782,0,1,0-1.564,0V64.66H41.4l1.554-1.71a1.25,1.25,0,0,0,.3-1l0-.023L41.508,51.6l.321-.484.084.059a1.224,1.224,0,0,0,1.8-.451h0l1.777-3.563,4.06,1.573a3.892,3.892,0,0,1,2.254,3.529v3.389a.782.782,0,1,0,1.564,0V52.265a5.453,5.453,0,0,0-3.226-4.977l-.015-.006L43.218,44.6V43.18a5.71,5.71,0,0,0,2.065-3.546,2.728,2.728,0,0,0,1.452-.64,2.693,2.693,0,0,0,.328-3.744v-2.11a7.481,7.481,0,0,0-12.347-5.69,2.688,2.688,0,0,0-.605-1.627v-2.11a7.487,7.487,0,1,0-14.975,0v2.165a2.551,2.551,0,0,0-.6,1.566A7.453,7.453,0,0,0,15.582,25.9a.782.782,0,0,0-.4,1.513,5.926,5.926,0,0,1,4.411,5.729v1.17l-.146-.026a.9.9,0,0,0-.187-.529c-.2-.288-.56-.646-1.716-1.889a1.236,1.236,0,0,0-1.584-.193A11.17,11.17,0,0,1,9.344,33.5a1.25,1.25,0,0,0-1.375.8l-.221.044v-1.2a5.963,5.963,0,0,1,4.213-5.673.782.782,0,0,0-.451-1.5,7.547,7.547,0,0,0-3.818,2.664,7.422,7.422,0,0,0-1.508,4.507v2.165a2.549,2.549,0,0,0-.607,1.648,2.7,2.7,0,0,0,2.391,2.68,5.776,5.776,0,0,0,2.179,3.638V44.6L3.241,47.283l-.015.006A5.452,5.452,0,0,0,0,52.265V64.528a1.7,1.7,0,0,0,1.7,1.7H25.772a1.684,1.684,0,0,0,.914-.27,1.684,1.684,0,0,0,.914.27H51.677a1.7,1.7,0,0,0,1.7-1.7V59.3A.782.782,0,0,0,52.59,58.521Zm-44.7-20.5a1.129,1.129,0,0,1-.751-1.065,1.155,1.155,0,0,1,.751-1.018ZM44.029,46.6l-1.535,3.076-1.729-1.228,1.919-2.369Zm-4.394.759-2.022-2.5v-.75a6.3,6.3,0,0,0,2.032.332h0a5.779,5.779,0,0,0,2.008-.365v.787Zm.918,2.857-.288.433h-1.26l-.288-.433.918-.652ZM26.684,37.927l-2.022-2.5v-.75a6.3,6.3,0,0,0,2.032.332h0a5.778,5.778,0,0,0,2.008-.365v.787Zm.918,2.857-.288.433h-1.26l-.288-.433.918-.652ZM20.527,30.132a2.794,2.794,0,0,0,.392.075A5.776,5.776,0,0,0,23.1,33.845v1.333l-1.6.618a2.681,2.681,0,0,0-.345-.545v-2.11A7.472,7.472,0,0,0,20.527,30.132ZM30.838,29.3a4.216,4.216,0,0,1-8.431,0V25.641a12.8,12.8,0,0,0,7.13-1.938c.7.756,1.124,1.2,1.3,1.4C30.838,27.049,30.838,27.8,30.838,29.3Zm1.492.9a2.812,2.812,0,0,0,.39-.075,7.445,7.445,0,0,0-.633,3.01v2.165a2.668,2.668,0,0,0-.309.457l-1.512-.586V33.753A5.711,5.711,0,0,0,32.33,30.206Zm-8.7,6.443,1.919,2.369-1.309.93,0,0-.415.3L22.29,37.169Zm4.851,1.541,1.25-1.543,1.345.521-1.535,3.077-.416-.3h0l-1.311-.932Zm.394,3.5.084.059a1.224,1.224,0,0,0,1.8-.451h0l1.319-2.645a2.744,2.744,0,0,0,1.784.983,5.685,5.685,0,0,0,2.182,3.636V44.6L29.4,47.182l-.847-5.008Zm7.707,4.386,1.919,2.37-1.726,1.227L35.242,46.6Zm7.206-7.345a4.216,4.216,0,0,1-8.431,0V35.068a12.807,12.807,0,0,0,7.13-1.938c.7.756,1.124,1.2,1.3,1.4C43.79,36.476,43.79,37.228,43.79,38.731Zm2.315-1.777a1.129,1.129,0,0,1-.751,1.065V35.891A1.127,1.127,0,0,1,46.105,36.954ZM33.651,33.14a5.924,5.924,0,1,1,11.847,0v1.17c-.036-.007-.133-.024-.146-.026a.9.9,0,0,0-.187-.529c-.205-.3-.561-.647-1.716-1.889a1.237,1.237,0,0,0-1.584-.193,11.191,11.191,0,0,1-6.676,1.819,1.23,1.23,0,0,0-1.317.8l-.221.044v-1.2Zm.144,2.8v2.081a1.126,1.126,0,0,1-.751-1.064A1.154,1.154,0,0,1,33.8,35.936Zm-.642-8.41a1.125,1.125,0,0,1-.391.854,1.157,1.157,0,0,1-.36.21V26.464A1.127,1.127,0,0,1,33.153,27.526Zm-6.531-9.738a5.931,5.931,0,0,1,5.924,5.925v1.17l-.146-.026a.947.947,0,0,0-.221-.577c-.209-.283-.6-.673-1.681-1.84a1.236,1.236,0,0,0-1.584-.193,11.166,11.166,0,0,1-6.739,1.816,1.242,1.242,0,0,0-1.254.807l-.221.044v-1.2h0A5.931,5.931,0,0,1,26.623,17.788Zm-5.779,8.721v2.082a1.129,1.129,0,0,1-.751-1.065A1.155,1.155,0,0,1,20.843,26.509ZM19.45,35.891a1.129,1.129,0,0,1,0,2.126Zm-.072,3.745a2.742,2.742,0,0,0,1.858-1.079L22.6,41.3h0a1.224,1.224,0,0,0,1.8.451l.084-.059.321.484-.847,5.006L17.314,44.6V43.181h0A5.716,5.716,0,0,0,19.378,39.636Zm-5.646,7.719-2.022-2.5v-.75a6.3,6.3,0,0,0,2.032.332h0a5.776,5.776,0,0,0,2.008-.365v.787Zm.918,2.857-.288.433H13.1l-.288-.433.918-.652Zm2.131-4.137,1.345.521-1.535,3.076-.416-.3h0l-1.311-.931ZM9.455,38.731V35.068a12.812,12.812,0,0,0,7.13-1.938c.7.749,1.124,1.2,1.3,1.4v4.2a4.216,4.216,0,0,1-8.431,0Zm1.225,7.345,1.919,2.37-1.309.93,0,0-.415.3L9.338,46.6ZM6.23,64.66V53.235a.782.782,0,1,0-1.564,0V64.66H1.7a.132.132,0,0,1-.132-.132V52.265a3.892,3.892,0,0,1,2.253-3.528l4.057-1.573,1.777,3.563h0a1.224,1.224,0,0,0,1.8.451l.084-.059.321.484L10.113,61.924l0,.023a1.252,1.252,0,0,0,.3,1l1.554,1.709H6.23Zm5.453-2.638,1.66-9.813h.778l1.661,9.813-2.049,2.255ZM25.9,64.528a.132.132,0,0,1-.132.132H22.8V53.235a.782.782,0,1,0-1.564,0V64.66H15.5l1.554-1.71a1.251,1.251,0,0,0,.3-1l0-.023L15.6,51.6l.321-.484.084.059a1.224,1.224,0,0,0,1.8-.451h0l1.777-3.563,4.06,1.573A3.884,3.884,0,0,1,25.9,52.265V64.528Zm.782-15.1a5.568,5.568,0,0,0-1.275-1.417l.884-5.225h.778l.884,5.227A5.572,5.572,0,0,0,26.686,49.423ZM32.134,64.66h0V53.235a.782.782,0,1,0-1.564,0V64.66H27.6a.132.132,0,0,1-.132-.132V52.265a3.738,3.738,0,0,1,.912-2.505,4.209,4.209,0,0,1,1.341-1.023l4.057-1.573,1.777,3.563h0a1.224,1.224,0,0,0,1.8.451l.084-.059.321.484L36.017,61.924l0,.023a1.252,1.252,0,0,0,.3,1L37.87,64.66H32.134Zm5.453-2.637,1.661-9.813h.778l1.661,9.813-2.049,2.255Z" transform="translate(0 -16.224)" fill="#038d08"/>
    </g>
  </g>
</svg>
