<svg xmlns="http://www.w3.org/2000/svg" width="65.667" height="50.836" viewBox="0 0 65.667 50.836">
  <g id="order" transform="translate(0 -57.815)">
    <g id="Group_513" data-name="Group 513" transform="translate(0 57.815)">
      <path id="Path_2020" data-name="Path 2020" d="M60.295,186.064h9.938a1.283,1.283,0,1,0,0-2.565H60.295a1.283,1.283,0,1,0,0,2.565Z" transform="translate(-51.443 -167.379)" fill="#038d08"/>
      <path id="Path_2021" data-name="Path 2021" d="M60.295,255.31h9.938a1.283,1.283,0,1,0,0-2.565H60.295a1.283,1.283,0,0,0,0,2.565Z" transform="translate(-51.443 -227.744)" fill="#038d08"/>
      <path id="Path_2022" data-name="Path 2022" d="M148.268,435a1.281,1.281,0,1,0-.694,1.675A1.294,1.294,0,0,0,148.268,435Z" transform="translate(-127.105 -385.932)" fill="#038d08"/>
      <path id="Path_2023" data-name="Path 2023" d="M65.323,87.032,50.067,70.656,54.738,66a4.24,4.24,0,0,0,.032-6,4.277,4.277,0,0,0-6-.047l-.012.012-6.4,6.389H39.959V61.428a1.283,1.283,0,0,0-1.283-1.283H31.885V59.1a1.283,1.283,0,1,0-2.565,0v1.048H24.635V59.1a1.283,1.283,0,1,0-2.565,0v1.048H17.384V59.1a1.283,1.283,0,1,0-2.565,0v1.048H10.134V59.1a1.283,1.283,0,1,0-2.565,0v1.048H1.283A1.283,1.283,0,0,0,0,61.428v45.941a1.283,1.283,0,0,0,1.283,1.283H14.374a1.283,1.283,0,0,0,0-2.565H2.565V62.71h5v1.164a1.283,1.283,0,0,0,2.565,0V62.71h4.685v1.164a1.283,1.283,0,0,0,2.565,0V62.71H22.07v1.164a1.283,1.283,0,0,0,2.565,0V62.71H29.32v1.164a1.283,1.283,0,0,0,2.565,0V62.71h5.509v3.65a9.271,9.271,0,0,0-6.137,2.691l-9.438,9.438a1.294,1.294,0,0,0,.21,1.984,8.723,8.723,0,0,0,3.5,1.311,8.837,8.837,0,0,0,1.26.09h.006l-1.472,1.469a1.282,1.282,0,0,0-.254.365l-4.114,6.18a2.8,2.8,0,0,0-.467,1.809H8.851a1.283,1.283,0,0,0,0,2.565H23.3a2.842,2.842,0,0,0,1.572-.5l6.254-4.249a1.331,1.331,0,0,0,.208-.168l2.9-2.894,3.164,3.158v16.473H25.658a1.283,1.283,0,1,0,0,2.565H38.677a1.283,1.283,0,0,0,1.283-1.283V92.116A8.994,8.994,0,0,0,45.737,94.2h5.117a3.927,3.927,0,0,1,2.824,1.2l9.772,10.384a1.294,1.294,0,0,0,2.217-.879v-17A1.282,1.282,0,0,0,65.323,87.032ZM33.071,70.865a6.669,6.669,0,0,1,4.7-1.947H39.78L31.79,76.89A8.947,8.947,0,0,1,29.4,78.734a6.268,6.268,0,0,1-4.489.288Zm17.49-9.077a1.7,1.7,0,0,1,2.387.017,1.675,1.675,0,0,1-.017,2.372l-13.4,13.373-.646-.646a5,5,0,0,0-2.192-1.277ZM23.426,91.645a.219.219,0,0,1-.307-.028.21.21,0,0,1-.031-.307l3.352-5.034,1.98,1.977Zm7-5.016-2.38-2.38,2.444-2.438a5.04,5.04,0,0,0,1.3,2.209l.626.624ZM63.1,101.672,55.54,93.636a6.509,6.509,0,0,0-4.686-2H45.737a6.454,6.454,0,0,1-4.587-1.9L33.6,82.2c-1.09-.818-.847-2.63,0-3.491a2.508,2.508,0,0,1,3.469.007L43.2,84.853a1.3,1.3,0,0,0,1.814,0,1.283,1.283,0,0,0,0-1.814L41.34,79.363l6.91-6.894L63.1,88.411Z" transform="translate(0 -57.815)" fill="#038d08"/>
    </g>
  </g>
</svg>
