<svg id="Group_532" data-name="Group 532" xmlns="http://www.w3.org/2000/svg" width="40.14" height="50" viewBox="0 0 40.14 50">
  <g id="shopping-bag">
    <g id="Group_384" data-name="Group 384">
      <g id="Group_383" data-name="Group 383">
        <path id="Path_2008" data-name="Path 2008" d="M93.136,41.232,90.875,13.1a3.543,3.543,0,0,0-3.534-3.233H82.876v-.2a9.787,9.787,0,0,0-19.571,0v.2H58.839a3.542,3.542,0,0,0-3.533,3.229L53.044,41.236a8.1,8.1,0,0,0,2.171,6.155A8.316,8.316,0,0,0,61.263,50H84.917a8.316,8.316,0,0,0,6.048-2.609A8.107,8.107,0,0,0,93.136,41.232ZM66.27,9.665a6.821,6.821,0,0,1,13.641,0v.2H66.27ZM88.789,45.4a5.254,5.254,0,0,1-3.872,1.67H61.263a5.254,5.254,0,0,1-3.872-1.67A5.118,5.118,0,0,1,56,41.464L58.262,13.32a.578.578,0,0,1,.577-.528H63.3V16.4a1.483,1.483,0,0,0,2.965,0V12.792H79.911V16.4a1.483,1.483,0,0,0,2.965,0V12.792h4.466a.58.58,0,0,1,.577.532L90.18,41.46A5.121,5.121,0,0,1,88.789,45.4Z" transform="translate(-53.02)" fill="#038d08"/>
      </g>
    </g>
    <g id="Group_386" data-name="Group 386" transform="translate(12.956 24.323)">
      <g id="Group_385" data-name="Group 385">
        <path id="Path_2009" data-name="Path 2009" d="M197.846,250.327a1.482,1.482,0,0,0-2.1,0l-6.62,6.62-2.546-2.546a1.483,1.483,0,0,0-2.1,2.1l3.594,3.594a1.482,1.482,0,0,0,2.1,0l7.669-7.669A1.483,1.483,0,0,0,197.846,250.327Z" transform="translate(-184.052 -249.893)" fill="#038d08"/>
      </g>
    </g>
  </g>
</svg>
