<svg xmlns="http://www.w3.org/2000/svg" xmlns:xlink="http://www.w3.org/1999/xlink" width="296.262" height="248.319" viewBox="0 0 296.262 248.319"><defs><linearGradient id="a" x1="0.5" y1="-0.227" x2="0.5" y2="0.559" gradientUnits="objectBoundingBox"><stop offset="0" stop-color="#e5e5e5"/><stop offset="0.476" stop-color="#f4f4f4"/><stop offset="1" stop-color="#fff"/></linearGradient><linearGradient id="b" x1="86.379" y1="0.412" x2="86.984" y2="0.822" gradientUnits="objectBoundingBox"><stop offset="0" stop-color="#038d08"/><stop offset="0.984" stop-color="#176ad4"/><stop offset="1" stop-color="#176ad4"/></linearGradient><linearGradient id="c" x1="1.154" y1="0.568" x2="0.42" y2="0.49" gradientUnits="objectBoundingBox"><stop offset="0" stop-color="#f2bfad"/><stop offset="1" stop-color="#f2dad4"/></linearGradient><linearGradient id="d" x1="0.51" y1="0.621" x2="0.568" y2="1.822" gradientUnits="objectBoundingBox"><stop offset="0" stop-color="#f2bfad"/><stop offset="0.704" stop-color="#f2dad4"/></linearGradient><linearGradient id="e" x1="0.404" y1="0.306" x2="0.835" y2="1.076" xlink:href="#c"/><linearGradient id="f" x1="0.386" y1="0.075" x2="0.681" y2="1.17" gradientUnits="objectBoundingBox"><stop offset="0" stop-color="#f6dbdb"/><stop offset="1" stop-color="#eb9a99"/></linearGradient></defs><g transform="translate(-169.99 -41.884)"><g transform="translate(169.99 41.884)"><g transform="translate(0 117.411)"><path d="M1754.838,907.794a2.059,2.059,0,0,0-4.068.637c.3,1.918.671,7.924-1.4,10.341a2.776,2.776,0,0,1-1.672.961l.189-11.439a2.977,2.977,0,1,0-5.952.027l.539,21.709a2.77,2.77,0,0,1-1.743-.971c-2.073-2.417-1.7-8.423-1.4-10.341a2.059,2.059,0,1,0-4.068-.637c-.148.944-1.338,9.356,2.339,13.65a6.962,6.962,0,0,0,4.975,2.444l.233,9.451h4.493l.327-19.744a6.95,6.95,0,0,0,4.87-2.437C1756.176,917.151,1754.986,908.742,1754.838,907.794Z" transform="translate(-1511.003 -905.27)" fill="#bdbdbd"/><path d="M1199.977,964.208a1.312,1.312,0,1,0-2.592.408c.189,1.223.428,5.052-.893,6.593a1.773,1.773,0,0,1-1.065.613l.121-7.294a1.9,1.9,0,1,0-3.8.017l.344,13.839a1.767,1.767,0,0,1-1.109-.617c-1.321-1.54-1.082-5.369-.893-6.593a1.312,1.312,0,0,0-2.592-.408c-.094.6-.853,5.962,1.49,8.7a4.438,4.438,0,0,0,3.172,1.557l.148,6.023h2.865l.209-12.585a4.433,4.433,0,0,0,3.1-1.554C1200.83,970.17,1200.072,964.808,1199.977,964.208Z" transform="translate(-1147.938 -943.277)" fill="#bdbdbd"/><ellipse cx="148.131" cy="52.441" rx="148.131" ry="52.441" transform="translate(0 26.027)" fill="url(#a)"/></g><g transform="translate(122.78)"><path d="M1568.859,948.822s-.088,5.046,0,5.551-1.975,3.465-2.818,3.333a9.262,9.262,0,0,1-2.771-.691c-.243-.28-.135-.944-.051-1.547s.718-6.1.718-6.38S1567.922,948.057,1568.859,948.822Z" transform="translate(-1519.861 -816.51)" fill="#ffd3bc"/><path d="M1564.419,964.3c-1.055.57-1.645,2.3-1.8,2.322s-.428-.02-.428-.192.044-.748-.148-.748-.408.94-.448,2.312-.529,4.638,0,5.052c.334.26,3.384,1.864,3.468,2.076s-.064,1.712.192,1.948.856.812,1.328.836a20.526,20.526,0,0,0,4.476,0,9.868,9.868,0,0,0,2.956-1.092c.044-.172-.32-3.812-.728-4.26s-3.34-4.476-3.576-4.84a4.144,4.144,0,0,1-.408-1.756,2.262,2.262,0,0,0-1.331-1.9A6.014,6.014,0,0,0,1564.419,964.3Z" transform="translate(-1518.69 -826.724)" fill="url(#b)"/><path d="M1488.709,957.481s0,2.939-.084,3.445,1.975,3.465,2.818,3.333a9.262,9.262,0,0,0,2.771-.691c.243-.28.135-.944.051-1.547s-.63-3.994-.63-4.274S1489.646,956.712,1488.709,957.481Z" transform="translate(-1470.474 -822.25)" fill="#ffd3bc"/><path d="M1488.608,764.307c-1.193,4.334-3.448,19.188-3.448,26.407s-.721,25.626-.721,28.42-.3,9.737.421,10.1a7.229,7.229,0,0,0,4.7,1.085,3.092,3.092,0,0,0,2.953-3.131c.061-1.325.6-10.843,1.146-14.517s2.471-10.762,3.734-15.319,4.216-13.724,5-13.691,5.662,20.115,6.067,21.254,1.18,17.307,1.23,18.666,0,2.663.853,3.215a14.931,14.931,0,0,0,4.823,2.009c1.358.1,2.261-2.059,2.511-2.713s.7-22.282.536-28.214.31-17,.034-20.6-1.156-11.338-1.719-12.966S1488.608,764.307,1488.608,764.307Z" transform="translate(-1467.659 -693.927)" fill="#192b59"/><path d="M1460.521,578.654c1.139-1.264,6.448-7.25,7.5-7.462s3.62-.674,4.189-1.264,2.99-8.183,2.032-9.565-4.655-.991-5.773,1.362-1.065,3.583-2.912,5.207-9.9,8.207-10.647,8.871.738,3.9,1.914,4.456S1460.521,578.654,1460.521,578.654Z" transform="translate(-1447.991 -558.672)" fill="url(#c)"/><path d="M1461.983,611.166c-2.713.57-7.223,1.052-8.709,1.534s-7.354,2.538-7.31,1.662,2.713-4.725,2.231-5.12-3.37-.876-3.852-1.49-1.139-2.056-1.793-1.881-8.268,7.263-7.749,9.98c1.227,6.4,19.218,11.062,19.63,13.853s-1.4,29.552-.411,30.536,11.409,4.762,16.663,5.089,14.469-1.5,14.972-2.885-2.565-27.971-2.208-27.971.455,8.369,4.459,10.533c2.642,1.429,6.276-.044,6.97-.833s-2.484-11.914-3.92-15.669-2.814-11.507-6.067-14.257-7.843-2.285-9.424-2.929-6.882-.182-8.22-.324A49.065,49.065,0,0,0,1461.983,611.166Z" transform="translate(-1434.775 -589.361)" fill="#038d08"/><path d="M1605.074,696.133s-4.678,1.416-5.042,1.9-1.015,2.433,0,3.246,2.127,1.419,3.33.482,2.3-2.194,2.993-2.356,2.774.138,3.647-.2,2.528-6.96,1.861-7.361S1605.074,696.133,1605.074,696.133Z" transform="translate(-1543.973 -646.349)" fill="url(#d)"/><path d="M1505.4,577.826c-1.51-.313-4.425-3.165-4.692-6.06-.26-2.821-2.336-10.752,4.887-13.728,6.778-2.791,13.755.081,14.756,3.522.937,3.215-7.021,3.36-9.936,5.453s-3.114,3.485-3.842,3.151S1505.4,577.826,1505.4,577.826Z" transform="translate(-1478.172 -556.914)" fill="#e64d4e"/><path d="M1514.828,599.576c-.094,1.294-.421,7.543.121,8.467.5.846,1.382,3.3,4.843,3.2s5.71-3.573,5.9-3.977-.216-5.413-.216-6.252-4.655-2.814-6.522-2.76S1514.919,598.362,1514.828,599.576Z" transform="translate(-1487.725 -584.316)" fill="url(#e)"/><path d="M1509.844,582.33c.391-.01-.071,2.373.637,3.151s3.788,4.84,7.048,4.442c2.818-.344,2.413-2.774,2.821-4.773.367-1.817,1.54-1.972,1.952-6.714.158-1.833,1.028-4.708-.566-5.238s-7.573-1.948-9.06,0-1.628,6.62-2.407,6.016-2.406-3.539-3.364-1.948S1507.754,582.391,1509.844,582.33Z" transform="translate(-1482.42 -567.05)" fill="#f2dad4"/><path d="M1571.735,673.215l-9.488,12a.943.943,0,0,0,.755,1.527l17.536-.3a.942.942,0,0,0,.738-.377l8.962-11.975a.855.855,0,0,0-.691-1.368l-17.081.142A.921.921,0,0,0,1571.735,673.215Z" transform="translate(-1519.148 -633.688)" fill="url(#f)"/><path d="M1620.851,688.5c-.923.094-2.265.613-2.265,1.1s1.075.613,1.372.661.688.138.576.286-.334.89-.927.762a35.867,35.867,0,0,0-3.694-.169c-.5,0-1.1.354-1.132.725s-.148.445-.445.465-.836.3-.836.779,1.193.917,1.193,1.089a21.285,21.285,0,0,0,2.8,1.864c.458.266,1.315.94,1.8.94a1.463,1.463,0,0,0,1.352-1.122c.061-.664,1.015-1.146,1.025-1.473s-.3-.566-.266-.772.87-.5.87-1.014a5.958,5.958,0,0,0-.374-1.436c-.047-.216-.243-.688-.047-.748s.87-.688.748-1.267S1621.276,688.461,1620.851,688.5Z" transform="translate(-1553.262 -644.148)" fill="#ffd3bc"/><path d="M1479.432,966.705c1.055.57,1.645,2.3,1.8,2.322s.428-.02.428-.192-.044-.748.148-.748.408.94.448,2.312.529,4.638,0,5.052c-.334.26-3.384,1.864-3.468,2.076s.064,1.712-.192,1.948-.856.812-1.328.836a20.525,20.525,0,0,1-4.476,0,9.87,9.87,0,0,1-2.956-1.092c-.044-.172.32-3.812.728-4.26s3.34-4.476,3.576-4.84a4.144,4.144,0,0,0,.408-1.756,2.262,2.262,0,0,1,1.331-1.9A6.066,6.066,0,0,1,1479.432,966.705Z" transform="translate(-1458.014 -828.32)" fill="#038d08"/></g></g></g></svg>