<svg xmlns="http://www.w3.org/2000/svg" xmlns:xlink="http://www.w3.org/1999/xlink" width="618.867" height="476.329" viewBox="0 0 618.867 476.329">
  <defs>
    <linearGradient id="linear-gradient" x1="0.531" y1="1.017" x2="0.531" y2="-0.007" gradientUnits="objectBoundingBox">
      <stop offset="0" stop-color="gray" stop-opacity="0.251"/>
      <stop offset="0.54" stop-color="gray" stop-opacity="0.122"/>
      <stop offset="1" stop-color="gray" stop-opacity="0.102"/>
    </linearGradient>
    <linearGradient id="linear-gradient-2" x1="0.5" y1="1" x2="0.5" y2="0.001" xlink:href="#linear-gradient"/>
  </defs>
  <g id="Group_46" data-name="Group 46" transform="translate(0.007 0)">
    <path id="Path_194" data-name="Path 194" d="M619.567,288.385c-22.8,34.3-17.032,81.977-5.55,119.74,3.866,12.641,8.234,26,5.638,39.972-3.175,17.087-16.12,30.247-29.391,37.614-24.183,13.436-52.255,12.332-73.08-2.866-18-13.138-30.231-35.554-48.6-48.046-30.7-20.831-71.694-9.687-107.094,8.218-25.045,12.652-52.542,28.789-76.278,18.666-16.7-7.124-27.525-26.31-32.9-47.025-2.6-10-4.3-20.9-9.83-28.612-3.314-4.584-7.732-7.732-12.31-10.289-41.811-23.6-96.976-6.158-137.429-32.7-27.3-17.893-43.54-53.867-49.6-92.056s-3.076-78.807.977-118.779c2.877-28.4,7-58.788,22.847-81.557,16.761-24.084,43.949-34.339,67.928-31.451s45.064,17.192,63.416,34.461c22.935,21.538,43.833,48.853,72.953,56.33,19.832,5.108,41.2.315,62.046-2.209,34.847-4.17,69.38-1.85,103.681.906,32.843,2.64,65.9,5.738,96.739,16.993,21.825,7.964,38.846,23.824,59.307,34.372,13.337,6.876,28.193,8.08,40.69,17.12,15.4,11.128,29,31.307,23.653,56.242C652.288,257.171,631.667,270.16,619.567,288.385Z" transform="translate(-39.7 -18.74)" fill="#5cab5f" opacity="0.1"/>
    <rect id="Rectangle_36" data-name="Rectangle 36" width="22.582" height="34.185" transform="translate(486.425 141.61)" fill="#6c63ff" opacity="0.1"/>
    <rect id="Rectangle_37" data-name="Rectangle 37" width="18.191" height="27.536" transform="translate(488.618 144.934)" fill="#5cab5f" opacity="0.1"/>
    <rect id="Rectangle_38" data-name="Rectangle 38" width="34.682" height="34.185" transform="translate(440.588 117.863)" fill="#6c63ff" opacity="0.1"/>
    <rect id="Rectangle_39" data-name="Rectangle 39" width="27.939" height="27.536" transform="translate(443.957 121.187)" fill="#5cab5f" opacity="0.1"/>
    <rect id="Rectangle_40" data-name="Rectangle 40" width="106.006" height="2.822" transform="translate(35.684 67)" fill="#5cab5f" opacity="0.1"/>
    <rect id="Rectangle_41" data-name="Rectangle 41" width="106.006" height="2.822" transform="translate(35.684 80.801)" fill="#5cab5f" opacity="0.1"/>
    <rect id="Rectangle_42" data-name="Rectangle 42" width="10.83" height="121.022" transform="translate(214.51 249.968)" fill="#d6d6e3"/>
    <path id="Path_195" data-name="Path 195" d="M961.595,394.363V282.73A11.736,11.736,0,0,1,973.33,271h0a11.735,11.735,0,0,1,11.713,11.73v135.1a11.735,11.735,0,0,1-11.735,11.735H900.625a11.736,11.736,0,0,1-11.735-11.735h0A11.736,11.736,0,0,1,900.625,406.1h49.234a11.735,11.735,0,0,0,11.735-11.735Z" transform="translate(-419.922 -131.688)" fill="#aebee1"/>
    <path id="Path_196" data-name="Path 196" d="M961.595,394.363V282.73A11.736,11.736,0,0,1,973.33,271h0a11.735,11.735,0,0,1,11.713,11.73v135.1a11.735,11.735,0,0,1-11.735,11.735H900.625a11.736,11.736,0,0,1-11.735-11.735h0A11.736,11.736,0,0,1,900.625,406.1h49.234a11.735,11.735,0,0,0,11.735-11.735Z" transform="translate(-419.922 -131.688)" fill="#141414"/>
    <path id="Path_197" data-name="Path 197" d="M888.92,417.2A11.735,11.735,0,0,1,900.639,406.1h49.234a11.735,11.735,0,0,0,11.736-11.735V282.73A11.735,11.735,0,0,1,972.78,271V417.2Z" transform="translate(-419.935 -131.688)" fill="#d6d6e3"/>
    <path id="Path_198" data-name="Path 198" d="M213.193,401.179V289.545a11.735,11.735,0,0,0-11.708-11.735h0a11.735,11.735,0,0,0-11.735,11.735v135.1a11.735,11.735,0,0,0,11.735,11.763h72.677A11.735,11.735,0,0,0,285.9,424.677h0a11.735,11.735,0,0,0-11.735-11.735H224.934a11.735,11.735,0,0,1-11.741-11.763Z" transform="translate(-106.887 -134.737)" fill="#aebee1"/>
    <path id="Path_199" data-name="Path 199" d="M213.193,401.179V289.545a11.735,11.735,0,0,0-11.708-11.735h0a11.735,11.735,0,0,0-11.735,11.735v135.1a11.735,11.735,0,0,0,11.735,11.763h72.677A11.735,11.735,0,0,0,285.9,424.677h0a11.735,11.735,0,0,0-11.735-11.735H224.934a11.735,11.735,0,0,1-11.741-11.763Z" transform="translate(-106.887 -134.737)" fill="#2d2d2d"/>
    <path id="Path_200" data-name="Path 200" d="M295.844,424.034a11.736,11.736,0,0,0-11.719-11.106H234.9a11.735,11.735,0,0,1-11.741-11.735V289.559A11.735,11.735,0,0,0,212,277.84l0,146.193Z" transform="translate(-116.849 -134.75)" fill="#d6d6e3"/>
    <rect id="Rectangle_43" data-name="Rectangle 43" width="10.83" height="123.844" transform="translate(428.769 249.968)" fill="#d6d6e3"/>
    <rect id="Rectangle_44" data-name="Rectangle 44" width="10.83" height="8.947" transform="translate(214.51 249.968)" opacity="0.1"/>
    <rect id="Rectangle_45" data-name="Rectangle 45" width="10.83" height="8.947" transform="translate(428.769 249.968)" opacity="0.1"/>
    <path id="Path_201" data-name="Path 201" d="M496.4,337.92q-.26,2.861-.657,5.8h-1.53v-5.8Z" transform="translate(-243.207 -161.651)" opacity="0.1"/>
    <path id="Path_202" data-name="Path 202" d="M540.771,398.165a3.341,3.341,0,0,1-3.131,3.568H504.587v-3.446h27.5a1.728,1.728,0,0,0,1.331-2.585l-24.94-50.725a2.209,2.209,0,0,0-1.933-1.248H494.21v-5.8h15.579a1.546,1.546,0,0,1,1.353.873l28.59,55.226A9.388,9.388,0,0,1,540.771,398.165Z" transform="translate(-243.207 -161.655)" fill="#141414"/>
    <path id="Path_203" data-name="Path 203" d="M464.8,346.966l-.453.762L460.11,344.9l13.105-100.77h3.374s.138.464.365,1.348C479.213,254.187,490.307,303.509,464.8,346.966Z" transform="translate(-227.938 -119.657)" fill="#141414"/>
    <path id="Path_204" data-name="Path 204" d="M476.948,245.478,464.8,346.966l-.453.762L460.11,344.9l13.105-100.77h3.374S476.722,244.61,476.948,245.478Z" transform="translate(-227.938 -119.657)" opacity="0.1"/>
    <rect id="Rectangle_46" data-name="Rectangle 46" width="104.537" height="8.008" transform="translate(228.337 227.225) rotate(-83.17)" fill="#d6d6e3"/>
    <path id="Path_205" data-name="Path 205" d="M401.15,446.309a.95.95,0,0,1-.944.944h-1.414a.944.944,0,0,1-.944-.944.455.455,0,0,1,0-.11.944.944,0,0,1,.933-.828h1.414a.95.95,0,0,1,.911.718A.872.872,0,0,1,401.15,446.309Z" transform="translate(-200.059 -209.761)" fill="#e3edf9"/>
    <path id="Path_206" data-name="Path 206" d="M408.823,446.309a.95.95,0,0,1-.944.944h-1.414a.944.944,0,0,1-.944-.944.929.929,0,0,1,.039-.26.889.889,0,0,1,.237-.4.922.922,0,0,1,.663-.276h1.414a.95.95,0,0,1,.867.552.973.973,0,0,1,.083.387Z" transform="translate(-203.496 -209.761)" fill="#e3edf9"/>
    <path id="Path_207" data-name="Path 207" d="M415.642,446.3a.95.95,0,0,1-.944.944h-1.414a.944.944,0,0,1-.944-.944.9.9,0,0,1,.083-.392.961.961,0,0,1,.856-.552h1.414a.939.939,0,0,1,.944.944Z" transform="translate(-206.55 -209.756)" fill="#e3edf9"/>
    <path id="Path_208" data-name="Path 208" d="M423.323,446.309a.95.95,0,0,1-.944.944h-1.414a.944.944,0,0,1-.773-1.486l.11-.122a.922.922,0,0,1,.663-.276h1.414a.95.95,0,0,1,.685.3A.911.911,0,0,1,423.323,446.309Z" transform="translate(-209.989 -209.761)" fill="#e3edf9"/>
    <path id="Path_209" data-name="Path 209" d="M401.122,446.66a.872.872,0,0,1,.028.226.95.95,0,0,1-.944.944h-1.414a.944.944,0,0,1-.944-.944.455.455,0,0,1,0-.11Z" transform="translate(-200.059 -210.338)" opacity="0.1"/>
    <path id="Path_210" data-name="Path 210" d="M408.745,446.39a.971.971,0,0,1,.077.37.95.95,0,0,1-.944.944h-1.414a.944.944,0,0,1-.944-.944.927.927,0,0,1,.039-.26Z" transform="translate(-203.496 -210.217)" opacity="0.1"/>
    <path id="Path_211" data-name="Path 211" d="M415.509,446.16a.942.942,0,0,1-.8,1.441h-1.414a.944.944,0,0,1-.944-.944.9.9,0,0,1,.083-.392Z" transform="translate(-206.554 -210.114)" opacity="0.1"/>
    <path id="Path_212" data-name="Path 212" d="M423.323,446.551a.95.95,0,0,1-.944.944h-1.414a.944.944,0,0,1-.773-1.485l2.872-.1A.911.911,0,0,1,423.323,446.551Z" transform="translate(-209.989 -210.003)" opacity="0.1"/>
    <path id="Path_213" data-name="Path 213" d="M419.2,450.544H391.89V449.3a2.126,2.126,0,0,1,2.054-2.126l21.9-.757a3.247,3.247,0,0,1,3.358,3.242Z" transform="translate(-197.394 -210.229)" fill="#d6d6e3"/>
    <path id="Path_214" data-name="Path 214" d="M685.31,398.165a3.341,3.341,0,0,0,3.131,3.568H721.51v-3.446H693.974a1.728,1.728,0,0,1-1.331-2.585l24.94-50.725a2.209,2.209,0,0,1,1.933-1.248h12.343v-5.8H716.291a1.546,1.546,0,0,0-1.331.867l-28.59,55.226A9.387,9.387,0,0,0,685.31,398.165Z" transform="translate(-328.77 -161.655)" fill="#141414"/>
    <path id="Path_215" data-name="Path 215" d="M781.857,346.966l.453.762,4.236-2.828L773.441,244.13h-3.374s-.138.464-.364,1.348C767.438,254.187,756.321,303.509,781.857,346.966Z" transform="translate(-364.608 -119.657)" fill="#141414"/>
    <path id="Path_216" data-name="Path 216" d="M773.23,245.478l12.15,101.488.453.762,4.236-2.828-13.1-100.77h-3.374S773.456,244.61,773.23,245.478Z" transform="translate(-368.136 -119.657)" opacity="0.1"/>
    <rect id="Rectangle_47" data-name="Rectangle 47" width="8.008" height="104.537" transform="translate(405.39 124.374) rotate(-6.83)" fill="#d6d6e3"/>
    <path id="Path_217" data-name="Path 217" d="M860,446.309a.95.95,0,0,0,.944.944h1.414a.944.944,0,0,0,.944-.944.452.452,0,0,0,0-.11.944.944,0,0,0-.933-.828h-1.414a.95.95,0,0,0-.911.718A.863.863,0,0,0,860,446.309Z" transform="translate(-406.986 -209.761)" fill="#e3edf9"/>
    <path id="Path_218" data-name="Path 218" d="M852.329,446.309a.95.95,0,0,0,.944.944h1.414a.944.944,0,0,0,.944-.944.93.93,0,0,0-.039-.26.89.89,0,0,0-.237-.4.922.922,0,0,0-.663-.276h-1.441a.95.95,0,0,0-.867.552A.969.969,0,0,0,852.329,446.309Z" transform="translate(-403.551 -209.761)" fill="#e3edf9"/>
    <path id="Path_219" data-name="Path 219" d="M845.51,446.3a.95.95,0,0,0,.944.944h1.414a.944.944,0,0,0,.944-.944.9.9,0,0,0-.083-.392.961.961,0,0,0-.856-.552H846.46a.939.939,0,0,0-.944.944Z" transform="translate(-400.499 -209.756)" fill="#e3edf9"/>
    <path id="Path_220" data-name="Path 220" d="M837.83,446.309a.95.95,0,0,0,.944.944h1.414a.944.944,0,0,0,.773-1.486l-.11-.122a.922.922,0,0,0-.663-.276h-1.414a.95.95,0,0,0-.685.3A.912.912,0,0,0,837.83,446.309Z" transform="translate(-397.06 -209.761)" fill="#e3edf9"/>
    <path id="Path_221" data-name="Path 221" d="M860.028,446.66a.875.875,0,0,0-.028.226.95.95,0,0,0,.944.944h1.414a.944.944,0,0,0,.944-.944.452.452,0,0,0,0-.11Z" transform="translate(-406.986 -210.338)" opacity="0.1"/>
    <path id="Path_222" data-name="Path 222" d="M852.407,446.39a.976.976,0,0,0-.077.37.95.95,0,0,0,.944.944h1.414a.944.944,0,0,0,.944-.944.926.926,0,0,0-.039-.26Z" transform="translate(-403.552 -210.217)" opacity="0.1"/>
    <path id="Path_223" data-name="Path 223" d="M845.644,446.16a.942.942,0,0,0,.8,1.441h1.414a.944.944,0,0,0,.944-.944.894.894,0,0,0-.083-.392Z" transform="translate(-400.494 -210.114)" opacity="0.1"/>
    <path id="Path_224" data-name="Path 224" d="M837.83,446.551a.95.95,0,0,0,.944.944h1.414a.944.944,0,0,0,.773-1.485l-2.872-.1a.911.911,0,0,0-.26.641Z" transform="translate(-397.06 -210.003)" opacity="0.1"/>
    <path id="Path_225" data-name="Path 225" d="M822.485,450.544h27.309V449.3a2.126,2.126,0,0,0-2.054-2.126l-21.9-.757a3.247,3.247,0,0,0-3.358,3.242Z" transform="translate(-390.187 -210.229)" fill="#d6d6e3"/>
    <path id="Path_226" data-name="Path 226" d="M919.6,356.557c12.74-21.61,8.124-65.2,8.637-66.033.458-.734-1.3-21.262-13.005-26.276-2.115-4.192-4.2-8.913-4.2-8.913a3.713,3.713,0,0,1-.674.5q-.138-.376-.271-.762c-.149-.436-.287-.884-.425-1.331a8.569,8.569,0,0,0,1,.254,4.164,4.164,0,0,0,2.673-.237,2.978,2.978,0,0,0,.768-.591,5.819,5.819,0,0,0,1.861-2.761l3.407-8.162a63.536,63.536,0,0,0,3.9-11.294,31.8,31.8,0,0,0-1.359-17.595,11.227,11.227,0,0,0-3.816-5.567c-3.794-2.574-9.074-.8-13.409-2.3-1.425-.5-2.711-1.336-4.136-1.845a12.72,12.72,0,0,0-9.51.862c-2.96,1.375-5.357,3.562-7.947,5.523-1.276.978-3.313,1.988-4.816,3.314-1.458,1.138-2.579,2.513-2.364,4.324.243,2.071,2.424,3.314,4.457,3.8.337.077.685.138,1.027.2a19.881,19.881,0,0,0,8.488,33.025,46.607,46.607,0,0,1,2.684,6.036q.149.425.293.856c-3.347.95-5.964,1.74-6.489,2.176-1.585,1.314,1.734,12.823,1.734,12.823-.845,1.071-1.707,2.292-2.579,3.6a77.618,77.618,0,0,0-12.238,33.45c-.552,4.368-1.27,8.836-2.182,13.083l-39.58-7.936-.083.977-.944-.232h0l-2.971-.734-.116.668-.453-.215c-7.362-3.452-19.765-7.859-28.165-3.314-8.864,4.772,10.266,11.111,22.543,14.486a19.944,19.944,0,0,0-11.045,3.463c-8.9,6.671,16.275,10.145,28.165,11.376l.48.05v.254l4.12.381.966.088.094,1.469s5.9.966,13.779,2.137a240.335,240.335,0,0,1-27.834,4.716,20.365,20.365,0,0,0-17.352,14.607,12.989,12.989,0,0,0-.2,7.025c2.3,8.024-.508,67.055-1.143,79.768l-14.552,8.378s-22.643,2.761-7.56,8.068a31.011,31.011,0,0,0,4.158,1.1c-1.988,1.281-1.817,2.955,4.043,5.009,15.093,5.291,50.178-.232,50.178-.232s-.768-6.218-2.016-11.388l.387.033s-3.623-13.481,1.872-20.279-.922-58.539-.922-58.539,9.62-3.982,38.376-4.241c23.195,5.953,34.5-15.358,34.339-26.376A5.862,5.862,0,0,1,919.6,356.557Z" transform="translate(-372.993 -101.271)" fill="url(#linear-gradient)"/>
    <path id="Path_227" data-name="Path 227" d="M845.4,413.638l-2.458,9.941s-2.209-.5-5.523-1.347c-11.222-2.9-34.892-9.88-25.4-15,8.179-4.418,20.224-.122,27.375,3.231,2.618,1.232,4.584,2.336,5.462,2.855C845.228,413.528,845.4,413.638,845.4,413.638Z" transform="translate(-384.521 -191.841)" fill="#f8b9bf"/>
    <path id="Path_228" data-name="Path 228" d="M867.09,420.627l-1.767,7.179s-2.209-.5-5.523-1.347l1.994-11.769c2.618,1.232,4.584,2.336,5.462,2.855Z" transform="translate(-406.897 -196.024)" opacity="0.1"/>
    <path id="Path_229" data-name="Path 229" d="M827.749,409.365l-6.859-1.7,2.132-12.569,5.484,1.353Z" transform="translate(-367.551 -176.903)" fill="#d9dfe8"/>
    <path id="Path_230" data-name="Path 230" d="M830.91,409.942l-2.96-.729,1.116-12.823,2.6.641Z" transform="translate(-370.712 -177.481)" opacity="0.1"/>
    <path id="Path_231" data-name="Path 231" d="M937.437,344.359s-13.171-7.61-19.025,14.221-6.406,31.887-6.406,31.887l-41.6-8.317-1.32,15.193s44.473,14.359,50.068,13.315S942.9,379.179,942.9,379.179,959.406,355.592,937.437,344.359Z" transform="translate(-411.056 -163.959)" fill="#038d08"/>
    <g id="Group_42" data-name="Group 42" transform="translate(425.305 213.507)" opacity="0.1">
      <path id="Path_232" data-name="Path 232" d="M845.4,413.638l-2.458,9.941s-2.209-.5-5.523-1.347c-11.222-2.9-34.892-9.88-25.4-15,8.179-4.418,20.224-.122,27.375,3.231,2.618,1.232,4.584,2.336,5.462,2.855C845.228,413.528,845.4,413.638,845.4,413.638Z" transform="translate(-809.826 -405.348)"/>
      <path id="Path_233" data-name="Path 233" d="M867.09,420.627l-1.767,7.179s-2.209-.5-5.523-1.347l1.994-11.769c2.618,1.232,4.584,2.336,5.462,2.855Z" transform="translate(-832.202 -409.531)" opacity="0.1"/>
      <path id="Path_234" data-name="Path 234" d="M827.749,409.365l-6.859-1.7,2.132-12.569,5.484,1.353Z" transform="translate(-792.855 -390.41)"/>
      <path id="Path_235" data-name="Path 235" d="M830.91,409.942l-2.96-.729,1.116-12.823,2.6.641Z" transform="translate(-796.016 -390.988)" opacity="0.1"/>
    </g>
    <path id="Path_237" data-name="Path 237" d="M817.344,650.893l-16.982,9.78s-22,2.7-7.345,7.831,48.731-.226,48.731-.226-1.894-15.309-4.534-17.446S817.344,650.893,817.344,650.893Z" transform="translate(-374.741 -301.337)" fill="#141414"/>
    <path id="Path_238" data-name="Path 238" d="M904.929,452.8s-8.45,4.418-23.46,8.234a235.128,235.128,0,0,1-27.42,4.672,19.776,19.776,0,0,0-16.855,14.154A12.614,12.614,0,0,0,837,486.7c2.5,8.742-1.231,79.807-1.231,79.807l25.79,2.386s-3.518-13.094,1.823-19.693-.895-56.833-.895-56.833,9.344-3.866,37.266-4.12c25.868,6.627,36.526-21.687,32.533-29.623S904.929,452.8,904.929,452.8Z" transform="translate(-396.138 -212.972)" fill="#1c1b1b"/>
    <path id="Path_241" data-name="Path 241" d="M831.768,661.643l-16.982,9.78s-21.991,2.673-7.345,7.831,48.731-.226,48.731-.226-1.894-15.309-4.534-17.446S831.768,661.643,831.768,661.643Z" transform="translate(-381.201 -306.15)" fill="#2d2d2d"/>
    <path id="Path_242" data-name="Path 242" d="M914.125,498.992c-27.922.254-37.266,4.12-37.266,4.12s6.235,50.255.895,56.833-1.823,19.693-1.823,19.693l-25.79-2.386s.044-.839.116-2.342c.619-12.348,3.341-69.673,1.1-77.465a12.615,12.615,0,0,1,.193-6.826A19.782,19.782,0,0,1,868.4,476.433a228.436,228.436,0,0,0,27.414-4.672l.431-.11c14.745-3.789,23.029-8.124,23.029-8.124s23.366-2.1,27.359,5.837a9.388,9.388,0,0,1,.817,4C947.652,484.076,936.662,504.774,914.125,498.992Z" transform="translate(-402.572 -217.778)" fill="#141414"/>
    <path id="Path_243" data-name="Path 243" d="M866.6,438.944l-.944,10.217s-2.27-.16-5.644-.514c-11.526-1.2-35.974-4.567-27.331-11.045,7.433-5.567,19.981-3.137,27.552-.884,2.761.828,4.882,1.629,5.826,2.01C866.407,438.861,866.6,438.944,866.6,438.944Z" transform="translate(-393.943 -204.759)" fill="#f8b9bf"/>
    <path id="Path_244" data-name="Path 244" d="M995.853,301.06s-3.457,2.706-7.682,5.677c-4.633,1.049-10.012,1.916-13.889,2.48,1.386-4.418.552-9.388-1.011-13.746a51.737,51.737,0,0,0-6.931-12.746l23.371-7.3c-1.833,4.645-1.005,9.941.552,14.546A47.963,47.963,0,0,0,995.853,301.06Z" transform="translate(-454.599 -133.671)" fill="#f8b9bf"/>
    <path id="Path_245" data-name="Path 245" d="M889.963,443.858l-.679,7.339s-2.27-.16-5.644-.514l.221-11.934c2.761.828,4.882,1.629,5.826,2.01Z" transform="translate(-417.571 -206.797)" opacity="0.1"/>
    <path id="Path_246" data-name="Path 246" d="M851.816,432.468l-7.036-.652.232-12.746,5.627.519Z" transform="translate(-378.247 -187.636)" fill="#d9dfe8"/>
    <path id="Path_247" data-name="Path 247" d="M1001.472,312.831s-3.457,2.706-7.682,5.677c-4.633,1.049-10.012,1.916-13.889,2.48,1.386-4.418.552-9.388-1.011-13.746,5.71-1.657,13.878-3.8,17-5.523A47.957,47.957,0,0,0,1001.472,312.831Z" transform="translate(-460.218 -145.442)" opacity="0.1"/>
    <path id="Path_248" data-name="Path 248" d="M991.581,302.22s3.91,8.875,6.373,12.884-28.618,7.732-28.618,7.732-3.225-11.172-1.684-12.453S988.98,304.816,991.581,302.22Z" transform="translate(-455 -145.666)" fill="#d9dfe8"/>
    <path id="Path_249" data-name="Path 249" d="M984.9,473.373a27.961,27.961,0,0,1-4.838,6.263c-13.729,13.044-36.234-.552-46.39-7.986,14.745-3.788,23.029-8.124,23.029-8.124s23.366-2.1,27.359,5.837a9.391,9.391,0,0,1,.84,4.009Z" transform="translate(-439.972 -217.778)" opacity="0.1"/>
    <path id="Path_250" data-name="Path 250" d="M975.984,412.742c-15.607,14.823-42.524-4.8-49.781-10.587-1.176-.939-1.833-1.519-1.833-1.519,2.866-2.684,5.385-8.372,7.378-15.331a134.549,134.549,0,0,0,4.015-20.312A75.384,75.384,0,0,1,947.648,332.5c.845-1.27,1.657-2.458,2.5-3.5,5.893-7.494,15.795-12.255,15.795-12.255,20.9-6.108,23.708,24.89,23.151,25.785S994.126,395.506,975.984,412.742Z" transform="translate(-435.808 -151.817)" fill="#038d08"/>
    <path id="Path_251" data-name="Path 251" d="M978.005,386.735s-13.436,32.8-18.81,34.676c-3.076,1.066-19.506-.955-32.992-2.883-1.176-.939-1.833-1.519-1.833-1.519,2.866-2.684,5.385-8.372,7.378-15.331l17.369.828s-.966-10.018,1.585-32.484,16.695-16.9,16.695-16.9C990.8,360.961,978.005,386.735,978.005,386.735Z" transform="translate(-435.808 -168.185)" opacity="0.1"/>
    <path id="Path_252" data-name="Path 252" d="M854.4,432.692l-3.037-.282-.806-12.84,2.667.243Z" transform="translate(-380.835 -187.86)" opacity="0.1"/>
    <path id="Path_253" data-name="Path 253" d="M952.494,350.505s-14.143-5.561-16.695,16.9-1.585,32.484-1.585,32.484l-42.375-2.027.955,15.22s46.119,7.571,51.492,5.7S963.1,384.11,963.1,384.11,975.871,358.336,952.494,350.505Z" transform="translate(-421.243 -167.013)" fill="#5cab5f"/>
    <path id="Path_254" data-name="Path 254" d="M987.8,285.532c-.619-3.358,2.888-3.314,4.147-6.472l-23.372,7.3a51.568,51.568,0,0,1,4.33,6.887,19.391,19.391,0,0,0,3.717.718C982.2,294.49,983.938,289.006,987.8,285.532Z" transform="translate(-455.602 -135.297)" opacity="0.1"/>
    <circle id="Ellipse_25" data-name="Ellipse 25" cx="19.307" cy="19.307" r="19.307" transform="translate(500.544 154.87) rotate(-84.72)" fill="#f8b9bf"/>
    <path id="Path_255" data-name="Path 255" d="M949.579,224.838c.237,2.01,2.358,3.236,4.33,3.689s4.109.475,5.837,1.53c2.761,1.7,3.507,5.478,3.159,8.726-.193,1.833-.469,4.081,1.033,5.147a4,4,0,0,0,1.546.552,14.5,14.5,0,0,0,4.76.166,6.769,6.769,0,0,1,2.761-.072,4.2,4.2,0,0,1,2.584,3.418c.282,1.475.127,3.01.354,4.5a9.333,9.333,0,0,0,7.356,7.588,4.048,4.048,0,0,0,2.6-.232,5.188,5.188,0,0,0,2.038-2.828l3.314-7.93a61.787,61.787,0,0,0,3.788-10.968,30.881,30.881,0,0,0-1.32-17.087,10.951,10.951,0,0,0-3.706-5.407c-3.684-2.5-8.836-.773-13.022-2.209-1.386-.48-2.634-1.3-4.015-1.789a12.365,12.365,0,0,0-9.239.839c-2.877,1.342-5.2,3.457-7.732,5.385C953.809,219.559,949.165,221.364,949.579,224.838Z" transform="translate(-447.083 -104.855)" opacity="0.1"/>
    <path id="Path_256" data-name="Path 256" d="M950.5,224.068c.237,2.01,2.358,3.236,4.33,3.689s4.109.475,5.837,1.53c2.761,1.7,3.507,5.478,3.159,8.726-.193,1.833-.469,4.081,1.033,5.147a4,4,0,0,0,1.546.552,14.5,14.5,0,0,0,4.76.166,6.769,6.769,0,0,1,2.761-.072,4.2,4.2,0,0,1,2.585,3.418c.282,1.475.127,3.01.353,4.5a9.333,9.333,0,0,0,7.356,7.588,4.048,4.048,0,0,0,2.6-.232,5.188,5.188,0,0,0,2.038-2.828l3.314-7.93a61.777,61.777,0,0,0,3.788-10.968,30.882,30.882,0,0,0-1.32-17.087,10.952,10.952,0,0,0-3.706-5.407c-3.684-2.5-8.836-.773-13.022-2.209-1.386-.48-2.634-1.3-4.015-1.789a12.365,12.365,0,0,0-9.239.839c-2.877,1.342-5.2,3.457-7.732,5.384C954.735,218.788,950.091,220.594,950.5,224.068Z" transform="translate(-447.496 -104.51)" fill="#141414"/>
    <path id="Path_257" data-name="Path 257" d="M963.652,373.34s-7.373,28.64-14.712,31.291-4.1,3.4-4.1,3.4" transform="translate(-444.654 -177.51)" opacity="0.1"/>
    <rect id="Rectangle_48" data-name="Rectangle 48" width="8.013" height="52.669" transform="translate(511.332 300.748)" fill="#d6d6e3"/>
    <rect id="Rectangle_49" data-name="Rectangle 49" width="8.013" height="3.904" transform="translate(511.332 300.748)" opacity="0.1"/>
    <path id="Path_258" data-name="Path 258" d="M936.57,560.72v1.1a2.59,2.59,0,0,0,2.59,2.59h34.892a2.59,2.59,0,0,0,2.59-2.59v-1.1a2.59,2.59,0,0,0-2.59-2.59H939.16A2.59,2.59,0,0,0,936.57,560.72Z" transform="translate(-441.27 -260.248)" fill="#d6d6e3"/>
    <path id="Path_259" data-name="Path 259" d="M937.65,559.074h38.884a2.58,2.58,0,0,0-2-.944H939.644A2.579,2.579,0,0,0,937.65,559.074Z" transform="translate(-441.754 -260.248)" opacity="0.1"/>
    <rect id="Rectangle_50" data-name="Rectangle 50" width="65.835" height="6.296" rx="3.148" transform="translate(482.427 350.551)" fill="#d6d6e3"/>
    <circle id="Ellipse_26" data-name="Ellipse 26" cx="4.009" cy="4.009" r="4.009" transform="translate(540.53 356.846)" fill="#141414"/>
    <circle id="Ellipse_27" data-name="Ellipse 27" cx="4.009" cy="4.009" r="4.009" transform="translate(482.134 356.846)" fill="#141414"/>
    <circle id="Ellipse_28" data-name="Ellipse 28" cx="4.009" cy="4.009" r="4.009" transform="translate(511.332 356.846)" fill="#141414"/>
    <rect id="Rectangle_51" data-name="Rectangle 51" width="62.974" height="9.731" rx="4.865" transform="translate(506.825 236.057)" fill="#d6d6e3"/>
    <path id="Path_260" data-name="Path 260" d="M973.613,653.5s-3.148,3.109-8.013,0" transform="translate(-454.268 -302.949)" opacity="0.1"/>
    <path id="Path_261" data-name="Path 261" d="M1020.414,455.17v.768a4,4,0,0,1-4,4H961.444a4,4,0,0,1-4-4v-.768Z" transform="translate(-450.615 -214.149)" opacity="0.1"/>
    <rect id="Rectangle_52" data-name="Rectangle 52" width="10.83" height="137.987" transform="translate(454.195 249.968)" fill="#d6d6e3"/>
    <rect id="Rectangle_53" data-name="Rectangle 53" width="10.83" height="8.947" transform="translate(454.195 249.968)" opacity="0.1"/>
    <rect id="Rectangle_54" data-name="Rectangle 54" width="8.013" height="52.669" transform="translate(128.64 304.514)" fill="#d6d6e3"/>
    <rect id="Rectangle_55" data-name="Rectangle 55" width="8.013" height="3.904" transform="translate(128.64 304.514)" opacity="0.1"/>
    <path id="Path_262" data-name="Path 262" d="M283.682,567.568v1.1a2.59,2.59,0,0,1-2.59,2.59H246.2a2.59,2.59,0,0,1-2.59-2.59v-1.1A2.59,2.59,0,0,1,246.2,565h34.892a2.59,2.59,0,0,1,2.59,2.59Z" transform="translate(-131.002 -263.324)" fill="#d6d6e3"/>
    <path id="Path_263" data-name="Path 263" d="M283.57,565.917H244.68a2.579,2.579,0,0,1,2-.917h34.892A2.579,2.579,0,0,1,283.57,565.917Z" transform="translate(-131.481 -263.324)" opacity="0.1"/>
    <rect id="Rectangle_56" data-name="Rectangle 56" width="65.835" height="6.296" rx="3.148" transform="translate(99.729 354.317)" fill="#d6d6e3"/>
    <circle id="Ellipse_29" data-name="Ellipse 29" cx="4.009" cy="4.009" r="4.009" transform="translate(99.442 360.613)" fill="#141414"/>
    <circle id="Ellipse_30" data-name="Ellipse 30" cx="4.009" cy="4.009" r="4.009" transform="translate(157.832 360.613)" fill="#141414"/>
    <circle id="Ellipse_31" data-name="Ellipse 31" cx="4.009" cy="4.009" r="4.009" transform="translate(128.634 360.613)" fill="#141414"/>
    <path id="Path_264" data-name="Path 264" d="M272.64,660.32s3.148,3.109,8.013,0" transform="translate(-144 -306.003)" opacity="0.1"/>
    <path id="Path_265" data-name="Path 265" d="M633.492,327.868s-8.991-16.341-5.7-30.545a28.258,28.258,0,0,0-1.574-17.8A47.524,47.524,0,0,0,622,271.93" transform="translate(-300.424 -132.104)" fill="none" stroke="#535461" stroke-miterlimit="10" stroke-width="2"/>
    <path id="Path_266" data-name="Path 266" d="M619.18,252.919c.469,2.143-2.043,9.206-2.043,9.206s-5.241-5.357-5.716-7.5a3.971,3.971,0,1,1,7.732-1.706Z" transform="translate(-295.61 -122.062)" fill="#6c63ff"/>
    <path id="Path_267" data-name="Path 267" d="M635.733,270.158c-.768,2.054-6.715,6.627-6.715,6.627s-1.491-7.345-.718-9.388a3.971,3.971,0,1,1,7.439,2.761Z" transform="translate(-303.145 -128.847)" fill="#6c63ff"/>
    <path id="Path_268" data-name="Path 268" d="M642.09,305.724c-1.7,1.386-9.14,2.32-9.14,2.32s2.424-7.091,4.125-8.477a3.971,3.971,0,1,1,5.015,6.158Z" transform="translate(-305.326 -144.079)" fill="#6c63ff"/>
    <path id="Path_269" data-name="Path 269" d="M641.965,335.171c-1.441,1.657-8.615,3.833-8.615,3.833s1.187-7.4,2.629-9.052a3.971,3.971,0,1,1,5.981,5.219Z" transform="translate(-305.506 -157.433)" fill="#6c63ff"/>
    <path id="Path_270" data-name="Path 270" d="M613.6,284.571c1.867,1.154,9.361,1.1,9.361,1.1s-3.314-6.721-5.18-7.875a3.971,3.971,0,1,0-4.181,6.749Z" transform="translate(-295.78 -134.44)" fill="#6c63ff"/>
    <path id="Path_271" data-name="Path 271" d="M612.7,318.386c2.126.552,9.267-1.723,9.267-1.723s-5.175-5.423-7.3-5.964a3.971,3.971,0,0,0-1.966,7.687Z" transform="translate(-294.994 -149.424)" fill="#6c63ff"/>
    <path id="Path_272" data-name="Path 272" d="M617.423,351.694c2,.895,9.427-.133,9.427-.133s-4.186-6.218-6.185-7.113a3.971,3.971,0,1,0-3.242,7.251Z" transform="translate(-297.322 -164.419)" fill="#6c63ff"/>
    <path id="Path_273" data-name="Path 273" d="M619.18,252.919c.469,2.143-2.043,9.206-2.043,9.206s-5.241-5.357-5.716-7.5a3.971,3.971,0,1,1,7.732-1.706Z" transform="translate(-295.61 -122.062)" fill="#5cab5f"/>
    <path id="Path_274" data-name="Path 274" d="M635.733,270.158c-.768,2.054-6.715,6.627-6.715,6.627s-1.491-7.345-.718-9.388a3.971,3.971,0,1,1,7.439,2.761Z" transform="translate(-303.145 -128.847)" fill="#5cab5f"/>
    <path id="Path_275" data-name="Path 275" d="M642.09,305.724c-1.7,1.386-9.14,2.32-9.14,2.32s2.424-7.091,4.125-8.477a3.971,3.971,0,1,1,5.015,6.158Z" transform="translate(-305.326 -144.079)" fill="#5cab5f"/>
    <path id="Path_276" data-name="Path 276" d="M641.965,335.171c-1.441,1.657-8.615,3.833-8.615,3.833s1.187-7.4,2.629-9.052a3.971,3.971,0,1,1,5.981,5.219Z" transform="translate(-305.506 -157.433)" fill="#5cab5f"/>
    <path id="Path_277" data-name="Path 277" d="M613.6,284.571c1.867,1.154,9.361,1.1,9.361,1.1s-3.314-6.721-5.18-7.875a3.971,3.971,0,1,0-4.181,6.749Z" transform="translate(-295.78 -134.44)" fill="#5cab5f"/>
    <path id="Path_278" data-name="Path 278" d="M612.7,318.386c2.126.552,9.267-1.723,9.267-1.723s-5.175-5.423-7.3-5.964a3.971,3.971,0,0,0-1.966,7.687Z" transform="translate(-294.994 -149.424)" fill="#5cab5f"/>
    <path id="Path_279" data-name="Path 279" d="M617.423,351.694c2,.895,9.427-.133,9.427-.133s-4.186-6.218-6.185-7.113a3.971,3.971,0,1,0-3.242,7.251Z" transform="translate(-297.322 -164.419)" fill="#5cab5f"/>
    <path id="Path_280" data-name="Path 280" d="M628.514,413.148h0a9.466,9.466,0,0,1-9.449-10.062l2.645-41.916h13.608l2.645,41.916a9.466,9.466,0,0,1-9.449,10.062Z" transform="translate(-299.101 -172.061)" fill="#038d08"/>
    <rect id="Rectangle_57" data-name="Rectangle 57" width="7.732" height="32.031" transform="translate(46.166 35.024)" fill="#5cab5f" opacity="0.1"/>
    <rect id="Rectangle_58" data-name="Rectangle 58" width="7.732" height="32.031" transform="translate(56.106 35.024)" fill="#5cab5f" opacity="0.1"/>
    <rect id="Rectangle_59" data-name="Rectangle 59" width="7.732" height="32.031" transform="translate(66.047 35.024)" fill="#5cab5f" opacity="0.1"/>
    <rect id="Rectangle_60" data-name="Rectangle 60" width="7.732" height="32.031" transform="translate(75.988 35.024)" fill="#5cab5f" opacity="0.1"/>
    <rect id="Rectangle_61" data-name="Rectangle 61" width="7.732" height="32.031" transform="translate(95.869 35.024)" fill="#5cab5f" opacity="0.1"/>
    <rect id="Rectangle_62" data-name="Rectangle 62" width="7.732" height="32.031" transform="translate(105.81 35.024)" fill="#5cab5f" opacity="0.1"/>
    <rect id="Rectangle_63" data-name="Rectangle 63" width="7.732" height="1.657" transform="translate(46.166 41.099)" fill="#6c63ff" opacity="0.1"/>
    <rect id="Rectangle_64" data-name="Rectangle 64" width="7.732" height="1.657" transform="translate(46.166 60.98)" fill="#6c63ff" opacity="0.1"/>
    <rect id="Rectangle_65" data-name="Rectangle 65" width="7.732" height="1.657" transform="translate(56.106 41.099)" fill="#6c63ff" opacity="0.1"/>
    <rect id="Rectangle_66" data-name="Rectangle 66" width="7.732" height="1.657" transform="translate(56.106 60.98)" fill="#6c63ff" opacity="0.1"/>
    <rect id="Rectangle_67" data-name="Rectangle 67" width="7.732" height="1.657" transform="translate(66.047 41.099)" fill="#6c63ff" opacity="0.1"/>
    <rect id="Rectangle_68" data-name="Rectangle 68" width="7.732" height="1.657" transform="translate(66.047 60.98)" fill="#6c63ff" opacity="0.1"/>
    <rect id="Rectangle_69" data-name="Rectangle 69" width="7.732" height="1.657" transform="translate(75.988 41.099)" fill="#6c63ff" opacity="0.1"/>
    <rect id="Rectangle_70" data-name="Rectangle 70" width="7.732" height="1.657" transform="translate(75.988 60.98)" fill="#6c63ff" opacity="0.1"/>
    <rect id="Rectangle_71" data-name="Rectangle 71" width="7.732" height="1.657" transform="translate(85.928 41.099)" fill="#6c63ff" opacity="0.1"/>
    <rect id="Rectangle_72" data-name="Rectangle 72" width="7.732" height="1.657" transform="translate(85.928 60.98)" fill="#6c63ff" opacity="0.1"/>
    <rect id="Rectangle_73" data-name="Rectangle 73" width="7.732" height="1.657" transform="translate(95.869 41.099)" fill="#6c63ff" opacity="0.1"/>
    <rect id="Rectangle_74" data-name="Rectangle 74" width="7.732" height="1.657" transform="translate(95.869 60.98)" fill="#6c63ff" opacity="0.1"/>
    <rect id="Rectangle_75" data-name="Rectangle 75" width="7.732" height="1.657" transform="translate(105.81 41.099)" fill="#6c63ff" opacity="0.1"/>
    <rect id="Rectangle_76" data-name="Rectangle 76" width="7.732" height="1.657" transform="translate(105.81 60.98)" fill="#6c63ff" opacity="0.1"/>
    <rect id="Rectangle_77" data-name="Rectangle 77" width="7.732" height="32.031" transform="translate(85.928 35.024)" fill="#5cab5f" opacity="0.1"/>
    <rect id="Rectangle_78" data-name="Rectangle 78" width="7.732" height="32.031" transform="translate(113.795 38.124) rotate(-24.84)" fill="#5cab5f" opacity="0.1"/>
    <rect id="Rectangle_79" data-name="Rectangle 79" width="7.732" height="1.657" transform="translate(116.349 43.642) rotate(-24.84)" fill="#6c63ff" opacity="0.1"/>
    <rect id="Rectangle_80" data-name="Rectangle 80" width="7.732" height="1.657" transform="translate(124.697 61.682) rotate(-24.84)" fill="#6c63ff" opacity="0.1"/>
    <path id="Path_281" data-name="Path 281" d="M329.8,463.675l-14.033-8.952c-.072-12.608-.271-71.142,2.353-78.973a12.862,12.862,0,0,0,.111-6.964A20.16,20.16,0,0,0,301.7,353.577a237.529,237.529,0,0,1-27.337-5.882c7.848-.812,13.729-1.513,13.729-1.513l.155-1.452,5.053-.243v-.215l.48-.028c11.8-.7,36.863-3.037,28.347-10.029a19.639,19.639,0,0,0-10.752-3.91c12.293-2.805,31.506-8.24,22.941-13.348-8.14-4.849-20.6-1.038-28.044,2.06l-.458.193-.083-.668-2.971.6h0l-.944.188-.044-.972-41.69,6.439a142.287,142.287,0,0,0-1.7-14.254c.933-6.218,5.274-15.286,3.744-20.152-1.778-5.65-9.079-7.5-12.15-12.6-.806-1.331-1.607-2.579-2.391-3.673a38.66,38.66,0,0,0-5.882-6.356,26.84,26.84,0,0,1,2.165-9.526,46.15,46.15,0,0,1,2.916-5.854,19.66,19.66,0,0,0,14.6-22.643c2.64,1.132,5.848,1.248,7.5-.961l-.784-.3a2.5,2.5,0,0,0,.221-.26,14.823,14.823,0,0,1-4.573-2.424,5.358,5.358,0,0,1-.8-1.187c-.762-1.546-.674-3.4-1.4-4.97a5.749,5.749,0,0,0-1.43-1.867,9.846,9.846,0,0,0-4.672-2.673,59.072,59.072,0,0,1-6-1.657,20.3,20.3,0,0,0-21.6-6.075l-.69.237a9.007,9.007,0,1,0-17.569-3.977A8.985,8.985,0,0,1,212,198.239c-.144.121-.293.237-.431.364a9.013,9.013,0,0,0-.392,12.741l.16.155a9.051,9.051,0,0,0,2.259,1.977,9.013,9.013,0,0,1-5.942-7.384c0,.188,0,.376,0,.552a9.013,9.013,0,0,0,9.582,8.472l.249-.028-.133.182a20.273,20.273,0,0,0,1.822,25.1,9.388,9.388,0,0,0,1.447,2.319,7.518,7.518,0,0,0,.668.674,8.565,8.565,0,0,0,5.777,2.662,17.265,17.265,0,0,0,1.176,1.265,32.871,32.871,0,0,1-1.425,4.551,48.233,48.233,0,0,1-4.374,8.433c-11.929,3.391-12.978,23.648-12.547,24.415.514.917-1.778,32.727,7.058,71.153-.365,10.984,6.042,29.148,28.784,24.36,28.441,1.519,37.769,5.876,37.769,5.876s-2.7,49.466,1.154,56.667c2.413,4.512.7,11.139-1.1,15.817a17.376,17.376,0,0,0-1.59,3.667c-.552,1.165-.955,1.872-.955,1.872h.387c-1.458,5.064-2.491,11.178-2.491,11.178s34.477,7,49.642,2.419c5.887-1.778,6.13-3.424,4.219-4.783a30.7,30.7,0,0,0,4.164-.911C352.1,467.425,329.8,463.675,329.8,463.675Z" transform="translate(-114.901 -98.374)" fill="url(#linear-gradient-2)"/>
    <path id="Path_282" data-name="Path 282" d="M260.763,238.881A19.881,19.881,0,1,1,240.881,219,19.881,19.881,0,0,1,260.763,238.881Z" transform="translate(-120.879 -108.405)" fill="#141414"/>
    <path id="Path_283" data-name="Path 283" d="M374.09,418.312l2.016,10.062s2.242-.4,5.561-1.1c11.338-2.4,35.295-8.334,26.017-13.867-7.98-4.755-20.2-1.016-27.491,2.021-2.673,1.1-4.683,2.132-5.583,2.612C374.272,418.207,374.09,418.312,374.09,418.312Z" transform="translate(-189.424 -194.433)" fill="#f8b9bf"/>
    <path id="Path_284" data-name="Path 284" d="M375.08,424.627l1.447,7.224s2.242-.4,5.561-1.1L380.613,418.9c-2.673,1.1-4.683,2.132-5.583,2.612Z" transform="translate(-189.845 -197.909)" opacity="0.1"/>
    <path id="Path_285" data-name="Path 285" d="M334.638,413.358l6.925-1.386-1.568-12.652-5.545,1.11Z" transform="translate(-149.751 -178.793)" fill="#d9dfe8"/>
    <path id="Path_286" data-name="Path 286" d="M334.638,413.833l2.988-.6-.547-12.851-2.629.525Z" transform="translate(-149.751 -179.267)" opacity="0.1"/>
    <path id="Path_287" data-name="Path 287" d="M249.027,343.138s13.481-7.025,18.379,15.049,4.97,32.136,4.97,32.136l41.927-6.478.652,15.237s-45.064,12.387-50.6,11.095S242,377.677,242,377.677,226.589,353.4,249.027,343.138Z" transform="translate(-127.97 -163.511)" fill="#026e06"/>
    <g id="Group_44" data-name="Group 44" transform="translate(109.972 179.669)" opacity="0.1">
      <path id="Path_288" data-name="Path 288" d="M374.09,418.312l2.016,10.062s2.242-.4,5.561-1.1c11.338-2.4,35.295-8.334,26.017-13.867-7.98-4.755-20.2-1.016-27.491,2.021-2.673,1.1-4.683,2.132-5.583,2.612C374.272,418.207,374.09,418.312,374.09,418.312Z" transform="translate(-299.396 -374.102)"/>
      <path id="Path_289" data-name="Path 289" d="M375.08,424.627l1.447,7.224s2.242-.4,5.561-1.1L380.613,418.9c-2.673,1.1-4.683,2.132-5.583,2.612Z" transform="translate(-299.817 -377.578)" opacity="0.1"/>
      <path id="Path_290" data-name="Path 290" d="M334.638,413.358l6.925-1.386-1.568-12.652-5.545,1.11Z" transform="translate(-259.723 -358.462)"/>
      <path id="Path_291" data-name="Path 291" d="M334.638,413.833l2.988-.6-.547-12.851-2.629.525Z" transform="translate(-259.723 -358.936)" opacity="0.1"/>
      <path id="Path_292" data-name="Path 292" d="M251.027,345.138s13.481-7.025,18.379,15.049,4.97,32.136,4.97,32.136l41.927-6.478.652,15.237s-45.064,12.387-50.6,11.095S244,379.677,244,379.677,228.589,355.4,251.027,345.138Z" transform="translate(-238.838 -344.076)" fill="#026e06"/>
    </g>
    <path id="Path_293" data-name="Path 293" d="M376.614,655.367l16.535,10.493s21.864,3.661,6.992,8.151-48.67-2.375-48.67-2.375,2.568-15.209,5.3-17.225S376.614,655.367,376.614,655.367Z" transform="translate(-179.296 -303.044)" fill="#141414"/>
    <path id="Path_294" data-name="Path 294" d="M262.8,452.4s8.245,4.788,23.073,9.261a230.158,230.158,0,0,0,27.182,5.882,19.776,19.776,0,0,1,16.209,14.911,12.613,12.613,0,0,1-.1,6.826c-2.883,8.626-2.3,79.785-2.3,79.785L301,570.3s4.092-12.928-.95-19.754,3.4-56.733,3.4-56.733-9.162-4.274-37.051-5.76c-26.138,5.523-35.532-23.278-31.191-31.031S262.8,452.4,262.8,452.4Z" transform="translate(-126.784 -212.627)" fill="#96a2d0"/>
    <path id="Path_296" data-name="Path 296" d="M262.8,452.4s8.245,4.788,23.073,9.261a230.158,230.158,0,0,0,27.182,5.882,19.776,19.776,0,0,1,16.209,14.911,12.613,12.613,0,0,1-.1,6.826c-2.883,8.626-2.3,79.785-2.3,79.785L301,570.3s4.092-12.928-.95-19.754,3.4-56.733,3.4-56.733-9.162-4.274-37.051-5.76c-26.138,5.523-35.532-23.278-31.191-31.031S262.8,452.4,262.8,452.4Z" transform="translate(-126.784 -212.627)" fill="#1c1b1b"/>
    <path id="Path_297" data-name="Path 297" d="M361.694,665.477l16.535,10.493s21.864,3.661,6.992,8.151-48.67-2.375-48.67-2.375,2.568-15.209,5.3-17.225S361.694,665.477,361.694,665.477Z" transform="translate(-172.615 -307.57)" fill="#2d2d2d"/>
    <path id="Path_298" data-name="Path 298" d="M254.759,498.61c27.889,1.486,37.051,5.76,37.051,5.76s-2.645,48.5,1.1,55.557c4,7.489-3.579,20.931-3.579,20.931l25.868-1.243v-2.342c-.077-12.359-.265-69.75,2.3-77.443a12.614,12.614,0,0,0,.1-6.826A19.782,19.782,0,0,0,301.4,478.094a228.742,228.742,0,0,1-27.182-5.876l-.425-.133c-14.563-4.418-22.643-9.129-22.643-9.129s-17.225-1.193-21.538,6.561c-.552,1.005-2.932,2.982-3.032,4.578C225.937,484.776,232.017,503.4,254.759,498.61Z" transform="translate(-123.358 -217.605)" fill="#141414"/>
    <path id="Path_299" data-name="Path 299" d="M351.81,442.5l.492,10.25s2.275-.061,5.666-.265c11.57-.69,36.145-2.977,27.8-9.83-7.179-5.893-19.826-4.015-27.486-2.1-2.811.707-4.97,1.414-5.909,1.751C352,442.428,351.81,442.5,351.81,442.5Z" transform="translate(-179.448 -206.764)" fill="#f8b9bf"/>
    <path id="Path_300" data-name="Path 300" d="M233,298.748s3.314,2.855,7.422,6.014c4.584,1.248,9.941,2.358,13.768,3.093-1.187-4.5-.133-9.388,1.618-13.69a51.741,51.741,0,0,1,7.489-12.431l-23.029-8.323c1.629,4.722.552,10-1.2,14.508A47.963,47.963,0,0,1,233,298.748Z" transform="translate(-126.252 -132.767)" fill="#f8b9bf"/>
    <path id="Path_301" data-name="Path 301" d="M352.06,446.908l.353,7.362s2.275-.061,5.666-.265l.309-11.934c-2.811.707-4.97,1.414-5.909,1.751Z" transform="translate(-179.56 -208.283)" opacity="0.1"/>
    <path id="Path_302" data-name="Path 302" d="M309.62,435.443l7.052-.337L317,422.36l-5.644.271Z" transform="translate(-138.633 -189.109)" fill="#d9dfe8"/>
    <path id="Path_303" data-name="Path 303" d="M221.412,410.316c14.911,15.5,42.717-2.921,50.195-8.378,1.215-.889,1.894-1.436,1.894-1.436-2.761-2.811-7.179-5.412-8.875-12.453a152.977,152.977,0,0,1-3.28-21.825c-.458-5.826,5.561-16.921,3.822-22.455s-8.9-7.351-11.912-12.36c-.79-1.3-1.574-2.529-2.347-3.6-5.556-7.732-15.237-12.939-15.237-12.939-20.627-7.041-22.245,22.416-21.731,23.333S212.095,371.592,221.412,410.316Z" transform="translate(-117.684 -150.844)" fill="#038d08"/>
    <path id="Path_304" data-name="Path 304" d="M224.935,384.542s11.978,33.367,17.264,35.471c3.026,1.2,19.533-.094,33.086-1.425,1.215-.889,1.894-1.436,1.894-1.436-2.761-2.811-5.009-8.6-6.7-15.64l-17.391.061s1.408-9.941-.149-32.522-15.933-17.617-15.933-17.617C213.3,358.233,224.935,384.542,224.935,384.542Z" transform="translate(-121.362 -167.494)" opacity="0.1"/>
    <path id="Path_305" data-name="Path 305" d="M309.62,435.559l3.043-.144,1.375-12.8-2.678.127Z" transform="translate(-138.633 -189.225)" opacity="0.1"/>
    <path id="Path_306" data-name="Path 306" d="M237.748,348.84s14.359-4.932,15.933,17.617.166,32.522.166,32.522l42.424-.155-1.629,15.165s-46.39,5.523-51.691,3.43-17.269-35.466-17.269-35.466S214.034,355.638,237.748,348.84Z" transform="translate(-121.694 -166.335)" fill="#5cab5f"/>
    <path id="Path_307" data-name="Path 307" d="M247.666,283.627c.768-3.314-2.761-3.418-3.866-6.627l23.04,8.284a51.578,51.578,0,0,0-4.628,6.688,19.392,19.392,0,0,1-3.744.552C252.868,292.8,251.371,287.261,247.666,283.627Z" transform="translate(-131.087 -134.374)" opacity="0.1"/>
    <circle id="Ellipse_32" data-name="Ellipse 32" cx="19.307" cy="19.307" r="19.307" transform="translate(107.558 118.572) rotate(-2.75)" fill="#f8b9bf"/>
    <path id="Path_308" data-name="Path 308" d="M253,375.14s6.108,28.933,13.32,31.887,3.943,3.584,3.943,3.584" transform="translate(-135.206 -178.316)" opacity="0.1"/>
    <path id="Path_309" data-name="Path 309" d="M289.625,399.841s-5.1,1.6-11.045-6.031" transform="translate(-146.66 -186.675)" opacity="0.1"/>
    <circle id="Ellipse_33" data-name="Ellipse 33" cx="8.836" cy="8.836" r="8.836" transform="translate(95.703 101.206)" fill="#141414"/>
    <path id="Path_310" data-name="Path 310" d="M215.162,216.649a8.836,8.836,0,0,1,0-12.089c-.144.116-.287.232-.42.359A8.837,8.837,0,1,0,226.848,217.8c.138-.127.26-.265.381-.4a8.836,8.836,0,0,1-12.067-.751Z" transform="translate(-116.83 -101.94)" fill="#141414"/>
    <path id="Path_311" data-name="Path 311" d="M219.36,225.326a8.836,8.836,0,0,1-9.3-7.732v.552a8.837,8.837,0,1,0,17.639-1.1,4.7,4.7,0,0,0-.061-.552A8.836,8.836,0,0,1,219.36,225.326Z" transform="translate(-115.98 -107.281)" fill="#141414"/>
    <path id="Path_312" data-name="Path 312" d="M258.934,227.953c2.06,1.016,4.418,1.3,6.627,1.938s4.462,1.811,5.434,3.9c.712,1.535.63,3.352,1.375,4.871,1.071,2.209,3.546,3.225,5.821,4.092-1.955,2.623-6.152,1.911-8.891.127s-5.1-4.418-8.284-5.108a7.776,7.776,0,0,0-8.179,3.639,19.641,19.641,0,0,0-1.613,5.014c-1.1,4.484-3.314,8.947-7.179,11.492s-9.626,2.529-12.658-.955c-1.767-2.032-2.358-4.8-2.883-7.439a15.115,15.115,0,0,1-.425-3.761c.177-3.17,2.286-5.871,4.418-8.223,2.513-2.761,5.186-5.412,7.859-8.046,2.308-2.275,4.97-6.13,8.45-6.4C252.815,222.773,255.648,226.346,258.934,227.953Z" transform="translate(-124.048 -110.229)" opacity="0.1"/>
    <path id="Path_313" data-name="Path 313" d="M257.934,226.953c2.06,1.016,4.418,1.3,6.627,1.938s4.462,1.811,5.434,3.9c.712,1.535.63,3.352,1.375,4.871,1.071,2.209,3.546,3.225,5.821,4.092-1.955,2.623-6.152,1.911-8.891.127s-5.1-4.418-8.284-5.108a7.776,7.776,0,0,0-8.179,3.639,19.642,19.642,0,0,0-1.613,5.014c-1.1,4.484-3.314,8.947-7.179,11.492s-9.626,2.529-12.658-.955c-1.767-2.032-2.358-4.8-2.883-7.439a15.115,15.115,0,0,1-.425-3.761c.177-3.17,2.286-5.871,4.418-8.223,2.513-2.761,5.186-5.412,7.859-8.046,2.308-2.275,4.97-6.13,8.45-6.4C251.815,221.773,254.648,225.346,257.934,226.953Z" transform="translate(-123.6 -109.781)" fill="#141414"/>
    <rect id="Rectangle_81" data-name="Rectangle 81" width="62.974" height="9.731" rx="4.865" transform="translate(78.186 239.823)" fill="#d6d6e3"/>
    <path id="Path_314" data-name="Path 314" d="M181.28,462v.768a4,4,0,0,0,4,4H240.25a4,4,0,0,0,4-4V462Z" transform="translate(-103.094 -217.207)" opacity="0.1"/>
    <rect id="Rectangle_82" data-name="Rectangle 82" width="10.83" height="137.97" transform="translate(189.084 249.968)" fill="#d6d6e3"/>
    <rect id="Rectangle_83" data-name="Rectangle 83" width="10.83" height="8.947" transform="translate(189.084 249.968)" opacity="0.1"/>
    <rect id="Rectangle_84" data-name="Rectangle 84" width="286.301" height="17.893" transform="translate(183.904 240.077)" fill="#d6d6e3"/>
  </g>
</svg>
