<svg xmlns="http://www.w3.org/2000/svg" width="384.013" height="189.334" viewBox="0 0 384.013 189.334">
  <g id="Group_588" data-name="Group 588" transform="translate(-3765.583 1924.077)">
    <rect id="Rectangle_1076" data-name="Rectangle 1076" width="10.576" height="10.576" transform="translate(3995.477 -1877.789)" fill="#6c63ff" opacity="0.2"/>
    <rect id="Rectangle_1077" data-name="Rectangle 1077" width="10.576" height="10.576" transform="translate(4009.952 -1877.789)" fill="#6c63ff" opacity="0.2"/>
    <rect id="Rectangle_1078" data-name="Rectangle 1078" width="10.576" height="10.576" transform="translate(4024.385 -1877.789)" fill="#6c63ff" opacity="0.2"/>
    <rect id="Rectangle_1079" data-name="Rectangle 1079" width="10.576" height="10.576" transform="translate(4038.859 -1877.789)" fill="#6c63ff" opacity="0.2"/>
    <rect id="Rectangle_1080" data-name="Rectangle 1080" width="10.576" height="10.576" transform="translate(4009.952 -1864.393)" fill="#6c63ff" opacity="0.2"/>
    <rect id="Rectangle_1081" data-name="Rectangle 1081" width="10.576" height="10.576" transform="translate(4024.385 -1864.393)" fill="#6c63ff" opacity="0.2"/>
    <rect id="Rectangle_1082" data-name="Rectangle 1082" width="10.576" height="10.576" transform="translate(4038.859 -1864.393)" fill="#6c63ff" opacity="0.2"/>
    <circle id="Ellipse_127" data-name="Ellipse 127" cx="14.475" cy="14.475" r="14.475" transform="translate(4010.491 -1854.398)" fill="#767d9f"/>
    <path id="Path_2086" data-name="Path 2086" d="M732.226,303.932c1.452,6.3,2.654,12.65,3.691,19.037.29,1.908.581,3.9-.124,5.682a20.811,20.811,0,0,1-2.654,3.982c-.912,1.327-1.618,2.986-1.037,4.479s2.2,2.323,3.733,2.737c4.479,1.2,9.207.332,13.645-.954a17.809,17.809,0,0,0,10.576-6.926c6.47-7.839,10.7-17.253,14.723-26.627a16.269,16.269,0,0,1-13.728-5.516c-1.617-1.908-2.82-4.6-1.908-6.926-2.7,1.493-5.889,1.576-8.834,2.613a35.246,35.246,0,0,0-5.184,2.53c-1.991,1.161-3.94,2.323-5.931,3.525C736.954,302.9,734.839,304.1,732.226,303.932Z" transform="translate(3291.993 -2162.27)" fill="#ae6e79"/>
    <path id="Path_2087" data-name="Path 2087" d="M717.636,326.847c-2.53,4.935-5.848,9.664-10.535,12.608s-11.032,3.733-15.76.829c-2.323-1.41-4.064-3.567-6.1-5.392s-4.562-3.359-7.3-3.152c-2.986.249-5.35,2.613-7.382,4.853a56.856,56.856,0,0,0-8.17,10.991c-4.148,7.756-5.143,16.839-4.936,25.631s1.452,17.544,1.493,26.336c.041,10.825-1.783,21.567-3.65,32.184,17.046-2.115,34.134,2.488,51.18,4.23,10.949,1.12,21.94,1.12,32.931,1.078,1.949,0,3.982-.042,5.6-1.12a7.4,7.4,0,0,0,2.323-2.737,27,27,0,0,0,2.571-9.166,179.668,179.668,0,0,0,1.12-24.1c.083-19.493.125-39.069-2.323-58.4-.622-4.77-1.369-9.539-3.235-13.977s-4.811-8.544-8.958-10.949c-2.7-1.535-8.876-4.189-12.028-2.654C721,315.69,719.337,323.571,717.636,326.847Z" transform="translate(3336.818 -2174.318)" fill="#767d9f"/>
    <path id="Path_2088" data-name="Path 2088" d="M803.652,377.034c-.622-12.028-3.276-24.885,2.323-35.544,1.369-2.613-3.525-5.889-2.032-8.419a37.9,37.9,0,0,0,4.189-9.912,7.485,7.485,0,0,0,.29-3.691c-.539-2.2-2.737-3.484-4.562-4.853-2.032-1.493-3.069-5.972-3.733-8.419s5.226.5,7.59-.373c3.277-1.2,7.424-.456,10.7.788a17.943,17.943,0,0,0,5.765.788,79.288,79.288,0,0,0,11.323-.249,26.042,26.042,0,0,1,5.06-.415c4.313.249,8.088,3.193,10.618,6.677s4.189,7.548,6.262,11.364c1.742,3.152,3.816,6.138,5.309,9.415a57.254,57.254,0,0,1,2.986,9.124l2.115,7.963a11.181,11.181,0,0,1,.539,3.525,10.379,10.379,0,0,1-1.244,3.608,67.529,67.529,0,0,1-7.756,11.82c-4.479,5.475-9.912,10.452-12.567,17a43.855,43.855,0,0,0-2.157,8,292.2,292.2,0,0,0-4.521,32.848,72.173,72.173,0,0,0-15.138-5.06c-2.613-.539-5.226-.954-7.88-1.244-2.323-.249-5.309.207-7.507-.415-3.691-1.037-4.106-7.3-4.645-10.576a95.328,95.328,0,0,1-1.12-15.76C803.777,388.978,803.984,383.006,803.652,377.034Z" transform="translate(3252.087 -2169.469)" fill="#038d09"/>
    <path id="Path_2089" data-name="Path 2089" d="M562.692,416.241c1.742,9.954,3.65,19.949,7.465,29.281-.083.083-.207.166-.29.249-.332.29-.705.539-1.037.829a15.608,15.608,0,0,0-2.488,1.866,2.886,2.886,0,0,0-.622,1.037,2.426,2.426,0,0,0,0,1.866c-1.991.871-4.272.622-6.512.539a8.548,8.548,0,0,0-5.309,1.037c-2.115,1.452-2.779,4.272-3.11,6.843-.125.954-.249,1.866-.332,2.82-.083.871-.166,1.742-.207,2.613a76.284,76.284,0,0,0-.083,8.71c.042.539.042,1.078.083,1.576-6.76-.166-12.94-3.691-18.788-7.134a10.583,10.583,0,0,1-3.567-2.9,6.724,6.724,0,0,1-.954-4.272,3.214,3.214,0,0,1,.083-.622,15.455,15.455,0,0,1,.954-3.608,44.063,44.063,0,0,1,7.963-13.521c1.493-1.742,3.152-3.442,3.857-5.6.29-.954.415-1.949.705-2.9,1.369-4.106,6.346-6.014,8.046-10,.415-.954.622-1.991,1.12-2.9a8.1,8.1,0,0,1,1.783-1.991c.29-.249.622-.5.912-.747,2.9-2.281,5.724-4.687,8.419-7.258.5-.456,1-.954,1.493-1.452A25.484,25.484,0,0,0,562.692,416.241Z" transform="translate(3411.964 -2231.155)" fill="#038d09"/>
    <path id="Path_2090" data-name="Path 2090" d="M654.6,340.73c-.581.622-1.244,1.244-1.866,1.825l-.166.166-.664.622a15.447,15.447,0,0,0-3.11,3.65l-.083.124c-2.115,3.774-1.327,8.461-.747,12.733a105.561,105.561,0,0,1,1,16.175c-.124,7.465-1,14.889-1,22.355,0,1.7.041,3.4.125,5.06.124,2.737.332,5.516.581,8.253.29,3.028.581,6.014.912,9.041.249,2.323.456,4.645.664,6.968.083,1.2.208,2.406.249,3.608.083,1.41.166,2.82.207,4.231h0c.041.912.041,1.783.041,2.7v1.535c0,.954-.041,1.949-.083,2.9q-.062,1.867-.249,3.733a5.97,5.97,0,0,1-1.327,3.774l-.166.166-1.327-.166a136.5,136.5,0,0,0-27.912-.5c.207-1.41.373-2.82.581-4.189l.249-1.991c.083-.746.166-1.535.249-2.281q.125-1.244.249-2.489c.208-2.157.415-4.272.581-6.429.249-3.111.415-6.263.539-9.373.041-1.493.125-2.986.125-4.479.042-1.866.083-3.733.083-5.558s0-3.608-.042-5.433c0-.581-.042-1.2-.083-1.783-.042-.539-.124-1.078-.207-1.576a18.789,18.789,0,0,0-1.244-3.525l-.249-.622c-.042-.124-.083-.207-.124-.332a29.824,29.824,0,0,0,5.724-7.8c2.654-4.521,5.35-9.249,5.806-14.433s-2.157-11.074-7.134-12.65a35.521,35.521,0,0,0-4.189-.788,18.642,18.642,0,0,1-5.6-1.7q-1.244,1.307-2.489,2.489a9.1,9.1,0,0,1,.913-3.608l.581.042a1.473,1.473,0,0,1-.083-.415,2.07,2.07,0,0,1,.954-1.493c1.949-1.659,5.018-2.032,6.263-4.272.5-.954.622-2.032,1.037-3.028,1.2-2.779,4.6-3.816,6.677-6.055s2.571-5.392,4.23-7.88a12.089,12.089,0,0,1,4.977-4.147,2.529,2.529,0,0,1,.5-.207,28.552,28.552,0,0,1,11.115-1.783c1.369,0,4.977.042,6.719.747a1.736,1.736,0,0,1,.747.456C658.91,334.965,655.965,339.278,654.6,340.73Z" transform="translate(3361.866 -2185.091)" fill="#038d09"/>
    <path id="Path_2091" data-name="Path 2091" d="M603.721,399.894a25.232,25.232,0,0,1,19.369,2.032,18.174,18.174,0,0,1,7.3,6.968c2.488,4.479,2.364,9.871,2.2,15.014-.083,2.571-.207,5.226-1.327,7.507-1.286,2.654-3.774,4.479-6.263,5.972a17.925,17.925,0,0,1-5.1,2.2c-2.779.622-5.682.083-8.5-.415-3.069-.581-6.346-1.244-8.461-3.525a15.292,15.292,0,0,1-2.613-4.687c-.954-2.406-1.949-4.853-2.9-7.258-1.659-4.189-2.24-7.673-.042-11.779,1-1.866,2.24-3.608,3.235-5.475C601.149,405.452,602.933,400.1,603.721,399.894Z" transform="translate(3371.558 -2224.264)" fill="#038d09"/>
    <path id="Path_2092" data-name="Path 2092" d="M493.113,539.67v12.4a69.278,69.278,0,0,1-26.834,5.309H354.422l-.166.166-1.327-.166h-199A86.463,86.463,0,0,1,109.1,545.186V526.232L204.782,515.2h.083l55.742,4.728,14.433,1.244,7.507.622,15.512,1.327,7.963.664,11.613,1,1.617.125,8.378.7,11.364.954,15.968,1.369,26.627,2.24,18.747,1.576,30.733,2.613,5.848.5.622.041.539.042,7.714.664,8.461.705,1,.083Z" transform="translate(3656.483 -2292.372)" fill="#504f60"/>
    <path id="Path_2093" data-name="Path 2093" d="M588.19,544.247,468.287,523.8,463.6,547.316l55,6.553,16.922,2.115,46.576-9.166Z" transform="translate(3449.011 -2297.405)" fill="#9c9ca1"/>
    <path id="Path_2094" data-name="Path 2094" d="M614.3,582.632l60.1-11.281a2.133,2.133,0,0,1,2.447,1.659,1.277,1.277,0,0,1,.042.415h0a2.049,2.049,0,0,1-1.7,2.032L616.5,586.448Z" transform="translate(3360.813 -2325.214)" fill="#9c9ca1"/>
    <path id="Path_2095" data-name="Path 2095" d="M611.217,501.72a15.113,15.113,0,0,0,5.433-1.285c2.074-1.037,3.691-2.82,5.6-4.106a16.752,16.752,0,0,1,14.724-1.617,23.485,23.485,0,0,1,11.7,9.5c1.866,2.82,3.277,6.47,1.949,9.622a12.589,12.589,0,0,1-1.7,2.654l-3.442,4.521a12.422,12.422,0,0,1-2.364,2.53,10.013,10.013,0,0,1-4.479,1.576c-4.23.622-8.5.249-12.733.539-7.3.5-14.392,2.82-21.691,2.737a66.59,66.59,0,0,1-12.443-1.742L573.6,522.914c-3.152-.664-6.719-1.576-8.212-4.479a10.439,10.439,0,0,1-.871-4.231c-.207-3.982,0-8.461,2.779-11.322,2.613-2.7,6.719-3.567,9.829-5.558,3.816-2.447,5.06-1.659,9.083.166A50.188,50.188,0,0,0,611.217,501.72Z" transform="translate(3389.984 -2279.805)" fill="#ae6e79"/>
    <path id="Path_2096" data-name="Path 2096" d="M611.217,501.72a15.113,15.113,0,0,0,5.433-1.285c2.074-1.037,3.691-2.82,5.6-4.106a16.752,16.752,0,0,1,14.724-1.617,23.485,23.485,0,0,1,11.7,9.5c1.866,2.82,3.277,6.47,1.949,9.622a12.589,12.589,0,0,1-1.7,2.654l-3.442,4.521a12.422,12.422,0,0,1-2.364,2.53,10.013,10.013,0,0,1-4.479,1.576c-4.23.622-8.5.249-12.733.539-7.3.5-14.392,2.82-21.691,2.737a66.59,66.59,0,0,1-12.443-1.742L573.6,522.914c-3.152-.664-6.719-1.576-8.212-4.479a10.439,10.439,0,0,1-.871-4.231c-.207-3.982,0-8.461,2.779-11.322,2.613-2.7,6.719-3.567,9.829-5.558,3.816-2.447,5.06-1.659,9.083.166A50.188,50.188,0,0,0,611.217,501.72Z" transform="translate(3389.984 -2279.805)" opacity="0.05"/>
    <path id="Path_2097" data-name="Path 2097" d="M701.318,496.337a103.31,103.31,0,0,1-15.553,5.1c-8.959,1.991-18.29,1.659-27.166,3.9-4.687,1.2-9.332,3.111-14.143,2.737a42.1,42.1,0,0,1-6.346-1.327c-11.779-2.9-25.134-1.949-34.714,5.516a43.854,43.854,0,0,0-8.378,9.124,6.109,6.109,0,0,0,1.452,8.5c.332.207.664.415,1,.581a36.489,36.489,0,0,0,11.779,3.152c5.433.5,10.908-.29,16.341-1.078,8.046-1.161,16.092-2.281,24.1-3.567,2.862-.456,5.765-.954,8.668-1.286,20.82-2.613,42.055.581,62.917-1.617a18.4,18.4,0,0,0,6.18-1.41c4.852-2.281,7.258-8.295,6.263-13.562s-4.894-9.664-9.539-12.359c-3.9-2.281-8.129-3.193-12.484-4.147C707.705,493.6,705.217,494.844,701.318,496.337Z" transform="translate(3372.753 -2280.104)" fill="#ae6e79"/>
    <path id="Path_2098" data-name="Path 2098" d="M884.009,398.169c2.281,3.028,2.779,7.051,2.53,10.825s-1.161,7.507-1.286,11.281c-.166,5.184,1.078,10.369.871,15.553a44.822,44.822,0,0,1-2.032,10.659c-1.2,4.106-2.945,8.5-6.719,10.493-5.019,2.613-15.553,1.161-20.862,3.194.5-2.986,5.1-7.341,5.558-10.327a20.106,20.106,0,0,0,.332-6.3,13.717,13.717,0,0,0-3.857-6.968,20.264,20.264,0,0,0-10.991-6.221c-4.23-.746-14.516-.124-17.876,2.53-.415-2.737,7.3-5.392,10-5.972,1.369-.29,2.9-.124,3.982-1,2.074-1.617.581-4.853.664-7.465.083-2.074,1.286-3.982,1.534-6.055.415-3.318-1.742-6.719-.912-9.954a31.239,31.239,0,0,1,1.493-3.4c1.493-3.525.829-7.507.042-11.24-.5-2.323-.954-4.977.332-6.968,1.2-1.866,4.645,4.77,6.843,4.479,7.258-1.037,13.811-6.387,19.659-1.991,2.986,2.24,3.359,4.562,4.562,7.756C879.074,394.1,882.06,395.639,884.009,398.169Z" transform="translate(3234.772 -2213.539)" opacity="0.1"/>
    <path id="Path_2099" data-name="Path 2099" d="M887.009,394.234c2.281,3.028,2.779,7.051,2.53,10.825s-1.161,7.507-1.286,11.281c-.166,5.184,1.078,10.369.871,15.553a44.831,44.831,0,0,1-2.032,10.659c-1.2,4.106-2.945,8.5-6.719,10.493-5.018,2.613-15.553,1.161-20.862,3.194.5-2.986,5.1-7.341,5.558-10.327a20.1,20.1,0,0,0,.332-6.3,13.717,13.717,0,0,0-3.857-6.968,20.264,20.264,0,0,0-10.991-6.221c-4.23-.747-14.516-.124-17.875,2.53-.415-2.737,7.3-5.392,10-5.972,1.369-.29,2.9-.124,3.981-1,2.074-1.618.581-4.853.664-7.465.083-2.074,1.286-3.982,1.535-6.055.415-3.318-1.742-6.719-.913-9.954a31.274,31.274,0,0,1,1.493-3.4c1.493-3.525.829-7.507.041-11.24-.5-2.323-.954-4.977.332-6.968,1.2-1.866,3.567-2.572,5.765-2.862a28.29,28.29,0,0,1,20.737,5.35c2.986,2.24,3.359,4.562,4.562,7.756C882.073,390.17,885.06,391.7,887.009,394.234Z" transform="translate(3233.016 -2209.604)" fill="#038d09"/>
    <path id="Path_2100" data-name="Path 2100" d="M301.8,355.953l22.562,83.323a5.234,5.234,0,0,0,4.521,3.816l101.488,9.788a5.208,5.208,0,0,0,5.682-4.687,6.175,6.175,0,0,0-.124-1.742L411.248,345.916a5.206,5.206,0,0,0-5.433-3.94L306.442,349.4a5.177,5.177,0,0,0-4.77,5.6A3.536,3.536,0,0,0,301.8,355.953Z" transform="translate(3543.791 -2190.982)" fill="#9c9ca1"/>
    <ellipse id="Ellipse_128" data-name="Ellipse 128" cx="11.157" cy="11.323" rx="11.157" ry="11.323" transform="translate(4035.624 -1841.375)" fill="#fff"/>
    <path id="Path_2101" data-name="Path 2101" d="M801.475,337.75s2.364,7.009-4.6,9.954L796,349.239l4.355,4.272s5.35-9.788,4.77-13.23C805.125,340.28,804.3,336.755,801.475,337.75Z" transform="translate(3254.472 -2188.415)" fill="#fff"/>
    <circle id="Ellipse_129" data-name="Ellipse 129" cx="10.742" cy="10.742" r="10.742" transform="translate(4037.325 -1840.255)" fill="#9c9ca1"/>
    <path id="Path_2102" data-name="Path 2102" d="M798.845,317.35l-1.7-2.82-2.488-.373c.539-9.29-1.867-12.069-1.867-12.069l-.539-.041L789.8,301.8l-4.6-4.728V295.7c6.429.788,10,3.816,11.945,7.424C800.545,309.428,798.845,317.35,798.845,317.35Z" transform="translate(3260.793 -2163.909)" fill="#9c9ca1"/>
    <path id="Path_2103" data-name="Path 2103" d="M792.251,302.277v1.7l-2.447-.249L785.2,299S792.292,300.576,792.251,302.277Z" transform="translate(3260.793 -2165.84)" stroke="#4c4981" stroke-miterlimit="10" stroke-width="1" opacity="0.1"/>
    <path id="Path_2104" data-name="Path 2104" d="M815.7,327.884l-1.7-2.82V313.7C817.4,319.963,815.7,327.884,815.7,327.884Z" transform="translate(3243.938 -2174.443)" fill="#9c9ca1"/>
    <ellipse id="Ellipse_130" data-name="Ellipse 130" cx="5.972" cy="10.908" rx="5.972" ry="10.908" transform="matrix(0.866, -0.5, 0.5, 0.866, 4012.101, -1840.996)" fill="#fff"/>
    <path id="Path_2105" data-name="Path 2105" d="M716.5,362.737c3.028,5.226,6.719,8.71,3.857,10.369s-11.2.83-14.226-4.4-.29-12.442,2.571-14.1S713.476,357.47,716.5,362.737Z" transform="translate(3307.84 -2198.181)" fill="#9c9ca1"/>
    <path id="Path_2106" data-name="Path 2106" d="M715.413,244.905c0,16.673-11.406,32.765-28.12,32.765a30.235,30.235,0,0,1,0-60.47C704.008,217.241,715.413,228.191,715.413,244.905Z" transform="translate(3335.764 -2117.966)" opacity="0.1"/>
    <circle id="Ellipse_131" data-name="Ellipse 131" cx="30.194" cy="30.194" r="30.194" transform="translate(3992.906 -1901.554)" fill="#ae6e79"/>
    <path id="Path_2107" data-name="Path 2107" d="M666.8,200.357c3.608,1.327,5.723,5.018,8.959,7.092,4.562,2.9,10.493,2.157,15.719.705,2.9-.788,5.931-1.742,8.793-.871a2.886,2.886,0,0,0,1.327.207c.622-.166.912-.871,1.12-1.493,3.525-10.535,1.949-22.479-3.4-32.226a20.361,20.361,0,0,0-5.309-6.677A21.57,21.57,0,0,0,688,164.067a59.551,59.551,0,0,0-11.986-2.945,7.765,7.765,0,0,0-2.2-.083,8.7,8.7,0,0,0-2.779,1.2,28.691,28.691,0,0,1-12.4,3.359c-5.806.207-12.442-1.161-16.922,2.571-5.392,4.479-4.065,13.189-7.548,19.244-2.323,4.023-6.76,6.926-7.507,11.489a10.959,10.959,0,0,0,.249,4.189,17.006,17.006,0,0,0,15.76,12.608,5.849,5.849,0,0,0,3.235-.664,7.873,7.873,0,0,0,1.7-1.618C652.371,207.781,657.8,197.039,666.8,200.357Z" transform="translate(3353.64 -2085.073)" fill="#444053"/>
    <path id="Path_2108" data-name="Path 2108" d="M702.78,247.527a2.106,2.106,0,0,1-1.12,1.493,2.432,2.432,0,0,1-1.327-.207c-2.862-.871-5.931.083-8.793.871-5.226,1.452-11.157,2.2-15.719-.705-3.235-2.074-5.35-5.806-8.958-7.092-8.959-3.318-14.392,7.424-19.161,13.023a7.019,7.019,0,0,1-1.7,1.617,6.232,6.232,0,0,1-3.235.664,17.036,17.036,0,0,1-15.76-12.608l-.249-1.244v.124a10.959,10.959,0,0,0,.249,4.189,17.005,17.005,0,0,0,15.76,12.608A5.847,5.847,0,0,0,646,259.6a7.866,7.866,0,0,0,1.7-1.617c4.77-5.641,10.2-16.341,19.161-13.023,3.608,1.327,5.723,5.018,8.958,7.092,4.562,2.9,10.493,2.157,15.719.705,2.9-.788,5.931-1.742,8.793-.871a2.886,2.886,0,0,0,1.327.207c.622-.166.913-.871,1.12-1.493a37.572,37.572,0,0,0,1.866-13.4A36.31,36.31,0,0,1,702.78,247.527Z" transform="translate(3353.582 -2129.671)" opacity="0.1"/>
  </g>
</svg>
