<svg xmlns="http://www.w3.org/2000/svg" viewBox="0 0 390 390"><defs><style>.cls-1{fill:#038d08;}</style></defs><g id="Layer_2" data-name="Layer 2"><g id="Layer_1-2" data-name="Layer 1"><path class="cls-1" d="M105.41,189.34c7.26,0,13.35,2,18.36,6v45.91q-6.39,4.17-17.28,4.17c-14.85,0-22.33-9.39-22.33-28.19C84.16,198.63,91.21,189.34,105.41,189.34Z"/><path class="cls-1" d="M195,0C87.31,0,0,87.31,0,195S87.31,390,195,390s195-87.31,195-195S302.69,0,195,0ZM154.75,258.31c-5.23,3.63-12.39,6.73-21.47,9.4a95.92,95.92,0,0,1-27.23,3.94c-17.08,0-30.31-4.9-39.61-14.82s-14-23.08-14-39.84c0-15.9,4.06-28.83,12.27-38.87s19-14.94,32.79-14.94c10.36,0,18.57,2.35,24.86,7.17h1.39v-52h31Zm143.5,10.9H276.79l-21.24-57.33h-1.3L233,269.21H211.67L172.26,165.53h31.5l18.79,53.81h1.28l20.82-53.81H266l20.82,53.81h1.28l18.79-53.81h30.65Z"/></g></g></svg>