<svg xmlns="http://www.w3.org/2000/svg" width="31.679" height="25.729" viewBox="0 0 31.679 25.729">
  <path id="Icon_awesome-twitter" data-name="Icon awesome-twitter" d="M28.423,9.793c.02.281.02.563.02.844,0,8.583-6.533,18.473-18.473,18.473A18.348,18.348,0,0,1,0,26.2a13.431,13.431,0,0,0,1.568.08A13,13,0,0,0,9.628,23.5,6.5,6.5,0,0,1,3.558,19a8.187,8.187,0,0,0,1.226.1,6.867,6.867,0,0,0,1.709-.221,6.494,6.494,0,0,1-5.206-6.372v-.08a6.539,6.539,0,0,0,2.935.824,6.5,6.5,0,0,1-2.01-8.684A18.455,18.455,0,0,0,15.6,11.361a7.329,7.329,0,0,1-.161-1.487A6.5,6.5,0,0,1,26.674,5.431a12.783,12.783,0,0,0,4.121-1.568A6.475,6.475,0,0,1,27.94,7.441a13.016,13.016,0,0,0,3.739-1.005,13.957,13.957,0,0,1-3.256,3.357Z" transform="translate(0 -3.381)" fill="#fff"/>
</svg>
