<?xml version="1.0" encoding="utf-8"?>
<!-- Generator: Adobe Illustrator 23.0.5, SVG Export Plug-In . SVG Version: 6.00 Build 0)  -->
<svg version="1.1" id="Layer_1" xmlns="http://www.w3.org/2000/svg" xmlns:xlink="http://www.w3.org/1999/xlink" x="0px" y="0px"
	 viewBox="0 0 504 65" style="enable-background:new 0 0 504 65;" xml:space="preserve">
<style type="text/css">
	.st0{fill:#FFFFFF;}
	.st1{fill:#FDFCFD;}
	.st2{fill:#D52057;}
	.st3{fill:#A12140;}
	.st4{fill:#F10892;}
	.st5{fill:#F36ABB;}
	.st6{fill:#E31470;}
	.st7{fill:#D52158;}
	.st8{fill:#0D0D0D;}
	.st9{fill:#0E0E0E;}
	.st10{fill:#D62259;}
	.st11{fill:#111111;}
	.st12{fill:#0F0F0F;}
	.st13{fill:#EB1C78;}
	.st14{fill:#E61974;}
	.st15{fill:#A72746;}
	.st16{fill:#FEFEFE;}
	.st17{fill:#049DDE;}
	.st18{fill:#013187;}
	.st19{fill:#029CDD;}
	.st20{fill:#033288;}
	.st21{fill:#039DDE;}
	.st22{fill:#033388;}
	.st23{fill:#012169;}
	.st24{fill:#043389;}
	.st25{fill:#1A1F71;}
	.st26{fill:#ED1E26;}
	.st27{fill:#F7941E;}
	.st28{fill:#ED1D25;}
	.st29{fill:#F7951F;}
	.st30{fill:#F7951E;}
	.st31{fill:#FCD7C4;}
	.st32{fill:#FAC17C;}
	.st33{fill:#EE2E23;}
	.st34{fill:#F57E1F;}
	.st35{fill:#F4721E;}
	.st36{fill:#F5832A;}
	.st37{fill:#FBD5B2;}
	.st38{fill:#F79F50;}
	.st39{fill:#F68E57;}
	.st40{fill:#F69057;}
	.st41{fill:#F9B492;}
	.st42{fill:#F8A967;}
	.st43{fill:#F8AA7E;}
	.st44{fill:#FBD1B0;}
</style>
<g>
	<rect x="128.01" y="1.16" class="st0" width="120" height="65"/>
	<g>
		<path class="st1" d="M199.83,32.61c6.5,1.02,12.75,2,19.3,3.03c-4.92-6.87-9.65-13.48-14.55-20.33
			C202.95,21.26,201.41,26.86,199.83,32.61z"/>
		<path class="st1" d="M202.39,44.48c5.34-2.68,10.48-5.26,15.62-7.84c-0.02-0.1-0.04-0.2-0.06-0.3c-5.95-0.95-11.89-1.9-18.07-2.89
			C200.73,37.19,201.53,40.72,202.39,44.48z"/>
		<path class="st1" d="M159.6,39.4c0.65-1.93-0.76-4.16,1.31-5.81c1.1,1.65,2.24,3.23,3.24,4.89c0.62,1.03,1.37,1.14,2.45,0.8
			c-1.56-2.31-3.06-4.54-4.59-6.8c1.44-1.7,2.84-3.34,4.29-5.04c-1.34-0.3-2.16,0.05-2.88,1.06c-1.06,1.49-2.29,2.87-3.67,4.56
			c0-2.11,0-3.87,0-5.65c-0.59,0-1.06,0-1.54,0c0,4.03,0,7.98,0,11.98C158.71,39.4,159.14,39.4,159.6,39.4z"/>
		<path class="st1" d="M183.95,26.75c0,4.29,0,8.46,0,12.71c0.54-0.03,1-0.05,1.54-0.08c0-1.67-0.01-3.23,0-4.78
			c0.01-1.71,0.87-2.73,2.26-2.7c1.28,0.03,1.88,0.87,1.9,2.69c0.02,1.59,0,3.18,0,4.77c0.62,0,1.08,0,1.57,0
			c0-2,0.1-3.92-0.02-5.82c-0.17-2.69-2.74-3.84-4.95-2.3c-0.2,0.14-0.37,0.31-0.77,0.65c0-1.87,0-3.48,0-5.15
			C184.9,26.75,184.47,26.75,183.95,26.75z"/>
		<path class="st1" d="M223.57,25.71c-3.26,0.59-6.29,1.14-9.49,1.73c2.01,2.79,3.89,5.4,5.87,8.15
			C221.2,32.2,222.34,29.07,223.57,25.71z"/>
		<path class="st1" d="M176.16,39.03c1.32,0.73,2.72,0.96,3.99,0.31c0.72-0.37,1.34-1.24,1.63-2.03c0.34-0.95-0.21-1.82-1.1-2.35
			c-0.49-0.29-1.12-0.4-1.54-0.76c-0.47-0.41-1.12-1.05-1.07-1.53c0.09-0.93,1-0.96,1.79-0.84c0.43,0.07,0.84,0.2,1.34,0.32
			c0.11-0.38,0.21-0.73,0.37-1.3c-1.02-0.1-1.9-0.3-2.75-0.23c-1.19,0.1-2.1,0.75-2.36,2c-0.27,1.3,0.45,2.11,1.52,2.66
			c0.47,0.24,1.07,0.33,1.43,0.68c0.39,0.38,0.85,1.05,0.75,1.47c-0.1,0.42-0.83,0.88-1.34,0.95c-0.61,0.09-1.28-0.21-1.93-0.34
			c-0.12-0.02-0.24-0.03-0.39-0.05C176.4,38.34,176.28,38.67,176.16,39.03z"/>
		<path class="st1" d="M209.36,41.76c0.05,0.12,0.1,0.23,0.15,0.35c0.27-0.07,0.54-0.11,0.8-0.21c2.45-0.93,4.89-1.91,7.35-2.8
			c1.05-0.38,1.34-1.09,1.32-2.25C215.68,38.53,212.52,40.15,209.36,41.76z"/>
		<path class="st1" d="M228.22,29.77c-1.45-1.36-2.68-2.52-4.01-3.78c-0.49,1.36-0.91,2.52-1.37,3.78
			C224.59,29.77,226.23,29.77,228.22,29.77z"/>
		<path class="st1" d="M189.86,22.64c0.11-0.11,0.22-0.22,0.33-0.33c-1.27-1.67-2.54-3.34-3.82-5c-0.88-1.14-1.44-1.27-2.9-0.72
			C185.61,18.62,187.73,20.63,189.86,22.64z"/>
		<path class="st2" d="M185.83,12.91c1.59,0.26,3.18,0.58,4.78,0.78c4.02,0.51,8.04,0.96,12.06,1.44c0.35,0.04,0.68,0.16,1.08,0.25
			c-1.54,5.62-3.07,11.19-4.63,16.87c-0.24-0.19-0.46-0.31-0.61-0.49c-4.63-5.93-9.25-11.87-13.85-17.81
			c-0.22-0.29-0.29-0.69-0.43-1.04C184.76,12.91,185.29,12.91,185.83,12.91z"/>
		<path class="st3" d="M193.06,54.41c1.95-6.92,3.89-13.84,5.84-20.77c0.09,0.01,0.18,0.03,0.26,0.04
			c0.93,4.21,1.89,8.41,2.74,12.64c0.09,0.45-0.28,1.18-0.67,1.51c-2.6,2.23-5.26,4.39-7.91,6.58
			C193.23,54.41,193.14,54.41,193.06,54.41z"/>
		<path class="st4" d="M147.81,26.56c0.51,0.07,1.02,0.15,1.62,0.24c0,1.66,0,3.28,0,4.9c0.17,0.01,0.29,0.05,0.33,0.01
			c1.21-1.18,2.62-1.52,4.16-0.83c1.54,0.7,2.23,2.09,2.17,3.68c-0.04,1.15-0.26,2.43-0.82,3.41c-1.23,2.14-3.75,2.23-5.92,0.31
			c0.08,1.27-0.7,1.23-1.53,1.12c0-0.18,0-0.36,0-0.54c0.09-0.28,0.25-0.57,0.25-0.85c0.02-3.41,0.02-6.82,0-10.23
			c0-0.23-0.17-0.47-0.25-0.7C147.81,26.92,147.81,26.74,147.81,26.56z M149.47,35.17c0,0.27-0.02,0.54,0,0.8
			c0.11,1.3,0.95,2.23,2.12,2.38c1.25,0.15,2.39-0.41,2.62-1.72c0.2-1.15,0.11-2.47-0.25-3.58c-0.37-1.15-1.55-1.38-2.7-1.09
			C150.06,32.27,149.46,33.39,149.47,35.17z"/>
		<path class="st5" d="M147.81,27.1c0.09,0.23,0.25,0.47,0.25,0.7c0.02,3.41,0.01,6.82,0,10.23c0,0.28-0.16,0.57-0.25,0.85
			C147.81,34.95,147.81,31.03,147.81,27.1z"/>
		<path class="st6" d="M199.83,32.61c1.58-5.76,3.12-11.35,4.75-17.29c4.9,6.84,9.63,13.46,14.55,20.33
			C212.58,34.62,206.34,33.63,199.83,32.61z"/>
		<path class="st7" d="M202.39,44.48c-0.86-3.76-1.66-7.29-2.51-11.04c6.18,0.99,12.12,1.94,18.07,2.89c0.02,0.1,0.04,0.2,0.06,0.3
			C212.87,39.21,207.73,41.8,202.39,44.48z"/>
		<path class="st8" d="M159.6,39.4c-0.46,0-0.89,0-1.38,0c0-4,0-7.96,0-11.98c0.48,0,0.95,0,1.54,0c0,1.79,0,3.54,0,5.65
			c1.38-1.69,2.61-3.07,3.67-4.56c0.72-1.01,1.54-1.37,2.88-1.06c-1.45,1.7-2.84,3.34-4.29,5.04c1.52,2.26,3.03,4.49,4.59,6.8
			c-1.08,0.34-1.83,0.23-2.45-0.8c-1-1.66-2.14-3.25-3.24-4.89C158.84,35.25,160.25,37.48,159.6,39.4z"/>
		<path class="st9" d="M183.95,26.75c0.51,0,0.95,0,1.52,0c0,1.66,0,3.27,0,5.15c0.4-0.33,0.57-0.51,0.77-0.65
			c2.21-1.54,4.77-0.39,4.95,2.3c0.12,1.91,0.02,3.83,0.02,5.82c-0.49,0-0.96,0-1.57,0c0-1.59,0.01-3.18,0-4.77
			c-0.02-1.82-0.62-2.66-1.9-2.69c-1.38-0.03-2.24,0.99-2.26,2.7c-0.01,1.56,0,3.11,0,4.78c-0.53,0.03-1,0.05-1.54,0.08
			C183.95,35.21,183.95,31.04,183.95,26.75z"/>
		<path class="st10" d="M223.57,25.71c-1.23,3.36-2.38,6.49-3.62,9.88c-1.99-2.76-3.87-5.37-5.87-8.15
			C217.28,26.85,220.32,26.3,223.57,25.71z"/>
		<path class="st11" d="M172.64,33.68c-0.39-2.04-1.24-2.34-4.18-1.45c-0.42-0.55-0.48-0.93,0.3-1.28c3.04-1.35,5.46,0.13,5.49,3.4
			c0.02,1.64,0,3.29,0,5.22c-0.6-0.22-1.12-0.41-1.65-0.6c0.04-0.1,0.07-0.2,0.11-0.3c-0.58,0.29-1.13,0.67-1.74,0.86
			c-1.44,0.45-2.85-0.18-3.36-1.41c-0.55-1.33-0.03-2.87,1.38-3.48C170.12,34.18,171.37,34.01,172.64,33.68z M172.57,34.91
			c-0.94,0.23-1.97,0.28-2.72,0.75c-0.45,0.28-0.76,1.32-0.61,1.87c0.11,0.42,1.07,0.86,1.64,0.84
			C172.3,38.33,172.82,37.23,172.57,34.91z"/>
		<path class="st12" d="M176.16,39.03c0.12-0.36,0.23-0.69,0.35-1.05c0.15,0.02,0.27,0.03,0.39,0.05c0.65,0.13,1.31,0.43,1.93,0.34
			c0.51-0.07,1.24-0.53,1.34-0.95c0.1-0.42-0.36-1.09-0.75-1.47c-0.36-0.35-0.96-0.43-1.43-0.68c-1.07-0.55-1.79-1.35-1.52-2.66
			c0.26-1.25,1.17-1.9,2.36-2c0.85-0.07,1.73,0.13,2.75,0.23c-0.16,0.57-0.26,0.92-0.37,1.3c-0.49-0.12-0.91-0.25-1.34-0.32
			c-0.79-0.12-1.7-0.1-1.79,0.84c-0.05,0.48,0.6,1.12,1.07,1.53c0.42,0.36,1.05,0.47,1.54,0.76c0.89,0.53,1.44,1.4,1.1,2.35
			c-0.28,0.79-0.91,1.66-1.63,2.03C178.88,39.98,177.48,39.76,176.16,39.03z"/>
		<path class="st13" d="M209.36,41.76c3.16-1.61,6.32-3.23,9.61-4.91c0.03,1.15-0.27,1.87-1.32,2.25c-2.46,0.9-4.9,1.87-7.35,2.8
			c-0.25,0.1-0.53,0.14-0.8,0.21C209.46,41.99,209.41,41.88,209.36,41.76z"/>
		<path class="st14" d="M228.22,29.77c-1.99,0-3.63,0-5.38,0c0.46-1.26,0.88-2.42,1.37-3.78C225.54,27.24,226.77,28.4,228.22,29.77z
			"/>
		<path class="st15" d="M189.86,22.64c-2.12-2.01-4.25-4.02-6.39-6.04c1.45-0.56,2.02-0.42,2.9,0.72c1.28,1.66,2.55,3.33,3.82,5
			C190.08,22.42,189.97,22.53,189.86,22.64z"/>
	</g>
</g>
<g>
	<rect x="-0.16" y="1.5" class="st0" width="120" height="65"/>
	<g>
		<path class="st16" d="M32.29,28.42c-0.01-0.05-0.02-0.1-0.02-0.15c0.46-2.24-0.48-4.11-2.31-4.96c-1.21-0.56-2.49-0.72-3.8-0.73
			c-2.36-0.01-4.73,0-7.09,0c-0.86,0-1.18,0.25-1.31,1.1c-0.26,1.63-0.51,3.26-0.77,4.88c-0.71,4.46-1.41,8.92-2.12,13.38
			c-0.11,0.72,0.1,0.96,0.84,0.96c1.36,0,2.73,0,4.09,0c-0.08,0.56-0.15,1.13-0.23,1.69c-0.09,0.61,0.08,0.82,0.7,0.83
			c1.09,0,2.19,0,3.28,0c0.73,0,0.99-0.23,1.11-0.96c0.25-1.5,0.48-3.01,0.73-4.51c0.11-0.64,0.39-0.85,1.04-0.87
			c0.51-0.01,1.02-0.02,1.52-0.07c1.32-0.12,2.56-0.48,3.63-1.29c1.92-1.46,3.07-4.84,2.44-7.16
			C33.75,29.61,33.21,28.86,32.29,28.42z"/>
		<path class="st16" d="M70.4,38.23c-0.07-0.21-0.11-0.33-0.15-0.45c-0.38-1.28-0.76-2.55-1.15-3.83c-0.21-0.69-0.35-0.79-1.09-0.8
			c-0.56,0-1.11,0-1.67,0c-0.69,0-0.82,0.19-0.59,0.84c0.78,2.31,1.56,4.62,2.36,6.93c0.1,0.29,0.07,0.49-0.1,0.74
			c-0.68,0.94-1.35,1.88-2.01,2.83c-0.13,0.19-0.28,0.55-0.2,0.65c0.13,0.16,0.44,0.24,0.69,0.25c0.6,0.03,1.21,0,1.81,0.02
			c0.39,0.01,0.65-0.14,0.87-0.46c2.53-3.67,5.07-7.33,7.6-11c0.1-0.15,0.19-0.44,0.12-0.55c-0.09-0.14-0.36-0.24-0.55-0.24
			c-0.65-0.03-1.3,0-1.95-0.01c-0.39-0.01-0.67,0.14-0.87,0.47c-0.13,0.22-0.28,0.42-0.42,0.63C72.21,35.56,71.33,36.86,70.4,38.23z
			"/>
		<path class="st17" d="M104.83,29.79c-0.06,0.13-0.15,0.26-0.18,0.41c-0.59,3.69-1.16,7.39-1.74,11.09
			c-0.13,0.84-0.29,0.97-1.15,0.97c-0.43,0-0.86,0-1.28,0c-0.68,0-0.78-0.12-0.68-0.8c0.29-1.9,0.59-3.79,0.89-5.68
			c0.34-2.15,0.67-4.29,1.01-6.44c0.1-0.62,0.17-0.69,0.78-0.7c0.57,0,1.14-0.03,1.71,0.01c0.22,0.02,0.43,0.18,0.64,0.28
			C104.83,29.22,104.83,29.5,104.83,29.79z"/>
		<path class="st18" d="M19.8,42.9c-1.36,0-2.73,0-4.09,0c-0.74,0-0.95-0.24-0.84-0.96c0.7-4.46,1.41-8.92,2.12-13.38
			c0.26-1.63,0.51-3.26,0.77-4.88c0.14-0.85,0.45-1.1,1.31-1.1c2.36,0,4.73-0.01,7.09,0c1.31,0.01,2.59,0.17,3.8,0.73
			c1.83,0.85,2.77,2.72,2.31,4.96c-0.2-0.05-0.39-0.11-0.59-0.15c-0.71-0.14-1.42-0.38-2.13-0.4c-2.15-0.05-4.31-0.02-6.47-0.02
			c-0.62,0-0.91,0.28-1,0.9c-0.1,0.7-0.2,1.4-0.32,2.1c-0.24,1.47-0.49,2.95-0.72,4.42c-0.02,0.15,0.06,0.32,0.09,0.49
			c-0.09,0.23-0.23,0.46-0.27,0.7c-0.18,1.06-0.33,2.12-0.5,3.19C20.18,40.63,19.99,41.76,19.8,42.9z"/>
		<path class="st19" d="M19.8,42.9c0.19-1.14,0.38-2.27,0.57-3.41c0.17-1.06,0.32-2.13,0.5-3.19c0.04-0.24,0.18-0.47,0.27-0.7
			c0.3-0.1,0.6-0.28,0.91-0.3c1.29-0.09,2.6-0.03,3.88-0.2c2.94-0.4,4.95-2.02,5.89-4.88c0.19-0.59,0.32-1.2,0.48-1.8
			c0.92,0.44,1.46,1.2,1.72,2.16c0.63,2.32-0.52,5.7-2.44,7.16c-1.07,0.81-2.31,1.17-3.63,1.29c-0.5,0.05-1.01,0.05-1.52,0.07
			c-0.65,0.02-0.93,0.23-1.04,0.87c-0.25,1.5-0.48,3.01-0.73,4.51c-0.12,0.73-0.39,0.96-1.11,0.96c-1.09,0-2.19,0-3.28,0
			c-0.61,0-0.79-0.22-0.7-0.83C19.65,44.03,19.72,43.47,19.8,42.9z"/>
		<path class="st20" d="M43.47,42.25c-0.32,0-0.63,0-0.95,0c-0.57-0.01-0.7-0.16-0.61-0.74c0.25-1.61,0.51-3.23,0.76-4.84
			c0.37-2.35,0.75-4.7,1.11-7.05c0.13-0.86,0.27-1,1.12-1c1.62,0,3.24-0.02,4.85,0.02c0.56,0.01,1.14,0.11,1.68,0.28
			c1.47,0.44,2.26,1.5,2.24,3.04c-0.02,1.84-0.49,3.52-2.03,4.71c-0.91,0.71-1.99,0.95-3.12,1c-0.62,0.03-1.24,0.01-1.86,0.02
			c-0.58,0.01-0.8,0.2-0.89,0.78c-0.16,0.99-0.31,1.97-0.47,2.96c-0.11,0.65-0.3,0.8-0.95,0.81C44.08,42.25,43.78,42.25,43.47,42.25
			z M46.35,34.95c0.6,0,1.15,0.03,1.7-0.01c1.34-0.1,2.03-0.89,1.98-2.24c-0.03-0.7-0.36-1.15-1.06-1.26
			c-0.54-0.08-1.11-0.1-1.66-0.08c-0.15,0-0.41,0.2-0.44,0.34C46.68,32.78,46.52,33.86,46.35,34.95z"/>
		<path class="st21" d="M82.27,28.65c0.87,0,1.75-0.03,2.62,0.01c2.78,0.12,4.07,1.68,3.65,4.41c-0.29,1.83-1.05,3.39-2.87,4.13
			c-0.71,0.28-1.5,0.39-2.26,0.48c-0.59,0.08-1.2,0.02-1.81,0.03c-0.56,0.01-0.78,0.2-0.87,0.74c-0.17,1.02-0.32,2.04-0.48,3.05
			c-0.1,0.66-0.2,0.75-0.85,0.75c-0.62,0-1.24,0-1.86,0c-0.68,0-0.8-0.13-0.69-0.79c0.32-2.05,0.64-4.1,0.97-6.15
			c0.31-1.94,0.62-3.88,0.92-5.82c0.1-0.67,0.3-0.85,0.96-0.85c0.86,0,1.71,0,2.57,0C82.27,28.64,82.27,28.64,82.27,28.65z
			 M81.29,34.95c0.59,0,1.12,0.03,1.66-0.01c1.35-0.1,1.99-0.8,2-2.15c0.01-0.8-0.37-1.27-1.15-1.37c-0.49-0.06-0.98-0.06-1.47-0.08
			c-0.34-0.01-0.52,0.16-0.56,0.5c-0.11,0.77-0.24,1.53-0.36,2.3C81.36,34.41,81.33,34.67,81.29,34.95z"/>
		<path class="st22" d="M60.08,41.2c-1.06,0.91-2.22,1.33-3.55,1.26c-1.89-0.1-3.25-1.33-3.49-3.21c-0.45-3.45,2.33-6.84,6.2-6.23
			c0.76,0.12,1.44,0.36,1.9,1.02c0.04-0.02,0.08-0.03,0.08-0.04c0.19-1.04,0.35-0.81,1.11-0.83c0.52-0.01,1.05-0.01,1.57,0
			c0.47,0.01,0.61,0.17,0.54,0.62c-0.4,2.6-0.82,5.2-1.23,7.8c-0.07,0.44-0.34,0.67-0.79,0.67c-0.57,0-1.14,0-1.71,0
			c-0.64,0-0.73-0.11-0.65-0.77C60.07,41.42,60.07,41.36,60.08,41.2z M58.17,39.98c1.48-0.01,2.64-1.16,2.65-2.62
			c0.01-0.91-0.47-1.59-1.3-1.82c-1.16-0.33-2.43,0.2-3.01,1.26C55.63,38.43,56.44,39.99,58.17,39.98z"/>
		<path class="st17" d="M94.99,41.23c-0.16,0.12-0.3,0.22-0.44,0.32c-1.1,0.8-2.32,1.07-3.65,0.84c-1.59-0.27-2.52-1.27-2.88-2.8
			c-0.68-2.82,1.25-5.89,4.08-6.53c0.87-0.2,1.75-0.21,2.58,0.07c0.52,0.17,0.98,0.52,1.47,0.79c0.01-0.04,0.04-0.17,0.06-0.3
			c0.04-0.32,0.23-0.47,0.55-0.47c0.7,0,1.4-0.01,2.09,0.01c0.44,0.01,0.58,0.21,0.51,0.66c-0.4,2.57-0.81,5.13-1.22,7.7
			c-0.08,0.52-0.31,0.71-0.83,0.72c-0.55,0.01-1.11,0-1.67,0c-0.67,0-0.76-0.12-0.66-0.8C95,41.39,94.99,41.33,94.99,41.23z
			 M93.07,39.98c1.46,0,2.61-1.09,2.68-2.55c0.05-1.05-0.57-1.8-1.61-1.95c-1.49-0.22-2.82,0.79-3.02,2.29
			C90.95,39.1,91.72,39.97,93.07,39.98z"/>
		<path class="st23" d="M32.29,28.42c-0.16,0.6-0.28,1.21-0.48,1.8c-0.94,2.86-2.94,4.48-5.89,4.88c-1.28,0.17-2.59,0.12-3.88,0.2
			c-0.31,0.02-0.61,0.19-0.91,0.3c-0.03-0.16-0.11-0.33-0.09-0.49c0.23-1.48,0.48-2.95,0.72-4.42c0.11-0.7,0.22-1.4,0.32-2.1
			c0.09-0.62,0.38-0.9,1-0.9c2.16,0,4.31-0.03,6.47,0.02c0.71,0.02,1.42,0.26,2.13,0.4c0.2,0.04,0.4,0.1,0.59,0.15
			C32.27,28.32,32.28,28.37,32.29,28.42z"/>
		<path class="st24" d="M70.4,38.23c0.94-1.38,1.82-2.67,2.7-3.97c0.14-0.21,0.3-0.41,0.42-0.63c0.2-0.33,0.48-0.48,0.87-0.47
			c0.65,0.01,1.3-0.02,1.95,0.01c0.2,0.01,0.46,0.1,0.55,0.24c0.07,0.11-0.02,0.4-0.12,0.55c-2.53,3.67-5.07,7.33-7.6,11
			c-0.22,0.32-0.48,0.47-0.87,0.46c-0.6-0.02-1.21,0.02-1.81-0.02c-0.24-0.01-0.56-0.08-0.69-0.25c-0.08-0.11,0.07-0.46,0.2-0.65
			c0.65-0.96,1.32-1.9,2.01-2.83c0.18-0.24,0.2-0.45,0.1-0.74c-0.8-2.31-1.58-4.62-2.36-6.93c-0.22-0.66-0.09-0.84,0.59-0.84
			c0.56,0,1.11,0,1.67,0c0.74,0,0.88,0.11,1.09,0.8c0.38,1.28,0.76,2.55,1.15,3.83C70.28,37.91,70.33,38.02,70.4,38.23z"/>
	</g>
</g>
<g>
	<rect x="384.09" y="1.39" class="st0" width="120" height="65"/>
	<g>
		<path class="st25" d="M479.01,44.83c-0.31,0-0.62,0-0.92,0c-1.39,0-2.77,0-4.16,0c-0.05,0-0.09,0-0.14,0
			c-0.23-1.09-0.45-2.16-0.68-3.25c-2.41,0-4.81,0-7.23,0c-0.09,0.26-0.19,0.53-0.29,0.8c-0.28,0.78-0.57,1.56-0.85,2.35
			c-0.02,0.07-0.05,0.1-0.13,0.1c-1.92,0-3.85,0-5.77,0c-0.02,0-0.03,0-0.07,0c0.03-0.06,0.05-0.12,0.07-0.18
			c2.6-6.22,5.21-12.44,7.81-18.66c0.19-0.46,0.38-0.93,0.58-1.38c0.45-1,1.22-1.56,2.32-1.58c1.61-0.03,3.23-0.01,4.84-0.01
			c0.01,0,0.02,0,0.05,0.01c0.05,0.25,0.11,0.5,0.16,0.76c0.31,1.48,0.62,2.96,0.93,4.44c0.34,1.63,0.68,3.25,1.02,4.88
			c0.36,1.72,0.72,3.44,1.08,5.16c0.39,1.87,0.78,3.75,1.17,5.62c0.06,0.3,0.13,0.6,0.2,0.91C479.01,44.8,479.01,44.81,479.01,44.83
			z M470.46,28.96c-0.01,0-0.02,0-0.02,0c-0.98,2.71-1.96,5.41-2.94,8.12c1.56,0,3.11,0,4.66,0
			C471.59,34.37,471.03,31.66,470.46,28.96z"/>
		<path class="st25" d="M448.32,45.16c-0.03-0.01-0.06-0.02-0.09-0.02c-1.28-0.09-2.55-0.26-3.8-0.61c-0.5-0.14-0.99-0.32-1.49-0.48
			c0.35-1.62,0.69-3.21,1.03-4.82c0.05,0.02,0.1,0.04,0.14,0.06c0.9,0.43,1.81,0.81,2.79,1.03c1.11,0.25,2.23,0.35,3.36,0.26
			c0.75-0.06,1.46-0.24,2.09-0.68c0.52-0.37,0.81-0.86,0.79-1.51c-0.02-0.49-0.25-0.86-0.59-1.19c-0.5-0.47-1.1-0.8-1.7-1.12
			c-0.74-0.4-1.5-0.77-2.22-1.2c-0.9-0.53-1.7-1.19-2.33-2.03c-0.76-1.01-1.1-2.15-1-3.42c0.16-2.11,1.17-3.72,2.86-4.94
			c1.14-0.82,2.43-1.31,3.8-1.59c1.12-0.24,2.26-0.31,3.41-0.27c1.61,0.06,3.17,0.39,4.68,0.94c0.01,0,0.02,0.01,0.05,0.03
			c-0.33,1.53-0.66,3.07-0.99,4.62c-0.04-0.02-0.08-0.03-0.11-0.05c-1.35-0.6-2.76-0.94-4.24-0.98c-0.73-0.02-1.45,0.02-2.14,0.27
			c-0.44,0.16-0.84,0.39-1.14,0.76c-0.46,0.59-0.43,1.27,0.09,1.82c0.34,0.36,0.74,0.64,1.17,0.87c0.79,0.44,1.59,0.86,2.38,1.3
			c0.87,0.48,1.7,1.03,2.4,1.75c0.82,0.84,1.36,1.82,1.49,3c0.19,1.84-0.24,3.52-1.4,4.98c-0.91,1.14-2.11,1.9-3.46,2.41
			c-0.98,0.37-1.99,0.6-3.03,0.71c-0.28,0.03-0.55,0.05-0.83,0.08c-0.02,0-0.03,0.02-0.05,0.02
			C449.6,45.16,448.96,45.16,448.32,45.16z"/>
		<path class="st25" d="M409.17,23.65c0.05-0.22,0.09-0.42,0.14-0.64c0.05,0,0.1,0,0.14,0c3.12,0,6.25,0,9.37,0
			c1.4,0,2.45,0.89,2.7,2.27c0.3,1.63,0.61,3.27,0.92,4.9c0.29,1.55,0.58,3.09,0.87,4.64c0.19,0.99,0.37,1.98,0.57,3.01
			c0.03-0.06,0.05-0.1,0.06-0.14c1.86-4.7,3.72-9.4,5.58-14.11c0.06-0.16,0.13-0.32,0.19-0.48c0.02-0.07,0.06-0.1,0.13-0.1
			c1.91,0,3.83,0,5.74,0c0.02,0,0.05,0,0.09,0.01c-0.02,0.05-0.04,0.1-0.06,0.14c-2.65,6.32-5.3,12.64-7.95,18.95
			c-0.36,0.86-0.72,1.72-1.08,2.58c-0.04,0.09-0.08,0.13-0.19,0.13c-1.9,0-3.8,0-5.7,0c-0.11,0-0.14-0.03-0.17-0.13
			c-0.94-3.65-1.89-7.3-2.83-10.96c-0.57-2.19-1.13-4.38-1.7-6.57c-0.06-0.21-0.14-0.42-0.22-0.63c-0.23-0.55-0.69-0.86-1.19-1.11
			c-1.03-0.52-2.12-0.9-3.23-1.22c-0.7-0.2-1.4-0.36-2.1-0.54C409.24,23.67,409.21,23.66,409.17,23.65z"/>
		<path class="st25" d="M438.1,23.02c1.89,0,3.76,0,5.65,0c-0.05,0.24-0.1,0.48-0.15,0.71c-0.5,2.35-1,4.7-1.51,7.05
			c-0.5,2.35-1.01,4.71-1.51,7.06c-0.48,2.26-0.97,4.52-1.45,6.78c-0.05,0.22-0.05,0.22-0.28,0.22c-1.75,0-3.51,0-5.26,0
			c-0.05,0-0.09,0-0.16,0C435,37.55,436.55,30.29,438.1,23.02z"/>
	</g>
</g>
<g>
	<rect x="255.75" y="1.05" class="st0" width="120" height="65"/>
	<g>
		<path class="st26" d="M355.16,43.62c0.42,0.56,0.51,1.15,0.39,1.78c-0.09,0.5-0.55,0.86-1.12,0.95c-0.75,0.11-1.4-0.08-1.95-0.61
			c-0.39-0.37-0.66-0.83-0.89-1.31c-0.39-0.83-0.59-1.72-0.69-2.63c-0.09-0.75-0.1-1.51-0.18-2.26c-0.12-1.15-0.14-2.31-0.14-3.47
			c0-0.03-0.02-0.06-0.04-0.13c-0.12,0.07-0.23,0.13-0.34,0.19c-1.63,1.04-2.63,2.55-3.13,4.4c-0.14,0.5-0.21,1.01-0.31,1.53
			c-0.06,0.34-0.27,0.49-0.61,0.41c-0.03-0.01-0.07-0.02-0.1-0.03c-0.79-0.33-1.59-0.66-2.4-1.01c0-3.26,0-6.52,0-9.83
			c-1.09-0.01-2.16,0-3.26-0.01c0,0.17,0,0.31,0,0.44c0,4.79,0,9.57,0,14.36c0,0.11,0,0.21,0,0.32c-0.01,0.46-0.32,0.64-0.71,0.4
			c-0.55-0.33-1.09-0.66-1.64-0.98c-0.13-0.08-0.26-0.16-0.41-0.25c0-0.14,0-0.28,0-0.42c0-3.5,0-7,0-10.49
			c0-0.23-0.05-0.43-0.18-0.63c-0.51-0.76-1.08-1.46-1.78-2.05c-0.46-0.38-0.97-0.68-1.57-0.79c-0.51-0.09-1.01-0.08-1.5,0.11
			c-0.53,0.21-0.91,0.58-1.04,1.16c-0.09,0.46,0.08,0.81,0.42,1.09c0.13,0.11,0.29,0.16,0.46,0.1c0.14-0.05,0.29-0.09,0.44-0.14
			c1.03-0.37,1.9-0.16,2.63,0.65c0.38,0.43,0.68,0.91,0.88,1.44c0.29,0.79,0.21,1.59-0.05,2.36c-0.86,2.53-3.17,3.16-4.99,2.6
			c-0.86-0.26-1.5-0.84-1.93-1.63c-0.32-0.57-0.39-1.18-0.13-1.81c0.15-0.35,0.26-0.71,0.41-1.12c0.18,0.27,0.35,0.5,0.49,0.73
			c0.28,0.46,0.69,0.69,1.22,0.73c0.63,0.04,1.23-0.03,1.79-0.33c0.24-0.13,0.47-0.32,0.65-0.53c0.27-0.33,0.2-0.71,0.01-1.06
			c-0.18-0.33-0.49-0.47-0.86-0.44c-0.12,0.01-0.25,0.07-0.37,0.11c-1.27,0.51-2.49,0.41-3.61-0.36c-0.86-0.59-1.08-1.51-1.01-2.51
			c0.05-0.7,0.35-1.29,0.81-1.81c0.8-0.9,1.81-1.4,3-1.6c1.44-0.24,2.73,0.09,3.87,0.95c0.58,0.43,1.11,0.92,1.65,1.39
			c0.1,0.08,0.15,0.21,0.23,0.31c0.03-0.02,0.06-0.04,0.09-0.06c0.01-0.09,0.02-0.17,0.02-0.26c0-0.51,0-1.02,0-1.52
			c0-0.4,0.13-0.53,0.53-0.53c0.66,0,1.32,0,1.99,0c5.19,0,10.38,0,15.56,0c0.12,0,0.24,0,0.35,0c0.43,0.01,0.54,0.13,0.54,0.55
			c-0.01,0.27,0,0.54,0,0.82c0,0.59-0.1,0.69-0.67,0.69c-1.39,0-2.79,0-4.18,0c-1.68,0-3.36,0-5.03,0c-0.13,0-0.26,0-0.41,0
			c0,1.27,0,2.53,0,3.82c0.07-0.06,0.13-0.1,0.19-0.15c1.02-0.91,2.07-1.79,3.26-2.49c0.52-0.31,1.07-0.56,1.65-0.71
			c0.26-0.07,0.51-0.06,0.77,0.01c0.76,0.22,1.46,0.55,2.04,1.09c0.29,0.27,0.54,0.56,0.69,0.93c0.13,0.34,0.06,0.54-0.28,0.68
			c-0.31,0.13-0.54,0.36-0.68,0.65c-0.21,0.43-0.44,0.87-0.56,1.33c-0.46,1.74-0.59,3.52-0.36,5.3c0.05,0.39,0.19,0.78,0.33,1.15
			c0.17,0.45,0.62,0.7,1.16,0.52C354.76,43.68,354.95,43.66,355.16,43.62z"/>
		<path class="st27" d="M282.66,22.17c-0.01,0.06-0.02,0.12-0.05,0.17c-0.85,1.8-1.36,3.7-1.53,5.68c-0.27,3.06,0.11,6.03,1.32,8.87
			c0.7,1.63,1.65,3.11,2.95,4.33c1.11,1.05,2.38,1.81,3.88,2.18c1.07,0.27,2.16,0.25,3.24,0.15c0.92-0.09,1.82-0.27,2.67-0.66
			c2.8-1.32,4.55-3.49,5.1-6.54c0.48-2.67-0.19-5.08-1.93-7.18c-0.16-0.2-0.35-0.38-0.56-0.61c0.27,0,0.48-0.02,0.7,0
			c2.77,0.28,5.31,1.17,7.57,2.83c0.17,0.13,0.36,0.24,0.54,0.36c0.02,0.09,0.06,0.18,0.06,0.27c-0.02,0.86-0.01,1.72-0.07,2.58
			c-0.04,0.57-0.15,1.14-0.26,1.71c-0.32,1.55-0.94,2.99-1.78,4.33c-0.95,1.53-2.11,2.87-3.54,3.96c-1.08,0.82-2.23,1.5-3.48,2.02
			c-1.45,0.61-2.96,0.95-4.52,1.05c-1.08,0.07-2.17,0.06-3.25-0.13c-0.86-0.15-1.71-0.33-2.53-0.64c-0.08-0.24-0.32-0.25-0.5-0.34
			c-0.42-0.21-0.86-0.38-1.28-0.59c-0.4-0.2-0.78-0.42-1.17-0.63c-0.05-0.03-0.1-0.05-0.16-0.08c-0.02-0.12-0.11-0.14-0.21-0.14
			c-0.02-0.02-0.05-0.05-0.07-0.07c-0.07-0.05-0.14-0.1-0.21-0.15c-0.07-0.05-0.14-0.1-0.21-0.15c-0.06-0.16-0.19-0.25-0.35-0.29
			c-0.07-0.09-0.14-0.19-0.23-0.27c-0.74-0.62-1.4-1.3-2.01-2.04c-0.92-1.12-1.64-2.36-2.19-3.7c-0.69-1.7-1.06-3.46-1.06-5.3
			c0-0.61,0-1.23,0-1.84c0.02-0.15,0.13-0.29,0.01-0.44c0.05-0.05,0.11-0.1,0.13-0.16c0.02-0.08,0.01-0.18,0.01-0.27
			c0.02-0.12,0.05-0.24,0.07-0.36c0.05-0.26,0.09-0.52,0.14-0.78c0-0.04,0-0.09,0-0.13c0.02-0.05,0.05-0.1,0.07-0.15c0,0,0,0,0,0
			c0.02-0.07,0.05-0.14,0.07-0.22c0,0,0,0,0,0c0.02-0.07,0.05-0.14,0.07-0.21l0,0c0.05-0.12,0.09-0.24,0.14-0.35l0,0
			c0.02-0.07,0.05-0.14,0.07-0.22l0,0c0.05-0.12,0.1-0.24,0.14-0.36c0,0,0,0,0,0c0.13-0.08,0.16-0.21,0.14-0.36c0,0,0,0,0,0
			c0.02-0.05,0.05-0.1,0.07-0.14c0,0,0,0,0,0c0.04-0.05,0.07-0.1,0.11-0.14c0.01-0.03,0.02-0.07,0.03-0.1
			c0.05-0.13,0.1-0.26,0.14-0.4l0,0c0.02-0.05,0.05-0.1,0.07-0.15c0,0,0,0,0,0c0.02-0.05,0.05-0.1,0.07-0.15c0,0,0,0,0,0
			c0.02-0.05,0.05-0.1,0.07-0.15c0,0,0,0,0,0c0.06-0.05,0.12-0.09,0.16-0.15c0.12-0.19,0.23-0.38,0.35-0.57
			c0.2-0.32,0.39-0.64,0.59-0.95c0.07-0.1,0.14-0.19,0.21-0.29c0.09-0.12,0.19-0.24,0.28-0.35c0.02-0.03,0.04-0.05,0.06-0.08
			c0.21-0.21,0.42-0.43,0.64-0.64c0.02-0.03,0.05-0.06,0.07-0.08c0.03-0.05,0.07-0.1,0.1-0.15c0.03-0.05,0.06-0.09,0.09-0.14
			c0.05-0.02,0.1-0.05,0.14-0.07c0.03-0.01,0.07-0.03,0.1-0.04c0.03-0.02,0.05-0.04,0.08-0.06c0.12-0.09,0.23-0.18,0.35-0.26
			C282.49,22.25,282.58,22.22,282.66,22.17z"/>
		<path class="st28" d="M287.2,46.92c0.82,0.31,1.67,0.49,2.53,0.64c1.08,0.18,2.16,0.19,3.25,0.13c1.56-0.1,3.07-0.44,4.52-1.05
			c1.25-0.53,2.4-1.2,3.48-2.02c1.44-1.09,2.59-2.43,3.54-3.96c0.84-1.34,1.46-2.78,1.78-4.33c0.12-0.56,0.22-1.13,0.26-1.71
			c0.06-0.86,0.05-1.72,0.07-2.58c0-0.09-0.04-0.18-0.06-0.27c0-0.03,0-0.07,0-0.16c0.13,0.09,0.24,0.16,0.34,0.24
			c0.11,0.09,0.22,0.18,0.35,0.29c0.2-0.3,0.39-0.59,0.62-0.93c0.04,0.13,0.08,0.21,0.09,0.29c0.22,1.31,0.35,2.63,0.28,3.95
			c-0.12,2.05-0.56,4.03-1.36,5.94c-1.66,3.98-5.77,8.46-12.06,9.69c-9.01,1.76-17.39-3.82-19.51-12.4
			c-1.42-5.75,0.42-11.94,4.75-16.01c1.06-0.99,2.22-1.84,3.49-2.53c0.12-0.07,0.26-0.11,0.38-0.17c0.01,0.01,0.02,0.03,0.04,0.04
			c-0.39,0.6-0.78,1.2-1.17,1.8c-0.04,0-0.09,0-0.13,0c-0.05,0.01-0.11,0-0.14,0.03c-0.4,0.35-0.8,0.71-1.19,1.08
			c-0.06,0.06-0.07,0.16-0.1,0.25c-0.02,0.02-0.04,0.04-0.06,0.06c-0.03,0.03-0.05,0.05-0.08,0.08l0,0
			c-0.02,0.02-0.05,0.05-0.07,0.07l0,0c-0.02,0.02-0.05,0.05-0.07,0.07l0,0c-0.02,0.02-0.05,0.05-0.07,0.07l0,0
			c-0.02,0.02-0.05,0.05-0.07,0.07c0,0,0,0,0,0c-0.14,0-0.16,0.09-0.15,0.2l0,0c-0.02,0.02-0.04,0.05-0.07,0.07l0,0
			c-0.02,0.02-0.04,0.05-0.07,0.07l0,0c-0.02,0.02-0.05,0.05-0.07,0.07c0,0,0,0,0,0c-0.03,0.04-0.05,0.09-0.08,0.13l0,0
			c-0.02,0.02-0.04,0.05-0.06,0.07l0,0c-0.02,0.02-0.05,0.05-0.07,0.07l0,0c-0.14,0.01-0.16,0.1-0.15,0.21c0,0,0,0,0,0
			c-0.02,0.02-0.04,0.05-0.07,0.07c0,0,0,0,0,0c-0.03,0.05-0.05,0.09-0.08,0.14l0,0c-0.02,0.03-0.04,0.05-0.07,0.08l0,0
			c-0.14,0.01-0.15,0.1-0.14,0.21v0c-0.14,0.01-0.15,0.1-0.14,0.21l0,0c-0.03,0.05-0.05,0.09-0.08,0.14l0,0
			c-0.14,0.01-0.15,0.11-0.14,0.22c0,0,0,0,0,0c-0.06,0.06-0.15,0.1-0.19,0.18c-0.33,0.67-0.68,1.34-0.97,2.04
			c-0.2,0.47-0.31,0.98-0.47,1.47c0,0.07-0.01,0.14-0.01,0.21l-0.01-0.01c-0.04,0.11-0.1,0.21-0.13,0.32
			c-0.22,0.95-0.38,1.91-0.36,2.89c0.02,0.76,0,1.53,0.1,2.29c0.1,0.75,0.28,1.5,0.48,2.23c0.38,1.37,0.97,2.65,1.77,3.83
			c0.07,0.11,0.13,0.22,0.2,0.33c0.66,1,1.48,1.86,2.35,2.67c0.06,0.05,0.14,0.08,0.21,0.12l0,0c0.05,0.02,0.1,0.05,0.14,0.07l0,0
			c0,0.14,0.08,0.2,0.21,0.21c0,0,0,0,0,0c0.05,0.02,0.1,0.05,0.14,0.07c0,0,0,0,0,0c0,0.14,0.09,0.2,0.21,0.21l0,0
			c0.05,0.02,0.1,0.05,0.14,0.07c0,0,0,0,0,0c0.01,0.14,0.11,0.15,0.21,0.14l0,0c0.01,0.14,0.11,0.15,0.21,0.14l0,0
			c0.01,0.15,0.1,0.15,0.21,0.14l0,0c0.02,0.02,0.05,0.05,0.07,0.07c0,0,0,0,0,0c0.05,0.02,0.1,0.05,0.14,0.07l0,0
			c0.05,0.06,0.08,0.14,0.14,0.18c0.18,0.12,0.36,0.22,0.54,0.32C285.54,46.28,286.33,46.7,287.2,46.92z"/>
		<path class="st26" d="M324.01,37.4c0-1.99,0-3.91,0-5.87c-0.14,0-0.28,0-0.42,0c-3.29,0-6.57,0-9.86,0c-0.11,0-0.21,0-0.32,0
			c-0.34-0.02-0.48-0.15-0.48-0.48c-0.01-0.35-0.01-0.71,0-1.06c0.01-0.3,0.14-0.42,0.44-0.44c0.08-0.01,0.17,0,0.25,0
			c4.59,0,9.17,0,13.76,0c0.07,0,0.14,0,0.21,0c0.37,0.01,0.54,0.17,0.55,0.54c0.01,0.34,0.01,0.69,0,1.03
			c-0.01,0.33-0.14,0.47-0.48,0.48c-0.25,0.01-0.49,0-0.79,0c0,0.16,0,0.29,0,0.43c0,4.85,0,9.69,0,14.54c0,0.11,0,0.21,0,0.32
			c-0.02,0.44-0.31,0.61-0.69,0.39c-0.36-0.21-0.71-0.42-1.06-0.64c-0.26-0.16-0.52-0.33-0.79-0.47c-0.17-0.09-0.22-0.21-0.22-0.4
			c0.01-0.89,0.01-1.77,0-2.66c-0.01-1.78-0.72-3.28-1.95-4.53c-0.77-0.79-1.73-1.17-2.84-1.17c-0.82,0.01-1.57,0.66-1.69,1.48
			c-0.02,0.13-0.04,0.26-0.04,0.39c-0.01,0.26,0.06,0.49,0.21,0.7c0.45,0.64,1.57,0.87,2.24,0.46c0.35-0.22,0.59-0.5,0.54-0.95
			c-0.03-0.29-0.01-0.59-0.01-0.92c0.95,0.41,1.73,0.93,1.93,1.98c0.2,1.01-0.17,1.84-0.98,2.46c-0.51,0.39-1.1,0.6-1.74,0.62
			c-1.26,0.05-2.39-0.26-3.29-1.19c-0.56-0.58-0.9-1.3-1.09-2.08c-0.27-1.1-0.33-2.19,0.09-3.27c0.29-0.74,0.73-1.37,1.32-1.91
			c0.95-0.86,2.06-1.04,3.27-0.75c1.24,0.3,2.23,1,3.08,1.92c0.25,0.27,0.46,0.57,0.69,0.86C323.88,37.24,323.92,37.29,324.01,37.4z
			"/>
		<path class="st29" d="M287.6,32.8c0.69-1.86,1.77-3.47,3.19-4.84c1.9-1.83,4.19-2.91,6.77-3.38c1.9-0.35,3.78-0.25,5.65,0.26
			c0.1,0.03,0.2,0.04,0.36,0.07c-0.05-1.2-0.09-2.37-0.14-3.58c3.11,0.04,5.8,1.05,8.22,2.98c-1.51,2.29-3,4.56-4.51,6.85
			c-0.09-0.07-0.16-0.12-0.21-0.17c-1.8-1.71-3.96-2.72-6.39-3.14c-3.78-0.65-7.22,0.19-10.3,2.49c-0.97,0.73-1.8,1.6-2.55,2.55
			C287.66,32.85,287.63,32.82,287.6,32.8z"/>
		<path class="st30" d="M290.44,15.7c1.02,1.88,2.05,3.77,3.09,5.68c-0.11,0.05-0.19,0.1-0.29,0.14c-2.95,1.26-5.31,3.24-7.01,5.97
			c-1.17,1.87-1.87,3.91-2.09,6.11c-0.12,1.14-0.12,2.29,0,3.43c0.01,0.06,0.01,0.12,0.01,0.18c-0.62-0.5-1.8-3.3-2.17-5.23
			c-0.37-1.9-0.35-3.8,0.01-5.7C283.07,20.72,287.11,17.04,290.44,15.7z"/>
		<path class="st26" d="M294.66,21.68c-0.57-1.06-1.12-2.06-1.67-3.06c1.96-1.6,5.83-2.91,9.39-2.3c0.07,2.52,0.14,5.06,0.22,7.62
			c-3.35-0.5-6.53-0.09-9.55,1.37c-3.03,1.46-5.3,3.73-6.96,6.65c0.34-2.38,1.35-4.46,2.86-6.3
			C290.47,23.81,292.38,22.5,294.66,21.68z"/>
		<path class="st31" d="M282.67,21.82c0.04,0,0.09,0,0.13,0c0.06,0.11,0.09,0.21-0.04,0.29c-0.03,0.03-0.06,0.05-0.09,0.08
			c0,0,0.01,0,0.01,0c-0.09,0.04-0.18,0.08-0.26,0.13c-0.12,0.08-0.24,0.18-0.35,0.26c-0.02-0.02-0.04-0.04-0.05-0.06
			c0.16-0.15,0.33-0.3,0.48-0.45C282.55,21.98,282.61,21.9,282.67,21.82z"/>
		<path class="st32" d="M287.6,32.8c0.03,0.03,0.06,0.06,0.09,0.08c-0.04,0.07-0.09,0.14-0.15,0.26
			C287.47,32.96,287.53,32.88,287.6,32.8z"/>
		<path class="st27" d="M282.66,22.18c0.03-0.03,0.06-0.05,0.09-0.08C282.72,22.12,282.69,22.15,282.66,22.18z"/>
		<path class="st28" d="M283.93,19.97c0.02-0.01,0.04-0.02,0.06-0.03c-0.01,0.02-0.02,0.05-0.02,0.07
			C283.96,20,283.94,19.98,283.93,19.97z"/>
		<path class="st33" d="M277.55,31.33c0,0.61,0,1.23,0,1.84c0,1.84,0.37,3.6,1.06,5.3c0.55,1.34,1.27,2.58,2.19,3.7
			c0.61,0.74,1.27,1.42,2.01,2.04c0.09,0.07,0.15,0.18,0.23,0.27c-0.01,0.01-0.02,0.03-0.03,0.04c-0.05,0-0.09-0.01-0.14-0.01
			c0,0,0,0,0,0c-0.05-0.02-0.1-0.05-0.14-0.07l0,0c0-0.14-0.08-0.21-0.21-0.21c0,0,0,0,0,0c-0.05-0.02-0.09-0.05-0.14-0.07l0,0
			c-0.07-0.1-0.12-0.22-0.21-0.31c-0.47-0.5-0.96-0.98-1.41-1.49c-0.38-0.44-0.72-0.93-1.07-1.4c-0.05-0.09-0.1-0.19-0.15-0.28
			c-0.69-1.11-1.21-2.29-1.57-3.54c-0.29-1.01-0.48-2.04-0.54-3.08c-0.04-0.67-0.02-1.34,0-2.02
			C277.43,31.81,277.5,31.57,277.55,31.33z"/>
		<path class="st34" d="M277.55,31.33c-0.04,0.24-0.12,0.48-0.13,0.72c-0.02,0.67-0.04,1.35,0,2.02c0.07,1.04,0.25,2.07,0.54,3.08
			c0.36,1.25,0.88,2.43,1.57,3.54c0.06,0.09,0.1,0.19,0.15,0.28c-0.02,0.03-0.05,0.05-0.07,0.08c-0.79-1.18-1.39-2.46-1.77-3.83
			c-0.2-0.73-0.38-1.48-0.48-2.23c-0.1-0.76-0.08-1.53-0.1-2.29c-0.02-0.98,0.14-1.94,0.36-2.89c0.03-0.11,0.09-0.21,0.13-0.32
			c0.01,0.14,0.01,0.29,0.02,0.43c-0.02,0.14-0.05,0.28-0.07,0.43c-0.05,0.19-0.09,0.38-0.14,0.56
			C277.68,31.04,277.57,31.18,277.55,31.33z"/>
		<path class="st35" d="M287.2,46.92c-0.87-0.22-1.65-0.64-2.44-1.06c-0.19-0.1-0.37-0.21-0.54-0.32c-0.06-0.04-0.1-0.12-0.14-0.18
			c0.06,0,0.11,0,0.17,0c0.39,0.21,0.78,0.43,1.17,0.63c0.42,0.21,0.86,0.38,1.28,0.59C286.88,46.67,287.12,46.68,287.2,46.92z"/>
		<path class="st36" d="M277.77,29.27c0.15-0.49,0.27-1,0.47-1.47c0.29-0.69,0.64-1.36,0.97-2.04c0.04-0.07,0.13-0.12,0.19-0.18
			c-0.07,0.19-0.14,0.38-0.22,0.57c0,0,0,0,0,0c-0.02,0.05-0.05,0.1-0.07,0.15c0,0,0,0,0,0c-0.02,0.05-0.05,0.1-0.07,0.15
			c0,0,0,0,0,0c-0.02,0.05-0.05,0.1-0.07,0.15c0,0,0,0,0,0c-0.05,0.13-0.1,0.26-0.14,0.4c-0.01,0.03-0.02,0.07-0.03,0.1
			c-0.17-0.05-0.09,0.08-0.11,0.14c0,0,0,0,0,0c-0.02,0.05-0.05,0.1-0.07,0.14c0,0,0,0,0,0c-0.05,0.12-0.1,0.24-0.14,0.36
			c0,0,0,0,0,0c-0.05,0.12-0.1,0.24-0.14,0.36c0,0,0,0,0,0c-0.02,0.07-0.05,0.14-0.07,0.22c0,0,0,0,0,0
			c-0.05,0.12-0.09,0.24-0.14,0.35c0,0,0,0,0,0c-0.02,0.07-0.05,0.14-0.07,0.21c0,0,0,0,0,0c-0.02,0.07-0.05,0.14-0.07,0.22
			c0,0,0,0,0,0c-0.02,0.05-0.05,0.1-0.07,0.15c0,0.04,0,0.09,0,0.13c-0.02,0-0.05,0-0.07,0C277.82,29.31,277.79,29.29,277.77,29.27z
			"/>
		<path class="st37" d="M279.18,26.14c0.07-0.19,0.14-0.38,0.22-0.57c0,0,0,0,0,0c0.05-0.07,0.09-0.14,0.14-0.22c0,0,0,0,0,0
			c0.03-0.05,0.05-0.09,0.08-0.14c0,0,0,0,0,0c0.05-0.07,0.09-0.14,0.14-0.21c0,0,0,0,0,0c0.05-0.07,0.09-0.14,0.14-0.21
			c0,0,0,0,0,0c0.02-0.03,0.04-0.05,0.07-0.08c0,0,0,0,0,0c0.03-0.05,0.05-0.09,0.08-0.14c0,0,0,0,0,0
			c0.02-0.02,0.04-0.05,0.07-0.07c0,0,0,0,0,0c0.04-0.03,0.09-0.05,0.13-0.08c0.02,0.02,0.03,0.03,0.05,0.05
			c-0.2,0.32-0.39,0.63-0.59,0.95c-0.12,0.19-0.23,0.38-0.35,0.57C279.31,26.06,279.24,26.1,279.18,26.14z"/>
		<path class="st37" d="M281.17,23.23c0.02-0.02,0.04-0.04,0.06-0.06c0.06-0.04,0.12-0.08,0.18-0.12c0.02,0.02,0.04,0.04,0.06,0.06
			c-0.21,0.21-0.42,0.43-0.64,0.64c-0.01-0.01-0.02-0.02-0.03-0.03c0.01-0.04,0.01-0.08,0.02-0.13c0,0,0,0,0,0
			c0.02-0.02,0.05-0.05,0.07-0.07c0,0,0,0,0,0c0.02-0.02,0.05-0.05,0.07-0.07c0,0,0,0,0,0c0.02-0.02,0.05-0.05,0.07-0.07
			c0,0,0,0,0,0c0.02-0.02,0.05-0.05,0.07-0.07c0,0,0,0,0,0C281.12,23.28,281.15,23.25,281.17,23.23z"/>
		<path class="st38" d="M277.84,29.33c0.02,0,0.05,0,0.07,0c-0.05,0.26-0.09,0.52-0.14,0.78c0-0.07,0-0.14,0-0.21
			c0-0.14-0.01-0.29-0.02-0.43c0,0,0.01,0.01,0.01,0.01C277.79,29.43,277.81,29.38,277.84,29.33z"/>
		<path class="st33" d="M283.04,44.48c0.16,0.04,0.29,0.12,0.35,0.29c-0.01,0.01-0.02,0.02-0.02,0.03c-0.05,0-0.09,0-0.14,0
			c0,0,0,0,0,0c-0.05-0.02-0.1-0.05-0.14-0.07l0,0c-0.03-0.07-0.05-0.14-0.08-0.2C283.02,44.51,283.03,44.5,283.04,44.48z"/>
		<path class="st37" d="M280.77,23.83c-0.09,0.12-0.19,0.24-0.28,0.35c-0.02-0.01-0.03-0.03-0.04-0.04
			c0.01-0.04,0.01-0.09,0.01-0.13c0,0,0,0,0,0c0.02-0.02,0.05-0.05,0.07-0.07c0,0,0,0,0,0c0.02-0.02,0.04-0.05,0.07-0.07
			c0,0,0,0,0,0c0.02-0.02,0.04-0.05,0.07-0.07c0,0,0,0,0,0c0,0,0.03,0,0.03,0l0.03,0C280.75,23.81,280.76,23.82,280.77,23.83z"/>
		<path class="st39" d="M277.56,30.89c0.05-0.19,0.09-0.38,0.14-0.56c0,0.05,0,0.09,0,0.14c0,0.09,0.01,0.18-0.01,0.27
			C277.67,30.8,277.6,30.84,277.56,30.89z"/>
		<path class="st40" d="M277.7,30.47c0-0.05,0-0.09,0-0.14c0.02-0.14,0.05-0.28,0.07-0.43c0,0.07,0,0.14,0,0.21
			C277.74,30.23,277.72,30.35,277.7,30.47z"/>
		<path class="st37" d="M280.49,24.19c-0.07,0.1-0.14,0.19-0.21,0.29c-0.02-0.01-0.03-0.03-0.05-0.05c0.01-0.04,0.01-0.08,0.02-0.13
			c0,0,0,0,0,0c0.02-0.02,0.04-0.05,0.07-0.07c0,0,0,0,0,0c0.02-0.02,0.04-0.05,0.06-0.07c0,0,0,0,0,0c0,0,0.03,0,0.03,0l0.03,0
			C280.46,24.16,280.48,24.17,280.49,24.19z"/>
		<path class="st41" d="M278.47,27.71c0.05-0.12,0.1-0.24,0.14-0.36C278.64,27.49,278.61,27.62,278.47,27.71z"/>
		<path class="st42" d="M278.12,28.62c0.05-0.12,0.09-0.24,0.14-0.35C278.22,28.39,278.17,28.51,278.12,28.62z"/>
		<path class="st43" d="M278.33,28.06c0.05-0.12,0.1-0.24,0.14-0.36C278.43,27.82,278.38,27.94,278.33,28.06z"/>
		<path class="st37" d="M278.83,26.96c0.05-0.13,0.1-0.26,0.14-0.4C278.92,26.7,278.88,26.83,278.83,26.96z"/>
		<path class="st33" d="M283.39,44.77c0.07,0.05,0.14,0.1,0.21,0.15l-0.02,0.02c-0.05,0-0.09,0-0.14,0c0,0,0,0,0,0
			c-0.03-0.05-0.05-0.09-0.08-0.14C283.37,44.79,283.38,44.78,283.39,44.77z"/>
		<path class="st33" d="M283.88,45.14c0.1,0,0.19,0.02,0.21,0.15c0,0-0.01,0.01-0.01,0.01c-0.05,0-0.1,0-0.14,0c0,0,0,0,0,0
			c-0.02-0.02-0.05-0.05-0.07-0.07l0,0c0-0.02,0-0.05,0-0.07L283.88,45.14z"/>
		<path class="st44" d="M281.64,22.88c-0.03,0.05-0.07,0.1-0.1,0.15c-0.03,0-0.06,0-0.1-0.01c0.06-0.05,0.12-0.09,0.18-0.14
			L281.64,22.88z"/>
		<path class="st33" d="M283.6,44.92c0.07,0.05,0.14,0.1,0.21,0.15l-0.02,0.02c-0.05,0-0.09,0-0.14,0c0,0,0,0,0,0
			c-0.03-0.05-0.05-0.09-0.08-0.14L283.6,44.92z"/>
		<path class="st42" d="M278.05,28.84c0.02-0.07,0.05-0.14,0.07-0.21C278.1,28.7,278.07,28.77,278.05,28.84z"/>
		<path class="st41" d="M278.69,27.21c0.01-0.06-0.06-0.19,0.11-0.14C278.76,27.11,278.72,27.16,278.69,27.21z"/>
		<path class="st31" d="M281.64,22.88c0,0-0.02,0-0.02,0c0.04-0.05,0.08-0.1,0.12-0.14l0,0C281.7,22.78,281.67,22.83,281.64,22.88z"
			/>
		<path class="st42" d="M277.98,29.05c0.02-0.07,0.05-0.14,0.07-0.22C278.03,28.91,278,28.98,277.98,29.05z"/>
		<path class="st43" d="M278.26,28.27c0.02-0.07,0.05-0.14,0.07-0.22C278.31,28.13,278.29,28.2,278.26,28.27z"/>
		<path class="st37" d="M279.04,26.43c0.02-0.05,0.05-0.1,0.07-0.15C279.09,26.33,279.07,26.38,279.04,26.43z"/>
		<path class="st37" d="M278.97,26.57c0.02-0.05,0.05-0.1,0.07-0.15C279.02,26.47,278.99,26.52,278.97,26.57z"/>
		<path class="st37" d="M279.11,26.29c0.02-0.05,0.05-0.1,0.07-0.15C279.16,26.19,279.14,26.24,279.11,26.29z"/>
		<path class="st42" d="M277.91,29.2c0.02-0.05,0.05-0.1,0.07-0.15C277.95,29.1,277.93,29.15,277.91,29.2z"/>
		<path class="st41" d="M278.62,27.35c0.02-0.05,0.05-0.1,0.07-0.14C278.66,27.25,278.64,27.3,278.62,27.35z"/>
		<path class="st33" d="M284.24,45.36c-0.06,0-0.11,0-0.17,0c0,0,0,0,0,0c0-0.02,0-0.05,0-0.07c0,0,0.01-0.01,0.01-0.01
			C284.14,45.31,284.19,45.34,284.24,45.36z"/>
		<path class="st31" d="M281.88,22.67c-0.05,0.02-0.1,0.05-0.14,0.07c0,0,0,0,0,0C281.79,22.72,281.83,22.69,281.88,22.67
			L281.88,22.67z"/>
		<path class="st31" d="M282.06,22.57c-0.03,0.02-0.05,0.04-0.08,0.06c-0.02-0.01-0.03-0.03-0.05-0.04
			c0.02-0.02,0.05-0.05,0.07-0.07C282.02,22.53,282.04,22.55,282.06,22.57z"/>
		<path class="st31" d="M281.98,22.62c-0.03,0.01-0.07,0.03-0.1,0.04c0,0,0,0,0,0c0.02-0.03,0.03-0.06,0.05-0.09
			C281.95,22.59,281.96,22.61,281.98,22.62z"/>
		<path class="st37" d="M280.84,23.75c-0.02,0.03-0.04,0.05-0.06,0.08c-0.01-0.01-0.02-0.03-0.04-0.04
			c0.02-0.02,0.04-0.05,0.07-0.07C280.81,23.73,280.82,23.74,280.84,23.75z"/>
		<path class="st37" d="M281.44,23.02c0.03,0,0.06,0,0.1,0.01c-0.02,0.03-0.05,0.06-0.07,0.08c-0.02-0.02-0.04-0.04-0.06-0.06
			C281.42,23.04,281.43,23.03,281.44,23.02z"/>
		<path class="st33" d="M283.81,45.07c0.02,0.02,0.05,0.05,0.07,0.07c0,0-0.01,0.01-0.01,0.01c-0.02-0.02-0.05-0.05-0.07-0.07
			L283.81,45.07z"/>
		<path class="st35" d="M279.61,41.03c0.02-0.03,0.05-0.05,0.07-0.08c0.36,0.47,0.69,0.95,1.07,1.4c0.45,0.52,0.94,0.99,1.41,1.49
			c0.08,0.09,0.14,0.21,0.21,0.31c-0.07-0.04-0.15-0.06-0.21-0.12c-0.87-0.82-1.69-1.68-2.35-2.67
			C279.74,41.26,279.68,41.15,279.61,41.03z"/>
		<path class="st36" d="M281.44,23.02c-0.01,0.01-0.02,0.02-0.03,0.03c-0.06,0.04-0.12,0.08-0.18,0.12c0.03-0.08,0.04-0.19,0.1-0.25
			c0.39-0.37,0.79-0.72,1.19-1.08c0.03-0.03,0.09-0.02,0.14-0.03c-0.06,0.08-0.11,0.17-0.18,0.24c-0.16,0.16-0.32,0.3-0.48,0.45
			c-0.02,0.02-0.05,0.05-0.07,0.07c-0.02,0.03-0.03,0.06-0.05,0.09c-0.05,0.02-0.1,0.05-0.14,0.07c-0.04,0.05-0.08,0.1-0.12,0.14
			C281.56,22.93,281.5,22.98,281.44,23.02z"/>
		<path class="st35" d="M283.01,44.52c0.03,0.07,0.05,0.14,0.08,0.2c-0.13-0.02-0.21-0.07-0.21-0.21
			C282.92,44.51,282.96,44.52,283.01,44.52z"/>
		<path class="st35" d="M282.52,44.23c0.13,0.01,0.21,0.07,0.21,0.21C282.6,44.43,282.52,44.37,282.52,44.23z"/>
		<path class="st36" d="M280.8,23.72c-0.02,0.02-0.04,0.05-0.07,0.07c0,0-0.03,0-0.03,0s-0.03,0-0.03,0
			c-0.01-0.11,0.01-0.2,0.15-0.2C280.81,23.63,280.81,23.68,280.8,23.72z"/>
		<path class="st35" d="M283.58,44.94c0.03,0.05,0.05,0.09,0.08,0.14c-0.11,0.01-0.21,0-0.21-0.14
			C283.48,44.94,283.53,44.94,283.58,44.94z"/>
		<path class="st35" d="M283.79,45.08c0.02,0.02,0.05,0.05,0.07,0.07c0,0.02,0,0.05,0,0.07c-0.11,0.01-0.21,0-0.21-0.14
			C283.7,45.08,283.74,45.08,283.79,45.08z"/>
		<path class="st35" d="M283.36,44.8c0.03,0.05,0.05,0.09,0.08,0.14c-0.11,0.01-0.2,0-0.21-0.14
			C283.27,44.8,283.32,44.8,283.36,44.8z"/>
		<path class="st36" d="M280.25,24.3c-0.01,0.04-0.01,0.08-0.02,0.13c-0.04,0.03-0.09,0.05-0.13,0.08
			C280.09,24.4,280.11,24.31,280.25,24.3z"/>
		<path class="st36" d="M279.9,24.8c-0.05,0.07-0.09,0.14-0.14,0.21C279.74,24.9,279.75,24.8,279.9,24.8z"/>
		<path class="st36" d="M279.75,25.01c-0.05,0.07-0.09,0.14-0.14,0.21C279.6,25.11,279.61,25.02,279.75,25.01z"/>
		<path class="st36" d="M279.54,25.36c-0.05,0.07-0.09,0.14-0.14,0.22C279.38,25.47,279.39,25.37,279.54,25.36z"/>
		<path class="st27" d="M277.84,29.33c-0.03,0.05-0.05,0.09-0.08,0.14c0-0.07,0.01-0.14,0.01-0.21
			C277.79,29.29,277.82,29.31,277.84,29.33z"/>
		<path class="st35" d="M282.37,44.16c0.05,0.02,0.1,0.05,0.14,0.07C282.47,44.2,282.42,44.18,282.37,44.16z"/>
		<path class="st35" d="M282.73,44.44c0.05,0.02,0.1,0.05,0.14,0.07C282.82,44.49,282.78,44.46,282.73,44.44z"/>
		<path class="st35" d="M283.08,44.72c0.05,0.02,0.1,0.05,0.14,0.07C283.18,44.77,283.13,44.75,283.08,44.72z"/>
		<path class="st36" d="M280.04,24.59c-0.03,0.05-0.05,0.09-0.08,0.14C279.99,24.68,280.01,24.63,280.04,24.59z"/>
		<path class="st36" d="M279.61,25.22c-0.03,0.05-0.05,0.09-0.08,0.14C279.56,25.32,279.59,25.27,279.61,25.22z"/>
		<path class="st35" d="M284.08,45.29c0,0.02,0,0.05,0,0.07c-0.05-0.02-0.1-0.05-0.14-0.07C283.98,45.29,284.03,45.29,284.08,45.29z
			"/>
		<path class="st36" d="M280.45,24.15l-0.03,0c0,0-0.03,0-0.03,0c0.03-0.04,0.05-0.09,0.08-0.13
			C280.46,24.06,280.45,24.1,280.45,24.15z"/>
		<path class="st36" d="M279.96,24.72c-0.02,0.03-0.04,0.05-0.07,0.08C279.92,24.77,279.94,24.75,279.96,24.72z"/>
		<path class="st36" d="M280.11,24.51c-0.02,0.02-0.04,0.05-0.07,0.07C280.06,24.56,280.08,24.54,280.11,24.51z"/>
		<path class="st36" d="M280.32,24.23c-0.02,0.02-0.05,0.05-0.07,0.07C280.27,24.28,280.29,24.25,280.32,24.23z"/>
		<path class="st36" d="M280.38,24.15c-0.02,0.02-0.04,0.05-0.06,0.07C280.34,24.2,280.36,24.18,280.38,24.15z"/>
		<path class="st36" d="M280.53,23.95c-0.02,0.02-0.05,0.05-0.07,0.07C280.49,23.99,280.51,23.97,280.53,23.95z"/>
		<path class="st36" d="M280.89,23.52c-0.02,0.02-0.05,0.05-0.07,0.07C280.84,23.57,280.86,23.54,280.89,23.52z"/>
		<path class="st36" d="M281.09,23.3c-0.02,0.02-0.05,0.05-0.07,0.07C281.05,23.35,281.07,23.33,281.09,23.3z"/>
		<path class="st36" d="M280.67,23.8c-0.02,0.02-0.04,0.05-0.07,0.07C280.62,23.85,280.64,23.82,280.67,23.8z"/>
		<path class="st36" d="M280.6,23.87c-0.02,0.02-0.04,0.05-0.07,0.07C280.55,23.92,280.58,23.9,280.6,23.87z"/>
		<path class="st36" d="M280.96,23.45c-0.02,0.02-0.05,0.05-0.07,0.07C280.91,23.5,280.93,23.47,280.96,23.45z"/>
		<path class="st36" d="M281.17,23.23c-0.03,0.03-0.05,0.05-0.08,0.08C281.12,23.28,281.15,23.25,281.17,23.23z"/>
		<path class="st35" d="M283.86,45.22c0.02,0.02,0.05,0.05,0.07,0.07C283.91,45.27,283.89,45.24,283.86,45.22z"/>
		<path class="st36" d="M281.03,23.38c-0.02,0.02-0.05,0.05-0.07,0.07C280.98,23.42,281,23.4,281.03,23.38z"/>
	</g>
</g>
</svg>
