<svg xmlns="http://www.w3.org/2000/svg" width="252" height="200" viewBox="0 0 252 200">
  <g id="Get_your_final_delivery" data-name="Get your final delivery" transform="translate(-1030 -3863)">
    <g id="deliveries_131a" transform="translate(1032.271 3818.5)">
      <ellipse id="Ellipse_120" data-name="Ellipse 120" cx="123.365" cy="5.688" rx="123.365" ry="5.688" transform="translate(0 223.325)" fill="#141414"/>
      <path id="Path_1235" data-name="Path 1235" d="M802.3,664.151s3.006-.081,3.9-.731,4.6-1.408,4.848-.379,4.523,5.146,1.11,5.173-7.881-.542-8.775-1.083S802.3,664.151,802.3,664.151Z" transform="translate(-585.01 -438.984)" fill="#656380"/>
      <path id="Path_1236" data-name="Path 1236" d="M812.24,672.11c-3.385.027-7.881-.542-8.775-1.083-.677-.406-.948-1.923-1.056-2.627H802.3s.19,2.41,1.083,2.979,5.39,1.11,8.775,1.083c.975,0,1.327-.352,1.3-.867C813.323,671.894,812.971,672.11,812.24,672.11Z" transform="translate(-585.01 -443.26)" opacity="0.2"/>
      <path id="Path_1237" data-name="Path 1237" d="M248.179,550.25l-35.75,7.312-.813-.081L180.2,554.313V514.5l38.458-6.5,27.9,3.25.027.162v.081Z" transform="translate(-131.396 -326.302)" fill="#038d08"/>
      <path id="Path_1238" data-name="Path 1238" d="M332.763,559.437l-35.75,7.313-.812-.081V525.854l34.965-5.254Z" transform="translate(-215.979 -335.49)" opacity="0.1"/>
      <path id="Path_1239" data-name="Path 1239" d="M246.581,511.494l-.027.027-34.937,5.146L180.2,514.5l38.458-6.5,27.9,3.25.027.162Z" transform="translate(-131.396 -326.302)" opacity="0.05"/>
      <path id="Path_1240" data-name="Path 1240" d="M393.179,556.25l-35.75,7.313-.812-.081L325.2,560.313V520.5l38.458-6.5,27.9,3.25.027.162v.081Z" transform="translate(-237.125 -330.677)" fill="#141414"/>
      <path id="Path_1241" data-name="Path 1241" d="M477.762,565.437l-35.75,7.313-.812-.081V531.854l34.965-5.254Z" transform="translate(-321.708 -339.865)" fill="#2d2d2d" opacity="0.79"/>
      <path id="Path_1242" data-name="Path 1242" d="M391.581,517.494l-.027.027-34.938,5.146L325.2,520.5l38.458-6.5,27.9,3.25.027.162Z" transform="translate(-237.125 -330.677)" opacity="0.05"/>
      <path id="Path_1243" data-name="Path 1243" d="M302.179,412.25l-35.75,7.312-.812-.081L234.2,416.312V376.5l38.458-6.5,27.9,3.25.027.163v.081Z" transform="translate(-170.771 -225.677)" fill="#141414"/>
      <path id="Path_1244" data-name="Path 1244" d="M386.762,421.438l-35.75,7.313-.813-.081V387.854l34.965-5.254Z" transform="translate(-255.354 -234.865)" fill="#2d2d2d" opacity="0.79"/>
      <path id="Path_1245" data-name="Path 1245" d="M300.581,373.494l-.027.027-34.937,5.146L234.2,376.5l38.458-6.5,27.9,3.25.027.163Z" transform="translate(-170.771 -225.677)" opacity="0.05"/>
      <path id="Path_1246" data-name="Path 1246" d="M464.679,472.746l-18.66,3.819-.406-.054L429.2,474.858V454.085l20.069-3.385,14.571,1.706v.135Z" transform="translate(-312.958 -284.521)" fill="#141414"/>
      <path id="Path_1247" data-name="Path 1247" d="M508.867,477.558l-18.66,3.819-.406-.054V460.035l18.227-2.735Z" transform="translate(-357.146 -289.333)" fill="#2d2d2d" opacity="0.62"/>
      <path id="Path_1248" data-name="Path 1248" d="M463.84,452.542h0l-18.227,2.681L429.2,454.085l20.069-3.385,14.571,1.706v.135Z" transform="translate(-312.958 -284.521)" opacity="0.05"/>
      <path id="Path_1249" data-name="Path 1249" d="M279.679,323.746l-18.66,3.819-.406-.027L244.2,325.858V305.085l20.069-3.385,14.571,1.706v.135Z" transform="translate(-178.062 -175.875)" fill="#141414"/>
      <path id="Path_1250" data-name="Path 1250" d="M323.867,328.558l-18.66,3.819-.406-.027V311.035l18.227-2.735Z" transform="translate(-222.25 -180.687)" fill="#2d2d2d" opacity="0.79"/>
      <path id="Path_1251" data-name="Path 1251" d="M278.84,303.542h0l-18.227,2.681L244.2,305.085l20.069-3.385,14.571,1.706v.135Z" transform="translate(-178.062 -175.875)" opacity="0.05"/>
      <path id="Path_1252" data-name="Path 1252" d="M400.679,320.746l-18.66,3.819-.406-.027L365.2,322.858V302.085l20.069-3.385,14.571,1.706v.135Z" transform="translate(-266.292 -173.687)" fill="#038d08"/>
      <path id="Path_1253" data-name="Path 1253" d="M444.867,325.558l-18.66,3.819-.406-.027V308.035l18.227-2.735Z" transform="translate(-310.479 -178.5)" opacity="0.1"/>
      <path id="Path_1254" data-name="Path 1254" d="M399.84,300.542h0l-18.227,2.681L365.2,302.085l20.069-3.385,14.571,1.706v.135Z" transform="translate(-266.292 -173.687)" opacity="0.05"/>
      <path id="Path_1255" data-name="Path 1255" d="M436.679,243.746l-18.66,3.819-.406-.027L401.2,245.858V225.085l20.069-3.385,14.571,1.706v.135Z" transform="translate(-292.542 -117.542)" fill="#141414"/>
      <path id="Path_1256" data-name="Path 1256" d="M480.867,248.558l-18.66,3.819-.406-.027V231.035l18.227-2.735Z" transform="translate(-336.729 -122.354)" fill="#2d2d2d" opacity="0.79"/>
      <path id="Path_1257" data-name="Path 1257" d="M435.84,223.542h0l-18.227,2.681L401.2,225.085l20.069-3.385,14.571,1.706v.135Z" transform="translate(-292.542 -117.542)" opacity="0.05"/>
      <path id="Path_1258" data-name="Path 1258" d="M573.037,131.372c-.19,1.76-1.544,3.169-2.031,4.875-.758,2.573.542,5.308,2.329,7.313A16.117,16.117,0,0,0,584.6,148.9a4.857,4.857,0,0,0,1.869-.217,3.664,3.664,0,0,0,1.408-.975,9.038,9.038,0,0,0,2.329-5.065,26.352,26.352,0,0,0,.054-5.66,3.263,3.263,0,0,0-.217-1.137,2.947,2.947,0,0,0-.731-.894,16.627,16.627,0,0,0-3.169-2.3,3.746,3.746,0,0,1-1.327-1,3.244,3.244,0,0,1-.406-1.219l-.352-1.788a3.393,3.393,0,0,0-.515-1.435,3.454,3.454,0,0,0-2.817-.975l-3.792-.163a18.637,18.637,0,0,0-3.873-.162c-1.083.217-.731,1.192-.515,2.113A14.16,14.16,0,0,1,573.037,131.372Z" transform="translate(-416.198 -47.635)" fill="#ffc0c6"/>
      <path id="Path_1259" data-name="Path 1259" d="M573.037,131.372c-.19,1.76-1.544,3.169-2.031,4.875-.758,2.573.542,5.308,2.329,7.313A16.117,16.117,0,0,0,584.6,148.9a4.857,4.857,0,0,0,1.869-.217,3.664,3.664,0,0,0,1.408-.975,9.038,9.038,0,0,0,2.329-5.065,26.352,26.352,0,0,0,.054-5.66,3.263,3.263,0,0,0-.217-1.137,2.947,2.947,0,0,0-.731-.894,16.627,16.627,0,0,0-3.169-2.3,3.746,3.746,0,0,1-1.327-1,3.244,3.244,0,0,1-.406-1.219l-.352-1.788a3.393,3.393,0,0,0-.515-1.435,3.454,3.454,0,0,0-2.817-.975l-3.792-.163a18.637,18.637,0,0,0-3.873-.162c-1.083.217-.731,1.192-.515,2.113A14.16,14.16,0,0,1,573.037,131.372Z" transform="translate(-416.198 -47.635)" opacity="0.1"/>
      <path id="Path_1260" data-name="Path 1260" d="M615.049,415.508l-1.6,17.631c-.406,4.631-.84,9.263-1.679,13.84-.271,1.571-.623,3.142-1,4.685-1.11,4.306-2.708,8.531-3.2,12.946-.027.135-.027.271-.054.379a11.446,11.446,0,0,1-.542,2.871c-.271.677-.65,1.3-.921,1.95a13.21,13.21,0,0,0-.7,4.252,18.016,18.016,0,0,0-6.31-2.167,4.715,4.715,0,0,1-2.979-1.083c-.812-.894-.731-2.248-.6-3.412.433-3.683.84-7.367,1.273-11.05a27.819,27.819,0,0,1,.813-4.685c.135-.515.325-1.029.488-1.517.244-.7.487-1.381.677-2.112a24.938,24.938,0,0,0,.542-3.467c.433-3.71.948-7.394,1.435-11.1l.027-.19a113.764,113.764,0,0,0,1.056-16.9c-.027-.84-.054-1.679-.108-2.519-.081-1.219-.19-1.869.813-2.627a18.436,18.436,0,0,1,3.846-1.977c.677-.3,8.233-2.979,8.4-2.383a14.182,14.182,0,0,1,.542,3.846A35.1,35.1,0,0,1,615.049,415.508Z" transform="translate(-434.132 -252.497)" fill="#141414"/>
      <path id="Path_1261" data-name="Path 1261" d="M618.931,518.231c-.271,1.571-.623,3.142-1,4.685-1.11,4.306-2.708,8.531-3.2,12.946-.027.135-.027.271-.054.379-3.358-4.794-6.2-9.967-9.479-14.842.244-.7.488-1.381.677-2.112a25.409,25.409,0,0,0,.569-3.494c.433-3.71.948-7.394,1.435-11.1l.027-.19a11.384,11.384,0,0,0,.813,2.275c2.194,4.469,7.448,6.744,9.994,11.023C618.8,517.987,618.877,518.123,618.931,518.231Z" transform="translate(-441.292 -323.75)" opacity="0.1"/>
      <path id="Path_1262" data-name="Path 1262" d="M555.156,351.077a78.973,78.973,0,0,0,1.273,10.7l1.192,7.313c.65,4.008,1.327,8.1,3.223,11.673a54.242,54.242,0,0,0,5.308,7.394c4.55,5.931,7.962,12.621,12.269,18.715,1.246,1.76,3.033,3.683,5.173,3.331,1.408-.244,2.41-1.408,3.521-2.3,1.3-1.056,2.871-1.842,3.9-3.169s1.219-3.548-.162-4.5a8.239,8.239,0,0,0-1.6-.65c-2.14-.812-3.548-2.925-4.415-5.037s-1.435-4.415-2.6-6.365c-2.573-4.279-7.8-6.554-10.021-11.023-1.246-2.519-1.354-5.417-1.435-8.206l-.244-7.123a5.054,5.054,0,0,1,.271-2.3c.84-1.9,3.385-2.085,5.444-2.3a18.4,18.4,0,0,0,6.69-2.112,6.925,6.925,0,0,0,2.979-2.654,8.923,8.923,0,0,0,.731-3.6l.7-12.919a8.438,8.438,0,0,0-.271-3.3c-.975-2.627-4.279-3.467-7.069-3.358-5.2.244-9.994,2.465-14.9,3.981a35,35,0,0,1-3.683.948,28.867,28.867,0,0,0-3.467.487c-1.869.623-1.815,4.713-2.085,6.392A49.544,49.544,0,0,0,555.156,351.077Z" transform="translate(-404.789 -195.975)" fill="#141414"/>
      <path id="Path_1263" data-name="Path 1263" d="M654.718,607.693a3.406,3.406,0,0,1,.731,1.788,62.319,62.319,0,0,1,1.029,10.752,1.755,1.755,0,0,0,.19.975,1.084,1.084,0,0,0,.515.406c1.327.623,2.871-.244,3.954-1.219,2.031-1.788,3.765-4.2,3.9-6.906a13.31,13.31,0,0,1,.081-2.085,9.186,9.186,0,0,1,1.3-2.817,24.081,24.081,0,0,0,2.167-4.821c.19-.623.325-1.435-.162-1.869a1.544,1.544,0,0,0-.6-.3l-5.985-2.221c-.515-.19-1.815,3.115-2,3.494a2.735,2.735,0,0,1-2,1.6c-1,.217-2.248-.081-3.2.406C652.985,605.716,653.8,606.772,654.718,607.693Z" transform="translate(-476.645 -392.927)" fill="#2d2d2d"/>
      <path id="Path_1264" data-name="Path 1264" d="M605.1,634.91a1.855,1.855,0,0,0-.461-.569,2.207,2.207,0,0,0-.921-.325c-1.138-.19-2.492-.325-3.277.515-.731.785-.623,2.085-1.219,2.979a9.236,9.236,0,0,0-.623.813,3,3,0,0,0-.271,1.462c-.027,1.381-.054,2.763.027,4.144a5.779,5.779,0,0,0,1,3.277c1.165,1.463,3.25,1.652,5.092,1.76l1.49.081a3.068,3.068,0,0,0,1.219-.108,1.951,1.951,0,0,0,1.056-1.165c.785-1.95-.46-4.035-1.219-5.985C606.154,639.514,606.317,637.022,605.1,634.91Z" transform="translate(-436.26 -418.085)" fill="#2d2d2d"/>
      <path id="Path_1265" data-name="Path 1265" d="M563.6,81.017a1.012,1.012,0,0,1,.081-.569c.217-.379.785-.271,1.219-.162,1.733.433,3.575.027,5.363.135s3.819,1,4.171,2.762a12.775,12.775,0,0,0,3.3-3.412,4.276,4.276,0,0,0,.867-2.492c-.108-1.3-1.165-2.248-2.167-3.06l-2.979-2.437a4.246,4.246,0,0,0-1.327-.84,6.418,6.418,0,0,0-2.167-.108c-2.167,0-4.5-.975-6.419,0a7.1,7.1,0,0,0-2,1.815l-2.654,3.142a1.813,1.813,0,0,0-.433.731,3.611,3.611,0,0,0,.19,1.165c.135.7-.19,1.463.054,2.14.379,1.11,1.76,1.273,2.573,1.923.3.244.785,1.056,1.165,1.056C563.137,82.723,563.6,81.531,563.6,81.017Z" transform="translate(-407.191 -7.219)" fill="#141414"/>
      <circle id="Ellipse_121" data-name="Ellipse 121" cx="8.531" cy="8.531" r="8.531" transform="translate(152.398 66.052)" fill="#ffc0c6"/>
      <path id="Path_1266" data-name="Path 1266" d="M546.329,156.719a4.115,4.115,0,0,0-4.008-2.762.987.987,0,0,1-.731-.108.814.814,0,0,1-.3-.379,15.828,15.828,0,0,1-1.246-2.952c-.135-.46-.325-.975-.785-1.11a1.011,1.011,0,0,0-1,.433c-.217.3-.46.6-.7.894-1.083.948-2.979.081-4.117.975-.19.135-.352.325-.542.46a2.555,2.555,0,0,1-.623.271,62.709,62.709,0,0,0-6.473,2.519c.758,4.55,1.544,9.208,3.3,13.488.84,2.031,1.815,4.035,2.492,6.121,1.49,4.631,1.571,9.615,1.571,14.49,0,3.331,0,6.744-1.083,9.913a10.372,10.372,0,0,0-.623,2.167,2.286,2.286,0,0,0,.758,2.031,2.321,2.321,0,0,0,1.165.406,15.242,15.242,0,0,0,5.606-.65c4.929-1.138,9.967-1.788,15-2.437l8.423-1.083a4.842,4.842,0,0,0,1.733-.46c1.544-.84,1.679-3.169.731-4.631-.46-.7-1.11-1.3-1.49-2.031a1.9,1.9,0,0,1,.244-2.3c1.354-1.056.948-3.006,1-4.74.19-4.794.162-9.56-.081-14.354a27.358,27.358,0,0,1-.054-2.979,26.434,26.434,0,0,1,.921-4.983L568,152.846a5.248,5.248,0,0,0-3.169-2.031c-1.219-.3-2.465-.406-3.656-.758-2.437-.758-4.631-2.681-7.177-2.492a1.455,1.455,0,0,0-.569.135c-.569.325-.487,1.165-.515,1.815a5.052,5.052,0,0,1-2.356,3.548,42.645,42.645,0,0,0-3.629,2.465A1.7,1.7,0,0,0,546.329,156.719Z" transform="translate(-383.396 -63.475)" fill="#d0cde1"/>
      <path id="Path_1267" data-name="Path 1267" d="M464.648,208.11a9.311,9.311,0,0,1-1.787.921,6.26,6.26,0,0,0-1.706.84,3.07,3.07,0,0,0-.6.731,3.286,3.286,0,0,0,1.246,4.469,3.168,3.168,0,0,0,1.788.406,6.161,6.161,0,0,0,2.248-.677l6.013-2.627a4.658,4.658,0,0,0,2.6-1.95.4.4,0,0,0,.054-.3.593.593,0,0,0-.244-.271,13.53,13.53,0,0,1-3.494-3.3c-.244-.325-.542-1.138-.894-1.327C468.548,204.319,465.678,207.433,464.648,208.11Z" transform="translate(-335.515 -105.306)" fill="#ffc0c6"/>
      <path id="Path_1268" data-name="Path 1268" d="M675.6,208.8l2.221,2.546a20.674,20.674,0,0,1,1.381,1.679,19.853,19.853,0,0,1,2.546,4.794,8.026,8.026,0,0,1,.7,3.954,10.447,10.447,0,0,1-.542,2,25.037,25.037,0,0,1-1.517,3.629,19.677,19.677,0,0,1-1.679,2.546,60.373,60.373,0,0,1-5.633,6.446,7.39,7.39,0,0,0-1.408,2.979,12.551,12.551,0,0,1-3.467,4.712,9.5,9.5,0,0,1-1.49,1.273,4.829,4.829,0,0,1-2.708.758,3.158,3.158,0,0,1-1.219-.244,3.208,3.208,0,0,1-1.544-2.627,5.95,5.95,0,0,1,.46-2.817c1.273-2.817,4.55-4.035,6.852-6.094a22.427,22.427,0,0,0,3.413-4.225,14.645,14.645,0,0,0,1.733-3.033c.515-1.381.325-3.006.758-4.415.19-.6.542-1.138.731-1.706a1.979,1.979,0,0,0-.108-1.788,2.666,2.666,0,0,0-1-.731c-1.49-.758-3.115-1.706-3.412-3.358a3.7,3.7,0,0,1,.65-2.546,10.627,10.627,0,0,1,1.869-1.95C673.866,210.019,674.949,209.369,675.6,208.8Z" transform="translate(-482.143 -108.135)" fill="#ffc0c6"/>
      <path id="Path_1269" data-name="Path 1269" d="M443.817,223.648a4.211,4.211,0,0,0-1.679-2,3.169,3.169,0,0,0-2.437,0,8.7,8.7,0,0,0-2.14,1.3l-1.923,1.408a5.277,5.277,0,0,0-1.138,1.056,4.359,4.359,0,0,0-.6,1.625,11.815,11.815,0,0,0-.3,4.008,11.349,11.349,0,0,0,3.033,5.688A5.1,5.1,0,0,0,440,238.842a1.522,1.522,0,0,0,1.49-.758,1.886,1.886,0,0,0,.135-.677,14.913,14.913,0,0,0-1.706-6.933,4.245,4.245,0,0,1-.542-1.869.721.721,0,0,1,.081-.325.618.618,0,0,1,.325-.163c1.381-.271,3.737.785,4.712-.731C445.117,226.41,444.278,224.542,443.817,223.648Z" transform="translate(-316.119 -117.323)" fill="#ffc0c6"/>
      <path id="Path_1270" data-name="Path 1270" d="M562,71.117a1.011,1.011,0,0,1,.081-.569c.217-.379.785-.271,1.219-.162,1.733.433,3.575.027,5.362.135s3.819,1,4.171,2.762a13.2,13.2,0,0,0,3.3-3.413A4.275,4.275,0,0,0,577,67.379c-.108-1.3-1.192-2.248-2.167-3.06l-2.979-2.437a4.247,4.247,0,0,0-1.327-.84,6.418,6.418,0,0,0-2.167-.108c-2.167,0-4.5-.975-6.419,0a7.1,7.1,0,0,0-2,1.815l-2.654,3.142a1.815,1.815,0,0,0-.433.731,3.611,3.611,0,0,0,.19,1.165c.135.7-.19,1.463.054,2.14.379,1.11,1.76,1.273,2.573,1.923.3.244.785,1.056,1.165,1.056C561.51,72.823,561.97,71.631,562,71.117Z" transform="translate(-406.024 0)" fill="#141414"/>
      <path id="Path_1271" data-name="Path 1271" d="M496.677,178.291a3.3,3.3,0,0,0-.894.84c-.325.487-.379,1.083-.65,1.571-.569,1.056-1.923,1.462-2.763,2.329a.732.732,0,0,0-.271.46,1.1,1.1,0,0,0,.217.65l4.035,6.365c1.354.108,2.627-.731,3.981-.623a3.963,3.963,0,0,0,1.49.054,3.75,3.75,0,0,0,.948-.6c.812-.515,1.869-.569,2.546-1.246a3.456,3.456,0,0,0,.731-2.573,11.6,11.6,0,0,0-.244-2.356c-.6-2.437-2.465-4.306-3.629-6.473-.569-1.056-.894-1.679-2.085-.948S497.815,177.479,496.677,178.291Z" transform="translate(-358.823 -83.802)" fill="#d0cde1"/>
      <path id="Path_1272" data-name="Path 1272" d="M671.8,168.313a9.089,9.089,0,0,1,2.031,1.788c.623.785.975,1.76,1.571,2.573a24.847,24.847,0,0,0,2,2.113,15.775,15.775,0,0,1,2.3,3.765,56.95,56.95,0,0,1-5.227,5.9,1.662,1.662,0,0,1-.785.515,1.245,1.245,0,0,1-1.11-.46c-.3-.3-.487-.677-.785-1a3.94,3.94,0,0,0-2.465-1.192,16,16,0,0,0-2.79-.027.911.911,0,0,1-.6-.108,1.1,1.1,0,0,1-.325-.379c-1.083-1.869-.758-4.2-.352-6.337l.894-4.875a11.789,11.789,0,0,1,.731-2.708c.325-.7,1.083-1.923,2-1.733S671.012,167.745,671.8,168.313Z" transform="translate(-484.814 -77.02)" fill="#d0cde1"/>
      <path id="Path_1273" data-name="Path 1273" d="M309.679,246.746l-18.66,3.819-.406-.027L274.2,248.858V228.085l20.069-3.385,14.571,1.706v.135Z" transform="translate(-199.938 -119.729)" fill="#038d08"/>
      <path id="Path_1274" data-name="Path 1274" d="M353.867,251.558l-18.66,3.819-.406-.027V234.035l18.227-2.735Z" transform="translate(-244.125 -124.542)" opacity="0.1"/>
      <path id="Path_1275" data-name="Path 1275" d="M308.84,226.542h0l-18.227,2.681L274.2,228.085l20.069-3.385,14.571,1.706v.135Z" transform="translate(-199.938 -119.729)" opacity="0.05"/>
      <path id="Path_1276" data-name="Path 1276" d="M345.679,170.746l-18.66,3.819-.406-.027L310.2,172.858V152.085l20.069-3.385,14.571,1.706v.135Z" transform="translate(-226.188 -64.312)" fill="#141414"/>
      <path id="Path_1277" data-name="Path 1277" d="M389.867,175.558l-18.66,3.819-.406-.027V158.035l18.227-2.735Z" transform="translate(-270.375 -69.125)" fill="#2d2d2d" opacity="0.79"/>
      <path id="Path_1278" data-name="Path 1278" d="M344.84,150.542h0l-18.227,2.681L310.2,152.085l20.069-3.385,14.571,1.706v.135Z" transform="translate(-226.188 -64.312)" opacity="0.05"/>
    </g>
    <rect id="Rectangle_364" data-name="Rectangle 364" width="252" height="200" transform="translate(1030 3863)" fill="none"/>
  </g>
</svg>
