<svg xmlns="http://www.w3.org/2000/svg" width="317" height="195" viewBox="0 0 317 195">
  <g id="Group_216" data-name="Group 216" transform="translate(-261 -1972)">
    <g id="Group_67" data-name="Group 67" transform="translate(310 1994.926)">
      <rect id="Rectangle_178" data-name="Rectangle 178" width="84.185" height="0.582" transform="translate(139.321 168.164)" fill="#141414"/>
      <path id="Path_557" data-name="Path 557" d="M672.96,637.769l-9.133-1.432,3.761-3.94h5.372Z" transform="translate(-491.361 -468.098)" fill="#a0616a"/>
      <path id="Path_558" data-name="Path 558" d="M832.929,761.269l-9.034-2.972a1.757,1.757,0,0,1-1.023-2.455h0a1.757,1.757,0,0,1,1.69-.967l2.049.138.8-.452a.467.467,0,0,1,.661.585l-.741,1.8,7.521-.537.371,2.969a1.762,1.762,0,0,1-2.3,1.892Z" transform="translate(-653.079 -589.423)" fill="#2d2d2d"/>
      <path id="Path_559" data-name="Path 559" d="M937.492,734.965,928,737.472c1.748-3.626,2.825-6.835,2.149-8.954l4.477-.537Z" transform="translate(-731.032 -569.792)" fill="#a0616a"/>
      <path id="Path_560" data-name="Path 560" d="M928.794,751.7l-9.82.637a1.818,1.818,0,0,1-1.93-1.962h0a1.818,1.818,0,0,1,1.249-1.581l2.021-.659.6-.744a.483.483,0,0,1,.861.306l-.016,2.013,7.013-3.421,1.5,2.707a1.823,1.823,0,0,1-1.476,2.7Z" transform="translate(-722.917 -583.342)" fill="#2d2d2d"/>
      <circle id="Ellipse_89" data-name="Ellipse 89" cx="6.626" cy="6.626" r="6.626" transform="translate(168.17 41.616)" fill="#a0616a"/>
      <path id="Path_561" data-name="Path 561" d="M848,316.171l-7.659,5.791c-1.238-4.726-2.724-8.1-4.67-8.967l7.659-4.483Z" transform="translate(-662.687 -259.303)" fill="#a0616a"/>
      <path id="Path_562" data-name="Path 562" d="M684.9,439.621l-6.538,2.8-15.131-35.68-1.214,39.7-6.538-.374-7.285-62.207.56-3.549,24.752,5.511.374,19.988Z" transform="translate(-479.789 -281.504)" fill="#141414"/>
      <path id="Path_563" data-name="Path 563" d="M812.837,278.763s4.3-3.923,5.6-2.242,1.681,2.055,2.428,2.055,2.615,2.055,2.615,2.055.934-1.868,2.055-.374a8.336,8.336,0,0,1,1.308,3.736s4.11-9.527-3.176-11.4S811.156,276.521,812.837,278.763Z" transform="translate(-645.554 -232.45)" fill="#141414"/>
      <path id="Path_564" data-name="Path 564" d="M854.133,380.447c-3.549-1.554-3.654-.334-8.78,1.681-6.456.8-10.56.9-12.609-1.775-.839-5.318-1.526-10.418-1.95-15.268q-.132-1.5-.228-2.968c-.747-11.408.168-21.326,4.326-29.306l7.472-5.6,2.438,1.769c5.823,4.226,4.917,10.717,5.69,17.87Z" transform="translate(-658.735 -273.141)" fill="#d0cde1"/>
      <path id="Path_565" data-name="Path 565" d="M653.914,387.4l-3.923-3.363.374-3.362h3.549Z" transform="translate(-481.12 -281.77)" fill="#a0616a"/>
      <path id="Path_566" data-name="Path 566" d="M848.762,395.874s11.036,14.384,3.153,20.922-12.292,10.648-12.292,10.648S840.09,399.236,848.762,395.874Z" transform="translate(-665.615 -323.968)" opacity="0.08"/>
      <path id="Path_567" data-name="Path 567" d="M838.274,400.146l-6.807,5.655q-.132-1.5-.228-2.968l4.607-20.62Z" transform="translate(-659.409 -313.856)" opacity="0.08"/>
      <path id="Path_568" data-name="Path 568" d="M823.828,388.416l-5.417-4.3,7.1-17.933.161-18.693a4.256,4.256,0,0,1,2.83-3.974h0a4.256,4.256,0,0,1,5.682,3.953l.293,21.7Z" transform="translate(-649.914 -285.033)" fill="#d0cde1"/>
      <path id="Path_569" data-name="Path 569" d="M169.859,285.03V152.33a2.18,2.18,0,0,1,2.178-2.178H293.7a2.18,2.18,0,0,1,2.178,2.178v132.7a2.18,2.18,0,0,1-2.178,2.178H172.037A2.18,2.18,0,0,1,169.859,285.03Zm2.178-134.006a1.308,1.308,0,0,0-1.307,1.307v132.7a1.308,1.308,0,0,0,1.307,1.307H293.7a1.308,1.308,0,0,0,1.307-1.307V152.33a1.308,1.308,0,0,0-1.307-1.307Z" transform="translate(-169.859 -142.086)" fill="#e6e6e6"/>
      <path id="Path_40" data-name="Path 40" d="M367.331,202.12a1.727,1.727,0,1,1,0,3.453h-43.29a1.727,1.727,0,1,1-.057-3.453h43.347Z" transform="translate(-282.684 -180.552)" fill="#141414"/>
      <path id="Path_570" data-name="Path 570" d="M283.794,199.987a.34.34,0,0,1,0,.48l-1.458,1.458h3.6a.34.34,0,1,1,0,.679h-3.6l1.458,1.459a.34.34,0,0,1-.48.48l-2.038-2.038a.34.34,0,0,1,0-.48l2.038-2.038A.34.34,0,0,1,283.794,199.987Z" transform="translate(-252.255 -178.9)" fill="#e6e6e6"/>
      <path id="Path_571" data-name="Path 571" d="M526.465,199.987a.34.34,0,0,0,0,.48l1.458,1.458h-3.6a.34.34,0,1,0,0,.68h3.6l-1.458,1.458a.34.34,0,1,0,.48.48l2.039-2.038a.34.34,0,0,0,0-.48l-2.039-2.038A.34.34,0,0,0,526.465,199.987Z" transform="translate(-431.983 -178.9)" fill="#e6e6e6"/>
      <path id="Path_572" data-name="Path 572" d="M302.154,588.1a6.193,6.193,0,0,0,0,12.385h48.112a6.193,6.193,0,0,0,0-12.385Z" transform="translate(-263.199 -466.254)" fill="#e6e6e6"/>
      <path id="Path_573" data-name="Path 573" d="M608.962,129.055a9.952,9.952,0,1,1,9.952,9.952,9.952,9.952,0,0,1-9.952-9.952Z" transform="translate(-494.881 -119.104)" fill="#038d08"/>
      <path id="Path_574" data-name="Path 574" d="M629.356,142.442H632.3V139.5a.982.982,0,1,1,1.963,0v2.945h2.945a.982.982,0,1,1,0,1.963h-2.945v2.945a.982.982,0,0,1-1.963,0v-2.945h-2.945a.982.982,0,1,1,0-1.963Z" transform="translate(-509.25 -133.473)" fill="#fff"/>
      <rect id="Rectangle_179" data-name="Rectangle 179" width="91.827" height="0.581" transform="matrix(0.773, -0.634, 0.634, 0.773, 33.067, 100.47)" fill="#e6e6e6"/>
      <rect id="Rectangle_180" data-name="Rectangle 180" width="0.581" height="92.012" transform="matrix(0.636, -0.772, 0.772, 0.636, 33.076, 42.706)" fill="#e6e6e6"/>
      <path id="Path_575" data-name="Path 575" d="M293.359,336.757V280.715a2.035,2.035,0,0,1,2.033-2.033H364.5a2.035,2.035,0,0,1,2.033,2.033v56.042a2.035,2.035,0,0,1-2.033,2.033H295.392A2.035,2.035,0,0,1,293.359,336.757Zm2.033-57.493a1.454,1.454,0,0,0-1.452,1.452v56.042a1.454,1.454,0,0,0,1.452,1.452H364.5a1.454,1.454,0,0,0,1.452-1.452V280.715a1.454,1.454,0,0,0-1.452-1.452Z" transform="translate(-261.273 -237.224)" fill="#3f3d56"/>
      <path id="Path_576" data-name="Path 576" d="M249.771,375.875V319.833A2.035,2.035,0,0,1,251.8,317.8h69.108a2.035,2.035,0,0,1,2.033,2.033v56.042a2.035,2.035,0,0,1-2.033,2.033H251.8A2.035,2.035,0,0,1,249.771,375.875Z" transform="translate(-229.009 -266.178)" fill="#038d08"/>
      <path id="Path_577" data-name="Path 577" d="M360.247,412h35.282a.72.72,0,0,0,.132-.01l-16.687-28.9a1.168,1.168,0,0,0-2.034,0l-11.2,19.4-.536.928Z" transform="translate(-310.783 -314.062)" fill="#fff"/>
      <path id="Path_578" data-name="Path 578" d="M190.389,349.845h12.046l-5.913-8.589-.426-.619-.213-.309-.536.928Z" transform="translate(-140.925 -251.91)" opacity="0.2"/>
      <path id="Path_579" data-name="Path 579" d="M284.634,436.267H315.15l-5.913-8.589-.426-.619-7.706-11.194a1.559,1.559,0,0,0-2.314-.138,1.4,1.4,0,0,0-.111.138Z" transform="translate(-254.815 -338.332)" fill="#fff"/>
      <circle id="Ellipse_90" data-name="Ellipse 90" cx="5.227" cy="5.227" r="5.227" transform="translate(47.592 65.414)" fill="#fff"/>
      <rect id="Rectangle_181" data-name="Rectangle 181" width="6.388" height="6.388" transform="translate(90.16 62.075) rotate(180)" fill="#141414"/>
    </g>
    <rect id="Rectangle_354" data-name="Rectangle 354" width="317" height="195" transform="translate(261 1972)" fill="none"/>
  </g>
</svg>
