<svg xmlns="http://www.w3.org/2000/svg" width="317" height="195" viewBox="0 0 317 195">
  <g id="Group_215" data-name="Group 215" transform="translate(-1350 -1458)">
    <g id="social_design_notes_8dmv" data-name="social design_notes_8dmv" transform="translate(1381.116 1473)">
      <ellipse id="Ellipse_112" data-name="Ellipse 112" cx="26.602" cy="5.524" rx="26.602" ry="5.524" transform="translate(0.092 168.916)" fill="#e6e6e6"/>
      <ellipse id="Ellipse_113" data-name="Ellipse 113" cx="9.171" cy="8.591" rx="9.171" ry="8.591" transform="translate(6.037 31.072)" fill="#141414"/>
      <path id="Path_1220" data-name="Path 1220" d="M296.826,461.514l2.322,3.25s11.144,2.322,6.965,5.8-10.216-3.25-10.216-3.25l-3.251-4.179Z" transform="translate(-254.918 -368.335)" fill="#ffb8b8"/>
      <path id="Path_1221" data-name="Path 1221" d="M257.36,327.81s3.018,0,3.715,4.179,1.393,18.11,1.393,18.11,9.751,12.77,8.126,14.395-3.482,4.643-4.643,4.179-11.144-14.163-11.144-14.163Z" transform="translate(-227.525 -271.547)" fill="#d0cde1"/>
      <path id="Path_1222" data-name="Path 1222" d="M200.592,284.923s.232,9.055,3.018,9.519,1.857,3.483,1.857,3.483-9.055,5.34-15.091,0l-1.161-2.786s4.179-3.018,2.322-7.2Z" transform="translate(-180.044 -240.501)" fill="#ffb8b8"/>
      <path id="Path_1223" data-name="Path 1223" d="M221.627,486.741s13.7,25.539,8.59,33.433-12.77,24.147-13.931,24.147-7.662-3.25-7.2-5.34,7.43-17.645,9.287-19.039.929-5.108.7-5.34-7.894-12.538-7.894-12.538.232,19.5-.7,22.521.232,24.611-.929,25.539-6.5,2.554-7.43,1.161-3.715-22.521-1.857-27.4l-3.483-33.434Z" transform="translate(-185.523 -386.596)" fill="#141414"/>
      <path id="Path_1224" data-name="Path 1224" d="M225.525,711.263l5.8,10.68s8.358,6.037,2.554,6.965-9.287-1.393-9.287-1.393l-5.108-3.715V713.12Z" transform="translate(-201.959 -549.127)" fill="#141414"/>
      <path id="Path_1225" data-name="Path 1225" d="M235.245,678.76l-3.018,7.2s-1.161,3.018,0,3.715,4.411,4.876,2.322,5.34a6.81,6.81,0,0,1-1.276.127,12.9,12.9,0,0,1-9.379-3.817l-1.882-1.882s6.448-14.847,6.358-14.737S235.245,678.76,235.245,678.76Z" transform="translate(-203.785 -522.661)" fill="#141414"/>
      <circle id="Ellipse_114" data-name="Ellipse 114" cx="7.894" cy="7.894" r="7.894" transform="translate(6.85 34.206)" fill="#ffb8b8"/>
      <path id="Path_1226" data-name="Path 1226" d="M167.129,316.419l2.438,2.438s7.43,2.786,10.912,0a23.377,23.377,0,0,0-1.277-2.438c0,.232,10.1,1.741,11.028,5.921s-.7,11.377-.7,11.377,6.5,30.647,3.947,31.344-26.468,6.5-26.236,2.09-1.857-22.521-1.857-22.521l-8.126-15.556s1.161-5.108,3.947-6.733S167.129,316.419,167.129,316.419Z" transform="translate(-156.913 -263.291)" fill="#d0cde1"/>
      <path id="Path_1227" data-name="Path 1227" d="M221.9,480.855l3.018,1.857s11.609,7.894,5.572,9.287-9.519-5.572-9.519-5.572l-2.322-2.786Z" transform="translate(-201.35 -382.335)" fill="#ffb8b8"/>
      <path id="Path_1228" data-name="Path 1228" d="M161.8,357.241l-2.09,2.09s-1.393,19.5,1.393,23.45,15.556,14.627,16.252,13.931,5.108-4.179,4.179-4.643S168.26,378.7,168.26,378.7l.971-17.978Z" transform="translate(-158.434 -292.852)" opacity="0.1"/>
      <path id="Path_1229" data-name="Path 1229" d="M158.438,354.719l-2.09,2.09s-1.393,19.5,1.393,23.45,15.556,14.627,16.252,13.931,5.108-4.179,4.179-4.644S164.9,376.179,164.9,376.179l.971-17.978Z" transform="translate(-156 -291.026)" fill="#d0cde1"/>
      <path id="Path_1230" data-name="Path 1230" d="M191.052,234.128s2.683-.976,6.343,1.1l-1.952.488s2.927.244,3.293,4.147h-1.342s.854,3.415,0,4.391l-.549-1.037-1.586,3.171-.366-1.586-.732.244-.488-2.561s-1.22,1.83-2.2,1.952v-1.586s-2.683,3.049-3.537,2.927l1.22-1.708-1.708.366.732-1.22-4.391,1.22.976-1.22-3.049.976-1.464.61s-2.074-4.757.854-8.05S188.308,232.726,191.052,234.128Z" transform="translate(-173.044 -203.241)" fill="#141414"/>
      <rect id="Rectangle_280" data-name="Rectangle 280" width="177.772" height="113.853" transform="translate(61.263 19.049)" fill="#e6e6e6"/>
      <rect id="Rectangle_281" data-name="Rectangle 281" width="167.605" height="92.838" transform="translate(66.347 33.329)" fill="#fff"/>
      <rect id="Rectangle_282" data-name="Rectangle 282" width="177.772" height="7.552" transform="translate(61.187 18.948)" fill="#038d08"/>
      <circle id="Ellipse_115" data-name="Ellipse 115" cx="1.4" cy="1.4" r="1.4" transform="translate(65.4 21.41)" fill="#fff"/>
      <circle id="Ellipse_116" data-name="Ellipse 116" cx="1.4" cy="1.4" r="1.4" transform="translate(70.713 21.41)" fill="#fff"/>
      <circle id="Ellipse_117" data-name="Ellipse 117" cx="1.4" cy="1.4" r="1.4" transform="translate(76.027 21.41)" fill="#fff"/>
      <rect id="Rectangle_283" data-name="Rectangle 283" width="43.067" height="73.572" transform="translate(81.576 42.962)" fill="#e6e6e6"/>
      <rect id="Rectangle_284" data-name="Rectangle 284" width="35.889" height="20.252" transform="translate(132.077 42.962)" fill="#038d08"/>
      <rect id="Rectangle_285" data-name="Rectangle 285" width="35.889" height="21.79" transform="translate(132.077 68.853)" fill="#e6e6e6"/>
      <rect id="Rectangle_286" data-name="Rectangle 286" width="35.889" height="20.252" transform="translate(132.077 96.282)" fill="#e6e6e6"/>
      <rect id="Rectangle_287" data-name="Rectangle 287" width="43.067" height="32.062" transform="translate(175.656 42.962)" fill="#e6e6e6"/>
      <rect id="Rectangle_288" data-name="Rectangle 288" width="43.067" height="32.062" transform="translate(175.656 84.471)" fill="#038d08"/>
      <path id="Path_1231" data-name="Path 1231" d="M543.217,67.361l-.562-.149L554.923,21.06h71.162v.581H555.37Z" transform="translate(-392.826 -15.245)" fill="#3f3d56"/>
      <path id="Path_1232" data-name="Path 1232" d="M1005.881,136.245a6.105,6.105,0,1,1,6.1-6.105A6.106,6.106,0,0,1,1005.881,136.245Zm0-11.629a5.524,5.524,0,1,0,5.524,5.524,5.524,5.524,0,0,0-5.524-5.524Z" transform="translate(-766.806 -124.034)" fill="#3f3d56"/>
      <circle id="Ellipse_118" data-name="Ellipse 118" cx="2.326" cy="2.326" r="2.326" transform="translate(236.748 3.78)" fill="#038d08"/>
      <path id="Path_1233" data-name="Path 1233" d="M486.37,409.311H415.208v-.581h70.715l12.153-45.72.562.149Z" transform="translate(-300.568 -262.782)" fill="#3f3d56"/>
      <path id="Path_1234" data-name="Path 1234" d="M534.142,643.785a6.105,6.105,0,1,1,6.105-6.105,6.105,6.105,0,0,1-6.105,6.105Zm0-11.629a5.524,5.524,0,1,0,5.524,5.524,5.524,5.524,0,0,0-5.524-5.524Z" transform="translate(-425.316 -491.441)" fill="#3f3d56"/>
      <circle id="Ellipse_119" data-name="Ellipse 119" cx="2.326" cy="2.326" r="2.326" transform="translate(106.5 143.913)" fill="#038d08"/>
    </g>
    <rect id="Rectangle_352" data-name="Rectangle 352" width="317" height="195" transform="translate(1350 1458)" fill="none"/>
  </g>
</svg>
