<svg xmlns="http://www.w3.org/2000/svg" width="317" height="195" viewBox="0 0 317 195">
  <g id="Group_213" data-name="Group 213" transform="translate(-261 -1459)">
    <rect id="Rectangle_250" data-name="Rectangle 250" width="178.185" height="119.342" transform="translate(342.498 1468.189)" fill="#f5f5f5"/>
    <rect id="Rectangle_251" data-name="Rectangle 251" width="178.185" height="11.923" transform="translate(342.498 1468.189)" fill="#ebebeb"/>
    <path id="Path_1067" data-name="Path 1067" d="M247.051,131.587a1.444,1.444,0,1,1-1.438-1.338,1.391,1.391,0,0,1,1.438,1.338Z" transform="translate(103.165 1342.56)" fill="#fafafa"/>
    <path id="Path_1068" data-name="Path 1068" d="M255.871,131.587a1.444,1.444,0,1,1-1.438-1.338A1.391,1.391,0,0,1,255.871,131.587Z" transform="translate(98.993 1342.56)" fill="#fafafa"/>
    <path id="Path_1069" data-name="Path 1069" d="M264.69,131.587a1.444,1.444,0,1,1-1.438-1.338A1.391,1.391,0,0,1,264.69,131.587Z" transform="translate(94.82 1342.56)" fill="#fafafa"/>
    <g id="freepik--Floor--inject-2" transform="translate(277 1636.691)">
      <path id="Path_1094" data-name="Path 1094" d="M374.579,441.447c0,.079-59.081.137-131.949.137s-131.96-.058-131.96-.137,59.07-.137,131.96-.137S374.579,441.373,374.579,441.447Z" transform="translate(-110.67 -441.31)" fill="#263238"/>
    </g>
    <g id="freepik--Device--inject-2" transform="translate(307.294 1478.336)">
      <path id="Path_1095" data-name="Path 1095" d="M353.12,140.74H173.765a5.6,5.6,0,0,0-5.6,5.6V273.021a5.6,5.6,0,0,0,5.6,5.6H242.6s4.378,13.54-9.2,20.547h64.365s-15.321-5.269-11.38-20.547H353.12a5.6,5.6,0,0,0,5.6-5.6V146.34A5.6,5.6,0,0,0,353.12,140.74Z" transform="translate(-168.17 -140.74)" fill="#141414"/>
      <path id="Path_1096" data-name="Path 1096" d="M348.578,376.109a3.456,3.456,0,0,1-4.868,4.868,1.249,1.249,0,0,1-.3-.3,3.457,3.457,0,0,1,4.868-4.868A1.251,1.251,0,0,1,348.578,376.109Z" transform="translate(-250.721 -251.599)" fill="#d0cde1"/>
      <rect id="Rectangle_253" data-name="Rectangle 253" width="182.084" height="108.004" rx="3.27" transform="translate(4.231 6.401)" fill="#e0e0e0"/>
      <rect id="Rectangle_254" data-name="Rectangle 254" width="182.084" height="100.091" transform="translate(4.231 14.314)" fill="#fafafa"/>
      <path id="Path_1097" data-name="Path 1097" d="M201.938,159.494a1.454,1.454,0,1,1-1.454-1.454A1.454,1.454,0,0,1,201.938,159.494Z" transform="translate(-182.771 -148.926)" fill="#149a00"/>
      <path id="Path_1098" data-name="Path 1098" d="M185.208,159.494a1.454,1.454,0,1,1-1.454-1.454A1.454,1.454,0,0,1,185.208,159.494Z" transform="translate(-174.856 -148.926)" fill="#149a00"/>
      <path id="Path_1099" data-name="Path 1099" d="M193.238,159.494a1.454,1.454,0,1,1-1.454-1.454A1.454,1.454,0,0,1,193.238,159.494Z" transform="translate(-178.655 -148.926)" fill="#149a00"/>
      <path id="Path_1100" data-name="Path 1100" d="M319.733,256.237c0,.079-6.67.147-14.894.147s-14.9-.068-14.9-.147,6.67-.147,14.9-.147S319.733,256.153,319.733,256.237Z" transform="translate(-225.786 -195.318)" fill="#455a64"/>
      <path id="Path_1101" data-name="Path 1101" d="M319.733,263.8c0,.079-6.67.148-14.894.148s-14.9-.068-14.9-.148,6.67-.153,14.9-.153S319.733,263.719,319.733,263.8Z" transform="translate(-225.786 -198.895)" fill="#455a64"/>
      <path id="Path_1102" data-name="Path 1102" d="M307.795,271.367c0,.084-3.994.153-8.925.153s-8.93-.068-8.93-.153,4-.147,8.93-.147S307.795,271.288,307.795,271.367Z" transform="translate(-225.786 -202.477)" fill="#455a64"/>
      <rect id="Rectangle_255" data-name="Rectangle 255" width="14.167" height="1.797" transform="translate(64.154 20.173)" fill="#455a64"/>
      <rect id="Rectangle_256" data-name="Rectangle 256" width="31.131" height="30.12" transform="translate(64.154 25.963)" fill="#e0e0e0"/>
      <path id="Path_1103" data-name="Path 1103" d="M294.52,228.37l8.614-15.5,7.044,9.91,4.278-5.263,6.37,10.853Z" transform="translate(-227.953 -174.868)" fill="#149a00"/>
      <circle id="Ellipse_107" data-name="Ellipse 107" cx="2.239" cy="2.239" r="2.239" transform="translate(80.745 32.749)" fill="#149a00"/>
      <path id="Path_1104" data-name="Path 1104" d="M320.711,219.75a.429.429,0,0,1,0-.121v-1.707c0-1.2,0-2.924-.032-5.116,0-4.4-.037-10.663-.063-18.187l.126.126h-26.3c-.037.032.274-.279.142-.142h0v25.12l-.132-.132,19.019.068,5.363.032h.037l-5.332.032-19.1.068h-.126V194.63h0c-.132.126.179-.19.153-.153H320.89v.126c-.026,7.555-.047,13.846-.063,18.266,0,2.181-.026,3.9-.037,5.089v1.665a.863.863,0,0,1-.079.126Z" transform="translate(-227.838 -166.164)" fill="#455a64"/>
      <path id="Path_1105" data-name="Path 1105" d="M391.773,256.237c0,.079-6.67.147-14.9.147s-14.894-.068-14.894-.147,6.665-.147,14.894-.147S391.773,256.153,391.773,256.237Z" transform="translate(-259.871 -195.318)" fill="#455a64"/>
      <path id="Path_1106" data-name="Path 1106" d="M391.773,263.8c0,.079-6.67.148-14.9.148s-14.894-.068-14.894-.148,6.665-.153,14.894-.153S391.773,263.719,391.773,263.8Z" transform="translate(-259.871 -198.895)" fill="#455a64"/>
      <path id="Path_1107" data-name="Path 1107" d="M379.844,271.367c0,.084-4,.153-8.93.153s-8.914-.068-8.914-.153,3.993-.147,8.925-.147S379.844,271.288,379.844,271.367Z" transform="translate(-259.881 -202.477)" fill="#455a64"/>
      <rect id="Rectangle_257" data-name="Rectangle 257" width="14.167" height="1.797" transform="translate(102.108 20.173)" fill="#455a64"/>
      <rect id="Rectangle_258" data-name="Rectangle 258" width="31.131" height="30.12" transform="translate(102.108 25.963)" fill="#e0e0e0"/>
      <path id="Path_1108" data-name="Path 1108" d="M366.56,228.37l8.609-15.5,7.044,9.91,4.283-5.263,6.364,10.853Z" transform="translate(-262.039 -174.868)" fill="#149a00"/>
      <path id="Path_1109" data-name="Path 1109" d="M397.969,205.139a2.244,2.244,0,1,1-2.239-2.239A2.244,2.244,0,0,1,397.969,205.139Z" transform="translate(-274.776 -170.151)" fill="#149a00"/>
      <path id="Path_1110" data-name="Path 1110" d="M392.739,219.75v-1.828c0-1.2,0-2.924-.032-5.116,0-4.4-.042-10.663-.069-18.187l.126.126h-26.3c-.037.032.279-.279.147-.142h0v25.12l-.126-.132,19.019.068,5.363.032h.037l-5.337.032-19.1.068h-.132V194.63h0c-.137.126.179-.19.148-.153h26.432v.126c-.031,7.555-.053,13.846-.068,18.266,0,2.181-.026,3.9-.032,5.089v1.665a.448.448,0,0,1-.079.126Z" transform="translate(-261.918 -166.164)" fill="#455a64"/>
      <rect id="Rectangle_259" data-name="Rectangle 259" width="14.167" height="1.797" transform="translate(65.15 74.449)" fill="#455a64"/>
      <rect id="Rectangle_260" data-name="Rectangle 260" width="31.131" height="30.12" transform="translate(65.15 80.234)" fill="#e0e0e0"/>
      <path id="Path_1111" data-name="Path 1111" d="M296.41,331.39l8.614-15.5,7.044,9.9,4.278-5.258,6.37,10.853Z" transform="translate(-228.847 -223.613)" fill="#149a00"/>
      <path id="Path_1112" data-name="Path 1112" d="M327.8,308.154a2.239,2.239,0,1,1-.656-1.589A2.244,2.244,0,0,1,327.8,308.154Z" transform="translate(-241.575 -218.891)" fill="#149a00"/>
      <path id="Path_1113" data-name="Path 1113" d="M322.644,322.763V320.93c0-1.191,0-2.919-.037-5.116,0-4.4-.037-10.664-.063-18.182l.126.126h-26.3l.148-.148v25.147l-.132-.132,19.019.068,5.363.032h1.8a.638.638,0,0,1,.126,0h-1.865l-5.337.037-19.1.063h-.126V297.633l.153-.153h26.427v.132c-.026,7.555-.047,13.846-.063,18.266,0,2.181,0,3.9-.032,5.084v1.67a.355.355,0,0,1-.1.132Z" transform="translate(-228.776 -214.902)" fill="#455a64"/>
      <rect id="Rectangle_261" data-name="Rectangle 261" width="14.167" height="1.797" transform="translate(103.131 74.449)" fill="#455a64"/>
      <rect id="Rectangle_262" data-name="Rectangle 262" width="31.131" height="30.12" transform="translate(103.131 80.234)" fill="#e0e0e0"/>
      <path id="Path_1114" data-name="Path 1114" d="M368.5,331.39l8.614-15.5,7.044,9.9,4.278-5.258,6.37,10.853Z" transform="translate(-262.956 -223.613)" fill="#149a00"/>
      <path id="Path_1115" data-name="Path 1115" d="M399.888,308.154a2.239,2.239,0,1,1-.654-1.587A2.239,2.239,0,0,1,399.888,308.154Z" transform="translate(-275.689 -218.891)" fill="#149a00"/>
      <path id="Path_1116" data-name="Path 1116" d="M394.73,322.763a.7.7,0,0,1,0-.126V320.93c0-1.191,0-2.919-.032-5.116,0-4.4-.037-10.664-.063-18.182l.126.126H368.456l.148-.148v25.131l-.132-.132,19.019.069,5.363.032h.053l-5.332.037-19.1.063h-.132V297.633l.147-.153h26.432v.132c-.026,7.555-.047,13.846-.063,18.266,0,2.181-.026,3.9-.037,5.084v1.67A.885.885,0,0,1,394.73,322.763Z" transform="translate(-262.881 -214.902)" fill="#455a64"/>
      <rect id="Rectangle_263" data-name="Rectangle 263" width="14.167" height="1.797" transform="translate(142.317 74.449)" fill="#455a64"/>
      <rect id="Rectangle_264" data-name="Rectangle 264" width="31.131" height="30.12" transform="translate(142.317 80.234)" fill="#e0e0e0"/>
      <path id="Path_1117" data-name="Path 1117" d="M442.88,331.39l8.614-15.5,7.044,9.9,4.278-5.258,6.37,10.853Z" transform="translate(-298.15 -223.613)" fill="#149a00"/>
      <path id="Path_1118" data-name="Path 1118" d="M474.269,308.154a2.239,2.239,0,1,1-.656-1.589A2.244,2.244,0,0,1,474.269,308.154Z" transform="translate(-310.877 -218.891)" fill="#149a00"/>
      <path id="Path_1119" data-name="Path 1119" d="M469.115,322.763V320.93c0-1.191,0-2.919-.037-5.116,0-4.4-.037-10.664-.063-18.182l.126.126h-26.3l.147-.148v25.131l-.132-.132,19.019.069,5.363.032h1.791a.669.669,0,0,1,.132,0H467.3l-5.337.037-19.1.063h-.127V297.633l.153-.153H469.31v.132c-.026,7.555-.047,13.846-.063,18.266,0,2.181-.026,3.9-.032,5.084v1.67A.353.353,0,0,1,469.115,322.763Z" transform="translate(-298.079 -214.902)" fill="#455a64"/>
      <path id="Path_1120" data-name="Path 1120" d="M491.86,244.123a20.179,20.179,0,0,1,3.414-.148l-.147.148h0v-1.317c0-.374,0-.738.031-1.085a3.32,3.32,0,0,1,.105-1,3.684,3.684,0,0,1,.1,1c0,.348,0,.711.032,1.085v1.317h0l-.153.153A19.214,19.214,0,0,1,491.86,244.123Z" transform="translate(-321.325 -188.046)" fill="#455a64"/>
      <path id="Path_1121" data-name="Path 1121" d="M462.39,247.048a51.175,51.175,0,0,1,7.766,0A49.417,49.417,0,0,1,462.39,247.048Z" transform="translate(-307.381 -190.97)" fill="#455a64"/>
      <path id="Path_1122" data-name="Path 1122" d="M441.023,240.7a19.545,19.545,0,0,1,.148,3.414l-.148-.148h1.333l1.085.032a3.848,3.848,0,0,1,1,.105,3.358,3.358,0,0,1-1,.105l-1.085.032h-1.333l-.147-.153A20.171,20.171,0,0,1,441.023,240.7Z" transform="translate(-297.193 -188.036)" fill="#455a64"/>
      <path id="Path_1123" data-name="Path 1123" d="M441.022,211.23a51.1,51.1,0,0,1,0,7.76,51.115,51.115,0,0,1,0-7.76Z" transform="translate(-297.192 -174.093)" fill="#455a64"/>
      <path id="Path_1124" data-name="Path 1124" d="M444.476,189.852a19.618,19.618,0,0,1-3.419.148l.147-.148h0v1.322c0,.374,0,.732-.032,1.085a3.36,3.36,0,0,1-.105,1,3.357,3.357,0,0,1-.105-1c0-.353,0-.711-.032-1.085v-1.322h0l.148-.148a20.271,20.271,0,0,1,3.4.148Z" transform="translate(-297.227 -163.9)" fill="#455a64"/>
      <path id="Path_1125" data-name="Path 1125" d="M470.156,189.868a51.165,51.165,0,0,1-7.766,0,51.171,51.171,0,0,1,7.766,0Z" transform="translate(-307.381 -163.915)" fill="#455a64"/>
      <path id="Path_1126" data-name="Path 1126" d="M495.26,193.316a19.278,19.278,0,0,1-.153-3.419c.3.3.084.084.148.148h-1.349l-1.085-.032a3.356,3.356,0,0,1-1-.105,3.356,3.356,0,0,1,1-.105l1.085-.032h1.328l.153.148a20.269,20.269,0,0,1-.126,3.4Z" transform="translate(-321.306 -163.939)" fill="#455a64"/>
      <path id="Path_1127" data-name="Path 1127" d="M498.2,219.031a49.394,49.394,0,0,1,0-7.761,51.105,51.105,0,0,1,0,7.761Z" transform="translate(-324.241 -174.111)" fill="#455a64"/>
      <path id="Path_1128" data-name="Path 1128" d="M470.759,256.157c0,.079-6.675.148-14.9.148s-14.9-.069-14.9-.148,6.67-.147,14.9-.147S470.759,256.073,470.759,256.157Z" transform="translate(-297.241 -195.28)" fill="#455a64"/>
      <path id="Path_1129" data-name="Path 1129" d="M470.777,263.723c0,.079-6.675.148-14.9.148S441,263.8,441,263.723s6.67-.153,14.9-.153S470.777,263.638,470.777,263.723Z" transform="translate(-297.26 -198.857)" fill="#455a64"/>
      <rect id="Rectangle_265" data-name="Rectangle 265" width="14.167" height="1.797" transform="translate(143.719 20.131)" fill="#455a64"/>
      <path id="Path_1130" data-name="Path 1130" d="M235.007,209.719a15.279,15.279,0,1,1-15.279-15.279A15.279,15.279,0,0,1,235.007,209.719Z" transform="translate(-185.336 -166.148)" fill="#e0e0e0"/>
      <path id="Path_1131" data-name="Path 1131" d="M236.73,286.463c0,.079-7.839.148-17.507.148s-17.512-.069-17.512-.148,7.839-.153,17.512-.153S236.73,286.379,236.73,286.463Z" transform="translate(-184.04 -209.617)" fill="#455a64"/>
      <path id="Path_1132" data-name="Path 1132" d="M236.73,293.868c0,.084-7.839.147-17.507.147s-17.512-.063-17.512-.147,7.839-.148,17.512-.148S236.73,293.757,236.73,293.868Z" transform="translate(-184.04 -213.123)" fill="#455a64"/>
      <path id="Path_1133" data-name="Path 1133" d="M236.73,301.158c0,.084-7.839.148-17.507.148s-17.512-.063-17.512-.148,7.839-.158,17.539-.158S236.73,301.079,236.73,301.158Z" transform="translate(-184.04 -216.567)" fill="#455a64"/>
      <path id="Path_1134" data-name="Path 1134" d="M221.66,308.678c0,.084-4.547.147-10.152.147s-10.158-.063-10.158-.147,4.547-.148,10.158-.148S221.66,308.6,221.66,308.678Z" transform="translate(-183.869 -220.13)" fill="#455a64"/>
      <rect id="Rectangle_266" data-name="Rectangle 266" width="24.13" height="1.765" transform="translate(41.8 70.703) rotate(180)" fill="#455a64"/>
      <rect id="Rectangle_267" data-name="Rectangle 267" width="13.529" height="1.649" transform="translate(17.67 94.596)" fill="#149a00"/>
    </g>
    <path id="Path_1136" data-name="Path 1136" d="M567.777,211.66l2.308,7.739a3.631,3.631,0,0,1,.205,1.08,2.453,2.453,0,0,1-2.107,2.15,7.26,7.26,0,0,1-3.219-.379c-.284,1.112-1.581,1.581-2.713,1.791a24.8,24.8,0,0,1-14.92-1.86,40.7,40.7,0,0,0,4.81-9.2l11.77.527a5.433,5.433,0,0,0,2.065-.174,1.838,1.838,0,0,0,1.285-1.491" transform="translate(-40.277 1304.04)" fill="#141414"/>
    <path id="Path_1137" data-name="Path 1137" d="M557.12,220.624a35.5,35.5,0,0,0-.206-4.5,3.954,3.954,0,0,1-3.514-3.641c-.2-3.288,0-10.874,0-10.874l6.038-2.95,6.649,5.031-1.006,16.443-7.191,6.417Z" transform="translate(-43.106 1310.191)" fill="#ffbe9d"/>
    <path id="Path_1138" data-name="Path 1138" d="M554.73,214.376a.422.422,0,1,0,.422-.416.416.416,0,0,0-.422.416Z" transform="translate(-43.778 1302.952)" fill="#263238"/>
    <path id="Path_1139" data-name="Path 1139" d="M553.982,213.424c.058.058.369-.205.822-.232s.79.195.838.132-.032-.126-.179-.227a1.1,1.1,0,0,0-.679-.179,1.08,1.08,0,0,0-.648.258C553.982,213.3,553.929,213.4,553.982,213.424Z" transform="translate(-43.415 1303.446)" fill="#263238"/>
    <path id="Path_1140" data-name="Path 1140" d="M564,214.376a.422.422,0,1,0,.416-.416.416.416,0,0,0-.416.416Z" transform="translate(-48.164 1302.952)" fill="#263238"/>
    <path id="Path_1141" data-name="Path 1141" d="M563.483,213.424c.053.058.363-.205.816-.232s.8.195.843.132-.032-.126-.184-.227a1.112,1.112,0,0,0-1.322.079C563.5,213.3,563.457,213.4,563.483,213.424Z" transform="translate(-47.916 1303.446)" fill="#263238"/>
    <path id="Path_1142" data-name="Path 1142" d="M561.262,222a8.385,8.385,0,0,1-2.192.759,1.28,1.28,0,0,0,1.5.427.943.943,0,0,0,.69-1.185Z" transform="translate(-45.832 1299.148)" fill="#fafafa"/>
    <path id="Path_1143" data-name="Path 1143" d="M560.15,230.49a8.2,8.2,0,0,0,4.357-1.47,4.238,4.238,0,0,1-4.283,2.276Z" transform="translate(-46.342 1295.826)" fill="#eb996e"/>
    <path id="Path_1144" data-name="Path 1144" d="M574.444,211.163a2.376,2.376,0,0,1-1.191-.269,3.367,3.367,0,0,1-1.3-1.264,12.975,12.975,0,0,1-.969-2.081c-.616-1.528-1.054-2.95-1.4-3.983-.047-.163-.095-.311-.137-.453a4.225,4.225,0,0,0-.084-.453,10.534,10.534,0,0,0-9.014-8.135c-1.28,0-3.519-.706-6.781,2.687a7.262,7.262,0,0,0-1.238,1.707,7.376,7.376,0,0,0-1.449,3.1,3.774,3.774,0,0,0-.074,1.628c.063,0,.074-.616.326-1.581a8,8,0,0,1,.632-1.617,6.278,6.278,0,0,0,.332,3.788l1.17-.327,4.215-1.422a6.149,6.149,0,0,1,.5-3.688h.031c.959,4.921,6.38,5.437,6.38,5.437l-.269,9.341c5.569-1.191,5.643-7.271,5.606-8.783.253.853.58,1.833.99,2.861a12.772,12.772,0,0,0,1.022,2.107,3.367,3.367,0,0,0,1.444,1.307,2.234,2.234,0,0,0,1.3.19.929.929,0,0,0,.453-.169,3.811,3.811,0,0,0-.49.074Z" transform="translate(-41.897 1312.177)" fill="#141414"/>
    <path id="Path_1145" data-name="Path 1145" d="M559.359,217.616a3.122,3.122,0,0,0-.732-.079c-.116,0-.232,0-.253-.105a.637.637,0,0,1,.063-.369c.1-.3.2-.606.311-.938.216-.669.4-1.275.527-1.718a2.75,2.75,0,0,0,.163-.727,3,3,0,0,0-.284.7c-.158.432-.364,1.054-.58,1.707l-.3.943a.749.749,0,0,0-.042.474.3.3,0,0,0,.195.163.885.885,0,0,0,.2,0A3.077,3.077,0,0,0,559.359,217.616Z" transform="translate(-45.425 1303.085)" fill="#263238"/>
    <path id="Path_1146" data-name="Path 1146" d="M562.919,212.885c-1.022-.2-1.886-.342-2.181-.364a2.6,2.6,0,0,0,.063-.527,2.7,2.7,0,0,0-.527-1.581,2.591,2.591,0,0,0-1.243-.922,2.661,2.661,0,0,0-1.4-.105,2.524,2.524,0,0,0-1.106.527,2.566,2.566,0,0,0-.932,1.459,2.1,2.1,0,0,0-.058.474.516.516,0,0,0,0,.163,2.417,2.417,0,0,1,.116-.616,2.577,2.577,0,0,1,.943-1.38,2.455,2.455,0,0,1,1.054-.458,2.5,2.5,0,0,1,2.466,3.925,2.46,2.46,0,0,1-1.159.875,2.5,2.5,0,0,1-1.307.116,2.46,2.46,0,0,1-1.054-.464,2.551,2.551,0,0,1-.943-1.375,2.812,2.812,0,0,1-.089-.474c.079,0,.132-.042.132-.063s-.063-.053-.153-.068h0a1.781,1.781,0,0,0-.316,0,1.643,1.643,0,0,0-.379.042v-.032a2.667,2.667,0,0,0-.527-1.581,2.6,2.6,0,0,0-1.238-.922,2.682,2.682,0,0,0-1.4-.105,2.634,2.634,0,0,0-2.039,1.965,2.114,2.114,0,0,0-.058.474.535.535,0,0,0,0,.163,2.414,2.414,0,0,1,.116-.616,2.578,2.578,0,0,1,.943-1.38,2.454,2.454,0,0,1,1.054-.458,2.5,2.5,0,1,1,0,4.915,2.46,2.46,0,0,1-1.054-.464,2.55,2.55,0,0,1-.943-1.375c-.105-.39-.095-.622-.116-.622a.619.619,0,0,0,0,.169,2.068,2.068,0,0,0,.058.469,2.572,2.572,0,0,0,.932,1.465,2.635,2.635,0,0,0,1.106.527,2.682,2.682,0,0,0,1.4-.105,2.634,2.634,0,0,0,1.238-.922,2.676,2.676,0,0,0,.527-1.449,1.454,1.454,0,0,0,.39.042,2.38,2.38,0,0,0,.306,0h0a2.05,2.05,0,0,0,.058.469,2.608,2.608,0,0,0,2.039,1.97,2.661,2.661,0,0,0,1.4-.105,2.634,2.634,0,0,0,1.243-.922,2.555,2.555,0,0,0,.443-.99c.279.09,1.133.29,2.165.49a15.679,15.679,0,0,0,2.3.364A13.983,13.983,0,0,0,562.919,212.885Z" transform="translate(-41.34 1305.139)" fill="#263238"/>
    <path id="Path_1147" data-name="Path 1147" d="M578.2,218.513a4.01,4.01,0,0,1,.179-1.623,1.533,1.533,0,0,1,1.18-1.022,1.3,1.3,0,0,1,1.338,1.054,1.581,1.581,0,0,1-.817,1.581,2.108,2.108,0,0,1-1.828.053" transform="translate(-54.876 1302.05)" fill="#ffbe9d"/>
    <path id="Path_1148" data-name="Path 1148" d="M579.995,218.7c0-.037.179.042.411,0a.733.733,0,0,0,.49-.7.528.528,0,0,0-.116-.437.49.49,0,0,0-.358-.105c-.248,0-.422.084-.432.042s.111-.153.406-.232a.627.627,0,0,1,.527.105.748.748,0,0,1,.227.648.98.98,0,0,1-.242.611.764.764,0,0,1-.485.258A.57.57,0,0,1,579.995,218.7Z" transform="translate(-55.729 1301.398)" fill="#eb996e"/>
    <path id="Path_1149" data-name="Path 1149" d="M600.657,448.512l-3.967-2.692,5-7.46,5.843,3.878-.28.479c-1.264,2.139-6.58,10.769-7.9,11.87C597.844,455.809,600.657,448.512,600.657,448.512Z" transform="translate(-63.632 1196.777)" fill="#141414"/>
    <path id="Path_1150" data-name="Path 1150" d="M600.8,457.852c-.074-.047,1.754-2.866,4.083-6.291s4.267-6.169,4.341-6.122-1.76,2.866-4.088,6.322S600.867,457.91,600.8,457.852Z" transform="translate(-65.574 1193.427)" fill="#d0cde1"/>
    <path id="Path_1151" data-name="Path 1151" d="M604.618,458.781c0,.084-.248.132-.527.153s-.527,0-.553-.084.216-.206.527-.221S604.629,458.7,604.618,458.781Z" transform="translate(-66.871 1187.188)" fill="#d0cde1"/>
    <path id="Path_1152" data-name="Path 1152" d="M604.4,459.949c0,.084-.29.095-.611.074s-.59-.063-.6-.153.269-.174.611-.153S604.412,459.865,604.4,459.949Z" transform="translate(-66.707 1186.673)" fill="#d0cde1"/>
    <path id="Path_1153" data-name="Path 1153" d="M613.365,446.986c-.037,0-.137-.142-.258-.411a3.157,3.157,0,0,1-.279-1.143,1.818,1.818,0,0,1,.337-1.148c.2-.253.385-.321.406-.29s-.1.163-.227.406a2.139,2.139,0,0,0-.211,1.022,5.793,5.793,0,0,0,.179,1.085C613.381,446.786,613.407,446.97,613.365,446.986Z" transform="translate(-71.266 1194.115)" fill="#d0cde1"/>
    <path id="Path_1154" data-name="Path 1154" d="M604.145,457.5c-.037-.074.105-.221.3-.363s.374-.237.437-.179-.037.263-.258.427S604.177,457.576,604.145,457.5Z" transform="translate(-67.156 1187.987)" fill="#d0cde1"/>
    <path id="Path_1155" data-name="Path 1155" d="M603.547,456.494c-.069-.053,0-.29.179-.527s.364-.4.432-.353,0,.279-.179.527S603.61,456.546,603.547,456.494Z" transform="translate(-66.863 1188.616)" fill="#d0cde1"/>
    <path id="Path_1156" data-name="Path 1156" d="M510.011,464.912v-4.794l8.956-.058.074,7.018-.558.037c-2.476.153-12.6.606-14.267.116C502.388,466.682,510.011,464.912,510.011,464.912Z" transform="translate(-19.743 1186.509)" fill="#141414"/>
    <path id="Path_1157" data-name="Path 1157" d="M504.12,472.693c0-.084,3.361-.153,7.5-.153s7.5.068,7.5.153-3.356.158-7.5.158S504.12,472.782,504.12,472.693Z" transform="translate(-19.832 1180.604)" fill="#d0cde1"/>
    <path id="Path_1158" data-name="Path 1158" d="M514.556,470.31c-.074.042-.247-.132-.427-.364s-.3-.443-.242-.527.295.068.484.321S514.63,470.267,514.556,470.31Z" transform="translate(-24.446 1182.092)" fill="#d0cde1"/>
    <path id="Path_1159" data-name="Path 1159" d="M513.513,470.785c-.079.032-.237-.184-.4-.464s-.279-.527-.211-.58.3.126.474.427S513.592,470.753,513.513,470.785Z" transform="translate(-23.978 1181.933)" fill="#d0cde1"/>
    <path id="Path_1160" data-name="Path 1160" d="M527.454,471.256c-.032,0,.042-.195.195-.443a3.276,3.276,0,0,1,.785-.875,1.871,1.871,0,0,1,1.143-.369c.316,0,.485.142.469.174s-.195,0-.464.042a2.209,2.209,0,0,0-.964.4,5.617,5.617,0,0,0-.8.759C527.627,471.156,527.49,471.282,527.454,471.256Z" transform="translate(-30.869 1182.01)" fill="#d0cde1"/>
    <path id="Path_1161" data-name="Path 1161" d="M515.108,469.384c.042-.074.247-.037.469.042s.411.179.4.263-.237.116-.5.026S515.045,469.458,515.108,469.384Z" transform="translate(-25.025 1182.117)" fill="#d0cde1"/>
    <path id="Path_1162" data-name="Path 1162" d="M515.39,468.407c0-.084.248-.153.527-.147s.527.079.527.163-.232.148-.527.148S515.379,468.492,515.39,468.407Z" transform="translate(-25.164 1182.63)" fill="#d0cde1"/>
    <path id="Path_1163" data-name="Path 1163" d="M517.456,256.24,507.725,253s-4.294,12.37-5.611,12.491c-7.292.664-15.094-1.754-17.834-2.708-.274-.311-.59-.685-.943-1.143a4.353,4.353,0,0,1-.69-1.312,6.849,6.849,0,0,1-.39-1.8.574.574,0,0,0-.985-.453,4.728,4.728,0,0,0,.327,3.656c.722,1.686-1.828.342-2.766-.132s-3.9-1.791-4.278-1.617c-.527.258-.374.89.574,1.338s3.688,1.991,3.419,2.476-5.01-1.986-5.01-1.986-.927-.69-1.259-.142c-.6.985,4.626,3.235,5.131,3.435.348.137.074.674-.3.527s-4.668-2.566-5.295-1.581c-.474.764,4.289,1.886,4.9,2.877s-3.53-1.217-3.951-.464c-.158.279-.242.527,2.318,1.433a54,54,0,0,0,5.722,1.438v.026s25.578,11.438,31.084.416C517.735,258.079,517.456,256.24,517.456,256.24Z" transform="translate(-4.533 1284.48)" fill="#ffbe9d"/>
    <path id="Path_1164" data-name="Path 1164" d="M542.322,307.679s-6.2,41.21-5.311,43.2,32.781,35.826,32.781,35.826l7.46-12.781s-25.157-28.081-24.967-28.834S561.2,304.26,561.2,304.26Z" transform="translate(-35.353 1260.226)" fill="#2d2d2d"/>
    <path id="Path_1165" data-name="Path 1165" d="M549.74,386.683l5.242-11.512,5.242-11.512-8.83,15.305Z" transform="translate(-41.417 1232.121)" fill="#2d2d2d" opacity="0.77"/>
    <path id="Path_1166" data-name="Path 1166" d="M555.632,387.87a2.56,2.56,0,0,1,.032.453c0,.327,0,.764.032,1.307v-.042c2,2.255,6.422,7.376,11.533,13.361l8.877,10.463,2.666,3.2c.3.358.527.653.711.875a1.639,1.639,0,0,1,.232.321,2.1,2.1,0,0,1-.279-.279l-.753-.843c-.674-.764-1.581-1.828-2.74-3.129l-8.956-10.405c-5.105-5.98-9.483-11.153-11.4-13.477h0c0-.527,0-.98.026-1.307A1.817,1.817,0,0,1,555.632,387.87Z" transform="translate(-44.185 1220.666)" fill="#d0cde1"/>
    <path id="Path_1167" data-name="Path 1167" d="M601.717,431.469c.074.047-1.67,2.813-3.888,6.175s-4.072,6.053-4.141,6.006,1.67-2.813,3.888-6.175S601.649,431.422,601.717,431.469Z" transform="translate(-62.21 1200.037)" fill="#d0cde1"/>
    <path id="Path_1168" data-name="Path 1168" d="M542.91,326.593c.058-.432,5.01-11.591,5.01-11.591l-2.4-3.388-.427-.095Z" transform="translate(-38.185 1256.791)" fill="#2d2d2d"/>
    <path id="Path_1169" data-name="Path 1169" d="M534.944,307.289l-4.921.822,2.829,3.483c-4.568,10.337-14,32.222-15.136,39.276-1.507,9.346-7.181,38.539-6.612,38.987s13.651,0,13.651,0l8.34-38.987,18.44-31.938a17.818,17.818,0,0,0,1.87-13.145l-.369-1.517" transform="translate(-23.117 1260.222)" fill="#141414"/>
    <path id="Path_1170" data-name="Path 1170" d="M528.41,386.548a1.332,1.332,0,0,1,.026-.216,5.384,5.384,0,0,1,.095-.637l.406-2.439c.374-2.134.906-5.195,1.581-8.956s1.48-8.287,2.371-13.282c.464-2.5.948-5.121,1.449-7.839.127-.674.263-1.359.4-2.049.069-.348.132-.69.211-1.054.042-.174.074-.353.126-.527l.195-.527c.527-1.338,1.128-2.634,1.718-4,4.768-10.711,9.2-20.352,12.412-27.328l3.83-8.256c.448-.959.806-1.707,1.054-2.234.116-.242.211-.437.284-.58a1.052,1.052,0,0,1,.105-.195l-.079.211-.253.59-1.006,2.26c-.9,1.981-2.186,4.826-3.756,8.3-3.161,7-7.566,16.654-12.328,27.364-.59,1.338-1.185,2.666-1.712,3.978l-.19.485c-.053.169-.079.342-.121.527-.079.337-.142.69-.216,1.054-.132.69-.263,1.375-.4,2.049-.527,2.713-1,5.337-1.465,7.829-.917,4.994-1.744,9.483-2.439,13.271s-1.259,6.817-1.649,8.956c-.2,1.054-.358,1.855-.464,2.429-.058.264-.1.474-.132.632A.852.852,0,0,1,528.41,386.548Z" transform="translate(-31.324 1259.2)" fill="#d0cde1"/>
    <path id="Path_1171" data-name="Path 1171" d="M525.935,459.285c0,.084-3.161.095-7.012,0s-7.012-.195-7.012-.279,3.161-.095,7.018-.026S525.94,459.2,525.935,459.285Z" transform="translate(-23.518 1187.042)" fill="#d0cde1"/>
    <path id="Path_1172" data-name="Path 1172" d="M547.05,308.1l.19.448,23.64-1.912-.833-2.376Z" transform="translate(-40.144 1260.226)" fill="#263238"/>
    <path id="Path_1173" data-name="Path 1173" d="M548.433,237.116l-1.581,6.385-.058-4.594.121-1.017.142-.774-2.107-.711-1.085,1.691h-.316s-8.508-.848-11.485,10.395l-2.724,6.665,8.245,4.109v.527l.527,15.906,23.814-3.857c.1-3.572-3.551-10.042-2.745-13.277l2.745-11.064-3.6-10.31-2.492.079h0l-1.386-1.638-5.99,1.486" transform="translate(-31.765 1292.699)" fill="#d0cde1"/>
    <path id="Path_1174" data-name="Path 1174" d="M543.289,268.8a1.488,1.488,0,0,1-.527-.269,3.985,3.985,0,0,1-1.1-1.138,3.591,3.591,0,0,1-.564-2.271,5.063,5.063,0,0,1,.927-2.719,4.959,4.959,0,0,1,1.686-1.507l-.073.095c.2-1.459.379-2.713.527-3.6a9.024,9.024,0,0,1,.263-1.407,9.676,9.676,0,0,1-.105,1.433c-.089.89-.232,2.155-.411,3.614v.063l-.063.037a4.915,4.915,0,0,0-2.476,4.009,3.483,3.483,0,0,0,.474,2.155,4.369,4.369,0,0,0,1,1.148A2.918,2.918,0,0,1,543.289,268.8Z" transform="translate(-37.321 1283.07)" fill="#455a64"/>
    <path id="Path_1175" data-name="Path 1175" d="M546.259,258.527c-.069.032-.3-.306-.527-.759s-.347-.848-.279-.88.3.306.527.759S546.312,258.463,546.259,258.527Z" transform="translate(-39.379 1282.641)" fill="#455a64"/>
    <path id="Path_1176" data-name="Path 1176" d="M484.077,251.42l74.907,14.388c5.342,1.027,8.7,5.906,8.1,11.464a1.662,1.662,0,0,1-.042.232,10.089,10.089,0,0,1-11.938,8L481.69,270.692,465.5,257.753Z" transform="translate(-1.559 1285.228)" fill="#149a00"/>
    <path id="Path_1177" data-name="Path 1177" d="M484.077,251.42s4.088,1.533,3.245,5.453a4.754,4.754,0,0,1-4.8,3.756s3.846.854,2.782,6.349a4.213,4.213,0,0,1-3.614,3.725l-16.19-12.95Z" transform="translate(-1.559 1285.228)" fill="#e0e0e0"/>
    <path id="Path_1178" data-name="Path 1178" d="M469.034,264.7a3.781,3.781,0,0,0,1.581-4.547l-5.084,1.733Z" transform="translate(-1.573 1281.097)" fill="#141414"/>
    <path id="Path_1179" data-name="Path 1179" d="M573.235,284.189l-.195-.026-.58-.095-2.208-.4c-1.918-.348-4.684-.869-8.108-1.528-6.849-1.317-16.274-3.209-26.685-5.358l-26.648-5.542-8.077-1.691-2.192-.469-.569-.132a.84.84,0,0,1-.195-.053,1.091,1.091,0,0,1,.2.026l.574.1,2.2.422,8.108,1.612,26.669,5.463c10.405,2.15,19.836,4.073,26.669,5.437l8.087,1.612,2.2.448.574.121A.732.732,0,0,1,573.235,284.189Z" transform="translate(-16.832 1276.957)" fill="#455a64"/>
    <path id="Path_1180" data-name="Path 1180" d="M635.57,298.429a10.089,10.089,0,0,0,11.938-8,1.626,1.626,0,0,0,.042-.232c.606-5.558-2.755-10.437-8.1-11.464Z" transform="translate(-82.028 1272.306)" fill="#141414"/>
    <path id="Path_1181" data-name="Path 1181" d="M544.813,257.11s-4.557,14.378-5.827,14.694c-7.1,1.812-15.189.659-18.039.148-.321-.263-.7-.59-1.117-.98a4.439,4.439,0,0,1-.885-1.185,6.639,6.639,0,0,1-.669-1.718.574.574,0,0,0-1.054-.29c-.248.453-.079,2.007.9,3.556,0,0-5.711,3.625-6.96,3.593s-4.826-.121-4.452.374,4.452,1.175,4.452,1.175l7.376,2.5s27.059,7.281,30.763-4.478c2.266-7.207,3.836-11.448,4.189-13.171Z" transform="translate(-21.042 1282.536)" fill="#ffbe9d"/>
    <path id="Path_1182" data-name="Path 1182" d="M577.229,238.625s5.953,1.054,6.185,10.8a38.016,38.016,0,0,1-3.73,17.144l-10.474-5.5a64.69,64.69,0,0,0,5.268-14.82l2.719-7.629Z" transform="translate(-50.629 1291.284)" fill="#d0cde1"/>
    <path id="Path_1183" data-name="Path 1183" d="M574.178,254.13a2.642,2.642,0,0,1-.068.6c-.058.379-.158.927-.306,1.581a46.722,46.722,0,0,1-1.459,5.179,45.925,45.925,0,0,1-2.06,4.973c-.3.622-.558,1.117-.748,1.449a2.875,2.875,0,0,1-.316.527,2.22,2.22,0,0,1,.221-.558c.179-.406.406-.9.669-1.48.559-1.254,1.286-3.008,1.976-4.984s1.191-3.8,1.528-5.137q.232-.932.4-1.581A2.455,2.455,0,0,1,574.178,254.13Z" transform="translate(-50.634 1283.946)" fill="#455a64"/>
    <g id="Group_95" data-name="Group 95" transform="translate(332.524 1512.623)">
      <path id="Path_1184" data-name="Path 1184" d="M-2279.14-24.56l2.853,5.236L-2281.7-9.79h-5.778Z" transform="translate(2287.885 24.56)" fill="#038d08"/>
      <path id="Path_1185" data-name="Path 1185" d="M-2239.467-2.528l5.736,10.4h-7.362l-2.126-3.462Z" transform="translate(2252.074 6.927)" fill="#038d08"/>
      <path id="Path_1186" data-name="Path 1186" d="M-2251.654,34.131c-.108,0,1.7,2.925,1.7,2.925h-3.393Z" transform="translate(2260.179 -22.333)" fill="#038d08"/>
      <text id="Your_Company" data-name="Your Company" transform="translate(1.476 18.377)" fill="#455a64" font-size="2" font-family="Poppins-Medium, Poppins" font-weight="500"><tspan x="0" y="0">YOUR COMPANY</tspan></text>
    </g>
    <rect id="Rectangle_349" data-name="Rectangle 349" width="317" height="195" transform="translate(261 1459)" fill="none"/>
  </g>
</svg>
