<svg xmlns="http://www.w3.org/2000/svg" width="317" height="195" viewBox="0 0 317 195">
  <g id="SEO" transform="translate(-1350 -2485)">
    <g id="Group_93" data-name="Group 93" transform="translate(9.107 37.271)">
      <g id="Group_92" data-name="Group 92" transform="translate(1390.409 2488.729)">
        <path id="Path_799" data-name="Path 799" d="M439.575,361.726h15.049a1.925,1.925,0,0,0,1.925-1.925V355.17a3.23,3.23,0,0,0-3.23-3.23H439.46Z" transform="translate(-296.281 -240.238)" fill="#ebebeb"/>
        <path id="Path_800" data-name="Path 800" d="M428.6,380.274H399.005a1.455,1.455,0,0,1-1.455-1.459h0a1.455,1.455,0,0,1,1.455-1.455H428.6a1.455,1.455,0,0,1,1.455,1.455h0a1.455,1.455,0,0,1-1.455,1.459Z" transform="translate(-270.506 -255.871)" fill="#ebebeb"/>
        <path id="Path_801" data-name="Path 801" d="M379.552,275.985l16.3-.285,10.317,39.053-22.04.219-8.3-34.236a3.85,3.85,0,0,1,3.723-4.751Z" transform="translate(-257.082 -193.349)" fill="#e0e0e0"/>
        <path id="Path_802" data-name="Path 802" d="M398.95,384.93l-4.87,28.308h1.336l6.4-28.308Z" transform="translate(-268.372 -260.527)" fill="#ebebeb"/>
        <path id="Path_803" data-name="Path 803" d="M428.294,384.93l-5.174,28.308h1.332l6.71-28.308Z" transform="translate(-286.232 -260.527)" fill="#e0e0e0"/>
        <path id="Path_804" data-name="Path 804" d="M464.968,384.93l5.775,28.308h-1.336L462.1,384.93Z" transform="translate(-310.205 -260.527)" fill="#ebebeb"/>
        <path id="Path_805" data-name="Path 805" d="M423.12,275.7l8.038,39.091h6.16l-6.46-34.541a5.567,5.567,0,0,0-5.436-4.55Z" transform="translate(-286.232 -193.349)" fill="#ebebeb"/>
        <rect id="Rectangle_210" data-name="Rectangle 210" width="22.283" height="1.086" transform="translate(184.16 96.569) rotate(180)" fill="#ebebeb"/>
        <path id="Path_806" data-name="Path 806" d="M527.715,287.6l4.177-15.665h-17.4L510.71,287.6Z" transform="translate(-340.102 -191.036)" fill="#ebebeb"/>
        <path id="Path_807" data-name="Path 807" d="M513.42,287.575h15.542l3.619-13.755H516.958Z" transform="translate(-341.768 -192.192)" fill="#e0e0e0"/>
        <rect id="Rectangle_211" data-name="Rectangle 211" width="1.124" height="53.724" transform="translate(157.465 99.776)" fill="#f5f5f5"/>
        <rect id="Rectangle_212" data-name="Rectangle 212" width="1.124" height="53.57" transform="translate(158.589 99.93)" fill="#ebebeb"/>
        <rect id="Rectangle_213" data-name="Rectangle 213" width="1.124" height="53.724" transform="translate(226.789 99.776)" fill="#ebebeb"/>
        <rect id="Rectangle_214" data-name="Rectangle 214" width="1.124" height="53.57" transform="translate(227.913 99.93)" fill="#e0e0e0"/>
        <rect id="Rectangle_215" data-name="Rectangle 215" width="85.47" height="4.408" transform="translate(152.607 96.654)" fill="#e0e0e0"/>
        <rect id="Rectangle_216" data-name="Rectangle 216" width="37.628" height="7.292" transform="translate(189.723 101.062)" fill="#ebebeb"/>
        <path id="Path_808" data-name="Path 808" d="M610.909,331.119a.839.839,0,1,1-.839-.839A.839.839,0,0,1,610.909,331.119Z" transform="translate(-400.694 -226.916)" fill="#e0e0e0"/>
        <rect id="Rectangle_217" data-name="Rectangle 217" width="38.444" height="25.278" transform="translate(0 47.757) rotate(-90)" fill="#e0e0e0"/>
        <rect id="Rectangle_218" data-name="Rectangle 218" width="35.749" height="23.114" transform="translate(1.036 46.421) rotate(-90)" fill="#fafafa"/>
        <rect id="Rectangle_219" data-name="Rectangle 219" width="11.661" height="6.36" transform="translate(9.459 34.379) rotate(-90)" fill="#e0e0e0"/>
        <rect id="Rectangle_220" data-name="Rectangle 220" width="0.793" height="7.076" transform="translate(215.386 43.118)" fill="#e0e0e0"/>
        <path id="Path_813" data-name="Path 813" d="M304.067,367.4a9.847,9.847,0,0,1,6.121-.743A5.08,5.08,0,0,1,313.21,368a2.177,2.177,0,0,1,.031,3.018,2.891,2.891,0,0,1-1.906.485c-1.617,0-3.415-.3-4.7.67-.739.554-1.228,1.478-2.11,1.752a2.09,2.09,0,0,1-2.31-1.02,3.549,3.549,0,0,1-.258-2.629A4.007,4.007,0,0,1,304.067,367.4Z" transform="translate(-211.625 -249.179)" fill="#ebebeb"/>
        <path id="Path_814" data-name="Path 814" d="M294.9,320.508c1.155,1.628,3.353,1.089,4.377.1a8.307,8.307,0,0,0,1.856-3.8c.9-3.134,1.809-6.421,1.155-9.625a5.347,5.347,0,0,0-1.228-2.614,2.787,2.787,0,0,0-2.645-.878,4.079,4.079,0,0,0-2.31,2.425,22.934,22.934,0,0,0-2.264,9.832,7.985,7.985,0,0,0,1.074,4.55" transform="translate(-206.723 -210.527)" fill="#ebebeb"/>
        <path id="Path_815" data-name="Path 815" d="M267.525,331.206a5.925,5.925,0,0,0,.924-5.444,10.434,10.434,0,0,0-3.226-4.674,17.325,17.325,0,0,0-5.775-3.407,6.161,6.161,0,0,0-2.6-.443,2.726,2.726,0,0,0-2.179,1.32c-.608,1.155-.023,2.564.6,3.711a44.372,44.372,0,0,0,3.792,5.775,10.263,10.263,0,0,0,4.173,3.576c1.732.662,3.53.581,4.447-.62" transform="translate(-182.475 -218.892)" fill="#ebebeb"/>
        <path id="Path_816" data-name="Path 816" d="M296.356,387.29a3.3,3.3,0,0,0,.1-.739c.054-.535.119-1.213.2-2.013a28.744,28.744,0,0,1,.454-2.957,22.659,22.659,0,0,1,1.074-3.492,12.856,12.856,0,0,1,1.783-3.157,6.707,6.707,0,0,1,2.252-1.875,6.341,6.341,0,0,1,1.9-.589,3.468,3.468,0,0,0,.735-.108,3.745,3.745,0,0,0-.747,0,5.7,5.7,0,0,0-1.979.516,6.675,6.675,0,0,0-2.379,1.89,12.569,12.569,0,0,0-1.844,3.218,21.609,21.609,0,0,0-1.07,3.55,25.439,25.439,0,0,0-.385,3c-.062.855-.089,1.54-.1,2.025A3.881,3.881,0,0,0,296.356,387.29Z" transform="translate(-208.256 -252.785)" fill="#e0e0e0"/>
        <path id="Path_817" data-name="Path 817" d="M296.486,353.91a1.332,1.332,0,0,0,.023-.343v-.978c0-.851,0-2.083.042-3.6.077-3.041.339-6.31.843-10.926.477-4.335,1.12-9.382,1.8-12.666.142-.747.289-1.417.427-2.006s.243-1.1.354-1.509.166-.7.227-.951a1.714,1.714,0,0,0,.062-.339,1.2,1.2,0,0,0-.119.32c-.077.246-.169.558-.285.939s-.258.912-.4,1.5-.316,1.255-.474,2A110.96,110.96,0,0,0,297.09,337.1c-.5,4.62-.735,8.831-.77,11.881,0,1.54,0,2.756.054,3.607.023.385.046.724.062.982a1.685,1.685,0,0,0,.05.339Z" transform="translate(-208.248 -220.957)" fill="#e0e0e0"/>
        <path id="Path_818" data-name="Path 818" d="M279.458,349.737a7.2,7.2,0,0,0,0-1.024,27.787,27.787,0,0,0-.316-2.776,36.619,36.619,0,0,0-.9-4.042,33.116,33.116,0,0,0-1.69-4.782,25.452,25.452,0,0,0-4.962-7.727,13.135,13.135,0,0,0-1.155-1.086c-.181-.154-.339-.3-.5-.423l-.454-.312A5.947,5.947,0,0,0,268.6,327a29.379,29.379,0,0,1,2.826,2.518,26.859,26.859,0,0,1,4.839,7.7,37.725,37.725,0,0,1,1.7,4.735c.443,1.486.735,2.853.959,4s.335,2.094.408,2.745A6.282,6.282,0,0,0,279.458,349.737Z" transform="translate(-191.197 -224.899)" fill="#e0e0e0"/>
        <path id="Path_819" data-name="Path 819" d="M276.43,423.25l.812,11.145H291.56l.812-11.145Z" transform="translate(-196.015 -284.095)" fill="#e0e0e0"/>
        <rect id="Rectangle_229" data-name="Rectangle 229" width="19.033" height="4.393" transform="translate(79.033 134.763)" fill="#e0e0e0"/>
        <path id="Path_820" data-name="Path 820" d="M272.83,451.09v1.217h18.722V451.09Z" transform="translate(-193.801 -301.217)" fill="#ebebeb"/>
        <path id="Path_821" data-name="Path 821" d="M276.038,456.394l-.878-2.144H292.3l-1.024,2.144Z" transform="translate(-195.234 -303.16)" fill="#e0e0e0"/>
        <path id="Path_822" data-name="Path 822" d="M292.525,430.213s0,.039-.069.1l-.212.281-.835,1.07-.035.046-.038-.05-2.048-2.833h.119c-.612.862-1.29,1.825-2.017,2.857l-.065.089-.069-.085-2.391-2.845H285l-.131.166c-.743.928-1.459,1.829-2.137,2.695l-.073.089-.065-.092-2.017-2.857h.115l-2.468,2.822-.046.05-.035-.054-.77-1.309-.2-.347a.644.644,0,0,1-.062-.127.7.7,0,0,1,.085.112c.058.089.131.2.223.335l.816,1.286h-.077l2.445-2.868.062-.069.054.077,2.037,2.841h-.135l2.133-2.695.131-.166.069-.085.069.081,2.387,2.853h-.135l2.037-2.841.062-.081.058.081c.8,1.155,1.49,2.133,2.006,2.864h-.073l.866-1.039.231-.27C292.49,430.24,292.521,430.209,292.525,430.213Z" transform="translate(-196.434 -287.416)" fill="#f5f5f5"/>
        <path id="Path_823" data-name="Path 823" d="M292.763,422.919c0,.05-3.588.089-8.011.089s-8.011-.039-8.011-.089,3.584-.089,8.011-.089S292.763,422.868,292.763,422.919Z" transform="translate(-196.206 -283.836)" fill="#f5f5f5"/>
        <path id="Path_824" data-name="Path 824" d="M292.413,454.419c0,.05-3.9.092-8.7.092s-8.708-.042-8.708-.092,3.9-.089,8.708-.089S292.413,454.372,292.413,454.419Z" transform="translate(-195.136 -303.209)" fill="#f5f5f5"/>
        <g id="freepik--Floor--inject-2" transform="translate(9.028 153.538)">
          <path id="Path_825" data-name="Path 825" d="M309.67,460.71c0,.058-48.95.1-109.335.1S91,460.76,91,460.71s48.939-.1,109.335-.1S309.67,460.656,309.67,460.71Z" transform="translate(-91 -460.61)" fill="#263238"/>
        </g>
        <g id="freepik--speech-bubble--inject-2" transform="translate(16.261 37.942)">
          <path id="Path_859" data-name="Path 859" d="M111.945,174.657s.062.05.169.154.258.269.474.47a9.082,9.082,0,0,0,2.1,1.409,6.884,6.884,0,0,0,.8.335l.439.15.474.119a8.76,8.76,0,0,0,1.013.185c.177.019.362.027.547.038a3.945,3.945,0,0,0,.566,0,8.554,8.554,0,0,0,4.824-1.575l.031-.019h.031l4.289.812-.085.146-2.364-2.695-.05-.058.073-.058a9.209,9.209,0,0,0,1.032-1.84,9.432,9.432,0,0,0,.554-2.114,8.47,8.47,0,0,0-9.948-9.436,8.046,8.046,0,0,0-2.41.828,8.259,8.259,0,0,0-1.971,1.4,8.443,8.443,0,0,0-1.794,9.794c.085.166.162.323.235.474a3.365,3.365,0,0,0,.239.385,4.949,4.949,0,0,0,.385.6l.269.358a.7.7,0,0,1,.085.127l-.1-.115c-.073-.085-.166-.2-.285-.346a4.2,4.2,0,0,1-.423-.6c-.077-.123-.169-.25-.25-.385l-.243-.474a8.651,8.651,0,1,1,14.76,1.424v-.085l2.36,2.718.169.2-.258-.05-4.285-.828h.065a8.65,8.65,0,0,1-4.932,1.582,4.048,4.048,0,0,1-.574,0,4.82,4.82,0,0,1-.551-.046,9.749,9.749,0,0,1-1.028-.2l-.477-.127-.443-.158a7.025,7.025,0,0,1-.8-.346,8.767,8.767,0,0,1-2.09-1.459c-.208-.2-.354-.385-.458-.485A.739.739,0,0,1,111.945,174.657Z" transform="translate(-109.789 -160.345)" fill="#263238"/>
          <path id="Path_860" data-name="Path 860" d="M127.779,176.679l1.448-.481,1.451-.477-.312,1.494-.308,1.494-.785-.7-3.392,3.807-.7-.628,3.388-3.807Z" transform="translate(-119.255 -169.801)" fill="#263238"/>
        </g>
        <g id="freepik--Bullseye--inject-2" transform="translate(31.257)">
          <circle id="Ellipse_104" data-name="Ellipse 104" cx="18.918" cy="18.918" r="18.918" transform="translate(14.976 0)" fill="#008e10"/>
          <path id="Path_861" data-name="Path 861" d="M211.626,101.521a15.746,15.746,0,1,1,15.746-15.746A15.746,15.746,0,0,1,211.626,101.521Zm0-28.8a13.057,13.057,0,1,0,0-.012Z" transform="translate(-177.732 -66.858)" fill="#fff"/>
          <path id="Path_862" data-name="Path 862" d="M227.248,106.386a5.8,5.8,0,1,1,5.8-5.8A5.8,5.8,0,0,1,227.248,106.386Zm0-8.9a3.1,3.1,0,1,0,3.1,3.1,3.1,3.1,0,0,0-3.1-3.1Z" transform="translate(-193.458 -82.086)" fill="#fff"/>
          <path id="Path_863" data-name="Path 863" d="M199.277,109.85h-7.33l1.274,2.26-17.251,7.911.581.97,17.313-7.819,1.186,2.248Z" transform="translate(-165.487 -91.348)" fill="#2d2d2d"/>
          <path id="Path_864" data-name="Path 864" d="M159.235,134.393l-.185-.181a3.511,3.511,0,0,0-3.426-.855l-6.883,2.006,3.85,1.682-1.54,4.1,6.456-2.31a3.5,3.5,0,0,0,2.31-3.465h0Z" transform="translate(-148.74 -105.72)" fill="#141414"/>
        </g>
        <g id="freepik--Graphics--inject-2" transform="translate(73.951 3.323)">
          <rect id="Rectangle_230" data-name="Rectangle 230" width="47.661" height="44.993" rx="4.94" transform="translate(81.882 0.1)" fill="#fafafa"/>
          <path id="Path_865" data-name="Path 865" d="M517.977,115.513a3.131,3.131,0,0,0,.466-.073,1.9,1.9,0,0,0,1.089-.77,1.848,1.848,0,0,0,.316-.943v-4.285c0-4.62,0-11.272-.031-19.507V72.768a2.7,2.7,0,0,0-.088-.9,1.805,1.805,0,0,0-.477-.77,1.782,1.782,0,0,0-.789-.439,3.545,3.545,0,0,0-.935-.062h-43.4a1.806,1.806,0,0,0-1.7,1.2,3.272,3.272,0,0,0-.1,1.124V113.75a1.813,1.813,0,0,0,1.844,1.648h17.17l19.507.031,5.3.019h0l-5.3.019-19.507.031H474.174a2.017,2.017,0,0,1-1.686-.87,2.071,2.071,0,0,1-.331-.936c-.019-.335,0-.643,0-.97V72.364a1.925,1.925,0,0,1,.112-.6,2.006,2.006,0,0,1,1.89-1.34h43.857a1.982,1.982,0,0,1,.5.069,1.955,1.955,0,0,1,.862.481,2.012,2.012,0,0,1,.5.828,2.826,2.826,0,0,1,.092.959V89.923c0,8.235-.027,14.9-.035,19.507v4.289a1.9,1.9,0,0,1-1.451,1.732A1.541,1.541,0,0,1,517.977,115.513Z" transform="translate(-390.336 -70.42)" fill="#263238"/>
          <rect id="Rectangle_231" data-name="Rectangle 231" width="2.568" height="22.075" transform="translate(90.201 18.113)" fill="#008e10"/>
          <rect id="Rectangle_232" data-name="Rectangle 232" width="2.568" height="23.869" transform="translate(101.878 16.323)" fill="#008e10"/>
          <rect id="Rectangle_233" data-name="Rectangle 233" width="2.568" height="26.899" transform="translate(113.974 13.293)" fill="#008e10"/>
          <rect id="Rectangle_234" data-name="Rectangle 234" width="2.568" height="10.749" transform="translate(108.291 29.44)" fill="#141414"/>
          <rect id="Rectangle_235" data-name="Rectangle 235" width="2.568" height="24.442" transform="translate(93.192 15.75)" fill="#2d2d2d"/>
          <rect id="Rectangle_236" data-name="Rectangle 236" width="2.568" height="29.563" transform="translate(105.081 10.629)" fill="#2d2d2d"/>
          <rect id="Rectangle_237" data-name="Rectangle 237" width="2.568" height="29.563" transform="translate(120.599 10.629)" fill="#141414"/>
          <rect id="Rectangle_238" data-name="Rectangle 238" width="2.568" height="35.399" transform="translate(117.404 4.789)" fill="#2d2d2d"/>
          <rect id="Rectangle_239" data-name="Rectangle 239" width="2.568" height="15.511" transform="translate(96.338 24.677)" fill="#141414"/>
          <path id="Path_866" data-name="Path 866" d="M523.7,178.13c0,.058-9.166.1-20.473.1s-20.477-.042-20.477-.1,9.166-.1,20.477-.1S523.7,178.076,523.7,178.13Z" transform="translate(-396.857 -136.602)" fill="#263238"/>
          <rect id="Rectangle_240" data-name="Rectangle 240" width="1.567" height="0.589" transform="translate(84.704 36.261)" fill="#263238"/>
          <rect id="Rectangle_241" data-name="Rectangle 241" width="1.567" height="0.589" transform="translate(84.704 28.408)" fill="#263238"/>
          <rect id="Rectangle_242" data-name="Rectangle 242" width="1.567" height="0.589" transform="translate(84.704 13.621)" fill="#263238"/>
          <rect id="Rectangle_243" data-name="Rectangle 243" width="1.567" height="0.589" transform="translate(84.704 6.191)" fill="#263238"/>
          <rect id="Rectangle_244" data-name="Rectangle 244" width="1.567" height="0.589" transform="translate(84.781 21.016)" fill="#263238"/>
          <rect id="Rectangle_245" data-name="Rectangle 245" width="88.68" height="69.016" transform="translate(0.073 16.547)" fill="#fff"/>
          <path id="Path_867" data-name="Path 867" d="M348.39,182.225c0-.689-.031-27.368-.081-69.016l.081.081H259.721l.1-.1v69.016l-.089-.089,88.677.089-88.677.089h-.092v-69.2H348.5v.085C348.424,154.857,348.394,181.536,348.39,182.225Z" transform="translate(-259.64 -96.663)" fill="#263238"/>
          <path id="Path_868" data-name="Path 868" d="M327.74,221.016c-.058,0-.1-6.964-.1-15.553s.042-15.553.1-15.553.1,6.96.1,15.553S327.779,221.016,327.74,221.016Z" transform="translate(-301.461 -143.909)" fill="#263238"/>
          <path id="Path_869" data-name="Path 869" d="M420.55,221.016c-.054,0-.1-6.964-.1-15.553s.046-15.553.1-15.553.1,6.96.1,15.553S420.6,221.016,420.55,221.016Z" transform="translate(-358.541 -143.909)" fill="#263238"/>
          <path id="Path_870" data-name="Path 870" d="M359.42,207.179c-.054,0-.1-8.9-.1-19.884s.046-19.884.1-19.884.1,8.9.1,19.884S359.478,207.179,359.42,207.179Z" transform="translate(-320.945 -130.071)" fill="#263238"/>
          <path id="Path_871" data-name="Path 871" d="M295.2,207.179c-.058,0-.1-8.9-.1-19.884s.042-19.884.1-19.884.1,8.9.1,19.884S295.254,207.179,295.2,207.179Z" transform="translate(-281.449 -130.071)" fill="#263238"/>
          <path id="Path_872" data-name="Path 872" d="M456.98,207.179c-.054,0-.1-8.9-.1-19.884s.046-19.884.1-19.884.1,8.9.1,19.884S457.034,207.179,456.98,207.179Z" transform="translate(-380.946 -130.071)" fill="#263238"/>
          <path id="Path_873" data-name="Path 873" d="M387.21,197.357c-.058,0-.1-10.279-.1-22.96s.042-22.956.1-22.956.1,10.275.1,22.956S387.264,197.357,387.21,197.357Z" transform="translate(-338.036 -120.249)" fill="#263238"/>
          <path id="Path_874" data-name="Path 874" d="M327.725,189.443a.293.293,0,1,1-.293-.293.293.293,0,0,1,.293.293Z" transform="translate(-301.154 -143.441)" fill="#263238"/>
          <path id="Path_875" data-name="Path 875" d="M359.405,166.943a.293.293,0,1,1-.293-.293A.293.293,0,0,1,359.405,166.943Z" transform="translate(-320.637 -129.603)" fill="#263238"/>
          <path id="Path_876" data-name="Path 876" d="M357.919,166.789a1.039,1.039,0,1,1,1.039-1.039A1.039,1.039,0,0,1,357.919,166.789Zm0-1.983a.936.936,0,1,1,0,.015Z" transform="translate(-319.444 -128.41)" fill="#008e10"/>
          <circle id="Ellipse_105" data-name="Ellipse 105" cx="0.293" cy="0.293" r="0.293" transform="translate(48.881 30.899)" fill="#263238"/>
          <path id="Path_877" data-name="Path 877" d="M420.535,190.193a.293.293,0,1,1-.293-.293A.293.293,0,0,1,420.535,190.193Z" transform="translate(-358.234 -143.902)" fill="#263238"/>
          <path id="Path_878" data-name="Path 878" d="M456.985,166.943a.293.293,0,1,1-.293-.293.293.293,0,0,1,.293.293Z" transform="translate(-380.651 -129.603)" fill="#263238"/>
          <path id="Path_879" data-name="Path 879" d="M295.175,167.7a.293.293,0,1,1-.289-.293A.293.293,0,0,1,295.175,167.7Z" transform="translate(-281.135 -130.071)" fill="#263238"/>
          <path id="Path_880" data-name="Path 880" d="M351.7,191.942c0,.031-.323.077-.885.32a6.341,6.341,0,0,0-2.11,1.621c-.789.862-1.578,2.064-2.576,3.415a16.816,16.816,0,0,1-1.763,2.06,10.174,10.174,0,0,1-1.155.955,8.139,8.139,0,0,1-1.386.77,7.888,7.888,0,0,1-3.33.566,8.792,8.792,0,0,1-1.79-.223,4.654,4.654,0,0,1-1.744-.77,5.673,5.673,0,0,1-1.363-1.417,18.441,18.441,0,0,1-1.032-1.686c-.643-1.155-1.309-2.31-2.063-3.5s-1.44-2.441-2.206-3.669a18.128,18.128,0,0,0-2.695-3.465,7.7,7.7,0,0,0-1.794-1.27,6.572,6.572,0,0,0-1.024-.42c-.181-.046-.362-.081-.543-.119l-.273-.058c-.092-.019-.185,0-.277-.027a7.719,7.719,0,0,0-4.377.932,11.456,11.456,0,0,0-3.369,3.141,35.029,35.029,0,0,0-2.425,3.892,26.189,26.189,0,0,1-5.22,7.084,8.955,8.955,0,0,1-3.634,2.021,6.855,6.855,0,0,1-2.006.219,7.507,7.507,0,0,1-1.925-.358,12.816,12.816,0,0,1-3.226-1.69c-.955-.658-1.829-1.344-2.676-1.956a14.358,14.358,0,0,0-2.529-1.54,8.468,8.468,0,0,0-2.514-.724,6.291,6.291,0,0,0-2.26.139,4.025,4.025,0,0,0-.489.158,3.373,3.373,0,0,0-.454.177,6.026,6.026,0,0,0-.8.439,8.656,8.656,0,0,0-1.213.959c-.3.335-.577.6-.77.843a5.345,5.345,0,0,1-.6.735,5.7,5.7,0,0,1,.5-.808c.173-.262.443-.543.731-.9a8.547,8.547,0,0,1,1.209-1.028,6.379,6.379,0,0,1,.82-.477,3.5,3.5,0,0,1,.473-.2,4.142,4.142,0,0,1,.508-.173,6.4,6.4,0,0,1,2.368-.2,8.6,8.6,0,0,1,2.633.7,14.537,14.537,0,0,1,2.622,1.54c.866.608,1.744,1.278,2.695,1.925a12.558,12.558,0,0,0,3.118,1.6,7.131,7.131,0,0,0,1.79.32,6.469,6.469,0,0,0,1.852-.219,8.435,8.435,0,0,0,3.4-1.925,25.967,25.967,0,0,0,5.074-6.957,34.96,34.96,0,0,1,2.46-3.965,11.936,11.936,0,0,1,3.55-3.307,8.289,8.289,0,0,1,4.766-1.009,2.692,2.692,0,0,1,.3.027l.3.065c.2.042.385.081.6.131a7.139,7.139,0,0,1,1.12.462,8.257,8.257,0,0,1,1.925,1.374,18.477,18.477,0,0,1,2.764,3.584c.77,1.247,1.459,2.5,2.19,3.677s1.428,2.379,2.056,3.534a8.344,8.344,0,0,0,2.221,2.953,4.258,4.258,0,0,0,1.571.7,8.449,8.449,0,0,0,1.694.223,7.45,7.45,0,0,0,3.149-.493,8,8,0,0,0,1.32-.7,9.206,9.206,0,0,0,1.113-.9,16.466,16.466,0,0,0,1.759-1.983,41.01,41.01,0,0,1,2.695-3.376,6.2,6.2,0,0,1,2.233-1.575,3.761,3.761,0,0,1,.689-.181Q351.7,191.915,351.7,191.942Z" transform="translate(-272.906 -140.516)" fill="#008e10"/>
          <rect id="Rectangle_246" data-name="Rectangle 246" width="14.356" height="0.797" transform="translate(13.459 25.613)" fill="#263238"/>
          <rect id="Rectangle_247" data-name="Rectangle 247" width="7.095" height="0.797" transform="translate(13.459 27.484)" fill="#263238"/>
          <path id="Path_1389" data-name="Path 1389" d="M0,0H88.68V5.544H0Z" transform="translate(0.073 14.533)" fill="#141414"/>
        </g>
        <g id="freepik--character-2--inject-2" transform="translate(164.255 41.148)">
          <path id="Path_881" data-name="Path 881" d="M594.38,401.445l12.889,15.78,3.265-3.985-9.748-14.121Z" transform="translate(-555.815 -310.402)" fill="#ffbe9d"/>
          <path id="Path_882" data-name="Path 882" d="M624.429,439.528l-.385-.362,3.754-4.416,1.617,1.478-.227.281c-1.013,1.228-5.236,6.16-6.194,6.733C621.919,443.87,624.429,439.528,624.429,439.528Z" transform="translate(-573.248 -332.315)" fill="#141414"/>
          <g id="Group_81" data-name="Group 81" transform="translate(54.301 102.774)" opacity="0.5">
            <path id="Path_883" data-name="Path 883" d="M635.665,438.275a2.018,2.018,0,0,1-.4-1.374,1.925,1.925,0,0,1,.608-1.27l1.182,1.09Z" transform="translate(-635.255 -435.63)" fill="#fff"/>
          </g>
          <g id="Group_82" data-name="Group 82" transform="translate(49.481 103.832)" opacity="0.5">
            <path id="Path_884" data-name="Path 884" d="M623.272,443.939s-.8,1.6-.447,1.632,4.812-4.8,6.591-7.111l-.1-.081-5.155,5.686S623.511,443.7,623.272,443.939Z" transform="translate(-622.735 -438.38)" fill="#fff"/>
          </g>
          <path id="Path_885" data-name="Path 885" d="M629.4,438.21l-.058.077c-.054.069-.115.139-.181.223l-.678.8c-.577.67-1.382,1.586-2.31,2.583s-1.763,1.875-2.383,2.5l-.743.743-.2.2-.077.065.066-.077.2-.2.724-.77c.616-.639,1.455-1.54,2.371-2.518s1.725-1.906,2.31-2.568l.693-.77.192-.212A.758.758,0,0,1,629.4,438.21Z" transform="translate(-573.275 -334.443)" fill="#263238"/>
          <path id="Path_886" data-name="Path 886" d="M624.966,452.859a2.132,2.132,0,0,0-.5-.2,2.327,2.327,0,0,0-.535,0,.937.937,0,0,1,1.036.2Z" transform="translate(-573.989 -343.279)" fill="#263238"/>
          <path id="Path_887" data-name="Path 887" d="M627.108,448.378a.608.608,0,0,1-.285,0c-.154-.027-.277-.065-.273-.085a.608.608,0,0,1,.285,0A.689.689,0,0,1,627.108,448.378Z" transform="translate(-575.6 -340.634)" fill="#263238"/>
          <path id="Path_888" data-name="Path 888" d="M627.541,447.2a1,1,0,0,1-.235.058,1.123,1.123,0,0,1-.246,0,.821.821,0,0,1,.239-.058C627.429,447.19,627.541,447.182,627.541,447.2Z" transform="translate(-575.914 -339.966)" fill="#263238"/>
          <path id="Path_889" data-name="Path 889" d="M627.147,445.7a1.234,1.234,0,0,1-.173.246c-.112.123-.212.212-.227.2s.062-.123.173-.246S627.136,445.682,627.147,445.7Z" transform="translate(-575.72 -339.047)" fill="#263238"/>
          <path id="Path_890" data-name="Path 890" d="M626.562,444.829a.612.612,0,0,1-.154.312c-.123.154-.258.239-.269.223s.1-.119.212-.266S626.543,444.822,626.562,444.829Z" transform="translate(-575.347 -338.514)" fill="#263238"/>
          <path id="Path_891" data-name="Path 891" d="M625.023,447.965a.983.983,0,0,1-.254.269,1.7,1.7,0,0,1-.331.231.828.828,0,0,1-.219.1.181.181,0,0,1-.146,0,.146.146,0,0,1-.073-.139.685.685,0,0,1,.716-.485.7.7,0,0,1,.266.081.233.233,0,0,1,.077.058,1.2,1.2,0,0,0-.346-.089.69.69,0,0,0-.385.092.562.562,0,0,0-.273.346c0,.073.058.1.131.081a1.374,1.374,0,0,0,.2-.092,2.238,2.238,0,0,0,.331-.216A2.733,2.733,0,0,0,625.023,447.965Z" transform="translate(-574.031 -340.429)" fill="#263238"/>
          <path id="Path_892" data-name="Path 892" d="M625.944,447a.385.385,0,0,1-.219-.142.651.651,0,0,1-.131-.258.385.385,0,0,1,.069-.354.142.142,0,0,1,.2.031.44.44,0,0,1,.081.158,1.174,1.174,0,0,1,.046.281.549.549,0,0,1-.035.258v-.254a1.326,1.326,0,0,0-.058-.266c-.023-.089-.1-.212-.181-.154a.316.316,0,0,0-.046.285.61.61,0,0,0,.1.243A1.2,1.2,0,0,0,625.944,447Z" transform="translate(-575.002 -339.365)" fill="#263238"/>
          <path id="Path_893" data-name="Path 893" d="M635.645,435.659a4.064,4.064,0,0,0-.277.319,1.857,1.857,0,0,0-.347.943,1.825,1.825,0,0,0,.208.982c.123.235.239.35.231.362a.451.451,0,0,1-.089-.081,1.563,1.563,0,0,1-.185-.254,1.755,1.755,0,0,1,.142-1.979,1.393,1.393,0,0,1,.219-.227C635.607,435.675,635.641,435.655,635.645,435.659Z" transform="translate(-580.765 -332.874)" fill="#263238"/>
          <path id="Path_894" data-name="Path 894" d="M632.18,442.909a3.251,3.251,0,0,1-.516.67,3.343,3.343,0,0,1-.624.57s.258-.273.574-.616S632.156,442.9,632.18,442.909Z" transform="translate(-578.362 -337.333)" fill="#263238"/>
          <path id="Path_895" data-name="Path 895" d="M635.963,440.74s.038.077.073.162.081.154.065.169-.085-.042-.127-.142S635.928,440.74,635.963,440.74Z" transform="translate(-581.375 -335.999)" fill="#263238"/>
          <path id="Path_896" data-name="Path 896" d="M635.65,439a.391.391,0,0,1,.042.154c0,.085,0,.154-.031.154s-.038-.065-.042-.15S635.631,439,635.65,439Z" transform="translate(-581.178 -334.929)" fill="#263238"/>
          <path id="Path_897" data-name="Path 897" d="M636.042,437.4c0,.019-.042.073-.077.154s-.046.158-.065.162-.046-.089,0-.189S636.03,437.38,636.042,437.4Z" transform="translate(-581.335 -333.94)" fill="#263238"/>
          <path id="Path_898" data-name="Path 898" d="M636.726,436.37v.1c0,.046-.05.081-.069.073s0-.05,0-.1A.082.082,0,0,1,636.726,436.37Z" transform="translate(-581.811 -333.311)" fill="#263238"/>
          <path id="Path_899" data-name="Path 899" d="M535.856,438.44l-1.136,6.98h5.971l1.371-5.686Z" transform="translate(-519.123 -334.585)" fill="#ffbe9d"/>
          <path id="Path_900" data-name="Path 900" d="M528.907,456.108v-.531l5.8-.027-.069,2.187h-.358c-1.59.031-8.085.046-9.147-.312C523.975,457.017,528.907,456.108,528.907,456.108Z" transform="translate(-513.117 -345.108)" fill="#141414"/>
          <g id="Group_83" data-name="Group 83" transform="translate(19.447 110.899)" opacity="0.5">
            <path id="Path_901" data-name="Path 901" d="M544.72,458.331a2.013,2.013,0,0,1,.77-1.2,1.944,1.944,0,0,1,1.363-.385l-.058,1.609Z" transform="translate(-544.72 -456.736)" fill="#fff"/>
          </g>
          <g id="Group_84" data-name="Group 84" transform="translate(11.84 111.52)" opacity="0.5">
            <path id="Path_902" data-name="Path 902" d="M526.516,458.35s-1.732.435-1.54.724,6.776.524,9.686.385v-.127l-7.673-.2S526.832,458.377,526.516,458.35Z" transform="translate(-524.961 -458.35)" fill="#fff"/>
          </g>
          <path id="Path_903" data-name="Path 903" d="M534.72,460.306h-1.432c-.885,0-2.106,0-3.465-.062s-2.572-.115-3.465-.177l-1.043-.081-.285-.027h.285l1.047.058c.882.05,2.1.108,3.465.158s2.572.069,3.465.081h1.332Z" transform="translate(-513.102 -347.82)" fill="#263238"/>
          <path id="Path_904" data-name="Path 904" d="M529.37,459.09a2.11,2.11,0,0,0-.177-.508,2.585,2.585,0,0,0-.343-.412.8.8,0,0,1,.385.385A.77.77,0,0,1,529.37,459.09Z" transform="translate(-515.513 -346.719)" fill="#263238"/>
          <path id="Path_905" data-name="Path 905" d="M534.228,457.691a1.3,1.3,0,0,1-.173-.227c-.081-.135-.131-.254-.112-.266s.092.092.173.227S534.247,457.68,534.228,457.691Z" transform="translate(-518.643 -346.121)" fill="#263238"/>
          <path id="Path_906" data-name="Path 906" d="M535.358,457.339a.87.87,0,0,1-.2-.142A1.045,1.045,0,0,1,535,457a.872.872,0,0,1,.2.142C535.3,457.235,535.385,457.323,535.358,457.339Z" transform="translate(-519.295 -345.999)" fill="#263238"/>
          <path id="Path_907" data-name="Path 907" d="M535.781,456.413a.648.648,0,0,1-.3.031.682.682,0,0,1-.3-.042.647.647,0,0,1,.3-.031A.681.681,0,0,1,535.781,456.413Z" transform="translate(-519.406 -345.609)" fill="#263238"/>
          <path id="Path_908" data-name="Path 908" d="M535.905,455.509a.616.616,0,0,1-.339.085.628.628,0,0,1-.346-.058,1.873,1.873,0,0,1,.343,0A1.758,1.758,0,0,1,535.905,455.509Z" transform="translate(-519.431 -345.082)" fill="#263238"/>
          <path id="Path_909" data-name="Path 909" d="M532.5,456.312a.987.987,0,0,1-.385,0,2.069,2.069,0,0,1-.385-.1,1.02,1.02,0,0,1-.223-.1.2.2,0,0,1-.088-.119.154.154,0,0,1,.062-.146.677.677,0,0,1,.831.231.621.621,0,0,1,.112.25.251.251,0,0,1,0,.1,1.1,1.1,0,0,0-.158-.323.693.693,0,0,0-.308-.216.57.57,0,0,0-.443,0c-.062.042-.039.112.023.154a1.384,1.384,0,0,0,.2.092,2.524,2.524,0,0,0,.385.115C532.361,456.3,532.5,456.3,532.5,456.312Z" transform="translate(-517.091 -345.254)" fill="#263238"/>
          <path id="Path_910" data-name="Path 910" d="M533.931,456.071a.385.385,0,0,1-.035-.258.6.6,0,0,1,.112-.266.385.385,0,0,1,.316-.177.146.146,0,0,1,.108.173.445.445,0,0,1-.069.162,1.091,1.091,0,0,1-.181.219.568.568,0,0,1-.219.142,2.426,2.426,0,0,0,.181-.177,1.5,1.5,0,0,0,.165-.216c.054-.077.092-.216,0-.239s-.189.077-.25.15a.567.567,0,0,0-.112.235,1.21,1.21,0,0,0-.015.25Z" transform="translate(-518.611 -344.997)" fill="#263238"/>
          <path id="Path_911" data-name="Path 911" d="M546.857,456.689a4.12,4.12,0,0,0-.424,0,1.79,1.79,0,0,0-1.54,1.155c-.1.243-.112.408-.123.408a.267.267,0,0,1,0-.116,1.558,1.558,0,0,1,.073-.312,1.771,1.771,0,0,1,.612-.835,1.8,1.8,0,0,1,.982-.343,1.43,1.43,0,0,1,.316.019C546.818,456.67,546.857,456.682,546.857,456.689Z" transform="translate(-525.3 -345.781)" fill="#263238"/>
          <path id="Path_912" data-name="Path 912" d="M540.2,459.272a4.618,4.618,0,0,1-1.682-.054,5.653,5.653,0,0,1,.843.035C539.821,459.287,540.2,459.253,540.2,459.272Z" transform="translate(-521.46 -347.359)" fill="#263238"/>
          <path id="Path_913" data-name="Path 913" d="M545.544,459.456l-.073.162c-.039.085-.065.162-.085.158s-.027-.092.019-.189S545.532,459.44,545.544,459.456Z" transform="translate(-525.674 -347.508)" fill="#263238"/>
          <path id="Path_914" data-name="Path 914" d="M546.632,458.115a.385.385,0,0,1-.089.131c-.062.058-.123.1-.139.081s.027-.073.089-.131S546.609,458.1,546.632,458.115Z" transform="translate(-526.308 -346.683)" fill="#263238"/>
          <path id="Path_915" data-name="Path 915" d="M548.047,457.493c0,.019-.081,0-.169.042s-.146.069-.162.058.038-.092.142-.123S548.051,457.474,548.047,457.493Z" transform="translate(-527.114 -346.281)" fill="#263238"/>
          <path id="Path_916" data-name="Path 916" d="M549.433,457.272a.174.174,0,0,1-.073.065.161.161,0,0,1-.1,0,.133.133,0,0,1,.077-.062C549.387,457.26,549.429,457.253,549.433,457.272Z" transform="translate(-528.065 -346.159)" fill="#263238"/>
          <path id="Path_917" data-name="Path 917" d="M567.607,221.718l-9.794.835s-2.937.065-6.121,7.519l-2.2,4.335,4.293,2.741h0l.181,2.695.385,10.91,18.156-1.336c-.408-2.475-2.345-5.736-3-7.827.662-1.652,4.5-8.377,4.489-11.838,0-7.4-6.4-8.042-6.4-8.042" transform="translate(-528.207 -201.292)" fill="#d0cde1"/>
          <path id="Path_918" data-name="Path 918" d="M571.559,261.458a3.2,3.2,0,0,0-1.278-.123,5.741,5.741,0,0,0-1.363.358,9.117,9.117,0,0,1-1.69.5,5.74,5.74,0,0,1-3.164-.385,4.853,4.853,0,0,1-.851-.466c-.189-.135-.281-.216-.273-.227a9.164,9.164,0,0,0,1.178.562,6.026,6.026,0,0,0,3.08.316,10.1,10.1,0,0,0,1.659-.485,5.581,5.581,0,0,1,1.409-.323,2.549,2.549,0,0,1,.974.1A.77.77,0,0,1,571.559,261.458Z" transform="translate(-536.478 -225.529)" fill="#fafafa"/>
          <path id="Path_919" data-name="Path 919" d="M554.284,251.891c-.042.042-.5-.42-1.193-.77s-1.328-.493-1.32-.551A3.219,3.219,0,0,1,554.284,251.891Z" transform="translate(-529.609 -219.041)" fill="#fafafa"/>
          <path id="Path_920" data-name="Path 920" d="M572.1,248.7a9.449,9.449,0,0,1,.046-1.27c.046-.266.05-.57.108-.9a19.481,19.481,0,0,1,.493-2.31,28.949,28.949,0,0,1,.932-2.745,46.824,46.824,0,0,1,2.271-4.739c.32-.593.585-1.066.77-1.39a3.138,3.138,0,0,1,.312-.5,3.078,3.078,0,0,1-.243.531l-.716,1.421c-.608,1.2-1.444,2.853-2.21,4.751-.385.947-.693,1.871-.943,2.718a21.8,21.8,0,0,0-.531,2.287c-.065.331-.1.631-.135.893s-.065.493-.081.678A2.962,2.962,0,0,1,572.1,248.7Z" transform="translate(-542.107 -209.373)" fill="#fafafa"/>
          <path id="Path_921" data-name="Path 921" d="M560.92,233.824a1.346,1.346,0,0,1,.1-.358c.081-.227.212-.554.385-.947a19.4,19.4,0,0,1,3.777-5.548c.3-.308.554-.547.739-.7a1.238,1.238,0,0,1,.3-.227c.023.023-.358.385-.932,1.028a24.021,24.021,0,0,0-3.753,5.5C561.159,233.339,560.951,233.836,560.92,233.824Z" transform="translate(-535.237 -203.955)" fill="#fafafa"/>
          <path id="Path_922" data-name="Path 922" d="M570.445,238.608a2.178,2.178,0,0,0-.485-.154,3.114,3.114,0,0,0-1.374.1,7.57,7.57,0,0,1-2.083.346,4.831,4.831,0,0,1-2.4-.955c-.77-.524-1.405-1.1-2.063-1.513a4.308,4.308,0,0,0-1.925-.724,2.768,2.768,0,0,0-1.355.181c-.3.135-.443.254-.454.239s.031-.039.1-.1a1.656,1.656,0,0,1,.327-.212,2.664,2.664,0,0,1,1.4-.254,4.351,4.351,0,0,1,1.987.708c.681.416,1.34.993,2.079,1.505a4.755,4.755,0,0,0,2.31.936,8.108,8.108,0,0,0,2.036-.3,2.984,2.984,0,0,1,1.421-.035,1.341,1.341,0,0,1,.362.15C570.411,238.573,570.449,238.6,570.445,238.608Z" transform="translate(-533.628 -209.804)" fill="#fafafa"/>
          <path id="Path_923" data-name="Path 923" d="M559.541,252.63a6.511,6.511,0,0,0-.031-1.6,13.286,13.286,0,0,0-.408-1.7,14.291,14.291,0,0,1-.5-2.11,4.192,4.192,0,0,1,.246-2.164,5.266,5.266,0,0,1,.993-1.474,9.65,9.65,0,0,1,.855-.824,1.539,1.539,0,0,1,.346-.269c.027.027-.443.443-1.1,1.19a5.391,5.391,0,0,0-.928,1.451,4.059,4.059,0,0,0-.216,2.067,16.009,16.009,0,0,0,.474,2.083,11.733,11.733,0,0,1,.385,1.729,4.7,4.7,0,0,1,0,1.193A1.743,1.743,0,0,1,559.541,252.63Z" transform="translate(-533.785 -214.072)" fill="#263238"/>
          <path id="Path_924" data-name="Path 924" d="M546.5,291.887a167.443,167.443,0,0,0-6.06,26.417c-1.671,12.985-3.715,30.841-3.715,30.841l6.025.119L553.9,314.412l11.342-16.046-1.124-9.786Z" transform="translate(-520.359 -242.418)" fill="#141414"/>
          <path id="Path_925" data-name="Path 925" d="M562.4,297.113l4.177,34.417,17,17.247,3.73-5.155L575.258,324.5l2.71-30.094L561.73,297.5" transform="translate(-535.735 -246.003)" fill="#141414"/>
          <path id="Path_926" data-name="Path 926" d="M579.69,340.159a.986.986,0,0,1-.1.192,5.626,5.626,0,0,1-.335.516,13.454,13.454,0,0,1-1.517,1.675,24.813,24.813,0,0,0-2.31,2.387,10.676,10.676,0,0,0-1.744,3.638c-.4,1.39-.77,2.722-1.024,3.95s-.439,2.348-.731,3.265-.562,1.625-.708,2.137a8.015,8.015,0,0,1-.235.789.735.735,0,0,1,.023-.212c.027-.139.069-.343.135-.6.127-.52.385-1.247.651-2.156s.427-2.029.685-3.261.608-2.572,1.013-3.969a10.722,10.722,0,0,1,1.8-3.684,23.352,23.352,0,0,1,2.36-2.375,14.987,14.987,0,0,0,1.54-1.621C579.524,340.4,579.67,340.148,579.69,340.159Z" transform="translate(-541.429 -274.14)" fill="#455a64"/>
          <path id="Path_927" data-name="Path 927" d="M593.714,371.957a13.64,13.64,0,0,0-1.247,1.036,13.9,13.9,0,0,0-.966,1.274,3.465,3.465,0,0,1,2.214-2.337Z" transform="translate(-554.044 -293.68)" fill="#455a64"/>
          <path id="Path_928" data-name="Path 928" d="M592.578,372.337a10.849,10.849,0,0,1-1.286.108,9.524,9.524,0,0,1-1.282.139,2.76,2.76,0,0,1,1.263-.339A2.7,2.7,0,0,1,592.578,372.337Z" transform="translate(-553.128 -293.848)" fill="#455a64"/>
          <path id="Path_929" data-name="Path 929" d="M524.733,261.21l-.943,4.112,12.412.766Z" transform="translate(-512.401 -225.585)" fill="#008e10"/>
          <g id="Group_85" data-name="Group 85" transform="translate(11.389 35.625)" opacity="0.3">
            <path id="Path_930" data-name="Path 930" d="M524.733,261.21l-.943,4.112,12.412.766Z" transform="translate(-523.79 -261.21)"/>
          </g>
          <path id="Path_931" data-name="Path 931" d="M548.479,247.691a22.706,22.706,0,0,0-1.96-1.34c-.212-.046-1.459.947-1.459.947s.416-1.717-.331-2.583-1.944-.9-3.338,0a14.126,14.126,0,0,1-4.277,1.34l-.909-1.394c-.454-.7-1-.431-2.872-.385s-6.883-2.656-6.883-2.656-2.768-2-6.11-4.454l.77-.959a1.351,1.351,0,0,0-.227-1.894h0a1.351,1.351,0,0,0-1.894.227l-.088.112a.97.97,0,0,0-1.636-1.016l-.366.47a.966.966,0,0,0-1.663-.735c-1.967-1.474-3.757-2.845-4.939-3.8-4.208-3.4-5.232-9.69-5.232-9.69-1.54.385-1.54,1.371-1.54,2.46v.77a6.2,6.2,0,0,0-3.738-.142,5.725,5.725,0,0,0-2.579,1.609,1.586,1.586,0,1,0-.539.6c.046-.031.085-.069.127-.1a5.147,5.147,0,0,0-.712,1.34,5.035,5.035,0,0,0,.947,4.924l.581.177c-.3.123-.662.208-1.113.354-1.039.335-1.983.616-1.886,2.217,0,0,6.31-.893,10.81,2.11,1.22.816,2.984,2.06,4.9,3.442l-.085.108a.969.969,0,0,0,1.051,1.525l-.35.45a.97.97,0,0,0,1.374,1.351l-.089.108a1.349,1.349,0,0,0,2.121,1.667l1.136-1.448c3.426,2.518,6.264,4.643,6.264,4.643s4.069,3.981,4.585,5.775.424,2.4,1.224,2.626l1.6.454a14.008,14.008,0,0,1,0,4.481c-.447,1.6-.062,2.737.989,3.191s2.568-.458,2.568-.458a6.542,6.542,0,0,0-.474,1.679,23.231,23.231,0,0,0,1.863,1.471l7.315-10.048-.32.462Z" transform="translate(-494.207 -200.166)" fill="#2d2d2d"/>
          <path id="Path_932" data-name="Path 932" d="M507.645,225.25a2.759,2.759,0,0,1,.023.527,9.5,9.5,0,0,1-.092,1.436,3.608,3.608,0,0,1-.285.97,1.867,1.867,0,0,1-.8.855c-.731.385-1.694.362-2.379.943a1.424,1.424,0,0,0-.47,1.128c0,.42.065.839.065,1.247a2.025,2.025,0,0,1-.281,1.132,2.465,2.465,0,0,1-.708.728,9.951,9.951,0,0,1-1.263.7,1.506,1.506,0,0,1-.508.15s.177-.069.477-.219a13.309,13.309,0,0,0,1.213-.743,2.355,2.355,0,0,0,.647-.7,1.864,1.864,0,0,0,.239-1.043c0-.385-.081-.8-.077-1.255a1.609,1.609,0,0,1,.535-1.278,3.015,3.015,0,0,1,1.255-.574,5.25,5.25,0,0,0,1.155-.385,1.643,1.643,0,0,0,.735-.77,3.382,3.382,0,0,0,.3-.916,12.476,12.476,0,0,0,.154-1.417,2.692,2.692,0,0,1,.065-.516Z" transform="translate(-498.354 -203.469)" fill="#263238"/>
          <path id="Path_933" data-name="Path 933" d="M537.93,264a11.64,11.64,0,0,1,.866-1.051c.543-.635,1.286-1.54,2.067-2.533s1.455-1.952,1.925-2.637a11.553,11.553,0,0,1,.8-1.1,1.33,1.33,0,0,1-.162.331c-.115.2-.293.493-.516.847-.45.708-1.109,1.667-1.894,2.695a32.258,32.258,0,0,1-2.121,2.506c-.285.308-.524.551-.693.712A1.229,1.229,0,0,1,537.93,264Z" transform="translate(-521.097 -222.799)" fill="#263238"/>
          <path id="Path_934" data-name="Path 934" d="M547.753,258a1.782,1.782,0,0,1-.231.362c-.162.227-.385.547-.7.939-.593.77-1.428,1.863-2.36,3.045s-1.782,2.244-2.41,3.007a10.131,10.131,0,0,1-1.055,1.2,2.6,2.6,0,0,1,.239-.354l.7-.932c.6-.77,1.432-1.859,2.364-3.041s1.782-2.244,2.406-3.011l.747-.9A1.727,1.727,0,0,1,547.753,258Z" transform="translate(-522.986 -223.611)" fill="#263238"/>
          <path id="Path_935" data-name="Path 935" d="M548.88,271.115a9.492,9.492,0,0,1,.77-.932c.489-.566,1.155-1.355,1.844-2.256s1.29-1.744,1.713-2.356a8.041,8.041,0,0,1,.708-.982,6.808,6.808,0,0,1-.589,1.059,27.548,27.548,0,0,1-1.675,2.4,29.111,29.111,0,0,1-1.894,2.225A5.881,5.881,0,0,1,548.88,271.115Z" transform="translate(-527.832 -227.664)" fill="#263238"/>
          <path id="Path_936" data-name="Path 936" d="M606.82,288.57a.866.866,0,0,1-.127.189l-.385.516-1.463,1.879c-1.232,1.586-2.922,3.792-4.743,6.26s-3.422,4.739-4.57,6.391l-1.374,1.952-.385.527a1.161,1.161,0,0,1-.143.177.815.815,0,0,1,.108-.2c.092-.142.2-.323.343-.547.3-.477.751-1.155,1.313-1.99,1.12-1.671,2.695-3.954,4.523-6.429s3.53-4.662,4.793-6.229c.631-.77,1.155-1.409,1.513-1.84.169-.2.312-.362.42-.493A1.416,1.416,0,0,1,606.82,288.57Z" transform="translate(-555.354 -242.412)" fill="#263238"/>
          <path id="Path_937" data-name="Path 937" d="M513.141,251.429c-.085-.327,0-.658.331-.689h0a.512.512,0,0,1,.347.358l.866,2.972h0l-.427-2.221c-.085-.323.05-.639.308-.6.146,0,.285.223.323.362l.693,2.483-.308-1.632c-.081-.366,0-.531.189-.566s.339.181.385.32l.543,1.813c.289.227,1.224.924,1.244,1.652,0,.039.1.089.119.119l.269.073-.385,1.582s-2.514-1.752-3.153-2.341a2.48,2.48,0,0,1-.77-1.27Z" transform="translate(-505.833 -219.146)" fill="#ffbe9d"/>
          <path id="Path_938" data-name="Path 938" d="M563.935,182.77a4.743,4.743,0,0,0-1.2,3.707,13.91,13.91,0,0,1-.108,4c-.166.6-.454,1.155-.612,1.759a2.252,2.252,0,0,0,.169,1.8,3.05,3.05,0,0,0,2.552.9l2.117.054a.67.67,0,0,0,.847-.808,51.978,51.978,0,0,0-1.155-11.234" transform="translate(-535.841 -177.343)" fill="#141414"/>
          <path id="Path_939" data-name="Path 939" d="M577.821,184.941v.966l-.2,14.421a3.08,3.08,0,0,1-3.272,2.953h0a3.273,3.273,0,0,1-3.288-3.134c0-1.775-.042-3.642-.042-3.642a3.725,3.725,0,0,1-2.76-3.365,31.819,31.819,0,0,1-.039-5.909,3.153,3.153,0,0,1,3.465-2.937Z" transform="translate(-539.657 -178.27)" fill="#ffbe9d"/>
          <path id="Path_940" data-name="Path 940" d="M570,195.766a.386.386,0,1,0,.385-.346A.385.385,0,0,0,570,195.766Z" transform="translate(-540.821 -185.123)" fill="#263238"/>
          <path id="Path_941" data-name="Path 941" d="M569.738,194.564c.046.05.335-.166.747-.166s.716.208.77.158-.027-.112-.158-.208a1.047,1.047,0,0,0-.608-.189,1.021,1.021,0,0,0-.593.192C569.758,194.452,569.711,194.541,569.738,194.564Z" transform="translate(-540.656 -184.348)" fill="#263238"/>
          <path id="Path_942" data-name="Path 942" d="M580.67,195.766a.386.386,0,1,0,.385-.346A.385.385,0,0,0,580.67,195.766Z" transform="translate(-547.383 -185.123)" fill="#263238"/>
          <path id="Path_943" data-name="Path 943" d="M580.251,194.764c.05.05.339-.166.77-.166s.712.208.77.158-.027-.112-.158-.208a1.055,1.055,0,0,0-.608-.189,1.043,1.043,0,0,0-.6.192C580.27,194.653,580.228,194.741,580.251,194.764Z" transform="translate(-547.122 -184.471)" fill="#263238"/>
          <path id="Path_944" data-name="Path 944" d="M574.711,197.86a2.875,2.875,0,0,0-.67-.119c-.1,0-.2-.031-.223-.1a.531.531,0,0,1,.073-.312l.308-.8a13.537,13.537,0,0,0,.7-2.094,13.514,13.514,0,0,0-.866,2.033l-.3.8a.627.627,0,0,0-.058.416.281.281,0,0,0,.173.154.832.832,0,0,0,.181.023,2.627,2.627,0,0,0,.678,0Z" transform="translate(-543.076 -184.514)" fill="#263238"/>
          <path id="Path_945" data-name="Path 945" d="M575.64,214.3a7.611,7.611,0,0,0,3.988-1.063,3.781,3.781,0,0,1-3.954,1.771Z" transform="translate(-544.29 -196.082)" fill="#eb996e"/>
          <path id="Path_946" data-name="Path 946" d="M576.762,205.475a.735.735,0,0,1,.666-.273.682.682,0,0,1,.47.25.424.424,0,0,1,.031.489.5.5,0,0,1-.539.139,1.578,1.578,0,0,1-.527-.316.586.586,0,0,1-.119-.119.139.139,0,0,1,0-.154" transform="translate(-544.954 -191.135)" fill="#eb996e"/>
          <path id="Path_947" data-name="Path 947" d="M577.433,204.08c-.069,0-.069.447-.451.77s-.859.269-.862.331.1.085.308.092a1.12,1.12,0,0,0,.72-.25.977.977,0,0,0,.346-.639C577.513,204.188,577.463,204.08,577.433,204.08Z" transform="translate(-544.585 -190.449)" fill="#263238"/>
          <path id="Path_948" data-name="Path 948" d="M579.96,182.173a20.2,20.2,0,0,1-.335-2.595,10.814,10.814,0,0,0-1.617-4.793,7.276,7.276,0,0,0-2.422-2.287,2.31,2.31,0,0,0,1.363-1.459,1.871,1.871,0,1,0-3.165.789,5.236,5.236,0,0,0-2.5.162h-.231a11.809,11.809,0,0,0-2.957.235,3.881,3.881,0,0,0-2.287,1.794,5.984,5.984,0,0,0-.289,3.261,1.155,1.155,0,0,0,.339.847,1.1,1.1,0,0,0,.677.15h2.071a2.626,2.626,0,0,0,1.4-.25,1.074,1.074,0,0,0,.447-.577,1.563,1.563,0,0,0,.855.77,4.023,4.023,0,0,0,1.844.1,3.769,3.769,0,0,0,1.193-.27l.154,5.813a1.74,1.74,0,0,0,.208.939,1.594,1.594,0,0,0,1.247.535,3,3,0,0,0,1.852-.32,1.4,1.4,0,0,0,.654-1.351,1.786,1.786,0,0,0,2.853.654A3.639,3.639,0,0,1,579.96,182.173Z" transform="translate(-538.015 -168.673)" fill="#141414"/>
          <path id="Path_949" data-name="Path 949" d="M571.766,177.531a7.7,7.7,0,0,0-1.382,0,4.312,4.312,0,0,0-3.831,4.62,7.7,7.7,0,0,0,.25,1.359,1.267,1.267,0,0,1-.166-.339,3.848,3.848,0,0,1-.227-1.009,4.316,4.316,0,0,1,3.958-4.758,3.977,3.977,0,0,1,1.036.042A1.31,1.31,0,0,1,571.766,177.531Z" transform="translate(-538.599 -174.033)" fill="#455a64"/>
          <path id="Path_950" data-name="Path 950" d="M573.429,183.714a1.117,1.117,0,0,1-.139-.235,3.958,3.958,0,0,1-.235-.708,4.377,4.377,0,0,1,1.582-4.427,3.809,3.809,0,0,1,.628-.385c.162-.073.254-.1.258-.092a9.038,9.038,0,0,0-.8.6,4.574,4.574,0,0,0-1.54,4.289C573.3,183.348,573.464,183.691,573.429,183.714Z" transform="translate(-542.633 -174.326)" fill="#455a64"/>
          <path id="Path_951" data-name="Path 951" d="M577.4,181.758a1.309,1.309,0,0,1-.266-.6,3.306,3.306,0,0,1-.023-1.582,3.357,3.357,0,0,1,.7-1.421c.266-.312.481-.447.493-.427a4.35,4.35,0,0,1-.385.516,3.877,3.877,0,0,0-.624,1.374,3.966,3.966,0,0,0-.031,1.513A5.378,5.378,0,0,1,577.4,181.758Z" transform="translate(-545.144 -174.24)" fill="#455a64"/>
          <path id="Path_952" data-name="Path 952" d="M600.8,237.153c-.023.027-.346-.35-.986-.812a6.668,6.668,0,0,0-5.833-1.02c-.77.219-1.19.466-1.2.431a1.108,1.108,0,0,1,.292-.193,5.172,5.172,0,0,1,.87-.385,6.356,6.356,0,0,1,5.959,1.039,5.194,5.194,0,0,1,.693.651C600.745,237.045,600.815,237.145,600.8,237.153Z" transform="translate(-554.831 -209.37)" fill="#fafafa"/>
          <path id="Path_953" data-name="Path 953" d="M544.286,238.834,542.45,245.1s9.078,3.68,14.291,3.615c4.882-.058,6.371-1.636,8.277-4.824a36.262,36.262,0,0,0,4.339-10.991s2.756-12.008-7.757-10.933l-.285,9.39s-1.155,3.85-1.247,4.073c-.77,2.075-1.8,5.116-2.787,5.486S544.286,238.834,544.286,238.834Z" transform="translate(-523.877 -201.411)" fill="#d0cde1"/>
          <path id="Path_954" data-name="Path 954" d="M547.22,244.022a1.676,1.676,0,0,1,.262.031l.743.119c.647.112,1.582.293,2.741.539s2.541.566,4.1.843a25.91,25.91,0,0,0,5.163.439l-.092.062c.2-.512.385-1.055.6-1.613,1.378-3.877,2.452-7.449,3.342-10.01.435-1.278.808-2.31,1.082-3.007.135-.354.25-.624.323-.809a2.245,2.245,0,0,1,.127-.277,1.445,1.445,0,0,1-.089.293l-.289.82c-.25.708-.6,1.744-1.024,3.026-.851,2.56-1.9,6.137-3.284,10.01-.2.558-.408,1.1-.6,1.617l-.027.062h-.069a25.248,25.248,0,0,1-5.186-.481c-1.563-.289-2.941-.624-4.1-.885s-2.083-.462-2.722-.6l-.739-.154a1.086,1.086,0,0,1-.262-.023Z" transform="translate(-526.811 -206.599)" fill="#263238"/>
          <path id="Path_955" data-name="Path 955" d="M542.45,272.477a2.582,2.582,0,0,1,.293.092l.839.289c.728.243,1.79.577,3.114.943s2.91.77,4.674,1.213a30.346,30.346,0,0,0,5.8,1,10.252,10.252,0,0,0,1.54-.039,6.234,6.234,0,0,0,1.451-.3,7.014,7.014,0,0,0,2.391-1.451,14.8,14.8,0,0,0,2.876-3.819c.662-1.2,1.12-2.217,1.444-2.914.15-.335.273-.6.385-.8a1.565,1.565,0,0,1,.138-.277,1.457,1.457,0,0,1-.1.293c-.073.189-.185.466-.335.82-.3.708-.739,1.732-1.39,2.953a14.666,14.666,0,0,1-2.876,3.888,7.188,7.188,0,0,1-2.448,1.5,6.276,6.276,0,0,1-1.5.312,10.1,10.1,0,0,1-1.567.042,30.025,30.025,0,0,1-5.836-1.02c-1.763-.447-3.349-.866-4.67-1.255s-2.379-.743-3.1-1.009c-.358-.135-.639-.243-.824-.323A1.323,1.323,0,0,1,542.45,272.477Z" transform="translate(-523.877 -228.783)" fill="#263238"/>
          <g id="Group_86" data-name="Group 86" transform="translate(25.518 32.283)" opacity="0.2">
            <path id="Path_956" data-name="Path 956" d="M560.49,258.667l5.39.127a3.08,3.08,0,0,0,1.263-.15,2.977,2.977,0,0,0,1.243-1.313,53.29,53.29,0,0,0,2.595-4.8s-1.421,4.516-2.31,6.483a1.032,1.032,0,0,1-1.259.647A24.255,24.255,0,0,1,560.49,258.667Z" transform="translate(-560.49 -252.53)"/>
          </g>
          <g id="Group_87" data-name="Group 87" transform="translate(26.188 41.623)" opacity="0.2">
            <path id="Path_957" data-name="Path 957" d="M577.8,276.79s-1.817,6.93-6.483,6.78a27.5,27.5,0,0,1-9.089-2.137l.208-.216s7.927,1.709,10.133.635C576.771,279.812,577.8,276.79,577.8,276.79Z" transform="translate(-562.23 -276.79)"/>
          </g>
          <path id="Path_958" data-name="Path 958" d="M533.821,266.8h-1.474c-1.336-.131-2.083-.15-2.456-.508-.5-.474.185-.943.185-.943s-.966-.331-.878-.92c.062-.4.524-.45.524-.45s-.855-.331-1.024-.689c-.231-.485.385-.743.385-.743-1.155-.716-1.059-1.428-.789-1.5a3.452,3.452,0,0,1,1.174.346c.77.219,2.86.859,2.087-.3a3.684,3.684,0,0,1-.77-2.695.435.435,0,0,1,.8.2,5.206,5.206,0,0,0,.547,1.293,3.236,3.236,0,0,0,.7.882c.327.293.616.527.87.72L535,262.748Z" transform="translate(-515.064 -223.739)" fill="#ffbe9d"/>
          <path id="Path_959" data-name="Path 959" d="M593.493,263.853c0,.035-.493-.192-1.294-.462a14.033,14.033,0,0,0-6.514-.6c-.835.119-1.347.254-1.355.219a1.383,1.383,0,0,1,.35-.127,8.247,8.247,0,0,1,.982-.231,12.258,12.258,0,0,1,3.334-.146,12.479,12.479,0,0,1,3.249.77,9.023,9.023,0,0,1,.928.408A1.541,1.541,0,0,1,593.493,263.853Z" transform="translate(-549.634 -226.35)" fill="#fafafa"/>
          <path id="Path_960" data-name="Path 960" d="M577.508,279.3a2.892,2.892,0,0,0,.277-1.128,3.531,3.531,0,0,0-.235-1.236,8.259,8.259,0,0,0-.72-1.386,11.008,11.008,0,0,1-.77-1.405,3.776,3.776,0,0,1-.3-1.282,2.366,2.366,0,0,1,.127-.878.838.838,0,0,1,.154-.289,3.254,3.254,0,0,0-.139,1.155,3.942,3.942,0,0,0,.331,1.217,11.708,11.708,0,0,0,.77,1.374,8.043,8.043,0,0,1,.724,1.428,3.444,3.444,0,0,1,.2,1.3,2.171,2.171,0,0,1-.227.859A.736.736,0,0,1,577.508,279.3Z" transform="translate(-544.36 -232.036)" fill="#fafafa"/>
          <path id="Path_961" data-name="Path 961" d="M554.408,275.358a4.289,4.289,0,0,1,.081-.939c.085-.574.231-1.363.447-2.225a21.888,21.888,0,0,1,.666-2.171,3.793,3.793,0,0,1,.385-.862,5.083,5.083,0,0,1-.242.909c-.166.554-.385,1.32-.6,2.175s-.385,1.632-.5,2.2a4.579,4.579,0,0,1-.227.912Z" transform="translate(-531.231 -230.474)" fill="#fafafa"/>
          <path id="Path_962" data-name="Path 962" d="M569.033,226.33a2.117,2.117,0,0,1,.1.385,3.584,3.584,0,0,1,.019,1.155,8.13,8.13,0,0,1-.454,1.752c-.235.666-.539,1.405-.77,2.252-.524,1.686-.889,3.765-1.413,6.048a25.5,25.5,0,0,1-1.059,3.526,12.669,12.669,0,0,1-1.956,3.442,8.7,8.7,0,0,1-3.1,2.449,7.642,7.642,0,0,1-3.626.62,16.388,16.388,0,0,1-3.288-.57c-1.009-.266-1.925-.551-2.779-.828-1.682-.562-3.007-1.116-3.911-1.517-.451-.2-.8-.385-1.036-.481l-.262-.135a.307.307,0,0,1-.089-.054.323.323,0,0,1,.1.035l.273.115,1.047.447c.912.385,2.244.912,3.927,1.455.839.27,1.767.547,2.776.8a16.586,16.586,0,0,0,3.234.531,7.488,7.488,0,0,0,3.538-.616,8.555,8.555,0,0,0,3.03-2.395,12.517,12.517,0,0,0,1.925-3.384,25.415,25.415,0,0,0,1.059-3.5c.531-2.275.912-4.354,1.459-6.048.262-.851.574-1.59.82-2.248a8.467,8.467,0,0,0,.481-1.721A4.232,4.232,0,0,0,569.033,226.33Z" transform="translate(-525.698 -204.133)" fill="#fafafa"/>
        </g>
        <g id="freepik--character-1--inject-2" transform="translate(31.095 34.588)">
          <path id="Path_963" data-name="Path 963" d="M252.978,193.9a1.051,1.051,0,0,1,0,.986l-8.085,14.391a5.1,5.1,0,0,1-6.83,1.725l-4.5-2.556,3.122-5.413,3.345,2.017,8.085-10.695a10.283,10.283,0,0,0,.119-1.794,2.694,2.694,0,0,0-.169-.9,4.153,4.153,0,0,0-.474-1.032.354.354,0,0,1,.308-.6,2.928,2.928,0,0,1,1.24,1.925c.293,1.113,1.028-.531,1.305-1.12a10.724,10.724,0,0,1,1.471-2.433c.366-.085.524.289.235.874s-1.043,2.391-.724,2.522c0,0,.562.131.7.481Z" transform="translate(-200.744 -174.239)" fill="#ffbe9d"/>
          <path id="Path_964" data-name="Path 964" d="M279.155,197.756a2.393,2.393,0,0,1-.166.678c-.073.231-.15.47-.227.72-.05.135-.1.277-.142.42a.581.581,0,0,1-.131.243.3.3,0,0,1-.335.046,1.252,1.252,0,0,1-.223-.15.431.431,0,0,1-.166-.243.878.878,0,0,1,.1-.481l.277-.7a2.354,2.354,0,0,1,.3-.628,2.633,2.633,0,0,1-.173.678c-.073.227-.154.466-.235.712a.843.843,0,0,0-.085.385c0,.081.169.192.281.25s.089.023.116,0a.489.489,0,0,0,.085-.169c.054-.142.1-.281.154-.42l.269-.7A2.279,2.279,0,0,1,279.155,197.756Z" transform="translate(-227.93 -179.94)" fill="#eb996e"/>
          <path id="Path_965" data-name="Path 965" d="M280.15,200.24a1.924,1.924,0,0,1-.139.616c-.065.216-.135.431-.2.654l-.065.189a.42.42,0,0,1-.142.216.3.3,0,0,1-.3,0,1.156,1.156,0,0,1-.2-.131.543.543,0,0,1-.169-.208.435.435,0,0,1,0-.269c.046-.154.1-.266.142-.385l.25-.635a2.086,2.086,0,0,1,.281-.566,1.964,1.964,0,0,1-.146.616c-.069.212-.139.427-.212.647-.039.119-.092.254-.123.385a.227.227,0,0,0,.108.273c.112.092.235.154.269.116a1.808,1.808,0,0,0,.146-.308q.119-.323.243-.635A2.167,2.167,0,0,1,280.15,200.24Z" transform="translate(-228.632 -181.207)" fill="#eb996e"/>
          <path id="Path_966" data-name="Path 966" d="M281.54,201.99a1.924,1.924,0,0,1-.139.616c-.065.216-.135.431-.2.654l-.062.189a.458.458,0,0,1-.146.216.3.3,0,0,1-.3,0,1.153,1.153,0,0,1-.2-.131.542.542,0,0,1-.169-.208.435.435,0,0,1,0-.269c.046-.154.1-.266.142-.385l.25-.635a2.087,2.087,0,0,1,.281-.566,1.964,1.964,0,0,1-.146.616c-.069.212-.139.427-.212.647-.038.119-.092.258-.123.385a.223.223,0,0,0,.108.273c.112.092.235.154.27.116a1.81,1.81,0,0,0,.146-.308q.119-.323.243-.635A2.255,2.255,0,0,1,281.54,201.99Z" transform="translate(-229.487 -182.284)" fill="#eb996e"/>
          <path id="Path_967" data-name="Path 967" d="M276.1,202.975a5.237,5.237,0,0,0-.142-1.155,5.392,5.392,0,0,0-.566-1.036c0-.019.142.046.3.208a2.014,2.014,0,0,1,.531,1.655C276.187,202.856,276.121,202.983,276.1,202.975Z" transform="translate(-226.47 -181.86)" fill="#eb996e"/>
          <path id="Path_968" data-name="Path 968" d="M189.345,152.621a3.4,3.4,0,0,0-3.788-.689,10.537,10.537,0,0,1-1.682.866,6.1,6.1,0,0,1-2.248-.135,2.089,2.089,0,0,0-2.052.654c-.266.408-.277.962-.624,1.309-.477.474-1.278.285-1.925.474a1.786,1.786,0,0,0-1.217,1.424,2.129,2.129,0,0,0,.612,1.8,3.384,3.384,0,0,1,.77.824,2.519,2.519,0,0,1-.031,1.459c-.081.489-.019,1.093.427,1.313a.67.67,0,0,0,.932-.8l9.328-2.991c1.405,0,1.848-1.263,2.071-1.7a3.4,3.4,0,0,0-.574-3.807Z" transform="translate(-165.214 -151.633)" fill="#141414"/>
          <path id="Path_969" data-name="Path 969" d="M182.08,161.48v1.009l.2,15.1a3.222,3.222,0,0,0,3.426,3.08h0a3.417,3.417,0,0,0,3.438-3.276c0-1.859.046-3.815.046-3.815s2.395-.385,2.891-3.523a33.405,33.405,0,0,0,.038-6.183,3.3,3.3,0,0,0-3.642-3.08Z" transform="translate(-169.083 -157.254)" fill="#ffbe9d"/>
          <path id="Path_970" data-name="Path 970" d="M205.276,172.87a.385.385,0,1,1-.13-.267A.385.385,0,0,1,205.276,172.87Z" transform="translate(-182.859 -164.471)" fill="#263238"/>
          <path id="Path_971" data-name="Path 971" d="M204.261,171.609c-.05.054-.354-.173-.77-.169s-.747.216-.793.162.027-.115.166-.216a1.074,1.074,0,0,1,.635-.2,1.043,1.043,0,0,1,.624.2C204.242,171.5,204.284,171.586,204.261,171.609Z" transform="translate(-181.755 -163.661)" fill="#263238"/>
          <path id="Path_972" data-name="Path 972" d="M194.066,172.87a.385.385,0,1,1-.13-.267A.385.385,0,0,1,194.066,172.87Z" transform="translate(-175.964 -164.471)" fill="#263238"/>
          <path id="Path_973" data-name="Path 973" d="M193.251,171.82c-.05.054-.354-.173-.77-.169s-.747.216-.793.162.027-.115.166-.219a1.109,1.109,0,0,1,.635-.192,1.043,1.043,0,0,1,.624.2C193.232,171.7,193.278,171.8,193.251,171.82Z" transform="translate(-174.984 -163.79)" fill="#263238"/>
          <path id="Path_974" data-name="Path 974" d="M199.52,175.056a2.587,2.587,0,0,1,.7-.127c.108,0,.212-.035.231-.108a.546.546,0,0,0-.073-.327l-.327-.839a14.857,14.857,0,0,1-.731-2.194,14.471,14.471,0,0,1,.909,2.129q.162.443.312.843a.658.658,0,0,1,.058.435.289.289,0,0,1-.181.162.928.928,0,0,1-.189.023,3.02,3.02,0,0,1-.708,0Z" transform="translate(-179.686 -163.827)" fill="#263238"/>
          <path id="Path_975" data-name="Path 975" d="M193.925,192.266a7.958,7.958,0,0,1-4.185-1.116A3.964,3.964,0,0,0,193.882,193Z" transform="translate(-173.794 -175.937)" fill="#eb996e"/>
          <path id="Path_976" data-name="Path 976" d="M196.4,181.57c.069,0,.073.462.474.8s.9.281.9.346-.112.089-.323.1a1.155,1.155,0,0,1-.77-.262,1.009,1.009,0,0,1-.366-.67C196.32,181.682,196.374,181.566,196.4,181.57Z" transform="translate(-177.841 -170.045)" fill="#263238"/>
          <path id="Path_977" data-name="Path 977" d="M192.918,167.582c-.042.119-.474.062-.978.123s-.916.2-.982.092c-.031-.05.038-.158.2-.273a1.7,1.7,0,0,1,.728-.254,1.64,1.64,0,0,1,.77.089C192.845,167.435,192.937,167.543,192.918,167.582Z" transform="translate(-174.539 -161.242)" fill="#263238"/>
          <path id="Path_978" data-name="Path 978" d="M204,168.3c-.077.1-.385,0-.731,0s-.658.065-.728-.039,0-.146.15-.239a1,1,0,0,1,.593-.162,1.013,1.013,0,0,1,.581.2C203.988,168.162,204.031,168.266,204,168.3Z" transform="translate(-181.648 -161.611)" fill="#263238"/>
          <path id="Path_979" data-name="Path 979" d="M191.416,161.6a4.445,4.445,0,0,1-3.738-.15c-1.405-.647-3.03-.935-3.376-.643s-.385,1.717-1.736,2.175c0,0,.181,2.718-.9,2.656s-.924-5.517-.924-5.517l2.991-.162,2.88-.639,2.741.3,2.129.508Z" transform="translate(-168.251 -156.361)" fill="#141414"/>
          <path id="Path_980" data-name="Path 980" d="M180.56,159.254c0-.042.239-.139.539-.027s.439.343.385.366-.2-.127-.454-.212S180.568,159.3,180.56,159.254Z" transform="translate(-168.148 -156.271)" fill="#263238"/>
          <path id="Path_981" data-name="Path 981" d="M182.732,157c.05,0,.031.323.089.693s.216.635.177.666-.277-.227-.339-.639a1.062,1.062,0,0,1,.073-.72Z" transform="translate(-169.419 -154.934)" fill="#263238"/>
          <path id="Path_982" data-name="Path 982" d="M180.395,172.642c-.042-.023-1.806-.62-1.825,1.2a1.369,1.369,0,0,0,1.817,1.413C180.391,175.2,180.395,172.642,180.395,172.642Z" transform="translate(-166.924 -164.485)" fill="#ffbe9d"/>
          <path id="Path_983" data-name="Path 983" d="M180.545,175.49s-.035.019-.089.042a.285.285,0,0,1-.235,0,.793.793,0,0,1-.358-.708,1.078,1.078,0,0,1,.092-.454.385.385,0,0,1,.243-.239.162.162,0,0,1,.189.089.1.1,0,0,1,0,.089s.038-.031.027-.1a.2.2,0,0,0-.069-.115.27.27,0,0,0-.177-.05.458.458,0,0,0-.335.281,1.074,1.074,0,0,0-.115.508.82.82,0,0,0,.454.789.343.343,0,0,0,.293-.046C180.541,175.533,180.549,175.49,180.545,175.49Z" transform="translate(-167.629 -165.412)" fill="#eb996e"/>
          <path id="Path_984" data-name="Path 984" d="M168.943,200.185c1.34.077,3.588.258,8.027,2.853.97.566,10.93,7.253,10.93,7.253l-4.408,5.644-8.123-4.574,1.1,9.725,1.217,11.549-19.676-.25-.493-11.611-.166-7.9L156.1,223.419l-7.78-.743,2.144-13.89a9.262,9.262,0,0,1,2.048-4.62,11.388,11.388,0,0,1,5-3.222,16.43,16.43,0,0,1,3.669-.67l-.065-2.31s3.5.327,4.431,2.576c0,0,1.155-2.66,3.411-2.88Z" transform="translate(-148.32 -179.94)" fill="#d0cde1"/>
          <path id="Path_985" data-name="Path 985" d="M181.976,236.385a2.934,2.934,0,0,1-.539-1.155,10.51,10.51,0,0,1-.331-3.442c0-.728.081-1.521.115-2.364a20.953,20.953,0,0,0-.05-2.672,51.2,51.2,0,0,0-1.059-6.087,36.573,36.573,0,0,1-.916-6.183c-.046-1.925.115-3.646.027-5.07a10.509,10.509,0,0,0-.647-3.288c-.293-.743-.547-1.116-.5-1.155a2.979,2.979,0,0,1,.716,1.047,9.4,9.4,0,0,1,.859,3.353c.146,1.463.027,3.2.1,5.078a39.469,39.469,0,0,0,.943,6.09,45.34,45.34,0,0,1,1.02,6.16,20.446,20.446,0,0,1,0,2.749c-.069.843-.135,1.632-.192,2.352a11.789,11.789,0,0,0,.135,3.361C181.834,235.953,182.023,236.361,181.976,236.385Z" transform="translate(-166.616 -184.436)" fill="#fafafa"/>
          <path id="Path_986" data-name="Path 986" d="M202.948,237.409a5.006,5.006,0,0,1-.2-1.243c-.089-.824-.216-1.979-.366-3.4-.3-2.872-.77-6.83-1.4-11.184-.32-2.179-.654-4.235-.978-6.129s-.631-3.576-.8-5A24.4,24.4,0,0,1,198.99,207a4.173,4.173,0,0,1,.123-1.255c.092,0,.035,1.79.5,4.62.219,1.421.57,3.1.924,4.978s.708,3.958,1.032,6.14c.643,4.366,1.032,8.346,1.228,11.234.1,1.444.154,2.614.173,3.423a5.289,5.289,0,0,1-.023,1.274Z" transform="translate(-179.479 -184.91)" fill="#fafafa"/>
          <path id="Path_987" data-name="Path 987" d="M208.013,205.14a9.885,9.885,0,0,1,.193,1.243,26.207,26.207,0,0,0,.843,3.311c.208.7.443,1.459.639,2.31a19.7,19.7,0,0,1,.42,2.729c.173,1.925.15,4.046.269,6.248.223,4.416.654,8.4.947,11.291.146,1.444.262,2.614.327,3.426a5.3,5.3,0,0,1,.046,1.267,5.055,5.055,0,0,1-.277-1.24c-.139-.8-.32-1.963-.52-3.4-.385-2.88-.9-6.872-1.124-11.315-.123-2.221-.081-4.339-.223-6.237a20.186,20.186,0,0,0-.354-2.664c-.169-.828-.385-1.59-.558-2.31a19.165,19.165,0,0,1-.666-3.4A3.465,3.465,0,0,1,208.013,205.14Z" transform="translate(-184.984 -184.541)" fill="#fafafa"/>
          <path id="Path_988" data-name="Path 988" d="M199.073,201.425c-.173-.027-.2-.535-.339-1.051s-.385-.959-.254-1.074c.065-.05.208,0,.385.15a1.667,1.667,0,0,1,.454.77,1.648,1.648,0,0,1,0,.889C199.25,201.321,199.154,201.437,199.073,201.425Z" transform="translate(-179.146 -180.937)" fill="#fafafa"/>
          <path id="Path_989" data-name="Path 989" d="M183.375,201.611c-.073.031-.208-.085-.3-.331a1.744,1.744,0,0,1,.52-1.867c.212-.166.385-.192.431-.131.1.142-.243.551-.385,1.155S183.509,201.541,183.375,201.611Z" transform="translate(-169.638 -180.919)" fill="#fafafa"/>
          <path id="Path_990" data-name="Path 990" d="M192.4,237.393c-.054,0,.042-.45,0-1.24a12.137,12.137,0,0,0-.77-3.268c-.231-.678-.5-1.424-.739-2.248s-.447-1.713-.624-2.653c-.362-1.886-.6-3.969-.882-6.16-.543-4.362-1-8.316-1.309-11.184-.15-1.432-.262-2.591-.327-3.4a4.885,4.885,0,0,1-.038-1.255,5.179,5.179,0,0,1,.269,1.224c.135.8.312,1.948.52,3.376.412,2.849.939,6.795,1.482,11.164.281,2.183.5,4.262.828,6.125.162.932.35,1.809.562,2.622s.458,1.54.662,2.248a10.779,10.779,0,0,1,.593,3.4A2.756,2.756,0,0,1,192.4,237.393Z" transform="translate(-172.533 -185.063)" fill="#fafafa"/>
          <path id="Path_991" data-name="Path 991" d="M175.926,252.29a18.284,18.284,0,0,1-.45-3.115c-.219-1.929-.524-4.589-.835-7.534s-.527-5.628-.62-7.569a15.818,15.818,0,0,1,0-3.153,19.763,19.763,0,0,1,.42,3.118c.2,1.929.481,4.62.793,7.542s.551,5.617.658,7.561A15.584,15.584,0,0,1,175.926,252.29Z" transform="translate(-164.088 -200.396)" fill="#fafafa"/>
          <path id="Path_992" data-name="Path 992" d="M151.784,229.16a18.609,18.609,0,0,1,.577-3.307c.431-2.025,1.063-4.812,1.8-7.884.385-1.54.731-2.991,1.059-4.323a13.6,13.6,0,0,1,1.2-3.484,4.77,4.77,0,0,1,1.732-1.813c.524-.293.862-.323.87-.293s-.289.158-.743.489a5.063,5.063,0,0,0-1.486,1.817,14.962,14.962,0,0,0-1.039,3.411l-1.013,4.335c-.735,3.08-1.436,5.844-1.971,7.846A19.165,19.165,0,0,1,151.784,229.16Z" transform="translate(-150.441 -186.328)" fill="#fafafa"/>
          <path id="Path_993" data-name="Path 993" d="M166.975,212.185c.031.038-.185.235-.408.7a10.638,10.638,0,0,0-.708,2.075c-.112.458-.231.959-.358,1.49s-.223,1.116-.35,1.732a11.451,11.451,0,0,1-.543,1.925,20.292,20.292,0,0,1-.9,1.925c-.331.639-.662,1.259-.92,1.863a8.774,8.774,0,0,0-.508,1.817,25.21,25.21,0,0,0-.331,3.257,25.837,25.837,0,0,1-.142,3.049,10.607,10.607,0,0,1-.285-3.057,21.125,21.125,0,0,1,.212-3.342,8.991,8.991,0,0,1,.512-1.96c.266-.647.6-1.274.928-1.925s.643-1.255.889-1.867a11.652,11.652,0,0,0,.554-1.829c.139-.6.258-1.186.4-1.729s.289-1.036.435-1.494a8.007,8.007,0,0,1,.916-2.075C166.671,212.308,166.955,212.158,166.975,212.185Z" transform="translate(-156.434 -188.872)" fill="#fafafa"/>
          <path id="Path_994" data-name="Path 994" d="M228.354,223.059a5.125,5.125,0,0,1-1.906-.808,24.227,24.227,0,0,1-4.065-2.884c-.743-.666-1.34-1.355-1.925-1.925a11.069,11.069,0,0,0-1.679-1.374c-1.032-.674-1.813-.832-1.79-.932,0-.039.212-.042.566.027a5.123,5.123,0,0,1,1.44.539,9.525,9.525,0,0,1,1.84,1.332c.639.562,1.263,1.255,1.963,1.879a39.764,39.764,0,0,0,3.892,2.972A11.9,11.9,0,0,1,228.354,223.059Z" transform="translate(-190.553 -190.672)" fill="#fafafa"/>
          <path id="Path_995" data-name="Path 995" d="M227.332,232.674c-.046.069-.585-.227-1.436-.728s-2.013-1.2-3.288-2.013a30.6,30.6,0,0,1-3.157-2.248c-.77-.639-1.178-1.1-1.128-1.155a5.5,5.5,0,0,1,1.382.82c.816.543,1.956,1.274,3.226,2.083s2.41,1.567,3.2,2.164S227.382,232.6,227.332,232.674Z" transform="translate(-191.371 -197.692)" fill="#fafafa"/>
          <path id="Path_996" data-name="Path 996" d="M170.72,207.41a.384.384,0,0,1,.123.038,2.364,2.364,0,0,1,.331.166,3.6,3.6,0,0,1,1.009.909,4.754,4.754,0,0,1,.847,1.825,6.648,6.648,0,0,1,.058,2.464,13.8,13.8,0,0,1-.6,2.383c-.243.712-.481,1.347-.666,1.883s-.327.97-.416,1.274a2.754,2.754,0,0,1-.154.47,2.176,2.176,0,0,1,.081-.489c.065-.312.189-.77.358-1.3A28.034,28.034,0,0,0,172.9,212.8a6.706,6.706,0,0,0-.038-2.395,4.905,4.905,0,0,0-.77-1.786,4.439,4.439,0,0,0-1.367-1.2Z" transform="translate(-162.096 -185.937)" fill="#263238"/>
          <path id="Path_997" data-name="Path 997" d="M216.877,219.733a2.581,2.581,0,0,1-.077-.47c-.046-.339-.1-.77-.162-1.278-.139-1.124-.316-2.6-.516-4.235s-.385-3.1-.512-4.235c-.062-.508-.116-.939-.154-1.282a1.975,1.975,0,0,1-.039-.474,2.656,2.656,0,0,1,.112.462c.058.3.131.735.216,1.274.166,1.078.385,2.572.57,4.235s.362,3.153.458,4.235c.05.543.085.982.1,1.286A2.065,2.065,0,0,1,216.877,219.733Z" transform="translate(-189.585 -186.152)" fill="#263238"/>
          <path id="Path_998" data-name="Path 998" d="M185.384,202.632a.932.932,0,0,0-.658.085,1.086,1.086,0,0,0-.462.539,2.513,2.513,0,0,0-.15.416l-.058.235a.558.558,0,0,1-.127.266.25.25,0,0,1-.173.085.338.338,0,0,1-.162-.031c-.089-.039-.15-.069-.223-.108l-.412-.2-.693-.354a2.442,2.442,0,0,1-.616-.385,2.756,2.756,0,0,1,.674.246l.712.316.416.192.216.1a.214.214,0,0,0,.123,0,1.61,1.61,0,0,0,.142-.42,2.512,2.512,0,0,1,.169-.443,1.174,1.174,0,0,1,.562-.585.789.789,0,0,1,.543-.062C185.334,202.566,185.388,202.62,185.384,202.632Z" transform="translate(-168.819 -182.918)" fill="#263238"/>
          <path id="Path_999" data-name="Path 999" d="M197.541,202.782a10.718,10.718,0,0,1-1.517,1.259l-.127.1-.027-.158a1.239,1.239,0,0,0-.035-.2,2.31,2.31,0,0,0-.57-1.34,2.022,2.022,0,0,0-.516-.327.77.77,0,0,1,.608.223,1.567,1.567,0,0,1,.431.577,3.426,3.426,0,0,1,.239.832l.035.2-.154-.062A10.668,10.668,0,0,1,197.541,202.782Z" transform="translate(-176.875 -182.679)" fill="#263238"/>
          <path id="Path_1000" data-name="Path 1000" d="M157.348,261.117a5.6,5.6,0,0,1-.939-.262c-.577-.177-1.374-.412-2.264-.635s-1.7-.385-2.31-.508a6.092,6.092,0,0,1-.955-.216,4.312,4.312,0,0,1,.974.081,21.32,21.32,0,0,1,2.31.454,21.627,21.627,0,0,1,2.256.693,4.289,4.289,0,0,1,.928.393Z" transform="translate(-149.894 -217.97)" fill="#263238"/>
          <path id="Path_1001" data-name="Path 1001" d="M152.57,257.41a4.039,4.039,0,0,1,.928.189c.57.15,1.347.385,2.191.674.423.15.82.3,1.182.443a5.713,5.713,0,0,1,.943.435c.527.316.643.724.62.724a2.087,2.087,0,0,0-.689-.6,7.192,7.192,0,0,0-.939-.385l-1.182-.423c-.839-.293-1.605-.543-2.164-.724A4.981,4.981,0,0,1,152.57,257.41Z" transform="translate(-150.934 -216.688)" fill="#263238"/>
          <path id="Path_1002" data-name="Path 1002" d="M241.28,233.96a3.021,3.021,0,0,1,.327-.747,17.42,17.42,0,0,1,1.02-1.686,18.284,18.284,0,0,1,1.2-1.559,3.168,3.168,0,0,1,.581-.577c.042.039-.77.986-1.625,2.248S241.33,233.987,241.28,233.96Z" transform="translate(-205.492 -199.455)" fill="#263238"/>
          <path id="Path_1003" data-name="Path 1003" d="M239.76,233.207a2.429,2.429,0,0,1,.343-.674,8.118,8.118,0,0,1,1.155-1.421,8.228,8.228,0,0,1,1.428-1.128,2.175,2.175,0,0,1,.678-.335,21.32,21.32,0,0,0-1.971,1.6,22.05,22.05,0,0,0-1.632,1.956Z" transform="translate(-204.557 -199.615)" fill="#263238"/>
          <path id="Path_1004" data-name="Path 1004" d="M197.487,241.5a1.619,1.619,0,0,1-.054-.308c-.027-.223-.065-.52-.112-.893-.092-.793-.223-1.906-.385-3.276-.323-2.764-.77-6.587-1.29-10.806s-1.036-8.031-1.451-10.779c-.212-1.378-.385-2.491-.508-3.257-.062-.385-.108-.666-.142-.889a1.538,1.538,0,0,1-.035-.308,1.79,1.79,0,0,1,.077.3l.177.878c.154.77.343,1.875.574,3.249.447,2.753.986,6.564,1.509,10.779s.943,8.042,1.228,10.814c.135,1.371.243,2.491.32,3.284.031.385.058.674.073.893A2.766,2.766,0,0,1,197.487,241.5Z" transform="translate(-176.113 -188.132)" fill="#263238"/>
          <path id="Path_1005" data-name="Path 1005" d="M197.254,227.221c-.023,0-.05-.158.135-.3a.385.385,0,0,1,.385-.035.42.42,0,0,1,.231.443.385.385,0,0,1-.385.316.327.327,0,0,1-.327-.239.312.312,0,0,1,.027-.262c.035-.054.073-.065.081-.058a.388.388,0,0,0,.023.266.185.185,0,0,0,.189.108.231.231,0,0,0,.2-.169.246.246,0,0,0-.123-.243.239.239,0,0,0-.239,0C197.315,227.106,197.285,227.229,197.254,227.221Z" transform="translate(-178.405 -197.891)" fill="#263238"/>
          <path id="Path_1006" data-name="Path 1006" d="M200.274,244.645c-.023,0-.05-.162.135-.308a.385.385,0,0,1,.385-.035.42.42,0,0,1,.231.443.4.4,0,0,1-.385.32.331.331,0,0,1-.331-.243.316.316,0,0,1,.027-.262c.035-.05.073-.062.081-.054a.388.388,0,0,0,.023.266.189.189,0,0,0,.189.108.235.235,0,0,0,.2-.173.243.243,0,0,0-.358-.246C200.335,244.549,200.3,244.653,200.274,244.645Z" transform="translate(-180.262 -208.604)" fill="#263238"/>
          <path id="Path_1007" data-name="Path 1007" d="M182.262,450.7l-.077-3.43-6.425.1.062,5,.385.019c1.775.069,9.024.227,10.206-.154C187.741,451.84,182.262,450.7,182.262,450.7Z" transform="translate(-165.196 -333.455)" fill="#141414"/>
          <g id="Group_88" data-name="Group 88" transform="translate(10.625 117.896)" opacity="0.4">
            <path id="Path_1008" data-name="Path 1008" d="M185.04,457.87s1.925.52,1.69.839-7.569.435-10.81.2v-.146l8.558-.062S184.667,457.893,185.04,457.87Z" transform="translate(-175.92 -457.87)" fill="#fff"/>
          </g>
          <path id="Path_1009" data-name="Path 1009" d="M175.68,459.911h.427l1.155.031c.986.019,2.348.031,3.85,0s2.872-.073,3.85-.123l1.155-.065.316-.023h-.32l-1.155.042c-.986.035-2.348.077-3.85.1s-2.868.023-3.85,0H175.8Z" transform="translate(-165.147 -341.118)" fill="#263238"/>
          <path id="Path_1010" data-name="Path 1010" d="M198.155,458.683a2.717,2.717,0,0,1,.208-.562,2.629,2.629,0,0,1,.385-.45.835.835,0,0,0-.458.412A.855.855,0,0,0,198.155,458.683Z" transform="translate(-178.964 -339.851)" fill="#263238"/>
          <path id="Path_1011" data-name="Path 1011" d="M193.2,457.018a1.408,1.408,0,0,0,.2-.25c.092-.15.15-.277.131-.289s-.1.1-.2.25S193.185,457.006,193.2,457.018Z" transform="translate(-175.922 -339.118)" fill="#263238"/>
          <path id="Path_1012" data-name="Path 1012" d="M191.837,456.6a.975.975,0,0,0,.223-.154c.108-.1.189-.2.173-.212s-.115.05-.223.154S191.822,456.587,191.837,456.6Z" transform="translate(-175.083 -338.968)" fill="#263238"/>
          <path id="Path_1013" data-name="Path 1013" d="M191,455.554a.77.77,0,0,0,.339.035.8.8,0,0,0,.335-.039.732.732,0,0,0-.335-.038A.712.712,0,0,0,191,455.554Z" transform="translate(-174.569 -338.521)" fill="#263238"/>
          <path id="Path_1014" data-name="Path 1014" d="M190.65,454.519a.643.643,0,0,0,.385.1.674.674,0,0,0,.385-.058,1.876,1.876,0,0,0-.385-.019A2.013,2.013,0,0,0,190.65,454.519Z" transform="translate(-174.354 -337.913)" fill="#263238"/>
          <path id="Path_1015" data-name="Path 1015" d="M193.75,455.5a1.271,1.271,0,0,0,.412,0,2.309,2.309,0,0,0,.439-.1.981.981,0,0,0,.25-.108.227.227,0,0,0,.1-.127.166.166,0,0,0-.065-.166.77.77,0,0,0-.932.235.723.723,0,0,0-.131.277.273.273,0,0,0,0,.112,1.257,1.257,0,0,1,.185-.354.769.769,0,0,1,.346-.235.642.642,0,0,1,.493.027c.069.046.042.123-.027.169a1.369,1.369,0,0,1-.231.1,3.109,3.109,0,0,1-.423.116C193.908,455.488,193.75,455.488,193.75,455.5Z" transform="translate(-176.26 -338.166)" fill="#263238"/>
          <path id="Path_1016" data-name="Path 1016" d="M193.121,455.2a.385.385,0,0,0,.042-.285.647.647,0,0,0-.119-.3.385.385,0,0,0-.346-.2.162.162,0,0,0-.123.192.409.409,0,0,0,.073.181,1.13,1.13,0,0,0,.2.246c.131.127.231.173.239.166s-.085-.073-.2-.2a1.711,1.711,0,0,1-.177-.246c-.058-.089-.1-.243,0-.262s.212.089.273.169a.681.681,0,0,1,.123.266,1.662,1.662,0,0,1,.015.277Z" transform="translate(-175.535 -337.846)" fill="#263238"/>
          <path id="Path_1017" data-name="Path 1017" d="M176,455.531a4.072,4.072,0,0,1,.474,0,2.023,2.023,0,0,1,1.705,1.313c.1.277.112.462.127.458a.385.385,0,0,0,0-.131,1.678,1.678,0,0,0-.077-.343,1.956,1.956,0,0,0-1.752-1.351,1.923,1.923,0,0,0-.354,0C176.023,455.512,176,455.523,176,455.531Z" transform="translate(-165.344 -338.497)" fill="#263238"/>
          <path id="Path_1018" data-name="Path 1018" d="M177.5,448.65a10.5,10.5,0,0,0-.035,1.32,10.37,10.37,0,0,0,.042,1.32,11.4,11.4,0,0,0,.035-1.32A12.48,12.48,0,0,0,177.5,448.65Z" transform="translate(-166.243 -334.304)" fill="#263238"/>
          <path id="Path_1019" data-name="Path 1019" d="M184,458.674a5.391,5.391,0,0,0,1.879,0c0-.023-.42,0-.939,0S184.019,458.651,184,458.674Z" transform="translate(-170.264 -340.462)" fill="#263238"/>
          <path id="Path_1020" data-name="Path 1020" d="M180.77,458.726l.081.185c.042.1.069.181.092.177s.031-.1-.023-.212S180.785,458.71,180.77,458.726Z" transform="translate(-168.277 -340.499)" fill="#263238"/>
          <path id="Path_1021" data-name="Path 1021" d="M179.52,457.215a.42.42,0,0,0,.092.146c.065.065.135.108.15.092s-.027-.081-.1-.146S179.535,457.2,179.52,457.215Z" transform="translate(-167.509 -339.57)" fill="#263238"/>
          <path id="Path_1022" data-name="Path 1022" d="M177.739,456.49c0,.019.092.019.185.05s.166.081.181.065-.038-.1-.158-.139S177.732,456.467,177.739,456.49Z" transform="translate(-166.413 -339.102)" fill="#263238"/>
          <path id="Path_1023" data-name="Path 1023" d="M176.48,456.207c0,.023.031.054.085.073s.1.019.108,0-.027-.054-.081-.073S176.488,456.188,176.48,456.207Z" transform="translate(-165.639 -338.943)" fill="#263238"/>
          <g id="Group_89" data-name="Group 89" transform="translate(10.583 115.878)" opacity="0.3">
            <path id="Path_1024" data-name="Path 1024" d="M175.868,453.612l6.418-.208-.023-.774-6.452.574Z" transform="translate(-175.81 -452.63)"/>
          </g>
          <path id="Path_1025" data-name="Path 1025" d="M220.928,450.87l-.1-3.43-6.421.139.085,5h.385c1.775.062,9.028.181,10.206-.2C226.414,451.983,220.928,450.87,220.928,450.87Z" transform="translate(-188.967 -333.56)" fill="#141414"/>
          <g id="Group_90" data-name="Group 90" transform="translate(25.528 117.946)" opacity="0.4">
            <path id="Path_1026" data-name="Path 1026" d="M223.746,458s1.925.508,1.694.828-7.569.474-10.81.262v-.146l8.558-.1S223.373,458.027,223.746,458Z" transform="translate(-214.63 -458)" fill="#fff"/>
          </g>
          <path id="Path_1027" data-name="Path 1027" d="M214.39,460.116h.427l1.155.027c.986,0,2.348.019,3.85,0s2.868-.089,3.85-.142l1.155-.073.316-.027h-.32l-1.155.046c-.986.042-2.348.092-3.85.123s-2.868.035-3.85.035h-1.486Z" transform="translate(-188.954 -341.223)" fill="#263238"/>
          <path id="Path_1028" data-name="Path 1028" d="M236.866,458.82a2.407,2.407,0,0,1,.208-.562,2.582,2.582,0,0,1,.385-.458.855.855,0,0,0-.458.416A.874.874,0,0,0,236.866,458.82Z" transform="translate(-202.772 -339.931)" fill="#263238"/>
          <path id="Path_1029" data-name="Path 1029" d="M231.9,457.183a1.321,1.321,0,0,0,.2-.25.77.77,0,0,0,.131-.293,1.494,1.494,0,0,0-.2.25A.77.77,0,0,0,231.9,457.183Z" transform="translate(-199.723 -339.218)" fill="#263238"/>
          <path id="Path_1030" data-name="Path 1030" d="M230.537,456.772c0,.019.116-.054.223-.154s.185-.2.169-.212-.115.054-.223.154S230.521,456.757,230.537,456.772Z" transform="translate(-198.884 -339.073)" fill="#263238"/>
          <path id="Path_1031" data-name="Path 1031" d="M229.65,455.732a.771.771,0,0,0,.335.035.713.713,0,0,0,.339-.042.735.735,0,0,0-.339-.035A.7.7,0,0,0,229.65,455.732Z" transform="translate(-198.339 -338.63)" fill="#263238"/>
          <path id="Path_1032" data-name="Path 1032" d="M229.34,454.7a.635.635,0,0,0,.385.1.647.647,0,0,0,.385-.062,1.874,1.874,0,0,0-.385-.019A2.734,2.734,0,0,0,229.34,454.7Z" transform="translate(-198.149 -338.024)" fill="#263238"/>
          <path id="Path_1033" data-name="Path 1033" d="M232.44,455.661a1.049,1.049,0,0,0,.412,0,2.32,2.32,0,0,0,.439-.1,1.365,1.365,0,0,0,.25-.108.227.227,0,0,0,.1-.131.158.158,0,0,0-.065-.166.77.77,0,0,0-.932.243.739.739,0,0,0-.127.277.227.227,0,0,0,0,.112,1.128,1.128,0,0,1,.181-.354.736.736,0,0,1,.346-.239.643.643,0,0,1,.493.023c.065.046.042.127-.031.169a1.211,1.211,0,0,1-.227.1,2.7,2.7,0,0,1-.423.119C232.6,455.645,232.44,455.649,232.44,455.661Z" transform="translate(-200.055 -338.262)" fill="#263238"/>
          <path id="Path_1034" data-name="Path 1034" d="M231.837,455.369a.423.423,0,0,0,.042-.289.7.7,0,0,0-.119-.3.416.416,0,0,0-.35-.2.169.169,0,0,0-.123.193.5.5,0,0,0,.077.185,1.2,1.2,0,0,0,.2.242.585.585,0,0,0,.239.166,2.343,2.343,0,0,1-.2-.2,1.155,1.155,0,0,1-.177-.243c-.062-.085-.1-.243,0-.262s.212.089.277.169a.716.716,0,0,1,.123.266A1.661,1.661,0,0,1,231.837,455.369Z" transform="translate(-199.344 -337.951)" fill="#263238"/>
          <path id="Path_1035" data-name="Path 1035" d="M214.64,455.8a3.068,3.068,0,0,1,.474,0,2.01,2.01,0,0,1,1.709,1.305,4.366,4.366,0,0,1,.131.458v-.131a1.677,1.677,0,0,0-.077-.343,2.013,2.013,0,0,0-.674-.947,1.963,1.963,0,0,0-1.086-.385,1.861,1.861,0,0,0-.354,0A.434.434,0,0,0,214.64,455.8Z" transform="translate(-189.108 -338.669)" fill="#263238"/>
          <path id="Path_1036" data-name="Path 1036" d="M216.162,448.9a10.629,10.629,0,0,0-.027,1.32,10.288,10.288,0,0,0,.05,1.32,11.509,11.509,0,0,0,.027-1.32A11.264,11.264,0,0,0,216.162,448.9Z" transform="translate(-190.022 -334.458)" fill="#263238"/>
          <path id="Path_1037" data-name="Path 1037" d="M222.75,458.853a3.427,3.427,0,0,0,.939.073,3.67,3.67,0,0,0,.935-.092c0-.023-.42,0-.935,0A7.267,7.267,0,0,0,222.75,458.853Z" transform="translate(-194.096 -340.561)" fill="#263238"/>
          <path id="Path_1038" data-name="Path 1038" d="M219.48,458.991s.035.089.081.181.069.181.092.181.031-.1-.023-.212S219.492,458.964,219.48,458.991Z" transform="translate(-192.085 -340.66)" fill="#263238"/>
          <path id="Path_1039" data-name="Path 1039" d="M218.21,457.455a.4.4,0,0,0,.1.146c.069.065.135.108.15.092s-.027-.081-.1-.146S218.225,457.44,218.21,457.455Z" transform="translate(-191.304 -339.717)" fill="#263238"/>
          <path id="Path_1040" data-name="Path 1040" d="M216.43,456.728c0,.023.092,0,.189.054s.162.077.177.065-.038-.1-.154-.142S216.426,456.709,216.43,456.728Z" transform="translate(-190.209 -339.248)" fill="#263238"/>
          <path id="Path_1041" data-name="Path 1041" d="M215.17,456.47c0,.019.031.054.085.073s.1.019.112,0-.031-.05-.085-.069S215.178,456.451,215.17,456.47Z" transform="translate(-189.434 -339.105)" fill="#263238"/>
          <g id="Group_91" data-name="Group 91" transform="translate(25.474 115.944)" opacity="0.3">
            <path id="Path_1042" data-name="Path 1042" d="M214.552,453.816l6.414-.242-.027-.774-6.448.608Z" transform="translate(-214.49 -452.8)"/>
          </g>
          <path id="Path_1043" data-name="Path 1043" d="M172.69,285.17v64.958h10.125l.9-56.342,3.55,56.342H197.39l-4.531-63.861Z" transform="translate(-163.308 -233.761)" fill="#141414"/>
          <path id="Path_1044" data-name="Path 1044" d="M202.053,286.43a5.572,5.572,0,0,1,.085,1.047c.027.647.05,1.54.065,2.525v1.39a2.5,2.5,0,0,1-.212,1.155,1.32,1.32,0,0,1-.574.589.6.6,0,0,1-.308.085,1.74,1.74,0,0,0,.266-.142,1.34,1.34,0,0,0,.493-.581,2.541,2.541,0,0,0,.154-1.089c0-.431,0-.9-.027-1.39v-2.525a5.515,5.515,0,0,1,.058-1.063Z" transform="translate(-180.787 -234.536)" fill="#455a64"/>
          <path id="Path_1045" data-name="Path 1045" d="M198.41,288.232a.417.417,0,0,0-.142.312.339.339,0,0,0,.146.289.385.385,0,0,0,.408-.027.262.262,0,0,0,.019-.458.47.47,0,0,0-.408-.089v-.065c.081.038.123.065.119.077s-.058,0-.146,0h-.085l.077-.054a.527.527,0,0,1,.551.042.385.385,0,0,1,0,.712.574.574,0,0,1-.628,0,.427.427,0,0,1-.173-.427.385.385,0,0,1,.162-.266C198.36,288.225,198.406,288.221,198.41,288.232Z" transform="translate(-178.961 -235.599)" fill="#455a64"/>
          <path id="Path_1046" data-name="Path 1046" d="M175.042,253.716c-.266-.35-3.465.2-3.465.2l1.155-.885c-.593-1.055-2.649.219-3.3.839a1.155,1.155,0,0,0-.323.635l-12.9,2.722L149,256.5s-.142,1.244-.5,3.588c-.343,2.214,3.3,4.389,5.559,4.069,2.063-.289,14.675-3.877,16.824-4.489h0l.312-.089h0a9.409,9.409,0,0,0,2.533-1.136,18.778,18.778,0,0,0,.162-3.369l1.182-.52a.847.847,0,0,0-.023-.835Z" transform="translate(-148.413 -213.748)" fill="#ffbe9d"/>
        </g>
      </g>
    </g>
    <rect id="Rectangle_358" data-name="Rectangle 358" width="317" height="195" transform="translate(1350 2485)" fill="none"/>
  </g>
</svg>
