<svg xmlns="http://www.w3.org/2000/svg" width="317" height="195" viewBox="0 0 317 195">
  <g id="Web_Development" data-name="Web Development" transform="translate(-1361 -1972)">
    <circle id="Ellipse_54" data-name="Ellipse 54" cx="1.06" cy="1.06" r="1.06" transform="translate(1518.405 2068) rotate(11)" fill="#fff"/>
    <circle id="Ellipse_55" data-name="Ellipse 55" cx="1.06" cy="1.06" r="1.06" transform="translate(1518.405 2068) rotate(11)" fill="#fff"/>
    <circle id="Ellipse_56" data-name="Ellipse 56" cx="1.06" cy="1.06" r="1.06" transform="translate(1518.405 2068) rotate(11)" fill="#fff"/>
    <path id="Path_472" data-name="Path 472" d="M751.175,355.262a12.389,12.389,0,0,0-5.174.122,12.367,12.367,0,0,0,.366-5.228,12.3,12.3,0,0,0-4.625,2.985,12.293,12.293,0,0,0-2.377-4.965,12.367,12.367,0,0,0-2.426,4.646,12.39,12.39,0,0,0-4.344-2.814,9.927,9.927,0,0,0,6.6,11.623l.016.019.009-.01.108.039s.015-.075.035-.21l.038-.047c0,.021.005.041.008.06-.053.125-.081.2-.081.2l.112.023,0,.013.024-.008a9.928,9.928,0,0,0,11.71-6.444Z" transform="translate(834.06 1614.278) rotate(8)" fill="#fff"/>
    <circle id="Ellipse_57" data-name="Ellipse 57" cx="2.757" cy="2.757" r="2.757" transform="translate(1516 2066)" fill="#fff"/>
    <rect id="Rectangle_160" data-name="Rectangle 160" width="86.112" height="1.873" transform="translate(1479.762 2051) rotate(24)" fill="#fff"/>
    <rect id="Rectangle_161" data-name="Rectangle 161" width="14.847" height="14.847" transform="translate(1515.039 2059) rotate(24)" fill="#fff"/>
    <rect id="Rectangle_162" data-name="Rectangle 162" width="14.847" height="14.847" transform="translate(1515.039 2059) rotate(24)" fill="#fff"/>
    <rect id="Rectangle_163" data-name="Rectangle 163" width="14.847" height="14.847" transform="translate(1515.039 2104.763) rotate(24)" fill="#fff"/>
    <rect id="Rectangle_164" data-name="Rectangle 164" width="11.029" height="1.273" transform="translate(1514.518 2066) rotate(24)" fill="#fff"/>
    <rect id="Rectangle_165" data-name="Rectangle 165" width="11.029" height="1.273" transform="translate(1514.518 2110.6) rotate(24)" fill="#fff"/>
    <rect id="Rectangle_166" data-name="Rectangle 166" width="11.029" height="1.273" transform="translate(1514.518 2127.754) rotate(24)" fill="#fff"/>
    <ellipse id="Ellipse_58" data-name="Ellipse 58" cx="70.979" cy="2.624" rx="70.979" ry="2.624" transform="translate(1448 2131.741)" fill="#d0cde1"/>
    <ellipse id="Ellipse_59" data-name="Ellipse 59" cx="55.234" cy="2.624" rx="55.234" ry="2.624" transform="translate(1464 2161.482)" fill="#d0cde1"/>
    <path id="Path_473" data-name="Path 473" d="M778.172,621h15.935v6.664h-9.271v6.664h9.272v6.664H778.172Zm19.122,0h15.935v5.795h-9.271v1.159h9.271v13.328H797.294V635.2h9.271v-1.159h-9.272V621Zm19.122,0h15.935v5.795h-9.271v1.159h9.271v13.328H816.417V635.2h9.271v-1.159h-9.271V621Z" transform="translate(713.828 1522.737)" fill="#2d2d2d"/>
    <path id="Path_475" data-name="Path 475" d="M80.415,366.091l-.539,6.115,4.316-.36v-5.215Z" transform="translate(1437.124 1760.674)" fill="#d0cde1"/>
    <path id="Path_476" data-name="Path 476" d="M54.869,366.091l.54,6.115-4.316-.36v-5.215Z" transform="translate(1465.908 1760.674)" fill="#d0cde1"/>
    <path id="Path_478" data-name="Path 478" d="M168.935,564.433s.36-1.725,3.237-1.132a7.75,7.75,0,0,1,.719,2.211c0,.719.719,5.575.719,5.575s2.878,4.856-.719,4.856-4.856-1.259-5.036-2.518.18-1.619-.54-2.158-1.079-.54-.9-1.259.54-4.316.54-4.316.18-2.7,1.169-1.978l.989.719" transform="translate(1348.629 1566.109)" fill="#2d2d2d"/>
    <path id="Path_479" data-name="Path 479" d="M139.177,564.433s-.36-1.725-3.237-1.132a7.75,7.75,0,0,0-.719,2.211c0,.719-.719,5.575-.719,5.575s-2.878,4.856.719,4.856,4.856-1.259,5.036-2.518-.18-1.619.54-2.158,1.079-.54.9-1.259-.54-4.316-.54-4.316-.18-2.7-1.169-1.978l-.989.719" transform="translate(1381.589 1566.109)" fill="#2d2d2d"/>
    <g id="Group_218" data-name="Group 218" transform="translate(11 1)">
      <rect id="Rectangle_159" data-name="Rectangle 159" width="75.064" height="133.069" transform="translate(1471.499 2092.249) rotate(-66)" fill="#038d08"/>
      <path id="Path_474" data-name="Path 474" d="M220.926,499H227.5v6.495h6.013V499h6.574v19.667h-6.574v-6.586H227.5v6.586h-6.574V499Zm27.805,6.522h-5.786V499H261.1v6.522h-5.79v13.145h-6.574V505.522h0ZM263.977,499h6.854l4.216,6.911L279.259,499h6.857v19.667H279.57v-9.748l-4.523,6.993h-.113l-4.525-6.993v9.748h-6.432Zm25.411,0h6.576v13.167h9.244v6.5h-15.82V499Z" transform="translate(1203.187 1613.246)" fill="#2d2d2d"/>
      <path id="Path_477" data-name="Path 477" d="M143.835,365.276s1.439,8.633,1.439,9.892-.54,9.352-1.439,10.971-1.079,2.338-.719,3.057.18.54,0,1.079-.54.36,0,1.079a1.89,1.89,0,0,1,0,2.158c-.36.54.719,15.107-.719,16.186s-1.8,4.676-1.8,4.676l-4.676-.54v-3.957s-1.079-2.878-.36-4.676,1.079-11.33,1.079-11.33a3.573,3.573,0,0,1,0-1.439.8.8,0,0,0-.36-1.079c-.36-.18-.54-.9-.54-.9l-.54-13.129-2.158,12.949s2.158,17.625,0,19.963v4.136h-4.676l.719-4.5s-1.439-4.137-.719-5.036-2.158-15.287-1.8-15.827.18-.719,0-1.079-.719-.719-.54-1.079a2.061,2.061,0,0,0,0-1.079s-3.417-16.906-1.8-18.524S143.835,365.276,143.835,365.276Z" transform="translate(1274.041 1714.549)" fill="#141414"/>
      <circle id="Ellipse_60" data-name="Ellipse 60" cx="4.856" cy="4.856" r="4.856" transform="translate(1406.366 2037.021)" fill="#ffb8b8"/>
      <path id="Path_480" data-name="Path 480" d="M154.468,216.319s-1.978,7.733-2.338,7.913,8.273.9,8.273.9-2.158-6.654,0-7.733Z" transform="translate(1252.797 1826.278)" fill="#ffb8b8"/>
      <path id="Path_481" data-name="Path 481" d="M138.665,235.172h0l-5.93,4.1,1.079,32.193s7.913-.9,9.712-.719,7.554-1.619,7.554-1.619l-2.521-30.25a2.485,2.485,0,0,0-2.3-2.272l-1.08-.076s-1.079,2.672-4.325,1.293a3.788,3.788,0,0,1-2.186-2.649Z" transform="translate(1267.337 1812.137)" fill="#d0cde1"/>
      <path id="Path_482" data-name="Path 482" d="M126.344,234l-7.333,3.494-1.439,20.682s-2.878,12.409-.54,16.006a9.108,9.108,0,0,0,6.295,3.957s5.216-20.682,3.777-27.7S126.344,234,126.344,234Z" transform="translate(1279.801 1813.016)" fill="#141414"/>
      <path id="Path_483" data-name="Path 483" d="M101.306,358.8v2.7s-1.079,5.935,2.338,5.755,1.8-6.474,1.8-6.474l-1.079-1.978Z" transform="translate(1291.032 1719.407)" fill="#ffb8b8"/>
      <path id="Path_484" data-name="Path 484" d="M217.082,379.308l-.36,3.057s1.8,6.115-1.619,6.295-.937-6.257-.937-6.257l1.117-3.455Z" transform="translate(1206.909 1704.294)" fill="#ffb8b8"/>
      <path id="Path_485" data-name="Path 485" d="M179.361,238.085h0a21.181,21.181,0,0,1,8.857,4.6l.031.027-2.518,13.309-.36,4.856s6.654,23.74-1.079,20.323c0,0-6.654-20.682-5.755-30.214S179.361,238.085,179.361,238.085Z" transform="translate(1233.044 1809.952)" fill="#141414"/>
      <path id="Path_486" data-name="Path 486" d="M203.022,255.764a9.322,9.322,0,0,1,2.338.25s3.957,13.958,3.957,16.3.54,15.647.54,15.647l-4.747.479-3.843-18.491Z" transform="translate(1215.933 1796.724)" fill="#141414"/>
      <path id="Path_487" data-name="Path 487" d="M102.508,247.981h-1.259s-3.6,1.439-3.777,3.057-5.036,17.985-5.036,17.985L93.7,277.3l4.676-.719.9-9.172,4.676-10.071Z" transform="translate(1297.564 1802.529)" fill="#141414"/>
      <path id="Path_488" data-name="Path 488" d="M157.573,194.964l.186-1.3c.043-.3.22-.7.515-.618.25.07.8.284.887.22.342-.242.859.181,1.219-.034.151-.09.249-.283.424-.3a.483.483,0,0,1,.311.141,2.119,2.119,0,0,0,.806.438.867.867,0,0,0,.848-.231.45.45,0,0,1,.15-.144.337.337,0,0,1,.216.01l.919.25a3.53,3.53,0,0,0-.472-2.907,5.846,5.846,0,0,0-1.338-1.311q-.853-.649-1.762-1.221a5.722,5.722,0,0,0-2.14-.931,2.286,2.286,0,0,0-2.13.707,1.371,1.371,0,0,1-.493-.666.5.5,0,0,0,.033.774l-.777-.5c-.218.229.208.645.022.9a.475.475,0,0,1-.209.137,3.562,3.562,0,0,0-1.139.717,4.251,4.251,0,0,0-.9,1.653,5.216,5.216,0,0,0-.142,4.1c.075.141,1.059,2.468,1.19,2.558.443.307.155-.436.472,0,.249.342.2-.966.573-.679a.923.923,0,0,0,1,.045c.154-.106.1-.7.021-1.24a.64.64,0,0,1,.778-.72A2.785,2.785,0,0,0,157.573,194.964Z" transform="translate(1252.706 1848.269)" fill="#2f2e41"/>
      <path id="Path_489" data-name="Path 489" d="M117.655,134.02l1.978,16.366h-1.259Z" transform="translate(1301.75 1934.744)" opacity="0.2"/>
      <path id="Path_490" data-name="Path 490" d="M31.179,108.834l-1,6.295,1.9-6.295h-.9Z" transform="translate(1367.364 1953.636)" opacity="0.2"/>
      <rect id="Rectangle_353" data-name="Rectangle 353" width="317" height="195" transform="translate(1350 1971)" fill="none"/>
    </g>
  </g>
</svg>
