<svg xmlns="http://www.w3.org/2000/svg" xmlns:xlink="http://www.w3.org/1999/xlink" width="317" height="195.481" viewBox="0 0 317 195.481">
  <defs>
    <linearGradient id="linear-gradient" x1="0.5" y1="1" x2="0.5" gradientUnits="objectBoundingBox">
      <stop offset="0" stop-color="gray" stop-opacity="0.251"/>
      <stop offset="0.54" stop-color="gray" stop-opacity="0.122"/>
      <stop offset="1" stop-color="gray" stop-opacity="0.102"/>
    </linearGradient>
  </defs>
  <g id="Web_Design" data-name="Web Design" transform="translate(-802 -1972)">
    <g id="Group_71" data-name="Group 71" transform="translate(2985.149 -14.094)">
      <path id="Path_585" data-name="Path 585" d="M290.864,432.552c-1.8,1.8-10.254,3.766-10.254,3.766s1.947-8.464,3.729-10.262a4.6,4.6,0,0,1,6.515,6.5Z" transform="translate(-2386.587 1646.211)" fill="#038d08"/>
      <path id="Path_586" data-name="Path 586" d="M298.911,504.023c-1.465,2.075-9.471,5.444-9.471,5.444s.487-8.672,1.952-10.747a4.6,4.6,0,1,1,7.519,5.3Z" transform="translate(-2393.065 1593.339)" fill="#038d08"/>
      <path id="Path_592" data-name="Path 592" d="M290.864,432.552c-1.8,1.8-10.254,3.766-10.254,3.766s1.947-8.464,3.729-10.262a4.6,4.6,0,0,1,6.515,6.5Z" transform="translate(-2386.587 1646.211)" opacity="0.25"/>
      <path id="Path_593" data-name="Path 593" d="M298.911,504.023c-1.465,2.075-9.471,5.444-9.471,5.444s.487-8.672,1.952-10.747a4.6,4.6,0,1,1,7.519,5.3Z" transform="translate(-2393.065 1593.339)" opacity="0.25"/>
      <ellipse id="Ellipse_91" data-name="Ellipse 91" cx="47.676" cy="2.829" rx="47.676" ry="2.829" transform="translate(-2064.888 2163.911)" fill="#038d08" opacity="0.1"/>
      <ellipse id="Ellipse_92" data-name="Ellipse 92" cx="12.481" cy="2.272" rx="12.481" ry="2.272" transform="translate(-1978.562 2177.031)" fill="#038d08" opacity="0.1"/>
      <path id="Path_605" data-name="Path 605" d="M543.884,682.225v1.707h-50.5v-1.39a16.6,16.6,0,0,0,1.143-30.662h49.029a16.612,16.612,0,0,0,.333,30.345Z" transform="translate(-2539.486 1479.542)" fill="#c8cad7"/>
      <path id="Path_606" data-name="Path 606" d="M546.7,651.89a16.628,16.628,0,0,0-9.178,11.008H506.848a16.628,16.628,0,0,0-9.178-11.008Z" transform="translate(-2542.612 1479.535)" opacity="0.1"/>
      <path id="Path_607" data-name="Path 607" d="M276.21,619.22v9.588c0,5.295,4.025,9.588,8.989,9.588H439.542c4.965,0,8.99-4.293,8.99-9.588V619.22Z" transform="translate(-2383.359 1503.504)" fill="#c8cad7"/>
      <path id="Path_608" data-name="Path 608" d="M543.884,760.975v1.707h-50.5v-1.39a16.571,16.571,0,0,0,3.894-2.072h43.521A16.645,16.645,0,0,0,543.884,760.975Z" transform="translate(-2539.486 1400.792)" opacity="0.1"/>
      <rect id="Rectangle_182" data-name="Rectangle 182" width="90.287" height="5.061" rx="2.53" transform="translate(-2065.999 2160.544)" fill="#c8cad7"/>
      <path id="Path_609" data-name="Path 609" d="M448.531,200.876a8.828,8.828,0,0,0-8.989-8.656H285.2a8.828,8.828,0,0,0-8.989,8.656V307.814H448.531Z" transform="translate(-2383.359 1816.774)" fill="#141414"/>
      <rect id="Rectangle_183" data-name="Rectangle 183" width="163.265" height="100.412" rx="16" transform="translate(-2102.621 2017.251)" fill="#ededf4"/>
      <circle id="Ellipse_93" data-name="Ellipse 93" cx="1.998" cy="1.998" r="1.998" transform="translate(-2022.986 2011.125)" fill="#fff"/>
      <circle id="Ellipse_94" data-name="Ellipse 94" cx="4.927" cy="4.927" r="4.927" transform="translate(-2025.916 2127.784)" fill="#fff"/>
      <path id="Path_610" data-name="Path 610" d="M456.475,227.482H293.21a4.351,4.351,0,0,1,4.435-4.262h154.4A4.351,4.351,0,0,1,456.475,227.482Z" transform="translate(-2395.831 1794.031)" fill="#c8cad7"/>
      <circle id="Ellipse_95" data-name="Ellipse 95" cx="1.065" cy="1.065" r="1.065" transform="translate(-2099.426 2018.317)" fill="#ededf4"/>
      <circle id="Ellipse_96" data-name="Ellipse 96" cx="1.065" cy="1.065" r="1.065" transform="translate(-2096.229 2018.317)" fill="#ededf4"/>
      <circle id="Ellipse_97" data-name="Ellipse 97" cx="1.065" cy="1.065" r="1.065" transform="translate(-2093.033 2018.317)" fill="#ededf4"/>
      <rect id="Rectangle_184" data-name="Rectangle 184" width="40.218" height="2.397" transform="translate(-2096.762 2025.108)" fill="#038d08"/>
      <rect id="Rectangle_185" data-name="Rectangle 185" width="40.218" height="2.397" transform="translate(-2096.762 2095.157)" fill="#038d08"/>
      <rect id="Rectangle_186" data-name="Rectangle 186" width="74.576" height="2.397" transform="translate(-2096.762 2100.484)" fill="#038d08" opacity="0.2"/>
      <rect id="Rectangle_187" data-name="Rectangle 187" width="74.576" height="2.397" transform="translate(-2096.762 2103.949)" fill="#038d08" opacity="0.2"/>
      <rect id="Rectangle_188" data-name="Rectangle 188" width="74.576" height="2.397" transform="translate(-2096.762 2107.411)" fill="#038d08" opacity="0.2"/>
      <rect id="Rectangle_189" data-name="Rectangle 189" width="74.044" height="40.218" transform="translate(-2096.762 2031.5)" fill="#038d08" opacity="0.2"/>
      <rect id="Rectangle_190" data-name="Rectangle 190" width="17.312" height="15.981" transform="translate(-2095.963 2075.448)" fill="#038d08" opacity="0.2"/>
      <rect id="Rectangle_191" data-name="Rectangle 191" width="17.312" height="15.981" transform="translate(-2037.145 2075.448)" fill="#038d08" opacity="0.2"/>
      <rect id="Rectangle_192" data-name="Rectangle 192" width="17.312" height="15.981" transform="translate(-2066.73 2075.448)" fill="#038d08" opacity="0.2"/>
      <rect id="Rectangle_193" data-name="Rectangle 193" width="50.96" height="37.509" transform="translate(-2000.525 2043.198)" fill="#038d08" opacity="0.2"/>
      <rect id="Rectangle_194" data-name="Rectangle 194" width="40.218" height="2.397" transform="translate(-1995.155 2050.811)" fill="#ededf4"/>
      <rect id="Rectangle_195" data-name="Rectangle 195" width="40.218" height="2.397" transform="translate(-1995.155 2055.783)" fill="#ededf4"/>
      <rect id="Rectangle_196" data-name="Rectangle 196" width="40.218" height="2.397" transform="translate(-1995.155 2060.756)" fill="#ededf4"/>
      <rect id="Rectangle_197" data-name="Rectangle 197" width="40.218" height="2.397" transform="translate(-1995.155 2065.726)" fill="#ededf4"/>
      <rect id="Rectangle_198" data-name="Rectangle 198" width="40.218" height="2.397" transform="translate(-1995.155 2070.698)" fill="#ededf4"/>
      <rect id="Rectangle_199" data-name="Rectangle 199" width="38.532" height="6.747" transform="translate(-1994.311 2084.969)" fill="#038d08"/>
      <rect id="Rectangle_200" data-name="Rectangle 200" width="25.838" height="4.525" transform="translate(-1997.998 2107.449)" fill="#038d08"/>
      <path id="Path_629" data-name="Path 629" d="M738.1,474.845a1.884,1.884,0,0,1-.5-1.332c0-.125-.019-.248-.024-.365a1.33,1.33,0,0,0,.37-.336c.631-.895-.876-4.142-.876-4.142a5.137,5.137,0,0,0,0-3.154,6.89,6.89,0,0,0-.85-1.742s-1.971-4.048-1.678-4.528-.487-4.262-1.065-5.021a11.084,11.084,0,0,0-.778-.943,5.483,5.483,0,0,0-.73-2.93,24.656,24.656,0,0,1-1.75-4.847,29.658,29.658,0,0,0-1.75-4.528,5.063,5.063,0,0,0-1.065-1.095c.115-.533.378-1.238-.378-5.415-.309-1.715.173-2.738.57-4.435a5.369,5.369,0,0,0-.906-4.941c-1.217-1.281-3.106-1.521-4.616-2.4-1.332-.77-2.517-2.072-4.072-2.048a4.21,4.21,0,0,0-2.192.626c-1.819.74-3.865.517-5.713,1.129-1.662.551-3.774,2.362-3.271,4.283a2.1,2.1,0,0,0,.613,1.14,1.378,1.378,0,0,0,1.292.232.168.168,0,0,1-.019.093,4.921,4.921,0,0,0-.064.8,5.262,5.262,0,0,0,5.308,5.178c.016.061.029.125.045.189.04.17.077.341.115.517-.138.184-.282.368-.418.551a5.349,5.349,0,0,0-.8,1.42c-1.539.314-4.12.823-4.528,1.489-.533.895-2.722,5.327-2.48,7.343.013.112.024.266.035.426a25.514,25.514,0,0,0-1.542,3.151c-.194.754-.631,3.577-1.46,4.235s-2.528,2.778-2.285,3.2-2.285.94-2.285.94-1.7.658-1.6,1.177c.029.157-.091.306-.266.45-1.934-.637-4.4-1.065-6.307-.1-2.663,1.35,2.008,2.28,4.794,2.687.458.069.863.123,1.177.16.021.091.109.17.333.248.176.061.437.157.74.266l.112-.346c.924.328,3.446,1.348,3.446,1.348s2.189.357,2.821-.914a11.522,11.522,0,0,1,1.785-2.131l-.088.285-1.843,6.081s-2.916,4.528-2.77,5.505a8.632,8.632,0,0,1-1.167,3.729c-.242.245-2.663,7.388-3.939,7.86s-2.967,2.117-2.4,2.637,2.93,2.211,4,1.646,2.93.471,2.93.471a7.076,7.076,0,0,1,3.7.463c.019.184.04.384.061.594a23.2,23.2,0,0,0,.756,4.448c.487,1.036.924,2.871.533,3.577s.341,14.167,1.065,16.473a21.39,21.39,0,0,1,1.217,6.608c-.08,1.153-.128,2.307-.136,3.462v.192c0,.064-.045.1-.067.154v.1a9.56,9.56,0,0,0-.424,1.228s-1.254,3.154-.831,3.977a.737.737,0,0,0,.2.232,5.781,5.781,0,0,0,2.663.61l-.024.8h.716s.019-.8.067-1.8a4.9,4.9,0,0,0,.309-1.753,7.169,7.169,0,0,1,.639-3.028s.016-.083.032-.216h0a5.354,5.354,0,0,0,.045-.828,2.93,2.93,0,0,0-.266-1.409,3.169,3.169,0,0,1,.053-.86,45.842,45.842,0,0,0-.293-5.647l.826-9.085s.487-7.013.293-8.848a5.831,5.831,0,0,1,.035-1.476,47.622,47.622,0,0,0,.533-6.025v-.565a12.453,12.453,0,0,0,4.768.109s.7-.016,1.625,0c.024.192.051.381.077.565a10.554,10.554,0,0,0,.482,2.24c.485,1.036.924,2.871.533,3.577s.338,14.167,1.065,16.473a21.3,21.3,0,0,1,1.22,6.608c-.08,1.151-.128,2.3-.136,3.463v.213c-.024.051-.048.1-.069.154s0,.072,0,.1a9.7,9.7,0,0,0-.4,1.233s-1.257,3.156-.831,3.979a.7.7,0,0,0,.2.229,5.747,5.747,0,0,0,2.663.61l-.024.8h.716s.019-.8.067-1.8a4.9,4.9,0,0,0,.309-1.753,7.191,7.191,0,0,1,.629-3.028,5.53,5.53,0,0,0,.077-1.039,2.915,2.915,0,0,0-.28-1.417,3.275,3.275,0,0,1,.053-.858,45.941,45.941,0,0,0-.29-5.649l.826-9.082s.487-7.013.29-8.848a5.949,5.949,0,0,1,.037-1.476,47.493,47.493,0,0,0,.533-5.724v-.573c.176-.216.533-.386,1.518-.716,1.7-.565,5.106-3.391,6.467-3.577s2.576-1.084,2.187-1.79-2.528-1.177-2.333-2.259-1.313-1.742-1.992-3.529-3.649-3.2-3.7-4.528-2.8-5.4-2.8-5.4-2.767-4.6-3.38-7.415a.993.993,0,0,0-.035-.181h.035a5.094,5.094,0,0,1-.1-.639,1,1,0,0,1,.024-.181h-.037v-.12a.439.439,0,0,1,.059-.037l.16-.093-.053.021a5.277,5.277,0,0,0,.882-.719,3.916,3.916,0,0,0,1.015-1.417,7.189,7.189,0,0,0,.4-1.864l.346-.533c.336,1.4.826,3.417.98,3.867a39.254,39.254,0,0,1,1.753,5.849,19.865,19.865,0,0,0,2.131,5.508s2.48,3.247,4.376,3.388.828.658,1.119.754l.083.019.029.381.083,1.105s1.944,7.908,4.134,6.779S738.828,475.362,738.1,474.845Z" transform="translate(-2680.105 1649.186)" fill="url(#linear-gradient)"/>
      <path id="Path_630" data-name="Path 630" d="M861.656,623.168c-2.1,1.124-3.974-6.728-3.974-6.728l-.08-1.1-.152-2.08,2.57.328a7.843,7.843,0,0,0,0,1.35,1.9,1.9,0,0,0,.482,1.313C861.187,616.768,863.757,622.047,861.656,623.168Z" transform="translate(-2803.401 1507.876)" fill="#a1616a"/>
      <path id="Path_631" data-name="Path 631" d="M754.21,822.226l.178-.136A.956.956,0,0,1,754.21,822.226Z" transform="translate(-2729.14 1354.667)" fill="#a1616a"/>
      <path id="Path_632" data-name="Path 632" d="M752.6,660.64V666.7a49.005,49.005,0,0,1-.533,5.985,5.979,5.979,0,0,0-.035,1.462c.186,1.824-.266,8.789-.266,8.789l-.8,9.021a44.692,44.692,0,0,1,.266,5.593,3.394,3.394,0,0,0-.051.855c.027.8.165,1.824.21,2.131v.093l-.029.021-3.907,2.98c.623-.567.783-1.888.78-3.114v-.4q0-1.718.133-3.436a21.868,21.868,0,0,0-1.172-6.563c-.7-2.288-1.4-15.656-1.028-16.356s-.048-2.525-.514-3.553a24.5,24.5,0,0,1-.7-4.413c-.1-.969-.162-1.7-.162-1.7Z" transform="translate(-2722.094 1473.115)" fill="#a1616a"/>
      <path id="Path_633" data-name="Path 633" d="M805.26,817.7l.192-.144A1.121,1.121,0,0,1,805.26,817.7Z" transform="translate(-2765.111 1357.99)" fill="#a1616a"/>
      <path id="Path_634" data-name="Path 634" d="M803.625,656.14V662.5a48.994,48.994,0,0,1-.514,5.686,5.98,5.98,0,0,0-.035,1.462c.186,1.824-.266,8.789-.266,8.789l-.8,9.021a47,47,0,0,1,.282,5.593,3.255,3.255,0,0,0-.051.852c.027.8.168,1.84.21,2.131a.231.231,0,0,0,.013.088l-.029.021h0l-3.913,2.98c.6-.581.762-1.886.759-3.095v-.4c0-1.145.053-2.291.13-3.436a21.936,21.936,0,0,0-1.172-6.56c-.7-2.288-1.4-15.656-1.028-16.356s-.048-2.525-.514-3.553a10.672,10.672,0,0,1-.466-2.224c-.248-1.779-.423-3.9-.423-3.9Z" transform="translate(-2758.178 1476.417)" fill="#a1616a"/>
      <path id="Path_635" data-name="Path 635" d="M784.258,453.764l-.04.061a5.129,5.129,0,0,1-3.556,2.131,4.415,4.415,0,0,1-.626.043c-.016-.064-.029-.128-.045-.189-.306-1.332-.631-2.4-.631-2.4s.349-.5.858-1.145c1.382-1.747,3.929-4.509,3.729-.818a6.331,6.331,0,0,0,.266,2.213A.3.3,0,0,1,784.258,453.764Z" transform="translate(-2746.11 1627.929)" opacity="0.1"/>
      <path id="Path_636" data-name="Path 636" d="M772.861,439.341a5.138,5.138,0,0,1-4.509,5.1,4.976,4.976,0,0,1-.634.04h-.037a5.14,5.14,0,1,1,5.18-5.14Z" transform="translate(-2734.87 1639.244)" fill="#a1616a"/>
      <path id="Path_637" data-name="Path 637" d="M790.128,465.628l-4.986,4.262s-5.436-7.756-4.794-9.346a5.347,5.347,0,0,0,.051-2.368c-.072-.533-.176-1.121-.293-1.675-.035-.173-.072-.344-.109-.511-.016-.064-.029-.128-.045-.189-.306-1.332-.631-2.4-.631-2.4s.349-.5.858-1.145c1.382-1.747,3.929-4.509,3.729-.818a6.331,6.331,0,0,0,.266,2.213.362.362,0,0,0,.04.125,11.461,11.461,0,0,0,3.761,5,14.866,14.866,0,0,0,1.718,1.22Z" transform="translate(-2746.08 1627.936)" fill="#a1616a"/>
      <path id="Path_638" data-name="Path 638" d="M744.79,664.093l7.807-3.463v6.059a2.69,2.69,0,0,1-.506-.237,4.72,4.72,0,0,0-3.6-.213,4.092,4.092,0,0,1-3.319-.328c-.072-.043-.144-.083-.213-.117C744.846,664.828,744.79,664.093,744.79,664.093Z" transform="translate(-2722.094 1473.123)" opacity="0.1"/>
      <path id="Path_639" data-name="Path 639" d="M803.676,656.14V662.5a2.85,2.85,0,0,0-.266.589c-.282.655-2.2.89-3.881.613a24.028,24.028,0,0,0-3.225-.2c-.248-1.779-.423-3.9-.423-3.9Z" transform="translate(-2758.23 1476.417)" opacity="0.1"/>
      <path id="Path_640" data-name="Path 640" d="M745.741,529.71c-1.31.186-4.581,2.991-6.216,3.553s-1.449.653-1.729,1.308-2.2.887-3.881.61a34.819,34.819,0,0,0-4.861-.189s-3.54.613-5.092-.349a4.678,4.678,0,0,0-3.6-.213,4.092,4.092,0,0,1-3.319-.328,6.37,6.37,0,0,0-3.833-.607s-1.777-1.028-2.8-.466-3.271-1.121-3.833-1.635,1.065-2.149,2.291-2.618,3.553-7.572,3.785-7.8a8.628,8.628,0,0,0,1.121-3.692c-.141-.98,2.663-5.471,2.663-5.471l1.774-6.035.533-1.864.021-1.111c0-.5.024-1.143.037-1.864.048-2.983.1-7.407,0-9.407-.016-.309-.032-.559-.053-.74-.234-2.008,1.864-6.392,2.384-7.29.384-.663,2.866-1.167,4.344-1.478a9.5,9.5,0,0,0,1.044-.25,1.22,1.22,0,0,1,.41-.032c1.4.056,5.511.919,5.511.919-.373,11.264.376,9.3.376,9.3,1.215-.935.466-9.208.466-9.208.607.28,1.228-.424,1.228-.424l2.37.983a23.447,23.447,0,0,1,2.091,1.414,6.3,6.3,0,0,1,1.462,1.438,29.9,29.9,0,0,1,1.683,4.488l-.842,1.332c-.735,1.18-1.864,2.994-3.023,4.831l-2.056,3.273c-.919,1.46-1.667,2.645-1.979,3.127a1.162,1.162,0,0,0-.146.375,1.957,1.957,0,0,0-.035.266,4.2,4.2,0,0,0,.109,1.108c.589,2.791,3.249,7.365,3.249,7.365s2.663,4.064,2.711,5.372,2.9,2.711,3.553,4.488,2.1,2.429,1.915,3.505,1.864,1.542,2.243,2.243S747.049,529.523,745.741,529.71Z" transform="translate(-2692.626 1604.373)" fill="#d0cde1"/>
      <path id="Path_641" data-name="Path 641" d="M860.015,614.938a4.053,4.053,0,0,1-2.413.4l-.152-2.08,2.57.328A7.831,7.831,0,0,0,860.015,614.938Z" transform="translate(-2803.401 1507.876)" opacity="0.1"/>
      <path id="Path_642" data-name="Path 642" d="M822.827,510.09l1.918,1.356a24.882,24.882,0,0,0,1.681,4.813,5.564,5.564,0,0,1,.7,2.9,10.125,10.125,0,0,1,.748.935c.562.748,1.308,4.5,1.028,4.986s1.614,4.5,1.614,4.5a6.073,6.073,0,0,1,.818,1.729,5.336,5.336,0,0,1,0,3.132s1.449,3.225.842,4.112-2.573.8-2.853.7.748-.607-1.065-.748-4.208-3.364-4.208-3.364a20.09,20.09,0,0,1-2.056-5.468,40.239,40.239,0,0,0-1.681-5.8c-.234-.7-1.262-5.234-1.262-5.234Z" transform="translate(-2775.229 1583.567)" fill="#d0cde1"/>
      <path id="Path_643" data-name="Path 643" d="M775.369,510.09s-.141,10.843-1.449,12.992Z" transform="translate(-2743.358 1583.567)" opacity="0.1"/>
      <path id="Path_644" data-name="Path 644" d="M801.3,524.48s-1.214,10.843-2.173,11.4S801.3,524.48,801.3,524.48Z" transform="translate(-2760.479 1573.01)" opacity="0.1"/>
      <path id="Path_645" data-name="Path 645" d="M795.007,518.69s-.3,10.225-1.838,11.234S795.007,518.69,795.007,518.69Z" transform="translate(-2755.945 1577.258)" opacity="0.1"/>
      <path id="Path_646" data-name="Path 646" d="M745.988,591.33s-1.934,5.655-1.715,7.99S745.988,591.33,745.988,591.33Z" transform="translate(-2721.893 1523.965)" opacity="0.1"/>
      <path id="Path_647" data-name="Path 647" d="M768.095,559.264c-2.53.567-9.375,1.585-15.395-2.16,0-.5.024-1.143.037-1.864,2.285,1.257,8.7,4.528,11.972,3.612,1.63-.466,2.663-.762,3.311-.953A3.52,3.52,0,0,0,768.095,559.264Z" transform="translate(-2726.551 1550.443)" opacity="0.1"/>
      <path id="Path_648" data-name="Path 648" d="M768.095,557.165c-2.53.565-9.375,1.582-15.395-2.16,0-.5.024-1.145.037-1.864,2.285,1.257,8.7,4.528,11.972,3.612,1.63-.463,2.663-.762,3.311-.951A3.523,3.523,0,0,0,768.095,557.165Z" transform="translate(-2726.551 1551.983)" opacity="0.1"/>
      <path id="Path_649" data-name="Path 649" d="M768.095,557.914c-2.53.565-9.375,1.582-15.395-2.16,0-.5.024-1.143.037-1.864,2.285,1.257,8.7,4.528,11.972,3.612,1.63-.463,2.663-.762,3.311-.951A3.523,3.523,0,0,0,768.095,557.914Z" transform="translate(-2726.551 1551.433)" fill="#605d82"/>
      <path id="Path_650" data-name="Path 650" d="M768.095,557.914c-2.53.565-9.375,1.582-15.395-2.16,0-.5.024-1.143.037-1.864,2.285,1.257,8.7,4.528,11.972,3.612,1.63-.463,2.663-.762,3.311-.951A3.523,3.523,0,0,0,768.095,557.914Z" transform="translate(-2726.551 1551.433)" opacity="0.1"/>
      <path id="Path_651" data-name="Path 651" d="M758.8,802.775a.442.442,0,0,1-.016.115l-3.907,2.98c.623-.567.783-1.888.78-3.114v-.4a7.885,7.885,0,0,1,1.444-2.307,1.2,1.2,0,0,1,1.332.3v.085a1.23,1.23,0,0,1,.138.208A3.791,3.791,0,0,1,758.8,802.775Z" transform="translate(-2729.509 1370.887)" opacity="0.1"/>
      <path id="Path_652" data-name="Path 652" d="M760.348,801.779,757.4,803.8s.019-.237.045-.586a8.07,8.07,0,0,1,1.51-2.464,1.2,1.2,0,0,1,1.332.3C760.311,801.491,760.348,801.779,760.348,801.779Z" transform="translate(-2731.364 1370.37)" opacity="0.1"/>
      <path id="Path_653" data-name="Path 653" d="M757.172,803.821a7.353,7.353,0,0,0-.613,3.01,4.645,4.645,0,0,1-.626,2.426,2.086,2.086,0,0,1-.205.3,6.064,6.064,0,0,1-2.765-.61.7.7,0,0,1-.2-.226c-.41-.818.8-3.95.8-3.95a8.683,8.683,0,0,1,1.923-3.7C757.787,800.459,757.172,803.821,757.172,803.821Z" transform="translate(-2727.901 1370.148)" fill="#141414"/>
      <path id="Path_654" data-name="Path 654" d="M756.71,819.664a2.075,2.075,0,0,1-.205.3,6.063,6.063,0,0,1-2.765-.61c.352-1.167,1.478-4.7,2-4.1S756.585,818.537,756.71,819.664Z" transform="translate(-2728.716 1359.733)" opacity="0.1"/>
      <path id="Path_655" data-name="Path 655" d="M763.441,815.494l-.141,5.29h.687a36.267,36.267,0,0,1,.418-5.29C764.714,814.844,763.441,815.494,763.441,815.494Z" transform="translate(-2735.686 1359.718)" fill="#2d2d2d"/>
      <path id="Path_656" data-name="Path 656" d="M809.9,798.283l-.016.109h0L806,801.351c.6-.581.762-1.886.759-3.095v-.4a7.875,7.875,0,0,1,1.441-2.3,1.231,1.231,0,0,1,1.345.3v.088a1.1,1.1,0,0,1,.139.205A3.868,3.868,0,0,1,809.9,798.283Z" transform="translate(-2765.654 1374.188)" opacity="0.1"/>
      <path id="Path_657" data-name="Path 657" d="M811.4,797.27,808.45,799.3s.019-.237.048-.586a7.993,7.993,0,0,1,1.508-2.464,1.21,1.21,0,0,1,1.345.3C811.361,796.985,811.4,797.27,811.4,797.27Z" transform="translate(-2767.452 1373.677)" opacity="0.1"/>
      <path id="Path_658" data-name="Path 658" d="M808.241,799.318a7.308,7.308,0,0,0-.615,3.01,4.646,4.646,0,0,1-.626,2.426,2.313,2.313,0,0,1-.205.3,6.063,6.063,0,0,1-2.765-.61.737.737,0,0,1-.192-.229c-.407-.818.8-3.95.8-3.95a8.684,8.684,0,0,1,1.923-3.7C808.854,795.962,808.241,799.318,808.241,799.318Z" transform="translate(-2764.007 1373.452)" fill="#141414"/>
      <path id="Path_659" data-name="Path 659" d="M807.76,815.186a2.312,2.312,0,0,1-.205.3,6.063,6.063,0,0,1-2.765-.61c.352-1.167,1.478-4.7,2-4.1S807.635,814.052,807.76,815.186Z" transform="translate(-2764.766 1363.02)" opacity="0.1"/>
      <path id="Path_660" data-name="Path 660" d="M814.494,810.994l-.144,5.287h.687a36.233,36.233,0,0,1,.418-5.287C815.764,810.344,814.494,810.994,814.494,810.994Z" transform="translate(-2771.78 1363.019)" fill="#2d2d2d"/>
      <path id="Path_661" data-name="Path 661" d="M782.834,458.551A3.307,3.307,0,0,1,780.8,461.7c-.373.115-.77.141-1.151.218a2.464,2.464,0,0,0-.533.162,2.88,2.88,0,0,0-1.39,2.192c-.059.3-.1.61-.133.919a6.6,6.6,0,0,1-.365,1.723,4.363,4.363,0,0,1-1.8,2.045,11.559,11.559,0,0,1-2.98,1.246,6.7,6.7,0,0,0,.8-5.567c-.17-.546-.533-1.156-1.111-1.14-.45.013-.772.413-1.108.716-1.651,1.486-4.235.823-6.326.075a13.451,13.451,0,0,0,2.517-14.753,4.871,4.871,0,0,1-.458-1.191,2.482,2.482,0,0,1,.115-1.23,5.454,5.454,0,0,1,.756-1.409c.131-.184.266-.365.4-.549.178-.242.357-.487.517-.74a4.072,4.072,0,0,0,.533-1.153,1.962,1.962,0,0,0-.972-2.36l-.048-.019a3.113,3.113,0,0,1-1.931-1.172c-.442-.517-.693-1.332-1.449-1.484a4.355,4.355,0,0,0-1.84.3,5.143,5.143,0,1,1,9.269,3.774,11.333,11.333,0,0,0,3.8,5.122l2.37.983a23.464,23.464,0,0,1,2.091,1.414,30.581,30.581,0,0,0,1.508,4.871,17.169,17.169,0,0,1,.8,2.4A5.905,5.905,0,0,1,782.834,458.551Z" transform="translate(-2733.997 1639.266)" opacity="0.1"/>
      <path id="Path_662" data-name="Path 662" d="M762.995,432.182a1.947,1.947,0,0,1,1.02,2.378A7.949,7.949,0,0,1,762.569,437a3.648,3.648,0,0,0-.874,2.64,4.869,4.869,0,0,0,.458,1.191,13.476,13.476,0,0,1-2.517,14.753c2.091.748,4.677,1.412,6.326-.075.336-.3.658-.7,1.108-.716.573-.019.943.594,1.111,1.14a6.694,6.694,0,0,1-.8,5.564c1.926-.559,4.04-1.425,4.778-3.289a14.1,14.1,0,0,0,.5-2.645,2.876,2.876,0,0,1,1.39-2.189,13.861,13.861,0,0,1,1.683-.381,3.305,3.305,0,0,0,2.035-3.148,10.271,10.271,0,0,0-.959-3.859c-2.663-6.925-.16-1.377-1.619-9.711-.3-1.7.168-2.719.549-4.4a5.477,5.477,0,0,0-.871-4.906c-1.169-1.273-2.986-1.51-4.437-2.373-1.286-.767-2.418-2.059-3.915-2.035a3.929,3.929,0,0,0-2.107.621c-1.75.735-3.713.514-5.492,1.121-1.6.549-3.628,2.344-3.143,4.262.653,2.581,2.442.682,3.838.972.756.16,1.007.964,1.449,1.484A3.2,3.2,0,0,0,762.995,432.182Z" transform="translate(-2728.748 1647.785)" fill="#141414"/>
      <path id="Path_663" data-name="Path 663" d="M700.33,567.346s-.756-.08-1.774-.237c-2.663-.4-7.167-1.332-4.605-2.663,2.352-1.231,5.593-.186,7.49.65a16.6,16.6,0,0,1,1.577.8Z" transform="translate(-2684.734 1544.103)" fill="#a1616a"/>
      <path id="Path_664" data-name="Path 664" d="M756.581,497.927a71.612,71.612,0,0,1-1.822,7.476c-.607,1.35-1.6,4.909-1.6,4.909s-1.436,1.3-2.621,2.562l.533-1.864.021-1.111c0-.5.024-1.143.037-1.864.048-2.983.1-7.407,0-9.407.1-.194.17-.314.17-.314l.946-1.5a34.358,34.358,0,0,1,2.429-5.282C755.563,490.363,756.581,497.927,756.581,497.927Z" transform="translate(-2726.306 1597.273)" opacity="0.1"/>
      <path id="Path_665" data-name="Path 665" d="M716.825,568.367s-.136.533-.365,1.252c-.29-.117-.533-.21-.711-.266-.8-.266.141-.607-.093-1.308-.2-.6-.57-.413-1-.581a11.645,11.645,0,0,1,.9-1.084Z" transform="translate(-2700.475 1542.27)" opacity="0.1"/>
      <path id="Path_666" data-name="Path 666" d="M726.851,496.807l-.945,1.5a28.3,28.3,0,0,0-1.484,3.116c-.2.738-.6,3.561-1.4,4.216s-2.432,2.757-2.2,3.177-2.2.935-2.2.935-1.635.655-1.542,1.169-1.356.935-.842,1.308.983,0,1.217.7-.7,1.031.093,1.31,3.412,1.374,3.412,1.374,2.1.354,2.709-.908,4.067-4.392,4.067-4.392a50.488,50.488,0,0,1,1.6-4.909,69.4,69.4,0,0,0,1.824-7.476s-.983-7.572-1.864-6.392A36.058,36.058,0,0,0,726.851,496.807Z" transform="translate(-2701.152 1597.271)" fill="#d0cde1"/>
      <path id="Path_667" data-name="Path 667" d="M738.44,556.94s-4.626.607-2.149,1.635,3.319,0,3.319,0Z" transform="translate(-2715.537 1549.196)" opacity="0.1"/>
      <path id="Path_668" data-name="Path 668" d="M724.79,566.605s2.711-.559,3.412,0S724.79,566.605,724.79,566.605Z" transform="translate(-2707.764 1542.287)" opacity="0.1"/>
      <path id="Path_669" data-name="Path 669" d="M723.74,571.986s.186-.469,1.121,0S723.74,571.986,723.74,571.986Z" transform="translate(-2707.065 1538.31)" opacity="0.1"/>
      <path id="Path_670" data-name="Path 670" d="M838.58,589.32s.282,4.261,1.43,4.4S838.58,589.32,838.58,589.32Z" transform="translate(-2789.557 1525.44)" opacity="0.1"/>
      <path id="Path_671" data-name="Path 671" d="M843.975,553.1a1.332,1.332,0,0,1-1.025,1.537C841.73,554.871,843.975,553.1,843.975,553.1Z" transform="translate(-2792.496 1552.013)" opacity="0.1"/>
      <path id="Path_672" data-name="Path 672" d="M795.85,600.69s-.061,13.149,2.618,14.769Z" transform="translate(-2758.207 1517.098)" opacity="0.1"/>
      <path id="Path_673" data-name="Path 673" d="M809.18,602.8s-.048,13.147,2.616,14.769Z" transform="translate(-2767.987 1515.55)" opacity="0.1"/>
      <path id="Path_674" data-name="Path 674" d="M755.72,709.574a9.848,9.848,0,0,1,1.825,0C758.559,709.656,755.72,709.574,755.72,709.574Z" transform="translate(-2730.176 1437.246)" opacity="0.1"/>
      <path id="Path_675" data-name="Path 675" d="M755.72,713.023a9.859,9.859,0,0,1,1.825,0C758.559,713.117,755.72,713.023,755.72,713.023Z" transform="translate(-2730.176 1434.715)" opacity="0.1"/>
      <path id="Path_676" data-name="Path 676" d="M807.77,705.523a9.859,9.859,0,0,1,1.825,0C810.609,705.619,807.77,705.523,807.77,705.523Z" transform="translate(-2766.953 1440.218)" opacity="0.1"/>
      <path id="Path_677" data-name="Path 677" d="M808.94,708.284a9.847,9.847,0,0,1,1.824,0C811.777,708.377,808.94,708.284,808.94,708.284Z" transform="translate(-2767.811 1438.193)" opacity="0.1"/>
      <g id="Group_68" data-name="Group 68" transform="translate(-1972.996 2072.233)" opacity="0.1">
        <path id="Path_678" data-name="Path 678" d="M760.773,460.328a13.45,13.45,0,0,0,2.517-14.753,4.871,4.871,0,0,1-.458-1.191,3.637,3.637,0,0,1,.874-2.639,7.846,7.846,0,0,0,1.446-2.442,1.945,1.945,0,0,0-1.02-2.376,3.117,3.117,0,0,1-1.931-1.175c-.442-.517-.693-1.332-1.449-1.481-1.4-.29-3.2,1.6-3.838-.975-.368-1.444.706-2.823,1.944-3.646-1.548.642-3.337,2.346-2.879,4.15.653,2.581,2.442.685,3.838.975.756.157,1.007.964,1.449,1.481a3.123,3.123,0,0,0,1.931,1.175,1.943,1.943,0,0,1,1.02,2.376,7.951,7.951,0,0,1-1.446,2.442,3.65,3.65,0,0,0-.874,2.642,4.891,4.891,0,0,0,.458,1.188,13.475,13.475,0,0,1-2.517,14.753c2.014.722,4.483,1.361,6.126.083C764.406,461.462,762.435,460.922,760.773,460.328Z" transform="translate(-755.906 -429.65)"/>
        <path id="Path_679" data-name="Path 679" d="M826.843,535.535a1.836,1.836,0,0,0-.533.368c.421-.1.866-.117,1.278-.248a2.4,2.4,0,0,0,.868-.485A10.579,10.579,0,0,0,826.843,535.535Z" transform="translate(-807.558 -507.065)"/>
        <path id="Path_680" data-name="Path 680" d="M802.02,547.833a14.747,14.747,0,0,1-2.024.732,6.693,6.693,0,0,0,.8-5.564c-.168-.533-.533-1.159-1.111-1.143a1.42,1.42,0,0,0-.884.506c.533.019.9.61,1.065,1.14a6.693,6.693,0,0,1-.8,5.564A11.7,11.7,0,0,0,802.02,547.833Z" transform="translate(-787.376 -511.973)"/>
      </g>
    </g>
    <rect id="Rectangle_355" data-name="Rectangle 355" width="317" height="195" transform="translate(802 1972)" fill="none"/>
  </g>
</svg>
