<svg xmlns="http://www.w3.org/2000/svg" width="90" height="90" viewBox="0 0 90 90"><g transform="translate(-788 -137)"><rect width="90" height="90" rx="10" transform="translate(788 137)" fill="#ffebd4" opacity="0.3"/><g transform="translate(809 129)"><path d="M177,49a8,8,0,1,0-8-8A8.007,8.007,0,0,0,177,49Zm0-13.238a5.24,5.24,0,1,1-5.24,5.24A5.246,5.246,0,0,1,177,35.758Z" transform="translate(-153.464)" fill="#f80"/><path d="M382.056,107.112A5.056,5.056,0,1,0,377,102.056,5.062,5.062,0,0,0,382.056,107.112Zm0-7.354a2.3,2.3,0,1,1-2.3,2.3A2.3,2.3,0,0,1,382.056,99.758Z" transform="translate(-342.343 -58.117)" fill="#f80"/><path d="M40.825,241H38.692a6.251,6.251,0,0,0-5.671,3.617,11.1,11.1,0,0,0-8.2-3.617h-2.57a11.1,11.1,0,0,0-8.2,3.617A6.251,6.251,0,0,0,8.375,241H6.242A6.23,6.23,0,0,0,0,247.2v10.039a2.7,2.7,0,0,0,2.7,2.693h8.432a3.223,3.223,0,0,0,3.207,2.942H32.724a3.223,3.223,0,0,0,3.207-2.942h8.336a2.8,2.8,0,0,0,2.8-2.789V247.2a6.23,6.23,0,0,0-6.242-6.2ZM2.758,247.2a3.469,3.469,0,0,1,3.484-3.446H8.375a3.469,3.469,0,0,1,3.484,3.446v.944c-.927,2.414-.735,3.861-.735,9.031H2.758Zm30.428,12.455a.462.462,0,0,1-.462.462H14.343a.462.462,0,0,1-.462-.462v-7.534a8.377,8.377,0,0,1,8.367-8.367h2.57a8.377,8.377,0,0,1,8.367,8.367Zm11.123-2.511c0,.048.514.031-8.365.031,0-5.208.19-6.62-.735-9.031V247.2a3.469,3.469,0,0,1,3.484-3.446h2.133a3.469,3.469,0,0,1,3.484,3.446Z" transform="translate(0 -188.879)" fill="#f80"/><path d="M30.056,107.112A5.056,5.056,0,1,0,25,102.056,5.062,5.062,0,0,0,30.056,107.112Zm0-7.354a2.3,2.3,0,1,1-2.3,2.3A2.3,2.3,0,0,1,30.056,99.758Z" transform="translate(-22.702 -58.117)" fill="#f80"/></g></g></svg>