<svg xmlns="http://www.w3.org/2000/svg" width="90" height="90" viewBox="0 0 90 90"><g transform="translate(-1554 -137)"><path d="M10,0H80A10,10,0,0,1,90,10V80A10,10,0,0,1,80,90H10A10,10,0,0,1,0,80V10A10,10,0,0,1,10,0Z" transform="translate(1554 137)" fill="#d4ecd5" opacity="0.5"/><g transform="translate(1573.875 139.787)"><g transform="translate(0 16.224)"><path d="M52.59,58.512a.782.782,0,0,0-.782.782v5.224a.132.132,0,0,1-.132.132H48.706V53.227a.782.782,0,1,0-1.564,0V64.65H41.4l1.554-1.709a1.25,1.25,0,0,0,.3-1l0-.023-1.747-10.32.321-.484.084.059a1.224,1.224,0,0,0,1.8-.451h0l1.777-3.562,4.06,1.572a3.891,3.891,0,0,1,2.254,3.528v3.388a.782.782,0,1,0,1.564,0V52.257a5.452,5.452,0,0,0-3.226-4.976l-.015-.006L43.218,44.6V43.175a5.709,5.709,0,0,0,2.065-3.546,2.728,2.728,0,0,0,1.452-.639,2.692,2.692,0,0,0,.328-3.743v-2.11a7.481,7.481,0,0,0-12.347-5.689,2.688,2.688,0,0,0-.605-1.627v-2.11a7.487,7.487,0,1,0-14.975,0v2.165a2.55,2.55,0,0,0-.6,1.565A7.454,7.454,0,0,0,15.582,25.9a.782.782,0,1,0-.4,1.512,5.925,5.925,0,0,1,4.411,5.728v1.169l-.146-.026a.9.9,0,0,0-.187-.528c-.2-.288-.56-.646-1.716-1.888a1.236,1.236,0,0,0-1.584-.193,11.172,11.172,0,0,1-6.618,1.822,1.25,1.25,0,0,0-1.375.8l-.221.044v-1.2a5.962,5.962,0,0,1,4.213-5.672.782.782,0,1,0-.451-1.5,7.547,7.547,0,0,0-3.818,2.663,7.42,7.42,0,0,0-1.508,4.506V35.3a2.548,2.548,0,0,0-.607,1.648,2.7,2.7,0,0,0,2.391,2.68,5.775,5.775,0,0,0,2.179,3.637V44.6L3.241,47.276l-.015.006A5.451,5.451,0,0,0,0,52.257V64.518a1.7,1.7,0,0,0,1.7,1.7H25.772a1.685,1.685,0,0,0,.914-.269,1.684,1.684,0,0,0,.914.269H51.677a1.7,1.7,0,0,0,1.7-1.7V59.294A.782.782,0,0,0,52.59,58.512Zm-44.7-20.5a1.129,1.129,0,0,1-.751-1.065,1.155,1.155,0,0,1,.751-1.017ZM44.03,46.59l-1.535,3.076-1.729-1.228,1.919-2.368Zm-4.394.759-2.022-2.5V44.1a6.305,6.305,0,0,0,2.032.332h0a5.78,5.78,0,0,0,2.008-.365v.787Zm.918,2.857-.288.433h-1.26l-.288-.433.918-.652ZM26.684,37.923l-2.022-2.5v-.75a6.3,6.3,0,0,0,2.032.332h0a5.779,5.779,0,0,0,2.008-.365v.787Zm.918,2.857-.288.433h-1.26l-.288-.433.918-.652ZM20.527,30.129a2.8,2.8,0,0,0,.392.075A5.775,5.775,0,0,0,23.1,33.841v1.332l-1.6.618a2.68,2.68,0,0,0-.345-.545v-2.11A7.469,7.469,0,0,0,20.527,30.129ZM30.838,29.3a4.216,4.216,0,0,1-8.431,0V25.639a12.8,12.8,0,0,0,7.13-1.938c.7.756,1.124,1.2,1.3,1.4C30.838,27.046,30.838,27.8,30.838,29.3Zm1.492.9a2.813,2.813,0,0,0,.39-.075,7.442,7.442,0,0,0-.633,3.009V35.3a2.668,2.668,0,0,0-.309.457l-1.512-.586V33.749A5.71,5.71,0,0,0,32.33,30.2Zm-8.7,6.441,1.919,2.369-1.309.93,0,0-.415.3L22.29,37.164Zm4.851,1.541,1.25-1.542,1.345.521L29.543,40.24l-.416-.3h0l-1.311-.931Zm.394,3.5.084.059a1.224,1.224,0,0,0,1.8-.451h0l1.319-2.645a2.744,2.744,0,0,0,1.784.983,5.684,5.684,0,0,0,2.182,3.635V44.6L29.4,47.176l-.847-5.007Zm7.707,4.385L38.5,48.439l-1.726,1.226L35.242,46.59Zm7.206-7.344a4.216,4.216,0,0,1-8.431,0V35.064a12.809,12.809,0,0,0,7.13-1.938c.7.756,1.124,1.2,1.3,1.4C43.79,36.472,43.79,37.224,43.79,38.727Zm2.315-1.777a1.129,1.129,0,0,1-.751,1.065V35.887A1.127,1.127,0,0,1,46.106,36.95ZM33.651,33.137a5.924,5.924,0,1,1,11.847,0v1.169c-.036-.007-.133-.024-.146-.026a.9.9,0,0,0-.187-.528c-.205-.3-.561-.647-1.716-1.888a1.237,1.237,0,0,0-1.584-.193,11.193,11.193,0,0,1-6.676,1.819,1.23,1.23,0,0,0-1.317.8l-.221.044v-1.2Zm.144,2.8v2.081a1.126,1.126,0,0,1-.751-1.064A1.154,1.154,0,0,1,33.8,35.932Zm-.642-8.408a1.125,1.125,0,0,1-.391.854,1.157,1.157,0,0,1-.36.21V26.461A1.127,1.127,0,0,1,33.153,27.524Zm-6.531-9.736a5.93,5.93,0,0,1,5.924,5.924v1.169l-.146-.026a.947.947,0,0,0-.221-.577c-.209-.283-.6-.673-1.681-1.84a1.236,1.236,0,0,0-1.584-.193,11.168,11.168,0,0,1-6.739,1.816,1.242,1.242,0,0,0-1.254.806l-.221.044v-1.2h0A5.93,5.93,0,0,1,26.623,17.788Zm-5.779,8.719v2.082a1.129,1.129,0,0,1-.751-1.065A1.155,1.155,0,0,1,20.843,26.506ZM19.45,35.887a1.129,1.129,0,0,1,0,2.126Zm-.072,3.744a2.742,2.742,0,0,0,1.858-1.079L22.6,41.293h0a1.224,1.224,0,0,0,1.8.451l.084-.059.321.484-.847,5.005L17.314,44.6V43.175h0A5.715,5.715,0,0,0,19.378,39.632Zm-5.646,7.717-2.022-2.5V44.1a6.3,6.3,0,0,0,2.032.332h0a5.778,5.778,0,0,0,2.008-.365v.787ZM14.65,50.2l-.288.433H13.1l-.288-.433.918-.652Zm2.131-4.136,1.345.521-1.535,3.076-.416-.3h0l-1.311-.931ZM9.455,38.727V35.064a12.814,12.814,0,0,0,7.13-1.938c.7.749,1.124,1.195,1.3,1.4v4.2a4.216,4.216,0,0,1-8.431,0ZM10.68,46.07,12.6,48.439l-1.309.93,0,0-.415.3L9.338,46.59ZM6.23,64.65V53.227a.782.782,0,1,0-1.564,0V64.65H1.7a.132.132,0,0,1-.132-.132V52.257A3.892,3.892,0,0,1,3.817,48.73l4.057-1.573,1.777,3.562h0a1.224,1.224,0,0,0,1.8.451l.084-.059.321.484-1.747,10.32,0,.023a1.251,1.251,0,0,0,.3,1l1.554,1.709H6.23Zm5.453-2.637,1.66-9.811h.778l1.661,9.811-2.049,2.254ZM25.9,64.518a.132.132,0,0,1-.132.132H22.8V53.227a.782.782,0,1,0-1.564,0V64.65H15.5l1.554-1.709a1.25,1.25,0,0,0,.3-1l0-.023L15.6,51.595l.321-.484.084.059a1.224,1.224,0,0,0,1.8-.451h0l1.777-3.562,4.06,1.572A3.883,3.883,0,0,1,25.9,52.257V64.518Zm.782-15.1A5.567,5.567,0,0,0,25.411,48l.884-5.223h.778L27.957,48A5.571,5.571,0,0,0,26.686,49.416ZM32.134,64.65h0V53.227a.782.782,0,1,0-1.564,0V64.65H27.6a.132.132,0,0,1-.132-.132V52.257a3.737,3.737,0,0,1,.912-2.5,4.209,4.209,0,0,1,1.341-1.023l4.057-1.573,1.777,3.562h0a1.224,1.224,0,0,0,1.8.451l.084-.059.321.484-1.747,10.32,0,.023a1.251,1.251,0,0,0,.3,1L37.87,64.65H32.134Zm5.453-2.637L39.247,52.2h.778l1.661,9.811-2.049,2.254Z" transform="translate(0 -16.224)" fill="#038d08"/></g></g></g></svg>