<svg xmlns="http://www.w3.org/2000/svg" width="191.236" height="118.679" viewBox="0 0 191.236 118.679">
  <g id="Group_164" data-name="Group 164" transform="translate(-492.529 -889.321)">
    <rect id="Rectangle_9" data-name="Rectangle 9" width="119.776" height="0.395" transform="translate(563.989 1007.148)" fill="#e6e6e6"/>
    <path id="Path_10" data-name="Path 10" d="M921.051,543.28c2.618,3.7,3.31,24.768,3.464,31.52,0,.152.008.3.01.433h6.628c.081-.144.156-.287.227-.433,3.929-7.755,1.749-17.053,1.634-17.523.3,1.478-1.051,5.762-2.577,9.913C929.507,554.43,921.549,543.924,921.051,543.28Z" transform="translate(-266.618 431.973)" fill="#e6e6e6"/>
    <path id="Path_11" data-name="Path 11" d="M142.934,215.828a12.409,12.409,0,0,1,0-24.817H255.871a12.409,12.409,0,0,1,0,24.817Z" transform="translate(362.004 698.311)" fill="#e6e6e6"/>
    <rect id="Rectangle_10" data-name="Rectangle 10" width="22.09" height="21.58" transform="translate(516.747 890.94)" fill="#fff"/>
    <path id="Path_12" data-name="Path 12" d="M587.34,197.338H575.92v21.58h11.42a10.79,10.79,0,0,0,0-21.58Z" transform="translate(30.535 693.602)" fill="#fff"/>
    <rect id="Rectangle_11" data-name="Rectangle 11" width="21.94" height="21.58" transform="translate(561.676 890.94)" fill="#fff"/>
    <rect id="Rectangle_12" data-name="Rectangle 12" width="22.12" height="21.58" transform="translate(539.196 890.94)" fill="#038d08"/>
    <rect id="Rectangle_13" data-name="Rectangle 13" width="22.12" height="21.58" transform="translate(583.976 890.94)" fill="#e6e6e6"/>
    <path id="Path_13" data-name="Path 13" d="M159.093,197.338h-11.45a10.79,10.79,0,1,0,0,21.58h11.45Z" transform="translate(357.295 693.602)" fill="#038d08"/>
    <path id="Path_14" data-name="Path 14" d="M36.667,40.108l-3-3.862,1.747-1.359,1.422,1.829,4.805-5.072,1.607,1.522Z" transform="translate(467.476 865.771)" fill="#fff"/>
    <path id="Path_15" data-name="Path 15" d="M209.622,40.108l-3-3.862,1.747-1.359,1.422,1.829,4.805-5.072,1.607,1.522Z" transform="translate(338.761 865.771)" fill="#fff"/>
    <rect id="Rectangle_14" data-name="Rectangle 14" width="1.409" height="9.467" transform="translate(591.015 898.881) rotate(-45)" fill="#fff"/>
    <rect id="Rectangle_15" data-name="Rectangle 15" width="9.467" height="1.409" transform="translate(591.367 904.579) rotate(-45)" fill="#fff"/>
    <path id="Path_16" data-name="Path 16" d="M249.38,227.143a6.474,6.474,0,1,1,6.474-6.474A6.474,6.474,0,0,1,249.38,227.143Zm0-11.51a5.035,5.035,0,1,0,5.035,5.035,5.035,5.035,0,0,0-5.035-5.035Z" transform="translate(278.369 681.057)" fill="#e6e6e6"/>
    <path id="Path_17" data-name="Path 17" d="M425.148,227.143a6.474,6.474,0,1,1,6.474-6.474A6.474,6.474,0,0,1,425.148,227.143Zm0-11.51a5.035,5.035,0,1,0,5.035,5.035,5.035,5.035,0,0,0-5.035-5.035Z" transform="translate(147.56 681.057)" fill="#e6e6e6"/>
    <path id="Path_18" data-name="Path 18" d="M600.212,227.143a6.474,6.474,0,1,1,6.474-6.474,6.474,6.474,0,0,1-6.474,6.474Zm0-11.51a5.035,5.035,0,1,0,5.035,5.035,5.035,5.035,0,0,0-5.035-5.035Z" transform="translate(17.276 681.057)" fill="#e6e6e6"/>
    <path id="Path_19" data-name="Path 19" d="M842.37,391.591l-2.1,5.857a2.045,2.045,0,0,0,.865,2.439h0a2.045,2.045,0,0,0,3.092-1.521l.666-5.935,5.047-16.683-4.346-2.1Z" transform="translate(-201.704 568.084)" fill="#a0616a"/>
    <path id="Path_20" data-name="Path 20" d="M696.052,374.881h3.084v-30l-7.01-.14Z" transform="translate(-57.139 629.025)" fill="#a0616a"/>
    <path id="Path_21" data-name="Path 21" d="M626.529,374.881h3.084v-30l-7.01-.14Z" transform="translate(-1.354 629.025)" fill="#a0616a"/>
    <path id="Path_22" data-name="Path 22" d="M770.1,470.566l-7.991-.841-1.682-8.832-3.084,8.973-9.533-.981,3.925-14.861c7.176-4.876,13.991-4.769,20.469,0Z" transform="translate(-127.611 506.493)" fill="#141414"/>
    <path id="Path_23" data-name="Path 23" d="M750.849,675.874a2.5,2.5,0,0,1-2.822,2.793l-5.682-.771a1.942,1.942,0,0,1-1.62-2.214h0a1.942,1.942,0,0,1,1.919-1.647h.937l3.082-2.808c.03,1.913,1.439,1.488,3.767,1.3Z" transform="translate(-121.909 329.31)" fill="#141414"/>
    <path id="Path_24" data-name="Path 24" d="M820.372,675.874a2.5,2.5,0,0,1-2.822,2.793l-5.682-.771a1.942,1.942,0,0,1-1.62-2.214h0a1.942,1.942,0,0,1,1.919-1.647h.937l3.082-2.808c.03,1.913,1.439,1.488,3.767,1.3Z" transform="translate(-177.694 329.31)" fill="#141414"/>
    <ellipse id="Ellipse_4" data-name="Ellipse 4" cx="4.942" cy="4.942" rx="4.942" ry="4.942" transform="translate(626.786 916.144)" fill="#a0616a"/>
    <path id="Path_25" data-name="Path 25" d="M682.333,92.315l-6.168.561V87.408l3.224-1.963Z" transform="translate(-44.332 837.078)" fill="#a0616a"/>
    <path id="Path_26" data-name="Path 26" d="M785.995,333.627c-6.206-4.544-13.658-4.082-21.871-.561,3.356-9.5,4.975-18.42,3.028-26.523-.115-.492-.358-1.32-.645-2.134a6.608,6.608,0,0,1,4.97-6.4l1.058-.271,5.187.28,4.871,2.855a6.631,6.631,0,0,1,3.278,5.691Z" transform="translate(-140.703 628.991)" fill="#d0cde1"/>
    <path id="Path_27" data-name="Path 27" d="M744.469,385.916l-2.1,5.858a2.045,2.045,0,0,0,.865,2.439h0a2.045,2.045,0,0,0,3.092-1.521l.667-5.935,5.047-16.683-4.346-2.1Z" transform="translate(-123.151 572.637)" fill="#a0616a"/>
    <path id="Path_28" data-name="Path 28" d="M867.475,332.3h-6.87V315.474h0a9.477,9.477,0,0,1,4.673,6.341Z" transform="translate(-218.118 614.76)" fill="#d0cde1"/>
    <path id="Path_29" data-name="Path 29" d="M776.562,238.3a2.013,2.013,0,0,1-1.91-.1,1.523,1.523,0,0,1-.607-1.745,2.4,2.4,0,0,1,1.247-1.133,12.59,12.59,0,0,1,3.587-1.2,3.358,3.358,0,0,1,1.789.06c.279.109.528.282.8.4a9.056,9.056,0,0,0,1.614.324,3.938,3.938,0,0,1,2.616,1.96,4.741,4.741,0,0,1,.4,1.063A6.114,6.114,0,0,1,786.1,241c-.423,1.6-1.5,3.065-1.4,4.715-.8-.464-1.169-1.408-1.834-2.046a3.018,3.018,0,0,0-1.814-.822.96.96,0,0,1-.53-.135.827.827,0,0,1-.23-.417l-.749-2.346a2.1,2.1,0,0,0-.767-1.252,1.931,1.931,0,0,0-.857-.208,13.049,13.049,0,0,0-2.139.02" transform="translate(-148.601 680.11)" fill="#2f2e41"/>
    <path id="Path_30" data-name="Path 30" d="M762.893,316.12l-7.991-3.084,3.629-9.778a6.312,6.312,0,0,1,5.484-4.1h0Z" transform="translate(-133.303 627.853)" fill="#d0cde1"/>
  </g>
</svg>
