<svg xmlns="http://www.w3.org/2000/svg" width="200.1" height="121.791" viewBox="0 0 200.1 121.791">
  <g id="Group_172" data-name="Group 172" transform="translate(-737.145 -888)">
    <path id="Path_49" data-name="Path 49" d="M790.48,433.987s-8.049-1.63-7.03,1.834,7.744,1.223,7.744,1.223Z" transform="translate(86.133 512.404)" fill="#ffb8b8"/>
    <path id="Path_50" data-name="Path 50" d="M837.443,330.976a.755.755,0,0,1,1.252.432l.275,1.6s1.244,6.392.179,10.452-1.821,9.408-4.7,9.978c-2.463.488-11.826-.285-14.477-.517a.754.754,0,0,1-.688-.769l.05-2.332a.756.756,0,0,1,.675-.735l10.72-1.143a.754.754,0,0,0,.668-.645c.255-1.824,1.08-7.478,1.9-10.451C833.96,334.439,836.133,332.171,837.443,330.976Z" transform="translate(56.535 597.116)" fill="#d0cde1"/>
    <rect id="Rectangle_30" data-name="Rectangle 30" width="73.981" height="0.352" transform="translate(863.264 1005.709)" fill="#3f3d56"/>
    <path id="Path_51" data-name="Path 51" d="M850.822,614.608V619.5l2.751.611,1.834-.917-.2-3.872Z" transform="translate(36.19 381.652)" fill="#ffb8b8"/>
    <path id="Path_52" data-name="Path 52" d="M943.086,614.608V619.5l2.751.611,1.834-.917-.2-3.872Z" transform="translate(-39.822 381.652)" fill="#ffb8b8"/>
    <path id="Path_53" data-name="Path 53" d="M886.418,493.3s-3.668,7.438-3.566,13.246a79.663,79.663,0,0,1-.51,10.495l-1.834,17.424,5.91.306,2.751-18.748,5.3-14.469,2.038,17.22.509,17.322h5.095s2.344-16.4,1.019-20.073c0,0,3.057-20.582.611-21.6S886.418,493.3,886.418,493.3Z" transform="translate(6.097 463.225)" fill="#141414"/>
    <path id="Path_54" data-name="Path 54" d="M842.617,727.978s-1.019-3.77-2.445-1.834a42.243,42.243,0,0,1-5.5,5.2s-6.114,3.26-.51,4.076,6.215-1.019,6.215-1.019a2.354,2.354,0,0,1,1.732-.2c.815.306,4.381.2,4.585-1.019s-1.121-7.948-1.528-6.725S842.617,727.978,842.617,727.978Z" transform="translate(46.23 271.848)" fill="#141414"/>
    <path id="Path_55" data-name="Path 55" d="M976.873,732.819s0-1.121-1.936-1.223-2.242,1.223-2.242,1.223a3.3,3.3,0,0,0-.611,2.038c-.1,1.528,0,5.5,0,5.5s-.917,3.057,3.26,2.445,2.649-3.77,2.649-3.77Z" transform="translate(-69.278 266.905)" fill="#141414"/>
    <path id="Path_56" data-name="Path 56" d="M950.771,277.532l-.51,5.706-.917,2.14,2.445,3.464,6.012-5.6s-1.121-3.057-.408-4.789Z" transform="translate(-50.615 640.984)" fill="#ffb8b8"/>
    <path id="Path_57" data-name="Path 57" d="M932.492,308.759l-.047.5-1.789,19.061s-.07.886-.2,2.068c-.22,2-.611,4.843-1.124,5.675a2.53,2.53,0,0,0-.2,2.445c-4.687,2.751-18.544-1.223-18.544-1.223l3.159-12.635s-2.852-13.144-2.547-14.367,6.725-5.6,6.725-5.6l.19.509c2.736,3.668,5.516.509,6.332-.2l1.63-1.426Z" transform="translate(-18.681 619.538)" fill="#d0cde1"/>
    <path id="Path_58" data-name="Path 58" d="M390.38,412.561a121.7,121.7,0,0,1-27.557.989A66.486,66.486,0,0,1,353.784,412c-5.453-1.291-12.146-1.291-19.5-.6a55.966,55.966,0,0,0-13.125,2.784c-5.7,1.973-11.941,1.8-18.56.15a33.852,33.852,0,0,1-7.793-3.1c-4.839-2.6-10.565-1.659-16.807,1.336V389.31c5.827-2.538,11.5-2.947,17-.808a35.914,35.914,0,0,0,6.19,1.846,48.791,48.791,0,0,0,23-1.038c10.105-3.424,20.676-2.36,31.38,0a78.853,78.853,0,0,0,34.814,0Z" transform="translate(502.476 550.697)" fill="#141414"/>
    <rect id="Rectangle_31" data-name="Rectangle 31" width="73.981" height="0.352" transform="translate(737.145 1005.709)" fill="#141414"/>
    <rect id="Rectangle_32" data-name="Rectangle 32" width="6.424" height="6.424" transform="translate(834.269 893.563) rotate(150)" fill="#038d08"/>
    <rect id="Rectangle_33" data-name="Rectangle 33" width="6.424" height="6.424" transform="translate(813.661 921.57) rotate(150)" fill="#141414"/>
    <rect id="Rectangle_34" data-name="Rectangle 34" width="6.424" height="6.424" transform="translate(870.203 914.172) rotate(150)" fill="#d0cde1"/>
    <path id="Path_59" data-name="Path 59" d="M146.8,384.963l3.364,15.573-10.216,22.923,5.98,2.616,11.462-26.287L150.064,376.7l-4.36,1.121Z" transform="translate(621.847 577.652)" fill="#141414"/>
    <path id="Path_60" data-name="Path 60" d="M193.875,477.356a13.607,13.607,0,0,0,3.987,4.111c2.741,1.869,8.472,14.2,8.472,14.2L200.1,520.587l8.6,2.367,4.734-29.278-9.718-21.927Z" transform="translate(571.783 480.976)" fill="#141414"/>
    <path id="Path_61" data-name="Path 61" d="M172.146,741.488s-1.246,1.37-.747,2.367a15.161,15.161,0,0,1,.747,3.613h1.121v-2.99l3.613,3.364s8.347.747,8.223,0-4.983-2.492-4.983-2.492l-2.367-3.613Z" transform="translate(590.397 258.751)" fill="#141414"/>
    <path id="Path_62" data-name="Path 62" d="M234.387,743.349s-1.246,1.37-.747,2.367a15.16,15.16,0,0,1,.747,3.613h1.121v-2.99l3.613,3.364s8.347.748,8.223,0-4.983-2.492-4.983-2.492l-2.367-3.613Z" transform="translate(539.12 257.218)" fill="#141414"/>
    <circle id="Ellipse_10" data-name="Ellipse 10" cx="4.734" cy="4.734" r="4.734" transform="translate(765.783 914.728)" fill="#a0616a"/>
    <path id="Path_63" data-name="Path 63" d="M175.642,284.319s-.374,4.734-2.741,6.478-2.367,3.239-2.367,3.239l9.593,4.36-2.242-4.734s-.623-.249.374-1.5a16.465,16.465,0,0,0,1.869-4.236Z" transform="translate(591.013 635.393)" fill="#a0616a"/>
    <path id="Path_64" data-name="Path 64" d="M172.53,352.325h0a26.833,26.833,0,0,1-8.846,5.135l-2.261.785s-4.781-5.8-2.367-10.375a7.163,7.163,0,0,1,2.074-2.459l-.05-.218-1.212-5.289-.108-.473-3.613-.872-.032.009c-.27.071-2.1.407-.715-3.871.923-2.847,1.593-5.557,1.97-7.214a1.758,1.758,0,0,1,2.175-1.31A6.5,6.5,0,0,1,163,328.217c1.62,2.118,1.947-.094,1.947-.094s4.532,5.077,4.283,7.32a8.915,8.915,0,0,0,.055,1.8v0c.03.267.066.544.107.828.309,2.1.907,4.536,1.126,5.393.016.061.03.115.041.159.026.1.041.159.041.159Z" transform="translate(603.905 600.962)" fill="#d0cde1"/>
    <path id="Path_65" data-name="Path 65" d="M170.848,396.678l-1,3.364s-3.822-.974-6.061-1.527a7.162,7.162,0,0,1,2.074-2.459l-.05-.218-1.212-5.289-.108-.473-3.613-.872-.032.009-.217-1.628s6.229.374,6.6,1.869a3.659,3.659,0,0,1-.747,3.239c-.374.249,0,0,.747.374s-.249,0-.747.747.125.125.249.5,0-.125-.125.5.5.125.623.125S170.848,396.678,170.848,396.678Z" transform="translate(599.17 550.318)" opacity="0.2"/>
    <path id="Path_66" data-name="Path 66" d="M210.517,429.8l8.1,2.118s4.36-4.485,6.728-3.115-4.236,4.485-4.236,4.485l-2.367.5-8.6-1Z" transform="translate(558.381 516.573)" fill="#a0616a"/>
    <path id="Path_67" data-name="Path 67" d="M160.633,384.754l.5,3.738s-.374,0,0,.872a5.8,5.8,0,0,1,0,2.616s-.748.125-.125.5,1.246,1.37,1,1.744-.747.872.374,1.121,7.475,1.869,7.475,1.869l1-3.364s-3.488-1.744-3.613-1.744-.748.5-.623-.125.249-.125.125-.5-.747.249-.249-.5,1.5-.374.748-.747-1.121-.125-.748-.374a3.659,3.659,0,0,0,.748-3.239C166.862,385.128,160.633,384.754,160.633,384.754Z" transform="translate(599.17 552.649)" fill="#d0cde1"/>
    <path id="Path_68" data-name="Path 68" d="M181.844,310.263l.375-.6a1.246,1.246,0,0,0-.391-1.718l-2.86-1.8a1.246,1.246,0,0,0-1.718.391l-.375.6a1.244,1.244,0,0,0-1.059.582l-.924,1.469a1.246,1.246,0,0,0,.391,1.718l3.854,2.424a1.246,1.246,0,0,0,1.718-.391l.924-1.469a1.244,1.244,0,0,0,.065-1.207Z" transform="translate(587.582 617.565)" fill="#d0cde1"/>
    <path id="Path_69" data-name="Path 69" d="M175.767,249.9c.265-.387.149-.924.338-1.353.3-.673,1.175-.811,1.91-.856a5.63,5.63,0,0,1,1.463.039,1.4,1.4,0,0,1,1,.76c.1.22.092-.462.044-1.339a4.231,4.231,0,0,0-3.153-3.863l-.031-.008a8.024,8.024,0,0,0-2.717-.317,3.545,3.545,0,0,0-2.415,1.161c-.268.322-.46.705-.758,1a4.786,4.786,0,0,1-1.981.924,5.907,5.907,0,0,0-2.176,1.186,3.2,3.2,0,0,0-1.091,2.174,2.131,2.131,0,0,0,1.545,2.2,1.117,1.117,0,0,1,.472.217c.932.76-.17,1.5-.183,2.334-.01.692.749,1.162,1.439,1.211a2.786,2.786,0,0,0,2.827-2.136,5.806,5.806,0,0,0,0-1.725c-.062-.658,1.389-2.169.428-1.059a1.625,1.625,0,0,0-.375.743c-.177.9.639,1.225,1.146,1.739a2.152,2.152,0,0,1,.467,2.227,2.481,2.481,0,0,0,.527-3.121c-.161-.261-.371-.489-.523-.755-.238-.415-.284-1.305.408-1.264C174.869,250.052,175.373,250.476,175.767,249.9Z" transform="translate(594.585 669.481)" fill="#2f2e41"/>
    <circle id="Ellipse_11" data-name="Ellipse 11" cx="5.197" cy="5.197" r="5.197" transform="translate(898.424 910.874)" fill="#ffb8b8"/>
    <path id="Path_70" data-name="Path 70" d="M955.116,336.861l-1.787,19.061s-.07.886-.2,2.068c-3.793.907-14.268,1.6-14.268,1.6l-.51-3.668,11.616-3.159s-1.427-7.948.2-11.208a25.189,25.189,0,0,0,1.07-2.438,3.537,3.537,0,0,1,3.876-2.256Z" transform="translate(-41.557 592.143)" opacity="0.2"/>
    <path id="Path_71" data-name="Path 71" d="M911.417,440.6s-8.05-1.63-7.031,1.834,7.744,1.223,7.744,1.223Z" transform="translate(-13.502 506.955)" fill="#ffb8b8"/>
    <path id="Path_72" data-name="Path 72" d="M953.16,330.172l3.159.509s2.242,6.114,1.834,10.291-.306,9.578-3.057,10.6-15.08,1.834-15.08,1.834l-.509-3.668,11.616-3.159s-1.427-7.948.2-11.208A17.1,17.1,0,0,0,953.16,330.172Z" transform="translate(-42.51 597.616)" fill="#d0cde1"/>
    <path id="Path_73" data-name="Path 73" d="M945.344,217.09l-1-.4a6.813,6.813,0,0,1,4.994-2.1l-.817-.9a3.474,3.474,0,0,1,3.814,1.3,17.727,17.727,0,0,1,2.748,3.862h1.07l-.446.983,1.562.983-1.6-.177a5.494,5.494,0,0,1,.043,1.63,2.109,2.109,0,0,1-.772,1.38h0a22.167,22.167,0,0,1-1.239-2.964v1s-1-.9-1-1.5l-.545.7h-3.632l.545-.9-2.088.3.817-1.1-3.233,4.541S942.711,218.589,945.344,217.09Z" transform="translate(-46.153 693.703)" fill="#2f2e41"/>
    <circle id="Ellipse_12" data-name="Ellipse 12" cx="19.024" cy="19.024" r="19.024" transform="translate(817.643 932.962)" fill="#038d08"/>
    <path id="Path_74" data-name="Path 74" d="M565.967,486.982c0,1.167-4.286,4.1-9.248,4.1S548,488.15,548,486.982s3.758.4,8.719.4S565.967,485.815,565.967,486.982Z" transform="translate(280.035 468.784)" fill="#d0cde1"/>
    <circle id="Ellipse_13" data-name="Ellipse 13" cx="2.114" cy="2.114" r="2.114" transform="translate(841.422 944.411)" fill="#3f3d56"/>
    <circle id="Ellipse_14" data-name="Ellipse 14" cx="2.114" cy="2.114" r="2.114" transform="translate(827.683 944.411)" fill="#3f3d56"/>
    <circle id="Ellipse_15" data-name="Ellipse 15" cx="1.057" cy="1.057" r="1.057" transform="translate(829.973 944.411)" fill="#d0cde1"/>
    <circle id="Ellipse_16" data-name="Ellipse 16" cx="1.057" cy="1.057" r="1.057" transform="translate(840.718 944.411)" fill="#d0cde1"/>
    <circle id="Ellipse_17" data-name="Ellipse 17" cx="7.574" cy="7.574" r="7.574" transform="translate(829.445 919.046)" fill="#038d08"/>
    <path id="Path_75" data-name="Path 75" d="M552.845,325.278c2.675,1.592,2.771,6.364,2.771,6.364s-4.241,2.19-6.916.6-2.771-6.364-2.771-6.364S550.17,323.686,552.845,325.278Z" transform="translate(281.742 602.126)" fill="#141414"/>
    <path id="Path_76" data-name="Path 76" d="M606.2,328.553c-2.417,1.961-6.93.405-6.93.405s-.593-4.736,1.825-6.7,6.93-.405,6.93-.405S608.622,326.591,606.2,328.553Z" transform="translate(237.845 604.951)" fill="#141414"/>
  </g>
</svg>
