<svg xmlns="http://www.w3.org/2000/svg" width="168.286" height="112.501" viewBox="0 0 168.286 112.501">
  <g id="Group_173" data-name="Group 173" transform="translate(-996.802 -895.499)">
    <g id="Group_171" data-name="Group 171">
      <path id="Path_112" data-name="Path 112" d="M315.083,679.24a.561.561,0,0,1-.044.13h0a.349.349,0,0,1,.047-.13Z" transform="translate(777.421 328.63)" fill="#141414"/>
      <path id="Path_113" data-name="Path 113" d="M311.506,647.876h-2.443l-1.834.024-.2-2.084-.186-1.977-.862-9.018-.028-.277v-.123l-.241-2.538L309.4,630.5l.451,3.681.032.273v.032l.913,7.472.281,2.293.162,1.332.138,1.143v.04Z" transform="translate(783.063 358.1)" fill="#141414"/>
      <path id="Path_114" data-name="Path 114" d="M335.493,507.2l.043.13h-.293l-.043-.13Z" transform="translate(772.332 500.666)" fill="#141414"/>
      <path id="Path_115" data-name="Path 115" d="M439.4,679.55Z" transform="translate(702.227 328.442)" fill="#3a3768"/>
      <path id="Path_116" data-name="Path 116" d="M389.214,540.65v.17a101.741,101.741,0,0,0-4.57,17.463q-.115.791-.19,1.581c-.055.557-.1,1.1-.123,1.633-.032.621-.04,1.222-.024,1.795v.4c0,.265.028.538.043.818s.04.561.063.854.047.549.075.83c.85,8.7,4.08,21.432,4.08,21.432s.107.344.245.929h-.893c-5.563.091-11.137.249-16.716.439l-1,.032h-.332c-11.861.419-23.721.977-35.55,1.376l-2.89.095h-.419q-6.168.2-12.323.3H317.6a6.661,6.661,0,0,1,.957-1.079,6.962,6.962,0,0,1,.969-.751,21.8,21.8,0,0,1,6.069-2.605,4.842,4.842,0,0,1,1.388-.17l2.767.055h.427l4.246.083,36.42.724h.091l.257-.051a6.831,6.831,0,0,0,1.23-.435,4.317,4.317,0,0,0,2.594-3.353c0-.123.032-.253.04-.4a4.665,4.665,0,0,0,0-.577,1.963,1.963,0,0,0-.032-.423c-.032-.146-.04-.293-.067-.443-.878-4.906-2.372-20.009-2.372-20.009v.047s0-.644.036-1.728v-.5c0-.241.028-.5.043-.791,0-.17.024-.344.036-.526.02-.265.043-.538.067-.822a.235.235,0,0,1,0-.051q.024-.269.047-.546v-.059c.589-5.831,2.443-15.063,8.3-18.483,2.748-1.609,4.566-1.933,5.764-1.617,1.747.459,2.186,2.277,2.281,3.459v.229A5.766,5.766,0,0,1,389.214,540.65Z" transform="translate(775.873 415.128)" fill="#141414"/>
      <path id="Path_117" data-name="Path 117" d="M315.083,679.24a.561.561,0,0,1-.044.13h0a.349.349,0,0,1,.047-.13Z" transform="translate(777.421 328.63)" fill="#141414" opacity="0.1"/>
      <path id="Path_118" data-name="Path 118" d="M335.493,507.2l.043.13h-.293l-.043-.13Z" transform="translate(772.332 500.666)" fill="#141414" opacity="0.1"/>
      <path id="Path_119" data-name="Path 119" d="M439.4,679.55Z" transform="translate(702.227 328.442)" opacity="0.1"/>
      <path id="Path_120" data-name="Path 120" d="M389.172,540.419v.123a107.592,107.592,0,0,0-4.2,15.217h0q-.142.791-.261,1.53c-.04.253-.075.506-.111.759q-.115.791-.19,1.581c-.055.557-.1,1.1-.123,1.633-.032.621-.04,1.222-.024,1.795v.4c0,.265.028.538.043.818s.04.565.063.854.047.55.075.83.055.55.087.826c.126,1.119.285,2.293.466,3.487,1.237,8.053,3.527,17.075,3.527,17.075s.115.364.253.973h-.893c-5.563.091-11.137.249-16.716.439l-1,.032h-.332c-11.861.419-23.721.976-35.55,1.376l-2.89.095h-.419q-6.168.2-12.323.3H317.53a6.8,6.8,0,0,1,.988-1.119,6.553,6.553,0,0,1,.973-.759,22.035,22.035,0,0,1,6.069-2.605,4.976,4.976,0,0,1,1.388-.166l2.768.055h.427l4.258.083,36.448.719h.063a1,1,0,0,0,.285-.059,6.391,6.391,0,0,0,1.237-.447,4.313,4.313,0,0,0,2.558-3.285c0-.123.032-.253.04-.4a4.647,4.647,0,0,0,0-.577,1.96,1.96,0,0,0-.032-.423c-.032-.146-.039-.32-.067-.486-.878-4.906-2.372-20.009-2.372-20.009s0-.644.036-1.728v-.5c0-.241.028-.5.043-.791,0-.17.024-.344.036-.526.02-.265.043-.538.067-.822a.23.23,0,0,1,0-.051q.024-.269.047-.546v-.059c.071-.727.166-1.51.285-2.329.822-5.725,2.878-13.2,8-16.209,2.677-1.581,4.467-1.913,5.669-1.641,1.85.423,2.289,2.329,2.372,3.531v.229A5.772,5.772,0,0,1,389.172,540.419Z" transform="translate(775.916 415.359)" fill="#141414" opacity="0.1"/>
      <path id="Path_121" data-name="Path 121" d="M315.083,679.24a.561.561,0,0,1-.044.13h0a.349.349,0,0,1,.047-.13Z" transform="translate(777.421 328.63)" fill="#141414"/>
      <path id="Path_122" data-name="Path 122" d="M335.493,507.2l.043.13h-.293l-.043-.13Z" transform="translate(772.332 500.666)" fill="#141414"/>
      <path id="Path_123" data-name="Path 123" d="M439.4,679.55Z" transform="translate(702.227 328.442)" fill="#3a3768"/>
      <path id="Path_124" data-name="Path 124" d="M386.14,539.6s-5.159,14.1-4.91,22.535,4.278,24.291,4.278,24.291.174.557.36,1.447c-5.563.091-11.137.249-16.716.439l-1,.032h-.332c-11.861.419-23.721.976-35.55,1.376l-2.89.095h-.419q-6.167.2-12.323.3H314.19a7.116,7.116,0,0,1,2.17-2.281l.107-.075a22.006,22.006,0,0,1,6.065-2.55,4.977,4.977,0,0,1,1.388-.166l3.653.071H328l4.4.087,35.483.708a5.961,5.961,0,0,0,1.467-.478,4.212,4.212,0,0,0,.451-.241h0a4.744,4.744,0,0,0,1.186-.969,4.478,4.478,0,0,0,.913-3.954c-.882-4.906-2.372-20.009-2.372-20.009s-.253-18.376,8.555-23.535c3.558-2.083,5.559-2.012,6.677-1.186a.744.744,0,0,1,.095.071C386.4,536.847,386.14,539.6,386.14,539.6Z" transform="translate(777.935 415.847)" fill="#141414"/>
      <path id="Path_125" data-name="Path 125" d="M129.377,632.014l-.142,1.475-.862,9.049q-2.02-.423-4.033-.886l1.008-8.227.34-2.8Z" transform="translate(892.727 358.022)" fill="#eaecf0"/>
      <path id="Path_126" data-name="Path 126" d="M55.12,384.615,76.651,338.79l86.729,6.765,7.994,39.061Z" transform="translate(941.682 602.494)" fill="#5cab5f"/>
      <path id="Path_127" data-name="Path 127" d="M55.12,458.7v-4H171.373v5.843Z" transform="translate(941.682 532.41)" fill="#038d08"/>
      <path id="Path_128" data-name="Path 128" d="M154.679,575.5l52.013,1.06a.72.72,0,0,0,.7-.945l-8.109-21.871-35.032-.668-10.362,21.215a.862.862,0,0,0,.791,1.21Z" transform="translate(874.906 404.912)" fill="#dfe6f5"/>
      <path id="Path_129" data-name="Path 129" d="M154.679,575.5l52.013,1.06a.72.72,0,0,0,.7-.945l-8.109-21.871-35.032-.668-10.362,21.215a.862.862,0,0,0,.791,1.21Z" transform="translate(874.906 404.912)" opacity="0.15"/>
      <path id="Path_130" data-name="Path 130" d="M154.94,573.237l52.55,1.107-7.144-21.638a1.783,1.783,0,0,0-1.657-1.226l-33.771-.641Z" transform="translate(874.225 406.266)" fill="#dfe6f5"/>
      <path id="Path_131" data-name="Path 131" d="M165.692,572.407l6.3-13.857a1.68,1.68,0,0,1,1.526-.98h15.652a1.672,1.672,0,0,1,1.672,1.672v14.972a1.676,1.676,0,0,1-1.755,1.672l-21.954-1.119a1.672,1.672,0,0,1-1.439-2.36Z" transform="translate(867.814 402.197)" fill="#2d2d2d"/>
      <path id="Path_132" data-name="Path 132" d="M244,576.753l.269-7.907a1.214,1.214,0,0,1,1.21-1.186H250.1a1.21,1.21,0,0,1,1.186,1l1.36,7.864a1.214,1.214,0,0,1-1.186,1.419L245.2,578A1.21,1.21,0,0,1,244,576.753Z" transform="translate(820.376 396.096)" fill="#d1d9ec"/>
      <path id="Path_133" data-name="Path 133" d="M86.125,458.339l17.439-1.455a1.186,1.186,0,0,1,1.241.7l16.49,37.325-9.2,20.661c.289-.648.5,4.4-1.581.024L84.3,460.921C83.951,460.189,85.307,458.442,86.125,458.339Z" transform="translate(916.97 463.083)" fill="#4c4c56"/>
      <path id="Path_134" data-name="Path 134" d="M86.125,458.339l17.439-1.455a1.186,1.186,0,0,1,1.241.7l16.49,37.325-9.2,20.661c.289-.648.5,4.4-1.581.024L84.3,460.921C83.951,460.189,85.307,458.442,86.125,458.339Z" transform="translate(916.97 463.083)" opacity="0.15"/>
      <path id="Path_135" data-name="Path 135" d="M87.385,456.985l18.325-2.34a1.186,1.186,0,0,1,1.241.7l16.494,37.325-9.979,22.4L86.448,458.681a1.186,1.186,0,0,1,.937-1.7Z" transform="translate(915.71 464.437)" fill="#2d2d2d"/>
      <path id="Path_136" data-name="Path 136" d="M99.021,464.041l13.248-2.064a1.186,1.186,0,0,1,1.285.727l13.877,33.945a1.075,1.075,0,0,1-.024.87L121.054,510.8a1.071,1.071,0,0,1-1.941,0l-20.989-45.07a1.186,1.186,0,0,1,.9-1.684Z" transform="translate(908.649 460.006)" fill="#fff"/>
      <path id="Path_137" data-name="Path 137" d="M439.4,679.55Z" transform="translate(702.227 328.442)" fill="#fff"/>
      <path id="Path_138" data-name="Path 138" d="M294.114,498.514s-.273.451-.672,1.186l-.036.067c-.356.633-.791,1.463-1.233,2.372l-1,.032h-.332c-11.861.419-23.721.977-35.55,1.376l-2.89.095h-.419q-6.167.2-12.323.3h-2.443l-1.834.024q-2.858.028-5.7.032H227.41c-6.966-.02-13.9-.174-20.8-.534l-.767-.043c1.356-2.949,3.78-7.785,5.748-9.33,1.522-1.186,12.454-2.5,22.507-3.467l1.06-.1h.024l2.807-.261c3.847-.352,7.338-.636,9.828-.83l.229-.02-1.3-4.349-1.878-6.326.534-5.314.043-.427h-.059a3.491,3.491,0,0,1-1.581-.2l-18.775-.648h-.34l-7.211-.257h0c-3.867-.138-6.614-.241-6.721-.261a1.706,1.706,0,0,1-.332-.091,1.494,1.494,0,0,1-.459-.277,1.834,1.834,0,0,1-.4-.474h-.253l-1.02.067-.518.036c-.02-.055-.036-.111-.055-.162-.047-.154-.095-.3-.138-.451h-.273l-3.558-.075H203.7s-9.18.7-13.976-1.048h0c-1.759-.64-2.93-1.609-2.839-3.06a3.309,3.309,0,0,1,.206-.965c-1.542-2.882,5.99-8.14,11.73-6.689a10.16,10.16,0,0,0,4.768.2,6.136,6.136,0,0,0,2.372-1.079c.071-.051.134-.1.194-.154-.095-.059-.194-.111-.285-.158a4.418,4.418,0,0,0-1.253-.435l1.558-.455h.024s5.535-.506,9.137-.708h.024c1.071-.055,1.977-.091,2.514-.075,2.372.067,6.994-1.629,7.191-2.151s2.309,0,2.309,0l1.846-.72c1.846-.716,2.9-1.692,2.9-2.412s1.649-1.5,1.649-1.5a15.588,15.588,0,0,1,3.732-3.776c1.324-1.024,2.7-1.937,3.72-2.574a75.013,75.013,0,0,1,1.581-7.607,9.915,9.915,0,0,1,3.649-4.63l.285-.19a20.5,20.5,0,0,0-.87-2.894,2.227,2.227,0,0,0-.095-.237c-.079-.186-.162-.368-.245-.538l-.123-.237c-.2.039-.4.075-.609.1a13.832,13.832,0,0,1-1.977.146,13.565,13.565,0,0,1-13.106-9.884v-.024a13.386,13.386,0,0,1-.474-3.558,13.016,13.016,0,0,1,.451-3.416h0c.059-.237.13-.47.206-.7a.629.629,0,0,1,.028-.079c.036-.107.071-.217.111-.324a13.91,13.91,0,0,1-1.767.154h-.4a8.365,8.365,0,0,1-3.309-.55h0a4.488,4.488,0,0,1-.731-.4.1.1,0,0,1-.032-.024,3.711,3.711,0,0,1-.814-.645,4.191,4.191,0,0,0,1.609-2.8,5.157,5.157,0,0,1,.474-2.5,3.589,3.589,0,0,1,.925-.791c2.1-1.435,3.772-3.4,5.673-5.1s4.2-3.163,6.761-3.242c3.432-.107,6.452,2.281,9.852,2.732a26.69,26.69,0,0,1,3.135.352,10.793,10.793,0,0,1,3.183,1.613,7.989,7.989,0,0,1,2.269,1.929,6.806,6.806,0,0,1,.925,2.21,24.438,24.438,0,0,1,.791,5.064c.091,1.791,0,3.594.19,5.373a9.216,9.216,0,0,0,1.518,4.321h.051a5.928,5.928,0,0,0,.49.6c-.336.107-.672.2-1.016.285a16.037,16.037,0,0,1-1.736.344,5.056,5.056,0,0,1-.81.067,2.415,2.415,0,0,1-.561-.051l.348.233.965.648h0l.364.241.731.486c.166-.486.4-.617.66-.585.538-.506,1.34.589,1.34.589a7.935,7.935,0,0,0,2.854,2.463A22.558,22.558,0,0,0,266,422.46c14.774,8.8,13.837,21.978,14.707,23.021s.925,4.823.925,4.823,2.178,12.845,3.163,13.956.063,1.5.921,2.74.66,4.562.66,4.562.593,7.824,2.7,9.52c1.894,1.522,4.424,14.328,4.926,16.945Z" transform="translate(854.914 503.018)" fill="#141414"/>
      <path id="Path_139" data-name="Path 139" d="M209.184,556.44s-2.052,3.23-7.864,1.744-13.5,4.135-11.307,6.911,16.344-.791,16.344-.791l5.428-1.1-.356-4.519Z" transform="translate(853.25 402.88)" fill="#d38884"/>
      <path id="Path_140" data-name="Path 140" d="M209.184,556.44s-2.052,3.23-7.864,1.744-13.5,4.135-11.307,6.911,16.344-.791,16.344-.791l5.428-1.1-.356-4.519Z" transform="translate(853.25 402.88)" opacity="0.1"/>
      <path id="Path_141" data-name="Path 141" d="M237.648,555.8l-2.518-.13-1.55.451s4.91.712,3.558,7.365l5.294-.32Z" transform="translate(826.676 403.346)" fill="#a36468"/>
      <path id="Path_142" data-name="Path 142" d="M237.648,555.8l-2.518-.13-1.55.451s4.91.712,3.558,7.365l5.294-.32Z" transform="translate(826.676 403.346)" opacity="0.1"/>
      <path id="Path_143" data-name="Path 143" d="M273.355,518.36s-6.911,3.953-8.852,7.239c0,0-1.613.791-1.613,1.486s-1.036,1.676-2.843,2.372l-1.811.712s-2.068-.518-2.261,0-4.713,2.194-7.041,2.131-11.434.791-11.434.791a8.093,8.093,0,0,1,4.586,8.979l21.515-.9,8.136-1.811,4.784-4.78Z" transform="translate(824.306 425.905)" fill="#141414"/>
      <path id="Path_144" data-name="Path 144" d="M273.355,518.36s-6.911,3.953-8.852,7.239c0,0-1.613.791-1.613,1.486s-1.036,1.676-2.843,2.372l-1.811.712s-2.068-.518-2.261,0-4.713,2.194-7.041,2.131-11.434.791-11.434.791a8.093,8.093,0,0,1,4.586,8.979l21.515-.9,8.136-1.811,4.784-4.78Z" transform="translate(827.306 424.905)" fill="#141414" opacity="0.1"/>
      <path id="Path_145" data-name="Path 145" d="M212.7,574.677l-3.044-.059-3.558-.075s-16.8,1.293-16.474-4.08,13.252-7.259,15.051-5.717c1.364,1.166,4.519,2.107,5.958,2.491.459.122.739.19.739.19Z" transform="translate(853.257 398.173)" fill="#d38884"/>
      <path id="Path_146" data-name="Path 146" d="M242.619,579.3l-3.044-.059c-1.214-4.171.194-6.468.992-7.369.459.123.739.19.739.19Z" transform="translate(823.337 393.551)" opacity="0.1"/>
      <path id="Path_147" data-name="Path 147" d="M245.022,578.79l-3.163.221-1.5.1c-2.068-6.073,1.273-8.464,1.273-8.464h.988l1.617.194Z" transform="translate(822.986 394.288)" fill="#a36468"/>
      <path id="Path_148" data-name="Path 148" d="M338.343,465.384,334.6,472.5s-.573-7.207-2.242-10.6a3.008,3.008,0,0,0-1.506-1.672c-1.581-.5,7.512-10.465,7.512-10.465a36.2,36.2,0,0,1,4.175,2.637c2.344,1.581,5.167,3.511,7.065,4.744C353.2,459.438,338.343,465.384,338.343,465.384Z" transform="translate(767.975 467.384)" fill="#d38884"/>
      <path id="Path_149" data-name="Path 149" d="M329.568,489.62s-3.013,1.933-3.851,4.776a79.745,79.745,0,0,0-1.617,7.947s1.36,12.208,2.068,12.79,3.4,12.79,3.4,12.79l2.609-1.743L328.753,510.8S331.031,491.047,329.568,489.62Z" transform="translate(771.943 443.283)" fill="#2d2d2d"/>
      <path id="Path_152" data-name="Path 152" d="M282.6,679.24h.182l-.34.13Z" transform="translate(797.133 328.63)" fill="#67647e"/>
      <path id="Path_153" data-name="Path 153" d="M283.327,642.879l-2.945,1.131-.4.146-10.6,4.076-4.044,1.554-5.5,2.115h-2.246c-6.966-.02-13.9-.174-20.8-.534,1.336-2.929,3.673-7.618,5.578-9.133,1.487-1.186,12.122-2.467,21.938-3.432,1.226-.119,2.435-.233,3.614-.34l.281-.028c3.9-.356,7.425-.644,9.884-.842l.4-.032,3.092-.237L281.9,637l.4,1.692.328,1.352Z" transform="translate(824.735 354.17)" fill="#141414"/>
      <path id="Path_154" data-name="Path 154" d="M282.6,679.24h.182l-.34.13Z" transform="translate(797.133 328.63)" opacity="0.1"/>
      <path id="Path_155" data-name="Path 155" d="M283.327,642.879l-2.945,1.131-.4.146-10.6,4.076-4.044,1.554-5.5,2.115h-2.246c-6.966-.02-13.9-.174-20.8-.534,1.336-2.929,3.673-7.618,5.578-9.133,1.487-1.186,12.122-2.467,21.938-3.432,1.226-.119,2.435-.233,3.614-.34l.281-.028c3.9-.356,7.425-.644,9.884-.842l.4-.032,3.092-.237L281.9,637l.4,1.692.328,1.352Z" transform="translate(824.735 354.17)" fill="#141414" opacity="0.1"/>
      <path id="Path_156" data-name="Path 156" d="M282.6,679.24h.182l-.34.13Z" transform="translate(797.133 328.63)" fill="#67647e"/>
      <path id="Path_157" data-name="Path 157" d="M315.083,679.24a.561.561,0,0,1-.044.13h0a.349.349,0,0,1,.047-.13Z" transform="translate(777.421 328.63)" fill="#141414"/>
      <path id="Path_158" data-name="Path 158" d="M335.536,507.33h-.293l-.043-.13h.293Z" transform="translate(772.332 500.666)" fill="#141414"/>
      <path id="Path_159" data-name="Path 159" d="M317.656,641.341l-.245,8.136v.482l-.123,4.029-2.89.095h-.419q-6.167.2-12.323.3h-2.443l-1.834.024q-2.858.028-5.7.032H289.4c2.056-1.273,4.717-2.677,7.579-4.08,1.285-.633,2.617-1.261,3.954-1.882,3.558-1.652,7.16-3.214,10.1-4.46l.376-.158c1.139-.482,2.17-.913,3.052-1.277,1.906-.791,3.115-1.265,3.2-1.3Z" transform="translate(792.924 351.576)" fill="#141414"/>
      <path id="Path_160" data-name="Path 160" d="M293.339,554.285a14.849,14.849,0,0,0,2.724,4.317c.194.19.53.364.7.154a.5.5,0,0,0,.075-.293,3.772,3.772,0,0,0-.712-2.016c-.4-.609-.862-1.162-1.214-1.795s-.755-1.85-1.546-2.016C292.355,552.423,293.114,553.818,293.339,554.285Z" transform="translate(790.835 405.194)" opacity="0.1"/>
      <path id="Path_161" data-name="Path 161" d="M342.518,452.367c-.055.2-.115.4-.178.585a13.319,13.319,0,0,1-9.987,8.915,3.008,3.008,0,0,0-1.506-1.672c-1.581-.5,7.512-10.465,7.512-10.465A42.145,42.145,0,0,1,342.518,452.367Z" transform="translate(767.975 467.402)" opacity="0.1"/>
      <path id="Path_162" data-name="Path 162" d="M321.145,426.438a13.28,13.28,0,1,1-3.89-9.418A13.308,13.308,0,0,1,321.145,426.438Z" transform="translate(789.822 489.532)" fill="#d38884"/>
      <path id="Path_163" data-name="Path 163" d="M337.471,496.79s-2.767,3.36-2.325,5.559H338.5l2.455-2.767Z" transform="translate(765.293 438.948)" fill="#d0cde1"/>
      <path id="Path_164" data-name="Path 164" d="M349.856,460.9,339.3,475.413s2.712,3.878,4,4.072,8.666-17.166,8.666-17.166Z" transform="translate(762.752 460.649)" opacity="0.1"/>
      <path id="Path_165" data-name="Path 165" d="M350.19,460.24l-10.56,14.533s2.712,3.874,4,4.068,8.666-17.162,8.666-17.162Z" transform="translate(762.553 461.047)" fill="#2d2d2d"/>
      <path id="Path_166" data-name="Path 166" d="M334.264,507.26s-.518,8.136-1.036,9.753,0,16.47,0,16.47l4.847-2-.842-22.8Z" transform="translate(766.563 432.617)" fill="#d0cde1"/>
      <path id="Path_167" data-name="Path 167" d="M335.493,507.2l.043.13h-.293l-.043-.13Z" transform="translate(772.332 500.666)" fill="#141414" opacity="0.1"/>
      <path id="Path_168" data-name="Path 168" d="M439.4,679.55Z" transform="translate(702.227 328.442)" opacity="0.1"/>
      <path id="Path_169" data-name="Path 169" d="M381.19,539.9s-.091.15-.241.4-.312.55-.522.937a.3.3,0,0,0-.028.047c-.293.542-.64,1.206-.992,1.929-11.861.419-23.721.977-35.55,1.376l-2.89.095h-.419l-1.241-4.191v-.043l-.13-.443-.791-2.633-.791-2.677-.818-2.854-.3-1.036-.079-.261-1.289-4.388-1.747-5.958.565-5.685h0l.04-.431.51-5.092.071-1.51h0l.04-.791v-.225h0l.087-1.834.261-5.456.134-2.791h0l.024-.423h0l.269-5.6.763-2.289.4-1.139.878-2.645.19-.652h0c.277-.992.834-2.953,1.356-4.839h0l.047-.162h0l.036-.123.372-1.34.463-1.72c.174-.66.289-1.131.316-1.293a25.345,25.345,0,0,1,1.771-3.163h0c1.977-3.27,4.95-8.081,5.29-9.694a.183.183,0,0,0,0-.04,1.973,1.973,0,0,1,.083-.289c.162-.482.4-.613.64-.581a.789.789,0,0,1,.312.123,2.486,2.486,0,0,1,.617.593,7.871,7.871,0,0,0,2.8,2.439l.213.123.126.075c.909.518,1.645.85,1.645.85,14.47,8.721,13.569,21.772,14.407,22.8s.905,4.784.905,4.784,2.131,12.726,3.1,13.837.067,1.487.905,2.716.644,4.479.644,4.479.581,7.749,2.649,9.429S381.19,539.9,381.19,539.9Z" transform="translate(766.344 460.964)" fill="#141414" opacity="0.1"/>
      <path id="Path_170" data-name="Path 170" d="M382.176,539.552l-.174.3h0c-.138.245-.36.633-.625,1.119l-.028.055c-.3.557-.656,1.234-1.008,1.977h-.332c-11.861.419-23.721.977-35.55,1.376l-2.89.095-1.237-4.207v-.044l-.13-.443-.818-2.768-.791-2.688-.791-2.684-.312-1.075h0l-1.352-4.618-1.787-6.084.494-4.946.067-.66.546-5.618h0l.21-4.38.257-5.294.067-1.388.075-1.605.032-.676.257-5.29.763-2.285.328-.984.767-2.313.162-.49s.739-2.6,1.455-5.171c.028-.095.055-.19.079-.285.063-.221.123-.443.186-.66h0c.063-.221.123-.439.178-.656.2-.72.4-1.392.53-1.945.194-.723.324-1.249.352-1.419a23.285,23.285,0,0,1,1.807-3.218c1.87-3.092,4.6-7.512,5.175-9.346a2.963,2.963,0,0,0,.079-.289h0a1.507,1.507,0,0,1,.344-.791c.53-.51,1.317.585,1.317.585a7.833,7.833,0,0,0,2.8,2.439,20.936,20.936,0,0,0,1.977,1.048c14.47,8.721,13.568,21.772,14.407,22.808s.905,4.78.905,4.78,2.131,12.726,3.1,13.837.067,1.487.905,2.712.644,4.523.644,4.523.581,7.753,2.649,9.433S382.176,539.552,382.176,539.552Z" transform="translate(765.745 461.182)" fill="#141414"/>
      <path id="Path_171" data-name="Path 171" d="M356.915,463.85c-1.419,2.064-3.732,5.693-4.349,8.3,0,0-2.261,2.329-3.1,2.2s.791,1.744.791,1.744l-8.884,12.311,1.261-3.784s2.649-9.3,2.767-10.141,6.551-10.441,7.061-12.857c.4-1.933,1.661-.194,1.661-.194A7.879,7.879,0,0,0,356.915,463.85Z" transform="translate(761.501 460.762)" opacity="0.1"/>
      <path id="Path_172" data-name="Path 172" d="M356.915,463.167c-1.419,2.06-3.732,5.693-4.349,8.283,0,0-2.261,2.325-3.1,2.2s.791,1.743.791,1.743L341.37,487.7l1.261-3.784s2.649-9.3,2.767-10.145,6.551-10.437,7.061-12.853c.4-1.937,1.661-.194,1.661-.194A7.8,7.8,0,0,0,356.915,463.167Z" transform="translate(761.501 461.188)" fill="#2d2d2d"/>
      <path id="Path_173" data-name="Path 173" d="M365.34,506.659c.067,2.823-4.068,6.677-4.262,6.9s-12.857,10.675-12.857,10.675l-9.093,6.974a7.725,7.725,0,0,1-3.558,1.645l.621-6.239.613-12.651c1.419-1.581,2.8-3.242,2.827-3.772.063-1.1,2.372-2.261,2.372-2.261s1.617-1.356,1.356-2.131.858-4.487.858-4.487c.581-10.532,11.434-11.564,11.434-11.564a74.4,74.4,0,0,1,8.915,4.262C368.246,496.206,365.277,503.84,365.34,506.659Z" transform="translate(765.008 443.204)" opacity="0.1"/>
      <path id="Path_174" data-name="Path 174" d="M247.608,578.79l-3.163.221c-1.336-2.273.5-8.362.5-8.362h.257l1.617.194Z" transform="translate(820.4 394.288)" opacity="0.1"/>
      <path id="Path_175" data-name="Path 175" d="M300.718,488.13s-10.852,1.036-11.434,11.564c0,0-1.1,3.685-.842,4.46s-1.356,2.131-1.356,2.131-2.325,1.162-2.372,2.261-5.93,7.093-5.93,7.093-2.451,2.791-8.136,3.084-8.334,2.032-8.334,2.032-2.767-1.937-4.784-1.356-11.821,1.356-11.821,1.356-2.605,8.635.644,9.176c.4.063,32.379,1.162,32.379,1.162s2.186,1.032,5.48-1.487,9.093-6.978,9.093-6.978,12.651-10.465,12.857-10.674,4.349-4.084,4.262-6.9,2.91-10.445-.791-12.651A74.52,74.52,0,0,0,300.718,488.13Z" transform="translate(819.94 444.184)" fill="#141414"/>
      <path id="Path_176" data-name="Path 176" d="M322.119,426.373a13.282,13.282,0,0,1-.652,4.124,5.56,5.56,0,0,1-.49-.676q-.925-1.423-1.854-2.847a7.694,7.694,0,0,0-1.886-2.222,2.633,2.633,0,0,0-2.767-.293,2.772,2.772,0,0,0-1.186,2.218,25.182,25.182,0,0,0,.067,2.617,1.443,1.443,0,0,1-.241.945,1.55,1.55,0,0,1-1.02.4l-1.186.162a.85.85,0,0,1-1.091-.542c-.984-1.783-1.664-4-3.511-4.855-1.139-.53-2.641-.494-3.372-1.514a3.3,3.3,0,0,1-.285-2.487,19.629,19.629,0,0,1,.692-2.815c.21-.648.676-1.941-.36-2.072a2.727,2.727,0,0,0-2.032,1.186,10.556,10.556,0,0,0-.7,1.842,4.4,4.4,0,0,1-2.431,2.258,6.971,6.971,0,0,1-1.676.455,13.308,13.308,0,0,1,25.975,4.088Z" transform="translate(788.849 489.597)" opacity="0.1"/>
      <path id="Path_177" data-name="Path 177" d="M290.65,406.823a10.806,10.806,0,0,0-.7,1.838,4.4,4.4,0,0,1-2.427,2.257,9.341,9.341,0,0,1-3.333.593c-1.842.055-3.9-.225-5.084-1.637a4.163,4.163,0,0,0,1.581-2.768,5.13,5.13,0,0,1,.467-2.483,3.558,3.558,0,0,1,.9-.763c2.064-1.423,3.693-3.376,5.559-5.053s4.116-3.135,6.622-3.214c3.357-.1,6.326,2.261,9.647,2.708a26.393,26.393,0,0,1,3.068.348,10.461,10.461,0,0,1,3.119,1.581,7.982,7.982,0,0,1,2.226,1.913,6.882,6.882,0,0,1,.905,2.19,24.456,24.456,0,0,1,.791,5.017c.091,1.771,0,3.558.19,5.321a8.432,8.432,0,0,0,1.957,4.863,17.4,17.4,0,0,1-2.692.621,2.8,2.8,0,0,1-1.712-.134,3.016,3.016,0,0,1-1.044-1.127l-1.854-2.846a7.694,7.694,0,0,0-1.886-2.222,2.633,2.633,0,0,0-2.767-.293A2.782,2.782,0,0,0,303,415.754a25.183,25.183,0,0,0,.067,2.617,1.443,1.443,0,0,1-.241.945,1.554,1.554,0,0,1-1.024.4l-1.186.162a.85.85,0,0,1-1.091-.542c-.984-1.787-1.664-4-3.511-4.855-1.139-.53-2.641-.494-3.372-1.514a3.3,3.3,0,0,1-.285-2.487,19.636,19.636,0,0,1,.692-2.815c.21-.648.676-1.941-.36-2.076A2.729,2.729,0,0,0,290.65,406.823Z" transform="translate(799.146 500.137)" fill="#141414"/>
      <path id="Path_178" data-name="Path 178" d="M375.812,502.446a5.791,5.791,0,0,1,2.989.154,10.934,10.934,0,0,0-8.631.759C370.372,503.822,375.037,502.552,375.812,502.446Z" transform="translate(744.087 435.775)" opacity="0.1"/>
      <path id="Path_179" data-name="Path 179" d="M377.262,509.442c2.431.162,4.942.5,7.247-.289-1.929-.664-4.052-.245-6.084-.447-1.621-.162-3.27-.723-4.851-.312-.66.17-3.092,1.289-2.926,2.107A13.138,13.138,0,0,1,377.262,509.442Z" transform="translate(743.803 432.02)" opacity="0.1"/>
      <path id="Path_180" data-name="Path 180" d="M371.1,524.075a3.652,3.652,0,0,1,1.51.158,23.1,23.1,0,0,0,5.567.613,5.823,5.823,0,0,0,4.017-1.186Z" transform="translate(743.525 422.701)" opacity="0.1"/>
      <path id="Path_181" data-name="Path 181" d="M351.29,554.047a11.142,11.142,0,0,0,5.436.988,24,24,0,0,0,5.472-1.052,3.658,3.658,0,0,0,2.115-1.214Z" transform="translate(755.503 405.099)" opacity="0.1"/>
      <path id="Path_182" data-name="Path 182" d="M393.68,559.59a29.043,29.043,0,0,0,12.066,3.736q-3.214-1.289-6.476-2.439a46.907,46.907,0,0,0-6.82-1.827,3.469,3.469,0,0,1,1.229.53Z" transform="translate(730.615 401.296)" opacity="0.1"/>
      <path id="Path_183" data-name="Path 183" d="M405.488,552.791a10.2,10.2,0,0,0,2.25.123,1.283,1.283,0,0,0,1.1-.4,19.287,19.287,0,0,1-5.025-.739c-.471-.111-1.317-.372-1.712-.091A10.866,10.866,0,0,0,405.488,552.791Z" transform="translate(724.781 405.83)" opacity="0.1"/>
      <path id="Path_184" data-name="Path 184" d="M432.41,633.848a16.336,16.336,0,0,0,5.286,6.294,48.377,48.377,0,0,0-5.306-10.781c-.593-.822-1.479-2-2.558-2.151-.308.913.47,2.53.846,3.388A32.611,32.611,0,0,0,432.41,633.848Z" transform="translate(708.055 360.089)" opacity="0.1"/>
      <path id="Path_185" data-name="Path 185" d="M327.057,570.72a2.686,2.686,0,0,0,.249,1.85,1.336,1.336,0,0,0,.751.518,8.958,8.958,0,0,1-.443-2.159c-.087-.518,0-1.486-.368-1.87C327.152,569.605,327.116,570.167,327.057,570.72Z" transform="translate(770.184 395.25)" opacity="0.1"/>
      <path id="Path_186" data-name="Path 186" d="M331.822,569.848a4.214,4.214,0,0,0,1.977,2.677,30.249,30.249,0,0,1-1.518-2.914c-.194-.3-.419-.731-.791-.791Q331.63,569.342,331.822,569.848Z" transform="translate(767.475 395.395)" opacity="0.1"/>
      <path id="Path_187" data-name="Path 187" d="M320.647,541.75a4.938,4.938,0,0,1-3.914.494c-.3-.087-.988-.4-.822-.83s.969-.134,1.3-.095l1.72.217C319.244,541.576,320.391,541.9,320.647,541.75Z" transform="translate(773.91 412.107)" opacity="0.1"/>
      <path id="Path_188" data-name="Path 188" d="M313.21,549.624c.81-.1,1.538.459,2.3.763a7,7,0,0,0,2.609.348,1.458,1.458,0,0,0,1.218-.4A17.094,17.094,0,0,0,313.21,549.624Z" transform="translate(778.528 407.047)" opacity="0.1"/>
      <path id="Path_189" data-name="Path 189" d="M319.97,317.58h.13l.969,3.483-1.1,1.17Z" transform="translate(781.541 615.319)" fill="#2d2d2d"/>
      <g id="Group_40" data-name="Group 40" transform="translate(1078.311 904.937)" opacity="0.1">
        <path id="Path_190" data-name="Path 190" d="M283.478,419.76a8.155,8.155,0,0,0-.178,1.72,3.8,3.8,0,0,0,.107-.554C283.454,420.547,283.45,420.147,283.478,419.76Z" transform="translate(-281.699 -419.413)"/>
        <path id="Path_191" data-name="Path 191" d="M292.822,419.68a.7.7,0,0,1,.648.791c.186-.656.289-1.463-.518-1.581a2.714,2.714,0,0,0-2.032,1.206,11.054,11.054,0,0,0-.7,1.842A4.392,4.392,0,0,1,287.8,424.2a9.341,9.341,0,0,1-3.333.593,6.731,6.731,0,0,1-4.744-1.289,4.025,4.025,0,0,1-.47.427c1.186,1.411,3.242,1.692,5.088,1.637a9.339,9.339,0,0,0,3.329-.593,4.413,4.413,0,0,0,2.431-2.258,10.793,10.793,0,0,1,.692-1.838A2.7,2.7,0,0,1,292.822,419.68Z" transform="translate(-279.25 -418.882)"/>
        <path id="Path_192" data-name="Path 192" d="M350.395,445.211a2.8,2.8,0,0,1-1.712-.134,3.052,3.052,0,0,1-1.044-1.127q-.925-1.423-1.854-2.846a7.629,7.629,0,0,0-1.882-2.222,2.625,2.625,0,0,0-2.767-.293,2.834,2.834,0,0,0-1.206,2.218v.107a2.5,2.5,0,0,1,1.079-1.55,2.636,2.636,0,0,1,2.767.293,7.757,7.757,0,0,1,1.886,2.222q.925,1.423,1.854,2.846a2.985,2.985,0,0,0,1.044,1.127,2.792,2.792,0,0,0,1.708.134,17.529,17.529,0,0,0,2.7-.621,5.776,5.776,0,0,1-.482-.6A16.96,16.96,0,0,1,350.395,445.211Z" transform="translate(-315.94 -430.631)"/>
        <path id="Path_193" data-name="Path 193" d="M323.145,440.745a1.582,1.582,0,0,1-1.02.4l-1.186.162a.85.85,0,0,1-1.091-.542c-.984-1.787-1.664-4-3.511-4.855-1.139-.53-2.637-.494-3.368-1.514a2.91,2.91,0,0,1-.352-2.072c-.02.122-.047.241-.067.36a3.3,3.3,0,0,0,.289,2.487c.731,1.02,2.234.984,3.368,1.514,1.85.858,2.53,3.068,3.515,4.855a1.131,1.131,0,0,0,.455.542,1.158,1.158,0,0,0,.636.028l1.186-.162a1.55,1.55,0,0,0,1.02-.4,1.419,1.419,0,0,0,.241-.945h0A1.184,1.184,0,0,1,323.145,440.745Z" transform="translate(-299.322 -427.007)"/>
      </g>
    </g>
  </g>
</svg>
