<svg xmlns="http://www.w3.org/2000/svg" width="128.911" height="111.252" viewBox="0 0 128.911 111.252">
  <g id="Group_37" data-name="Group 37" transform="translate(0 0)">
    <circle id="Ellipse_5" data-name="Ellipse 5" cx="11.87" cy="11.87" r="11.87" transform="translate(58.495 7.243)" fill="#a0616a"/>
    <path id="Path_31" data-name="Path 31" d="M573.707,260.562s2.236,16.859-1.2,18.751,20.471,2.064,20.471,2.064-5.333-14.622-2.924-19.1Z" transform="translate(-512.202 -235.514)" fill="#a0616a"/>
    <path id="Path_32" data-name="Path 32" d="M527.736,343.923l-1.989,9.055-4.2,19.159-.126,1.049-1.451,12.147L519,393.4l-.647,5.42c-3.935,2.023-6.787,3.419-6.787,3.419s-.245-1.23-.641-2.8a60.188,60.188,0,0,1-12.2,2.476c1.577,1.758,2.3,3.409,1.319,4.628-2.967,3.674-15.215-4.022-19.5-6.892a11.588,11.588,0,0,0-.113,2.076L477.15,399.2l.324-5.8.547-9.816.688-12.31a12.933,12.933,0,0,1-.544-1.619c-1-3.571-2.223-10.7-3.157-16.679-.752-4.812-1.317-8.878-1.437-9.743-.016-.113-.024-.171-.024-.171l18.148-8.019c1.29,2.991,7.312,3.89,7.312,3.89a20.2,20.2,0,0,0,8.9-2.975Z" transform="translate(-429.503 -297.975)" fill="#d0cde1"/>
    <path id="Path_33" data-name="Path 33" d="M604.587,701.315s-.768.263-2.018.636a60.2,60.2,0,0,1-12.2,2.476c-3.729.239-6.88-.336-7.456-2.768a2.571,2.571,0,0,1,.867-2.613c2.279-2.113,8.232-2.87,12.954-3.13,1.333-.073,2.567-.107,3.593-.119,1.743-.023,2.886.013,2.886.013l.027.107Z" transform="translate(-521.147 -600.488)" fill="#a0616a"/>
    <path id="Path_34" data-name="Path 34" d="M559.108,113.273l-2.219-.888s4.641-5.109,11.1-4.665l-1.816-2s4.439-1.777,8.474,2.888a39.388,39.388,0,0,1,6.106,8.581h2.377l-.992,2.184,3.472,2.184-3.564-.392a12.208,12.208,0,0,1,.1,3.623,4.688,4.688,0,0,1-1.716,3.067h0s-2.752-5.7-2.752-6.586v2.221s-2.219-2-2.219-3.332l-1.211,1.555-.605-2.443-7.465,2.443,1.211-2-4.641.666,1.816-2.443s-5.246,2.888-5.448,5.331a11.732,11.732,0,0,1-1.737,4.759S553.257,116.605,559.108,113.273Z" transform="translate(-498.618 -105.389)" fill="#141414"/>
    <path id="Path_35" data-name="Path 35" d="M719.382,431.676c-1.209,1.311-4.2,3.285-7.837,5.422-1.351.794-2.789,1.613-4.256,2.426-3.5,1.942-7.167,3.866-10.192,5.42-3.935,2.023-6.788,3.419-6.788,3.419s-.245-1.23-.641-2.8a23.245,23.245,0,0,0-2.158-6.035c-.029-.042-.058-.081-.087-.119-.242-.318-.486-.5-.726-.5l12.013-7.446,5.191-3.219-3.74-8.928-4.691-11.2L698.3,399.1l2.846-9.055h5.333s1.766,3.855,4.024,9.23c.337.8.686,1.642,1.041,2.507C716.191,413.081,721.983,428.859,719.382,431.676Z" transform="translate(-608.247 -344.097)" fill="#d0cde1"/>
    <path id="Path_36" data-name="Path 36" d="M528.644,701.119c-2.967,3.674-15.215-4.023-19.5-6.892-.933-.625-1.488-1.02-1.488-1.02l3.919-5.227,1.241-1.655s1.111.589,2.752,1.548l.181.107c1.416.831,3.193,1.918,4.986,3.13a37.629,37.629,0,0,1,6.589,5.382C528.9,698.249,529.627,699.9,528.644,701.119Z" transform="translate(-458.107 -592.552)" fill="#a0616a"/>
    <path id="Path_37" data-name="Path 37" d="M409.52,435.845a7.707,7.707,0,0,0-1.307.107c-3.711.638-4.805,4-5.117,6.247a11.6,11.6,0,0,0-.113,2.076l-3.278-2.521-1.194-.918a21.77,21.77,0,0,1-7.658-4.883,38.5,38.5,0,0,1-5.157-6.116,53.94,53.94,0,0,1-3.99-6.844,5.034,5.034,0,0,1-.069-4.269l4.06-9.047,5.934-13.223q.065-.472.144-.923c1.177-6.747,4.329-9.743,4.329-9.743h2.408l1.611,9.743,2,12.1-1.4,4.575-3.241,10.565,3.1,3.364Z" transform="translate(-352.057 -340.524)" fill="#d0cde1"/>
    <path id="Path_38" data-name="Path 38" d="M545.3,490.7l2.059,2.4c.765-.146,1.564-.317,2.386-.51l-.591-1.892,1.446,1.687a195.312,195.312,0,0,0,19.52-6.312s-11.663.855-20.372-1.047a8.287,8.287,0,0,0-9.4,4.681c-.919,2.1-.775,3.92,2.485,3.92a21.529,21.529,0,0,0,3.285-.309Z" transform="translate(-485.113 -423.586)" fill="#038d08"/>
    <path id="Path_39" data-name="Path 39" d="M467.343,751.67v.98a2.154,2.154,0,0,1-.147.786,2.218,2.218,0,0,1-.157.323,2.169,2.169,0,0,1-1.864,1.059h-72.08a2.169,2.169,0,0,1-1.864-1.059,2.212,2.212,0,0,1-.157-.323,2.153,2.153,0,0,1-.147-.786v-.98a2.167,2.167,0,0,1,2.168-2.168h4.155v-.457a.09.09,0,0,1,.09-.09h2.168a.09.09,0,0,1,.09.09v.457h1.354v-.457a.09.09,0,0,1,.09-.09h2.168a.09.09,0,0,1,.09.09v.457h1.356v-.457a.09.09,0,0,1,.09-.09h2.168a.09.09,0,0,1,.09.09v.457h1.354v-.457a.09.09,0,0,1,.09-.09h2.168a.09.09,0,0,1,.09.09v.457h1.354v-.457a.09.09,0,0,1,.09-.09h2.168a.09.09,0,0,1,.09.09v.457h1.356v-.457a.09.09,0,0,1,.09-.09h2.168a.09.09,0,0,1,.09.09v.457h1.354v-.457a.09.09,0,0,1,.09-.09h16.981a.09.09,0,0,1,.09.09v.457h1.356v-.457a.09.09,0,0,1,.09-.09h2.168a.091.091,0,0,1,.09.09v.457h1.354v-.457a.09.09,0,0,1,.09-.09h2.168a.09.09,0,0,1,.09.09v.457h1.354v-.457a.09.09,0,0,1,.09-.09h2.168a.09.09,0,0,1,.09.09v.457H449.1v-.457a.09.09,0,0,1,.09-.09h2.168a.09.09,0,0,1,.089.09v.457H452.8v-.457a.09.09,0,0,1,.09-.09h2.168a.09.09,0,0,1,.09.09v.457H456.5v-.457a.09.09,0,0,1,.09-.09h2.168a.09.09,0,0,1,.09.09v.457h6.323A2.167,2.167,0,0,1,467.343,751.67Z" transform="translate(-360.219 -645.073)" fill="#141414"/>
    <rect id="Rectangle_16" data-name="Rectangle 16" width="118.318" height="0.323" transform="translate(9.766 108.363)" fill="#141414"/>
    <path id="Path_40" data-name="Path 40" d="M475.922,507.268H449.055v-.554H436.873v.554H409.9a1.817,1.817,0,0,0-1.817,1.817v36.789a1.817,1.817,0,0,0,1.817,1.817h66.026a1.817,1.817,0,0,0,1.817-1.817V509.086a1.817,1.817,0,0,0-1.817-1.817Z" transform="translate(-374.602 -441.934)" fill="#141414"/>
    <circle id="Ellipse_6" data-name="Ellipse 6" cx="4.035" cy="4.035" r="4.035" transform="translate(64.324 74.143)" fill="none" stroke="#d0cde1" stroke-miterlimit="10" stroke-width="2"/>
    <circle id="Ellipse_7" data-name="Ellipse 7" cx="4.035" cy="4.035" r="4.035" transform="translate(63.033 75.595)" fill="#d0cde1"/>
    <rect id="Rectangle_17" data-name="Rectangle 17" width="4.52" height="4.52" transform="translate(12.985 106.732)" fill="#d0cde1"/>
    <path id="Path_41" data-name="Path 41" d="M292.136,744.612V750.1h5.488v-5.488Zm5.249,5.249h-5.012v-5.01h5.012Z" transform="translate(-277.375 -641.431)" fill="#3f3d56"/>
    <rect id="Rectangle_18" data-name="Rectangle 18" width="4.52" height="4.52" transform="translate(117.583 106.732)" fill="#d0cde1"/>
    <path id="Path_42" data-name="Path 42" d="M940.136,744.612V750.1h5.488v-5.488Zm5.249,5.249h-5.012v-5.01h5.012Z" transform="translate(-820.777 -641.431)" fill="#3f3d56"/>
    <circle id="Ellipse_8" data-name="Ellipse 8" cx="12.807" cy="12.807" r="12.807" transform="translate(2.46 11.53)" fill="#038d08"/>
    <path id="Path_43" data-name="Path 43" d="M243.277,161.3a13.841,13.841,0,0,0-3.493,0,13.618,13.618,0,0,0-11.237,9.477,13.433,13.433,0,0,0-.59,3.5c-.006.165-.01.332-.01.5A13.6,13.6,0,0,0,241.53,188.36c.289,0,.578-.01.863-.027a13.434,13.434,0,0,0,1.991-.276,13.585,13.585,0,0,0-1.108-26.753Zm2.505,25.965h0a13.059,13.059,0,0,1-3.386.673c-.285.019-.574.029-.863.029a13.211,13.211,0,0,1-13.195-13.195c0-.167,0-.334.01-.5a13.195,13.195,0,1,1,17.437,12.991Z" transform="translate(-223.547 -152.186)" fill="#3f3d56"/>
    <rect id="Rectangle_19" data-name="Rectangle 19" width="0.388" height="2.717" transform="translate(17.789 10.172)" fill="#3f3d56"/>
    <rect id="Rectangle_20" data-name="Rectangle 20" width="0.388" height="2.717" transform="translate(9.065 13.947) rotate(-45)" fill="#3f3d56"/>
    <rect id="Rectangle_21" data-name="Rectangle 21" width="0.388" height="2.717" transform="translate(5.565 22.785) rotate(-90)" fill="#3f3d56"/>
    <rect id="Rectangle_22" data-name="Rectangle 22" width="0.388" height="2.717" transform="translate(9.339 31.509) rotate(-135)" fill="#3f3d56"/>
    <rect id="Rectangle_23" data-name="Rectangle 23" width="0.388" height="2.717" transform="translate(24.981 15.867) rotate(-135)" fill="#3f3d56"/>
    <rect id="Rectangle_24" data-name="Rectangle 24" width="0.388" height="2.717" transform="translate(27.686 22.785) rotate(-90)" fill="#3f3d56"/>
    <rect id="Rectangle_25" data-name="Rectangle 25" width="0.388" height="2.717" transform="translate(24.707 29.588) rotate(-45)" fill="#3f3d56"/>
    <rect id="Rectangle_26" data-name="Rectangle 26" width="0.388" height="2.717" transform="translate(17.789 32.293)" fill="#3f3d56"/>
    <path id="Path_44" data-name="Path 44" d="M307.637,239.526a.97.97,0,0,0-1.164,0,1,1,0,0,0-.277.326.97.97,0,1,0,1.442-.326Zm-.582,1.358a.584.584,0,0,1-.582-.582.593.593,0,0,1,.1-.33.582.582,0,1,1,.479.912Z" transform="translate(-289.071 -217.711)" fill="#3f3d56"/>
    <rect id="Rectangle_27" data-name="Rectangle 27" width="3.493" height="3.493" transform="translate(16.237 5.709)" fill="#3f3d56"/>
    <ellipse id="Ellipse_9" data-name="Ellipse 9" cx="4.657" cy="1.649" rx="4.657" ry="1.649" transform="translate(13.326 2.993)" fill="#3f3d56"/>
    <rect id="Rectangle_28" data-name="Rectangle 28" width="1.164" height="6.597" transform="translate(17.401 15.217)" fill="#3f3d56"/>
    <rect id="Rectangle_29" data-name="Rectangle 29" width="36.48" height="0.388" transform="translate(0 35.583)" fill="#3f3d56"/>
    <path id="Path_45" data-name="Path 45" d="M280.118,645.308c.151,5.157-2.863,7.047-6.644,7.158l-.262,0q-.263,0-.521-.009c-3.42-.142-6.127-1.957-6.267-6.754-.145-4.963,6.016-11.412,6.478-11.89h0l.027-.027S279.967,640.151,280.118,645.308Z" transform="translate(-255.81 -548.498)" fill="#d0cde1"/>
    <path id="Path_46" data-name="Path 46" d="M292.792,651.688l2.4-3.572-2.4,3.957.005.4q-.263,0-.521-.009l.119-5.167,0-.04,0-.008.011-.488-2.631-3.82,2.628,3.454.009.1.09-3.9-2.272-3.96,2.279,3.274-.024-8.088v0l.151,6.375,2.071-2.589-2.064,3.138.045,3.492,1.906-3.408-1.9,3.922.025,1.942,2.771-4.747-2.763,5.425Z" transform="translate(-275.4 -548.502)" fill="#3f3d56"/>
    <path id="Path_47" data-name="Path 47" d="M928.118,645.308c.151,5.157-2.863,7.047-6.644,7.158l-.262,0q-.263,0-.521-.009c-3.42-.142-6.127-1.957-6.267-6.754-.145-4.963,6.016-11.412,6.478-11.89h0l.027-.027S927.968,640.151,928.118,645.308Z" transform="translate(-799.212 -548.498)" fill="#d0cde1"/>
    <path id="Path_48" data-name="Path 48" d="M940.792,651.688l2.4-3.572-2.4,3.957.005.4q-.263,0-.521-.009l.119-5.167,0-.04,0-.008.011-.488-2.631-3.82,2.628,3.454.009.1.09-3.9-2.272-3.96,2.279,3.274-.024-8.088v0l.151,6.375,2.071-2.589-2.064,3.138.045,3.492,1.906-3.408-1.9,3.922.025,1.942,2.771-4.747-2.763,5.425Z" transform="translate(-818.803 -548.502)" fill="#3f3d56"/>
  </g>
</svg>
