<svg xmlns="http://www.w3.org/2000/svg" width="187.325" height="119.867" viewBox="0 0 187.325 119.867">
  <g id="Group_170" data-name="Group 170" transform="translate(-272 -888.041)">
    <path id="Path_366" data-name="Path 366" d="M340.06,305.412a30.865,30.865,0,0,1,2.555-9.741q.577-1.288,1.269-2.519a.188.188,0,0,0-.325-.19,31.292,31.292,0,0,0-3.482,9.606q-.261,1.412-.393,2.844C339.661,305.653,340.038,305.651,340.06,305.412Z" transform="translate(-39.857 615.361)" fill="#e6e6e6"/>
    <circle id="Ellipse_38" data-name="Ellipse 38" cx="2.381" cy="2.381" r="2.381" transform="translate(302.556 904.353)" fill="#e6e6e6"/>
    <path id="Path_367" data-name="Path 367" d="M341.414,318.671a20.025,20.025,0,0,1,1.657-6.32q.374-.836.823-1.634a.122.122,0,0,0-.211-.123,20.3,20.3,0,0,0-2.259,6.232q-.17.916-.255,1.845C341.155,318.828,341.4,318.827,341.414,318.671Z" transform="translate(-40.968 602.165)" fill="#e6e6e6"/>
    <circle id="Ellipse_39" data-name="Ellipse 39" cx="1.545" cy="1.545" r="1.545" transform="translate(301.973 910.184)" fill="#e6e6e6"/>
    <path id="Path_368" data-name="Path 368" d="M331.529,318.788a20.024,20.024,0,0,1-2.58-6q-.219-.889-.356-1.8a.122.122,0,0,0-.242.032,20.3,20.3,0,0,0,2.052,6.3q.43.827.934,1.612C331.422,319.071,331.613,318.92,331.529,318.788Z" transform="translate(-31.391 601.902)" fill="#e6e6e6"/>
    <circle id="Ellipse_40" data-name="Ellipse 40" cx="1.545" cy="1.545" r="1.545" transform="translate(295.413 910.076)" fill="#e6e6e6"/>
    <path id="Path_369" data-name="Path 369" d="M322.169,335.2v-3.035a1.139,1.139,0,0,1,1.138-1.138h7.082a1.139,1.139,0,0,1,1.138,1.138V335.2a1.139,1.139,0,0,1-1.138,1.138h-7.082A1.139,1.139,0,0,1,322.169,335.2Z" transform="translate(-26.773 586.858)" fill="#f2f2f2"/>
    <path id="Path_370" data-name="Path 370" d="M341.342,227.695h-3.035a1.139,1.139,0,0,1-1.138-1.138V214.164a1.139,1.139,0,0,1,1.138-1.138h3.035a1.139,1.139,0,0,1,1.138,1.138v12.393A1.139,1.139,0,0,1,341.342,227.695Z" transform="translate(-37.979 675.015)" fill="#f2f2f2"/>
    <rect id="Rectangle_116" data-name="Rectangle 116" width="5.058" height="1.012" transform="translate(299.316 890.443)" fill="#ccc"/>
    <rect id="Rectangle_117" data-name="Rectangle 117" width="5.058" height="1.012" transform="translate(299.316 898.284)" fill="#ccc"/>
    <path id="Path_371" data-name="Path 371" d="M371.342,227.695h-3.035a1.139,1.139,0,0,1-1.138-1.138V214.164a1.139,1.139,0,0,1,1.138-1.138h3.035a1.139,1.139,0,0,1,1.138,1.138v12.393A1.139,1.139,0,0,1,371.342,227.695Z" transform="translate(-60.392 675.015)" fill="#f2f2f2"/>
    <rect id="Rectangle_118" data-name="Rectangle 118" width="5.058" height="1.012" transform="translate(306.903 890.443)" fill="#ccc"/>
    <rect id="Rectangle_119" data-name="Rectangle 119" width="5.058" height="1.012" transform="translate(306.903 898.284)" fill="#ccc"/>
    <path id="Path_372" data-name="Path 372" d="M401.342,227.695h-3.035a1.139,1.139,0,0,1-1.138-1.138V214.164a1.139,1.139,0,0,1,1.138-1.138h3.035a1.139,1.139,0,0,1,1.138,1.138v12.393A1.139,1.139,0,0,1,401.342,227.695Z" transform="translate(-82.805 675.015)" fill="#f2f2f2"/>
    <rect id="Rectangle_120" data-name="Rectangle 120" width="5.058" height="1.012" transform="translate(314.491 890.443)" fill="#ccc"/>
    <rect id="Rectangle_121" data-name="Rectangle 121" width="5.058" height="1.012" transform="translate(314.491 898.284)" fill="#ccc"/>
    <path id="Path_373" data-name="Path 373" d="M417.342,308.695h-3.035a1.139,1.139,0,0,1-1.138-1.138V295.164a1.139,1.139,0,0,1,1.138-1.138h3.035a1.139,1.139,0,0,1,1.138,1.138v12.393A1.139,1.139,0,0,1,417.342,308.695Z" transform="translate(-94.758 614.501)" fill="#f2f2f2"/>
    <rect id="Rectangle_122" data-name="Rectangle 122" width="5.058" height="1.012" transform="translate(318.537 910.929)" fill="#ccc"/>
    <rect id="Rectangle_123" data-name="Rectangle 123" width="5.058" height="1.012" transform="translate(318.537 918.769)" fill="#ccc"/>
    <path id="Path_374" data-name="Path 374" d="M447.342,308.695h-3.035a1.139,1.139,0,0,1-1.138-1.138V295.164a1.139,1.139,0,0,1,1.138-1.138h3.035a1.139,1.139,0,0,1,1.138,1.138v12.393A1.139,1.139,0,0,1,447.342,308.695Z" transform="translate(-117.171 614.501)" fill="#f2f2f2"/>
    <rect id="Rectangle_124" data-name="Rectangle 124" width="5.058" height="1.012" transform="translate(326.125 910.929)" fill="#ccc"/>
    <rect id="Rectangle_125" data-name="Rectangle 125" width="5.058" height="1.012" transform="translate(326.125 918.769)" fill="#ccc"/>
    <path id="Path_375" data-name="Path 375" d="M477.342,308.695h-3.035a1.139,1.139,0,0,1-1.138-1.138V295.164a1.139,1.139,0,0,1,1.138-1.138h3.035a1.139,1.139,0,0,1,1.138,1.138v12.393A1.139,1.139,0,0,1,477.342,308.695Z" transform="translate(-139.584 614.501)" fill="#f2f2f2"/>
    <rect id="Rectangle_126" data-name="Rectangle 126" width="5.058" height="1.012" transform="translate(333.712 910.929)" fill="#ccc"/>
    <rect id="Rectangle_127" data-name="Rectangle 127" width="5.058" height="1.012" transform="translate(333.712 918.769)" fill="#ccc"/>
    <path id="Path_376" data-name="Path 376" d="M338.342,389.695h-3.035a1.139,1.139,0,0,1-1.138-1.138V376.164a1.139,1.139,0,0,1,1.138-1.138h3.035a1.139,1.139,0,0,1,1.138,1.138v12.393A1.139,1.139,0,0,1,338.342,389.695Z" transform="translate(-35.738 553.986)" fill="#f2f2f2"/>
    <rect id="Rectangle_128" data-name="Rectangle 128" width="5.058" height="1.012" transform="translate(298.557 931.415)" fill="#ccc"/>
    <rect id="Rectangle_129" data-name="Rectangle 129" width="5.058" height="1.012" transform="translate(298.557 939.255)" fill="#ccc"/>
    <path id="Path_377" data-name="Path 377" d="M368.342,389.695h-3.035a1.139,1.139,0,0,1-1.138-1.138V376.164a1.139,1.139,0,0,1,1.138-1.138h3.035a1.139,1.139,0,0,1,1.138,1.138v12.393A1.139,1.139,0,0,1,368.342,389.695Z" transform="translate(-58.151 553.986)" fill="#f2f2f2"/>
    <rect id="Rectangle_130" data-name="Rectangle 130" width="5.058" height="1.012" transform="translate(306.145 931.415)" fill="#ccc"/>
    <rect id="Rectangle_131" data-name="Rectangle 131" width="5.058" height="1.012" transform="translate(306.145 939.255)" fill="#ccc"/>
    <path id="Path_378" data-name="Path 378" d="M398.342,389.695h-3.035a1.139,1.139,0,0,1-1.138-1.138V376.164a1.139,1.139,0,0,1,1.138-1.138h3.035a1.139,1.139,0,0,1,1.138,1.138v12.393A1.139,1.139,0,0,1,398.342,389.695Z" transform="translate(-80.563 553.986)" fill="#f2f2f2"/>
    <rect id="Rectangle_132" data-name="Rectangle 132" width="5.058" height="1.012" transform="translate(313.732 931.415)" fill="#ccc"/>
    <rect id="Rectangle_133" data-name="Rectangle 133" width="5.058" height="1.012" transform="translate(313.732 939.255)" fill="#ccc"/>
    <path id="Path_379" data-name="Path 379" d="M431.342,227.695h-3.035a1.139,1.139,0,0,1-1.138-1.138V214.164a1.139,1.139,0,0,1,1.138-1.138h3.035a1.139,1.139,0,0,1,1.138,1.138v12.393A1.139,1.139,0,0,1,431.342,227.695Z" transform="translate(-105.218 675.015)" fill="#f2f2f2"/>
    <rect id="Rectangle_134" data-name="Rectangle 134" width="5.058" height="1.012" transform="translate(322.078 890.443)" fill="#ccc"/>
    <rect id="Rectangle_135" data-name="Rectangle 135" width="5.058" height="1.012" transform="translate(322.078 898.284)" fill="#ccc"/>
    <path id="Path_380" data-name="Path 380" d="M461.342,227.695h-3.035a1.139,1.139,0,0,1-1.138-1.138V214.164a1.139,1.139,0,0,1,1.138-1.138h3.035a1.139,1.139,0,0,1,1.138,1.138v12.393A1.139,1.139,0,0,1,461.342,227.695Z" transform="translate(-127.63 675.015)" fill="#f2f2f2"/>
    <rect id="Rectangle_136" data-name="Rectangle 136" width="5.058" height="1.012" transform="translate(329.665 890.443)" fill="#ccc"/>
    <rect id="Rectangle_137" data-name="Rectangle 137" width="5.058" height="1.012" transform="translate(329.665 898.284)" fill="#ccc"/>
    <path id="Path_381" data-name="Path 381" d="M491.342,227.695h-3.035a1.139,1.139,0,0,1-1.138-1.138V214.164a1.139,1.139,0,0,1,1.138-1.138h3.035a1.139,1.139,0,0,1,1.138,1.138v12.393A1.139,1.139,0,0,1,491.342,227.695Z" transform="translate(-150.043 675.015)" fill="#f2f2f2"/>
    <rect id="Rectangle_138" data-name="Rectangle 138" width="5.058" height="1.012" transform="translate(337.253 890.443)" fill="#ccc"/>
    <rect id="Rectangle_139" data-name="Rectangle 139" width="5.058" height="1.012" transform="translate(337.253 898.284)" fill="#ccc"/>
    <path id="Path_382" data-name="Path 382" d="M521.342,227.695h-3.035a1.139,1.139,0,0,1-1.138-1.138V214.164a1.139,1.139,0,0,1,1.138-1.138h3.035a1.139,1.139,0,0,1,1.138,1.138v12.393A1.139,1.139,0,0,1,521.342,227.695Z" transform="translate(-172.455 675.015)" fill="#f2f2f2"/>
    <rect id="Rectangle_140" data-name="Rectangle 140" width="5.058" height="1.012" transform="translate(344.84 890.443)" fill="#ccc"/>
    <rect id="Rectangle_141" data-name="Rectangle 141" width="5.058" height="1.012" transform="translate(344.84 898.284)" fill="#ccc"/>
    <path id="Path_383" data-name="Path 383" d="M364.942,271.032h-72.08a.253.253,0,0,1,0-.506h72.08a.253.253,0,0,1,0,.506Z" transform="translate(-4.69 632.057)" fill="#ccc"/>
    <path id="Path_384" data-name="Path 384" d="M364.942,352.032h-72.08a.253.253,0,0,1,0-.506h72.08a.253.253,0,0,1,0,.506Z" transform="translate(-4.69 571.543)" fill="#ccc"/>
    <path id="Path_385" data-name="Path 385" d="M364.942,433.032h-72.08a.253.253,0,0,1,0-.506h72.08a.253.253,0,0,1,0,.506Z" transform="translate(-4.69 511.029)" fill="#ccc"/>
    <path id="Path_386" data-name="Path 386" d="M464.61,581.049c0-1.956-7.36-3.541-16.439-3.541s-16.439,1.585-16.439,3.541c0,1.253,3.026,2.354,7.587,2.983v19.4a1.644,1.644,0,0,0,3.288,0v-19.05c1.738.135,3.611.208,5.564.208s3.826-.074,5.564-.208v19.05a1.644,1.644,0,1,0,3.288,0v-19.4C461.585,583.4,464.61,582.3,464.61,581.049Z" transform="translate(-108.626 402.714)" fill="#ccc"/>
    <path id="Path_387" data-name="Path 387" d="M319.561,425.578h3.1l1.475-11.96h-4.576Z" transform="translate(33.259 579.031)" fill="#a0616a"/>
    <path id="Path_388" data-name="Path 388" d="M0,0H9.745V3.765H3.765A3.765,3.765,0,0,1,0,0H0Z" transform="translate(361.901 1007.488) rotate(179.997)" fill="#141414"/>
    <path id="Path_389" data-name="Path 389" d="M328.123,416.309l2.958-.928-2.173-11.853-4.366,1.37Z" transform="translate(29.538 586.569)" fill="#a0616a"/>
    <path id="Path_390" data-name="Path 390" d="M0,0H9.745V3.765H3.765A3.765,3.765,0,0,1,0,0H0Z" transform="translate(367.187 1002.907) rotate(162.577)" fill="#141414"/>
    <path id="Path_391" data-name="Path 391" d="M494.2,573.624l-5.672-14.889c-1.273.3-11.944,2.66-15.518-1.145-1.225-1.3-1.464-3.194-.71-5.617l2.086-2.621.065,0c.789.042,19.331,1.081,20.6,6.674,1.072,4.715,3.029,13.507,3.6,16.089a1.142,1.142,0,0,1-.712,1.311l-2.281.855a1.128,1.128,0,0,1-.4.072,1.141,1.141,0,0,1-1.066-.733Z" transform="translate(-138.612 423.749)" fill="#141414"/>
    <path id="Path_392" data-name="Path 392" d="M481.2,580.624l-5.672-14.889c-1.273.3-11.944,2.66-15.518-1.145-1.225-1.3-1.464-3.194-.71-5.617l2.086-2.621.065,0c.789.042,19.331,1.081,20.6,6.674,1.072,4.715,3.029,13.507,3.6,16.089a1.142,1.142,0,0,1-.712,1.311l-2.281.855a1.13,1.13,0,0,1-.4.072,1.141,1.141,0,0,1-1.066-.733Z" transform="translate(-128.9 418.519)" fill="#141414"/>
    <path id="Path_393" data-name="Path 393" d="M522.636,508.1a2.663,2.663,0,0,0-.224.354l-12.474,1.314-1.8-2.462-4.07,2.224L507.6,515.5l15.3-3.9a2.655,2.655,0,1,0-.262-3.5Z" transform="translate(-162.672 455.355)" fill="#a0616a"/>
    <path id="Path_394" data-name="Path 394" d="M455.943,497.552a1.14,1.14,0,0,1-.46-1.1c.7-4.639-.106-11.285-.909-16.043a6.271,6.271,0,0,1,6.97-7.274,20.208,20.208,0,0,1,2.507.494h0a6.221,6.221,0,0,1,4.7,6.188,69.728,69.728,0,0,0,1.219,12.57,1.143,1.143,0,0,1-.211.888,1.111,1.111,0,0,1-.783.443c-4.5.46-9.361,2.656-11.855,3.924a1.138,1.138,0,0,1-.518.127A1.12,1.12,0,0,1,455.943,497.552Z" transform="translate(-125.625 480.727)" fill="#038d08"/>
    <path id="Path_395" data-name="Path 395" d="M498.344,491.577a1.131,1.131,0,0,1-.626-.606l-2.512-5.8a2.908,2.908,0,1,1,5.338-2.311l2.512,5.8a1.14,1.14,0,0,1-.592,1.5l-3.249,1.407a1.13,1.13,0,0,1-.871.014Z" transform="translate(-155.869 474.737)" fill="#038d08"/>
    <path id="Path_396" data-name="Path 396" d="M475.636,506.1a2.663,2.663,0,0,0-.224.354l-12.474,1.314-1.8-2.462-4.069,2.224L460.6,513.5l15.3-3.9a2.655,2.655,0,1,0-.262-3.5Z" transform="translate(-127.559 456.849)" fill="#a0616a"/>
    <path id="Path_397" data-name="Path 397" d="M451.344,492.577a1.131,1.131,0,0,1-.626-.606l-2.512-5.8a2.908,2.908,0,1,1,5.338-2.311l2.512,5.8a1.14,1.14,0,0,1-.592,1.5l-3.249,1.407a1.13,1.13,0,0,1-.871.014Z" transform="translate(-120.755 473.99)" fill="#038d08"/>
    <circle id="Ellipse_41" data-name="Ellipse 41" cx="6.212" cy="6.212" r="6.212" transform="translate(329.245 939.465)" fill="#a0616a"/>
    <path id="Path_398" data-name="Path 398" d="M453.987,419.64a.54.54,0,0,1,.469-.713,1.247,1.247,0,0,1,.879.434,3.5,3.5,0,0,0,.777.667.668.668,0,0,0,.879-.159,1.223,1.223,0,0,0-.047-.949,9.334,9.334,0,0,1-.412-2.471,4.351,4.351,0,0,1,.622-2.642,3.5,3.5,0,0,1,3-1.274,20.133,20.133,0,0,1,3.366.6,1.13,1.13,0,0,0,1.1-.185,1.419,1.419,0,0,0,.057-1.266,8.791,8.791,0,0,0-1.332-3.175,4.78,4.78,0,0,0-3.05-1.717,7.319,7.319,0,0,0-3.4.387,9.129,9.129,0,0,0-4.472,3.116A7.394,7.394,0,0,0,451,415.751a6.744,6.744,0,0,0,2.5,4.263Z" transform="translate(-122.971 530.3)" fill="#141414"/>
    <path id="Path_399" data-name="Path 399" d="M368.115,479.865a30.866,30.866,0,0,1,2.555-9.741q.577-1.288,1.269-2.519a.188.188,0,0,0-.325-.19,31.292,31.292,0,0,0-3.482,9.606q-.261,1.412-.393,2.844c-.022.241.354.239.376,0Z" transform="translate(-60.817 485.029)" fill="#3f3d56"/>
    <circle id="Ellipse_42" data-name="Ellipse 42" cx="2.381" cy="2.381" r="2.381" transform="translate(309.651 948.475)" fill="#038d08"/>
    <path id="Path_400" data-name="Path 400" d="M369.469,493.124a20.024,20.024,0,0,1,1.657-6.32q.374-.836.823-1.634a.122.122,0,0,0-.211-.123,20.3,20.3,0,0,0-2.259,6.232q-.17.916-.255,1.845C369.21,493.281,369.454,493.28,369.469,493.124Z" transform="translate(-61.927 471.833)" fill="#3f3d56"/>
    <circle id="Ellipse_43" data-name="Ellipse 43" cx="1.545" cy="1.545" r="1.545" transform="translate(309.068 954.305)" fill="#038d08"/>
    <path id="Path_401" data-name="Path 401" d="M359.584,493.243a20.024,20.024,0,0,1-2.58-6q-.219-.889-.356-1.8a.122.122,0,0,0-.242.032,20.3,20.3,0,0,0,2.052,6.3q.43.827.934,1.612C359.477,493.525,359.668,493.374,359.584,493.243Z" transform="translate(-52.351 471.569)" fill="#3f3d56"/>
    <circle id="Ellipse_44" data-name="Ellipse 44" cx="1.545" cy="1.545" r="1.545" transform="translate(302.509 954.197)" fill="#038d08"/>
    <path id="Path_402" data-name="Path 402" d="M350.224,509.652v-3.035a1.139,1.139,0,0,1,1.138-1.138h7.081a1.139,1.139,0,0,1,1.138,1.138v3.035a1.139,1.139,0,0,1-1.138,1.138h-7.082A1.139,1.139,0,0,1,350.224,509.652Z" transform="translate(-47.733 456.526)" fill="#ccc"/>
    <rect id="Rectangle_142" data-name="Rectangle 142" width="21.75" height="1.77" rx="0.885" transform="translate(345.109 965.3)" fill="#ccc"/>
    <path id="Path_403" data-name="Path 403" d="M582.885,479.188H560.376a1.646,1.646,0,0,1-1.644-1.644V465.152a1.646,1.646,0,0,1,1.644-1.644h22.509a1.646,1.646,0,0,1,1.644,1.644v12.393A1.646,1.646,0,0,1,582.885,479.188Z" transform="translate(-203.507 487.882)" fill="#ccc"/>
    <circle id="Ellipse_45" data-name="Ellipse 45" cx="1.517" cy="1.517" r="1.517" transform="translate(366.606 957.713)" fill="#fff"/>
    <path id="Path_404" data-name="Path 404" d="M783.61,581.049c0-1.956-7.36-3.541-16.439-3.541s-16.439,1.585-16.439,3.541c0,1.253,3.026,2.354,7.587,2.983v19.4a1.644,1.644,0,0,0,3.288,0v-19.05c1.738.135,3.611.208,5.564.208s3.826-.074,5.564-.208v19.05a1.644,1.644,0,0,0,3.288,0v-19.4C780.585,583.4,783.61,582.3,783.61,581.049Z" transform="translate(-346.948 402.714)" fill="#ccc"/>
    <circle id="Ellipse_46" data-name="Ellipse 46" cx="7.081" cy="7.081" r="7.081" transform="translate(414.959 937.191)" fill="#141414"/>
    <path id="Path_405" data-name="Path 405" d="M510.061,426.578h-3.1l-1.475-11.96h4.576Z" transform="translate(-105.642 578.284)" fill="#ffb8b8"/>
    <path id="Path_406" data-name="Path 406" d="M491.438,458.4h5.98v3.765h-9.745A3.765,3.765,0,0,1,491.438,458.4Z" transform="translate(-92.335 545.573)" fill="#141414"/>
    <path id="Path_407" data-name="Path 407" d="M495.7,417.309l-2.958-.928,2.173-11.853,4.366,1.37Z" transform="translate(-96.122 585.822)" fill="#ffb8b8"/>
    <path id="Path_408" data-name="Path 408" d="M3.765,0h5.98V3.765H0A3.765,3.765,0,0,1,3.765,0Z" transform="translate(391.179 999.567) rotate(17.423)" fill="#141414"/>
    <path id="Path_409" data-name="Path 409" d="M728,575.358a1.128,1.128,0,0,1-.4-.072l-2.281-.855a1.142,1.142,0,0,1-.712-1.311c.574-2.582,2.532-11.374,3.6-16.089,1.271-5.593,19.814-6.633,20.6-6.674l.065,0,2.086,2.621c.754,2.423.515,4.312-.71,5.617-3.574,3.806-14.246,1.444-15.518,1.145l-5.672,14.889A1.142,1.142,0,0,1,728,575.358Z" transform="translate(-327.411 423.001)" fill="#141414"/>
    <path id="Path_410" data-name="Path 410" d="M741,582.358a1.13,1.13,0,0,1-.4-.072l-2.281-.855a1.142,1.142,0,0,1-.712-1.311c.574-2.582,2.532-11.374,3.6-16.089,1.271-5.593,19.814-6.633,20.6-6.674l.065,0,2.086,2.621c.754,2.423.515,4.312-.71,5.617-3.574,3.805-14.246,1.444-15.518,1.145l-5.672,14.889A1.141,1.141,0,0,1,741,582.358Z" transform="translate(-337.123 417.772)" fill="#141414"/>
    <path id="Path_411" data-name="Path 411" d="M710.906,509.1a2.657,2.657,0,0,1,.224.354l12.474,1.314,1.8-2.462,4.07,2.224-3.527,5.974-15.3-3.9a2.655,2.655,0,1,1,.262-3.5Z" transform="translate(-313.631 454.607)" fill="#ffb8b8"/>
    <path id="Path_412" data-name="Path 412" d="M800.069,498.769a1.139,1.139,0,0,1-.518-.127c-2.494-1.268-7.351-3.465-11.855-3.924a1.111,1.111,0,0,1-.783-.443,1.142,1.142,0,0,1-.211-.888,69.744,69.744,0,0,0,1.219-12.57,6.221,6.221,0,0,1,4.7-6.188h0a20.2,20.2,0,0,1,2.507-.494,6.271,6.271,0,0,1,6.97,7.274c-.8,4.758-1.613,11.4-.909,16.043a1.14,1.14,0,0,1-.46,1.1A1.12,1.12,0,0,1,800.069,498.769Z" transform="translate(-373.807 479.98)" fill="#038d08"/>
    <path id="Path_413" data-name="Path 413" d="M779.527,492.657a1.137,1.137,0,0,1-.452-.094l-3.249-1.407a1.139,1.139,0,0,1-.592-1.5l2.512-5.8a2.908,2.908,0,0,1,5.338,2.311l-2.512,5.8a1.141,1.141,0,0,1-1.045.687Z" transform="translate(-365.183 473.99)" fill="#038d08"/>
    <circle id="Ellipse_47" data-name="Ellipse 47" cx="6.212" cy="6.212" r="6.212" transform="translate(415.571 939.718)" fill="#ffb8b8"/>
    <path id="Path_414" data-name="Path 414" d="M796.893,417.178a22.405,22.405,0,0,0,9.693,3.194l-1.022-1.224a7.508,7.508,0,0,0,2.319.461,2.54,2.54,0,0,0,2.07-.969,2.363,2.363,0,0,0,.158-2.183,4.474,4.474,0,0,0-1.408-1.76,8.381,8.381,0,0,0-7.8-1.394,5.01,5.01,0,0,0-2.33,1.495c-.589.726-1.723,1.374-1.421,2.259Z" transform="translate(-381.434 525.7)" fill="#141414"/>
    <path id="Path_415" data-name="Path 415" d="M759.412,394.434a19.091,19.091,0,0,0-6.946-4.491,9.772,9.772,0,0,0-5.262-.653,5.015,5.015,0,0,0-3.905,3.29,6.209,6.209,0,0,0,.635,4.25c.621,1.326,1.451,2.555,1.954,3.93a8.97,8.97,0,0,1-9.026,12.029,44.657,44.657,0,0,1,5,1.473c1.686.431,3.676.4,4.928-.806,1.326-1.278,1.352-3.355,1.288-5.2l-.286-8.206a10.426,10.426,0,0,1,.413-4.136,3.553,3.553,0,0,1,3.094-2.43,5.076,5.076,0,0,1,2.842,1.282,5.807,5.807,0,0,0,2.8,1.4c1.054.094,2.257-.686,2.178-1.741" transform="translate(-336.586 543.431)" fill="#141414"/>
    <path id="Path_416" data-name="Path 416" d="M482.2,281.087l14.3.338,2.072,15.29-13.209.3Z" transform="translate(-88.244 678.044)" fill="#e6e6e6"/>
    <path id="Path_417" data-name="Path 417" d="M757.906,507.1a2.657,2.657,0,0,1,.224.354l12.474,1.314,1.8-2.462,4.07,2.224-3.527,5.974-15.3-3.9a2.654,2.654,0,1,1,.262-3.5Z" transform="translate(-348.744 456.102)" fill="#ffb8b8"/>
    <path id="Path_418" data-name="Path 418" d="M826.527,493.657a1.137,1.137,0,0,1-.452-.094l-3.249-1.407a1.14,1.14,0,0,1-.592-1.5l2.512-5.8a2.908,2.908,0,0,1,5.338,2.311l-2.512,5.8A1.141,1.141,0,0,1,826.527,493.657Z" transform="translate(-400.296 473.243)" fill="#038d08"/>
    <path id="Path_419" data-name="Path 419" d="M421.034,524.508H320.376a1.644,1.644,0,1,0,0,3.288h2.908v35.787a1.644,1.644,0,0,0,3.288,0V530.954l18.43,33.4a1.644,1.644,0,1,0,2.847-1.644L328.584,527.8h88.025v.021l-19.254,34.9a1.644,1.644,0,0,0,2.847,1.644l16.407-29.737v28.961a1.644,1.644,0,1,0,3.288,0v-34.92l.478-.867h.66a1.644,1.644,0,1,0,0-3.288Z" transform="translate(-24.205 442.31)" fill="#141414"/>
    <path id="Path_420" data-name="Path 420" d="M416.686,685.195H229.963a.3.3,0,1,1,0-.6H416.686a.3.3,0,0,1,0,.6Z" transform="translate(42.338 322.712)" fill="#3f3d56"/>
  </g>
</svg>
