<svg id="Group_39" data-name="Group 39" xmlns="http://www.w3.org/2000/svg" width="123.579" height="120" viewBox="0 0 123.579 120">
  <path id="Path_77" data-name="Path 77" d="M857.177,141.121v-9.49a21.833,21.833,0,0,1-14.1-10.492h0a4.147,4.147,0,0,1-2.479.816h-7.536A31.125,31.125,0,0,0,857.177,141.121Z" transform="translate(-733.599 -116.893)" fill="#e6e6e6"/>
  <path id="Path_78" data-name="Path 78" d="M906.561,110.975v-9.117a5.076,5.076,0,0,0-5.078-5.078h-7.316v.88a4.169,4.169,0,0,1-1.29,3.021,21.319,21.319,0,0,0,13.684,10.294Z" transform="translate(-782.983 -96.78)" fill="#e6e6e6"/>
  <path id="Path_79" data-name="Path 79" d="M670.8,101.713h-4.712a4.129,4.129,0,0,1-4.18-4.075V96.78h-6.865a5.014,5.014,0,0,0-5.078,4.949V211.835a4.876,4.876,0,0,0,1.486,3.5,5.138,5.138,0,0,0,3.592,1.446h45.873a5.079,5.079,0,0,0,.626-.037,5,5,0,0,0,4.452-4.907V130.78A41.468,41.468,0,0,1,670.8,101.713Z" transform="translate(-582.416 -96.78)" fill="#e6e6e6"/>
  <path id="Path_80" data-name="Path 80" d="M782.608,125.82h-9.961a41.225,41.225,0,0,0,34.643,29.3v-9.591A31.669,31.669,0,0,1,782.608,125.82Z" transform="translate(-683.711 -120.758)" fill="#e6e6e6"/>
  <path id="Path_81" data-name="Path 81" d="M672.026,338.591a.7.7,0,0,0-.7.7v11.675a.7.7,0,0,0,.7.7h47.067a.7.7,0,0,0,.7-.7V339.288a.7.7,0,0,0-.7-.7Z" transform="translate(-600.055 -297.644)" fill="#fff"/>
  <circle id="Ellipse_18" data-name="Ellipse 18" cx="3.661" cy="3.661" r="3.661" transform="translate(76.433 43.803)" fill="#141414"/>
  <path id="Path_82" data-name="Path 82" d="M755.939,362.079a.61.61,0,1,0,0,1.22H784.7a.61.61,0,0,0,0-1.22Z" transform="translate(-669.412 -317.026)" fill="#e6e6e6"/>
  <path id="Path_83" data-name="Path 83" d="M755.939,383.079a.61.61,0,0,0,0,1.22H784.7a.61.61,0,0,0,0-1.22Z" transform="translate(-669.412 -334.459)" fill="#e6e6e6"/>
  <path id="Path_84" data-name="Path 84" d="M672.026,453.591a.7.7,0,0,0-.7.7v11.675a.7.7,0,0,0,.7.7h47.067a.7.7,0,0,0,.7-.7V454.288a.7.7,0,0,0-.7-.7Z" transform="translate(-600.055 -393.17)" fill="#fff"/>
  <circle id="Ellipse_19" data-name="Ellipse 19" cx="3.661" cy="3.661" r="3.661" transform="translate(76.433 63.306)" fill="#141414"/>
  <path id="Path_85" data-name="Path 85" d="M755.939,477.079a.61.61,0,0,0,0,1.22H784.7a.61.61,0,0,0,0-1.22Z" transform="translate(-669.412 -412.496)" fill="#e6e6e6"/>
  <path id="Path_86" data-name="Path 86" d="M755.939,498.079a.61.61,0,0,0,0,1.22H784.7a.61.61,0,0,0,0-1.22Z" transform="translate(-669.412 -429.93)" fill="#e6e6e6"/>
  <path id="Path_87" data-name="Path 87" d="M672.026,568.591a.7.7,0,0,0-.7.7v11.675a.7.7,0,0,0,.7.7h47.067a.7.7,0,0,0,.7-.7V569.288a.7.7,0,0,0-.7-.7Z" transform="translate(-600.055 -488.696)" fill="#fff"/>
  <circle id="Ellipse_20" data-name="Ellipse 20" cx="3.661" cy="3.661" r="3.661" transform="translate(76.433 82.808)" fill="#141414"/>
  <path id="Path_88" data-name="Path 88" d="M755.939,592.079a.61.61,0,0,0,0,1.22H784.7a.61.61,0,0,0,0-1.22Z" transform="translate(-669.412 -507.967)" fill="#e6e6e6"/>
  <path id="Path_89" data-name="Path 89" d="M755.939,613.079a.61.61,0,0,0,0,1.22H784.7a.61.61,0,0,0,0-1.22Z" transform="translate(-669.412 -525.401)" fill="#e6e6e6"/>
  <circle id="Ellipse_21" data-name="Ellipse 21" cx="8.716" cy="8.716" r="8.716" transform="translate(86.788 98.359)" fill="#038d08"/>
  <path id="Path_90" data-name="Path 90" d="M562.164,610.006h-4.707V605.3h-1.046v4.707h-4.707v1.046h4.707v4.707h1.046v-4.707h4.707Z" transform="translate(-460.298 -502.93)" fill="#fff"/>
  <path id="Path_91" data-name="Path 91" d="M303.688,744.677l.279,2.05s7.087,2.422,5.7,3.532-12.582,1.162-12.815.53-.285-3.364.347-3.6,1.8-2.578,1.8-2.578Z" transform="translate(-284.827 -634.83)" fill="#141414"/>
  <path id="Path_92" data-name="Path 92" d="M86.826,406.744l-4.444,27.614L80.32,450.7l-6.666-.317,2.222-27.138,5.713-15.394Z" transform="translate(-60.814 -338.988)" fill="#141414"/>
  <path id="Path_93" data-name="Path 93" d="M393.878,503.524l.635,2.539s2.381,6.665.317,6.348-3.015-6.031-3.015-6.031l-.317-2.063Z" transform="translate(-364.441 -434.573)" fill="#ffb6b6"/>
  <path id="Path_94" data-name="Path 94" d="M286.8,464.236l4.92,21.742,6.031,25.551,5.713-2.063-4.126-20.631s.635-4.444,0-6.666-.635-11.9-.635-11.9l4.761-4.126v-7.931l-12.538-1.115Z" transform="translate(-276.659 -397.432)" fill="#141414"/>
  <path id="Path_95" data-name="Path 95" d="M349.636,754.608l.307,2.046s7.119,2.325,5.75,3.453-12.565,1.334-12.807.706-.331-3.36.3-3.6,1.764-2.6,1.764-2.6Z" transform="translate(-323.825 -643.082)" fill="#141414"/>
  <circle id="Ellipse_22" data-name="Ellipse 22" cx="4.761" cy="4.761" r="4.761" transform="translate(23.45 28.435)" fill="#ffb6b6"/>
  <path id="Path_96" data-name="Path 96" d="M125.025,191.435l-5.4,2.857,2.063,6.666h2.222l1.27-1.587-.476-.952,3.809-2.857Z" transform="translate(-99.795 -158.988)" fill="#ffb6b6"/>
  <path id="Path_97" data-name="Path 97" d="M91.332,210.334l-.079-2.618-2.168-4.155-8.148,3.362,2.857,25.869,9.84.635-.317-10.95,1.587-11.9-.555-3.412Z" transform="translate(-66.828 -169.273)" fill="#d0cde1"/>
  <path id="Path_98" data-name="Path 98" d="M297.33,321.647l-3.822-19.082s-8.716,1.783-9.509,3.053-1.9,26.979-1.9,26.979-1.587,5.078,0,5.078,7.935-4.6,8.253-2.857.635,2.7,2.857,2.222,3.65-4.285,3.65-4.285-.476,7.618.476,7.618,2.381.476,2.381-.317V323.075l3.809-13.807-3.769-3.461-1.627,1.24Z" transform="translate(-272.191 -268.018)" fill="#141414"/>
  <path id="Path_99" data-name="Path 99" d="M385.885,341.791l1.111-.317s.317,2.222.317,2.7-.952,9.84-.952,9.84l.793,16.029-3.65,1.587-1.111-18.092Z" transform="translate(-356.857 -300.262)" fill="#141414"/>
  <path id="Path_100" data-name="Path 100" d="M368.105,260.624s-1.9-5.4,2.381-6.665,6.189.159,6.824.952c.665.831,3.809,4.92,1.9,5.872s-2.777-.238-2.777-.714-2.857,0-4.126.476a1.9,1.9,0,0,1-2.06-.4s-.321-1.508-1.273-.714S368.105,260.624,368.105,260.624Z" transform="translate(-344.661 -226.886)" fill="#2f2e41"/>
  <path id="Path_101" data-name="Path 101" d="M397.56,524.7a.7.7,0,0,0-.938-.3l-10.4,5.313a.7.7,0,0,0-.3.938l21.417,41.912a.7.7,0,0,0,.938.3l10.4-5.313a.7.7,0,0,0,.3-.938Z" transform="translate(-360.118 -452.936)" fill="#e6e6e6"/>
  <circle id="Ellipse_23" data-name="Ellipse 23" cx="3.661" cy="3.661" r="3.661" transform="translate(30.853 77.49)" fill="#038d08"/>
  <path id="Path_102" data-name="Path 102" d="M464.663,609.964a.61.61,0,0,0-1.087.555l13.088,25.613a.61.61,0,1,0,1.087-.555Z" transform="translate(-424.661 -523.378)" fill="#fff"/>
  <path id="Path_103" data-name="Path 103" d="M445.963,619.518a.61.61,0,0,0-1.087.555l13.088,25.613a.61.61,0,1,0,1.087-.555Z" transform="translate(-409.054 -531.267)" fill="#fff"/>
  <path id="Path_104" data-name="Path 104" d="M85.865,532.834,90.4,553.578l.386-1.787Z" transform="translate(-70.897 -443.098)" opacity="0.2"/>
  <path id="Path_105" data-name="Path 105" d="M248.918,509.517a.7.7,0,0,0-.579-.8l-11.531-1.83a.7.7,0,0,0-.8.579l-7.377,46.485a.7.7,0,0,0,.579.8l11.531,1.83a.7.7,0,0,0,.8-.579Z" transform="translate(-228.624 -438.539)" fill="#e6e6e6"/>
  <circle id="Ellipse_24" data-name="Ellipse 24" cx="3.661" cy="3.661" r="3.661" transform="translate(9.223 73.416)" fill="#038d08"/>
  <path id="Path_106" data-name="Path 106" d="M281.659,597.448a.61.61,0,0,0-1.205-.191l-4.508,28.408a.61.61,0,1,0,1.205.191Z" transform="translate(-267.69 -512.736)" fill="#fff"/>
  <path id="Path_107" data-name="Path 107" d="M260.919,594.157a.61.61,0,1,0-1.205-.191l-4.508,28.408a.61.61,0,1,0,1.205.191Z" transform="translate(-250.566 -510.019)" fill="#fff"/>
  <path id="Path_108" data-name="Path 108" d="M304.878,480.524l.635,2.539s2.381,6.666.317,6.348-3.015-6.031-3.015-6.031l-.317-2.063Z" transform="translate(-289.619 -415.472)" fill="#ffb6b6"/>
  <path id="Path_109" data-name="Path 109" d="M39.594,223.932l-2.222-.178-6.507,18.568,7.459,12.855,5.237-3.968-5.555-9.046,4.285-11.585Z" transform="translate(-25.485 -186.087)" fill="#141414"/>
</svg>
