<svg xmlns="http://www.w3.org/2000/svg" width="12.456" height="12.456" viewBox="0 0 12.456 12.456">
  <path id="Icon_awesome-linkedin-in" data-name="Icon awesome-linkedin-in" d="M2.788,12.457H.206V4.141H2.788ZM1.5,3.006a1.5,1.5,0,1,1,1.5-1.51A1.508,1.508,0,0,1,1.5,3.006Zm10.958,9.451H9.877V8.409c0-.965-.019-2.2-1.343-2.2-1.343,0-1.548,1.048-1.548,2.133v4.118H4.406V4.141H6.883V5.275h.036A2.714,2.714,0,0,1,9.362,3.932c2.614,0,3.094,1.721,3.094,3.957v4.568Z" transform="translate(0 -0.001)" fill="#aaa"/>
</svg>
