<svg xmlns="http://www.w3.org/2000/svg" width="159.218" height="40.543" viewBox="0 0 159.218 40.543">
  <defs>
    <style>
      .cls-1 {
        fill: #fff;
      }
    </style>
  </defs>
  <g id="Group_808" data-name="Group 808" transform="translate(-300 -19.729)">
    <g id="Group_680" data-name="Group 680" transform="translate(135.271 -394.771)">
      <g id="Group_678" data-name="Group 678" transform="translate(164.729 414.5)">
        <path id="Path_53" data-name="Path 53" class="cls-1" d="M203.839,497.52a2.99,2.99,0,0,1,1.909.621v4.773a3.257,3.257,0,0,1-1.8.434c-1.543,0-2.321-.977-2.321-2.93C201.629,498.485,202.362,497.52,203.839,497.52Z" transform="translate(-192.88 -477.836)"/>
        <path id="Path_54" data-name="Path 54" class="cls-1" d="M185,414.5a20.271,20.271,0,1,0,20.272,20.271A20.272,20.272,0,0,0,185,414.5Zm-4.185,26.853a7.817,7.817,0,0,1-2.231.977,9.985,9.985,0,0,1-2.831.41,5.372,5.372,0,0,1-4.118-1.541,5.785,5.785,0,0,1-1.453-4.142,6.167,6.167,0,0,1,1.276-4.04,4.177,4.177,0,0,1,3.409-1.553,4.126,4.126,0,0,1,2.584.744h.145V426.8h3.22Zm14.918,1.133H193.5l-2.207-5.961h-.135l-2.207,5.961h-2.219l-4.1-10.778h3.274l1.954,5.593H188l2.165-5.593h2.219l2.165,5.593h.133l1.954-5.593h3.187Z" transform="translate(-164.729 -414.5)"/>
      </g>
      <g id="Group_679" data-name="Group 679" transform="translate(210.931 425.161)">
        <path id="Path_55" data-name="Path 55" class="cls-1" d="M367.931,459.778h2.925V475.8a7.8,7.8,0,0,1-2.335,1.119,10.07,10.07,0,0,1-3.011.467,5.686,5.686,0,0,1-4.339-1.659,6.33,6.33,0,0,1-1.573-4.523,6.776,6.776,0,0,1,1.413-4.474,4.621,4.621,0,0,1,3.724-1.7,4.563,4.563,0,0,1,3.048.983h.147Zm-5.334,11.43c0,2.421,1,3.625,2.974,3.625a4.073,4.073,0,0,0,2.36-.639v-5.654a3.671,3.671,0,0,0-2.495-.909Q362.6,467.631,362.6,471.208Z" transform="translate(-359.598 -459.704)"/>
        <path id="Path_56" data-name="Path 56" class="cls-1" d="M424.938,483.526a5.514,5.514,0,0,1,1.5,3.97,5.743,5.743,0,0,1-.135,1.438h-8.075a2.941,2.941,0,0,0,3.2,2.925,4.667,4.667,0,0,0,3.22-1.315l1.389,1.868a6.41,6.41,0,0,1-4.941,1.905,5.528,5.528,0,0,1-4.3-1.721,6.33,6.33,0,0,1-1.561-4.437,6.445,6.445,0,0,1,1.573-4.437,5.322,5.322,0,0,1,4.166-1.757A5.23,5.23,0,0,1,424.938,483.526Zm-6.588,3.171h5.236a2.4,2.4,0,0,0-2.47-2.31A2.763,2.763,0,0,0,418.351,486.7Z" transform="translate(-402.039 -476.631)"/>
        <path id="Path_57" data-name="Path 57" class="cls-1" d="M475.168,483.3l-1.254,2.065a5.171,5.171,0,0,0-2.827-.823c-1.094,0-1.635.32-1.635.946a.94.94,0,0,0,.479.848,6.56,6.56,0,0,0,1.819.59,6.675,6.675,0,0,1,2.815,1.29,3.143,3.143,0,0,1,.934,2.458c0,2.347-1.647,3.7-4.658,3.7a7.268,7.268,0,0,1-4.855-1.45l1.3-2.04a6.063,6.063,0,0,0,3.552,1.057c1.217,0,1.758-.307,1.758-1.082a1.035,1.035,0,0,0-.467-.9,6.02,6.02,0,0,0-1.844-.639c-2.519-.578-3.724-1.659-3.724-3.773a3.1,3.1,0,0,1,1.155-2.519,4.834,4.834,0,0,1,3.171-.959A7.39,7.39,0,0,1,475.168,483.3Z" transform="translate(-440.763 -476.709)"/>
        <path id="Path_58" data-name="Path 58" class="cls-1" d="M515.423,459.983a1.715,1.715,0,0,1,.516,1.266,1.723,1.723,0,0,1-1.782,1.77,1.76,1.76,0,0,1-1.3-.516,1.8,1.8,0,0,1,0-2.52,1.856,1.856,0,0,1,2.569,0Zm-2.741,5.088h2.9v11.836h-2.9Z" transform="translate(-476.124 -459.467)"/>
        <path id="Path_59" data-name="Path 59" class="cls-1" d="M542.943,482.432a7.86,7.86,0,0,1,2.323,1.118v10.9a4.486,4.486,0,0,1-1.487,3.724,6.416,6.416,0,0,1-4.117,1.2,8.169,8.169,0,0,1-5.039-1.3l1.229-2.3a6.021,6.021,0,0,0,3.478,1.057c2.016,0,3.023-.7,3.023-2.618v-1.229h-.123a4.415,4.415,0,0,1-3,.959,4.593,4.593,0,0,1-3.675-1.622A6.44,6.44,0,0,1,534.168,488a6.179,6.179,0,0,1,1.536-4.412,5.6,5.6,0,0,1,4.277-1.622A9.741,9.741,0,0,1,542.943,482.432Zm-.59,2.679a3.928,3.928,0,0,0-2.31-.6,2.641,2.641,0,0,0-2.188.91,3.982,3.982,0,0,0-.737,2.556c0,2.3.934,3.453,2.79,3.453a3.417,3.417,0,0,0,2.446-.885Z" transform="translate(-492.779 -476.631)"/>
        <path id="Path_60" data-name="Path 60" class="cls-1" d="M591.769,482.393H594.6v1.192h.123a3.624,3.624,0,0,1,3.146-1.413c2.618,0,4.08,1.659,4.08,4.51v7.546H599.02v-7.043c0-1.61-.676-2.421-2.04-2.421-1.511,0-2.31,1.07-2.31,2.741v6.723h-2.9Z" transform="translate(-536.723 -476.789)"/>
        <path id="Path_61" data-name="Path 61" class="cls-1" d="M638.847,483.026h2.974l2.483,7.054h.135L647.2,483h1.942l2.741,7.079h.147l2.495-7.054h2.888l-4.474,11.86H651l-2.79-7.423h-.147l-2.8,7.423h-1.93Z" transform="translate(-572.639 -477.421)"/>
        <path id="Path_62" data-name="Path 62" class="cls-1" d="M728.856,486.168v6.563a8.011,8.011,0,0,1-5.113,1.585,6.586,6.586,0,0,1-3.773-.971,3.737,3.737,0,0,1-.2-5.727,5.338,5.338,0,0,1,3.441-1,6.633,6.633,0,0,1,2.618.479h.147v-.762c0-1.266-.824-1.893-2.483-1.88a6.708,6.708,0,0,0-3.331.872l-1.057-2.212a9.342,9.342,0,0,1,4.756-1.155C727.1,481.965,728.856,483.513,728.856,486.168Zm-7.423,4.228c0,1.02.762,1.536,2.286,1.536a3.87,3.87,0,0,0,2.262-.6v-2.04a7.02,7.02,0,0,0-2.262-.43C722.195,488.86,721.433,489.376,721.433,490.4Z" transform="translate(-633.431 -476.631)"/>
        <path id="Path_63" data-name="Path 63" class="cls-1" d="M772.349,459.778h2.9v17.366h-2.9Z" transform="translate(-674.488 -459.704)"/>
        <path id="Path_64" data-name="Path 64" class="cls-1" d="M803.051,486.168v6.563a8.01,8.01,0,0,1-5.113,1.585,6.586,6.586,0,0,1-3.773-.971,3.737,3.737,0,0,1-.2-5.727,5.338,5.338,0,0,1,3.441-1,6.633,6.633,0,0,1,2.618.479h.147v-.762c0-1.266-.823-1.893-2.483-1.88a6.707,6.707,0,0,0-3.331.872L793.3,483.12a9.341,9.341,0,0,1,4.756-1.155C801.293,481.965,803.051,483.513,803.051,486.168Zm-7.423,4.228c0,1.02.762,1.536,2.286,1.536a3.87,3.87,0,0,0,2.261-.6v-2.04a7.019,7.019,0,0,0-2.261-.43C796.39,488.86,795.628,489.376,795.628,490.4Z" transform="translate(-690.035 -476.631)"/>
      </g>
    </g>
  </g>
</svg>
