<svg xmlns="http://www.w3.org/2000/svg" width="92" height="92" viewBox="0 0 92 92">
  <g id="Group_808" data-name="Group 808" transform="translate(-663.461 -812)">
    <g id="Group_708" data-name="Group 708" transform="translate(0 20)">
      <rect id="Rectangle_1127" data-name="Rectangle 1127" width="92" height="92" transform="translate(663.461 792)" fill="#ededed"/>
      <path id="Icon_metro-file-pdf" data-name="Icon metro-file-pdf" d="M33.71,10.264a4.936,4.936,0,0,1,1.018,1.612,4.9,4.9,0,0,1,.424,1.867V38.179a2.028,2.028,0,0,1-2.036,2.036H4.607a2.028,2.028,0,0,1-2.036-2.036V4.24A2.028,2.028,0,0,1,4.607,2.2H23.613a4.9,4.9,0,0,1,1.867.424,4.936,4.936,0,0,1,1.612,1.018ZM24.292,5.088v7.976h7.976a2.318,2.318,0,0,0-.467-.87L25.161,5.555a2.317,2.317,0,0,0-.87-.467ZM32.437,37.5V15.779H23.613a2.028,2.028,0,0,1-2.036-2.036V4.919H5.286V37.5H32.437Zm-10.9-12.579a16.14,16.14,0,0,0,1.782,1.188,21.049,21.049,0,0,1,2.482-.148q3.118,0,3.755,1.039a1.025,1.025,0,0,1,.042,1.1.061.061,0,0,1-.021.042l-.042.042v.021q-.127.806-1.506.806a8.75,8.75,0,0,1-2.439-.424,15.467,15.467,0,0,1-2.758-1.124,38.2,38.2,0,0,0-8.315,1.761q-3.245,5.557-5.133,5.557a1.234,1.234,0,0,1-.594-.148l-.509-.255q-.021-.021-.127-.106a.877.877,0,0,1-.127-.764A4.607,4.607,0,0,1,9.21,31.571a10.251,10.251,0,0,1,2.8-2.047.31.31,0,0,1,.488.127.122.122,0,0,1,.042.085q1.1-1.8,2.27-4.179A32.375,32.375,0,0,0,17.016,20a17.147,17.147,0,0,1-.647-3.383,8.248,8.248,0,0,1,.138-2.7q.233-.848.891-.848h.467a.894.894,0,0,1,.742.318,1.694,1.694,0,0,1,.191,1.442.46.46,0,0,1-.085.17.552.552,0,0,1,.021.17V15.8a27.777,27.777,0,0,1-.3,4.073,10.732,10.732,0,0,0,3.1,5.048ZM9.316,33.639q1.1-.509,2.906-3.351a12.092,12.092,0,0,0-1.856,1.782A7.05,7.05,0,0,0,9.316,33.639Zm8.442-19.515a6.307,6.307,0,0,0-.042,2.8q.021-.148.148-.933,0-.064.148-.912a.477.477,0,0,1,.085-.17.061.061,0,0,1-.021-.042.043.043,0,0,0-.011-.032.043.043,0,0,1-.011-.032,1.221,1.221,0,0,0-.276-.764.061.061,0,0,1-.021.042v.042Zm-2.63,14.021a31.113,31.113,0,0,1,6.024-1.718,3.2,3.2,0,0,1-.276-.2,3.8,3.8,0,0,1-.339-.286,11.236,11.236,0,0,1-2.694-3.733,28.346,28.346,0,0,1-1.761,4.179q-.636,1.188-.955,1.761Zm13.7-.339q-.509-.509-2.97-.509a8.023,8.023,0,0,0,2.63.594,2.057,2.057,0,0,0,.382-.021q0-.021-.042-.064Z" transform="translate(690.599 816.791)" fill="#cbcbcb"/>
    </g>
  </g>
</svg>
