<svg xmlns="http://www.w3.org/2000/svg" width="49.849" height="49.849" viewBox="0 0 49.849 49.849">
  <g id="Group_810" data-name="Group 810" transform="translate(-1485.358 -1701.588)">
    <circle id="Ellipse_4" data-name="Ellipse 4" cx="24.925" cy="24.925" r="24.925" transform="translate(1485.358 1701.588)" fill="#038d08"/>
    <g id="paper-plane" transform="translate(1498.494 1715.296)">
      <path id="Path_49" data-name="Path 49" d="M22.256.347a.647.647,0,0,0-.713-.134L.389,9.483a.654.654,0,0,0-.388.56.642.642,0,0,0,.325.593L7.7,14.82l4.379,7.452a.651.651,0,0,0,.555.321h.038a.647.647,0,0,0,.555-.388L22.394,1.06A.639.639,0,0,0,22.256.347ZM18.891,2.783,8.066,13.537,2.088,10.149ZM12.55,20.52,8.984,14.446,19.872,3.63Z" transform="translate(0 -0.16)" fill="#f5fbff"/>
    </g>
  </g>
</svg>
