<svg xmlns="http://www.w3.org/2000/svg" width="16.858" height="19.267" viewBox="0 0 16.858 19.267">
  <path id="Icon_metro-attachment" data-name="Icon metro-attachment" d="M15.46,8.082,14.238,6.86,8.127,12.97a2.592,2.592,0,0,0,3.667,3.666L19.127,9.3a4.321,4.321,0,1,0-6.111-6.11l-7.7,7.7-.016.016a6.026,6.026,0,0,0,8.523,8.522l.015-.016h0l5.256-5.255-1.223-1.221-5.256,5.254-.016.016a4.3,4.3,0,0,1-6.079-6.077l.017-.016h0l7.7-7.7a2.593,2.593,0,1,1,3.667,3.666l-7.334,7.332a.864.864,0,0,1-1.222-1.221L15.46,8.082Z" transform="translate(-3.535 -1.928)" fill="#a4a7ab"/>
</svg>
